<?xml version="1.0" encoding="UTF-8"?>
<svg id="Layer_1" data-name="Layer 1" xmlns="http://www.w3.org/2000/svg" viewBox="0 0 12.5 12.5">
  <g id="Mouse_trap_cheese">
    <path fill="#fcdf60" stroke="#231f20" stroke-linecap="round" stroke-linejoin="round" stroke-width=".5px" d="m10.78,1.51c-1.14-.4-2.58-.9-3.51-1.22-.21-.02-.41-.04-.62-.04-.64,0-1.27.16-1.9.25-.17.19-.38.41-.6.64.01.02.02.04.03.06.05.12.08.23.09.36,0,.08,0,.17-.04.25-.04.12-.09.2-.17.3-.05.06-.12.11-.18.15-.1.05-.21.08-.31.09-.05,0-.09.02-.14.02-.12,0-.21-.03-.32-.09,0,0-.02-.01-.03-.02-.74.79-1.54,1.64-2.2,2.33-.14.37-.25.75-.34,1.14l11.2-2.5c-.17-.33-.79-1.41-.97-1.74Z"/>
    <path fill="#f0c517" stroke="#231f20" stroke-linecap="round" stroke-linejoin="round" stroke-width=".5px" d="m11.08,1.93C8.02,4.33,2.85,5.04.54,5.75c-.3,1.24-.36,2.55-.22,3.83.06-.03.13-.05.19-.06.14-.01.28-.05.42-.03.12.01.22.03.33.1.1.06.17.15.24.25.12.17.17.39.17.59,0,.19-.05.39-.15.56,0,0,0,.02,0,.03-.01.08-.05.15-.09.22.07.08.15.16.22.24.24.25.49.51.72.78.36-.1.73-.22,1.12-.33,0-.09.02-.18.06-.27.08-.19.32-.34.49-.33.21,0,.39-.03.55.15.03.03.04.07.05.11,2.28-.69,4.77-1.48,6.22-1.96.28-.56.58-1.11.94-1.62-.04-.03-.08-.06-.11-.1-.12-.15-.21-.31-.27-.5-.03-.09-.02-.19.02-.28.01-.09.04-.18.08-.26.08-.16.24-.29.41-.33.1-.02.18-.02.27-.01.01-.72.05-1.43.04-2.15-.34-.62-.85-1.8-1.17-2.43Z"/>
    <g>
      <path fill="#231f20" stroke-width="0px" d="m7.55,1.72c.08-.2-.05-.37-.22-.45-.38-.17-.85-.1-1.25-.03-.17.03-.34.12-.43.28-.06.11-.06.24,0,.35.08.14.23.2.38.23.19.04.39.04.58.03.33-.01.8-.04.94-.42Z"/>
      <path fill="#231f20" stroke-width="0px" d="m7.88,6.78c-.3-.02-.59.14-.82.34-.23.22-.32.61-.3.92.02.18.07.35.19.48.13.14.32.2.51.2.33.01.73,0,.93-.33.1-.16.13-.36.14-.55.02-.24.02-.49-.09-.7-.11-.22-.33-.35-.56-.36Z"/>
      <path fill="#231f20" stroke-width="0px" d="m3.18,7.34c-.19-.11-.41-.11-.62-.07,0,0,0,0,0,0-.32,0-.61.18-.8.44-.09.13-.16.27-.18.43-.01.07-.02.15-.03.22-.02.07-.02.15-.01.22.03.28.26.47.5.57.12.05.24.08.37.12.09.03.19.05.29.05.72.01,1.09-.93.85-1.56-.07-.18-.19-.33-.35-.42Z"/>
      <path fill="#231f20" stroke-width="0px" d="m3.98,3.33c-.1.01-.2.03-.3.06-.06.02-.14.04-.19.08,0,0,0,0,0,.01,0,0,0,0-.01,0-.16.13-.32.46-.09.6.09.06.2.06.3.05.1-.01.18-.04.27-.09.1-.06.2-.12.28-.2.08-.07.15-.18.15-.29-.01-.21-.23-.25-.39-.24Z"/>
      <path fill="#231f20" stroke-width="0px" d="m10.12,3.33c-.25-.02-.52.06-.74.2-.09.06-.18.14-.25.23-.06.08-.08.17-.09.26-.06.39.1.8.47.95.37.15.84-.01,1.14-.26.22-.17.45-.45.42-.76-.05-.47-.59-.59-.95-.63Z"/>
    </g>
  </g>
</svg>
