<?xml version="1.0" encoding="UTF-8"?>
<svg id="Layer_1" data-name="Layer 1" xmlns="http://www.w3.org/2000/svg" viewBox="0 0 66.12 55.55">
  <g>
    <path fill="rgba(61, 165, 72, .72)" stroke-width="0px" d="m35.56,55.48c-14.49.68-23.26-3.68-23.53-11.69-.34-9.76,10.22-22.94,18.68-23.34,10.52-.51,24.55,11.37,25.47,21.57.77,8.43-5.89,12.79-20.61,13.46h-.01Z"/>
    <path fill="rgba(61, 165, 72, .72)" stroke-width="0px" d="m33.28,16.52c-6.28.07-13.08-2.37-8.51-12.06,2.31-4.91,9.51-5.86,14.18-2.39,5.42,4.04,9.07,14.27-5.67,14.44h0Z"/>
    <path fill="rgba(61, 165, 72, .72)" stroke-width="0px" d="m.56,22.75c-1.6-5.13-.42-11.67,11.92-11.65,6.25,0,9.09,5.55,6.19,10.73-3.36,6.02-14.33,12.96-18.11.92Z"/>
    <path fill="rgba(61, 165, 72, .72)" stroke-width="0px" d="m66.08,16.54c.62,6.7-5.74,10.44-9.87,9.55-4.13-.89-10.14-4.09-10.43-8.69-.27-4.24,5.12-8.11,8.44-8.82,2.62-.57,11.25,1.25,11.87,7.96h-.01Z"/>
  </g>
  <path fill="none" stroke="rgba(14, 97, 50, .9)" d="m30.72,21.08c5.08-.24,11.08,2.49,15.96,6.59,4.88,4.1,8.5,9.45,8.94,14.32h0c.19,2.02-.08,3.76-.78,5.25-.7,1.49-1.85,2.77-3.48,3.83-3.29,2.13-8.51,3.37-15.84,3.7h-.08s-.01,0-.01,0c-7.15.33-12.83-.58-16.74-2.51-3.78-1.86-5.88-4.66-6.12-8.24l-.02-.35v-.44c0-4.57,2.42-9.93,5.92-14.26,3.5-4.34,7.96-7.51,11.88-7.87l.38-.03ZM12.5,11.83c2.96,0,5.05,1.3,6.08,3.13,1.03,1.84,1.04,4.31-.33,6.74h0c-1.62,2.88-5.1,5.99-8.58,6.92-1.72.46-3.4.38-4.87-.47-1.38-.8-2.63-2.33-3.54-4.91l-.18-.53c-.78-2.47-.84-5.17.66-7.24,1.45-2,4.48-3.56,10.2-3.65h.56Zm41.76-2.51c.57-.12,1.53-.12,2.68.06,1.14.19,2.44.55,3.67,1.14,2.37,1.12,4.43,3,4.84,5.87l.04.37c.29,3.13-1.05,5.56-2.96,7.11-1.93,1.57-4.39,2.21-6.28,1.81-2-.43-4.47-1.42-6.46-2.84-2-1.43-3.43-3.24-3.56-5.3h0c-.12-1.88,1.03-3.75,2.71-5.28,1.67-1.52,3.77-2.61,5.32-2.94h0ZM31.03.96c2.39-.37,5.02.13,7.17,1.54l.42.29c1.3.96,2.49,2.29,3.33,3.74.84,1.46,1.3,3,1.18,4.4-.11,1.37-.78,2.63-2.29,3.59-1.53.97-3.96,1.63-7.59,1.67h-.65c-2.88-.04-5.67-.66-7.31-2.2-.86-.81-1.42-1.89-1.51-3.34-.09-1.46.31-3.33,1.43-5.68,1.07-2.25,3.27-3.62,5.82-4.01Z"/>
</svg>
