<?xml version="1.0" encoding="UTF-8"?>
<svg id="Layer_1" data-name="Layer 1" xmlns="http://www.w3.org/2000/svg" viewBox="0 0 21.58 230.23">
  <defs>
    <style>
      .cls-1 {
        fill: #e5e5e5;
        stroke-width: 0px;
      }
    </style>
  </defs>
  <path class="cls-1" d="m6.29.48c-.88,9.12-1.3,18.28-1.2,27.45.08,7.41.49,14.8.88,22.2.37,6.9.67,13.81.53,20.72-.17,8.14-1.19,16.16-2.16,24.24-1.71,14.27-3.26,28.57-3.9,42.94-.54,12.13-.29,24.26.51,36.37,1.06,15.99,2.82,31.93,4.53,47.86.27,2.5.54,5.01.81,7.51.07.63,1.07.64,1,0-1.82-16.81-3.72-33.62-4.99-50.48-.93-12.29-1.4-24.6-1.02-36.92.42-13.78,1.78-27.52,3.35-41.22.95-8.3,2.21-16.59,2.67-24.93.38-6.99.25-14-.07-20.99s-.81-14.33-1.02-21.51c-.26-8.6-.13-17.21.47-25.8.17-2.47.38-4.94.62-7.41.06-.64-.94-.64-1,0h0Z"/>
  <path class="cls-1" d="m20.13.48c-.88,9.12-1.3,18.28-1.2,27.45.08,7.41.49,14.8.88,22.2.37,6.9.67,13.81.53,20.72-.17,8.14-1.19,16.16-2.16,24.24-1.71,14.27-3.26,28.57-3.9,42.94-.54,12.13-.29,24.26.51,36.37,1.06,15.99,2.82,31.93,4.53,47.86.27,2.5.54,5.01.81,7.51.07.63,1.07.64,1,0-1.82-16.81-3.72-33.62-4.99-50.48-.93-12.29-1.4-24.6-1.02-36.92.42-13.78,1.78-27.52,3.35-41.22.95-8.3,2.21-16.59,2.67-24.93.38-6.99.25-14-.07-20.99s-.81-14.33-1.02-21.51c-.26-8.6-.13-17.21.47-25.8.17-2.47.38-4.94.62-7.41.06-.64-.94-.64-1,0h0Z"/>
  <path class="cls-1" d="m6.37,9.98c4.53,0,9.07,0,13.6,0,.64,0,.64-1,0-1-4.53,0-9.07,0-13.6,0-.64,0-.64,1,0,1h0Z"/>
  <path class="cls-1" d="m6.42,22.24c4.25,0,8.51,0,12.76,0,.64,0,.64-1,0-1-4.25,0-8.51,0-12.76,0-.64,0-.64,1,0,1h0Z"/>
  <path class="cls-1" d="m5.85,34.5c4.49,0,8.98,0,13.48,0,.64,0,.64-1,0-1-4.49,0-8.98,0-13.48,0-.64,0-.64,1,0,1h0Z"/>
  <path class="cls-1" d="m6.57,46.76c4.47,0,8.93,0,13.4,0,.64,0,.64-1,0-1-4.47,0-8.93,0-13.4,0-.64,0-.64,1,0,1h0Z"/>
  <path class="cls-1" d="m7.53,59.02c4.25,0,8.51,0,12.76,0,.64,0,.64-1,0-1-4.25,0-8.51,0-12.76,0-.64,0-.64,1,0,1h0Z"/>
  <path class="cls-1" d="m7.27,71.27c4.61,0,9.22,0,13.82,0,.64,0,.64-1,0-1-4.61,0-9.22,0-13.82,0-.64,0-.64,1,0,1h0Z"/>
  <path class="cls-1" d="m6.3,83.53c4.65,0,9.3,0,13.94,0,.64,0,.64-1,0-1-4.65,0-9.3,0-13.94,0-.64,0-.64,1,0,1h0Z"/>
  <path class="cls-1" d="m4.72,95.79c4.64,0,9.28,0,13.93,0,.64,0,.64-1,0-1-4.64,0-9.28,0-13.93,0-.64,0-.64,1,0,1h0Z"/>
  <path class="cls-1" d="m3.62,108.05c4.55,0,9.11,0,13.66,0,.64,0,.64-1,0-1-4.55,0-9.11,0-13.66,0-.64,0-.64,1,0,1h0Z"/>
  <path class="cls-1" d="m2.33,120.31c4.65,0,9.31,0,13.96,0,.64,0,.64-1,0-1-4.65,0-9.31,0-13.96,0-.64,0-.64,1,0,1h0Z"/>
  <path class="cls-1" d="m1.51,132.57c4.55,0,9.1,0,13.65,0,.64,0,.64-1,0-1-4.55,0-9.1,0-13.65,0-.64,0-.64,1,0,1h0Z"/>
  <path class="cls-1" d="m1.09,144.83c4.41,0,8.82,0,13.23,0,.64,0,.64-1,0-1-4.41,0-8.82,0-13.23,0-.64,0-.64,1,0,1h0Z"/>
  <path class="cls-1" d="m.48,157.09c4.37,0,8.74,0,13.11,0,.64,0,.64-1,0-1-4.37,0-8.74,0-13.11,0-.64,0-.64,1,0,1H.48Z"/>
  <path class="cls-1" d="m1.86,169.35c4.25,0,8.51,0,12.76,0,.64,0,.64-1,0-1-4.25,0-8.51,0-12.76,0-.64,0-.64,1,0,1h0Z"/>
  <path class="cls-1" d="m2.73,181.61c4.43,0,8.85,0,13.28,0,.64,0,.64-1,0-1-4.43,0-8.85,0-13.28,0-.64,0-.64,1,0,1h0Z"/>
  <path class="cls-1" d="m3.41,193.87c4.25,0,8.51,0,12.76,0,.64,0,.64-1,0-1-4.25,0-8.51,0-12.76,0-.64,0-.64,1,0,1h0Z"/>
  <path class="cls-1" d="m4.28,206.12c4.61,0,9.22,0,13.82,0,.64,0,.64-1,0-1-4.61,0-9.22,0-13.82,0-.64,0-.64,1,0,1h0Z"/>
  <path class="cls-1" d="m6.01,218.38c4.46,0,8.93,0,13.39,0,.64,0,.64-1,0-1-4.46,0-8.93,0-13.39,0-.64,0-.64,1,0,1h0Z"/>
</svg>