<?xml version="1.0" encoding="UTF-8"?>
<svg id="Layer_1" data-name="Layer 1" xmlns="http://www.w3.org/2000/svg" viewBox="0 0 39.11 36.75">
  <g>
    <path fill="currentColor" stroke-width="0px" d="m25.52,33.42c2.74-5.38.22-15.67-4.47-18.23-5.82-3.18-16.87-.38-20.06,5.08-2.64,4.51,0,8.78,8.15,13.22,8.03,4.37,14.13,4.34,16.38-.08h0Z"/>
    <path fill="currentColor" stroke-width="0px" d="m31.82,7.57c-.03-3.65-4.15-6.36-7.97-5.64-4.44.83-9.54,5.92-.61,10.4,3.81,1.91,8.65,2.45,8.59-4.75h0Z"/>
    <path fill="currentColor" stroke-width="0px" d="m6.38,9.53c3.73,1.18,11.04-.16,8.04-6.55-1.28-2.72-4.28-4.95-9.51-.23-2.65,2.39-1.74,5.76,1.47,6.78Z"/>
    <path fill="currentColor" stroke-width="0px" d="m39.08,22.02c.17-.75-.4-4.6-1.68-5.55-1.95-1.45-4.75-1.86-6.8-.55-1.12.71-1.94,3.53-1.71,4.59.56,2.61,2.57,6.43,5.45,6.57,2.67.13,4.31-2.95,4.76-5.07h0Z"/>
  </g>
  <g id="Questionmark">
    <path fill="#fff" stroke-width="0px" d="m20.07,20.25c0-2.94-4.56-4.57-6.98-3.4-2.15,1.04-3.1,3.76-1.76,4.53.41.23,1.49.37,1.42-.63-.32-4.55,7.65-1.87,4.9,1.95-1.04,1.45-3.47,1.06-4.38,2.7-.54.95-.75,2.9.7,2.65.95-.31.44-2.23,1.23-2.47,2.11-.64,4.86-.97,4.87-5.33h0Z"/>
    <path fill="#fff" stroke-width="0px" d="m13.6,29.21c-1.57.57-.71,2.88.81,2.2,1.57-.47.74-2.76-.81-2.2Z"/>
  </g>
</svg>
