<?xml version="1.0" encoding="UTF-8"?>
<svg id="Layer_1" data-name="Layer 1" xmlns="http://www.w3.org/2000/svg" viewBox="0 0 24.28 45.62">
  <path fill="#000" stroke-width="0px" d="m8.65,27.86s.03,0,.05,0c-.2.6-.31,1.23-.34,1.86.02.01.04.02.05.03.18.14.31.36.42.55.22.36.43.72.65,1.08.09.14.08.33-.06.43-.13.09-.35.08-.43-.06-.21-.34-.49-.06-.36.41.05.16,0,.33-.17.4-.14.06-.36,0-.4-.17-.15-.53-.75-.89-.97-.56-.09.14-.31.15-.44.05-.14-.11-.14-.3-.05-.44.26-.38.5-.78.74-1.17.11-.18.23-.36.39-.5,0-.07,0-.14,0-.2.04-.69.2-1.36.42-2.01.12.16.31.28.5.29Z"/>
  <path fill="#000" stroke-width="0px" d="m12.06,26.56s-.02.02-.03.04c.57.27,1.1.62,1.58,1.03,0,.02-.01.04-.02.06-.02.23.05.47.11.69.11.41.23.81.33,1.21.04.16.18.28.36.25.15-.03.3-.2.25-.36-.1-.38.3-.39.55.03.09.14.24.23.41.15.14-.06.24-.27.15-.41-.28-.47-.13-1.16.26-1.09.17.03.32-.12.34-.28.02-.18-.12-.31-.28-.34-.46-.08-.91-.18-1.36-.27-.2-.04-.42-.09-.63-.07-.05-.05-.1-.09-.15-.14-.53-.44-1.12-.79-1.74-1.08.03.2-.01.41-.13.56Z"/>
  <path fill="#808283" stroke="#000" stroke-miterlimit="10" d="m10.23,30.65c-5.61-8.34-3.44-15.33,2.78-15.88,1.48-.13,4.96.68,2.66,5.16-3.66,7.12-3.36,10.13-4.22,10.84-.53.43-1.12.03-1.22-.12Z"/>
  <path fill="#808283" stroke="#000" stroke-miterlimit="10" d="m17.26,31.63c-3.42-1.5-10.72-.24-10.87,3.65,1.08,1.8,3.17,3.9,4.64,5.54,4.84,5.43,4.23,3.92,6.23-9.19Z"/>
  <ellipse fill="#000" stroke-width="0px" cx="14.64" cy="43.69" rx="1.48" ry="1.24" transform="translate(-18.53 11.71) rotate(-27.52)"/>
  <g>
    <ellipse fill="#000" stroke-width="0px" cx="13.77" cy="35.61" rx="1.08" ry="1.05" transform="translate(-14.9 10.39) rotate(-27.52)"/>
    <path fill="#fff" stroke-width="0px" d="m13.34,35.01c.37-.13.87.77.34,1-.5.11-.94-.71-.34-1Z"/>
  </g>
  <g>
    <ellipse fill="#000" stroke-width="0px" cx="9.96" cy="36.54" rx="1.08" ry="1.05" transform="translate(-15.76 8.74) rotate(-27.52)"/>
    <path fill="#fff" stroke-width="0px" d="m9.52,35.94c.37-.13.87.77.34,1-.5.11-.94-.71-.34-1Z"/>
  </g>
  <g id="whiskers">
    <line fill="none" stroke="#000" stroke-width=".5px" stroke-miterlimit="10" x1="16.06" y1="41.14" x2="23.23" y2="39.93"/>
    <line fill="none" stroke="#000" stroke-width=".5px" stroke-miterlimit="10" x1="16.13" y1="40.42" x2="22.99" y2="38.01"/>
    <line fill="none" stroke="#000" stroke-width=".5px" stroke-miterlimit="10" x1="11.58" y1="41.67" x2="4.67" y2="43.92"/>
    <line fill="none" stroke="#000" stroke-width=".5px" stroke-miterlimit="10" x1="12.2" y1="42.2" x2="5.67" y2="45.4"/>
  </g>
  <path fill="#000" stroke-width="0px" d="m14.72,14.89c.25-.99.18-1.97.3-2.97.12-1.07.79-1.66,1.73-2.11.78-.37,1.62-.53,2.43-.81.68-.24,1.33-.55,1.94-.94,1.24-.78,2.4-1.86,2.93-3.25.68-1.78-.17-3.47-1.49-4.68-.47-.43-1.18.27-.71.71,1.19,1.09,1.89,2.52,1.07,4.05-.68,1.29-1.97,2.22-3.26,2.84-2,.96-5.12,1.06-5.59,3.75-.18,1.05-.05,2.11-.32,3.15-.16.62.8.89.96.27h0Z"/>
  <path fill="#808283" stroke="#000" stroke-miterlimit="10" d="m14.32,31.93c-1.28-.31-2.1-.91-2.06-1.71.84-1.38,5.66-2.52,7.41-1.94,1.35.67,1.77,1.93-.57,3.1-1.85.69-2.94,1-4.78.55Z"/>
  <path fill="#808283" stroke="#000" stroke-miterlimit="10" d="m1.01,33.3c-.45.86-1.05,1.99.42,2.4,1.78.38,5.35-.47,6.28-1.63,3.43-2.78-4.26-3.37-6.7-.76Z"/>
  <path fill="#000" stroke-width="0px" d="m7.74,18.43s.03.01.04.02c-.45.45-.83.96-1.14,1.51.01.02.03.03.03.05.1.21.11.46.13.68.04.42.06.84.1,1.25.01.17-.07.33-.25.36-.15.03-.35-.08-.36-.25-.03-.39-.41-.27-.51.21-.03.16-.15.3-.33.28-.15-.01-.32-.17-.28-.33.11-.54-.27-1.13-.62-.93-.15.08-.35,0-.41-.15-.07-.16,0-.33.15-.41.4-.23.79-.47,1.19-.71.18-.11.37-.22.57-.28.03-.06.06-.12.09-.18.35-.6,1.98-2.71,2.47-3.19.04.2-1.05,1.97-.88,2.07Z"/>
  <path fill="#000" stroke-width="0px" d="m16.31,18.29s-.03,0-.05,0c.16.62.24,1.24.23,1.87-.02,0-.04.01-.06.03-.19.13-.33.34-.46.52-.24.34-.47.69-.71,1.04-.1.14-.1.32.04.44.12.1.34.1.44-.04.23-.32.49-.03.33.44-.05.16-.02.33.15.41.14.07.36.01.41-.15.18-.52.8-.85,1-.5.09.15.3.17.43.08.14-.1.16-.29.08-.43-.23-.4-.45-.81-.67-1.21-.1-.18-.2-.38-.35-.52,0-.07,0-.14,0-.2,0-.69-.36-3.34-.54-4-.13.15-.08,2.23-.27,2.24Z"/>
</svg>
