<?xml version="1.0" encoding="UTF-8"?>
<svg id="Layer_1" data-name="Layer 1" xmlns="http://www.w3.org/2000/svg" viewBox="0 0 27.93 36.41">
  <path fill="#000" stroke-width="0px" d="m19.08,16s-.03.02-.04.03c-.2-.6-.48-1.17-.83-1.7-.02,0-.04,0-.06,0-.23,0-.46-.11-.67-.19-.39-.16-.77-.33-1.16-.48-.16-.06-.26-.21-.21-.39.05-.15.23-.27.39-.21.37.15.43-.24.04-.55-.13-.1-.2-.27-.1-.43.08-.13.29-.2.43-.1.43.34,1.13.28,1.11-.12,0-.17.16-.3.32-.3.18,0,.29.15.3.32.02.46.06.92.09,1.38.01.21.03.43-.01.63.04.06.08.11.12.17.37.58.65,1.21.85,1.86-.19-.06-.41-.04-.58.06Z"/>
  <path fill="#000" stroke-width="0px" d="m16.72,18.41s-.02-.02-.03-.04c-.32.55-.71,1.05-1.16,1.49-.02,0-.04-.02-.06-.02-.23-.04-.47,0-.69.05-.41.07-.82.16-1.24.23-.17.03-.3.16-.28.34.01.16.17.31.34.28.39-.07.37.33-.07.54-.15.07-.25.22-.19.4.05.15.25.26.4.19.49-.24,1.16-.04,1.06.35-.04.16.1.33.25.36.17.03.32-.09.36-.25.12-.45.25-.89.38-1.33.06-.2.12-.41.12-.62.05-.05.1-.09.15-.14.49-.49.88-1.05,1.22-1.65-.2.02-.41-.04-.55-.18Z"/>
  <path fill="#808283" stroke="#000" stroke-miterlimit="10" d="m16.15,14.69c9.46,3.39,11.86,10.31,7.18,14.43-1.11.98-5.78,1.07-5.2-2.57,1.27-7.91-3.3-10.15-3.03-11.23.17-.66.89-.69,1.05-.63Z"/>
  <path fill="#808283" stroke="#000" stroke-miterlimit="10" d="m9.91,18.07c3.65-.82,8.77-6.16,6.59-9.38-1.94-.81-4.87-1.26-7.02-1.71-7.12-1.51-5.73-.65.43,11.1Z"/>
  <ellipse fill="#000" stroke-width="0px" cx="4.87" cy="6.81" rx="1.48" ry="1.24" transform="translate(-3.39 8.18) rotate(-63.88)"/>
  <g>
    <ellipse fill="#000" stroke-width="0px" cx="10.36" cy="12.8" rx="1.08" ry="1.05" transform="translate(-5.7 16.46) rotate(-63.88)"/>
    <path fill="#fff" stroke-width="0px" d="m11.06,13.02c-.22.33-1.15-.1-.87-.6.34-.38,1.18.02.87.6Z"/>
  </g>
  <g>
    <ellipse fill="#000" stroke-width="0px" cx="12.88" cy="9.79" rx="1.08" ry="1.05" transform="translate(-1.59 17.04) rotate(-63.88)"/>
    <path fill="#fff" stroke-width="0px" d="m13.58,10.01c-.22.33-1.15-.1-.87-.6.34-.38,1.18.02.87.6Z"/>
  </g>
  <g id="whiskers">
    <line fill="none" stroke="#000" stroke-width=".5px" stroke-miterlimit="10" x1="5.24" y1="9.7" x2=".18" y2="14.93"/>
    <line fill="none" stroke="#000" stroke-width=".5px" stroke-miterlimit="10" x1="5.6" y1="10.32" x2="1.51" y2="16.34"/>
    <line fill="none" stroke="#000" stroke-width=".5px" stroke-miterlimit="10" x1="8.53" y1="6.63" x2="12.76" y2=".71"/>
    <line fill="none" stroke="#000" stroke-width=".5px" stroke-miterlimit="10" x1="7.71" y1="6.56" x2="11.08" y2=".12"/>
  </g>
  <path fill="#000" stroke-width="0px" d="m21.86,30c.57,1.52.25,3.19-.97,4.29-1.63,1.46-4.08,1.28-6.03.68s-3.74-1.7-5.38-2.91c-.52-.38-1.02.48-.5.86,2.65,1.96,6.03,3.86,9.46,3.44,2.02-.25,3.87-1.46,4.5-3.47.32-1.03.26-2.15-.12-3.15-.23-.6-1.19-.34-.96.27h0Z"/>
  <path fill="#808283" stroke="#000" stroke-miterlimit="10" d="m12.1,16.09c1.21-.5,2.23-.51,2.67.15.14,1.61-3.06,5.38-4.81,5.95-1.48.26-2.57-.51-1.38-2.83,1.08-1.65,1.78-2.55,3.52-3.28Z"/>
  <path fill="#808283" stroke="#000" stroke-miterlimit="10" d="m22.01,7.1c-.15-.96-.33-2.22-1.76-1.68-1.65.75-4.03,3.55-4.09,5.04-1.11,4.27,5.43.19,5.85-3.36Z"/>
  <path fill="#000" stroke-width="0px" d="m25.78,23.3s-.03,0-.05,0c.2-.6.32-1.23.36-1.85-.02-.01-.04-.02-.05-.03-.18-.14-.3-.36-.42-.55-.22-.36-.42-.72-.64-1.08-.09-.14-.08-.33.07-.43.13-.09.35-.08.43.07.2.34.49.06.36-.41-.04-.16,0-.33.17-.4.14-.06.36.01.4.17.14.53.74.9.96.57.09-.14.31-.15.44-.05.14.11.14.3.05.44-.26.38-.5.77-.75,1.16-.11.17-.23.36-.39.5,0,.07,0,.14,0,.2-.05.69-.59,3.31-.81,3.95-.12-.16.07-2.23-.12-2.25Z"/>
  <path fill="#000" stroke-width="0px" d="m18.75,29.19s.01-.03.02-.04c-.63-.06-1.25-.21-1.84-.43,0-.02,0-.04,0-.06-.06-.22-.2-.42-.33-.61-.24-.34-.49-.68-.73-1.03-.1-.14-.27-.2-.42-.12-.14.08-.21.29-.12.42.23.32-.14.47-.52.16-.13-.11-.31-.13-.44,0-.11.11-.13.33,0,.44.43.35.52,1.04.13,1.11-.17.03-.26.23-.22.38.05.17.21.25.38.22.46-.08.91-.14,1.37-.22.2-.03.42-.06.61-.15.06.02.12.06.19.08.65.23,3.26.81,3.94.87-.1-.17-2.07-.84-2.01-1.02Z"/>
</svg>
