<?xml version="1.0" encoding="UTF-8"?>
<svg id="Layer_1" data-name="Layer 1" xmlns="http://www.w3.org/2000/svg" viewBox="0 0 32.04 29.04">
  <path fill="#000" stroke-width="0px" d="m14.34,10.04s.02.02.04.03c-.56.3-1.07.67-1.53,1.11,0,.02.02.04.02.06.03.23-.03.47-.07.69-.09.41-.19.82-.28,1.23-.04.16-.17.29-.35.27-.16-.02-.31-.18-.27-.35.08-.39-.32-.38-.55.05-.08.15-.23.24-.4.17-.14-.06-.25-.25-.17-.4.26-.49.08-1.16-.31-1.07-.16.04-.33-.11-.35-.26-.02-.18.1-.31.26-.35.45-.1.9-.22,1.35-.33.2-.05.42-.11.63-.1.05-.05.09-.1.14-.15.51-.47,1.08-.85,1.69-1.16-.02.2.03.41.16.56Z"/>
  <path fill="#000" stroke-width="0px" d="m17.89,9.11s-.03-.01-.05-.02c-.02.64-.13,1.26-.32,1.86-.02,0-.04,0-.06,0-.22.07-.41.23-.59.37-.33.26-.65.53-.98.79-.13.1-.19.28-.09.43.09.13.3.19.43.09.31-.25.48.12.19.51-.1.14-.11.32.02.44.11.1.34.11.44-.02.32-.45,1.01-.58,1.1-.19.04.16.24.25.39.2.17-.06.24-.23.2-.39-.11-.45-.2-.9-.3-1.35-.04-.2-.09-.42-.19-.6.02-.06.05-.13.07-.19.2-.66.28-1.34.3-2.03-.17.11-.38.15-.57.1Z"/>
  <path fill="#808283" stroke="#000" stroke-miterlimit="10" d="m13.56,13.14C12.37,2.99,27.48-.54,30.3,6.24c2.51,6.03-4.13,7.8-5.51,4.38-3.53-8.75-9.33,3.54-10.44,3.46-.68-.05-.78-.75-.8-.93Z"/>
  <path fill="#808283" stroke="#000" stroke-miterlimit="10" d="m17.96,18.71c-1.44-3.45-7.58-7.58-10.38-4.87-.47,2.05-.4,5.01-.48,7.21-.25,7.27.35,5.75,10.85-2.34Z"/>
  <ellipse fill="#000" stroke-width="0px" cx="7.74" cy="25.62" rx="1.24" ry="1.48" transform="translate(-19.02 25.91) rotate(-73.82)"/>
  <g>
    <ellipse fill="#000" stroke-width="0px" cx="12.7" cy="19.18" rx="1.05" ry="1.08" transform="translate(-9.26 26.03) rotate(-73.82)"/>
    <path fill="#fff" stroke-width="0px" d="m12.79,18.44c.36.16.1,1.15-.44.96-.43-.27-.19-1.16.44-.96Z"/>
  </g>
  <g>
    <ellipse fill="#000" stroke-width="0px" cx="9.3" cy="17.22" rx="1.05" ry="1.08" transform="translate(-9.83 21.35) rotate(-73.82)"/>
    <path fill="#fff" stroke-width="0px" d="m9.39,16.48c.36.16.1,1.15-.44.96-.43-.27-.19-1.16.44-.96Z"/>
  </g>
  <g id="whiskers">
    <line fill="none" stroke="#000" stroke-width=".5px" stroke-miterlimit="10" x1="10.53" y1="24.75" x2="16.54" y2="28.84"/>
    <line fill="none" stroke="#000" stroke-width=".5px" stroke-miterlimit="10" x1="11.07" y1="24.29" x2="17.7" y2="27.28"/>
    <line fill="none" stroke="#000" stroke-width=".5px" stroke-miterlimit="10" x1="6.93" y1="22.04" x2=".37" y2="18.89"/>
    <line fill="none" stroke="#000" stroke-width=".5px" stroke-miterlimit="10" x1="7.01" y1="22.86" x2=".08" y2="20.66"/>
  </g>
  <path fill="#000" stroke-width="0px" d="m29.12,12.16c1.3,2.36,2.37,5.32,1.78,8.05-.18.85-.54,1.7-1.23,2.26-.63.51-1.46.63-2.24.47-1.44-.29-2.66-1.25-3.7-2.24-.47-.44-1.18.26-.71.71,1.7,1.61,4.47,3.52,6.85,2.12,2.11-1.24,2.35-4.15,2.05-6.32-.27-1.96-1-3.83-1.95-5.56-.31-.56-1.17-.06-.86.5h0Z"/>
  <path fill="#808283" stroke="#000" stroke-miterlimit="10" d="m15.63,16.9c-.7-1.11-.88-2.11-.31-2.66,1.56-.41,5.83,2.09,6.7,3.71.51,1.42-.06,2.62-2.55,1.85-1.81-.78-2.82-1.31-3.83-2.9Z"/>
  <path fill="#808283" stroke="#000" stroke-miterlimit="10" d="m5.07,8.69c-.92.31-2.13.71-1.35,2.02,1.03,1.5,4.19,3.35,5.67,3.16,4.4.36-.75-5.38-4.32-5.18Z"/>
  <path fill="#000" stroke-width="0px" d="m25.79,2.97s0,.03-.01.05c-.54-.34-1.12-.6-1.72-.78-.01.01-.03.03-.04.04-.18.14-.42.21-.64.28-.4.13-.8.24-1.2.37-.16.05-.34,0-.41-.17-.06-.14,0-.36.17-.41.38-.12.17-.46-.32-.45-.17,0-.32-.08-.35-.26-.02-.15.1-.35.26-.35.55-.02,1.05-.51.78-.81-.11-.12-.07-.34.06-.43.14-.11.32-.07.43.06.31.34.64.67.96,1,.14.15.3.31.39.5.07.02.13.03.2.05.66.21,3.08,1.34,3.66,1.71-.18.08-2.15-.59-2.22-.41Z"/>
  <path fill="#000" stroke-width="0px" d="m26.06,11.7s.01-.03.02-.04c-.63-.07-1.25-.22-1.84-.45,0-.02,0-.04,0-.06-.06-.22-.2-.43-.33-.61-.24-.35-.48-.69-.72-1.03-.09-.14-.26-.21-.42-.12-.14.08-.21.28-.12.42.22.33-.15.47-.52.16-.13-.11-.31-.14-.44,0-.11.11-.14.33,0,.44.42.35.51,1.05.12,1.11-.17.03-.26.22-.22.38.04.17.21.25.38.22.46-.08.91-.14,1.37-.2.21-.03.43-.06.62-.15.06.03.12.06.19.08.65.24,3.25.85,3.93.91-.1-.18-2.06-.86-2-1.04Z"/>
</svg>
