<?xml version="1.0" encoding="UTF-8"?>
<svg id="Layer_1" data-name="Layer 1" xmlns="http://www.w3.org/2000/svg" xmlns:xlink="http://www.w3.org/1999/xlink" viewBox="0 0 50.47 55.92">
  <defs>
    <clipPath id="clippath">
      <rect fill="none" stroke-width="0px" x="0" width="50.47" height="55.92"/>
    </clipPath>
  </defs>
  <g clip-path="url(#clippath)">
    <g>
      <path fill="#808284" stroke="#000" stroke-miterlimit="10" d="m14.79,24.04c2.19-3.11,3.28-6.98,2.59-10.67-2.7-5.42-12.79-4.65-15.68.29C-.35,18.54-.15,25.03,5.23,27.54c4.08.89,6.41.98,9.56-3.5Z"/>
      <path fill="#808284" stroke="#000" stroke-miterlimit="10" d="m37.11,16.46c-1.29-3.11-2.99-7.19-.82-10.36,2.69-3.33,9.1-3.37,11.37.52,7.41,8.12-4.87,18.22-10.55,9.84Z"/>
      <path fill="#808284" stroke="#000" stroke-miterlimit="10" d="m15.17,23.77c4.39-6.26,18.48-11.8,22.87-5.15.02,4.3-1.41,10.18-2.22,14.61-2.7,14.64-3.23,11.34-20.65-9.46Z"/>
      <path fill="#010101" stroke-width="0px" d="m32.72,44.62c1.67-.11,2.95-1.33,2.86-2.73-.09-1.4-1.52-2.45-3.19-2.34-1.67.11-2.95,1.33-2.86,2.73.09,1.4,1.52,2.45,3.19,2.34Z"/>
      <path fill="#010101" stroke-width="0px" d="m25.64,29.16c1.21-.08,2.13-1.1,2.06-2.28-.08-1.18-1.12-2.07-2.34-1.99-1.21.08-2.13,1.1-2.06,2.28.08,1.18,1.12,2.07,2.34,1.99Z"/>
      <path fill="#fff" stroke-width="0px" d="m25.62,25.52c-.79.17-.7,2.26.46,2.11.99-.34.89-2.24-.46-2.11Z"/>
      <path fill="#010101" stroke-width="0px" d="m33.28,26.75c1.21-.08,2.13-1.1,2.06-2.28-.08-1.18-1.12-2.07-2.34-1.99-1.21.08-2.13,1.1-2.06,2.28.08,1.18,1.12,2.07,2.34,1.99Z"/>
      <path fill="#fff" stroke-width="0px" d="m33.27,23.1c-.79.17-.7,2.26.46,2.11.99-.34.89-2.24-.46-2.11Z"/>
      <path fill="none" stroke="#000" stroke-miterlimit="10" d="m27.37,39.13l-13.83,5.5"/>
      <path fill="none" stroke="#000" stroke-miterlimit="10" d="m26.48,37.96l-14.56,3.05"/>
      <path fill="none" stroke="#000" stroke-miterlimit="10" d="m35.75,35.3l14.48-3.41"/>
      <path fill="none" stroke="#000" stroke-miterlimit="10" d="m35.23,36.89l14.82-1.34"/>
    </g>
  </g>
</svg>