<?xml version="1.0" encoding="utf-8"?>
<!-- Generator: Adobe Illustrator 27.8.1, SVG Export Plug-In . SVG Version: 6.00 Build 0)  -->
<svg version="1.1" id="Layer_1" xmlns="http://www.w3.org/2000/svg" xmlns:xlink="http://www.w3.org/1999/xlink" x="0px" y="0px"
	 viewBox="0 0 22.8 43.5" style="enable-background:new 0 0 22.8 43.5;" xml:space="preserve">
<style type="text/css">
	.st0{fill:#808283;stroke:#000000;stroke-linecap:round;stroke-linejoin:round;stroke-miterlimit:10;}
	.st1{fill:#FFFFFF;}
	.st2{fill:none;stroke:#000000;stroke-width:0.5;stroke-linecap:round;stroke-linejoin:round;stroke-miterlimit:10;}
</style>
<path id="right_front_paw" d="M8.9,25.4C8.9,25.4,9,25.4,8.9,25.4c-0.2,0.6-0.5,1.2-0.6,1.8c0,0,0,0,0.1,0c0.1,0.2,0.2,0.4,0.3,0.6
	c0.2,0.4,0.3,0.8,0.5,1.2c0.1,0.2,0,0.3-0.1,0.4c-0.1,0.1-0.4,0-0.4-0.1c-0.1-0.4-0.5-0.1-0.4,0.4c0,0.2-0.1,0.3-0.2,0.4
	c-0.2,0-0.3-0.1-0.4-0.2c-0.1-0.5-0.6-1-0.9-0.7c-0.1,0.1-0.3,0.1-0.4,0c-0.1-0.1-0.1-0.3,0-0.4c0.3-0.3,0.6-0.7,0.9-1
	c0.1-0.1,0.3-0.3,0.5-0.4c0-0.1,0-0.1,0-0.2c0.2-0.7,0.4-1.3,0.8-1.9C8.6,25.1,8.8,25.3,8.9,25.4L8.9,25.4z"/>
<path id="right_rear_paw" d="M6.5,16.3C6.5,16.3,6.6,16.3,6.5,16.3c-0.3,0.6-0.5,1.1-0.7,1.8c0,0,0,0,0.1,0c0.2,0.2,0.2,0.4,0.3,0.6
	c0.1,0.4,0.3,0.8,0.4,1.2c0.1,0.2,0,0.3-0.2,0.4c-0.1,0.1-0.4,0-0.4-0.1c-0.1-0.4-0.5-0.2-0.4,0.3c0,0.2-0.1,0.3-0.2,0.4
	c-0.2,0-0.3-0.1-0.4-0.2c0-0.5-0.5-1-0.8-0.8C4,20,3.8,20,3.7,19.9c-0.1-0.1-0.1-0.3,0-0.4c0.3-0.3,0.7-0.6,1-1
	C4.9,18.3,5,18.1,5.2,18c0-0.1,0-0.1,0.1-0.2c0.2-0.7,1.2-3.1,1.6-3.7C7,14.3,6.3,16.3,6.5,16.3L6.5,16.3z"/>
<path id="left_rear_paw" d="M16.1,15.4C16.1,15.4,16,15.4,16.1,15.4c0.3,0.5,0.6,1.1,0.9,1.7c0,0,0,0,0,0c-0.1,0.2-0.2,0.4-0.2,0.7
	c-0.1,0.4-0.2,0.8-0.3,1.2c0,0.2,0,0.3,0.2,0.4c0.1,0,0.4,0,0.4-0.2c0.1-0.4,0.5-0.2,0.5,0.3c0,0.2,0.1,0.3,0.3,0.3
	c0.1,0,0.3-0.1,0.3-0.3c0-0.5,0.4-1.1,0.7-0.8c0.1,0.1,0.3,0,0.4-0.1c0.1-0.1,0-0.3-0.1-0.4c-0.4-0.3-0.7-0.6-1.1-0.9
	c-0.2-0.1-0.3-0.3-0.5-0.4c0-0.1,0-0.1-0.1-0.2c-0.3-0.6-1.6-3-2-3.5C15.4,13.5,16.2,15.4,16.1,15.4L16.1,15.4z"/>
<path id="left_front_paw" d="M14.2,24.8C14.2,24.8,14.2,24.8,14.2,24.8c0.2,0.6,0.5,1.2,0.6,1.8c0,0,0,0-0.1,0
	c-0.1,0.2-0.2,0.4-0.3,0.6c-0.1,0.4-0.3,0.8-0.4,1.2c-0.1,0.2,0,0.3,0.1,0.4c0.1,0.1,0.4,0,0.4-0.1c0.1-0.4,0.5-0.1,0.4,0.4
	c0,0.2,0.1,0.3,0.2,0.4c0.1,0,0.4-0.1,0.4-0.2c0.1-0.5,0.6-1,0.9-0.7c0.1,0.1,0.3,0.1,0.4,0c0.1-0.1,0.1-0.3,0-0.4
	c-0.3-0.3-0.6-0.7-0.9-1c-0.1-0.1-0.3-0.3-0.5-0.4c0-0.1,0-0.1,0-0.2c-0.2-0.7-0.4-1.3-0.8-1.9C14.6,24.6,14.4,24.7,14.2,24.8
	L14.2,24.8z"/>
<path id="body" class="st0" d="M10.3,30.7c-0.1-3.2-2.5-8.1-3.4-9.9C6.2,19.4,5,12,11.7,12.7c4.6,0.2,5.1,2.7,4.7,6.3
	c0,1-2.5,7-3.8,8.8c-0.3,0.5-0.6,1.2-1,2.3C11.4,30.7,10.3,30.8,10.3,30.7L10.3,30.7z"/>
<g id="head">
  <g id="whiskers">
		<polyline class="st2" points="22.65,37.28 12.74,39.93 22.73,39.22"/>
		<polyline class="st2" points="4.78,43.22 14.38,39.6 3.9,41.67"/>
	</g>
	<path id="head-shape" class="st0" d="M17.5,30.4c-3.3-1.8-10.7-1.1-11.1,2.8c0.9,1.9,2.8,4.2,4.2,5.9
		C14.9,44.9,14.4,43.3,17.5,30.4z"/>
	<ellipse id="nose" transform="matrix(0.9218 -0.3877 0.3877 0.9218 -15.296 8.6796)" cx="13.9" cy="42.3" rx="1.5" ry="1.2"/>
	<path id="left_ear" class="st0" d="M15.1,30.8c-1.3-0.1-2.2-0.6-2.3-1.4c0.6-1.5,5.2-3.4,7-3.1c1.4,0.4,2.1,1.6-0.1,3.1
		C18,30.5,17,31,15.1,30.8z"/>
	<path id="right_ear" class="st0" d="M1.1,30.8c-0.5,0.8-1.2,1.9,0.2,2.4c1.7,0.5,5.4,0,6.4-1.1C11.4,29.6,3.8,28.4,1.1,30.8
		L1.1,30.8z"/>
	<g id="eyes">
		<g id="eye-top">
			<ellipse transform="matrix(0.9218 -0.3877 0.3877 0.9218 -12.1578 7.9634)" cx="13.7" cy="34.1" rx="1.1" ry="1"/>
			<path class="st1" d="M13.3,33.5c0.4-0.1,0.8,0.8,0.3,1C13,34.6,12.7,33.7,13.3,33.5z"/>
		</g>
		<g id="eye-bottom">
			<ellipse transform="matrix(0.9218 -0.3877 0.3877 0.9218 -12.7035 6.5096)" cx="9.8" cy="34.7" rx="1.1" ry="1"/>
			<path class="st1" d="M9.4,34.1c0.4-0.1,0.8,0.8,0.3,1C9.1,35.2,8.8,34.4,9.4,34.1z"/>
		</g>
	</g>
</g>
<path id="tail" d="M12,12.4c-0.5-1.3-0.5-2.5,0.4-3.6C12.9,8,13.7,7.4,14,6.5c0.4-1.2-0.3-2.2-1.1-3c-0.4-0.4-1-0.8-1.3-1.3
	c-0.4-0.6,0.1-1,0.5-1.4c0.5-0.4-0.2-1.1-0.7-0.7c-0.8,0.7-1.3,1.6-0.7,2.6c0.6,0.9,1.6,1.4,2.1,2.3c0.9,1.5-1.2,2.8-1.8,4
	s-0.5,2.5,0,3.7C11.3,13.3,12.2,13,12,12.4L12,12.4L12,12.4z"/>
</svg>
