<?xml version="1.0" encoding="UTF-8"?>
<svg id="Layer_1" data-name="Layer 1" xmlns="http://www.w3.org/2000/svg" viewBox="0 0 82.21 84.55">
  <path fill="#000" stroke-width="0px" d="m41.26,61.66c.61-3.38,1.5-6.38,3.24-9.18.17-.27.35-.54.53-.81.1-.14.19-.27.29-.41.05-.07.1-.13.15-.2-.12.17-.06.07.03-.04.39-.48.79-.94,1.23-1.38s.88-.84,1.35-1.22c.06-.05.45-.34.13-.11.12-.09.24-.18.35-.26.24-.17.48-.34.72-.49.94-.61,1.93-1.14,2.95-1.6.13-.06.26-.11.38-.17.35-.15-.18.07.08-.03.27-.11.55-.22.82-.33.52-.2,1.03-.38,1.56-.56,1.99-.68,4.02-1.23,6-1.93s3.88-1.55,5.54-2.86,2.89-3.15,3.59-5.17c1.82-5.26-.49-10.85-1.83-15.94-.16-.61-.31-1.22-.44-1.84-.06-.31-.12-.61-.18-.92-.03-.15-.05-.3-.07-.45,0-.04-.03-.23,0-.02.03.24,0-.08-.01-.13-.06-.56-.1-1.13-.08-1.7,0-.25.05-.5.05-.75,0-.2-.07.29-.01.11.02-.06.02-.13.03-.19.03-.14.06-.28.09-.42.06-.23.14-.45.21-.68.11-.34-.11.19.01-.03.08-.14.14-.28.22-.42.06-.1.12-.19.18-.28.03-.05.08-.1.11-.16.11-.17-.19.22-.06.07.18-.2.35-.4.55-.58.04-.03.38-.32.21-.19-.15.12.14-.1.2-.14.27-.19.56-.35.86-.5.13-.07.26-.13.4-.19.26-.12.06-.02,0,0,.08-.03.17-.07.25-.1.36-.13.72-.25,1.09-.35.78-.22,1.72-.4,2.43-.49.8-.1,1.5-.62,1.5-1.5,0-.73-.69-1.6-1.5-1.5-3.12.4-6.5,1.21-8.46,3.88-1.5,2.05-1.51,4.67-1.15,7.08.39,2.63,1.26,5.17,1.96,7.73.37,1.35.7,2.71.92,4.09,0,.06.08.54.06.36s.03.22.03.3c.04.35.07.69.08,1.04.03.66.01,1.31-.04,1.97,0,.06-.01.12-.02.18-.02.22.04-.27,0-.05-.02.15-.05.31-.08.46-.06.32-.14.63-.23.93-.07.25-.15.5-.24.74-.05.13-.1.25-.15.38-.07.19.12-.27.04-.09-.04.07-.07.15-.1.22-.21.45-.46.88-.74,1.3-.07.1-.14.19-.21.29-.14.2.22-.25-.04.05-.15.18-.3.36-.46.53-.32.34-.68.62-1.02.93.33-.3.06-.04-.04.03s-.19.13-.28.2c-.19.13-.39.26-.59.38-.42.25-.85.48-1.29.69-.2.1-.41.19-.62.28-.37.17.17-.07-.06.03-.13.05-.26.1-.39.16-4.12,1.62-8.52,2.44-12.42,4.63-2.25,1.27-4.23,2.95-5.81,5-1.98,2.57-3.28,5.6-4.09,8.72-.24.94-.45,1.88-.62,2.84-.14.8.22,1.62,1.05,1.85.73.2,1.7-.25,1.85-1.05h0Z"/>
  <path fill="#808384" stroke="#000" stroke-width="2px" stroke-miterlimit="10" d="m38.33,22.64c-2.32-3.3-3.49-7.41-2.75-11.32,2.86-5.76,13.57-4.93,16.64.31,2.18,5.17,1.97,12.07-3.74,14.72-4.33.94-6.8,1.04-10.15-3.71Z"/>
  <path fill="#808384" stroke="#000" stroke-width="2px" stroke-miterlimit="10" d="m14.65,14.6c1.37-3.3,3.17-7.63.88-11C12.67.07,5.86.03,3.45,4.15c-7.86,8.62,5.17,19.33,11.2,10.45Z"/>
  <path fill="#808384" stroke="#000" stroke-width="2px" stroke-miterlimit="10" d="m32.08,30.48c.18,6.99,5.36,17.68,7.33,21.5,1.56,3.03,4.08,18.98-10.3,17.54-10.04-.37-11.16-5.78-10.26-13.74.1-2.15,5.52-15.27,8.18-19.03.67-1.2,1.35-2.6,2.09-4.93.45-1.43,2.95-1.71,2.96-1.34Z"/>
  <path fill="#808384" stroke="#000" stroke-width="2px" stroke-miterlimit="10" d="m37.93,22.36c-4.66-6.65-19.62-12.52-24.28-5.47-.03,4.57,1.49,10.81,2.36,15.51,2.86,15.54,3.43,12.04,21.92-10.04Z"/>
  <path fill="#000" stroke-width="0px" d="m9.03,52.89c.06-.39.4-.58.77-.56,1.03.06,2.07-.01,3.1-.2-.09-.03-.17-.07-.26-.1-.15-.05-.31-.1-.46-.15,0,0,0,0,0,0-.04-.02-.09-.03-.13-.04-.1-.03-.19-.05-.29-.08-.48-.13-.97-.25-1.46-.37-.34-.08-.64-.39-.56-.77.07-.33.4-.65.77-.56.85.21,1.71.42,2.55.7.49.17,1.01.37,1.36.77.05.06.1.13.14.19,1.12-.35,2.21-.82,3.21-1.41,1.38-.82,2.64-1.84,3.74-3.01-.33.85-.59,1.71-.82,2.59-1.74,1.42-3.73,2.54-5.89,3.18-.19.05-.37.09-.56.14-.23.28-.52.52-.75.72-.65.53-1.32,1.03-1.99,1.55-.28.22-.74.15-.94-.15-.21-.31-.15-.71.15-.94.32-.25.64-.5.97-.75-.69.05-1.38.08-2.08.03-.36-.02-.61-.43-.56-.77Z"/>
  <path fill="#000" stroke-width="0px" d="m32.28,61.94c.67-.83,1.24-1.72,1.73-2.64-.7.5-1.39,1.01-2.09,1.51-.3.21-.75.05-.92-.24-.2-.34-.05-.71.24-.92.74-.53,1.47-1.07,2.21-1.6.4-.28.83-.61,1.32-.73.04-.01.09,0,.13-.01.5-1.36.82-2.78.93-4.24.22-3.19-.41-6.34-1.28-9.4-.53-1.85-1.16-3.67-1.79-5.48-.12-.34.14-.74.47-.83.37-.1.71.13.83.47,1.14,3.24,2.26,6.52,2.82,9.93.53,3.26.51,6.64-.6,9.78-.05.14-.11.27-.17.41.2.41.27.89.34,1.33.16.99.3,1.98.49,2.97.07.36-.1.73-.47.83-.33.09-.76-.11-.83-.47-.16-.86-.3-1.72-.43-2.58,0-.03-.01-.06-.02-.1-.56,1.04-1.22,2.04-1.97,2.97-.23.28-.72.24-.95,0-.28-.28-.23-.67,0-.95Z"/>
  <ellipse fill="#010101" stroke-width="0px" cx="19.48" cy="41.79" rx="2.7" ry="3.22" transform="translate(-23.49 58.5) rotate(-86.25)"/>
  <g>
    <ellipse fill="#010101" stroke-width="0px" cx="26.98" cy="25.82" rx="2.27" ry="2.34" transform="translate(-.55 51.06) rotate(-86.25)"/>
    <path fill="#fff" stroke-width="0px" d="m26.84,24.22c.84.18.75,2.4-.49,2.24-1.05-.37-.94-2.37.49-2.24Z"/>
  </g>
  <g>
    <ellipse fill="#010101" stroke-width="0px" cx="18.86" cy="23.25" rx="2.27" ry="2.34" transform="translate(-5.58 40.55) rotate(-86.25)"/>
    <path fill="#fff" stroke-width="0px" d="m18.72,21.65c.84.18.75,2.4-.49,2.24-1.05-.37-.94-2.37.49-2.24Z"/>
  </g>
  <g>
    <path fill="#000" stroke-width="0px" d="m32.52,69.73c-.07,2.25.05,4.48.19,6.72.11,1.66.24,3.35,0,5l.46-.6-2.88,1.8c-1.09.68-.09,2.41,1.01,1.73l2.19-1.37c.28-.18.65-.34.89-.58.5-.5.42-1.68.44-2.35.06-1.5-.07-3-.17-4.5-.13-1.95-.19-3.9-.13-5.85.04-1.29-1.96-1.29-2,0h0Z"/>
    <path fill="#000" stroke-width="0px" d="m24.39,69.12c-.29,4.03-.61,8.06-.94,12.09l.5-.86-3.13,1.82c-1.11.65-.11,2.38,1.01,1.73l2.19-1.27c.3-.18.63-.34.92-.53.77-.51.6-1.93.66-2.76.27-3.4.54-6.81.79-10.21.09-1.28-1.91-1.28-2,0h0Z"/>
  </g>
  <g>
    <line fill="none" stroke="#000" stroke-miterlimit="10" x1="24.99" y1="38.66" x2="39.66" y2="44.5"/>
    <line fill="none" stroke="#000" stroke-miterlimit="10" x1="25.93" y1="37.42" x2="41.38" y2="40.66"/>
    <line fill="none" stroke="#000" stroke-miterlimit="10" x1="16.09" y1="34.6" x2=".72" y2="30.98"/>
    <line fill="none" stroke="#000" stroke-miterlimit="10" x1="16.64" y1="36.29" x2=".91" y2="34.86"/>
  </g>
  <g>
    <path fill="#39b54a" stroke="#000" stroke-width="2px" stroke-linecap="round" stroke-linejoin="round" d="m71.93,26.99c1.96-1.21,7.51-3.07,9.28-.64-.15,2.2-2.82,10.17-5.45,8.93-1.53-1.55-5.57-5.09-3.83-8.29Z"/>
    <path fill="#39b54a" stroke="#000" stroke-width="2px" stroke-linecap="round" stroke-linejoin="round" d="m66.78,25.67c-1.85-3.03-3.45-4.9-6.09-5.75-.57,3.39-1.36,7.41-1.58,10.69,3.03-.04,5.6-1.47,7.16-2.99.23.02.41.18.51-1.95Z"/>
    <path fill="#39b54a" stroke="#000" stroke-width="2px" stroke-linecap="round" stroke-linejoin="round" d="m70.06,24.81c1.88,1.56,2.53,4.73.02,5.33-3.39.16-5.01-6.01-.02-5.33Z"/>
  </g>
</svg>
