<?xml version="1.0" encoding="UTF-8"?>
<svg id="Layer_1" data-name="Layer 1" xmlns="http://www.w3.org/2000/svg" viewBox="0 0 117.86 77.86">
  <path fill="#000" stroke-width="0px" d="m61.68,49.31c4.04,1.03,8.24,2.65,12.46,2.52,1.82-.05,3.67-.5,5.18-1.57,1.91-1.36,3.1-3.35,3.94-5.5.53-1.35.89-2.76,1.17-4.19.1-.51.21-1.01.37-1.5.08-.24.16-.47.26-.7-.14.34.02-.03.04-.08.07-.14.14-.28.21-.42.1-.18.21-.36.33-.54.06-.09.45-.58.19-.28.31-.36.63-.71.99-1.02.06-.05.11-.09.17-.14.28-.24-.27.17.04-.03.18-.12.36-.25.55-.37.38-.24.78-.44,1.19-.63.06-.03.42-.18.07-.03.11-.04.22-.09.33-.13.22-.08.45-.16.67-.24.47-.15.94-.29,1.42-.4,1.02-.25,2.07-.43,3.11-.58.04,0,.49-.07.15-.02.14-.02.28-.04.42-.05.26-.03.51-.06.77-.09.6-.07,1.2-.13,1.8-.19,1.19-.12,2.38-.23,3.57-.36,5.62-.61,11.43-1.65,16.05-5.13.65-.49.98-1.3.54-2.05-.37-.64-1.4-1.03-2.05-.54-2.04,1.53-4.07,2.49-6.38,3.19-1.16.35-2.34.63-3.53.86-.56.11-1.11.2-1.67.29-.3.05-.61.09-.91.13-.5.07.29-.04-.21.03-.2.03-.41.05-.61.08-4.39.53-9.01.55-13.25,1.95-1.84.6-3.63,1.52-4.97,2.95-1.56,1.67-2.18,3.67-2.66,5.86-.29,1.32-.64,2.63-1.17,3.88.11-.25-.09.19-.09.2-.06.13-.12.26-.19.39-.12.25-.25.49-.39.73-.11.19-.23.37-.35.55-.07.1-.14.21-.22.31-.1.14-.1.13.01-.01-.05.06-.1.12-.15.19-.27.32-.56.62-.87.9-.08.07-.17.14-.25.21.3-.25.03-.02-.04.02-.19.12-.38.25-.58.36-.17.09-.34.17-.51.26-.31.16.31-.1-.02,0-.1.03-.19.07-.29.1-.39.13-.8.22-1.2.3-.09.02-.44.05-.02,0-.14.01-.28.03-.42.04-.22.02-.43.03-.65.03-.49,0-.98-.01-1.47-.05-.27-.02-.55-.05-.82-.09.39.05-.01,0-.08-.01-.16-.03-.32-.05-.48-.08-.54-.09-1.08-.2-1.61-.32-2.39-.54-4.73-1.26-7.1-1.86-1.87-.48-2.67,2.41-.8,2.89h0Z"/>
  <g>
    <path fill="#39b54a" stroke="#000" stroke-width="2px" stroke-miterlimit="10" d="m96.55,34.8c1.72,1.57,5.07,6.46,3.18,8.85-2.18.46-10.68.06-10.19-2.83,1.08-1.92,3.41-6.83,7.01-6.02Z"/>
    <path fill="#39b54a" stroke="#000" stroke-width="2px" stroke-miterlimit="10" d="m96.41,29.42c2.44-2.63,3.81-4.7,3.91-7.51-3.46.38-7.59.72-10.84,1.41.87,2.94,2.98,5.04,4.88,6.15.05.22-.06.45,2.04-.04Z"/>
    <path fill="#39b54a" stroke="#000" stroke-width="2px" stroke-miterlimit="10" d="m98.15,32.38c-1,2.26-3.91,3.77-5.18,1.49-1.09-3.25,4.46-6.53,5.18-1.49Z"/>
  </g>
  <path fill="#808384" stroke="#000" stroke-width="2px" stroke-miterlimit="10" d="m39.85,18.73c-2.78-2.99-4.52-6.94-4.32-10.96,2.07-6.16,12.92-6.82,16.71-1.98,2.9,4.88,3.64,11.82-1.72,15.27-4.2,1.54-6.67,1.98-10.68-2.32Z"/>
  <path fill="#808384" stroke="#000" stroke-width="2px" stroke-miterlimit="10" d="m15.01,13.94c.91-3.5,2.12-8.08-.64-11.14C11.02-.34,4.65.78,2.35,5.02c-5.63,10.37,7.85,18.65,12.66,8.92Z"/>
  <path fill="#808384" stroke="#000" stroke-width="2px" stroke-miterlimit="10" d="m33.99,27.37c4.74,5.26,15.74,10.06,19.77,11.71,3.19,1.3,15.62,11.9,3.62,20.26-7.96,6.32-12.38,2.89-16.92-3.82-1.34-1.72-5.8-15.36-6.23-20.01-.27-1.37-.67-2.88-1.64-5.16-.59-1.4,1.14-3.26,1.4-2.98Z"/>
  <path fill="#808384" stroke="#000" stroke-width="2px" stroke-miterlimit="10" d="m39.41,18.51c-5.59-6.01-21.38-9.84-25.08-2.13.6,4.58,2.99,10.62,4.51,15.21,5.01,15.18,5.1,11.58,20.57-13.08Z"/>
  <path fill="#000" stroke-width="0px" d="m19.67,49.36c1.03-.12,2.06-.38,3.05-.74-.09-.02-.18-.04-.27-.05-.16-.03-.32-.05-.49-.07,0,0,0,0,0,0-.04,0-.09-.01-.14-.02-.1-.01-.2-.02-.3-.03-.51-.05-1.01-.08-1.52-.12-.35-.02-.7-.28-.69-.67,0-.34.29-.72.67-.69.89.06,1.78.12,2.66.25.52.08,1.08.19,1.49.53.07.05.12.11.17.17,1.06-.54,2.06-1.21,2.95-1.97,2.18-1.88,3.91-4.33,4.91-6.98.57-1.51.94-3.13,1.04-4.67.02-.37.28-.69.67-.69.34,0,.72.3.69.67-.2,3.11-1.24,6.14-2.95,8.74-1.7,2.59-4.03,4.81-6.82,6.2-.18.09-.36.16-.53.24-.18.32-.42.61-.62.85-.55.65-1.14,1.26-1.71,1.89-.24.27-.71.28-.96.02-.26-.27-.27-.68-.02-.96.28-.31.55-.61.83-.92-.68.18-1.36.32-2.06.4-.37.04-.69-.33-.69-.67,0-.4.3-.65.67-.69Z"/>
  <path fill="#000" stroke-width="0px" d="m26.54,52.42c1.03-.3,2.02-.7,2.97-1.19-.87,0-1.74.03-2.61.04-.37,0-.65-.39-.62-.74.03-.39.37-.62.74-.62.92,0,1.84-.04,2.76-.04.5,0,1.04-.02,1.52.16.04.02.08.05.12.07,1.2-.83,2.29-1.82,3.23-2.97,2.04-2.51,3.34-5.49,4.39-8.53.63-1.84,1.17-3.71,1.69-5.58.1-.35.54-.53.87-.41.37.13.51.52.41.87-.94,3.35-1.91,6.72-3.42,9.86-1.45,3.01-3.43,5.79-6.17,7.76-.12.09-.25.16-.38.24-.07.46-.29.89-.49,1.3-.44.91-.9,1.82-1.32,2.74-.15.33-.51.54-.87.41-.32-.12-.56-.53-.41-.87.36-.8.75-1.6,1.14-2.39.01-.03.03-.06.04-.09-1.07.54-2.19.98-3.35,1.32-.35.1-.73-.22-.79-.55-.07-.4.2-.68.55-.79Z"/>
  <ellipse fill="#010101" stroke-width="0px" cx="23.61" cy="40.52" rx="3.26" ry="2.73" transform="translate(-2.84 1.79) rotate(-4.1)"/>
  <g>
    <ellipse fill="#010101" stroke-width="0px" cx="28.92" cy="23.49" rx="2.36" ry="2.3" transform="translate(-1.61 2.13) rotate(-4.1)"/>
    <path fill="#fff" stroke-width="0px" d="m28.56,21.9c.87.06,1.08,2.3-.18,2.31-1.1-.22-1.27-2.25.18-2.31Z"/>
  </g>
  <g>
    <ellipse fill="#010101" stroke-width="0px" cx="20.42" cy="22.03" rx="2.36" ry="2.3" transform="translate(-1.52 1.52) rotate(-4.1)"/>
    <path fill="#fff" stroke-width="0px" d="m20.06,20.45c.87.06,1.08,2.3-.18,2.31-1.1-.22-1.27-2.25.18-2.31Z"/>
  </g>
  <g>
    <path fill="#000" stroke-width="0px" d="m58.5,57.81c-.41,1.38-.72,2.97-.24,4.37.36,1.07,1.15,1.9,2.18,2.36,2.11.94,4.53.72,6.77.91.15.01.3.03.45.04.29.03-.06-.02.21.03s.54.09.8.17c.12.03.24.07.36.11.29.1-.06-.06.15.07.09.05.18.11.27.16.2.11-.1-.11.13.1l-.29-.71v3.66c0,1.29,2,1.29,2,0,0-1.2.06-2.43,0-3.63-.08-1.44-2.37-1.8-3.47-1.94-1.36-.17-2.73-.14-4.09-.25-.15-.01-.29-.02-.44-.04-.09,0-.17-.02-.26-.03-.28-.03.21.03-.07,0-.32-.05-.65-.11-.96-.19-.15-.04-.3-.08-.45-.14-.07-.02-.14-.05-.21-.08.22.08.05.03,0,0-.12-.06-.24-.12-.35-.18-.06-.04-.12-.08-.18-.11-.23-.14.04.05-.07-.06-.1-.1-.2-.19-.29-.29-.16-.17.11.18-.02-.02-.05-.08-.1-.16-.15-.24-.04-.06-.07-.13-.1-.2.11.24-.02-.07-.03-.12-.05-.16-.08-.32-.11-.48.04.24,0-.06,0-.09,0-.13-.01-.25-.01-.38,0-.21.01-.42.04-.63.04-.41.21-1.1.37-1.61.37-1.24-1.56-1.77-1.93-.53h0Z"/>
    <path fill="#000" stroke-width="0px" d="m47.86,61.53c-1.49.19-3.04.52-4.22,1.53-.86.74-1.28,1.82-1.31,2.95-.06,2.26,1.15,4.38,1.86,6.46.18.52.34,1.05.43,1.6.03.16-.02-.15,0,0,0,.07.01.15.02.22,0,.11,0,.22,0,.34,0,.09-.05.35,0,.13-.03.13-.06.25-.1.37l.46-.6-3.35,1.47c-.49.22-.61.94-.36,1.37.3.51.87.58,1.37.36,1.05-.46,2.12-.89,3.15-1.39,1.18-.56.87-2.39.61-3.42-.33-1.32-.92-2.57-1.38-3.85-.24-.66-.46-1.32-.6-2.01-.09-.43-.14-1.16-.06-1.48.14-.54.35-.89.78-1.18.79-.54,1.77-.76,2.71-.88.54-.07,1-.41,1-1,0-.49-.46-1.07-1-1h0Z"/>
  </g>
  <g>
    <line fill="none" stroke="#000" stroke-miterlimit="10" x1="29.47" y1="34.57" x2="44.47" y2="29.12"/>
    <line fill="none" stroke="#000" stroke-miterlimit="10" x1="29.47" y1="35.25" x2="45.4" y2="36.36"/>
    <line fill="none" stroke="#000" stroke-miterlimit="10" x1="19.22" y1="33.78" x2="3.32" y2="32.28"/>
    <line fill="none" stroke="#000" stroke-miterlimit="10" x1="19.51" y1="33.17" x2="5.59" y2="25.34"/>
  </g>
</svg>