<?xml version="1.0" encoding="UTF-8"?>
<svg id="Layer_1" data-name="Layer 1" xmlns="http://www.w3.org/2000/svg" viewBox="0 0 39.89 35.88">
  <g id="pin">
    <path fill="#045258" d="m16.32,2.7c-.72-.1-2.29.41-2.09-.77.17-.81.25-1.99,1.34-1.93,2.91,0,5.83,0,8.75,0,.65,0,.99.37,1.15.94.62,2.33-.28,1.52-1.92,1.86-.09,1.07.15,2.15.12,3.22-.2,5.72,4.31,3.78,4.63,10.26.06.68-.22.92-.89.91-4.98-.02-9.97-.02-14.95,0-.74,0-.97-.31-.89-.99.61-6.03,4.49-5.56,4.51-8.11.02-1.84.29-3.55.24-5.41v.02Z"/>
    <path fill="#045258" d="m18.68,18.17h2.63c0,3.72.48,7.45-1.32,10.94-1.16-1.17-2.04-8.64-1.31-10.94Z"/>
  </g>
  <path id="board" fill="#045258" d="m1.86,32.12h36.15c1.04,0,1.88.84,1.88,1.88,0,1.04-.84,1.88-1.88,1.88,0,0-36.15,0-36.15,0-2.47-.06-2.49-3.7,0-3.76Z"/>
</svg>
