<?xml version="1.0" encoding="UTF-8"?>
<svg id="Layer_1" data-name="Layer 1" xmlns="http://www.w3.org/2000/svg" viewBox="0 0 41.31 45.31">
  <g id="Cat_claws" data-name="Cat claws">
    <path fill="#045258" stroke-width="0px" d="m14.7,0s-5.19,3.24-3.32,5.31c2.31,2.56,3.32-5.31,3.32-5.31Z"/>
    <path fill="#045258" stroke-width="0px" d="m32.98,2.79s-5.11,4.18-2.59,5.38c3.26,1.56,2.59-5.38,2.59-5.38Z"/>
    <path fill="#045258" stroke-width="0px" d="m41.01,18.25s1.31,5.47-1.48,5.67c-3.43.25,1.48-5.67,1.48-5.67Z"/>
  </g>
  <g>
    <path fill="#045258" stroke-width="0px" d="m25.52,41.98c2.74-5.38.22-15.67-4.47-18.23-5.82-3.18-16.87-.38-20.06,5.08-2.64,4.51,0,8.78,8.15,13.22,8.03,4.37,14.13,4.34,16.38-.08h0Z"/>
    <path fill="#045258" stroke-width="0px" d="m32.53,15.82c-.03-3.84-4.37-6.69-8.39-5.94-4.67.87-10.04,6.23-.64,10.94,4.01,2.01,9.1,2.58,9.04-5h0Z"/>
    <path fill="#045258" stroke-width="0px" d="m29.47,28.2c.31,3.9,4.3,10.17,9.09,4.99,2.04-2.21,2.98-5.83-3.36-8.9-3.21-1.56-5.99.55-5.73,3.91Z"/>
    <path fill="#045258" stroke-width="0px" d="m12.03,9.16c-.68-.54-4.84-1.85-6.43-1.02-2.42,1.26-4.21,3.88-3.89,6.6.17,1.48,2.62,3.69,3.8,3.98,2.91.72,7.75.56,9.31-2.28,1.44-2.63-.87-5.8-2.79-7.29h0Z"/>
  </g>
  <g id="Refresh_icon" data-name="Refresh icon">
    <path fill="#fff" stroke-width="0px" d="m7.64,33.04c.08.44.59.73,1.15.68.56-.06.95-.46.87-.89-.36-2.03.32-3.6,1.85-4.32,1.51-.71,3.68-.51,5.84.46-.25.41-.41.79-.44,1.08,0,.02.01.04.04.05.79.38,2.97-.09,3.73-.49.04-.02.08-.06.09-.1.21-.68-.06-2.34-.7-2.83-.02-.01-.05-.02-.08-.01-.49.11-1.05.49-1.56.96-1.63-.76-3.28-1.15-4.81-1.15-1.15,0-2.23.22-3.17.66-2.27,1.06-3.3,3.21-2.82,5.89h.01Z"/>
    <path fill="#fff" stroke-width="0px" d="m21.35,32.33c-.08-.44-.59-.73-1.15-.68-.56.06-.95.46-.87.89.36,2.03-.32,3.6-1.85,4.32-1.51.71-3.68.51-5.84-.46.25-.41.41-.79.44-1.08,0-.02-.01-.04-.04-.05-.79-.38-2.97.09-3.73.49-.04.02-.08.06-.09.1-.21.68.06,2.34.7,2.83.02.01.05.02.08.01.49-.11,1.05-.49,1.56-.96,1.63.76,3.28,1.15,4.81,1.15,1.15,0,2.23-.22,3.17-.66,2.27-1.06,3.3-3.21,2.82-5.89h-.01Z"/>
  </g>
</svg>
