<?xml version="1.0" encoding="UTF-8"?>
<svg id="Layer_1" data-name="Layer 1" xmlns="http://www.w3.org/2000/svg" viewBox="0 0 40.08 37.45">
  <g id="ReviewPrevious">
    <g>
      <path fill="currentColor" d="m14.57,34.11c2.25,4.42,8.35,4.45,16.38.08,8.15-4.44,10.79-8.71,8.15-13.22-3.19-5.46-14.24-8.26-20.06-5.08-4.69,2.56-7.21,12.85-4.47,18.23Z"/>
      <path fill="currentColor" d="m7.55,7.96c-.06,7.58,5.03,7.01,9.04,5,9.4-4.71,4.03-10.07-.64-10.94-4.02-.75-8.36,2.1-8.39,5.94Z"/>
      <path fill="currentColor" d="m4.89,16.43c-6.34,3.07-5.4,6.69-3.36,8.9,4.79,5.18,8.78-1.09,9.09-4.99.26-3.36-2.52-5.47-5.73-3.91Z"/>
      <path fill="currentColor" d="m28.06,1.29c-1.92,1.49-4.23,4.66-2.79,7.29,1.56,2.84,6.4,3,9.31,2.28,1.18-.29,3.63-2.5,3.8-3.98.32-2.72-1.47-5.34-3.89-6.6-1.59-.83-5.75.48-6.43,1.02Z"/>
    </g>
    <path id="review-arrow" fill="#fff" d="m35.4,25.07c.2.58-.22,1.31-.95,1.62-.73.31-1.48.09-1.68-.5-.95-2.73-2.85-4.19-5.22-4.02-2.32.17-4.86,1.88-6.82,4.56.58.33,1.05.69,1.27,1.03.01.02.01.06,0,.09-.71,1.01-3.69,1.93-4.91,1.95-.06,0-.14-.03-.18-.06-.72-.7-1.53-2.91-1.08-3.95.01-.03.05-.06.09-.07.67-.2,1.61-.12,2.56.12,1.48-2.04,3.23-3.64,5.1-4.69,1.41-.79,2.88-1.26,4.34-1.36,3.5-.25,6.23,1.68,7.48,5.29Z"/>
  </g>
</svg>
