<?xml version="1.0" encoding="UTF-8"?>
<svg id="Layer_1" data-name="Layer 1" xmlns="http://www.w3.org/2000/svg" viewBox="0 0 40.09 37.43">
  <defs>
    <style>
      .cls-1, .cls-2 {
        stroke-width: 0px;
      }

      .cls-2 {
        fill: #fff;
      }
    </style>
  </defs>
  <g id="ReviewPrevious">
    <g>
      <path class="cls-1" d="m14.57,34.1c2.25,4.42,8.35,4.45,16.38.08,8.15-4.44,10.79-8.71,8.15-13.22-3.19-5.46-14.24-8.26-20.06-5.08-4.69,2.56-7.21,12.85-4.47,18.23h0Z"/>
      <path class="cls-1" d="m7.55,7.95c-.06,7.58,5.03,7.01,9.04,5,9.4-4.71,4.03-10.07-.64-10.94-4.02-.75-8.36,2.1-8.39,5.94h0Z"/>
      <path class="cls-1" d="m4.89,16.42c-6.34,3.07-5.4,6.69-3.36,8.9,4.79,5.18,8.78-1.09,9.09-4.99.26-3.36-2.52-5.47-5.73-3.91Z"/>
      <path class="cls-1" d="m28.06,1.28c-1.92,1.49-4.23,4.66-2.79,7.29,1.56,2.84,6.4,3,9.31,2.28,1.18-.29,3.63-2.5,3.8-3.98.32-2.72-1.47-5.34-3.89-6.6-1.59-.83-5.75.48-6.43,1.02h0Z"/>
    </g>
    <path id="review-arrow" class="cls-2" d="m17,29.58c-.56-3.78.97-6.75,4.19-8.15,1.34-.59,2.86-.85,4.48-.8,2.14.07,4.44.68,6.69,1.8.73-.65,1.53-1.16,2.21-1.29.04,0,.09,0,.11.02.88.71,1.18,3.05.87,4-.02.05-.08.11-.13.14-1.09.55-4.16,1.11-5.26.54-.02-.02-.04-.06-.04-.08.04-.4.29-.94.65-1.5-2.98-1.47-6.02-1.81-8.16-.89-2.18.95-3.19,3.12-2.77,5.98.1.62-.47,1.16-1.26,1.22-.79.06-1.5-.39-1.59-1h0Z"/>
  </g>
</svg>