<?xml version="1.0" encoding="UTF-8"?>
<svg id="Layer_1" data-name="Layer 1" xmlns="http://www.w3.org/2000/svg" viewBox="-1 -1 32.7 34.48">
  <path fill="currentColor" d="m29.75,19.44c-.45-.53-1.33-.9-1.28-1.7.17-1.13-.13-2.31.07-3.42.16-.44.64-.72.96-1.05,1.29-1.11,1.56-2.63.7-4.1-1.24-2.25-2.36-4.6-5.39-3.48-.62.24-1.26.41-1.82-.06-.8-.68-1.88-.97-2.7-1.59-.58-1.02-.48-2.58-1.52-3.3C17.91-.06,16.5,0,15.35,0s-2.5-.07-3.37.72c-1.41.97-.77,2.99-1.93,3.6-1.07.38-1.93,1.21-2.97,1.61-.51.06-1.03-.22-1.52-.34-2.11-.71-3.61.71-4.44,2.51-.56.95-1.3,2.02-1.08,3.14.06,1.34,1.48,2.05,2.13,3.07.19,1.05.15,2.09.08,3.26-.04.77-.57,1.19-1.06,1.64-2.29,1.96-.67,4.22.58,6.22,1.02,1.82,3.01,1.87,4.76,1.14.88-.3,1.51.6,2.25.92.63.46,1.7.54,1.9,1.41.23,1.75,1.17,3.51,3.15,3.53,3.23.11,5.65.4,6.2-3.53.1-.39.35-.62.7-.8.99-.43,1.89-1.21,2.91-1.54.51-.11,1.13.22,1.61.36.84.28,1.81.05,2.45-.25.92-.44,1.37-1.46,1.89-2.3,1.07-1.5,1.72-3.51.16-4.94h0Zm-14.42,2.68c-3.39-.02-5.95-2.7-5.94-5.91.02-3.29,2.68-5.85,5.98-5.88,3.29.03,5.99,2.69,5.96,5.9-.03,3.31-2.69,5.9-6,5.88h0Z"/>
</svg>
