<?xml version="1.0" encoding="UTF-8"?>
<svg id="Layer_1" data-name="Layer 1" xmlns="http://www.w3.org/2000/svg" viewBox="0 0 66 55">
  <path fill="rgba(213, 31, 38, .5)" stroke-width="0px" d="m35.49,54.93c-14.46.68-23.21-3.64-23.48-11.58-.34-9.66,10.2-22.72,18.65-23.11,10.5-.5,24.5,11.26,25.42,21.36.77,8.35-5.88,12.66-20.58,13.33h-.01Z"/>
  <path fill="rgba(213, 31, 38, .5)" stroke-width="0px" d="m33.22,16.36c-6.27.07-13.06-2.34-8.5-11.94,2.3-4.86,9.49-5.8,14.15-2.37,5.41,4,9.05,14.13-5.66,14.3h0Z"/>
  <path fill="rgba(213, 31, 38, .5)" stroke-width="0px" d="m.56,22.53c-1.6-5.08-.42-11.55,11.9-11.54,6.23,0,9.08,5.5,6.18,10.62-3.35,5.96-14.31,12.83-18.08.92Z"/>
  <path fill="rgba(213, 31, 38, .5)" stroke-width="0px" d="m65.96,16.38c.62,6.63-5.72,10.34-9.85,9.45s-10.12-4.05-10.41-8.61c-.27-4.2,5.11-8.03,8.42-8.73,2.62-.57,11.23,1.24,11.85,7.88h-.01Z"/>
  <path fill="none" stroke="#992e39" d="m30.68,20.74c5.08-.24,11.08,2.49,15.96,6.59,4.88,4.1,8.5,9.45,8.94,14.32h0c.19,2.02-.08,3.76-.78,5.25-.7,1.49-1.85,2.77-3.48,3.83-3.29,2.13-8.51,3.37-15.84,3.7h-.08s-.01,0-.01,0c-7.15.33-12.83-.58-16.74-2.51-3.78-1.86-5.88-4.66-6.12-8.24l-.02-.35v-.44c0-4.57,2.42-9.93,5.92-14.26,3.5-4.34,7.96-7.51,11.88-7.87l.38-.03ZM12.46,11.49c2.96,0,5.05,1.3,6.08,3.13,1.03,1.84,1.04,4.31-.33,6.74h0c-1.62,2.88-5.1,5.99-8.58,6.92-1.72.46-3.4.38-4.87-.47-1.38-.8-2.63-2.33-3.54-4.91l-.18-.53c-.78-2.47-.84-5.17.66-7.24,1.45-2,4.48-3.56,10.2-3.65h.56Zm41.76-2.51c.57-.12,1.53-.12,2.68.06,1.14.19,2.44.55,3.67,1.14,2.37,1.12,4.43,3,4.84,5.87l.04.37c.29,3.13-1.05,5.56-2.96,7.11-1.93,1.57-4.39,2.21-6.28,1.81-2-.43-4.47-1.42-6.46-2.84-2-1.43-3.43-3.24-3.56-5.3h0c-.12-1.88,1.03-3.75,2.71-5.28,1.67-1.52,3.77-2.61,5.32-2.94h0ZM30.99.62c2.39-.37,5.02.13,7.17,1.54l.42.29c1.3.96,2.49,2.29,3.33,3.74.84,1.46,1.3,3,1.18,4.4-.11,1.37-.78,2.63-2.29,3.59-1.53.97-3.96,1.63-7.59,1.67h-.65c-2.88-.04-5.67-.66-7.31-2.2-.86-.81-1.42-1.89-1.51-3.34-.09-1.46.31-3.33,1.43-5.68,1.07-2.25,3.27-3.62,5.82-4.01Z"/>
</svg>
