<?xml version="1.0" encoding="UTF-8"?>
<svg id="Details" xmlns="http://www.w3.org/2000/svg" viewBox="0 0 288 431.15">
    <defs>
    <style>
      :root {
        --outline: #000000;
        --black: #000000;
        --white: #ffffff;
        --cat-light: #808384;
        --cat-shade: #545757;
        --ball-light: #005BAA;
        --ball-shade: #023F88;
        --accent-light: #39B54A;
        --accent-shade: #006734;
        --nose-fixed: #692A00;
        --fish-fixed: #ffffff;
      }

      .fill-none { fill: none; }
      .fill-white { fill: var(--white); }
      .fill-black { fill: var(--black); }
      .fill-cat-light { fill: var(--cat-light); }
      .fill-cat-shade { fill: var(--cat-shade); }
      .fill-ball-light { fill: var(--ball-light); }
      .fill-ball-shade { fill: var(--ball-shade); }
      .fill-accent-light { fill: var(--accent-light); }
      .fill-accent-shade { fill: var(--accent-shade); }
      .fill-nose-fixed { fill: var(--nose-fixed); }
      .fill-fish-fixed { fill: var(--fish-fixed); }

      .stroke-outline { stroke: var(--outline); }
      .round { stroke-linecap: round; stroke-linejoin: round; }
      .miter { stroke-miterlimit: 10; }
      .stroke-1 { stroke-width: 1px; }
      .stroke-2 { stroke-width: 2px; }
      .stroke-3 { stroke-width: 3px; }
      .stroke-0 { stroke-width: 0px; }
      .non-scaling-stroke { vector-effect: non-scaling-stroke; }
    </style>
  </defs>
  <path id="ear-right" class="fill-cat-shade stroke-outline round stroke-3" d="m182.54,141.86c1.69-20.47,3.63-42.69,3.63-42.69,0,0-15.74,14.58-24.89,23.3l21.26,19.39Z"/>
  <polygon id="ear-left" class="fill-cat-shade stroke-outline round stroke-3" points="102.57 139.63 99.25 98.93 124.15 122.24 102.57 139.63 102.57 139.63"/>
  <path id="head" class="fill-cat-light stroke-outline miter stroke-3" d="m186.21,159.66c0,23.24-17.51,42.08-42.9,42.08s-45.98-18.84-45.98-42.08,20.59-42.08,45.98-42.08,42.9,18.84,42.9,42.08Z"/>
  <path id="torso" class="fill-cat-light stroke-outline miter stroke-3" d="m126.64,201.21c-17.96,4.38-37.51,30.39-38.57,49.36-2.31,41.65,18.97,48.81,31.62,50.52,14.27,1.93,34.72,1.41,48.2-.39,19.43-2.59,23.62-26.73,23.14-35.09-1.93-33.16-12.64-53.95-33.82-64.39h-30.57Z"/>
  <circle id="ball-base" class="fill-ball-light stroke-outline miter stroke-3" cx="142.34" cy="292.88" r="37.44"/>
  <g>
    <path class="fill-ball-shade stroke-outline round stroke-2" d="m177.82,300.05c-24.55,3.49-50.27-1.41-63.43-30.89,0,0-.75-.25-2.5,2.75,2.75,21.22,35.25,41.93,64.7,33.7,1.5-4.74,1.22-5.55,1.22-5.55Z"/>
  </g>
  <g>
    <path class="fill-accent-light stroke-0" d="m176.75,305.02c-27.77,4.84-53.86-4.74-64.86-33.1,0,0-3.99,5.74-5.74,11.73,2.75,21.22,34.4,41.59,63.86,33.35,6.24-7.49,6.74-11.98,6.74-11.98Z"/>
    <path class="fill-black stroke-0" d="m176.61,304.53c-10.14,1.76-20.72,1.7-30.66-1.18s-18.04-8.15-24.4-15.75c-3.94-4.7-6.96-10.12-9.19-15.82-.16-.41-.66-.49-.91-.12-1.63,2.35-3.01,4.91-4.17,7.51-.47,1.05-.9,2.12-1.26,3.2-.16.47-.4.97-.35,1.47.04.39.11.79.19,1.18.28,1.55.71,3.07,1.27,4.54,2.44,6.52,7.03,12.09,12.35,16.5,6.06,5.03,13.21,8.74,20.77,10.96,8.04,2.36,16.59,2.99,24.87,1.58,1.04-.18,2.07-.39,3.1-.63.52-.12,1.03-.25,1.55-.39.21-.06.43-.09.61-.23.29-.24.53-.65.77-.94,1.34-1.69,2.6-3.45,3.67-5.32,1.01-1.76,2.02-3.71,2.39-5.72.02-.12.04-.23.05-.35.07-.64-.93-.63-1,0,.03-.25-.01.07-.03.15-.05.26-.12.51-.19.76-.28.97-.67,1.9-1.1,2.8-.75,1.55-1.65,3.03-2.63,4.45-.69.99-1.41,1.96-2.18,2.9-.2.25-.33.44-.63.55-.22.08-.45.12-.68.18-.55.14-1.09.27-1.64.39-7.97,1.76-16.31,1.5-24.22-.46-7.45-1.84-14.55-5.15-20.7-9.74-5.45-4.06-10.27-9.26-13.2-15.44-.67-1.41-1.23-2.87-1.65-4.38-.2-.71-.37-1.42-.51-2.14-.07-.36-.16-.74-.19-1.11-.05-.53.23-1.1.4-1.59,1.18-3.39,2.9-6.62,4.86-9.63.12-.18.24-.37.37-.55l-.91-.12c3.91,10.03,10.28,18.99,19.18,25.17,8.29,5.75,18.19,8.7,28.2,9.36,6.04.39,12.12-.04,18.08-1.07.63-.11.36-1.07-.27-.96Z"/>
  </g>
  <path class="fill-cat-shade stroke-outline miter stroke-3" d="m191.32,273.41c6.65,9.54,11.79,23.88,2.89,35.57-8.82,11.59-59.18,3.66-49.74,23.14,5.97,12.32,42.31,7.52,54.37-5.49,9.56-12.77,11.59-26.09,6.94-41.36-1.47-5.28-9.95-18.3-14.46-20.53v8.68Z"/>
  <path class="fill-cat-shade stroke-0" d="m107.68,233.02c-10.01,21.91-11.65,37.1-5.12,53.27,3.06,7.57,8.42,11.36,10.35,5.56,2.18.75,5.42-.02,5.16-2.84,9.16,1.7,3.36-6.65-.28-8.68-8.74-8.63-3.61-28.83,5.38-36.13l-15.5-11.18Z"/>
  <path class="fill-cat-shade stroke-0" d="m170.96,233.99c10.01,21.91,11.65,37.1,5.12,53.27-3.06,7.57-8.42,11.36-10.35,5.56-2.18.75-5.42-.02-5.16-2.84-9.16,1.7-3.36-6.65.28-8.68,8.74-8.63,3.61-28.83-5.38-36.13l15.5-11.18Z"/>
  <g>
    <path class="fill-accent-light stroke-0" d="m123.04,143.89c-18.45,1.21-9.31,21.68,4.66,15.53,6.01-2.38,7.42-16.39-4.66-15.53Z"/>
    <path class="fill-accent-shade stroke-0" d="m115.19,145.49c-2.57.24-3.06,12.23.13,13.51,3.58,1.71,13.01,2.22,14.53-.97.28-1-9.43-3.87-9.69-4.81-.23-.85-1.92-8-4.96-7.72Z"/>
    <path class="fill-black stroke-0" d="m121.46,148.77c-1.84.24-2.65,4.73-.37,6.01.43.24.82.39,1.32.34.62-.06,1.01-.58,1.43-.99.72-.72.8-1.88.62-2.82-.17-.85-.8-2.82-2.99-2.54Z"/>
    <circle class="fill-white stroke-0" cx="127.69" cy="146.3" r="2.97"/>
    <path class="fill-black stroke-0" d="m122.58,161.43c-6.4,0-11.05-4.22-11.05-10.03,0-6.23,6.5-9.06,12.53-9.06s9.57,3.13,9.57,9.06-4.65,10.03-11.05,10.03Zm1.48-17.03c-5.05,0-10.48,2.19-10.48,7.01s3.7,7.97,9,7.97,9-3.28,9-7.97-2.39-7.01-7.52-7.01Z"/>
  </g>
  <g>
    <path class="fill-accent-light stroke-0" d="m158.34,143.89c-18.45,1.21-9.31,21.68,4.66,15.53,6.01-2.38,7.42-16.39-4.66-15.53Z"/>
    <path class="fill-accent-shade stroke-0" d="m150.49,145.49c-2.57.24-3.06,12.23.13,13.51,3.58,1.71,13.01,2.22,14.53-.97.28-1-9.43-3.87-9.69-4.81-.23-.85-1.92-8-4.96-7.72Z"/>
    <path class="fill-black stroke-0" d="m156.8,149.83c-1.84.24-2.65,4.73-.37,6.01.43.24.82.39,1.32.34.62-.06,1.01-.58,1.43-.99.72-.72.8-1.88.62-2.82-.17-.85-.8-2.82-2.99-2.54Z"/>
    <circle class="fill-white stroke-0" cx="161.4" cy="146.91" r="2.97"/>
    <path class="fill-black stroke-0" d="m157.29,162.2c-6.14,0-10.6-4.05-10.6-9.62,0-6.1,5.86-9.4,11.38-9.4,5.99,0,9.86,3.69,9.86,9.4s-4.47,9.62-10.63,9.62Zm.77-16.97c-4.63,0-9.32,2.52-9.32,7.34,0,4.46,3.52,7.57,8.55,7.57s8.58-3.11,8.58-7.57-2.92-7.34-7.81-7.34Z"/>
  </g>
  <g>
    <ellipse class="fill-nose-fixed stroke-outline miter stroke-2 non-scaling-stroke" cx="139.12" cy="173.01" rx="7.14" ry="5.99"/>
    <path class="fill-black stroke-0" d="m151.18,188.79c.78-1.16-.47-2.49-1.51-1.04-2.04,2.87-4.76,3.45-7.47,1.64-3-2.23-2.5-6.4-2.79-9.7,0-1.32-2.05-1.32-2.05,0,.04,3.23-.05,6.93-2.09,9.6-2.3,2.32-5.61.84-7.1-1.68-.93-1.58-3.25-1.18-1.28,1.85,2.9,4.47,10.4,3.71,11.54-1.82,2.49,5.71,9.18,6.42,12.75,1.15Z"/>
  </g>
  <g>
    <path class="fill-black stroke-0" d="m142.74,204.73c-.46-.56-1.11-.68-1.8-.7-.89-.03-1.79-.06-2.51.54-1.33,1.1-1.48,3.18-.87,4.69.35.87.89,1.68,1.37,2.49.21.35.42.7.61,1.06.14.27.39.7.33,1.02,0,.01,0,.02,0,.03,0,.04-.02.07-.02.11-.02.31.19.46.42.48,0,0,.02,0,.03,0,.01,0,.02,0,.03,0,.23.04.47-.05.53-.36,0-.03,0-.06,0-.09,0-.02.01-.03.01-.05.07-.86.65-1.66,1.03-2.41.45-.89.88-1.8,1.12-2.77.31-1.22.6-3-.28-4.06Zm-.79,4.1c-.28.94-.72,1.82-1.17,2.68-.12.23-.24.46-.36.7-.28-.53-.63-1.04-.9-1.49-.81-1.38-1.69-2.78-1.05-4.43.3-.79.85-1.22,1.7-1.25.53-.01,1.37-.12,1.77.32.33.36.35.95.34,1.41-.01.7-.13,1.4-.33,2.06Z"/>
    <path id="fish-tag" class="fill-fish-fixed stroke-outline round stroke-1 non-scaling-stroke" d="m156.88,212.98s-5.03.24-7.07,2.03c-.6.53-1,1.22-1.27,1.93-2.86-1.82-6.92-3.96-10.14-3.96-5.61,0-10.15,6.02-10.15,6.02,0,0,4.54,6.02,10.15,6.02,3.3,0,7.46-1.93,10.33-3.52.26.55.6,1.07,1.08,1.48,2.04,1.79,7.07,2.03,7.07,2.03,0,0-1.02-4.02-2.82-6.02,1.8-2,2.82-6.02,2.82-6.02Z"/>
    <path class="fill-black stroke-0" d="m135.43,216.43c-1.75.25-1.85,4.8.69,4.65,2.19-.61,2.24-4.73-.69-4.65Z"/>
  </g>
  <path class="fill-black stroke-0" d="m130.12,200.49c-4.34.79-5.87,1.4-9.98,3.39,13.19,6.5,33.74,5.09,42.28.19-6.99-5.43-22.29-2.84-32.31-3.58Z"/>
  <g>
    <line class="fill-none stroke-outline miter stroke-2 non-scaling-stroke" x1="77.22" y1="188.82" x2="116.84" y2="171.69"/>
    <line class="fill-none stroke-outline miter stroke-2 non-scaling-stroke" x1="79.29" y1="203.22" x2="114.78" y2="178.85"/>
    <line class="fill-none stroke-outline miter stroke-2 non-scaling-stroke" x1="96.24" y1="211.98" x2="119.01" y2="181.11"/>
    <line class="fill-none stroke-outline miter stroke-2 non-scaling-stroke" x1="185.98" y1="205.88" x2="156.54" y2="182.87"/>
    <line class="fill-none stroke-outline miter stroke-2 non-scaling-stroke" x1="196.49" y1="196.14" x2="161.62" y2="178.14"/>
    <line class="fill-none stroke-outline miter stroke-2 non-scaling-stroke" x1="202.87" y1="181.34" x2="161.79" y2="173.22"/>
  </g>
  <path class="fill-black stroke-0" d="m106.82,232.52c-4.59,10.07-8.54,20.77-9.1,31.93-.23,4.63.18,9.28,1.23,13.8.53,2.29,1.22,4.53,2.03,6.73.91,2.46,1.97,4.88,3.56,6.98,1.26,1.66,2.96,3.47,5.15,3.7s3.55-1.68,4.19-3.53l-1.23.7c2.78.91,6.67-.34,6.42-3.81l-1.27.96c1.66.3,3.89.63,5.29-.6,1.02-.89,1.03-2.33.61-3.53-.5-1.45-1.42-2.74-2.44-3.88-.48-.54-.99-1.04-1.55-1.5-.6-.49-1.24-.84-1.71-1.35-2.55-2.81-3.56-6.71-3.72-10.43-.18-4.34.67-8.69,2.19-12.74s3.92-8.22,7.38-11.05c1-.82-.43-2.22-1.41-1.41-3.06,2.5-5.3,5.98-6.91,9.55-1.79,3.97-2.93,8.25-3.21,12.61-.26,4.03.25,8.24,2.14,11.85.45.85.98,1.65,1.58,2.4.26.32.53.63.82.93s.65.49,1,.73c.44.31.96.76,1.44,1.25.51.52.97,1.05,1.35,1.58.23.32.44.65.63.99.09.16.18.32.26.49.04.07.07.15.1.22.1.22-.03-.09.04.11.06.17.12.34.17.51.02.09.09.44.08.35-.01-.1,0,.24,0,.32,0,.02-.02.26,0,.08s-.03.11-.04.14c-.04.23.08-.06-.06.13-.04.06-.17.2,0,.02-.05.05-.09.11-.15.15-.14.11,0,0,.03-.02-.08.05-.15.1-.24.14-.14.08.23-.08-.03.02-.09.03-.18.06-.26.08-.82.22-1.94.09-2.9-.08-.59-.11-1.32.26-1.27.96.15,2.11-2.31,2.4-3.89,1.88-.54-.18-1.06.21-1.23.7-.22.65-.64,1.44-1.03,1.75-.29.23-.36.23-.63.31s.11,0-.06.02c-.08,0-.16,0-.24,0-.24,0-.09.02-.32-.04-1.49-.37-2.79-1.82-3.7-3.11-1.41-1.99-2.37-4.22-3.2-6.5-.75-2.07-1.39-4.17-1.88-6.31-2.03-8.77-1.3-17.77,1.04-26.41,1.66-6.11,4-12.02,6.63-17.78.22-.49.14-1.08-.36-1.37-.43-.25-1.14-.14-1.37.36h0Z"/>
  <path class="fill-black stroke-0" d="m170.1,234.49c4.29,9.42,8.04,19.46,8.76,29.87.3,4.29.07,8.6-.77,12.82-.43,2.14-.99,4.25-1.68,6.31-.75,2.24-1.58,4.47-2.77,6.51-.96,1.65-2.41,3.74-4.15,4.44-.16.07-.34.11-.51.16.02,0-.3.05-.16.03.08,0-.21,0-.26,0-.18,0-.41-.06-.58-.17-.26-.16-.46-.34-.65-.61-.28-.4-.47-.84-.63-1.3-.17-.49-.69-.88-1.23-.7-1.58.52-4.04.23-3.89-1.88.05-.7-.68-1.07-1.27-.96-.82.15-1.92.27-2.6.15-.35-.06-.58-.15-.7-.22-.25-.14.07.06-.15-.11-.19-.15.04.08-.1-.12s-.02.12-.06-.13c0-.06-.03-.11-.04-.17-.03-.14,0,.25,0,.02,0-.13,0-.25,0-.37,0-.05.03-.19,0,.03.01-.08.03-.16.05-.24.17-.69.32-.99.7-1.63.72-1.22,1.61-2.24,2.72-3.19.3-.26.32-.28.62-.48.33-.23.66-.4.95-.68.68-.66,1.27-1.45,1.79-2.25,2.19-3.37,2.92-7.54,2.87-11.5-.06-4.31-1.02-8.63-2.63-12.62s-4.06-8.18-7.55-11.04c-.99-.81-2.41.6-1.41,1.41,3.08,2.52,5.26,6.03,6.83,9.65,1.7,3.95,2.71,8.28,2.77,12.58.05,3.84-.67,7.82-2.94,11-.48.68-.98,1.23-1.6,1.65s-1.17.88-1.69,1.38c-1.09,1.05-2.09,2.29-2.77,3.64s-1.13,3.05-.07,4.31c1.3,1.53,3.82,1.16,5.54.85l-1.27-.96c-.24,3.47,3.64,4.72,6.42,3.81l-1.23-.7c.59,1.71,1.71,3.44,3.7,3.55,1.78.1,3.39-1.15,4.53-2.38,1.8-1.92,3.06-4.3,4.05-6.73.88-2.17,1.63-4.39,2.24-6.66,2.5-9.39,2-19.11-.45-28.46-1.71-6.52-4.22-12.8-7.01-18.93-.22-.49-.94-.61-1.37-.36-.5.3-.58.87-.36,1.37h0Z"/>
  <rect id="card-bounds" class="fill-none stroke-0" width="288" height="431.15" pointer-events="none"/>
</svg>
