<?xml version="1.0" encoding="UTF-8"?>
<svg xmlns="http://www.w3.org/2000/svg" viewBox="0 0 288 431.15">
  <defs>
    <style>
      :root {
        --outline: #000000;
        --black: #000000;
        --white: #ffffff;
        --pillow-light: #D7172F;
        --pillow-shade: #9E0918;
        --cheese-light: #FFDF5D;
        --cheese-shade: #E9C31E;
      }

      .fill-none { fill: none; }
      .fill-black { fill: var(--black); }
      .fill-white { fill: var(--white); }
      .fill-pillow-light { fill: var(--pillow-light); }
      .fill-pillow-shade { fill: var(--pillow-shade); }
      .fill-cheese-light { fill: var(--cheese-light); }
      .fill-cheese-shade { fill: var(--cheese-shade); }

      .stroke-outline { stroke: var(--outline); }
      .round {
        stroke-linecap: round;
        stroke-linejoin: round;
      }
      .miter { stroke-miterlimit: 10; }
      .stroke-0 { stroke-width: 0px; }
      .stroke-1 { stroke-width: 1px; }
      .stroke-2 { stroke-width: 2px; }
      .stroke-3 { stroke-width: 3px; }
    </style>
  </defs>
  <g id="Cheese">
    <g id="Cheese_shade">
      <path class="fill-cheese-shade stroke-outline round stroke-3" d="m66.09,265.14c-2.84.29-5.97,4.83-6.17,4.7-4.4-2.27-6.3.03-5.74,3.65-2.66-1.16-6.41.33-6.66,3.44,9.31,2.52,17.95,4.59,18.81,4.09.38-.22.47-6.68.39-16-.22.02-.42.1-.63.12Z"/>
      <path class="fill-cheese-shade stroke-outline round stroke-3" d="m168.58,217.5c-1.15,0-86.71,24.94-87.48,25.32-.42.21-.85,12.82-.9,24.57,1.11-.18,2.3.11,3.26.74,1.61,1.06,2.45,2.85,2.51,4.72.6-.46,1.29-.79,2.06-.77.8.03,1.52.45,2.02,1.06,1.09,1.31,1.42,3.25.99,4.89.65.11,1.28.4,1.85.72.88.5,1.7,1.13,2.43,1.83.69.66,1.35,1.41,1.79,2.27.08.17.16.34.23.52,3.14-.87,6.59-1.85,10.23-2.89.03-.57.13-1.17.38-1.75.52-1.23,2.15-2.17,3.32-2.15,1.4.02,2.61-.21,3.69.97.19.21.3.44.36.69,23.11-6.73,49.54-14.83,50.19-15.48,1.15-1.15,4.22-45.27,3.07-45.27Z"/>
    </g>
    <g id="Cheese_light">
      <polygon class="fill-cheese-light stroke-outline round stroke-3" points="81.22 242.42 121.27 202.89 168.04 217.36 81.22 242.42"/>
    </g>
    <g id="Cheese_details">
      <path class="fill-black" d="m124.64,213.47c-2.3.38-2.84,1.9-2.71,2.5.22,2.03,3.86,2.08,6.93,1.91,7.14-.26,7.12-6.62-4.22-4.41Z"/>
      <path class="fill-black" d="m131.94,250.11c-2.24,2.05-3.28,9.01,2.11,9.21,10.48,2.14,8.16-17.42-2.11-9.21Z"/>
      <path class="fill-black" d="m101.07,250.59c-7.73.22-10.13,12.28-1.13,12.9,9.49,3.17,12.04-14.99,1.13-12.9Z"/>
      <path class="fill-black" d="m101.97,229.02c-2.34,1.98-.78,3.85,1.92,2.85,5.76-2.77,2.13-5.05-1.92-2.85Z"/>
      <path class="fill-black" d="m137.05,231.95c-2.78-.28-6.04,1.63-6.47,3.19-2.51,14.61,23.64-.2,6.47-3.19Z"/>
    </g>
  </g>
  <g id="Pillow">
    <g id="Details">
      <g>
        <path class="fill-pillow-light stroke-outline round stroke-2" d="m47.7,283.4c-.71-.41-1.7-.65-2.19-1.36-.53-.96-1.49-1-2.4-.68-.03-1.56-.89-1.23-1.96-.74.56-3.37-.98-1.85-2.37-.27,2.27-8.41,5.94-21.56,16.51-21.52-1.17-.87-1.88-2.35-1.61-3.95.78-1.04,1.86-1.86,3.04-2.43,5.89-1.74,8.38,3.77,1.82,7.07-.89.2-1.76.09-2.51-.25,2.81,9.06-7.28,15.89-8.34,24.13Z"/>
      </g>
      <g>
        <path class="fill-pillow-light stroke-outline round stroke-2" d="m201.42,282.85c.56-.61,1.42-1.14,1.67-1.96.21-1.08,1.12-1.4,2.08-1.37-.44-1.49.47-1.45,1.64-1.3-1.56-3.04.37-2.06,2.18-.98-4.72-7.32-12.22-18.73-22.28-15.48.85-1.18,1.07-2.81.33-4.25-1.06-.76-2.34-1.21-3.63-1.39-6.14.13-6.83,6.14.41,7.29.91-.08,1.7-.45,2.31-1,.08,9.49,11.77,12.92,15.29,20.44Z"/>
      </g>
      <g>
        <path class="fill-pillow-light stroke-outline round stroke-2" d="m225.5,222.22c.81.17,1.7.64,2.54.43,1.03-.37,1.78.24,2.24,1.08,1.06-1.14,1.48-.34,1.95.74,1.81-2.89,1.96-.74,1.96,1.37,3.87-7.8,9.84-20.08,1.89-27.06,1.45.13,2.96-.52,3.82-1.89.11-1.3-.16-2.63-.67-3.83-3.25-5.21-8.77-2.73-6.05,4.09.54.74,1.26,1.23,2.05,1.47-8.11,4.93-5.07,16.72-9.74,23.6Z"/>
      </g>
    </g>
    <g id="Pillow_shade">
      <g>
        <path class="fill-pillow-shade" d="m61.38,254.78c14.11,2.05,18.09-36.77,68.51-30.51,28.64.5,32.71,33.56,50.62,33.01-11.82-24.17-34.01-37.01-44.93-38.44-29.71-3.88-59.65-.84-74.19,35.93Z"/>
        <path class="fill-black" d="m61.11,255.74c2.57.36,4.95-.43,7.03-1.93,2.44-1.76,4.44-4.06,6.41-6.31,2.47-2.83,4.92-5.68,7.6-8.3,3.19-3.13,6.5-5.77,10.36-8.01,4.59-2.66,9.58-4.46,14.8-5.5,6.8-1.35,13.83-1.35,20.7-.63,1.78.19,3.56.23,5.33.44,1.49.17,2.98.47,4.43.87,2.71.74,5.28,1.86,7.67,3.32,4.54,2.75,8.28,6.57,11.7,10.58,3.18,3.73,6.09,7.72,9.51,11.23,2.92,2.99,6.42,5.73,10.62,6.52,1.06.2,2.13.29,3.21.26.79-.02,1.2-.82.86-1.5-5.17-10.53-12.74-19.88-21.94-27.15-3.72-2.94-7.69-5.58-11.92-7.72-3.22-1.63-6.64-3.05-10.19-3.77-2.11-.43-4.29-.61-6.43-.83-2.44-.25-4.88-.45-7.32-.58-4.83-.25-9.69-.22-14.51.24-9.38.9-18.66,3.51-26.61,8.71-9.06,5.93-15.69,14.74-20.17,24.5-.66,1.43-1.27,2.88-1.85,4.35-.2.5.22,1.1.7,1.23.57.16,1.03-.19,1.23-.7,3.96-9.98,9.95-19.42,18.64-25.92,7.37-5.51,16.14-8.59,25.21-9.83,9.42-1.29,19.04-.75,28.44.43.31.04.63.08.94.12-.24-.03.25.04.33.05.36.06.71.12,1.06.2.74.16,1.47.35,2.19.56,1.68.5,3.35,1.13,4.9,1.82,4.01,1.78,7.79,4.05,11.35,6.6,9,6.47,16.59,14.96,22.06,24.6.77,1.35,1.49,2.72,2.17,4.12l.86-1.5c-.53.01-1.07,0-1.6-.04s-.72-.07-1.31-.19c-.48-.1-.95-.22-1.42-.37-.24-.08-.48-.16-.71-.25-.1-.04-.2-.08-.31-.12.04.02-.1-.04-.24-.1-1.92-.86-3.49-2.01-4.97-3.33-3.54-3.16-6.4-7-9.4-10.66-3.36-4.09-6.89-8.07-11.14-11.26-4.71-3.54-10.19-5.77-16.05-6.45-1.77-.21-3.56-.26-5.33-.44-1.95-.2-3.91-.35-5.87-.42-3.48-.13-6.97-.03-10.43.36-5.72.65-11.31,2.09-16.53,4.53-4.24,1.98-8.14,4.61-11.67,7.67-3,2.6-5.69,5.51-8.31,8.49-2.1,2.4-4.13,4.89-6.48,7.05-.25.23-.51.46-.77.68-.12.1-.24.2-.36.3-.06.05-.11.09-.17.13-.1.08.16-.12.06-.04-.04.03-.08.06-.12.09-.49.36-.99.7-1.53,1-.25.14-.5.26-.76.38-.13.06-.19.08,0,0-.07.03-.13.05-.2.08-.13.05-.27.1-.4.14-.26.08-.52.16-.79.21-.13.03-.26.05-.39.07-.25.05.15-.01,0,0-.08,0-.16.02-.24.02-.26.02-.53.03-.8.03-.14,0-.27-.01-.41-.02-.11,0-.57-.07-.23-.02-.53-.08-1.07.13-1.23.7-.13.47.16,1.15.7,1.23Z"/>
      </g>
    </g>
    <g id="Pillow_light">
      <g>
        <path class="fill-pillow-light stroke-outline round stroke-3" d="m60.78,251.86c25.27-47.17,94.45-48.22,118.06,2.18,13.1,8.77,60.44-56,52.38-67.9-55.05-70.24-162.87-18.42-170.44,65.72Z"/>
      </g>
    </g>
    <g id="Pillow_decorations">
      <g>
        <g>
          <path class="fill-pillow-shade" d="m104.91,194.81c1.18-2.63,1.81-5.86,4.38-7.53,3.85-6.57-6.39,1.92-6.6,6.92-1.42-2.03-1.24-8.42-3.07-8.03-2.28.49-.89,4.93-1.08,7.33-1.48-1.21-13.84,3.2-8.04,4.1,2.78-1.51,5.62-1.92,7.91-1.38-2.55,3.64-11.23,6.35-11.21,8.72.02,3.01,6.85-2.47,9.77-3.72-.91,1.33-1.54,2.79-2.24,4.21-1.54,1.75-2.33,5.59.93,2.67,1.35-1.85,2.66-5.31,3.6-6.5.1-.23.51-.59.71-.81,0,0,0,0,0,0,.05-.03.09-.09.11-.1,0,0,0,0,0,0-.01.01-.03.04-.06.06.02-.01.04-.03.07-.05.71.27,1.16,1.03,1.25,2.52.11,2.48,3.71,6.95,3.18,1.08.71-2.01-2.85-6.3,1.04-6-.07,0-.1,0-.12,0,1.33.1,2.7.59,3.55,1.64,4.41.91,2.09-4.12-1.3-4.03,9.59-6.18,7.5-6.28-2.77-1.09Z"/>
        </g>
        <path class="fill-pillow-shade" d="m135.14,162.05c-2.85-.44,3.64-1.21,5.89-3.29,5.29-4.88-32.53,11.63-22.42,10.81,2.73-1.16,5.73-4.29,6.48-3.69.91.74.84,1.9.15,3.23-1.19,2.18-1.25,5.24,2.4.6,1.31-1.67-.26-4.88,2.93-2.63-.06-.03.8,1.65,1.43,2.85,2.08,3.99,3.99-3.51,1.05-5.18,11.4-.35,6.98-1.95,2.1-2.7Z"/>
        <g>
          <path class="fill-pillow-shade" d="m200.96,177.13c2.79-.74,5.69-2.29,8.61-1.35,7.53-1.16-5.52-3.75-9.54-.76.68-2.38,5.75-6.27,4.29-7.44-1.82-1.46-4.39,2.42-6.37,3.78,0-1.91-11.22-8.72-8.25-3.65,2.92,1.2,5.03,3.15,6.06,5.27-4.43.32-12.01-4.71-13.84-3.2-2.32,1.92,6.23,3.76,9.05,5.23-1.61.14-3.14.57-4.68.92-2.33-.09-5.8,1.72-1.48,2.4,2.29-.12,5.8-1.29,7.32-1.31.24-.06.78.03,1.08.04,0,0,0,0,0,0,.06.01.12.02.14.02,0,0,0,0,0,0-.02,0-.05,0-.08,0,.02,0,.04.01.08.02.23.72-.07,1.55-1.16,2.56-1.86,1.65-3.05,7.26,1.17,3.15,2-.72,3.09-6.18,5.31-2.98-.04-.05-.06-.07-.08-.09.76,1.09,1.25,2.47.97,3.79,2.07,4,4.51-.98,2.31-3.55,10.84,3.54,9.6,1.86-.9-2.84Z"/>
        </g>
        <g>
          <path class="fill-pillow-shade" d="m175.6,202.46c2.37-1.65,4.57-4.09,7.64-4.2,6.69-3.64-6.47-1.65-9.23,2.53-.17-2.47,3.27-7.85,1.51-8.46-2.2-.76-3.31,3.77-4.71,5.72-.65-1.8-13.51-4.4-9-.63,3.16.14,5.8,1.25,7.49,2.9-4.06,1.8-12.9-.35-14.1,1.69-1.53,2.59,7.14,1.42,10.29,1.85-1.46.67-2.76,1.6-4.09,2.45-2.22.7-4.87,3.59-.58,2.76,2.11-.89,5.02-3.18,6.44-3.71.21-.14.75-.24,1.03-.33,0,0,0,0,0,0,.06,0,.12-.03.14-.03,0,0,0,0,0,0-.02,0-.05.01-.08.02.02,0,.05,0,.08,0,.46.6.46,1.48-.23,2.8-1.19,2.18-.41,7.87,2.17,2.56,1.64-1.35.81-6.87,3.99-4.61-.06-.03-.08-.05-.11-.06,1.08.77,2.01,1.9,2.2,3.24,3.31,3.06,3.91-2.45.97-4.12,11.4-.35,9.66-1.51-1.81-2.37Z"/>
        </g>
      </g>
      <path class="fill-pillow-shade stroke-outline miter stroke-1" d="m166.8,205.08c-1.11-2.36.02-5.47,2.52-6.94,2.5-1.47,5.4-.74,6.47,1.63s-.06,5.48-2.52,6.94c-2.47,1.46-5.36.73-6.47-1.63Z"/>
      <path class="fill-pillow-shade stroke-outline miter stroke-1" d="m193.02,177.87c-1.11-2.36.02-5.47,2.52-6.94,2.5-1.47,5.4-.74,6.47,1.63s-.06,5.48-2.52,6.94c-2.47,1.46-5.36.73-6.47-1.63Z"/>
      <path class="fill-pillow-shade stroke-outline miter stroke-1" d="m97.61,199.78c-1.11-2.36.02-5.47,2.52-6.94s5.4-.74,6.47,1.63c1.07,2.37-.06,5.48-2.52,6.94-2.47,1.46-5.36.73-6.47-1.63Z"/>
      <path class="fill-pillow-shade stroke-outline miter stroke-1" d="m124.3,164.23c1.14,2.3,3.99,3,6.42,1.55,2.06-1.22,3.16-3.58,2.86-5.7-1.38.59-7.55,3.39-9.28,4.15Z"/>
    </g>
  </g>
  <g id="Details-2" data-name="Details">
    <path class="fill-none" d="m0,0v431.15h288V0H0Z"/>
  </g>
</svg>
