<svg xmlns="http://www.w3.org/2000/svg" viewBox="0 0 192 192" fill="none">
  <rect width="192" height="192" rx="44" fill="#1B3D3F" />
  <g transform="translate(16 21) scale(0.94)">
    <path
      fill="#F8FAFC"
      d="m139.13.07c-7.31-.03-13.8-.03-23.28-.03-5.62,0-13.01.04-16.27,9.15l-28.75,90.86c-.38,1.22-1.39,1.86-2.44,1.94-1.12,0-2.23-.66-2.64-1.95L34.13,9.17C30.36-1.37,21.61.07,15.11.07h-2.52C.36-.05-1.69,10.27,1.11,14.44c41.79,64.35,57.04,123.76,58.85,134.16.23,1.31,1.4,2.23,2.73,2.24l5.56.02v.02c1.58,0,3.15,0,4.52,0h2.36s0,0,0,0c1.02,0,1.65,0,1.65,0,1.33,0,2.5-.93,2.73-2.24.89-5.13,7.27-38.65,16.37-64.63,0,0,0-.02,0-.02.49-1.4,1.83-2.33,3.31-2.32.18,0,.35.01.53,0,47.81-2.12,57.33-40.77,63.62-64.24C168.22-.71,148.68.11,139.13.07Zm-19.83,63.7c-9.91,3.44-17.09,2.89-15.8-1.41,3.06-10.26,10.15-32.85,16.21-46.67.47-1.07,1.39-1.9,2.55-1.9,7.78,0,18.78-.57,22.02.46s5.14,3.42,3.86,8.2c-6.21,23.15-18.08,37.59-28.83,41.32Z"
    />
  </g>
</svg>
