<svg xmlns="http://www.w3.org/2000/svg" viewBox="0 0 56.43 43.43">
  <path
    id="Bagel_light"
    fill="var(--bagel-light, #d18333)"
    stroke="var(--outline, #231f20)"
    stroke-miterlimit="10"
    stroke-width="2"
    d="m1.37,19.19c-2.42,8.38,7.34,20.96,16.47,22.14,5.66.51,11.67,1.03,14.41,1.03,10.94.83,22.98-5.31,23.17-16.3.15-8.89-5.32-21.38-16.82-24.02C27.25.67,18.41-.36,10.47,5.81,5.34,11.3,3.34,12.37,1.37,19.19Z"
  />
  <g id="Bagel_details">
    <g id="Bagel_hole">
      <path
        fill="var(--bagel-detail, #faa864)"
        stroke-width="0"
        d="m24.84,12.2c-8.83,6.58,3.15,15.34,9.27,8.58,1.82-1.76.99-4.58-.31-6.39-.8-.79-1.69-.9-1.89-1.99-.17-.98-6.49-.54-7.07-.2Z"
      />
      <path
        fill="var(--bagel-detail-shade, #0d0b0b)"
        stroke-width="0"
        d="m31.92,20.91c-1.55-2.53-5.9-2.17-7.54.04.1,2,7.69,2.52,7.54-.04Z"
      />
    </g>
    <g>
      <path fill="var(--bagel-detail-shade-deep, #42271c)" stroke-width="0" d="m23.73,8.06c0,.34-.23.58-.57.58-.33,0-.59-.25-.59-.58,0-.3.27-.56.56-.57.34,0,.58.23.59.56Z"/>
      <path fill="var(--bagel-detail-shade-deep, #42271c)" stroke-width="0" d="m24.93,10.46c0,.34-.23.58-.57.58-.33,0-.59-.25-.59-.58,0-.3.27-.56.56-.57.34,0,.58.23.59.56Z"/>
      <path fill="var(--bagel-detail-shade-deep, #42271c)" stroke-width="0" d="m28.7,8.52c0,.34-.23.58-.57.58-.33,0-.59-.25-.59-.58,0-.3.27-.56.56-.57.34,0,.58.23.59.56Z"/>
      <path fill="var(--bagel-detail-shade-deep, #42271c)" stroke-width="0" d="m31.95,8.52c0,.34-.23.58-.57.58-.33,0-.59-.25-.59-.58,0-.3.27-.56.56-.57.34,0,.58.23.59.56Z"/>
      <path fill="var(--bagel-detail-shade-deep, #42271c)" stroke-width="0" d="m33.68,10.32c0,.34-.23.58-.57.58-.33,0-.59-.25-.59-.58,0-.3.27-.56.56-.57.34,0,.58.23.59.56Z"/>
      <path fill="var(--bagel-detail-shade-deep, #42271c)" stroke-width="0" d="m36.57,11.31c0,.34-.23.58-.57.58-.33,0-.59-.25-.59-.58,0-.3.27-.56.56-.57.34,0,.58.23.59.56Z"/>
      <path fill="var(--bagel-detail-shade-deep, #42271c)" stroke-width="0" d="m40.6,14.98c0,.34-.23.58-.57.58-.33,0-.59-.25-.59-.58,0-.3.27-.56.56-.57.34,0,.58.23.59.56Z"/>
      <path fill="var(--bagel-detail-shade-deep, #42271c)" stroke-width="0" d="m34.77,28.35c0,.34-.23.58-.57.58-.33,0-.59-.25-.59-.58,0-.3.27-.56.56-.57.34,0,.58.23.59.56Z"/>
      <path fill="var(--bagel-detail-shade-deep, #42271c)" stroke-width="0" d="m32.73,26.34c0,.34-.23.58-.57.58-.33,0-.59-.25-.59-.58,0-.3.27-.56.56-.57.34,0,.58.23.59.56Z"/>
      <path fill="var(--bagel-detail-shade-deep, #42271c)" stroke-width="0" d="m27.61,31.46c0,.34-.23.58-.57.58-.33,0-.59-.25-.59-.58,0-.3.27-.56.56-.57.34,0,.58.23.59.56Z"/>
      <path fill="var(--bagel-detail-shade-deep, #42271c)" stroke-width="0" d="m18.61,31.5c0,.34-.23.58-.57.58-.33,0-.59-.25-.59-.58,0-.3.27-.56.56-.57.34,0,.58.23.59.56Z"/>
      <path fill="var(--bagel-detail-shade-deep, #42271c)" stroke-width="0" d="m21.33,24.65c0,.34-.23.58-.57.58-.33,0-.59-.25-.59-.58,0-.3.27-.56.56-.57.34,0,.58.23.59.56Z"/>
      <path fill="var(--bagel-detail-shade-deep, #42271c)" stroke-width="0" d="m16.85,24.68c0,.34-.23.58-.57.58-.33,0-.59-.25-.59-.58,0-.3.27-.56.56-.57.34,0,.58.23.59.56Z"/>
      <path fill="var(--bagel-detail-shade-deep, #42271c)" stroke-width="0" d="m39.43,27.47c0,.34-.23.58-.57.58-.33,0-.59-.25-.59-.58,0-.3.27-.56.56-.57.34,0,.58.23.59.56Z"/>
      <path fill="var(--bagel-detail-shade-deep, #42271c)" stroke-width="0" d="m42.47,23.91c0,.34-.23.58-.57.58-.33,0-.59-.25-.59-.58,0-.3.27-.56.56-.57.34,0,.58.23.59.56Z"/>
      <path fill="var(--bagel-detail-shade-deep, #42271c)" stroke-width="0" d="m38.09,23.8c0,.34-.23.58-.57.58-.33,0-.59-.25-.59-.58,0-.3.27-.56.56-.57.34,0,.58.23.59.56Z"/>
      <path fill="var(--bagel-detail-shade-deep, #42271c)" stroke-width="0" d="m45.5,21.3c0,.34-.23.58-.57.58-.33,0-.59-.25-.59-.58,0-.3.27-.56.56-.57.34,0,.58.23.59.56Z"/>
      <path fill="var(--bagel-detail-shade-deep, #42271c)" stroke-width="0" d="m19.28,14.84c0,.34-.23.58-.57.58-.33,0-.59-.25-.59-.58,0-.3.27-.56.56-.57.34,0,.58.23.59.56Z"/>
      <path fill="var(--bagel-detail-shade-deep, #42271c)" stroke-width="0" d="m16.07,19.71c0,.34-.23.58-.57.58-.33,0-.59-.25-.59-.58,0-.3.27-.56.56-.57.34,0,.58.23.59.56Z"/>
      <path fill="var(--bagel-detail-shade-deep, #42271c)" stroke-width="0" d="m14.45,19.67c0,.34-.23.58-.57.58-.33,0-.59-.25-.59-.58,0-.3.27-.56.56-.57.34,0,.58.23.59.56Z"/>
      <path fill="var(--bagel-detail-shade-deep, #42271c)" stroke-width="0" d="m11.48,19.18c0,.34-.23.58-.57.58-.33,0-.59-.25-.59-.58,0-.3.27-.56.56-.57.34,0,.58.23.59.56Z"/>
      <path fill="var(--bagel-detail-shade-deep, #42271c)" stroke-width="0" d="m14.73,13.81c0,.34-.23.58-.57.58-.33,0-.59-.25-.59-.58,0-.3.27-.56.56-.57.34,0,.58.23.59.56Z"/>
    </g>
    <g>
      <path fill="var(--bagel-detail-shadow, #755b43)" stroke-width="0" d="m37.18,9.09c-.42,0-.75-.32-.76-.74,0-.39.36-.76.75-.76.39,0,.75.36.75.76,0,.42-.32.74-.75.74Z"/>
      <path fill="var(--bagel-detail-shadow, #755b43)" stroke-width="0" d="m40.57,11.24c-.42,0-.75-.32-.76-.74,0-.39.36-.76.75-.76.39,0,.75.36.75.76,0,.42-.32.74-.75.74Z"/>
      <path fill="var(--bagel-detail-shadow, #755b43)" stroke-width="0" d="m40.53,14.28c-.42,0-.75-.32-.76-.74,0-.39.36-.76.75-.76.39,0,.75.36.75.76,0,.42-.32.74-.75.74Z"/>
      <path fill="var(--bagel-detail-shadow, #755b43)" stroke-width="0" d="m45.79,17.14c-.42,0-.75-.32-.76-.74,0-.39.36-.76.75-.76.39,0,.75.36.75.76,0,.42-.32.74-.75.74Z"/>
      <path fill="var(--bagel-detail-shadow, #755b43)" stroke-width="0" d="m45.97,21.62c-.42,0-.75-.32-.76-.74,0-.39.36-.76.75-.76.39,0,.75.36.75.76,0,.42-.32.74-.75.74Z"/>
      <path fill="var(--bagel-detail-shadow, #755b43)" stroke-width="0" d="m38.49,23.53c-.42,0-.75-.32-.76-.74,0-.39.36-.76.75-.76.39,0,.75.36.75.76,0,.42-.32.74-.75.74Z"/>
      <path fill="var(--bagel-detail-shadow, #755b43)" stroke-width="0" d="m37.92,27.51c-.42,0-.75-.32-.76-.74,0-.39.36-.76.75-.76.39,0,.75.36.75.76,0,.42-.32.74-.75.74Z"/>
      <path fill="var(--bagel-detail-shadow, #755b43)" stroke-width="0" d="m41.77,27.16c-.42,0-.75-.32-.76-.74,0-.39.36-.76.75-.76.39,0,.75.36.75.76,0,.42-.32.74-.75.74Z"/>
      <path fill="var(--bagel-detail-shadow, #755b43)" stroke-width="0" d="m42.05,29.95c-.42,0-.75-.32-.76-.74,0-.39.36-.76.75-.76.39,0,.75.36.75.76,0,.42-.32.74-.75.74Z"/>
      <path fill="var(--bagel-detail-shadow, #755b43)" stroke-width="0" d="m36.19,30.97c-.42,0-.75-.32-.76-.74,0-.39.36-.76.75-.76.39,0,.75.36.75.76,0,.42-.32.74-.75.74Z"/>
      <path fill="var(--bagel-detail-shadow, #755b43)" stroke-width="0" d="m29.28,32.35c-.42,0-.75-.32-.76-.74,0-.39.36-.76.75-.76.39,0,.75.36.75.76,0,.42-.32.74-.75.74Z"/>
      <path fill="var(--bagel-detail-shadow, #755b43)" stroke-width="0" d="m22.5,34.01c-.42,0-.75-.32-.76-.74,0-.39.36-.76.75-.76.39,0,.75.36.75.76,0,.42-.32.74-.75.74Z"/>
      <path fill="var(--bagel-detail-shadow, #755b43)" stroke-width="0" d="m23.95,26.7c-.42,0-.75-.32-.76-.74,0-.39.36-.76.75-.76.39,0,.75.36.75.76,0,.42-.32.74-.75.74Z"/>
      <path fill="var(--bagel-detail-shadow, #755b43)" stroke-width="0" d="m19.68,28.85c-.42,0-.75-.32-.76-.74,0-.39.36-.76.75-.76.39,0,.75.36.75.76,0,.42-.32.74-.75.74Z"/>
    </g>
    <g>
      <circle fill="var(--bagel-detail-muted, #9f9c86)" stroke-width="0" cx="38.81" cy="10.06" r=".82"/>
      <circle fill="var(--bagel-detail-muted, #9f9c86)" stroke-width="0" cx="44.32" cy="18.2" r=".73"/>
      <circle fill="var(--bagel-detail-muted, #9f9c86)" stroke-width="0" cx="41.36" cy="13.98" r=".73"/>
      <circle fill="var(--bagel-detail-muted, #9f9c86)" stroke-width="0" cx="38.78" cy="20.98" r=".73"/>
      <circle fill="var(--bagel-detail-muted, #9f9c86)" stroke-width="0" cx="37.58" cy="28.86" r=".73"/>
      <circle fill="var(--bagel-detail-muted, #9f9c86)" stroke-width="0" cx="31.68" cy="28.49" r=".73"/>
      <circle fill="var(--bagel-detail-muted, #9f9c86)" stroke-width="0" cx="22.6" cy="28.6" r=".73"/>
      <circle fill="var(--bagel-detail-muted, #9f9c86)" stroke-width="0" cx="20.34" cy="23.54" r=".73"/>
      <circle fill="var(--bagel-detail-muted, #9f9c86)" stroke-width="0" cx="11.34" cy="23.74" r=".73"/>
    </g>
    <g>
      <circle fill="var(--bagel-detail-accent, #e5d594)" stroke-width="0" cx="25.85" cy="7.16" r=".75"/>
      <circle fill="var(--bagel-detail-accent, #e5d594)" stroke-width="0" cx="17.19" cy="11.27" r=".75"/>
      <circle fill="var(--bagel-detail-accent, #e5d594)" stroke-width="0" cx="20.12" cy="12.04" r=".75"/>
      <circle fill="var(--bagel-detail-accent, #e5d594)" stroke-width="0" cx="10.74" cy="15.77" r=".75"/>
      <circle fill="var(--bagel-detail-accent, #e5d594)" stroke-width="0" cx="13.4" cy="17.85" r=".75"/>
      <circle fill="var(--bagel-detail-accent, #e5d594)" stroke-width="0" cx="17.31" cy="17.16" r=".75"/>
      <circle fill="var(--bagel-detail-accent, #e5d594)" stroke-width="0" cx="11.47" cy="20.58" r=".75"/>
      <circle fill="var(--bagel-detail-accent, #e5d594)" stroke-width="0" cx="13.01" cy="22.76" r=".75"/>
      <circle fill="var(--bagel-detail-accent, #e5d594)" stroke-width="0" cx="16.54" cy="21.89" r=".75"/>
      <circle fill="var(--bagel-detail-accent, #e5d594)" stroke-width="0" cx="36.27" cy="10.14" r=".75"/>
      <circle fill="var(--bagel-detail-accent, #e5d594)" stroke-width="0" cx="36.36" cy="12.75" r=".75"/>
      <circle fill="var(--bagel-detail-accent, #e5d594)" stroke-width="0" cx="42.52" cy="12.38" r=".75"/>
    </g>
    <g>
      <circle fill="var(--bagel-detail-highlight, #e4dfbc)" stroke-width="0" cx="22.31" cy="5.2" r=".44"/>
      <circle fill="var(--bagel-detail-highlight, #e4dfbc)" stroke-width="0" cx="29.88" cy="5.03" r=".44"/>
      <circle fill="var(--bagel-detail-highlight, #e4dfbc)" stroke-width="0" cx="29.22" cy="7.74" r=".44"/>
      <circle fill="var(--bagel-detail-highlight, #e4dfbc)" stroke-width="0" cx="32.34" cy="7.93" r=".44"/>
      <circle fill="var(--bagel-detail-highlight, #e4dfbc)" stroke-width="0" cx="33.68" cy="6.35" r=".44"/>
      <circle fill="var(--bagel-detail-highlight, #e4dfbc)" stroke-width="0" cx="36.57" cy="4.78" r=".44"/>
      <circle fill="var(--bagel-detail-highlight, #e4dfbc)" stroke-width="0" cx="33.73" cy="11.07" r=".44"/>
      <circle fill="var(--bagel-detail-highlight, #e4dfbc)" stroke-width="0" cx="36.24" cy="11.17" r=".44"/>
      <circle fill="var(--bagel-detail-highlight, #e4dfbc)" stroke-width="0" cx="40.75" cy="9.76" r=".44"/>
      <circle fill="var(--bagel-detail-highlight, #e4dfbc)" stroke-width="0" cx="44.44" cy="10.05" r=".44"/>
      <circle fill="var(--bagel-detail-highlight, #e4dfbc)" stroke-width="0" cx="43.72" cy="16.44" r=".44"/>
      <circle fill="var(--bagel-detail-highlight, #e4dfbc)" stroke-width="0" cx="41.26" cy="20.64" r=".44"/>
      <circle fill="var(--bagel-detail-highlight, #e4dfbc)" stroke-width="0" cx="41.34" cy="24.68" r=".44"/>
      <circle fill="var(--bagel-detail-highlight, #e4dfbc)" stroke-width="0" cx="40.1" cy="25.75" r=".44"/>
      <circle fill="var(--bagel-detail-highlight, #e4dfbc)" stroke-width="0" cx="32.08" cy="28.1" r=".44"/>
      <circle fill="var(--bagel-detail-highlight, #e4dfbc)" stroke-width="0" cx="32.08" cy="31.3" r=".44"/>
      <circle fill="var(--bagel-detail-highlight, #e4dfbc)" stroke-width="0" cx="33.71" cy="31.34" r=".44"/>
      <circle fill="var(--bagel-detail-highlight, #e4dfbc)" stroke-width="0" cx="37.96" cy="31.3" r=".44"/>
      <circle fill="var(--bagel-detail-highlight, #e4dfbc)" stroke-width="0" cx="30.13" cy="28.25" r=".44"/>
      <circle fill="var(--bagel-detail-highlight, #e4dfbc)" stroke-width="0" cx="29.13" cy="32.28" r=".44"/>
      <circle fill="var(--bagel-detail-highlight, #e4dfbc)" stroke-width="0" cx="21.79" cy="28.63" r=".44"/>
      <circle fill="var(--bagel-detail-highlight, #e4dfbc)" stroke-width="0" cx="21.95" cy="30.3" r=".44"/>
      <circle fill="var(--bagel-detail-highlight, #e4dfbc)" stroke-width="0" cx="20.5" cy="23.57" r=".44"/>
      <circle fill="var(--bagel-detail-highlight, #e4dfbc)" stroke-width="0" cx="18.4" cy="23.08" r=".44"/>
      <circle fill="var(--bagel-detail-highlight, #e4dfbc)" stroke-width="0" cx="14.54" cy="22.73" r=".44"/>
      <circle fill="var(--bagel-detail-highlight, #e4dfbc)" stroke-width="0" cx="11.32" cy="23.59" r=".44"/>
      <circle fill="var(--bagel-detail-highlight, #e4dfbc)" stroke-width="0" cx="15.15" cy="28.33" r=".44"/>
      <circle fill="var(--bagel-detail-highlight, #e4dfbc)" stroke-width="0" cx="18.4" cy="29.89" r=".44"/>
      <circle fill="var(--bagel-detail-highlight, #e4dfbc)" stroke-width="0" cx="19.44" cy="32.5" r=".44"/>
      <circle fill="var(--bagel-detail-highlight, #e4dfbc)" stroke-width="0" cx="14.55" cy="32.03" r=".44"/>
      <circle fill="var(--bagel-detail-highlight, #e4dfbc)" stroke-width="0" cx="10.76" cy="23.14" r=".44"/>
      <circle fill="var(--bagel-detail-highlight, #e4dfbc)" stroke-width="0" cx="8" cy="23.17" r=".44"/>
      <circle fill="var(--bagel-detail-highlight, #e4dfbc)" stroke-width="0" cx="13.16" cy="19.48" r=".44"/>
      <circle fill="var(--bagel-detail-highlight, #e4dfbc)" stroke-width="0" cx="8.75" cy="15.3" r=".44"/>
      <circle fill="var(--bagel-detail-highlight, #e4dfbc)" stroke-width="0" cx="19.75" cy="6.25" r=".44"/>
      <circle fill="var(--bagel-detail-highlight, #e4dfbc)" stroke-width="0" cx="22.72" cy="8.81" r=".44"/>
      <circle fill="var(--bagel-detail-highlight, #e4dfbc)" stroke-width="0" cx="21.8" cy="11.45" r=".44"/>
      <circle fill="var(--bagel-detail-highlight, #e4dfbc)" stroke-width="0" cx="16.07" cy="12.83" r=".44"/>
      <circle fill="var(--bagel-detail-highlight, #e4dfbc)" stroke-width="0" cx="13.22" cy="11.58" r=".44"/>
      <circle fill="var(--bagel-detail-highlight, #e4dfbc)" stroke-width="0" cx="14.63" cy="10.17" r=".44"/>
      <circle fill="var(--bagel-detail-highlight, #e4dfbc)" stroke-width="0" cx="16" cy="7.25" r=".44"/>
      <circle fill="var(--bagel-detail-highlight, #e4dfbc)" stroke-width="0" cx="20.33" cy="7.58" r=".44"/>
      <circle fill="var(--bagel-detail-highlight, #e4dfbc)" stroke-width="0" cx="13.3" cy="12.98" r=".44"/>
    </g>
    <g>
      <circle fill="var(--bagel-detail-highlight, #e4dfbc)" stroke-width="0" cx="17.92" cy="8.53" r=".74"/>
      <circle fill="var(--bagel-detail-highlight, #e4dfbc)" stroke-width="0" cx="19.45" cy="8.93" r=".74"/>
      <circle fill="var(--bagel-detail-highlight, #e4dfbc)" stroke-width="0" cx="13.55" cy="12.76" r=".74"/>
      <circle fill="var(--bagel-detail-highlight, #e4dfbc)" stroke-width="0" cx="17.89" cy="13.73" r=".74"/>
      <circle fill="var(--bagel-detail-highlight, #e4dfbc)" stroke-width="0" cx="19.06" cy="21.68" r=".74"/>
      <circle fill="var(--bagel-detail-highlight, #e4dfbc)" stroke-width="0" cx="29.56" cy="11.06" r=".74"/>
      <circle fill="var(--bagel-detail-highlight, #e4dfbc)" stroke-width="0" cx="38.16" cy="14.85" r=".74"/>
      <circle fill="var(--bagel-detail-highlight, #e4dfbc)" stroke-width="0" cx="42.55" cy="17.78" r=".74"/>
      <circle fill="var(--bagel-detail-highlight, #e4dfbc)" stroke-width="0" cx="45.04" cy="22.14" r=".74"/>
      <circle fill="var(--bagel-detail-highlight, #e4dfbc)" stroke-width="0" cx="42.89" cy="28.46" r=".74"/>
      <circle fill="var(--bagel-detail-highlight, #e4dfbc)" stroke-width="0" cx="36.18" cy="26.1" r=".74"/>
      <circle fill="var(--bagel-detail-highlight, #e4dfbc)" stroke-width="0" cx="17.41" cy="26.94" r=".74"/>
      <circle fill="var(--bagel-detail-highlight, #e4dfbc)" stroke-width="0" cx="19.21" cy="21.62" r=".74"/>
      <circle fill="var(--bagel-detail-highlight, #e4dfbc)" stroke-width="0" cx="32.23" cy="33.08" r=".74"/>
    </g>
  </g>
</svg>
