<svg xmlns="http://www.w3.org/2000/svg" viewBox="0 0 90.03 54.07">
  <polygon
    id="Book_details"
    fill="var(--book-detail, #c4beb4)"
    stroke="var(--outline, #120c03)"
    stroke-miterlimit="10"
    points="86.88 36.51 86.49 25.66 46.53 41.5 50.47 52.42 86.88 36.51"
  />
  <path
    id="Book_light"
    fill="var(--book-light, #005e8f)"
    stroke="var(--outline, #231f20)"
    stroke-linecap="round"
    stroke-linejoin="round"
    stroke-width="2"
    d="m50.71,53.07c8.29-3.27,38.32-16.6,38.32-16.6l-.16-.73s-23.39,9.72-36.98,15.58c-1.46-.42-2.76-3.9-2.72-5.41.04-1.82.74-5.43,2.22-6.09,10.74-4.82,36.84-14.73,36.84-14.73L47.21,1S7.44,7.81,1.65,10.76c-1.46.74,0,11.07,0,11.07,0,0,44.65,31.24,49.06,31.24Z"
  />
  <g id="Book_shade">
    <path fill="var(--book-shade, #002443)" stroke-width="0" d="m28.8,20.08c-2.05.41-8.94-5.69-10.74-6.52-.85.07-2.08-.37-2.58-1.07.58-4.13,9.94-1.35,10.99,1.79,4.34.35,9.63,5.1,2.34,5.8Zm-7.05-5.83c4.01-.59-1.07-3.02-2.62-1.77l2.62,1.77Zm5.59,1.59c-1.08-.22-1.97-.14-2.99.16,3.65,3.69,7.57,1.12,2.99-.16Z"/>
    <path fill="var(--book-shade, #002443)" stroke-width="0" d="m38.45,12.05c7.25,9.09-10.48,3.98-11.94-1.15-1.17-6.08,9.8-1.18,11.94,1.15Zm-.98,3.01c.65-3.22-6.29-7.01-8.62-4.77.62,3.06,5.65,6.3,8.62,4.77Z"/>
    <path fill="var(--book-shade, #002443)" stroke-width="0" d="m47.74,10.17c6.66,8.32-9.87,4-11.24-.84-1-5.61,9.17-1.33,11.24.84Zm-.98,2.83c.69-3.04-5.9-6.4-8.03-4.28.52,2.88,5.31,5.78,8.03,4.28Z"/>
    <path fill="var(--book-shade, #002443)" stroke-width="0" d="m54.27,11.88c1.4,3.72-8.09-4.02-9.25-4.55-4.27-3.33,2.39-.66,3.6.82.7-1.04-.44-2.16-.31-3.18,2.05-1.03,3.49,1.58,3.19,3.39,12.5,2.56,9.16,3.53-.71,1.25,1.15.77,2.31,1.51,3.48,2.27Z"/>
  </g>
</svg>
