<svg xmlns="http://www.w3.org/2000/svg" viewBox="0 0 59.16 32.11">
  <path
    id="Candy_light"
    fill="var(--candy-light, #bb1c26)"
    stroke="var(--outline, #231f20)"
    stroke-linecap="round"
    stroke-linejoin="round"
    d="m15.56,17.95C12.51,2.94,35.24-1.55,40.4,10.62c1.13,1.14-2.39-1.62-2.73-.66-.61,1.74,2.92,1.61,3.06,1.86.41.75-4.6-.09-3.41,1.79.73,1.15,2.42-1.15,3.38-1.01.05,1.04-3.24,2.33-1.26,3.36.62.32,1.19-2.22,1.81-2.61-1.79,14.27-14.8,19.06-24.23,8.23,1.23.64,5.12.79,4.04-.58-1.25-1.58-3,.66-3.58-.16-.83-1.18,3.76-1.83,3.45-3.8-.33-2.07-2.61,2.6-4.18,3.09-.96-.66,4.33-6.64,1.55-7.76-1.48-.59-1.01,9.54-2.74,5.58Z"
  />
  <g id="Candy_details">
    <path
      fill="var(--candy-detail, #fff)"
      stroke="var(--outline, #231f20)"
      stroke-linecap="round"
      stroke-linejoin="round"
      d="m16.31,19.4c-.75.96-.87-1.48-1.39-2.27-2.83-4.23-9.75-3.21-13.67-3.43-1.36.43-.05,1.71-.09,2.56-1.37,1.92-.24,3.2.27,5.12-1.7,2.69.03,2.91,1.09,4.87,0,2.65,1.71,1.76,2.5,3.74.68,1.95,2.06,2.07,3.46.7,3.58-2.57,8.53-6.69,7.83-11.3Z"
    />
    <path fill="none" stroke="var(--candy-detail-accent, #5bcbf5)" stroke-linecap="round" stroke-linejoin="round" stroke-width=".5" d="m15.36,19.51c-.64.83-3.3,5.1-3.76,3.99-.3-.71,3.64-3.4,3.25-4.26-.83.2-2.29,2.87-2.97,2.15-1.41-1.5,3.67-2.3,2.22-2.63.61-.08.17-.71-.09-.94-.84-3.11-5.16-3.62-8.03-3.44-1.3.26-3.23-.51-4.17.48-.2.65.5,1.21.43,1.86-1.15,1.56-.23,2.99.23,4.58-1.43,2.29-.04,2.64.94,4.34-.04,2.34,1.49,1.65,2.17,3.38.52,1.69,1.84,1.86,3.01.62,3.13-2.31,7.42-6.08,6.77-10.13Z"/>
    <path fill="none" stroke="var(--candy-detail-accent, #5bcbf5)" stroke-linecap="round" stroke-linejoin="round" stroke-width=".5" d="m5.12,15.48c-1.33-.16-2.1.59-1.6,1.91.41,1.36-.86,1.82.29,3.17.2,1.5-.48,2.47,1.53,3.12.49,1.21.61,2.55,2.1,2.92.36.36.19,1.06.64,1.36,1.09.12,1.92-1.32,2.87-1.82,1.87-1.34,4.38-3.79,3.38-6.17.05-.28.01-.88-.41-.62.75-.93-3,2.77-4.08,1.76-.59-.55,3.7-2.13,4.32-2.43-.17-.72-4.77,1.63-5.07-.31-.15-.95,4.44-.3,5.26-.11-1.6-2.82-6.17-2.92-9.24-2.75Z"/>
    <path
      fill="var(--candy-detail, #fff)"
      stroke="var(--outline, #231f20)"
      stroke-linecap="round"
      stroke-linejoin="round"
      d="m41.57,13.13c2.96,2.79,9.89,1.76,14.59.8,2.12-.19,3.09-1.13,2.14-2.56-.89-1.51,1.1-2.14-.91-3.49-.66-1.68.5-2.88-2.85-3.18-1.06-1.31-1.16-2.68-3.67-2.79-.68-.41-.64-1.9-2.01-1.25-2.86,2.6-8.62,6.71-7.6,10.66l.32,1.81Z"
    />
    <path fill="none" stroke="var(--candy-detail-accent, #5bcbf5)" stroke-linecap="round" stroke-linejoin="round" stroke-width=".5" d="m55.27,13.47c1.84-.11,2.72-1.03,1.85-2.23-.79-1.32.91-1.93-.89-3.11-.53-1.49.28-2.55-2.56-2.81-.85-1.11-1.23-2.42-3.29-2.49-.55-.29-.43-1.02-1.08-1.23-1.47.09-2.38,1.71-3.57,2.4-2.34,1.73-5.54,5.66-3.83,7.79-.03.28,4.55-2.12,4.6-.46.03.8-3.85.69-4.64,1.11.35.68,6.14-.77,6.45-.21.48.86-5.16.48-6.28.47,2.56,2.48,9.08,1.57,13.25.76Z"/>
    <path fill="none" stroke="var(--candy-detail-accent, #5bcbf5)" stroke-linecap="round" stroke-linejoin="round" stroke-width=".5" d="m41.63,11.79c.49-.62,4.09-4.36,4.69-3.78,1.24,1.19-4.92,3.64-4.51,4.12.71-.24,6.04-2.89,6.01-2.24-.07,1.2-5.75,1.69-4.47,1.7-.52.13-.09.47.16.57,1.04,1.84,4.82,1.51,7.28,1.01,1.11-.35,2.84-.13,3.59-.89.12-.44-.54-.68-.53-1.1.87-1.13-.05-1.9-.59-2.82,1.05-1.61-.21-1.67-1.19-2.57-.13-1.42-1.46-.85-2.18-1.8-.61-.99-1.78-.89-2.67.04-2.49,1.86-6.49,5.31-5.58,7.77Z"/>
  </g>
</svg>
