<svg xmlns="http://www.w3.org/2000/svg" viewBox="0 0 69.14 66.66">
  <path
    id="Cheese_light"
    fill="var(--cheese-light, #ffdf5d)"
    stroke="var(--outline, #231f20)"
    stroke-linecap="round"
    stroke-linejoin="round"
    stroke-width="2"
    d="m1.4,31.91S30.46,2.56,31.33,1.4s3.49.58,4.65.87,31.68,10.46,31.68,10.46L1.4,31.91Z"
  />
  <path
    id="Cheese_shade"
    fill="var(--cheese-shade, #e9c31e)"
    stroke="var(--outline, #231f20)"
    stroke-linecap="round"
    stroke-linejoin="round"
    stroke-width="2"
    d="m67.95,12.73c-.87,0-65.68,18.89-66.26,19.18-.58.29-1.2,32.52,0,33.71.32.32,9.1-2.04,20.05-5.18.02-.43.1-.88.29-1.33.39-.93,1.63-1.64,2.51-1.63,1.06.02,1.98-.16,2.8.73.14.16.23.34.28.53,17.51-5.1,37.53-11.24,38.02-11.73.87-.87,3.2-34.3,2.33-34.3Z"
  />
  <g id="Cheese_details">
    <path fill="var(--cheese-detail, #231f20)" stroke-width="0" d="m34.96,8.95c-1.74.29-2.15,1.44-2.05,1.89.17,1.53,2.93,1.58,5.25,1.45,1.28-.07,2.75-.28,3.49-1.31,1.11-1.54-.97-2.99-6.68-2.03Z"/>
    <path fill="var(--cheese-detail, #231f20)" stroke-width="0" d="m40.2,37.43c-1.7,1.56-2.48,6.82,1.6,6.98,3.92.15,5.07-.83,5.09-5.09.02-3.33-3.33-4.66-6.68-1.89Z"/>
    <path fill="var(--cheese-detail, #231f20)" stroke-width="0" d="m16.83,38.32c-2.41-.03-4.61,2.2-4.59,4.59-.89,2.53,1.77,3.74,3.83,4.15,6.43,2.15,8.16-10.16.76-8.74Z"/>
    <path fill="var(--cheese-detail, #231f20)" stroke-width="0" d="m21.89,19.81c-.36.27-.97,1.15-.9,1.65.13.85,1.72.79,2.35.5.71-.32,2.39-1.29,2.3-2.18-.13-1.3-3.36-.27-3.75.03Z"/>
    <path fill="var(--cheese-detail, #231f20)" stroke-width="0" d="m55.42,19.13c-2.11-.21-4.58,1.23-4.9,2.42-.79,2.86,1.13,5.94,5.41,4.46,3.93-1.36,6.45-6.18-.51-6.87Z"/>
  </g>
</svg>
