<svg xmlns="http://www.w3.org/2000/svg" viewBox="0 0 70.29 66.53">
  <path
    id="Comb_light"
    fill="var(--comb-light, #c98457)"
    stroke="var(--outline, #231f20)"
    stroke-miterlimit="10"
    d="m14.29.51c12.73,1.97,22.11,18.75,29.86,28.01,6.79,9.53,18.03,14.98,24.6,24.47,3.33,5.5-1.84,15.31-8.64,12.57-3.62-2.28-3.5-7.45-5.79-10.83-2.4-3.79-6.72-5.9-8.94-9.91-2.61-4.04-8.13-4.12-11.46-.93-1.88,1.42-2.76,3.63-4.72.82-1.31-1.31,6.36-6.8,6.74-8.36-.5-.3-1.02-1.4-1.59-1.21-1.46.99-6.54,7.82-7.8,6.62-1.25-1.54,1.57-2.81,2.31-4.02,1.5-1.83,4.02-3.48,4.98-5.45-.45-.24-1.22-1.57-1.68-1.14-1.52.97-7.37,8.83-8.49,7.32-1.12-1.26.88-2.29,1.56-3.22,2.12-2.22,4.31-4.37,6.43-6.6.12-.13.03-.23-.06-.32-.51-.33-.95-1.23-1.57-1.18-1,.97-1.98,1.96-2.96,2.95-1.71,1.73-3.38,3.51-5.15,5.17-.41.35-.9.33-1.23,0-1.27-1.5,1.31-2.56,2.02-3.69,2.08-2.21,4.26-4.31,6.33-6.52.16-.62-.97-1.06-1.32-1.55-3.33,2.37-5.84,6.37-9.26,8.79-.77.36-1.65-.9-1.02-1.5,2.93-3.14,5.99-6.16,8.95-9.27.11-.11.16-.21.04-.32-.51-.33-.95-1.26-1.55-1.2-2.9,2.85-5.74,5.75-8.58,8.65-.49.62-1.57.99-2.07.17-.45-1.48,2.59-3.17,3.38-4.42,1.92-2.04,3.85-4.07,5.82-6.07.19-.19.19-.31.02-.47-.49-.25-1.02-1.4-1.56-1.01-.71.74-1.43,1.47-2.15,2.19-1.53.92-7.71,9.38-8.73,6.64-.17-.36-.05-.69.18-.96,3.02-3.19,6.14-6.3,9.15-9.5.34-.57-.79-.99-1.07-1.44-.15-.14-.25-.15-.41.03-3.28,3.12-6.28,6.67-9.77,9.52-.75.42-1.81-.59-1.21-1.29,2.99-3.25,6.12-6.36,9.1-9.61.35-.56-.79-.95-1.06-1.4-.13-.13-.22-.12-.35.02-1.83,1.37-9.13,10.4-10.58,9.47-1.4-1.27,1.01-2.55,1.67-3.56,2.21-2.37,4.45-4.71,6.67-7.07.38-.55-.76-.93-1.01-1.38-.14-.14-.24-.13-.37.01-2.91,3.05-5.92,6.02-8.92,8.98-.89,1.01-1.8-.02-2.5-.69-.15-.66.44-1.41.66-2.04C4.39,9.72,7.71,1.37,14.29.51Z"
  />
</svg>
