<svg xmlns="http://www.w3.org/2000/svg" viewBox="0 0 81.68 54.4">
  <g id="Mouse_trap_base">
    <polygon fill="var(--mouse-trap-light, #905f49)" stroke="var(--outline, #231f20)" stroke-linecap="round" stroke-linejoin="round" points=".5 17.74 .5 21.86 63.78 53.9 63.93 49.78 .5 17.74"/>
    <polygon fill="var(--mouse-trap-shade, #714836)" stroke="var(--outline, #231f20)" stroke-linecap="round" stroke-linejoin="round" points="81.18 26.55 63.93 49.78 63.78 53.9 81.02 30.86 81.18 26.55"/>
    <polygon fill="var(--mouse-trap-detail, #cdae91)" stroke="var(--outline, #231f20)" stroke-linecap="round" stroke-linejoin="round" points=".5 17.74 21.13 .5 81.18 26.55 63.93 49.78 .5 17.74"/>
  </g>
  <g id="Mouse_trap_details">
    <path fill="var(--mouse-trap-metal, #7d98a6)" stroke="var(--outline, #231f20)" stroke-linecap="round" stroke-linejoin="round" stroke-width=".5" d="m29.56,25.34c2.15-2.61,7.32-7.93,8.61-8.86,2.47-2.47,6.35-4.06,7.7-7.44-.79-3.26-2.88.73-4.05,1.68-1.75,1.84-18.95,16.3-12.25,14.61h0Z"/>
    <path fill="var(--mouse-trap-metal, #7d98a6)" stroke="var(--outline, #231f20)" stroke-linecap="round" stroke-linejoin="round" stroke-width=".5" d="m16.95,10.21l.1,1.25,11.5,3.87.72-.62,8.01,2.25.72,1.25c.61.05,2.18.16,2.77.12l3.39-3.62-22.79-6.87-1.03-.12-3.39,2.5Z"/>
    <path id="Mouse_trap_wires" fill="var(--mouse-trap-detail-shade, #231f20)" stroke-width="0" d="m69.66,32.03c-1.9-.24-3.5,2.25-3.22,4.01.16.63.86.44.92-.14.05-.29-.13-.57.04-.85.35-.79.96-1.86,1.92-1.94-.32,1.34-.54,2.75-.51,4.13-1.3-.22-2.53-.83-3.62-1.58,1.81-2.44,3.98-4.42,5.93-6.73,3.82-4.08,2.64-7.26-2.22-9.93-5.77-3.17-17.34-11-24.07-11.67-1.21-.12-2.33.56-3.54.5-2.69-1.17-3.62-6.57-6.99-5.41,0,0,0,0,.01,0-.36.07-.77-.2-.94.39-.07,1.34,1.55.44,2.26.46,1.84,1.55,2.98,4.01,5,5.42-.2.16-.23.5-.1.72-.37.08-.87.18-.95.64-.57.06-1.29.59-.76,1.17-.56-.02-1.54.75-1.62,1.22.32.1.6.31.88.5-.15-.67.88-1.07,1.9-.57,1.51.73.63.76,1.27,1.45.04-.31.55.29.95.29.12,0,.23.03.32.07-.05-.09-.1-.17-.15-.26.41.5.94-.16.76-.66.4.37.84-.22.7-.66.26.17.54-.06.61-.34,1.34.1.34-2.32-.04-2.9.22-.28.42-.58.64-.86.02,0,.05.02.07.03,0,0,0,0,0,0,.67.27.87,1.01.92,1.69-1.04-.63-.89,1.18-.01,1.27,1.5.07.89-2.39.39-3.18,9.03,3.81,18.25,8.72,25.77,14.86.14,5.11-5.39,7.89-7.78,11.95-6.2-4.71-15.96-6.9-18.54-14.98,1.93.85,6.7,4.46,7.4,3.95.55-.39-.54-.75-.96-1-3.71-1.95-6.77-3.98-8.92-7.67-.21.28-.28.35-.65.69.54.68.54.8.99,1.52-1.29-1.02-2.86-.93-1.38-.07,2.74,1.61,2.85,4.66,4.38,6.83,4.64,5.16,11.37,7.7,17.02,11.54-1.95,2.48-3.64,5.21-5.78,7.52,0,0,0,0-.02.01,0,0,0,0,0,0-.01,0-.05.03-.05.02-8.91-3.9-17.25-9.8-25.9-14.44.08-1.23.02-2.5-.23-3.71.85.08,1.86-.38,1.8-1.42.51.19.69-.48.54-.89.64.13.59-.8.48-1.22.54.58.96-.36.73-.87.08.09,12.12,6.95,12.41,6.46.06-.09.28-.32.03-.53-1.89-1.62-11.68-6.24-11.68-6.33,1.17-.24.2-2.34-.28-2.9-.59-.91-3.44-2.03-3.35-.35-.44-.07-.78.44-.53.85-.44.09-1.08.28-.94.88-.45.11-1,.36-.8.94-.49.09-1.02.59-.58,1.09-.31.25-.73.66-.68,1.13-.65-.1-1.25.28-1.55.86-5.71-1.14-9.41-5.6-13.69.71.01,0,.02,0,.03-.01-.53.17-.36,1.26.24,1.07.42-.21.78-.5,1.11-.87.7-.79,1.14-1.77,1.97-2.22,3.44-.95,6.59,1.96,9.97,2.37.04.76-.36,3.02.33,3.48s19.76,11.58,29.65,16.93c3.19.32,5.29-5.96,7.57-8,2.36,2.04,7.94,3.28,7.72-1.35,2.36,1.1-.47-9.25-2.59-3.11Zm-30.03-20.86c.19.03.86-.38,1.47-.08,1.53.75,1.12,2.19,1.13,2.21,0,0-1.6-1.88-2.6-2.13Zm-5.35,6.41c.52.41,1.08.98,1.28,1.62-.36-.62-1.56-1.28-2.12-1.62-.78-.43.55-.22.84,0Zm-5.42,10.04c-.38-.23-1.15-.47-1.29-.94-.18-.48-.23-2.66.84-3.33,1.22-.76,1.6-.16,1.91.44.83,1.61.78,4.14.76,4.83-.68-.32-1.62-.66-2.23-1Zm.89-5.23c.28-.72,1.08-.53,1.45-.34.45.26,1.21.57,1.36,1.54s-.67,1.29-.94,1.25c-.29-1.52-1.09-2.14-1.87-2.45Zm42.42,12.14c-.25-.96-.8-1.8-1.6-2.2.05-.11.09-.23.15-.34.17-.32.23-.43.49-.73.19.12.33.31.45.49.45.78.56,1.76.51,2.78Z"/>
    <path fill="var(--mouse-trap-detail, #cdae91)" stroke-width="0" d="m71.35,35.7s0,.06-.01.08c-.02.12-.05.24-.08.35,0,.02-.01.03-.02.05-.02.06-.05.12-.08.18-.02.05-.05.09-.08.14-.02.02-.03.05-.05.07-.03.05-.07.09-.11.13-.02.02-.04.04-.06.07,0,0,0,0,0,0,0,0,0,0,0,0,0,0,0,0-.01,0,0,0-.02.02-.03.03-.02.02-.04.02-.03.02-.07.06-.15.12-.23.17-.02.02-.05.03-.07.04,0,0,0,0,0,0-.05,0-.14.07-.19.08-.14.05-.27.09-.41.12-.01,0-.02,0-.03,0-.03,0-.05,0-.08.01-.04,0-.09,0-.13.01.02-.06.04-.13.04-.21.02-.43.06-.86.1-1.29,0-.05.01-.11.02-.16,0-.02,0-.05,0-.07,0,.02,0,.02,0,.03.01-.12.03-.25.05-.37.03-.23.07-.47.11-.7.07-.39.15-.78.26-1.16.01,0,.03.02.04.03.1.06.2.13.3.21.02.02.04.03.06.05.05.05.09.1.14.15.08.09.15.19.22.29.01.02.03.04.04.07.03.06.07.12.1.18.03.05.05.11.07.16.03.06.09.28.03.07.03.13.08.25.1.38.01.06.02.12.03.17,0,.02,0,.05.01.07,0,.12.02.25.01.37,0,.05,0,.11,0,.16Z"/>
  </g>
  <g id="Mouse_trap_cheese">
    <path fill="var(--mouse-trap-cheese-light, #fde060)" stroke="var(--outline, #231f20)" stroke-linecap="round" stroke-linejoin="round" stroke-width=".5" d="m25.38,2.51c-1.04-.42-2.37-.96-3.23-1.3-.19-.03-.38-.04-.57-.04-.59,0-1.16.17-1.74.27-.16.2-.35.43-.55.68.01.02.02.04.03.07.05.13.08.24.08.39,0,.09,0,.18-.03.27-.04.13-.08.21-.15.32-.05.06-.11.12-.17.16-.09.06-.19.09-.29.1-.04.01-.09.02-.13.02-.11,0-.19-.03-.29-.09,0,0-.02-.01-.02-.02-.68.85-1.42,1.75-2.02,2.49-.13.39-.23.8-.32,1.21l10.28-2.67c-.15-.35-.72-1.51-.89-1.85Z"/>
    <path fill="var(--mouse-trap-cheese-shade, #f1c617)" stroke="var(--outline, #231f20)" stroke-linecap="round" stroke-linejoin="round" stroke-width=".5" d="m25.66,2.96c-2.81,2.56-7.56,3.31-9.67,4.08-.27,1.33-.33,2.73-.2,4.09.06-.03.12-.05.18-.06.13-.01.26-.05.39-.03.11.01.2.04.3.1.1.07.16.16.22.26.11.18.16.41.15.63,0,.2-.05.42-.14.59,0,0,0,.02,0,.03-.01.08-.04.16-.08.23.07.09.14.17.2.25.22.27.45.54.66.83.33-.11.67-.23,1.03-.36,0-.09.02-.19.05-.29.07-.2.29-.36.45-.36.19,0,.36-.03.5.16.03.03.04.07.05.12,2.09-.74,4.38-1.58,5.71-2.1.26-.6.54-1.18.86-1.73-.04-.03-.07-.06-.1-.11-.11-.16-.19-.33-.24-.53-.02-.1-.02-.2.01-.3,0-.1.03-.19.07-.28.07-.17.22-.31.37-.35.09-.03.16-.02.24-.01.01-.76.05-1.53.04-2.29-.31-.66-.78-1.92-1.07-2.59Z"/>
    <g>
      <path fill="var(--mouse-trap-detail-shade, #231f20)" stroke-width="0" d="m22.42,2.74c.07-.21-.05-.39-.2-.48-.35-.19-.78-.11-1.14-.04-.16.03-.32.13-.39.3-.05.12-.06.26,0,.38.07.15.21.21.35.24.18.04.36.04.54.03.3-.01.73-.04.86-.44Z"/>
      <path fill="var(--mouse-trap-detail-shade, #231f20)" stroke-width="0" d="m22.72,8.14c-.28-.02-.54.15-.75.36-.21.24-.3.65-.27.99.01.19.07.37.18.51.12.15.29.21.46.22.3.01.67,0,.85-.36.09-.17.12-.38.13-.58.02-.25.02-.52-.08-.75-.1-.23-.3-.37-.52-.39Z"/>
      <path fill="var(--mouse-trap-detail-shade, #231f20)" stroke-width="0" d="m18.4,8.74c-.18-.11-.38-.12-.57-.08,0,0,0,0,0,0-.29,0-.56.19-.73.47-.08.13-.14.29-.17.46-.01.08-.01.16-.03.23-.01.08-.02.16-.01.24.03.3.24.5.46.61.11.06.22.09.34.13.09.03.17.05.26.05.66.01,1-.99.78-1.66-.06-.19-.17-.35-.32-.45Z"/>
      <path fill="var(--mouse-trap-detail-shade, #231f20)" stroke-width="0" d="m19.14,4.46c-.09.01-.18.03-.27.07-.06.02-.13.04-.18.09,0,0,0,0,0,.01,0,0,0,0-.01,0-.15.14-.29.49-.08.64.08.06.19.07.28.06.09-.01.17-.04.24-.09.09-.06.18-.13.26-.21.07-.08.14-.19.13-.31-.01-.23-.21-.27-.36-.25Z"/>
      <path fill="var(--mouse-trap-detail-shade, #231f20)" stroke-width="0" d="m24.78,4.45c-.23-.02-.48.06-.68.21-.09.07-.17.15-.23.25-.05.08-.07.18-.09.28-.05.42.09.86.44,1.01.34.16.77-.01,1.05-.27.2-.18.41-.48.38-.81-.04-.5-.54-.63-.87-.67Z"/>
    </g>
  </g>
</svg>
