<svg xmlns="http://www.w3.org/2000/svg" viewBox="0 0 85.16 38.95">
  <path
    id="Shoe_light"
    fill="var(--shoe-light, #69301b)"
    stroke="var(--outline, #231f20)"
    stroke-miterlimit="10"
    stroke-width="2"
    d="m82.73,23.63c-3.54-15.31-19.31-.1-28.03-5.28-7.81,7.37-23.08-13.21-25.25-13.32-6.73,3.46-15.83,5.01-23.34,4.09C2.57,8.05.34,25.89,1.19,29.69c28.89,3.72,51.94,5.94,81.54-6.05Z"
  />
  <path
    id="Shoe_shade"
    fill="var(--shoe-shade, #551d0e)"
    stroke="var(--outline, #231f20)"
    stroke-linecap="round"
    stroke-linejoin="round"
    d="m29.68,4.8s9.06,9.51,15.55,13.53c4.17,2.24,6.56,2.16,9.7-.19-2.8-2.36-17.67-14.94-18.27-15.36s.67-.08-.99.25-4-.34-4.97-.25-2.15.34-2.15.76,4.4.72,4.79.89-3.67.37-3.67.37Z"
  />
  <g id="Shoe_details">
    <path
      fill="var(--shoe-detail, #231f20)"
      stroke-width="0"
      d="m85.16,27.12c-.48-1.61-.6-3.97-2.58-4.22-10.4,5.23-26.53,9.18-41.06,9.54-14.09.35-26.3-1.56-40.26-3.51-.32-.06-1.22-.19-1.26.6.02.36.22,2.85.25,3.17.18,1.3-.64,2.93.65,3.99,7.15,3.71,16.16,1.42,23.96,1.96.92-.1.28-2.63.46-3.22,7.6.07,16.88,3.95,25.29,3.47,8.82.24,31.24-5.94,34.54-11.79Z"
    />
    <path
      fill="none"
      stroke="var(--outline, #231f20)"
      stroke-linecap="round"
      stroke-linejoin="round"
      d="m33.82,5.82c.29-1.01,1.92-1.29,1.88-1.01-.44,3.21-2.57,8.29.58,10.05,5.81,3.27,1.77-7.89.08-10.27,2.01,1.87,4.82,4.91,7.83,5.9,2.01.66,2.65-1.26,1.85-2.83-1.79-3.53-7-2.11-9.91-3.54.72-2.21,2.84-1.9,4.39-3.63"
    />
    <path
      fill="var(--shoe-detail, #231f20)"
      stroke-width="0"
      d="m48.67,15.28c-1.75.05.09,1.56,1.93,2.31.99-.69-1.47-2.32-1.93-2.31Z"
    />
    <path
      fill="var(--shoe-detail, #231f20)"
      stroke-width="0"
      d="m39.31,9.58c-.76.93,1.25,1.08,2.43.39.04-.83-2.15-.74-2.43-.39Z"
    />
    <path
      fill="var(--shoe-detail, #231f20)"
      stroke-width="0"
      d="m43.93,12.66c-.75.84.41,1.01,2.72,1.11.81-1.14-2.23-1.66-2.72-1.11Z"
    />
  </g>
</svg>
