<svg xmlns="http://www.w3.org/2000/svg" viewBox="0 0 68.37 48.3">
  <path
    id="Soap_shade"
    fill="var(--soap-shade, #b3d2c9)"
    stroke="var(--outline, #231f20)"
    stroke-linecap="round"
    stroke-linejoin="round"
    stroke-width="2"
    d="m1.14,15.7c.08-.79,2.18-3.74,4.67-4.05C11.1,10.83,45.99,1.41,48.98,1.05c1.25,0,3.43-.31,4.83.62s12.31,10.44,12.93,11.69.78,11.53.47,13.4-1.4,4.05-2.34,4.52-44.1,15.27-45.5,15.74c-1.4.47-5.61.47-7.32-.93S1.77,31.28,1.46,29.72s-.66-10.53-.31-14.02Z"
  />
  <path
    id="Soap_light"
    fill="var(--soap-light, #e1f4fd)"
    stroke-width="0"
    d="m1.98,15.82c-.16,2.96,8.67,15.44,12.83,17.48.6.29,2.46.51,4.43-.09,21.12-6.46,35.23-10.32,45.64-16.64,1.53-.93,1.99-2.29,1.04-3.31C61,7.97,53.79-.44,48.57,1.33c-1.09.31-42.07,10.13-43.17,10.6s-3.35,2.46-3.43,3.9Z"
  />
  <g id="Soap_details">
    <path fill="var(--soap-detail, #97c6b3)" stroke-width="0" d="m17.05,28.08c-.84-.67-1.22-2.61.33-2.47,1.28.39,2.63.93,3.98.47,1.92-.2,1.82-2.54.2-3.2-2.89-.63-6.5.93-8.51-2.19-2.89-3.64,1.03-7.57,4.97-6.25,1.15.06,2.47,2.32.85,2.59-1.41-.02-3.17-.17-3.94,1.25-.43,3.53,5.85.48,7.8,2.65,7.05,4.33.22,10.69-5.68,7.16Z"/>
    <path fill="var(--soap-detail, #97c6b3)" stroke-width="0" d="m35.88,17.4c2.48,5.1-2.97,9.02-7.35,5.95-3.44-2.16-6.98-10.33-1.19-11.51,3.65-.28,7.03,2.39,8.54,5.55Zm-2.52,4.1c2.65-3.27-3.17-10.09-6.35-6.62-1.31,3.31,2.76,9.27,6.35,6.62Z"/>
    <path fill="var(--soap-detail, #97c6b3)" stroke-width="0" d="m49.77,16.6c.42.6.07,1.29-.66,1.32-1.74-.04-2.56-1.92-4.02-2.77-1.49.43-2.99.84-4.46,1.3.25,1.18,1.16,2.28,1.2,3.48-.28,1.34-2.13.7-2.54-.26-.58-1.61-5.4-13.14-1.51-11.54,2.67,1.25,5.06,3.04,7.4,4.73.99-.63,3.66.53,2.21,1.65.82.66,1.65,1.34,2.37,2.1Zm-7-3.19c-1.2-.87-2.42-1.78-3.7-2.55.22,1.12.47,2.2.82,3.3,1.1-.31,1.82-.47,2.89-.75Z"/>
    <path fill="var(--soap-detail, #97c6b3)" stroke-width="0" d="m45.25,8.28c-.24-.49.1-1.04.68-.91,4.85-3.52,17.13,4.97,6.31,6.24,1.01,1.1,3.91,3.76.3,3.12-.64-.1-2.4-2.58-2.85-3-.76-.05-1.95-.76-1.32-1.56-.08-.13-3.07-3.74-3.13-3.89Zm5.83.03c-1.12-.19-2.06,0-2.9.58l2.62,3.07c4.31-.09,4.06-2.66.28-3.65Z"/>
  </g>
</svg>
