<svg xmlns="http://www.w3.org/2000/svg" viewBox="0 0 63.68 70.76">
  <g id="Toothbrush_light">
    <path
      fill="var(--toothbrush-light, #42bfef)"
      stroke-width="0"
      d="m34.09,31.47c-1.67.23-9.37,7.62-13.21,13.66-1.18,1.86-.3,3.42,1.83,1.8,4.62-3.53,14.29-14.33,15.69-14.95.15-.07-1.65-.62-4.31-.51Z"
    />
  </g>
  <path
    id="Toothbrush_shade"
    fill="var(--toothbrush-shade, #005e8f)"
    stroke="var(--outline, #231f20)"
    stroke-linecap="round"
    stroke-linejoin="round"
    d="m62.41,4.09c-1.09,5.04-4.54,10.5-10.03,9.82-1.61,2.2-3.23,4.52-5.23,6.34-3.48,3.98-11.3,7.36-12.93,11.29.75.53,2.15,2.06.52,2.37-.72.04-2.67-2.24-2.66-1.22.69.66,2.57,1.59,1.76,2.71-1.27,1.09-2.32-2.28-3.34-1.6.45.93,2.53,1.7,1.69,2.86-.45.47-1.07.11-1.41-.28-4.96-3.67,2.73,3.21-1.94,1.74-4.61-3.43,2.6,2.74-1.15,2.49-.48-.24-1.67-1.16-2.14-1.5-.45.71,1.26,1.55,1.37,2.47.13,1.7-1.82.71-2.46,0,.05.04.1.08.16.12-.26-.19-.64-.45-.68-.81-.73,1.13,2.76,1.96.65,3.73-1.05.07-1.5-1.05-2.37-1.44-2.31,1.99-4.56,5.1-6.96,7.35-2.57,3.4-21.02,17.08-12.53,19.75,12.61-3.5,18.82-20.63,28.43-31.06,1.45-1.57,7.03-6.85,9.28-8.96,9.02-8.45,26.66-23.69,21.99-26.17Z"
  />
  <g id="Toothbrush_details">
    <path
      fill="var(--toothbrush-detail, #e4e2cf)"
      stroke="var(--outline, #231f20)"
      stroke-linejoin="round"
      stroke-width=".5"
      d="m57.61,12.84c1.09-.96,5.68-6.88,4.84-9.08.05.37-.95-3.33-3.2-3.52.33.6.55,1,.87,1.58-4.08-2.6-.64.28-1.16,1.7-2.06-2.26-2.63-1.95-1.19.8-1.47-.27-3.03-3.19-1.7.62-2.53-1.67-1.44-.48-.75,2.19-.85-.89-1.24-1.19-2.19-1.48-.23.93.44,1.64.81,2.43-2.23-1.26-2.64-1.57-1.2,1.3-.76-.43-1.01-.98-1.84-1.21-.21,1.07.41,1.8,1,2.6-.75.61-1.68-1.86-2.42-.88,3.55,4.62-2.9-1.63.52,3.34l-1.39-.64c.19,1.59,3.55,3.48,4.33,3.5.96-.36,2.98-1.79,4.66-3.26Z"
    />
    <path
      fill="var(--toothbrush-detail-shade, #9a9787)"
      stroke-width="0"
      d="m62.37,3.77c.02.14-.12-.33-.43-.96-.09,3.7-2.86,7.42-5.51,9.64-1.93,1.63-4,3.14-6.21,2.15,1.35,1.05,2.25,1.38,2.69,1.47.96-.36,2.94-1.75,4.62-3.22,1.09-.96,5.68-6.88,4.84-9.08Z"
    />
  </g>
</svg>
