<?xml version="1.0" encoding="UTF-8"?>
<svg id="Layer_1" data-name="Layer 1" xmlns="http://www.w3.org/2000/svg" viewBox="0 0 375.12 150.88">
  <defs>
    <style>
      .cls-1, .cls-2 {
        stroke-width: 0px;
        fill: #f8fafc;
      }

      .cls-2 {
        fill: #f8fafc;
      }
    </style>
  </defs>
  <path class="cls-1" d="m139.13.07c-7.31-.03-13.8-.03-23.28-.03-5.62,0-13.01.04-16.27,9.15l-28.75,90.86c-.38,1.22-1.39,1.86-2.44,1.94-1.12,0-2.23-.66-2.64-1.95L34.13,9.17C30.36-1.37,21.61.07,15.11.07h-2.52C.36-.05-1.69,10.27,1.11,14.44c41.79,64.35,57.04,123.76,58.85,134.16.23,1.31,1.4,2.23,2.73,2.24l5.56.02v.02c1.58,0,3.15,0,4.52,0h2.36s0,0,0,0c1.02,0,1.65,0,1.65,0,1.33,0,2.5-.93,2.73-2.24.89-5.13,7.27-38.65,16.37-64.63,0,0,0-.02,0-.02.49-1.4,1.83-2.33,3.31-2.32.18,0,.35.01.53,0,47.81-2.12,57.33-40.77,63.62-64.24C168.22-.71,148.68.11,139.13.07Zm-19.83,63.7c-9.91,3.44-17.09,2.89-15.8-1.41,3.06-10.26,10.15-32.85,16.21-46.67.47-1.07,1.39-1.9,2.55-1.9,7.78,0,18.78-.57,22.02.46s5.14,3.42,3.86,8.2c-6.21,23.15-18.08,37.59-28.83,41.32Z"/>
  <g>
    <path class="cls-2" d="m181.88,133.32c0,3.17-.7,5.89-2.1,8.15-1.4,2.26-3.48,3.98-6.22,5.14-2.74,1.17-6.08,1.75-10.01,1.75s-6.96-.63-9.64-1.9c-2.68-1.26-4.66-2.84-5.93-4.74-1.28-1.9-1.91-3.8-1.91-5.71,0-1.26.41-2.34,1.22-3.24.82-.9,1.85-1.35,3.1-1.35,1.1,0,1.94.29,2.53.88.59.59,1.15,1.42,1.68,2.49,1.07,2.05,2.35,3.58,3.85,4.59s3.53,1.52,6.1,1.52c2.09,0,3.81-.51,5.15-1.54,1.34-1.02,2.01-2.2,2.01-3.52,0-2.02-.7-3.5-2.09-4.42-1.39-.93-3.68-1.81-6.87-2.65-3.6-.98-6.52-2.01-8.78-3.1-2.26-1.08-4.06-2.51-5.41-4.28-1.35-1.77-2.03-3.95-2.03-6.53,0-2.3.62-4.48,1.87-6.53,1.25-2.05,3.09-3.69,5.53-4.91,2.44-1.22,5.38-1.83,8.82-1.83,2.7,0,5.13.31,7.29.93,2.16.62,3.95,1.45,5.4,2.49,1.44,1.04,2.54,2.19,3.29,3.46.75,1.26,1.13,2.5,1.13,3.71,0,1.32-.4,2.4-1.21,3.24-.8.84-1.95,1.26-3.42,1.26-1.07,0-1.98-.34-2.74-1.01-.75-.67-1.61-1.69-2.58-3.03-.79-1.12-1.72-2.02-2.79-2.7-1.07-.67-2.53-1.01-4.36-1.01s-3.46.44-4.71,1.33c-1.25.88-1.87,1.99-1.87,3.31,0,1.21.46,2.2,1.38,2.97.92.77,2.16,1.41,3.71,1.92s3.7,1.12,6.43,1.85c3.24.87,5.89,1.91,7.94,3.12,2.05,1.21,3.61,2.63,4.67,4.28,1.06,1.64,1.59,3.52,1.59,5.63Z"/>
    <path class="cls-2" d="m191.29,102.61h1.15v-6.91c0-1.85.04-3.31.13-4.36.09-1.05.34-1.96.75-2.72.41-.79.99-1.43,1.76-1.92.77-.49,1.62-.74,2.56-.74,1.33,0,2.53.55,3.6,1.64.71.73,1.17,1.62,1.36,2.68.19,1.05.29,2.55.29,4.49v7.84h3.83c1.48,0,2.61.39,3.39,1.16.78.77,1.17,1.76,1.17,2.97,0,1.55-.55,2.63-1.66,3.24-1.11.62-2.7.93-4.76.93h-1.95v21.15c0,1.8.06,3.18.17,4.15s.42,1.76.92,2.36c.5.6,1.31.91,2.43.91.61,0,1.44-.12,2.49-.36,1.05-.24,1.86-.36,2.45-.36.84,0,1.6.37,2.28,1.12.67.74,1.01,1.66,1.01,2.76,0,1.85-.92,3.27-2.75,4.26-1.84.98-4.48,1.47-7.92,1.47-3.27,0-5.74-.6-7.42-1.81-1.68-1.21-2.79-2.88-3.31-5.01-.52-2.13-.78-4.99-.78-8.55v-22.08h-1.38c-1.51,0-2.65-.39-3.44-1.18-.79-.79-1.19-1.78-1.19-2.99s.41-2.2,1.24-2.97c.83-.77,2.03-1.16,3.62-1.16Z"/>
    <path class="cls-2" d="m245.59,141.88v-1.48c-1.25,1.74-2.57,3.2-3.94,4.38-1.38,1.18-2.88,2.06-4.52,2.63-1.63.58-3.5.86-5.59.86-2.53,0-4.79-.58-6.79-1.73-2-1.15-3.55-2.74-4.65-4.76-1.3-2.44-1.95-5.96-1.95-10.53v-22.8c0-2.3.47-4.02,1.42-5.16s2.19-1.71,3.75-1.71,2.86.58,3.83,1.73c.97,1.15,1.45,2.87,1.45,5.14v18.41c0,2.67.2,4.91.61,6.72.41,1.81,1.14,3.23,2.2,4.26,1.06,1.03,2.5,1.54,4.31,1.54s3.42-.58,4.97-1.73c1.55-1.15,2.69-2.65,3.41-4.51.59-1.63.88-5.2.88-10.7v-13.99c0-2.28.48-3.99,1.45-5.14.97-1.15,2.23-1.73,3.79-1.73s2.81.57,3.75,1.71,1.42,2.86,1.42,5.16v33.33c0,2.19-.45,3.83-1.36,4.93-.91,1.1-2.07,1.64-3.5,1.64s-2.61-.57-3.54-1.71-1.4-2.73-1.4-4.78Z"/>
    <path class="cls-2" d="m294.42,141.79v-1.14c-1.4,1.77-2.79,3.21-4.15,4.32-1.37,1.11-2.84,1.95-4.44,2.53-1.59.58-3.34.86-5.22.86-2.5,0-4.82-.58-6.95-1.75-2.13-1.17-3.97-2.83-5.53-4.99-1.56-2.16-2.74-4.7-3.54-7.63-.8-2.92-1.21-6.08-1.21-9.48,0-7.19,1.59-12.79,4.78-16.81,3.19-4.02,7.39-6.03,12.59-6.03,3.01,0,5.55.57,7.61,1.71s4.08,2.89,6.05,5.25v-16.98c0-2.36.43-4.14,1.28-5.35.86-1.21,2.07-1.81,3.65-1.81s2.8.56,3.65,1.66c.86,1.11,1.28,2.75,1.28,4.91v50.73c0,2.19-.46,3.83-1.38,4.93s-2.1,1.64-3.56,1.64-2.61-.57-3.54-1.71c-.93-1.14-1.4-2.76-1.4-4.87Zm-20.55-16.9c0,3.12.44,5.77,1.32,7.96s2.09,3.84,3.62,4.95c1.53,1.11,3.2,1.66,5.01,1.66s3.51-.53,5.03-1.58,2.73-2.67,3.64-4.85c.9-2.18,1.36-4.89,1.36-8.15,0-3.06-.45-5.69-1.36-7.9-.91-2.21-2.13-3.89-3.67-5.06s-3.23-1.75-5.07-1.75-3.62.6-5.13,1.79c-1.51,1.19-2.67,2.91-3.5,5.14-.83,2.23-1.24,4.82-1.24,7.77Z"/>
    <path class="cls-2" d="m320.06,96.24c-1.45,0-2.7-.49-3.73-1.47s-1.55-2.37-1.55-4.17c0-1.63.53-2.97,1.59-4.02,1.06-1.05,2.29-1.58,3.69-1.58s2.55.48,3.6,1.43c1.05.96,1.57,2.35,1.57,4.17s-.51,3.15-1.53,4.15c-1.02,1-2.23,1.5-3.64,1.5Zm5.17,11.88v33.24c0,2.3-.5,4.04-1.49,5.22s-2.26,1.77-3.79,1.77-2.77-.6-3.73-1.81c-.96-1.21-1.43-2.93-1.43-5.18v-32.91c0-2.28.48-3.99,1.43-5.14.96-1.15,2.2-1.73,3.73-1.73s2.79.58,3.79,1.73c.99,1.15,1.49,2.75,1.49,4.8Z"/>
    <path class="cls-2" d="m375.12,124.98c0,3.43-.49,6.59-1.45,9.48-.97,2.89-2.37,5.38-4.21,7.46-1.84,2.08-4.03,3.67-6.58,4.78s-5.42,1.66-8.61,1.66-6.01-.56-8.53-1.69c-2.53-1.12-4.71-2.73-6.56-4.82-1.85-2.09-3.25-4.56-4.21-7.42-.96-2.85-1.43-6-1.43-9.46s.48-6.67,1.45-9.56c.97-2.89,2.36-5.36,4.17-7.42,1.81-2.05,4-3.63,6.58-4.74,2.58-1.11,5.42-1.66,8.53-1.66s6.03.56,8.61,1.69c2.58,1.12,4.78,2.73,6.62,4.8,1.84,2.08,3.23,4.55,4.19,7.42s1.43,6.03,1.43,9.48Zm-10.49,0c0-4.69-.94-8.34-2.81-10.96-1.88-2.61-4.39-3.92-7.56-3.92-2.04,0-3.84.58-5.4,1.75s-2.75,2.89-3.6,5.16c-.84,2.27-1.26,4.93-1.26,7.96s.41,5.63,1.24,7.88c.83,2.25,2.01,3.97,3.56,5.16,1.54,1.19,3.36,1.79,5.45,1.79,3.16,0,5.68-1.31,7.56-3.94,1.87-2.63,2.81-6.26,2.81-10.89Z"/>
  </g>
</svg>
