<svg xmlns="http://www.w3.org/2000/svg" viewBox="258.3714 176.60785 62.01755 61.93792" aria-hidden="true">
  <path d="m280.4,181.85c14.99,1.58,26.84,8.45,34.43,21.8,2.02,3.56.22,10.32-1.89,13.65-7.16,11.3-22.46,17.69-34.33,11.64-12.75-6.5-18.51-27.22-14.86-37.94,1.75-5.15,9.24-9.03,16.65-9.15Z" fill="currentColor" />
  <g id="CatToken">
      <g id="CatShade" class="fill-cat-shade stroke-outline round stroke-2">
        <path d="m307.06,197.41c.72-8.75,1.55-18.25,1.55-18.25,0,0-6.73,6.23-10.64,9.96l9.09,8.29Z" />
        <polygon points="272.88 196.46 271.46 179.07 282.1 189.03 272.88 196.46 272.88 196.46" />
      </g>
      <path id="CatLight" class="fill-cat-light stroke-outline miter stroke-2" d="m308.62,205.02c0,9.93-7.48,17.98-18.33,17.98s-19.65-8.05-19.65-17.98,8.8-17.98,19.65-17.98,18.33,8.05,18.33,17.98Z" />
      <g id="CatFace">
        <g id="CatEyeRight">
          <path id="EyeAccentLightRight" class="fill-accent-light stroke-0" d="m296.71,198.28c-7.88.52-3.98,9.27,1.99,6.64,2.57-1.02,3.17-7-1.99-6.64Z" />
          <path id="EyeAccentShadeRight" class="fill-accent-shade stroke-0" d="m293.36,198.96c-1.1.1-1.31,5.23.05,5.77,1.53.73,5.56.95,6.21-.42.12-.43-4.03-1.65-4.14-2.06-.1-.36-.82-3.42-2.12-3.3Z" />
          <path class="fill-black stroke-0" d="m296.06,200.82c-.79.1-1.13,2.02-.16,2.57.18.1.35.17.56.15.27-.03.43-.25.61-.42.31-.31.34-.8.26-1.21-.07-.36-.34-1.21-1.28-1.09Z" />
          <circle class="fill-white stroke-0" cx="298.02" cy="199.57" r="1.27" />
          <path class="fill-black stroke-0" d="m296.26,206.1c-2.63,0-4.53-1.73-4.53-4.11,0-2.61,2.5-4.02,4.86-4.02,2.56,0,4.21,1.58,4.21,4.02s-1.91,4.11-4.54,4.11Zm.33-7.25c-1.98,0-3.98,1.08-3.98,3.14,0,1.9,1.5,3.23,3.65,3.23s3.67-1.33,3.67-3.23-1.25-3.14-3.34-3.14Z" />
        </g>
        <g id="CatEyeLeft">
          <path id="EyeAccentLightLeft" class="fill-accent-light stroke-0" d="m281.63,198.28c-7.88.52-3.98,9.27,1.99,6.64,2.57-1.02,3.17-7-1.99-6.64Z" />
          <path id="EyeAccentShadeLeft" class="fill-accent-shade stroke-0" d="m278.28,198.96c-1.1.1-1.31,5.23.05,5.77,1.53.73,5.56.95,6.21-.42.12-.43-4.03-1.65-4.14-2.06-.1-.36-.82-3.42-2.12-3.3Z" />
          <path class="fill-black stroke-0" d="m280.95,200.37c-.79.1-1.13,2.02-.16,2.57.18.1.35.17.56.15.27-.03.43-.25.61-.42.31-.31.34-.8.26-1.21-.07-.36-.34-1.21-1.28-1.09Z" />
          <circle class="fill-white stroke-0" cx="283.62" cy="199.31" r="1.27" />
          <path class="fill-black stroke-0" d="m281.43,205.78c-2.74,0-4.72-1.8-4.72-4.28,0-2.66,2.78-3.87,5.36-3.87s4.09,1.34,4.09,3.87-1.99,4.28-4.72,4.28Zm.63-7.28c-2.16,0-4.48.94-4.48,2.99s1.58,3.41,3.85,3.41,3.85-1.4,3.85-3.41-1.02-2.99-3.21-2.99Z" />
        </g>
        <g id="Whiskers" class="fill-none stroke-outline miter stroke-1">
          <line x1="262.05" y1="217.48" x2="278.98" y2="210.16" />
          <line x1="262.93" y1="223.64" x2="278.1" y2="213.22" />
          <line x1="270.17" y1="227.38" x2="279.91" y2="214.19" />
          <line x1="308.52" y1="224.77" x2="295.95" y2="214.94" />
          <line x1="313.02" y1="220.61" x2="298.12" y2="212.92" />
          <line x1="315.74" y1="214.29" x2="298.19" y2="210.82" />
        </g>
        <ellipse id="CatShadeNose" class="fill-cat-shade stroke-outline miter stroke-1" cx="288.5" cy="210.73" rx="3.05" ry="2.56" />
        <path id="CatSmile" class="fill-black stroke-0" d="m293.66,217.47c.34-.49-.2-1.07-.64-.44-.87,1.23-2.04,1.47-3.19.7-1.28-.95-1.07-2.73-1.19-4.14,0-.56-.88-.57-.88,0,.02,1.38-.02,2.96-.89,4.1-.98.99-2.4.36-3.03-.72-.4-.67-1.39-.5-.55.79,1.24,1.91,4.44,1.58,4.93-.78,1.07,2.44,3.92,2.74,5.45.49Z" />
      </g>
    </g>
  <g id="answer-paw-cat" class="fill-answer-paw stroke-outline round stroke-1">
      <path d="m290.61,182.21c3.42,1.24,8.75,4.25,6.36,8.87-1.37,2.65-5.09,7.7-7.83,6.35-5.07-3.19-11.15-8.91-4.05-13.69,1.54-1.03,3.62-1.87,5.52-1.53Z" />
      <path d="m292.33,225.46c-6.31-.41-14.94-1.55-14.17-9.34.48-6.69,4.09-13.52,11.15-15.04,7.88-1.52,13.45,5.65,16.55,11.83,4.3,8.73-7.14,12.16-13.53,12.55Z" />
      <path d="m271.55,205.99c-10.43.75-7.74-17.24,4.01-14.05,3.11.64,3.44,3.42,3.79,5.89,1,7.04.04,8-7.8,8.16Z" />
      <path d="m309.15,187.86c4.29-.04,7.53,3.53,7.5,8.28-.02,3.11-5.66,6.85-10.36,6.87-1.64,0-4.7-6.21-4.73-9.61-.03-3.25,3.04-5.5,7.6-5.54Z" />
    </g>
</svg>
