<svg xmlns="http://www.w3.org/2000/svg" viewBox="258.3714 115.16582 62.01755 61.93792" aria-hidden="true">
  <path d="m269.71,165.14c-5.54-14.02-4.92-27.7,3.4-40.61,2.22-3.44,9.05-4.97,12.98-4.64,13.33,1.12,26.07,11.73,26.2,25.05.14,14.31-15.57,29-26.76,30.73-5.37.83-12.28-4.01-15.82-10.53Z" fill="currentColor" />
  <g id="MouseToken">
      <g id="MouseLight" class="fill-mouse-light stroke-outline miter stroke-2">
        <path d="m277.87,143.88c2.19-3.11,3.28-6.98,2.59-10.67-2.7-5.42-12.79-4.65-15.68.29-2.05,4.87-1.86,11.37,3.52,13.87,4.08.89,6.41.98,9.56-3.5Z" />
        <path d="m300.19,136.3c-1.29-3.11-2.99-7.19-.82-10.36,2.69-3.33,9.1-3.37,11.37.52,7.41,8.12-4.87,18.22-10.55,9.84Z" />
        <path d="m278.26,143.62c4.39-6.26,18.48-11.8,22.87-5.15.02,4.3-1.41,10.18-2.22,14.61-2.7,14.64-3.23,11.34-20.65-9.46Z" />
      </g>
      <g id="MouseFace">
        <ellipse class="fill-black stroke-0" cx="295.64" cy="161.92" rx="3.03" ry="2.54" transform="translate(-9.95 19.66) rotate(-3.75)" />
        <ellipse class="fill-black stroke-0" cx="288.57" cy="146.88" rx="2.2" ry="2.14" transform="translate(-8.98 19.16) rotate(-3.75)" />
        <path class="fill-white stroke-0" d="m288.7,145.37c-.79.17-.7,2.26.46,2.11.99-.34.89-2.24-.46-2.11Z" />
        <ellipse class="fill-black stroke-0" cx="296.23" cy="144.45" rx="2.2" ry="2.14" transform="translate(-8.8 19.66) rotate(-3.75)" />
        <path class="fill-white stroke-0" d="m296.36,142.94c-.79.17-.7,2.26.46,2.11.99-.34.89-2.24-.46-2.11Z" />
        <g id="MouseWhiskers" class="fill-none stroke-outline miter stroke-1">
          <line x1="290.45" y1="158.97" x2="276.63" y2="164.47" />
          <line x1="289.56" y1="157.8" x2="275" y2="160.86" />
          <line x1="298.83" y1="155.14" x2="313.31" y2="151.74" />
          <line x1="298.32" y1="156.73" x2="313.13" y2="155.39" />
        </g>
      </g>
    </g>
  <g id="answer-paw-mouse" class="fill-answer-paw stroke-outline round stroke-1">
      <path d="m290.61,121.41c3.42,1.24,8.75,4.25,6.36,8.87-1.37,2.65-5.09,7.7-7.83,6.35-5.07-3.19-11.15-8.91-4.05-13.69,1.54-1.03,3.62-1.87,5.52-1.53Z" />
      <path d="m292.33,164.66c-6.31-.41-14.94-1.55-14.17-9.34.48-6.69,4.09-13.52,11.15-15.04,7.88-1.52,13.45,5.65,16.55,11.83,4.3,8.73-7.14,12.16-13.53,12.55Z" />
      <path d="m271.55,145.19c-10.43.75-7.74-17.24,4.01-14.05,3.11.64,3.44,3.42,3.79,5.89,1,7.04.04,8-7.8,8.16Z" />
      <path d="m309.15,127.05c4.29-.04,7.53,3.53,7.5,8.28-.02,3.11-5.66,6.85-10.36,6.87-1.64,0-4.7-6.21-4.73-9.61-.03-3.25,3.04-5.5,7.6-5.54Z" />
    </g>
</svg>
