<svg xmlns="http://www.w3.org/2000/svg" viewBox="258.3714 296.10758 62.01755 61.93792" aria-hidden="true">
  <path d="m280.99,301.72c14.94,1.99,26.59,9.19,33.81,22.74,1.92,3.61-.06,10.32-2.27,13.6-7.47,11.1-22.94,17.06-34.64,10.68-12.56-6.85-17.75-27.72-13.81-38.34,1.89-5.1,9.49-8.77,16.9-8.68Z" fill="currentColor" />
  <g id="BallToken">
      <circle id="BallLight" class="fill-ball-light stroke-outline miter stroke-2" cx="289.98" cy="322.38" r="18.32" />
      <g id="BallShade">
        <path class="fill-ball-shade stroke-0" d="m307.7,326.23c-11.93,1.7-25.16-1.04-31.55-15.36,0,0-3.63,3.94-4.15,9.86,1.33,10.31,17.13,18.79,30.52,15.26,4.57-5.09,5.19-9.76,5.19-9.76Z" />
        <path class="fill-black stroke-0" d="m307.56,325.75c-9.25,1.3-19.24-.3-25.91-7.35-2.15-2.27-3.8-4.94-5.08-7.78-.13-.29-.58-.32-.79-.1-2.18,2.38-3.61,5.7-4.12,8.84-.09.53-.22,1.11-.14,1.64.07.5.18.99.31,1.48.24.87.59,1.72,1,2.53.89,1.75,2.14,3.32,3.55,4.68,6.59,6.35,16.95,9.04,25.81,6.89.38-.09.57-.14.83-.42.29-.32.57-.66.84-1,.5-.63.98-1.28,1.41-1.95.71-1.08,1.32-2.23,1.83-3.42.46-1.08.91-2.25,1.07-3.42.09-.63-.88-.9-.96-.27-.11.84-.39,1.68-.69,2.47-.79,2.12-1.97,4.11-3.37,5.88-.22.28-.44.56-.68.82s-.37.31-.72.39c-.56.13-1.13.24-1.7.34-1.15.19-2.32.28-3.49.3-2.25.04-4.49-.2-6.68-.69-4.15-.94-8.19-2.75-11.48-5.46-2.8-2.3-5.19-5.36-5.85-9.01-.22-1.25.29-2.78.67-3.97.36-1.12.83-2.19,1.4-3.22.53-.96,1.13-1.92,1.87-2.74l-.79-.1c2.22,4.94,5.67,9.28,10.34,12.1,4.1,2.48,8.86,3.66,13.62,3.91,2.73.14,5.45-.04,8.15-.42.63-.09.36-1.05-.27-.96Z" />
      </g>
      <g id="BallAccentColor">
        <path class="fill-accent-light stroke-0" d="m306.81,328.32c-13.58,2.37-26.35-2.32-31.73-16.19,0,0-1.95,2.81-2.81,5.74,1.34,10.38,16.83,20.35,31.24,16.32,3.05-3.66,3.3-5.86,3.3-5.86Z" />
        <path class="fill-black stroke-0" d="m306.68,327.84c-4.93.85-10.06.82-14.88-.58-4.56-1.32-8.65-3.91-11.72-7.54-1.93-2.29-3.41-4.94-4.5-7.72-.16-.41-.66-.49-.91-.12-.81,1.17-1.5,2.45-2.07,3.75-.22.49-.42.99-.59,1.5-.18.54-.21.88-.11,1.43.13.75.34,1.49.6,2.2,1.2,3.26,3.47,6.05,6.12,8.25,6.24,5.19,14.81,7.62,22.82,6.17.62-.11,1.23-.25,1.84-.41.64-.17.88-.56,1.28-1.07.69-.89,1.32-1.82,1.84-2.82.41-.79.83-1.66.93-2.55.08-.64-.93-.63-1,0,.02-.16.02-.1,0,0-.03.13-.06.25-.09.38-.13.45-.31.88-.51,1.31-.36.75-.8,1.47-1.27,2.16-.3.44-.61.88-.96,1.29-.36.43-.91.47-1.44.58-3.86.85-7.91.71-11.74-.25-6.62-1.65-13.38-5.86-16.38-12.2-.35-.75-.64-1.53-.85-2.34-.1-.4-.24-.84-.26-1.25-.02-.47.31-1.08.49-1.52.59-1.43,1.34-2.84,2.23-4.11l-.91-.12c1.93,4.93,5.03,9.32,9.39,12.39,4.08,2.86,8.97,4.34,13.92,4.68,3.02.21,6.05-.01,9.03-.52.63-.11.36-1.07-.27-.96Z" />
      </g>
      <g id="BallHighlight">
        <path class="fill-white stroke-0" d="m304.19,315.86c-.18-.01-.11.67-.09,1.03.04.49.04.67.19,1,.18.39.23.59.33,1.2.12.71.21,1.48.41,2.06.18.51.25-.28.3-.71.06-.56.08-1.12-.05-1.75-.06-.29-.15-.5-.21-.78-.06-.25-.1-.52-.17-.76s-.15-.38-.23-.57c-.08-.17-.13-.42-.49-.73Z" />
        <path class="fill-white stroke-0" d="m303.44,317.43c-.16-.02-.15.47-.15.73,0,.36,0,.48.11.73.14.29.17.43.23.88.06.52.09,1.07.24,1.5.13.38.25-.19.32-.49.1-.4.15-.8.08-1.26-.03-.21-.1-.37-.14-.57-.04-.19-.05-.38-.1-.55s-.11-.28-.17-.42c-.06-.13-.09-.31-.4-.55Z" />
      </g>
    </g>
  <g id="answer-paw-ball" class="fill-answer-paw stroke-outline round stroke-1">
      <path d="m290.61,303.81c3.42,1.24,8.75,4.25,6.36,8.87-1.37,2.65-5.09,7.7-7.83,6.35-5.07-3.19-11.15-8.91-4.05-13.69,1.54-1.03,3.62-1.87,5.52-1.53Z" />
      <path d="m292.33,347.06c-6.31-.41-14.94-1.55-14.17-9.34.48-6.69,4.09-13.52,11.15-15.04,7.88-1.52,13.45,5.65,16.55,11.83,4.3,8.73-7.14,12.16-13.53,12.55Z" />
      <path d="m271.55,327.6c-10.43.75-7.74-17.24,4.01-14.05,3.11.64,3.44,3.42,3.79,5.89,1,7.04.04,8-7.8,8.16Z" />
      <path d="m309.15,309.46c4.29-.04,7.53,3.53,7.5,8.28-.02,3.11-5.66,6.85-10.36,6.87-1.64,0-4.7-6.21-4.73-9.61-.03-3.25,3.04-5.5,7.6-5.54Z" />
    </g>
</svg>
