<svg xmlns="http://www.w3.org/2000/svg" viewBox="258.3714 235.14954 62.01755 61.93792" aria-hidden="true">
  <path d="m264.51,275.71c1.47-15,8.26-26.9,21.55-34.59,3.54-2.05,10.32-.3,13.67,1.79,11.35,7.08,17.85,22.33,11.89,34.25-6.4,12.79-27.08,18.7-37.84,15.14-5.16-1.71-9.1-9.18-9.27-16.59Z" fill="currentColor" />
  <g id="CheeseToken">
      <path id="CheeseShade" class="fill-cheese-shade stroke-outline miter stroke-2" d="m311.37,251.81c-.53,0-39.7,11.42-40.05,11.59-.35.18-.72,19.65,0,20.38.2.2,5.5-1.23,12.12-3.13.01-.26.06-.53.17-.8.24-.56.98-.99,1.52-.98.64,0,1.19-.09,1.69.44.09.09.14.2.17.32,10.58-3.08,22.68-6.79,22.98-7.09.53-.53,1.93-20.73,1.41-20.73Z" />
      <polygon id="CheeseLight" class="fill-cheese-light stroke-outline round stroke-2" points="271.38 263.22 289.71 245.12 311.12 251.75 271.38 263.22" />
      <g id="CheeseHoles" class="fill-black stroke-0">
        <path d="m292.73,250.37c-1.05.18-1.3.87-1.24,1.15.1.93,1.77.95,3.17.87,3.27-.12,3.26-3.03-1.93-2.02Z" />
        <path d="m294.6,266.74c-1.03.94-1.5,4.12.97,4.22,4.8.98,3.73-7.97-.97-4.22Z" />
        <path d="m279.77,266.27c-3.37.09-4.41,5.35-.49,5.62,4.13,1.38,5.24-6.53.49-5.62Z" />
        <path d="m283.53,256.09c-1.07.91-.36,1.76.88,1.3,2.64-1.27.98-2.31-.88-1.3Z" />
        <path d="m303.8,255.68c-1.27-.13-2.77.74-2.96,1.46-1.15,6.69,10.82-.09,2.96-1.46Z" />
      </g>
    </g>
  <g id="answer-paw-cheese" class="fill-answer-paw stroke-outline round stroke-1">
      <path d="m292.33,286.26c-6.31-.41-14.94-1.55-14.17-9.34.48-6.69,4.09-13.52,11.15-15.04,7.88-1.52,13.45,5.65,16.55,11.83,4.3,8.73-7.14,12.16-13.53,12.55Z" />
      <path d="m271.55,266.79c-10.43.75-7.74-17.24,4.01-14.05,3.11.64,3.44,3.42,3.79,5.89,1,7.04.04,8-7.8,8.16Z" />
      <path d="m309.15,248.66c4.29-.04,7.53,3.53,7.5,8.28-.02,3.11-5.66,6.85-10.36,6.87-1.64,0-4.7-6.21-4.73-9.61-.03-3.25,3.04-5.5,7.6-5.54Z" />
      <path d="m290.61,243.01c3.42,1.24,8.75,4.25,6.36,8.87-1.37,2.65-5.09,7.7-7.83,6.35-5.07-3.19-11.15-8.91-4.05-13.69,1.54-1.03,3.62-1.87,5.52-1.53Z" />
    </g>
</svg>
