<svg xmlns="http://www.w3.org/2000/svg" viewBox="0 0 288 431.15">
  <g id="Details">
    <rect width="288" height="431.15" class="fill-none stroke-0"/>
  </g>
  <g id="Ball">
    <g id="Ball_light">
      <circle cx="144.67" cy="199.31" r="84.03" class="fill-ball-light stroke-outline miter stroke-3"/>
    </g>
    <g id="Ball_shade">
      <g>
        <path d="m225.83,215.41c-55.1,7.84-116.25-4.81-145.78-70.97,0,0-16.78,18.22-19.18,45.56,6.16,47.62,79.12,86.8,140.98,70.49,21.1-23.5,23.98-45.08,23.98-45.08Z" class="fill-ball-shade stroke-0"/>
        <path d="m225.56,214.45c-10.72,1.52-21.57,2.24-32.4,1.97s-21.59-1.55-32.1-4.11c-10.51-2.56-20.7-6.4-30.15-11.67-9.85-5.49-18.81-12.49-26.53-20.71-8.7-9.25-15.75-19.95-21.3-31.35-.75-1.53-1.46-3.08-2.16-4.63-.26-.58-1.17-.64-1.57-.2-3.01,3.27-5.53,7.11-7.79,10.91-5.27,8.85-9.07,18.64-10.83,28.8-.26,1.53-.48,3.06-.66,4.6-.08.69-.23,1.44-.17,2.13.04.57.16,1.14.25,1.7.33,2.04.78,4.06,1.34,6.05,1.15,4.05,2.75,7.97,4.69,11.69,4.15,7.97,9.88,15.09,16.38,21.27,7.12,6.78,15.22,12.52,23.82,17.27,9.15,5.06,18.91,9.03,28.97,11.88,10.36,2.94,21.07,4.69,31.82,5.11,10.86.42,21.8-.54,32.38-3.05.63-.15,1.25-.3,1.88-.46.3-.08.67-.12.94-.28.42-.26.75-.77,1.07-1.13,1.18-1.35,2.34-2.72,3.46-4.12,2.07-2.58,4.03-5.24,5.87-7.99,3.06-4.56,5.78-9.36,8.08-14.35,2.53-5.5,4.74-11.32,5.82-17.3.06-.35.12-.69.16-1.04.07-.54-.51-.99-1-1-.6,0-.93.47-1,1,.07-.55.02-.14,0-.02-.04.21-.07.41-.11.62-.15.82-.33,1.63-.53,2.43-.72,2.97-1.66,5.88-2.74,8.73-3.82,10.08-9.5,19.49-16.27,27.86-1.1,1.36-2.23,2.7-3.39,4.01-.25.28-.36.47-.68.6-.29.12-.63.16-.94.24-.66.17-1.33.33-2,.48-2.63.6-5.27,1.11-7.93,1.52-5.22.81-10.49,1.24-15.77,1.34-10.59.2-21.18-.95-31.5-3.3-10.05-2.28-19.86-5.68-29.14-10.16-8.79-4.24-17.16-9.44-24.67-15.68-6.91-5.74-13.16-12.37-18.04-19.94-4.45-6.9-7.71-14.58-9.04-22.72-.07-.44-.18-.9-.2-1.35-.04-.75.13-1.57.22-2.32.18-1.49.4-2.98.67-4.45.52-2.84,1.2-5.66,2.02-8.43,1.43-4.81,3.31-9.47,5.58-13.95,2.72-5.36,6.02-10.67,9.81-15.13.19-.22.38-.45.58-.66l-1.57-.2c5.34,11.93,12.19,23.19,20.77,33.06,7.58,8.72,16.49,16.27,26.36,22.27s19.66,10,30.26,12.93,21.52,4.52,32.48,5.06,22.01.01,32.92-1.34c1.37-.17,2.74-.35,4.11-.55.54-.08.82-.76.7-1.23-.15-.58-.7-.77-1.23-.7Z" class="fill-black stroke-0"/>
      </g>
    </g>
    <g id="Ball_accent_color">
      <g>
        <path d="m221.99,225.96c-62.33,10.86-122.53-8.76-147.22-72.41,0,0-9.11,12.95-11.51,28.29,8.63,46.04,82.84,88.09,144.82,71.45,10.43-15.97,13.91-27.33,13.91-27.33Z" class="fill-accent-light stroke-0"/>
        <path d="m221.86,225.48c-11.84,2.06-23.88,3.07-35.9,2.76-11.41-.3-22.8-1.8-33.83-4.77s-21.01-7.16-30.48-12.93-18.16-13.14-25.46-21.62c-7.94-9.23-14.27-19.77-19.07-30.94-.65-1.51-1.27-3.03-1.86-4.56-.16-.41-.66-.49-.91-.12-3.18,4.53-5.68,9.66-7.72,14.78-.91,2.29-1.72,4.63-2.38,7.01-.35,1.25-.66,2.52-.93,3.79-.22,1.06-.67,2.35-.46,3.43.64,3.28,1.6,6.5,2.83,9.61,2.6,6.62,6.32,12.73,10.7,18.32,4.84,6.19,10.49,11.73,16.6,16.66,6.52,5.27,13.57,9.87,20.97,13.81s15.83,7.53,24.17,10.2,17.25,4.64,26.11,5.69c8.91,1.06,17.94,1.2,26.87.29,4.43-.45,8.84-1.16,13.19-2.15,1.1-.25,2.19-.52,3.28-.8.57-.15.82-.19,1.15-.67.43-.64.84-1.3,1.25-1.95,1.46-2.31,2.86-4.67,4.2-7.05,3.1-5.55,5.98-11.34,8.07-17.36.09-.27.19-.54.27-.82.19-.62-.78-.88-.96-.27-1.26,4.11-3.14,8.08-5.05,11.91-2.21,4.44-4.66,8.76-7.3,12.96-.36.56-.71,1.13-1.08,1.69-.21.32-.25.43-.58.55-.29.11-.61.16-.9.23-1.05.27-2.11.52-3.17.75-2.16.48-4.33.89-6.51,1.23-8.74,1.38-17.65,1.67-26.48,1.05s-17.58-2.15-26.11-4.48-16.56-5.32-24.39-9.08-14.8-7.89-21.57-12.83c-6.36-4.64-12.3-9.89-17.54-15.77-4.77-5.35-8.96-11.26-12.13-17.7-1.49-3.02-2.74-6.16-3.7-9.39-.46-1.56-.86-3.15-1.17-4.74-.21-1.06.28-2.42.51-3.46.28-1.27.6-2.53.96-3.77,2.04-7.09,5.21-13.95,9.22-20.15.22-.34.44-.68.68-1.02l-.91-.12c4.53,11.65,10.58,22.7,18.35,32.5,7.05,8.89,15.47,16.66,24.93,22.94,9.31,6.19,19.58,10.89,30.26,14.15s22.32,5.18,33.74,5.79c12.06.64,24.18-.09,36.12-1.9,1.48-.22,2.96-.47,4.44-.72.63-.11.36-1.07-.27-.96Z" class="fill-black stroke-0"/>
      </g>
    </g>
    <g id="Ball_highlights">
      <g>
        <path d="m210.05,168.73c-.81-.05-.52,3.02-.39,4.65.17,2.23.19,3.03.88,4.52.81,1.76,1.04,2.66,1.51,5.41.55,3.21.93,6.67,1.85,9.31.81,2.32,1.12-1.28,1.34-3.19.29-2.53.37-5.05-.21-7.89-.27-1.32-.67-2.26-.97-3.53-.27-1.15-.44-2.33-.75-3.43-.32-1.14-.66-1.7-1.04-2.59-.34-.79-.59-1.88-2.22-3.28Z" class="fill-white stroke-0"/>
        <path d="m206.63,175.82c-.74-.08-.68,2.14-.68,3.32,0,1.61-.03,2.19.5,3.29.63,1.31.78,1.96,1.02,3.96.29,2.33.4,4.84,1.07,6.78.59,1.71,1.12-.86,1.45-2.22.44-1.8.68-3.6.35-5.67-.16-.96-.46-1.65-.65-2.58-.17-.84-.25-1.7-.46-2.5s-.49-1.26-.78-1.91c-.26-.59-.41-1.38-1.83-2.47Z" class="fill-white stroke-0"/>
      </g>
    </g>
  </g>
</svg>