<svg xmlns="http://www.w3.org/2000/svg" viewBox="0 0 148.65 66.82" aria-hidden="true"><g transform="translate(-172.25 -51.96)"><g id="TopRightCorner">
    <path id="CornerBackgroundTopRight" class="fill-board-light stroke-0" d="m321.37,51.96h-149.12v33.3h53.98c18.35,0,33.36,15.01,33.36,33.36v.16h61.78V51.96Z" />
    <g id="DecorativePawsTopRight" pointer-events="none" class="fill-board-dark stroke-0">
      <g>
        <path d="m185.26,67.06c1.53,1.55,2.83.45,4.02-.52.75-.61,1.33-1.41,1.59-1.7,1.17-1.85,1.69-3.21-.04-4.28-1.61-.99-4.53-.58-5.86.75-1.23,1.23-1.11,4.34.29,5.75Z" />
        <path d="m183.71,57.06c-.43-.47-2.72-1.14-3.68.26s.51,3.21,1.04,3.39c.92.31,2.66.11,3.1-.53.47-.68.16-2.44-.46-3.12Z" />
        <path d="m186.46,58.76c.62.41,2.35.06,2.84-.56.45-.57.36-2.1-.21-2.95-.18-.27-.53-.44-.85-.46-.91-.04-2.23.55-2.39,1.1-.26.87,0,2.46.61,2.86Z" />
        <path d="m182.31,62.43c-.56-.46-2.1-.4-2.96.15-.26.16-.46.49-.46.8,0,1.05.87,2.09,1.66,2.6.49.32,2.31-.24,2.37-.61.17-.96.03-2.42-.61-2.94Z" />
      </g>
      <g>
        <path d="m180.55,77.55c.86-.31.67-1,.51-1.62-.1-.39-.3-.75-.37-.9-.5-.77-.92-1.21-1.63-.73-.66.44-1.02,1.62-.75,2.36.25.68,1.46,1.18,2.24.9Z" />
        <path d="m176.48,76.38c-.25.08-.91.83-.55,1.44s1.31.37,1.47.2c.28-.3.51-.99.34-1.27-.18-.3-.9-.49-1.27-.37Z" />
        <path d="m177.6,75.63c.26-.17.44-.88.29-1.18-.14-.27-.74-.5-1.16-.44-.13.02-.26.12-.32.24-.18.34-.18.94,0,1.1.28.25.93.43,1.2.27Z" />
        <path d="m178.27,77.86c-.28.13-.52.73-.46,1.15.02.13.1.26.22.32.4.18.95.03,1.28-.17.21-.13.32-.92.19-1.01-.33-.23-.92-.44-1.23-.29Z" />
      </g>
      <g>
        <path d="m253.31,60.02c.64.65,1.18.2,1.69-.21.31-.25.56-.59.67-.71.5-.77.72-1.34,0-1.79-.67-.42-1.89-.26-2.46.3-.52.51-.48,1.82.11,2.41Z" />
        <path d="m252.7,55.82c-.18-.2-1.14-.49-1.54.1s.2,1.35.43,1.42c.39.13,1.11.05,1.3-.22.2-.28.07-1.02-.19-1.31Z" />
        <path d="m253.84,56.54c.26.17.99.03,1.19-.22.19-.24.16-.88-.08-1.24-.07-.11-.22-.19-.35-.19-.38-.02-.93.22-1.01.46-.11.36,0,1.03.25,1.2Z" />
        <path d="m252.09,58.07c-.23-.2-.88-.17-1.24.06-.11.07-.2.2-.2.33,0,.44.36.88.69,1.1.21.14.97-.09,1-.25.08-.4.02-1.01-.25-1.23Z" />
      </g>
      <g>
        <path d="m200.05,61.81c1.02.71,1.64-.04,2.21-.72.36-.42.6-.94.72-1.12.47-1.17.62-1.98-.47-2.41-1.01-.39-2.61.14-3.23,1.03-.57.82-.17,2.56.76,3.21Z" />
        <path d="m198.13,56.33c-.29-.22-1.65-.36-2.05.53s.62,1.76.94,1.8c.55.08,1.51-.22,1.69-.63.19-.43-.16-1.39-.59-1.71Z" />
        <path d="m199.86,57c.39.16,1.33-.21,1.54-.61.19-.37-.02-1.22-.43-1.64-.13-.13-.34-.2-.53-.17-.52.07-1.2.54-1.23.87-.06.52.26,1.39.64,1.55Z" />
        <path d="m197.9,59.5c-.37-.2-1.23,0-1.66.39-.13.12-.21.32-.18.5.11.59.71,1.09,1.21,1.29.31.13,1.28-.37,1.28-.59,0-.56-.24-1.37-.65-1.6Z" />
      </g>
      <g>
        <path d="m225.2,62.91c1.46-.62,1.06-1.8.73-2.87-.21-.67-.6-1.28-.73-1.54-.94-1.29-1.72-2.01-2.91-1.12-1.11.83-1.61,2.91-1.07,4.18.5,1.17,2.65,1.92,3.98,1.35Z" />
        <path d="m218,61.27c-.43.17-1.51,1.54-.81,2.57s2.32.52,2.58.21c.46-.54.79-1.77.47-2.25-.33-.5-1.61-.77-2.24-.52Z" />
        <path d="m219.89,59.86c.44-.31.67-1.58.39-2.08-.27-.46-1.33-.81-2.06-.65-.23.05-.44.24-.54.45-.28.61-.23,1.66.11,1.92.52.41,1.67.66,2.11.35Z" />
        <path d="m221.26,63.67c-.47.26-.83,1.32-.69,2.05.04.22.21.45.42.53.71.28,1.65-.03,2.21-.43.35-.25.46-1.63.23-1.77-.6-.38-1.64-.67-2.16-.38Z" />
      </g>
      <g>
        <path d="m214.45,74.35c2.5-2.03,1.08-4.1-.18-6-.78-1.19-1.88-2.17-2.27-2.59-2.56-2-4.47-2.97-6.3-.57-1.7,2.23-1.53,6.58.23,8.74,1.63,2,6.23,2.27,8.51.42Z" />
        <path d="m199.5,75.14c-.75.57-2.08,3.83-.16,5.45s4.81-.27,5.15-1.03c.6-1.31.55-3.9-.33-4.64-.93-.79-3.57-.6-4.66.22Z" />
        <path d="m202.4,71.35c.69-.85.44-3.46-.4-4.26-.77-.75-3.04-.84-4.37-.12-.42.22-.73.71-.8,1.18-.2,1.33.47,3.36,1.27,3.69,1.24.51,3.62.37,4.3-.48Z" />
        <path d="m207.19,78c-.77.76-.9,3.03-.22,4.39.2.41.65.76,1.11.8,1.54.15,3.2-.98,4.08-2.06.55-.68,0-3.43-.54-3.59-1.38-.4-3.56-.4-4.42.45Z" />
      </g>
      <g>
        <path d="m238.59,82.49c2.62,3.14,5.22,1.29,7.62-.33,1.49-1.01,2.72-2.43,3.25-2.92,2.49-3.28,3.69-5.73.61-8.01-2.86-2.11-8.38-1.82-11.09.46-2.51,2.1-2.77,7.95-.38,10.81Z" />
        <path d="m237.31,63.53c-.73-.95-4.9-2.58-6.93-.1s.44,6.09,1.4,6.52c1.68.74,4.96.63,5.89-.5.98-1.19.7-4.54-.37-5.91Z" />
        <path d="m242.17,67.14c1.1.86,4.4.49,5.4-.58.94-1,1.01-3.88.08-5.55-.29-.53-.91-.92-1.51-1-1.7-.23-4.26.66-4.66,1.68-.63,1.58-.4,4.6.69,5.45Z" />
        <path d="m233.82,73.35c-.98-.96-3.87-1.08-5.57-.19-.51.27-.95.84-1,1.42-.16,1.96,1.3,4.05,2.68,5.14.87.69,4.36-.07,4.54-.76.48-1.76.44-4.53-.66-5.61Z" />
      </g>
    </g>
    <g id="Restart_button" data-board-control="restart">
      <g id="RestartGameBackground" class="fill-board-dark stroke-0">
        <path d="m278.56,101.89c-12.24-4-18.11-10.27-15.77-16.85,2.85-8.01,15.84-15.38,22.99-13.05,8.89,2.89,16.71,16.91,14.2,25.46-2.07,7.07-8.99,8.51-21.42,4.44Z" />
        <path d="m289.18,69.62c-5.23-1.91-10.09-6.02-3.19-12.44,3.49-3.25,9.77-1.76,12.53,2.51,3.2,4.97,2.94,14.4-9.34,9.92Z" />
        <path d="m260.05,64.41c.31-4.66,3.4-9.57,13.63-5.7,5.18,1.96,5.76,7.35,1.69,10.63-4.72,3.81-16.06,5.99-15.32-4.94Z" />
        <path d="m316.39,79.92c-1.64,5.62-8.11,6.66-11.25,4.64s-7.1-6.49-5.86-10.31c1.14-3.52,6.85-4.96,9.83-4.5,2.36.36,8.93,4.54,7.29,10.17Z" />
      </g>
      <g id="RestartGameIcon" class="fill-white stroke-0">
        <path d="m273,87.67c.11.61.83,1.03,1.61.95.78-.08,1.33-.64,1.22-1.25-.5-2.84.45-5.05,2.6-6.06,2.11-.99,5.16-.72,8.18.65-.35.57-.58,1.11-.61,1.52,0,.03.02.06.05.07,1.11.53,4.16-.12,5.23-.69.06-.03.11-.09.12-.14.29-.96-.08-3.28-.98-3.97-.03-.02-.07-.03-.11-.02-.69.15-1.47.68-2.18,1.35-2.28-1.06-4.6-1.61-6.74-1.61-1.61,0-3.13.31-4.45.93-3.18,1.49-4.62,4.5-3.96,8.26Z" />
        <path d="m292.21,86.67c-.11-.61-.83-1.03-1.61-.95-.78.08-1.33.64-1.22,1.25.5,2.84-.45,5.05-2.6,6.06-2.11.99-5.16.72-8.18-.65.35-.57.58-1.11.61-1.52,0-.03-.02-.06-.05-.07-1.11-.53-4.16.12-5.23.69-.06.03-.11.09-.12.14-.29.96.08,3.28.98,3.97.03.02.07.03.11.02.69-.15,1.47-.68,2.18-1.35,2.28,1.06,4.6,1.61,6.74,1.61,1.61,0,3.13-.31,4.45-.93,3.18-1.49,4.62-4.5,3.96-8.26Z" />
      </g>
    </g>
  </g></g>
  </svg>
