<svg xmlns="http://www.w3.org/2000/svg" viewBox="0 0 94.3 67.53" aria-hidden="true"><g id="BottomLeftCorner">
    <g id="Rules" data-board-control="rules">
      <g id="GameInfoBackground" class="fill-board-dark stroke-0">
        <path d="m27.64,41.59c-6.97.04-11.03,5.14-11.29,14.17-.17,5.9,2.34,8.46,8.3,8.49,7.96.03,17.18-5.47,17.47-10.42.29-5.06-8.24-12.27-14.48-12.24Z" />
        <path d="m24.88,38.27c2.13-1.59,1.71-6.46,1.33-9.14-.16-1.14-5.59-3.04-7.14-2.12-2.34,1.38-5.33,5.94-4.59,7.37,1.1,2.14,3.22,3.75,5.38,5.34,1.88.32,3.49-.3,5.02-1.44Z" />
        <path d="m36.56,41.01c1.58.2,4.47-2.57,5.2-4.56,1.36-3.73-2.65-9.93-5.93-9.31-2.6.49-5.43,2.55-6.01,3.9-2.27,5.23,2.82,9.47,6.75,9.97Z" />
        <path d="m10.94,49.75c4.08.68,5.86-4.16,5.51-6.91-.3-2.37-3.26-4.53-5.65-5.32-1.05-.35-6.62,1.51-7.05,5.98-.46,4.77,4.78,5.85,7.19,6.25Z" />
      </g>
      <g id="GameInfoIcon" class="fill-white stroke-0">
        <path d="m30.61,46.63c-1.22-2.68-6.05-2.26-7.76-.19-1.52,1.84-1.25,4.71.28,4.85.47.04,1.51-.28,1.03-1.16-2.18-4.01,6.18-4.88,5.27-.26-.34,1.75-2.71,2.41-2.86,4.28-.09,1.09.52,2.95,1.74,2.12.73-.68-.53-2.21.09-2.76,1.65-1.46,4.02-2.9,2.21-6.87Z" />
        <path d="m28.46,57.46c-1.19,1.17.55,2.92,1.65,1.67,1.23-1.08-.48-2.82-1.65-1.67Z" />
      </g>
    </g>
    <g id="DecorativePawsBottomLeft" class="fill-board-dark stroke-0">
      <g>
        <path d="m49.01,53.93c-2.36,1.4-1.41,3.33-.59,5.09.51,1.1,1.32,2.06,1.6,2.47,1.91,2,3.41,3.05,5.25,1.25,1.71-1.67,2.1-5.36.87-7.41-1.13-1.89-4.98-2.68-7.13-1.4Z" />
        <path d="m61.73,55.1c.71-.39,2.23-2.98.8-4.58s-4.09-.36-4.47.24c-.67,1.04-.94,3.22-.29,3.96.69.78,2.94.94,3.96.38Z" />
        <path d="m58.82,57.94c-.69.64-.79,2.86-.19,3.65.56.73,2.46,1.08,3.68.64.38-.14.7-.51.82-.9.33-1.1.01-2.89-.62-3.27-.98-.58-3.01-.75-3.69-.12Z" />
        <path d="m55.59,51.74c.74-.55,1.13-2.45.72-3.68-.12-.37-.46-.72-.84-.81-1.28-.32-2.82.43-3.69,1.24-.55.51-.41,2.9.02,3.09,1.12.5,2.96.77,3.79.16Z" />
      </g>
      <g>
        <path d="m6.62,25.68c.67,1.88,2.18,1.47,3.55,1.12.85-.21,1.65-.66,1.98-.8,1.69-1.09,2.65-2.01,1.62-3.57-.95-1.45-3.53-2.24-5.16-1.65-1.5.54-2.6,3.18-1.99,4.89Z" />
        <path d="m9.22,16.77c-.18-.56-1.82-2-3.16-1.21s-.82,2.87-.45,3.22c.65.62,2.17,1.12,2.78.76.65-.38,1.08-1.96.82-2.77Z" />
        <path d="m10.84,19.24c.36.58,1.93.96,2.58.64.6-.3,1.11-1.61.97-2.53-.05-.29-.26-.57-.53-.71-.74-.39-2.06-.41-2.42-.01-.55.62-.95,2.04-.6,2.61Z" />
        <path d="m5.97,20.69c-.29-.6-1.59-1.14-2.52-1.02-.28.04-.58.23-.69.48-.4.87-.08,2.07.37,2.81.28.46,2.01.7,2.21.41.52-.73.96-2,.64-2.68Z" />
      </g>
      <g>
        <path d="m65.6,42.76c-1.36.81-.81,1.91-.34,2.93.3.63.76,1.18.92,1.42,1.1,1.15,1.96,1.76,3.02.72.98-.96,1.21-3.09.5-4.26-.65-1.08-2.86-1.54-4.1-.81Z" />
        <path d="m72.92,43.43c.41-.22,1.28-1.71.46-2.64s-2.35-.21-2.57.14c-.38.6-.54,1.85-.17,2.28.39.45,1.69.54,2.28.22Z" />
        <path d="m71.24,45.07c-.39.37-.46,1.65-.11,2.1.32.42,1.42.62,2.11.37.22-.08.41-.29.47-.52.19-.63,0-1.66-.36-1.88-.56-.34-1.73-.43-2.12-.07Z" />
        <path d="m69.39,41.5c.43-.31.65-1.41.41-2.11-.07-.21-.26-.41-.48-.47-.74-.18-1.62.25-2.12.71-.31.29-.24,1.67.01,1.78.64.29,1.7.44,2.18.09Z" />
      </g>
      <g>
        <path d="m76.33,56.16c-1.01-.6-1.54.15-2.03.82-.31.42-.5.92-.6,1.11-.36,1.13-.45,1.91.61,2.23.98.3,2.45-.31,2.96-1.19.48-.81-.01-2.42-.94-2.97Z" />
        <path d="m78.5,61.18c.29.19,1.58.23,1.89-.64s-.7-1.61-1.01-1.63c-.53-.04-1.4.31-1.55.7-.15.42.25,1.3.67,1.57Z" />
        <path d="m76.84,60.67c-.38-.13-1.24.29-1.41.68-.16.36.1,1.15.51,1.51.13.12.34.16.51.13.48-.1,1.09-.59,1.1-.9.02-.49-.33-1.29-.71-1.41Z" />
        <path d="m78.51,58.18c.36.17,1.15-.08,1.53-.48.11-.12.18-.32.13-.48-.14-.55-.74-.97-1.22-1.14-.3-.1-1.17.44-1.16.64.04.52.32,1.27.72,1.46Z" />
      </g>
      <g>
        <path d="m81.79,44.69c-.7.35-.47.92-.27,1.44.12.32.34.61.4.73.5.61.91.94,1.47.46.52-.44.7-1.49.4-2.09-.28-.56-1.36-.86-2-.54Z" />
        <path d="m85.39,45.28c.21-.1.69-.8.32-1.29s-1.16-.18-1.28-.02c-.21.28-.33.9-.16,1.12.18.23.82.33,1.12.19Z" />
        <path d="m84.5,46.03c-.21.17-.28.8-.13,1.03.15.22.68.36,1.03.26.11-.03.21-.13.25-.24.12-.31.06-.82-.11-.94-.27-.19-.84-.27-1.05-.11Z" />
        <path d="m83.71,44.2c.22-.14.37-.68.28-1.03-.03-.11-.12-.21-.22-.25-.36-.12-.81.07-1.08.28-.17.13-.18.82-.06.88.31.17.83.28,1.08.12Z" />
      </g>
      <g>
        <path d="m89.52,50.6c-.78-.08-.89.52-1,1.07-.07.34-.05.7-.05.84.1.78.26,1.28.99,1.18.67-.09,1.39-.88,1.46-1.55.06-.62-.69-1.46-1.4-1.53Z" />
        <path d="m92.24,53.02c.23.03,1.02-.31.96-.92s-.88-.78-1.07-.7c-.33.12-.76.58-.74.86.03.29.51.71.84.76Z" />
        <path d="m91.09,53.18c-.27.03-.67.52-.66.81,0,.26.38.67.73.77.11.03.25,0,.34-.07.26-.2.49-.66.41-.86-.13-.3-.56-.68-.83-.65Z" />
        <path d="m91.4,51.21c.26,0,.67-.37.79-.72.03-.11.02-.24-.05-.33-.24-.29-.72-.38-1.06-.34-.21.02-.59.59-.52.71.17.31.55.68.84.68Z" />
      </g>
      <g>
        <path d="m13.64,5.96c-1.08.92-.43,1.82.14,2.64.36.52.85.93,1.03,1.12,1.15.85,2,1.26,2.78.18.72-1,.6-2.92-.2-3.85-.74-.86-2.77-.93-3.76-.09Z" />
        <path d="m20.23,5.45c.33-.26.88-1.71.01-2.41s-2.12.17-2.26.51c-.25.59-.2,1.72.2,2.04.42.34,1.58.23,2.05-.15Z" />
        <path d="m18.99,7.16c-.29.38-.16,1.53.22,1.88.35.32,1.35.34,1.93,0,.18-.1.31-.32.34-.53.07-.59-.25-1.48-.6-1.61-.55-.21-1.6-.12-1.89.26Z" />
        <path d="m16.8,4.27c.33-.34.36-1.35.05-1.94-.09-.18-.3-.33-.5-.34-.68-.05-1.4.47-1.78.95-.24.31.04,1.51.28,1.58.61.16,1.57.14,1.94-.25Z" />
      </g>
    </g>
  </g>
  </svg>
