<svg xmlns="http://www.w3.org/2000/svg" viewBox="0 0 149.12 67.53" aria-hidden="true"><g transform="translate(-172.25 -416.35)"><g id="BottomRightCorner">
    <path id="CornerBackgroundBottomRight" class="fill-board-light stroke-0" d="m259.59,417.22c0,18.35-15.01,33.36-33.36,33.36h-53.98v33.3h149.12v-67.53h-61.78v.87Z" />
    <g id="DecorativePawsBottomRight" class="fill-board-dark stroke-0">
      <g>
        <path d="m253.3,471.49c2.6-1.54,1.55-3.66.65-5.59-.57-1.21-1.46-2.26-1.75-2.71-2.1-2.2-3.75-3.36-5.77-1.38-1.88,1.84-2.3,5.9-.96,8.14,1.24,2.07,5.47,2.95,7.84,1.54Z" />
        <path d="m239.32,470.21c-.78.42-2.45,3.28-.88,5.04s4.5.39,4.92-.26c.73-1.14,1.04-3.54.32-4.35-.75-.85-3.23-1.04-4.36-.42Z" />
        <path d="m242.52,467.09c.75-.7.87-3.15.21-4.01-.62-.8-2.71-1.19-4.04-.7-.42.15-.77.56-.9.99-.37,1.21-.01,3.18.68,3.59,1.08.64,3.31.83,4.06.14Z" />
        <path d="m246.07,473.91c-.81.6-1.24,2.69-.79,4.04.13.4.5.79.92.89,1.41.35,3.1-.48,4.06-1.36.6-.56.46-3.19-.02-3.4-1.23-.55-3.25-.85-4.16-.17Z" />
      </g>
      <g>
        <path d="m231.47,461.41c1.57-.13,1.57-1.36,1.59-2.48.01-.7-.16-1.4-.2-1.68-.48-1.52-.98-2.44-2.39-1.98-1.3.43-2.44,2.24-2.33,3.6.1,1.26,1.89,2.65,3.32,2.53Z" />
        <path d="m225.2,457.58c-.46.02-1.91.97-1.58,2.16s2.02,1.22,2.37,1.01c.61-.36,1.3-1.42,1.16-1.97-.16-.58-1.28-1.23-1.95-1.2Z" />
        <path d="m227.43,456.85c.52-.15,1.14-1.28,1.02-1.83-.11-.52-1-1.18-1.73-1.26-.23-.03-.49.08-.65.25-.45.48-.74,1.49-.51,1.84.36.55,1.36,1.15,1.87,1Z" />
        <path d="m227.52,460.87c-.52.09-1.2.98-1.3,1.71-.03.22.05.49.23.63.58.49,1.57.49,2.22.3.41-.12.95-1.39.77-1.6-.45-.54-1.33-1.15-1.92-1.04Z" />
      </g>
      <g>
        <path d="m208.54,466.32c1.17-.44.9-1.38.67-2.23-.14-.53-.43-1.03-.52-1.23-.7-1.05-1.28-1.64-2.25-.98-.9.61-1.36,2.23-.98,3.24.35.93,2.01,1.59,3.08,1.19Z" />
        <path d="m202.94,464.78c-.35.12-1.23,1.15-.72,1.98s1.8.49,2.02.25c.38-.41.68-1.36.45-1.75-.24-.4-1.24-.66-1.74-.49Z" />
        <path d="m204.47,463.74c.36-.23.58-1.22.37-1.62-.19-.37-1.02-.68-1.59-.58-.18.03-.36.17-.44.34-.24.47-.24,1.29.02,1.51.39.34,1.29.58,1.64.35Z" />
        <path d="m205.42,466.77c-.37.19-.7,1.01-.61,1.59.03.17.15.36.31.43.55.24,1.3.03,1.75-.26.28-.18.42-1.26.24-1.38-.46-.31-1.26-.58-1.68-.37Z" />
      </g>
      <g>
        <path d="m192.29,477.79c.94.5,1.39-.21,1.8-.84.26-.39.41-.86.49-1.03.27-1.04.32-1.75-.65-1.99-.9-.23-2.2.4-2.63,1.22-.39.76.12,2.19.99,2.64Z" />
        <path d="m190.09,473.35c-.27-.16-1.44-.13-1.68.67s.71,1.43.99,1.43c.48.01,1.26-.34,1.37-.71.12-.38-.28-1.16-.68-1.39Z" />
        <path d="m191.62,473.73c.35.1,1.11-.32,1.25-.68.13-.33-.14-1.03-.53-1.35-.12-.1-.31-.13-.46-.09-.43.11-.96.58-.96.87,0,.44.36,1.15.71,1.25Z" />
        <path d="m190.23,476.06c-.33-.13-1.04.12-1.36.51-.1.12-.14.3-.1.44.16.49.72.85,1.16.97.28.08,1.04-.45,1.02-.64-.06-.47-.35-1.14-.72-1.29Z" />
      </g>
      <g>
        <path d="m221.64,478.21c1.96.6,2.55-.88,3.11-2.22.35-.83.48-1.76.57-2.12.15-2.06-.01-3.41-1.93-3.53-1.78-.11-4.02,1.52-4.54,3.22-.48,1.57,1.01,4.1,2.79,4.65Z" />
        <path d="m215.92,470.58c-.57-.2-2.76.26-2.94,1.85s1.85,2.44,2.37,2.36c.91-.15,2.25-1.09,2.34-1.82.09-.77-.95-2.1-1.77-2.39Z" />
        <path d="m218.95,470.78c.7.06,1.98-.99,2.11-1.72.12-.67-.64-1.9-1.48-2.35-.27-.14-.63-.14-.91,0-.78.37-1.61,1.44-1.5,1.98.17.84,1.09,2.04,1.78,2.1Z" />
        <path d="m217.13,475.67c-.67-.14-1.92.6-2.39,1.44-.14.25-.17.61-.03.87.47.87,1.65,1.35,2.53,1.43.55.05,1.81-1.22,1.7-1.56-.28-.87-1.05-2.02-1.81-2.18Z" />
      </g>
    </g>
    <g id="Five_card_mode_button" data-board-control="five-card-mode" class="fill-board-dark stroke-0">
      <path d="m271.53,425.13c3.49-2.37,10.15-.52,12.46,1.29,2,1.56,2.61,7.01,2.7,9.17.22,5.45-2.02,5.35-5.99,7.88-3.66,2.33-8.09-2.48-11.01-5.67-2.61-2.85-3.85-8.83,1.83-12.68Z" />
      <path d="m299.42,427.61c2.8,1.29,6.11,4.57,7.07,6.31,1.61,2.94,2.27,7.12.38,9.17-2.99,3.26-8.11,5.24-13.27,2.86-4.76-2.19-5.92-10.37-5.07-13.81.68-2.73,6.8-6.42,10.9-4.53Z" />
      <path d="m259.33,457.66c-1.03-6.74,2.44-11.23,6.64-12.36,4.21-1.12,12.03-.33,13.06,4.26.41,1.82.29,6.07-.86,7.93-1.54,2.48-4.39,3.84-6.26,4.59-2.6,1.04-11.54,2.36-12.57-4.42Z" />
      <path d="m312.32,465.11c-1.03,3.07-3.85,3.31-6.74,3.62-3.24.34-6.64.46-8.53-.86-3.57-2.5-4.42-9.93-3.88-13.22.7-4.28,7.11-5.53,10.58-4.86,2.74.54,10.77,8.82,8.58,15.32Z" />
      <path d="m281.18,478.38c-3.2-.72-4.62-3.28-5.99-6.04-1.49-3.01-2.73-6.28-1.35-8.09,2.63-3.47,8.23-8.14,12.58-6.34,4.01,1.65,7.33,4.96,6.52,8.39-.64,2.72-4.75,13.67-11.76,12.09Z" />
    </g>
  </g></g>
  </svg>
