<svg xmlns="http://www.w3.org/2000/svg" viewBox="0 0 95 67" aria-hidden="true"><g id="TopLeftCorner">
    <g id="DecorativePawsTopLeft" class="fill-board-dark stroke-0">
      <g>
        <path d="m14.72,48.47c1.55-1.28.64-2.56-.15-3.74-.5-.74-1.19-1.34-1.43-1.6-1.61-1.23-2.81-1.82-3.93-.31-1.04,1.4-.91,4.11.21,5.45,1.03,1.23,3.9,1.37,5.31.2Z" />
        <path d="m5.4,49.07c-.47.36-1.27,2.41-.06,3.4s2.99-.21,3.21-.68c.36-.82.32-2.43-.24-2.89-.58-.48-2.23-.35-2.91.17Z" />
        <path d="m7.18,46.69c.42-.54.25-2.16-.28-2.66-.49-.46-1.9-.5-2.73-.05-.26.14-.45.45-.49.74-.12.83.32,2.09.82,2.29.78.31,2.26.2,2.68-.33Z" />
        <path d="m10.22,50.8c-.47.48-.54,1.9-.1,2.74.13.25.41.47.7.49.96.08,1.99-.63,2.53-1.31.34-.43-.03-2.14-.37-2.23-.87-.24-2.22-.22-2.75.32Z" />
      </g>
      <g>
        <path d="m65.65,16.19c-2.49-.25-2.83,1.68-3.18,3.41-.22,1.08-.14,2.22-.16,2.67.32,2.5.85,4.08,3.17,3.75,2.15-.3,4.43-2.8,4.64-4.95.19-1.99-2.2-4.65-4.47-4.87Z" />
        <path d="m74.34,23.91c.73.1,3.24-.98,3.06-2.92s-2.8-2.47-3.41-2.24c-1.05.4-2.43,1.85-2.35,2.74.08.94,1.64,2.28,2.69,2.42Z" />
        <path d="m70.67,24.42c-.85.1-2.13,1.67-2.11,2.57.02.84,1.22,2.12,2.35,2.45.35.1.79,0,1.09-.21.84-.63,1.57-2.11,1.31-2.73-.4-.96-1.8-2.18-2.64-2.08Z" />
        <path d="m71.65,18.14c.84,0,2.15-1.19,2.51-2.3.11-.34.05-.77-.17-1.04-.77-.92-2.3-1.21-3.37-1.09-.67.07-1.87,1.9-1.65,2.28.55.97,1.75,2.16,2.69,2.16Z" />
      </g>
      <g>
        <path d="m50.44,9.04c-1.29.87-.69,1.93-.17,2.9.33.61.82,1.12.98,1.34,1.15,1.07,2.03,1.62,3.01.54.91-1,1.01-3.1.25-4.22-.7-1.03-2.91-1.35-4.08-.56Z" />
        <path d="m57.68,9.28c.39-.24,1.16-1.76.3-2.62s-2.33-.07-2.52.28c-.34.61-.43,1.85-.04,2.25.41.42,1.69.44,2.26.09Z" />
        <path d="m56.12,10.99c-.37.38-.36,1.65.01,2.07.34.39,1.43.53,2.1.24.21-.09.38-.31.44-.53.15-.63-.09-1.64-.46-1.83-.57-.3-1.73-.33-2.09.05Z" />
        <path d="m54.09,7.58c.4-.33.56-1.42.29-2.1-.08-.2-.28-.39-.5-.43-.74-.14-1.58.34-2.05.82-.29.3-.14,1.65.11,1.75.65.25,1.7.34,2.15-.03Z" />
      </g>
      <g>
        <path d="m66.07,4.04c-1.02-.51-1.48.25-1.91.93-.27.43-.42.92-.5,1.11-.27,1.11-.3,1.87.74,2.11.96.22,2.34-.47,2.78-1.35.4-.82-.18-2.34-1.11-2.8Z" />
        <path d="m68.51,8.73c.29.16,1.54.11,1.78-.75s-.79-1.51-1.09-1.51c-.51,0-1.33.39-1.45.79-.12.41.33,1.24.75,1.47Z" />
        <path d="m66.87,8.35c-.38-.1-1.18.36-1.31.75-.13.36.18,1.1.6,1.42.13.1.33.13.5.09.46-.13,1.01-.64,1-.95-.02-.47-.41-1.22-.78-1.31Z" />
        <path d="m68.31,5.84c.36.14,1.11-.16,1.44-.57.1-.13.15-.32.1-.47-.18-.52-.78-.89-1.26-1.01-.3-.08-1.1.5-1.07.7.07.5.39,1.2.79,1.36Z" />
      </g>
      <g>
        <path d="m18.66,56.99c-.17-1.12-1.06-1.06-1.86-1.02-.5.03-1,.19-1.2.23-1.07.42-1.7.83-1.3,1.82.38.91,1.73,1.64,2.71,1.49.9-.14,1.8-1.5,1.65-2.52Z" />
        <path d="m16.23,61.69c.04.33.8,1.32,1.64,1.02s.77-1.51.6-1.76c-.29-.42-1.09-.86-1.48-.73-.4.14-.82.98-.76,1.46Z" />
        <path d="m15.6,60.13c-.14-.36-.98-.75-1.37-.64-.37.1-.8.78-.82,1.31,0,.17.09.35.22.45.37.3,1.11.45,1.35.27.38-.29.76-1.04.62-1.4Z" />
        <path d="m18.48,59.85c.1.37.77.81,1.3.85.16.01.35-.06.44-.19.32-.44.27-1.15.1-1.61-.11-.29-1.05-.61-1.19-.47-.37.35-.76,1.02-.65,1.43Z" />
      </g>
      <g>
        <path d="m76.46,4.96c-.86.2-.76.88-.68,1.5.05.39.2.76.24.91.39.8.74,1.27,1.48.9.69-.34,1.17-1.44,1-2.18-.16-.69-1.26-1.31-2.05-1.14Z" />
        <path d="m80.24,6.58c.25-.05.98-.69.7-1.33s-1.22-.51-1.4-.37c-.31.25-.61.89-.48,1.18.13.31.81.58,1.18.51Z" />
        <path d="m79.06,7.16c-.27.13-.53.8-.42,1.1.1.28.65.57,1.06.56.13,0,.27-.09.34-.19.21-.3.29-.89.13-1.06-.24-.28-.85-.53-1.12-.4Z" />
        <path d="m78.69,4.94c.28-.09.59-.64.58-1.06,0-.13-.07-.27-.18-.33-.36-.22-.91-.15-1.25.01-.22.1-.41.85-.3.95.29.27.83.53,1.15.42Z" />
      </g>
      <g>
        <path d="m86.85,7.07c-.57-.5-1-.08-1.39.29-.24.23-.42.53-.51.63-.36.68-.5,1.16.13,1.48.59.3,1.59.08,2.02-.41.4-.46.27-1.54-.25-1.99Z" />
        <path d="m87.65,10.51c.16.15.98.33,1.27-.19s-.26-1.1-.45-1.15c-.33-.08-.93.03-1.06.27-.14.25,0,.85.24,1.07Z" />
        <path d="m86.65,9.99c-.23-.12-.82.04-.97.27-.14.21-.07.74.15,1.02.07.09.19.14.31.14.32,0,.76-.25.8-.45.07-.31-.06-.85-.29-.98Z" />
        <path d="m88,8.61c.21.15.74.08,1.03-.13.09-.06.15-.18.14-.29-.03-.36-.36-.7-.65-.86-.18-.1-.8.14-.81.27-.03.34.06.84.29,1.01Z" />
      </g>
      <g>
        <path d="m9.28,63.8c.61-.45.3-.95.02-1.41-.17-.29-.42-.53-.51-.63-.58-.5-1.02-.75-1.48-.2-.42.51-.43,1.53-.04,2.06.36.49,1.44.6,2,.19Z" />
        <path d="m5.75,63.83c-.18.13-.53.88-.1,1.28s1.13-.01,1.22-.19c.16-.3.17-.91-.03-1.1-.21-.19-.83-.18-1.1,0Z" />
        <path d="m6.48,62.97c.17-.19.14-.81-.05-1.01-.17-.18-.71-.23-1.03-.08-.1.05-.18.16-.2.27-.06.31.08.8.26.88.29.13.85.13,1.02-.07Z" />
        <path d="m7.53,64.59c-.19.17-.24.7-.1,1.03.04.1.15.18.25.2.36.05.76-.2.98-.44.14-.15.04-.81-.09-.85-.32-.11-.83-.13-1.05.06Z" />
      </g>
    </g>
    <g id="Review_previous" data-board-control="previous">
      <g id="ReviewPreviousBackground" class="fill-board-dark stroke-0">
        <path d="m18.48,40.86c2.25,4.42,8.35,4.45,16.38.08,8.15-4.44,10.79-8.71,8.15-13.22-3.19-5.46-14.24-8.26-20.06-5.08-4.69,2.56-7.21,12.85-4.47,18.23Z" />
        <path d="m11.46,14.71c-.06,7.58,5.03,7.01,9.04,5,9.4-4.71,4.03-10.07-.64-10.94-4.02-.75-8.36,2.1-8.39,5.94Z" />
        <path d="m8.8,23.18c-6.34,3.07-5.4,6.69-3.36,8.9,4.79,5.18,8.78-1.09,9.09-4.99.26-3.36-2.52-5.47-5.73-3.91Z" />
        <path d="m31.97,8.03c-1.92,1.49-4.23,4.66-2.79,7.29,1.56,2.84,6.4,3,9.31,2.28,1.18-.29,3.63-2.5,3.8-3.98.32-2.72-1.47-5.34-3.89-6.6-1.59-.83-5.75.48-6.43,1.02Z" />
      </g>
      <path id="review-previous-arrow" class="fill-white stroke-0" d="m39.31,31.82c.2.58-.22,1.31-.95,1.62-.73.31-1.48.09-1.68-.5-.95-2.73-2.85-4.19-5.22-4.02-2.32.17-4.86,1.88-6.82,4.56.58.33,1.05.69,1.27,1.03.01.02.01.06,0,.09-.71,1.01-3.69,1.93-4.91,1.95-.06,0-.14-.03-.18-.06-.72-.7-1.53-2.91-1.08-3.95.01-.03.05-.06.09-.07.67-.2,1.61-.12,2.56.12,1.48-2.04,3.23-3.64,5.1-4.69,1.41-.79,2.88-1.26,4.34-1.36,3.5-.25,6.23,1.68,7.48,5.29Z" />
    </g>
  </g>
  </svg>
