<svg xmlns="http://www.w3.org/2000/svg" viewBox="3.5 375 25 40" aria-hidden="true"><g id="DecorativePawsLight" class="fill-board-dark stroke-0" opacity=".6">
    <g>
      <path d="m9.7,387.44c-.38.88.29,1.23.88,1.56.37.21.8.31.96.37.95.17,1.59.16,1.74-.73.14-.82-.51-1.95-1.28-2.28-.71-.3-1.96.27-2.31,1.07Z" />
      <path d="m13.54,385.15c.12-.25.02-1.3-.72-1.46s-1.23.74-1.22.99c.02.43.4,1.11.73,1.18.35.08,1.03-.34,1.2-.71Z" />
      <path d="m13.3,386.55c-.06.32.37.97.7,1.07.31.09.92-.2,1.17-.58.08-.12.09-.29.05-.42-.13-.38-.59-.82-.85-.8-.4.04-1.01.41-1.07.73Z" />
      <path d="m11.11,385.46c.1-.31-.19-.93-.55-1.19-.11-.08-.28-.11-.4-.06-.43.17-.71.7-.79,1.11-.05.26.48.91.64.87.42-.09,1-.39,1.11-.74Z" />
    </g>
    <g>
      <path d="m4.94,379.82c.35.72.93.49,1.46.29.33-.12.63-.33.75-.4.62-.5.96-.91.49-1.49-.44-.53-1.5-.73-2.12-.43-.57.28-.89,1.37-.58,2.03Z" />
      <path d="m5.58,376.18c-.09-.21-.81-.72-1.31-.34s-.2,1.17-.04,1.3c.28.22.91.35,1.14.18.24-.18.34-.83.21-1.14Z" />
      <path d="m6.33,377.09c.17.21.81.3,1.05.14.22-.14.37-.69.27-1.05-.03-.11-.13-.22-.24-.26-.31-.12-.84-.07-.96.1-.19.27-.29.85-.12,1.06Z" />
      <path d="m4.46,377.87c-.14-.23-.68-.38-1.04-.3-.11.03-.22.12-.25.22-.12.36.06.83.27,1.1.13.17.83.19.89.07.17-.31.29-.84.14-1.09Z" />
    </g>
    <g>
      <path d="m8.66,412.98c.69,1.34,1.77.88,2.76.49.62-.24,1.17-.65,1.4-.79,1.16-.98,1.78-1.76.86-2.82-.86-.99-2.86-1.32-4.02-.72-1.07.55-1.63,2.63-1,3.85Z" />
      <path d="m9.72,406.08c-.19-.4-1.55-1.32-2.48-.59s-.33,2.22-.02,2.45c.54.4,1.73.62,2.15.29.45-.35.61-1.57.34-2.15Z" />
      <path d="m11.18,407.76c.32.4,1.54.53,1.99.22.42-.28.67-1.31.47-1.99-.06-.21-.25-.4-.46-.48-.59-.22-1.58-.1-1.81.23-.35.52-.51,1.62-.19,2.01Z" />
      <path d="m7.68,409.32c-.27-.42-1.3-.7-1.98-.52-.21.05-.41.23-.47.43-.22.69.14,1.56.55,2.06.26.32,1.57.32,1.69.09.31-.59.52-1.59.21-2.06Z" />
    </g>
    <g>
      <path d="m15.71,397.7c-1.3,1.59-.14,2.69.89,3.71.64.64,1.45,1.1,1.75,1.32,1.85.91,3.17,1.27,4-.46.77-1.61.1-4.29-1.28-5.41-1.27-1.03-4.17-.61-5.35.84Z" />
      <path d="m24.91,395.27c.4-.45.8-2.66-.61-3.42s-2.96.79-3.07,1.31c-.2.9.16,2.5.81,2.85.68.37,2.3-.09,2.87-.74Z" />
      <path d="m23.6,398c-.32.62.18,2.21.8,2.6.58.37,2,.13,2.74-.49.23-.19.36-.54.35-.84-.05-.86-.73-2.03-1.27-2.13-.84-.16-2.3.24-2.62.86Z" />
      <path d="m19.75,394.48c.38-.57.16-2-.43-2.76-.18-.23-.5-.39-.79-.36-.98.11-1.87,1.02-2.27,1.81-.25.49.45,2.14.8,2.16.91.07,2.27-.21,2.69-.86Z" />
    </g>
  </g>

  </svg>