<?xml version="1.0" encoding="UTF-8"?>
<svg id="Isolation_Mode" data-name="Isolation Mode" xmlns="http://www.w3.org/2000/svg" viewBox="0 0 288 432">
  <defs>
    <style>
      .fill-white {
        fill: #fff;
      }

      .fill-card-frame-dark {
        fill: #005157;
      }

      .fill-card-frame-light {
        fill: #008e97;
      }
    </style>
  </defs>
    <path class="fill-card-frame-light" d="m0,24.37v383.27c0,13.46,10.91,24.37,24.37,24.37h239.27c13.46,0,24.37-10.91,24.37-24.37V24.37c0-13.46-10.91-24.37-24.37-24.37H24.37C10.91,0,0,10.91,0,24.37Z"/>
  <g>
    <path class="fill-card-frame-dark" d="m273.22,60c1.19,4.07,9.34,7.38,14.78,6.19v-21.5c-.69.04-1.44.17-2.25.41-6.94,2.05-13.87,10.29-12.53,14.9Z"/>
    <path class="fill-card-frame-dark" d="m252.09,45.64c1.62.22,3.62-.02,6.03-.72,7.68-2.22,12.4-6.78,11.4-11.05-1.16-5-10.85-10.17-16.16-8.62-5.23,1.53-8.15,8.54-6.42,15.32,1.89,1.5,3.61,3.2,5.14,5.07Z"/>
    <path class="fill-card-frame-dark" d="m155.31,3.92c1.59,6.22,11.86,13.82,16.64,12.33,3.74-1.17,5.77-8.19,4.13-14.34-.18-.67-.41-1.3-.68-1.91h-19.93c-.46,1.2-.52,2.51-.16,3.92Z"/>
    <path class="fill-card-frame-dark" d="m266.43,162.32c4.5-1.28,8.54-12.59,6.93-19.04-1.34-5.36-5.04-5.43-8.81-4.54-1.84.5-3.5,1.23-4.94,2.14v19.06c2.43,1.8,5.07,2.88,6.82,2.39Z"/>
    <path class="fill-card-frame-dark" d="m21.03,5.21c-.14,2.35.29,4.72.46,7.09,1.52,4.88,4.34,8.32,9.49,8.9,4.16.47,11.35-4.65,12.1-8.4,1.1-5.5-3.28-7.72-6.82-10.09-1.73-1.16-3.71-2.04-5.74-2.7h-7.19c-1.38.98-2.17,2.75-2.31,5.21Z"/>
    <path class="fill-card-frame-dark" d="m63.73,7.96c2.95,5.18,6.72,6.38,14.35,4.27,3.92-.61,6.36-3.82,4.7-7.5-.73-1.63-1.61-3.2-2.58-4.73h-17.54c-.38,2.97-.07,5.97,1.06,7.96Z"/>
    <path class="fill-card-frame-dark" d="m105.41,30.21s-.06-.03-.09-.04c.04-.04.07-.08.1-.12.06-1.63-.1-3.26-.51-4.75-1.56-5.56-7.05-8.35-13.22-6.72-6.24,1.64-8.67,4.8-7.32,9.5.5,1.73,1.57,3.54,2.93,5.24h17.71c.21-1,.35-2.05.4-3.1Z"/>
    <path class="fill-card-frame-dark" d="m269.73,107.91c2,3.68,10.58,6.77,13.76,5.04,5.1-2.76,3.8-7.76,3.7-12.23-.03-1.37-.62-3.4-.84-4.78-.84-5.09-3.24-6.38-5.17-6.33-3.27.09-7,2.25-9.57,4.59-4.09,3.72-4.53,8.82-1.88,13.7Z"/>
    <path class="fill-card-frame-dark" d="m217.69,12.84c3.81-1.1,5.49-6.53,4.09-12.84h-21.36c.03.38.09.76.19,1.16,1.51,5.88,12.1,13.13,17.08,11.68Z"/>
    <path class="fill-card-frame-dark" d="m28.4,65.84c-1.15-.08-2.26,0-3.27.3-5.14,1.47-8.35,9.21-6.42,15.49,1.24,4.05,4.24,5.42,9.68,4.32v-19.28c0-.28.01-.55.02-.83Z"/>
    <path class="fill-card-frame-dark" d="m251.24,22.86c4.22-8.25,4.12-10.47-.45-12.3-4.18-1.68-6.98-.09-8.54,3.77-1.81,4.49.22,6.34,9,8.53Z"/>
    <path class="fill-card-frame-dark" d="m259.68,111.14c2.49-1.41,6.15-4.7,5.41-7.86-.49-2.08-3.64-2.68-5.47-3.7v11.58s.05-.01.07-.03Z"/>
    <path class="fill-card-frame-dark" d="m125.34,7.01c1.85.7,4.87,2.71,7.83,2.62,1.52-.05,4.58-4.54,4.05-5.79-.52-1.2-1.51-2.65-2.61-3.84h-8.28c-1.21,1.37-1.86,3.53-.98,7.01Z"/>
    <path class="fill-card-frame-dark" d="m199,33c1.85-2.95,4.55-5.73,5.15-8.91.25-1.33-3.79-4.43-6.26-4.95-1.61-.34-5.74,2.84-5.55,3.84.65,3.44,2.71,6.62,4.23,9.89.81.04,1.62.08,2.43.12Z"/>
    <path class="fill-card-frame-dark" d="m111.4,18.15c.95.15,2.54-3.76,4.89-7.49-4.26-1.8-7.14-4.16-9.74-3.89-5.84.61-3.76,5.7-3.35,9.03.71,5.84,5.46,1.91,8.2,2.35Z"/>
    <path class="fill-card-frame-dark" d="m22.85,50.75c-3.9-1.49-6.97.4-7.99,4.09-2.09,7.64,4.98,6.32,9.47,9.26.44-5.41,6.67-10.23-1.49-13.35Z"/>
    <path class="fill-card-frame-dark" d="m148.56,21.13c-1.4-3.79-4.9-3.62-7.11-2.88-2.16.73-5.49,4.12-4.88,6.97.7,3.27,5.35,4.58,8.6,3.81s5.04-3.46,3.39-7.91Z"/>
    <path class="fill-card-frame-dark" d="m16.93,30.49c1.23,4.06,5.29,6.41,8.72,4.62,7.23-3.77.52-7.93.5-12.42-9.38,2.28-10.56,3.36-9.22,7.8Z"/>
    <path class="fill-card-frame-dark" d="m58.02,21.46c1.8-2.83,3.59-5.66,5.39-8.49-.34-.77-.68-1.54-1.02-2.31-2.98-.52-6.23-1.97-8.84-1.2-1.55.45-3.51,5.22-2.73,6.59,1.36,2.39,4.69,3.67,7.2,5.41Z"/>
    <path class="fill-card-frame-dark" d="m265.83,23.77c1.01.18,2.76-3.69,5.23-7.23-4.2-2.06-7.03-3.45-9.86-4.84-1.21,2.61-4.08,6.16-3.26,7.63,1.3,2.32,4.97,3.9,7.88,4.43Z"/>
    <path class="fill-card-frame-dark" d="m215.28,31.92c-.54-1.72-4.69-3.98-6.13-3.38-1.62.68-2.8,2.44-4.42,4.76h10.92c-.11-.49-.24-.95-.37-1.39Z"/>
    <path class="fill-card-frame-dark" d="m15.24,21.74c4.21-.25,5.54-3.37,5-8.98-2.34-1.06-6.25-3.51-6.76-2.94-2.14,2.4-3.61,5.61-4.43,8.76-.14.55,4.08,3.28,6.18,3.16Z"/>
    <path class="fill-card-frame-dark" d="m281.13,34.3c.69,3.07,4.91,2.72,6.87,3.8v-10.51c-.54-.19-1.07-.35-1.57-.49-.84-.22-6.26,2.97-5.3,7.2Z"/>
    <path class="fill-card-frame-dark" d="m281.37,69.3c-1.61.54-3.59,4.95-2.88,6.34,1.35,2.65,3.3,5.41,6.45,6,.91.17,2.19-.14,3.06-.46v-10.99c-1.69-1.66-4.49-1.61-6.63-.89Z"/>
    <path class="fill-card-frame-dark" d="m162.82,26.19c-.53-3.58-3-6.95-6.96-5.2-1.94.86-4.02,5.21-3.4,7.12.67,2.05,2.93,3.59,4.97,5.2h4.19c.53-2.39,1.53-4.86,1.19-7.12Z"/>
    <path class="fill-card-frame-dark" d="m55.65,6.48c.78-.28,1.56-.56,2.34-.84.4-1.87,1.09-3.78,1.45-5.65h-11.05c.08.5.25,1.01.51,1.56,1.07,2.21,4.43,3.32,6.75,4.92Z"/>
    <path class="fill-card-frame-dark" d="m179.33,6c1.48.51,4.91,2.6,5.78,1.83,2.2-1.95,4.42-5.05,4.64-7.82h-10.83c-.22,1.61.06,3.63.41,6Z"/>
    <path class="fill-card-frame-dark" d="m105.41,30.21c2.31,1.09,4.33,2.34,5.83,3.1h3.16c2.17-1.8,4.3-4.48,4.55-6.95.39-3.91-3.35-5.68-6.66-4.1-2.36,1.13-3.83,4.16-6.87,7.78-.04.04-.07.08-.1.12.03.01.06.03.09.04Z"/>
    <path class="fill-card-frame-dark" d="m264.73,95.81c2.41-1.34,4.53-4.72,4.92-7.51.18-1.26-2.87-3.81-5.61-4.12-1.66-.19-3.49.76-4.42,1.55v8.01c1.75,1.43,4.23,2.55,5.11,2.06Z"/>
    <path class="fill-card-frame-dark" d="m192.6,29.63c-4.12-2.06-4.81-4.52-7.53-3.61-2.92.98-5.24,4.45-5.42,7.29h9.98c.86-1.11,1.81-2.37,2.97-3.68Z"/>
    <path class="fill-card-frame-dark" d="m25.52,104.72c-4.77.44-4.27,4.8-3.48,10.06,1.5.68,4.84,3.13,5.78,2.42.19-.14.37-.3.56-.47v-11.02c-1.02-.66-2.07-1.07-2.86-.99Z"/>
    <path class="fill-card-frame-dark" d="m13.59,74.2c2.03-1.5,3.92-5.58,3.21-7.69-.65-1.95-4.82-3.71-7.38-3.63-1.4.05-2.67,4.09-5.05,8.11,4.35,1.63,8.02,4.09,9.22,3.2Z"/>
    <path class="fill-card-frame-dark" d="m230.53,3.85c1-1.12,1.76-2.45,2.44-3.85h-8.58c.1.62.21,1.27.35,1.95,1.5.53,5.19,2.58,5.79,1.9Z"/>
    <path class="fill-card-frame-dark" d="m146.35,5.37c1.64-.85,3.01-3.15,3.65-5.37h-11.39c.14.71.28,1.42.41,2.14,2.51,1.21,5.85,4.01,7.33,3.24Z"/>
    <path class="fill-card-frame-dark" d="m131.21,29.83c-.8-.02-1.63,1.45-2.72,3.48h9.92c-.86-1.81-4.73-3.42-7.2-3.48Z"/>
    <path class="fill-card-frame-dark" d="m95.57,14.77c2.14-1.07,3.34-4.02,6.14-7.67-4.24-1.73-7.48-4-8.45-3.26-2.31,1.74-4.93,4.94-4.88,7.5.07,3.75,4.11,4.97,7.2,3.43Z"/>
    <path class="fill-card-frame-dark" d="m244.79,26.6c-.75-2.03-4.76-3.59-7.48-3.82-1.09-.09-2.54,3.88-4.79,7.6,4.01,1.82,6.65,3.02,9.3,4.22,1.13-2.72,3.71-5.97,2.97-8Z"/>
    <path class="fill-card-frame-dark" d="m38.6,34.91c1.55-2.73,3.91-5.35,4.29-8.24.18-1.33-3.51-3.17-5.45-4.78-4.79,2.21-7.11,4.48-5.1,8.1,1.19,2.14,4.12,3.31,6.26,4.92Z"/>
    <path class="fill-card-frame-dark" d="m266.39,111.12c-2.89.5-4.54,4.9-4.49,7.31.03,1.72,2.6,5.59,7.13,4.44,4.24-1.07,4.75-5.18,4.06-6.41-1.3-2.31-3.84-5.83-6.69-5.34Z"/>
    <path class="fill-card-frame-dark" d="m70.66,27c2.98-.61,5.92-2.6,5.03-6.81-.95-4.52-4.63-5.27-7.74-4.14-2.01.73-3.05,4.11-5.49,7.75,3.83,1.6,6.25,3.59,8.19,3.19Z"/>
    <path class="fill-card-frame-dark" d="m25.65,172.03c.72.8,1.67,1.46,2.74,1.98v-11.85c-3.93,3.48-6.02,6.25-2.74,9.88Z"/>
    <path class="fill-card-frame-dark" d="m20.77,133.57c3.64-3.56,5.19-12.78,2.61-15.48-3.23-3.38-15.12-1.69-20.08,2.75-4.12,3.68-2.45,6.99.09,9.91,5.46,5.88,13.13,6.98,17.38,2.82Z"/>
    <path class="fill-card-frame-dark" d="m8.53,402.8c3.61-3.61,5.34-7.72,3.45-12.55-1.39-3.55-8.03-7.15-11.98-6.95v23.99c.78-.13,1.6-.39,2.48-.78,2.14-.97,4.04-2.46,6.06-3.71Z"/>
    <path class="fill-card-frame-dark" d="m8.94,261.62c3.26-2.91,2.01-10.84-2.37-15.06-1.94-1.87-4.23-2.83-6.57-2.91v19.87c3.71.2,7.24-.38,8.94-1.91Z"/>
    <path class="fill-card-frame-dark" d="m19.32,289.52c-3.84,1.63-5.2,9.26-3.65,11.97,1.98,3.46,6.68,6.64,10.67,7.33.77.13,1.44.1,2.05-.04v-21.97c-3.02.89-6.16,1.48-9.06,2.71Z"/>
    <path class="fill-card-frame-dark" d="m15.96,186.2c3.53-3.41,2.47-6.97-.33-10.06-4.36-4.81-11.14-6.2-15.63-3.73v18.52c5.04.55,12.4-1.28,15.96-4.72Z"/>
    <path class="fill-card-frame-dark" d="m27.79,329.55c-.28.34-.77.96-1.3,1.55-3.77,4.23-5.44,8.91-2.26,14.12.73,1.2,2.29,2.28,4.14,3.1v-19.3c-.2.17-.39.33-.59.52Z"/>
    <path class="fill-card-frame-dark" d="m24.16,213.96c-4.3,4.04-4.8,7.31-1.66,10.7,1.45,1.57,3.56,2.86,5.88,3.81v-17.67c-1.37.75-2.77,1.8-4.22,3.16Z"/>
    <path class="fill-card-frame-dark" d="m90.57,400.35c-4.02,4.06-4.05,13.51-.06,17.68,3.7,3.86,12.04,3.09,16.7-1.54,3.41-3.39,2.71-7.18-2.31-12.38-2.82-2.93-5.45-4.73-7.82-5.41h-3.91c-.94.31-1.81.85-2.6,1.66Z"/>
    <path class="fill-card-frame-dark" d="m46.45,407.55c-3.97,3.51-3.91,13.5.11,17.72,4.03,4.23,11.04,3.65,16.64-1.38,3.63-3.26,3.29-6.68-1.12-11.34-5.7-6.03-12.13-8.09-15.63-5Z"/>
    <path class="fill-card-frame-dark" d="m8.31,100.58c1.08-2.62,1.09-6.71-.31-9.09-1.94-3.3-5.02-5.92-8-8.88v20.18c.46.09.92.18,1.36.28,2.14.48,6.29-.89,6.95-2.49Z"/>
    <path class="fill-card-frame-dark" d="m9.01,299.03c5.31-3.07,1.57-5.68-.55-8.42-2.64-3.41-5.36-2-7.63.2-.31.3-.58.61-.83.92v7.58c.15.19.3.38.47.57,3.06,3.43,5.92,2.4,8.54-.84Z"/>
    <path class="fill-card-frame-dark" d="m46.3,427.82c-3.82,2.09-9.2.35-10.58,4.18h11.09c-.32-1.35-.59-2.77-.5-4.18Z"/>
    <path class="fill-card-frame-dark" d="m3.25,241.24c1.79-3.1,4.04-6.07,5.04-9.41.25-.83-3.6-4.14-5.44-4.04-.81.04-1.86.41-2.86.93v11.36c.18.34.35.69.51,1.03.91.04,1.83.09,2.74.13Z"/>
    <path class="fill-card-frame-dark" d="m3.15,168.79c.77-3.55,1.95-7.1,1.93-10.64,0-.5-2.81-1.59-5.09-1.83v12.46c.31.27.62.54.92.81.74-.27,1.48-.53,2.23-.8Z"/>
    <path class="fill-card-frame-dark" d="m89.07,419.68c-4.99,2.14-12.16-1.13-11.12,7.54.28,2.37,1.42,3.98,3.05,4.78h5.64c5.84-2.06,1.96-7.32,2.43-12.32Z"/>
    <path class="fill-card-frame-dark" d="m23.77,142.32c-1.84-1.8-5.42-1.83-8.26-2.61-.17,3.28-5.55,5.54-2.05,9.46,2.76,3.09,6.05,3.55,10.9-.23-.08-1.62.78-5.26-.59-6.62Z"/>
    <path class="fill-card-frame-dark" d="m26.78,388.49c-6.71-4.64-7.25,3.24-11.22,5.35,6.39,7.24,7.9,7.78,11.2,4.52,3.01-2.98,3.21-7.67.02-9.87Z"/>
    <path class="fill-card-frame-dark" d="m9.52,403.69c.15,2.57-.19,7.17.55,7.35,3.12.77,6.65.58,9.82-.17.56-.13,1-5.14-.09-6.94-2.19-3.61-5.56-3.33-10.28-.24Z"/>
    <path class="fill-card-frame-dark" d="m15.32,349.13c1.81-2.08,3.6-6.74,2.53-8.14-1.58-2.08-4.97-6.12-8.9-1.95-2.63,2.8-3.47,5.77.26,10.36,1.44-.01,5.04.96,6.11-.27Z"/>
    <path class="fill-card-frame-dark" d="m22.66,324.65c-3.26.32-6.76.09-9.66,1.3-.91.38-1.22,5.7-.01,6.82,1.8,1.67,5.2,1.61,10.03,2.82-.17-5.13-.26-8.04-.36-10.94Z"/>
    <path class="fill-card-frame-dark" d="m17.69,247.97c.28-3.31,1.17-6.75.49-9.85-.21-.96-4.7-.97-7.23-1.42-3.84,4.53-3.36,7.97-.42,10.34,1.6,1.29,4.72.68,7.16.93Z"/>
    <path class="fill-card-frame-dark" d="m27.59,178.52c-1.43,1.02-1.07,4.54-1.49,6.96.55.54,1.1,1.09,1.65,1.63.2-.02.42-.04.64-.05v-8.91c-.3.1-.58.22-.79.37Z"/>
    <path class="fill-card-frame-dark" d="m9.14,148.42c-.32-4.6.43-8.06-.94-10.05-1.84-2.65-5.88-4.68-8.2-.86v7.94c.14.41.3.8.47,1.16.61,1.29,4.47,1.03,8.68,1.81Z"/>
    <path class="fill-card-frame-dark" d="m30.67,414.59c.08,4.77.13,7.92.19,11.07,2.93-.09,7.5.88,8.42-.52,1.47-2.25,1.12-6.27.23-9.13-.31-1-4.49-.8-8.84-1.42Z"/>
    <path class="fill-card-frame-dark" d="m53.58,432h8c-1.47-.42-4.69-.41-8.02-.89,0,.31.01.6.02.89Z"/>
    <path class="fill-card-frame-dark" d="m20.53,285.18c-.31-1.64-.19-5.66-1.33-6.06-2.84-.99-6.79-1.37-9.31-.07-2.99,1.54-2.45,4.89.02,7.62,3.46,3.82,6.34,1.8,10.61-1.49Z"/>
    <path class="fill-card-frame-dark" d="m82.87,416.04c1.5-2.25,1.12-6.17.44-9.14-.17-.73-4.61-.47-8.84-.79.02,4.42.04,7.38.05,10.35,2.9-.06,7.42.96,8.35-.42Z"/>
    <path class="fill-card-frame-dark" d="m103.02,424.47c-2.27-1.1-6.76-.86-8.3.75-1.16,1.21-1.11,4.43-.37,6.78h9.93c-.28-3.76-.12-6.98-1.26-7.53Z"/>
    <path class="fill-card-frame-dark" d="m22.1,198.66c-2.73,2.21-5.05,6.09-1.72,9.16,1.65,1.52,5.37.78,6.73.91.49-.38.9-.76,1.28-1.13v-8.46c-1.56-1.09-5.09-1.45-6.29-.48Z"/>
    <path class="fill-card-frame-dark" d="m18.31,160.45c-1.08-1.27-5.3-1.57-6.67-.49-2.52,1.97-4.75,5.32-1.35,8.63,2.28,2.23,4.86,4.55,7.94,1.52,3.9-3.39,2.31-7.06.08-9.66Z"/>
    <path class="fill-card-frame-dark" d="m19.22,350.31c-2.58,1.82-4.77,6.01-1.2,8.56,1.92,1.37,6.16.84,8.6-.36.97-.48,1.3-2.26,1.77-4.62v-3.94c-4.21-.08-7.41-.87-9.16.36Z"/>
    <path class="fill-card-frame-dark" d="m14.33,313.2c2.99-1.72,2.86-5.19.06-8.07-2.92-3.01-5.49-2.44-9.81.35.31,2.53-.19,6.56,1.11,7.27,2.36,1.29,6.45,1.71,8.64.45Z"/>
    <path class="fill-card-frame-dark" d="m26.89,129.56c-1.5,2.39-2.68,6.32-1.68,8.61.56,1.29,1.79,2.3,3.18,2.71v-11.88c-.75.05-1.28.21-1.5.56Z"/>
    <path class="fill-card-frame-dark" d="m19.13,384.95c1.34-2.05,1.01-5.18,1.43-7.83-3.14-.1-6.56-.96-9.29.05-1.26.46-1.17,4.59-1.69,7.05,4.19,3.21,7.28,4.2,9.54.73Z"/>
    <path class="fill-card-frame-dark" d="m5.27,205.13c1.42-.93.93-4.77,1.59-9.43-2.67.41-5.1.46-6.87.67v9.71c1.97.01,3.9-.05,5.27-.95Z"/>
    <path class="fill-card-frame-dark" d="m231.18,426.59c-4.83-.07-9.35,2.18-11.93,5.41h18.89c-.46-3.75-2.96-5.46-6.96-5.41Z"/>
    <path class="fill-card-frame-dark" d="m273.62,229.33c-.05,6.17,7.11,16.28,11.74,16.58.89.06,1.78-.22,2.65-.74v-22.36c-1.08-.41-2.27-.66-3.57-.69-7.24-.19-10.78,2.17-10.82,7.21Z"/>
    <path class="fill-card-frame-dark" d="m179.73,426.24c-3.7-.12-6.96,2.15-8.91,5.76h18.9c-2.66-3.07-6.71-5.65-9.98-5.76Z"/>
    <path class="fill-card-frame-dark" d="m245.73,392.36c-.01.19-.03.38-.04.57-.23,6,3.86,10.91,9.17,11.04,7.1.17,11.06-2.24,11.27-6.87.26-5.64-5.57-14.26-10.38-16.25-2.42,4.56-5.86,8.5-10.02,11.51Z"/>
    <path class="fill-card-frame-dark" d="m270.67,357.97c-.01,5.57,7.16,12.94,12.72,13.09,1.52.04,3.12-.55,4.6-1.55v-17.98c-1.36-.33-2.91-.51-4.65-.55-7.87-.14-12.67,2.5-12.68,6.99Z"/>
    <path class="fill-card-frame-dark" d="m274.49,329.93c-.08,7.5,2.23,11.56,6.58,11.59,2.01.01,4.51-.99,6.93-2.5v-19.01c-1.19-.32-2.42-.49-3.63-.47-5.8.12-9.81,4.35-9.88,10.38Z"/>
    <path class="fill-card-frame-dark" d="m286.56,415.1c-1.64-1.85-4.73-3.66-7.01-3.61-5.18.13-11.95,5.77-11.88,9.91.04,2.58,2.49,5.86,5.69,8.45,6.15-3.46,9.25-4.59,13.21-14.75Z"/>
    <path class="fill-card-frame-dark" d="m131.48,404.32c.34,1.76.02,5.04,1.51,6.66,2.57,2.79,6.72,6.78,9.38,6.23,4.07-.84,8.89-4.45,10.53-8.16.91-2.06-3.8-6.78-6.29-10.08h-14.2c-.55,1.39-.87,3.16-.93,5.35Z"/>
    <path class="fill-card-frame-dark" d="m273.67,284.08c-.17,5.89,1.79,8.56,6.41,8.73,2.47.09,5.31-.7,7.92-1.97v-18.01c-1.43-.52-2.92-.84-4.39-.85-6.36-.05-9.71,4.03-9.94,12.1Z"/>
    <path class="fill-card-frame-dark" d="m259.62,301.15v8.49c2.31-2.63,2.43-5.91,0-8.49Z"/>
    <path class="fill-card-frame-dark" d="m283.41,402.48c.31,2.84,2.44,7.48,4.25,7.7.11.01.22.02.34.03v-11.97c-1.83.61-4.71,3.12-4.59,4.24Z"/>
    <path class="fill-card-frame-dark" d="m235.08,402.55c-1.28,1.19-.24,5.9,1.04,8.38.65,1.27,5.62,2.05,6.02,1.42,1.87-3.01,2.84-6.57,4.13-9.94-.68-.68-1.35-1.36-2.03-2.04-3.15.62-7.16.32-9.16,2.18Z"/>
    <path class="fill-card-frame-dark" d="m209.47,423.35c-2.67.41-4.96,3.37-8.76,6.16.91.83,1.73,1.69,2.48,2.49h11.45c.35-.26.69-.52,1.04-.74-2.35-2.51-.64-8.75-6.21-7.91Z"/>
    <path class="fill-card-frame-dark" d="m268.45,308.94c-1.52,1.71-2.52,6.48-1.54,7.29,2.45,2.05,6.14,2.61,9.33,3.77.68-.62,1.35-1.24,2.03-1.85-.94-3.46-1.45-7.15-3.11-10.21-.41-.76-5.47-.37-6.7,1.01Z"/>
    <path class="fill-card-frame-dark" d="m126.37,427.57c1.72,3.7,4.68,4.86,8.38,3.33,4.11-1.7,4.05-5.09-.17-12.47-8.81,3.19-10.23,4.79-8.22,9.14Z"/>
    <path class="fill-card-frame-dark" d="m275.54,382.08c3.28,2.36,5.71,5.45,8.05,5.39,1.5-.04,2.95-1.47,4.41-2.98v-4.99c-1.39-1.65-2.78-3.3-4.17-4.95-2.39,2.17-4.78,4.34-8.29,7.53Z"/>
    <path class="fill-card-frame-dark" d="m179.02,411.39c-3.49-2.44-7.27-1.64-9.18,2.19-3.53,7.06,3.68,7.21,7.59,9.92.42-4.23,8.48-7.28,1.59-12.1Z"/>
    <path class="fill-card-frame-dark" d="m276.58,269.94c1.52-2.67,3.9-5.24,4.22-8.05.17-1.55-1.42-4.74-5.93-4.35s-5.69,3.66-6.08,6.29c-.85,5.6,4.94,4.31,7.8,6.1Z"/>
    <path class="fill-card-frame-dark" d="m264.06,252.56c1.46.49,4.77-1.29,5.16-5.37s-2.53-5.64-3.86-5.4c-2.07.37-5,2.36-5.74,4.12v1.85c.62,1.91,2.72,4.23,4.44,4.81Z"/>
    <path class="fill-card-frame-dark" d="m280.47,309.48c.5,5.92,3.28,8,7.03,7.59.17-.02.33-.08.5-.13v-10.48c-.45-.41-.92-.79-1.43-1.11-.83-.53-4,2.64-6.1,4.12Z"/>
    <path class="fill-card-frame-dark" d="m265.48,373.61c-.54,3.58.83,7.52,5.13,7.02,2.1-.25,5.37-3.8,5.34-5.81-.04-2.72-2.75-5.4-4.31-8.1-.89,0-1.77-.01-2.66-.02-1.22,2.3-3.13,4.49-3.49,6.92Z"/>
    <path class="fill-card-frame-dark" d="m260.92,257.49c-.18-.84-.67-1.83-1.3-2.72v5.19c.83-.91,1.45-1.77,1.3-2.47Z"/>
    <path class="fill-card-frame-dark" d="m184.15,420.35c1.13,2.81,3.92,5.28,6.63,6.92.72.44,3.54-2.59,6.7-5.03-3.19-3.25-5.43-5.53-7.66-7.81-2.02,2.03-6.1,4.88-5.68,5.92Z"/>
    <path class="fill-card-frame-dark" d="m288,269.3v-9.79c-1.73,1.32-5.16,1.85-5.04,5.57.11,3.4,3.2,3.1,5.04,4.22Z"/>
    <path class="fill-card-frame-dark" d="m253.35,406.49c-4.28-.21-5.47,2.28-6.61,7.23,1.97,1.56,4.43,4.75,5.81,4.33,2.51-.75,5.49-3.3,6.24-5.72,1.11-3.59-1.59-5.65-5.45-5.84Z"/>
    <path class="fill-card-frame-dark" d="m220.36,414.46c-1.87.09-5.33,3.73-5,4.88.72,2.52,3.1,5.73,5.39,6.3,2.04.51,4.87-2.15,6.39-2.93.42-6.95-3.26-8.43-6.78-8.26Z"/>
    <path class="fill-card-frame-dark" d="m272.04,278.31c.74-6.38-2.37-7.9-5.58-7.71-1.87.11-4.93,2.53-5.1,4.16-.36,3.49.76,7.88,5.28,7.68,2.24-.1,4.34-3.26,5.39-4.13Z"/>
    <path class="fill-card-frame-dark" d="m260.77,239.61c1.73.32,4.02-2.39,6.07-3.77.02-.74.03-1.48.05-2.22-2.17-1.28-4.27-3.38-6.52-3.55-.21-.02-.47.05-.75.17v8.88c.38.25.77.43,1.15.5Z"/>
    <path class="fill-card-frame-dark" d="m275.13,398.34c-2.4.44-5.1,3.43-6.02,5.93-.45,1.24,2.68,5.33,4.38,5.46,2.38.17,4.93-2.17,7.41-3.44.1-.9.19-1.8.29-2.71-2.05-1.89-4.42-5.55-6.06-5.25Z"/>
    <path class="fill-card-frame-dark" d="m169.98,426.45c.3-1.9-2.77-4.33-5.53-8.18-2.49,3.6-4.68,5.44-5.04,7.58-.39,2.35.12,4.87,1.71,6.16h5.16c1.74-1.26,3.4-3.72,3.69-5.55Z"/>
    <path class="fill-card-frame-dark" d="m265.01,205.39c.29-7.61-1.45-11.54-5.39-12.11v24.25c3.17-1.11,5.13-5.43,5.39-12.14Z"/>
    <path class="fill-card-frame-dark" d="m145.78,418.52c-1.55,2.22-4.32,4.45-4.29,6.65.02,2.13,2.92,4.23,4.56,6.34,2.09-2.27,4.92-4.25,5.94-6.92.5-1.31-2.36-3.9-3.71-5.92-.83-.05-1.67-.1-2.5-.15Z"/>
    <path class="fill-card-frame-dark" d="m266.33,319.19c-2.86,3.77-5.92,6.33-5.45,7.48,1.09,2.72,3.5,6.16,6.01,6.79,4.36,1.09,5.11-3.44,4.77-6.39-.25-2.18-2.66-4.11-5.33-7.87Z"/>
    <path class="fill-card-frame-dark" d="m282.58,214.82c-.54,1.98.83,3.63,2.4,4.42,1.11.56,2.12.84,3.02.87v-8.32c-.62,0-1.23.05-1.83.15-1.6.28-3.14,1.24-3.59,2.88Z"/>
    <path class="fill-card-frame-dark" d="m271.36,167.92c-5.61,3.96-10.11,16.99-7.37,21.37,2.45,3.92,11.43,3.53,17.62-.76,5.61-3.9,6.94-10.13,3.29-15.5-4.52-6.67-8.95-8.33-13.54-5.1Z"/>
    <path class="fill-card-frame-dark" d="m278.58,199.38c2.89,1.67,6.49,1.93,9.42,1.01v-6.05c-2.27-1.63-3.57-4.73-7.72-1.73s-2.76,6.16-1.69,6.78Z"/>
    <path class="fill-card-frame-dark" d="m287.85,171.65c.04.26.09.49.15.73v-2.3c-.16.54-.23,1.07-.15,1.57Z"/>
    <path class="fill-card-frame-dark" d="m129.56,411.53c.39-3.1-.8-8.27-5.32-6.4-5.38,2.23-5.89,13.64,1.77,13.05,2.53-.19,3.27-4.33,3.56-6.66Z"/>
    <g>
      <path class="fill-card-frame-dark" d="m282.24,137.08c-.28-2.32-3.31-4.72-5.66-4.5-2.18.21-4.04,3.08-3.74,5.75.22,1.95,1.62,2.69,4.56,2.4,1.65-.16,2.9-.55,3.72-1.14l.99-1.26c.14-.38.18-.8.13-1.25Z"/>
      <path class="fill-card-frame-dark" d="m276.47,131.23c2.22.02,4.24-2.63,1.2-4.5-.83-.51-1.64-.55-2.31-.23,0,0-.94.9-1.09,1.45-.4,1.53.59,3.26,2.19,3.28Z"/>
      <path class="fill-card-frame-dark" d="m279.57,131.41c.34,1.05,1.7,1.93,2.82,2.46.28.13,2.63-.9,2.49-2.63s-2.13-2.76-3.33-2.61-2.19,2.14-1.98,2.78Z"/>
      <path class="fill-card-frame-dark" d="m271.94,134.49c.93-.45,1.99-1.95,1.86-2.85-.1-.68-1.11-2.11-2.08-1.84s-2.67,2.18-2.52,3.18c.24,1.52,2.27,1.73,2.73,1.5Z"/>
    </g>
    <g>
      <path class="fill-card-frame-dark" d="m277.8,207c-1.65-.64-4.34.52-5.03,2.16-.64,1.53.61,3.8,2.5,4.55,1.38.55,2.37-.12,3.23-2.18.48-1.16.67-2.13.57-2.89l-.48-1.11c-.2-.23-.47-.41-.79-.53Z"/>
      <path class="fill-card-frame-dark" d="m271.83,208.76c.81-1.47-.24-3.77-2.57-2.41-.64.37-.96.9-.98,1.45,0,0,.26.95.58,1.24.88.81,2.39.77,2.97-.29Z"/>
      <path class="fill-card-frame-dark" d="m273.06,206.75c.82.15,1.89-.44,2.65-1,.19-.14.34-2.08-.86-2.61s-2.61.43-2.93,1.29.64,2.23,1.15,2.32Z"/>
      <path class="fill-card-frame-dark" d="m272.38,212.94c.03-.78-.59-2.03-1.24-2.26-.49-.18-1.8-.01-1.97.73s.5,2.56,1.22,2.82c1.1.39,1.97-.9,1.98-1.29Z"/>
    </g>
    <g>
      <path class="fill-card-frame-dark" d="m255.97,420.87c-.57,1.43.43,3.78,1.87,4.39,1.33.56,3.31-.52,3.98-2.16.49-1.2-.09-2.07-1.89-2.82-1.01-.43-1.85-.59-2.51-.51l-.97.42c-.2.18-.36.4-.47.69Z"/>
      <path class="fill-card-frame-dark" d="m257.47,426.08c-1.28-.71-3.29.19-2.11,2.23.32.56.78.84,1.26.86,0,0,.83-.22,1.09-.5.71-.76.68-2.08-.24-2.59Z"/>
      <path class="fill-card-frame-dark" d="m255.73,425c.13-.72-.38-1.65-.86-2.31-.12-.16-1.81-.3-2.27.74s.37,2.27,1.11,2.56,1.94-.55,2.02-.99Z"/>
      <path class="fill-card-frame-dark" d="m261.12,425.62c-.68-.03-1.77.51-1.98,1.07-.16.42-.02,1.57.63,1.72s2.24-.43,2.46-1.06c.34-.96-.77-1.72-1.11-1.73Z"/>
    </g>
    <g>
      <path class="fill-card-frame-dark" d="m11,369.03c1.1-1.87.24-5.35-1.62-6.52-1.72-1.08-4.72-.02-6.01,2.12-.94,1.57-.33,2.9,2,4.35,1.31.82,2.45,1.23,3.38,1.26l1.44-.36c.32-.2.59-.48.8-.85Z"/>
      <path class="fill-card-frame-dark" d="m10.06,361.46c1.62,1.27,4.62.46,3.43-2.63-.33-.85-.89-1.34-1.57-1.48,0,0-1.2.13-1.62.46-1.16.9-1.41,2.73-.24,3.66Z"/>
      <path class="fill-card-frame-dark" d="m12.24,363.34c-.34.97.16,2.38.69,3.41.13.25,2.45.82,3.33-.53s0-3.24-.98-3.81-2.82.34-3.04.93Z"/>
      <path class="fill-card-frame-dark" d="m4.88,361.29c.94.19,2.57-.31,2.99-1.05.31-.55.38-2.18-.49-2.53s-3.2.1-3.66.92c-.69,1.26.69,2.56,1.16,2.66Z"/>
    </g>
    <g>
      <path class="fill-card-frame-dark" d="m24.89,421.06c-1.65-1.41-5.23-1.15-6.7.48-1.36,1.51-.83,4.65,1.06,6.28,1.38,1.2,2.8.82,4.63-1.22,1.03-1.15,1.64-2.2,1.83-3.11l-.11-1.48c-.14-.35-.37-.66-.7-.94Z"/>
      <path class="fill-card-frame-dark" d="m17.27,420.68c1.53-1.38,1.25-4.47-2.01-3.83-.89.17-1.47.65-1.72,1.29,0,0-.08,1.2.17,1.68.69,1.29,2.45,1.86,3.56.86Z"/>
      <path class="fill-card-frame-dark" d="m19.5,418.85c.89.5,2.37.25,3.47-.09.27-.08,1.23-2.27.05-3.37s-3.2-.55-3.92.31-.15,2.84.4,3.15Z"/>
      <path class="fill-card-frame-dark" d="m16.22,425.75c.35-.89.13-2.59-.52-3.12-.49-.4-2.08-.74-2.58.05s-.46,3.17.28,3.76c1.12.89,2.64-.24,2.82-.69Z"/>
    </g>
    <g>
      <path class="fill-card-frame-dark" d="m15.22,216.54c-1.04-1.77-4.32-2.64-6.12-1.63-1.68.93-2.17,3.89-.99,5.93.87,1.49,2.24,1.59,4.51.33,1.27-.71,2.14-1.46,2.59-2.22l.36-1.36c-.02-.35-.13-.7-.34-1.05Z"/>
      <path class="fill-card-frame-dark" d="m8.53,213.86c1.79-.76,2.49-3.61-.61-4.03-.85-.12-1.51.13-1.93.62,0,0-.44,1.05-.36,1.55.22,1.37,1.62,2.41,2.91,1.86Z"/>
      <path class="fill-card-frame-dark" d="m11.09,212.92c.64.72,2.04.95,3.13.98.27,0,1.8-1.65,1.08-2.99s-2.68-1.47-3.59-.93-1.01,2.49-.62,2.93Z"/>
      <path class="fill-card-frame-dark" d="m6.04,218.07c.59-.69.92-2.27.5-2.95-.31-.51-1.63-1.3-2.32-.75s-1.38,2.69-.9,3.44c.73,1.14,2.43.59,2.73.25Z"/>
    </g>
    <g>
      <path class="fill-card-frame-dark" d="m18.28,270.43c1.84-1.45,2.32-5.28.91-7.17-1.31-1.75-4.73-1.86-6.85-.21-1.55,1.21-1.46,2.78.32,5.14,1,1.33,1.98,2.19,2.9,2.58l1.59.2c.4-.08.78-.26,1.14-.54Z"/>
      <path class="fill-card-frame-dark" d="m20.28,262.46c1.13,1.91,4.45,2.26,4.46-1.31,0-.98-.38-1.69-1-2.09,0,0-1.25-.34-1.81-.17-1.51.45-2.48,2.19-1.66,3.57Z"/>
      <path class="fill-card-frame-dark" d="m21.74,265.21c-.72.84-.77,2.45-.63,3.69.03.3,2.14,1.78,3.54.76s1.26-3.26.5-4.2-2.96-.76-3.41-.25Z"/>
      <path class="fill-card-frame-dark" d="m15.15,260.28c.87.56,2.7.69,3.4.11.53-.43,1.22-2.04.49-2.73s-3.25-1.15-4.03-.5c-1.18.99-.3,2.84.13,3.12Z"/>
    </g>
    <g>
      <path class="fill-card-frame-dark" d="m14.72,45.22c-.28-2.32-3.31-4.72-5.66-4.5-2.18.21-4.04,3.08-3.74,5.75.22,1.95,1.62,2.69,4.56,2.4,1.65-.16,2.9-.55,3.72-1.14l.99-1.26c.14-.38.18-.8.13-1.25Z"/>
      <path class="fill-card-frame-dark" d="m8.96,39.37c2.22.02,4.24-2.63,1.2-4.5-.83-.51-1.64-.55-2.31-.23,0,0-.94.9-1.09,1.45-.4,1.53.59,3.26,2.19,3.28Z"/>
      <path class="fill-card-frame-dark" d="m12.06,39.55c.34,1.05,1.7,1.93,2.82,2.46.28.13,2.63-.9,2.49-2.63s-2.13-2.76-3.33-2.61-2.19,2.14-1.98,2.78Z"/>
      <path class="fill-card-frame-dark" d="m4.43,42.62c.93-.45,1.99-1.95,1.86-2.85-.1-.68-1.11-2.11-2.08-1.84s-2.67,2.18-2.52,3.18c.24,1.52,2.27,1.73,2.73,1.5Z"/>
    </g>
    <g>
      <path class="fill-card-frame-dark" d="m210.37,409.65c-1.12-2.05-4.82-3.17-6.92-2.09-1.95,1-2.62,4.35-1.35,6.72.93,1.73,2.5,1.9,5.12.55,1.48-.76,2.49-1.58,3.03-2.43l.46-1.53c-.01-.4-.12-.81-.34-1.21Z"/>
      <path class="fill-card-frame-dark" d="m202.85,406.34c2.07-.8,2.97-4.01-.55-4.62-.96-.17-1.73.09-2.23.63,0,0-.54,1.18-.47,1.75.19,1.56,1.75,2.81,3.25,2.24Z"/>
      <path class="fill-card-frame-dark" d="m205.8,405.36c.7.85,2.29,1.16,3.53,1.24.3.02,2.11-1.81,1.35-3.37s-3-1.78-4.06-1.19-1.25,2.8-.81,3.32Z"/>
      <path class="fill-card-frame-dark" d="m199.84,411.04c.7-.76,1.13-2.55.68-3.34-.34-.59-1.81-1.55-2.61-.94s-1.68,3.01-1.16,3.89c.78,1.33,2.75.77,3.1.39Z"/>
    </g>
  </g>
  <rect class="fill-white" x="28.38" y="33.31" width="231.24" height="365.39" rx="33.37" ry="33.37"/>
</svg>
