<svg xmlns="http://www.w3.org/2000/svg" viewBox="0 0 288 431.15">
<g id="ears">
    <path class="fill-cat-shade stroke-outline round stroke-3" d="m192.93,141.79c1.69-20.47,3.63-42.69,3.63-42.69,0,0-15.74,14.58-24.89,23.3l21.26,19.39Z"/>
    <polygon class="fill-cat-shade stroke-outline round stroke-3" points="112.96 139.56 109.64 98.86 134.53 122.17 112.96 139.56 112.96 139.56"/>
  </g>
  <g id="cat-light">
    <path class="fill-cat-light stroke-outline miter stroke-3" d="m196.6,159.59c0,23.24-17.51,42.08-42.9,42.08s-45.98-18.84-45.98-42.08,20.59-42.08,45.98-42.08,42.9,18.84,42.9,42.08Z"/>
    <path class="fill-cat-light stroke-outline miter stroke-3" d="m137.02,201.14c-17.96,4.38-37.51,30.39-38.57,49.36-2.31,41.65,18.97,48.81,31.62,50.52,14.27,1.93,34.72,1.41,48.2-.39,19.43-2.59,23.62-26.73,23.14-35.09-1.93-33.16-12.64-53.95-33.82-64.39h-30.57Z"/>
  </g>
  <g id="cheese-light">
    <polygon class="fill-cheese-light stroke-outline round stroke-3" points="46.95 318.26 90.72 275.06 141.82 290.87 46.95 318.26"/>
  </g>
  <g id="cheese-shade">
    <path class="fill-cheese-shade stroke-outline miter stroke-3" d="m142.41,291.02c-1.26,0-94.76,27.25-95.59,27.67-.84.42-1.73,46.91,0,48.64.47.47,13.12-2.94,28.92-7.47.03-.62.14-1.28.42-1.92.57-1.34,2.35-2.37,3.62-2.35,1.53.02,2.85-.22,4.04,1.06.21.23.33.48.4.76,25.26-7.35,54.14-16.21,54.85-16.92,1.26-1.26,4.61-49.47,3.35-49.47Z"/>
  </g>
  <g id="cat-shade">
    <path class="fill-cat-shade stroke-0" d="m150.61,245.89c1.83,11.16-.43,41.9,3,52.37.98,2.99,5.28,4.13,8.81,4.21,4.33.42,10.92,1.07,10.8-4.42.47-5.24-3.52-10.29-9.03-9.05,2.17-13.78,3.31-26.36,3.57-42.07l-17.15-1.04Z"/>
    <path class="fill-cat-shade stroke-0" d="m120.51,229.64c-19.53,12.58-29.88,31.37-32.99,47.9-1.46,7.74.92,13.6,5.51,9.9,1.38,1.74,4.41,2.81,5.67.38,6.55,6.15,5.14-3.26,4.29-7.19-3.14-14.52,12.79-22.36,26.84-36.19l-9.32-14.8Z"/>
    <path class="fill-cat-shade stroke-outline miter stroke-3" d="m201.7,273.34c6.65,9.54,11.79,23.88,2.89,35.57-8.82,11.59-59.18,3.66-49.74,23.14,5.97,12.32,42.31,7.52,54.37-5.49,9.56-12.77,11.59-26.09,6.94-41.36-1.47-5.28-9.95-18.3-14.46-20.53v8.68Z"/>
  </g>
  <g id="details">
    <path class="fill-black stroke-0" d="m120.01,228.77c-9.67,6.25-17.94,14.55-23.98,24.37-2.67,4.33-4.89,8.94-6.61,13.73-.79,2.2-1.48,4.45-2.05,6.72-.64,2.56-1.2,5.17-1.26,7.82-.05,2.35.18,5.3,1.9,7.1s4.05.99,5.74-.36h-1.41c1.82,2.23,5.62,3.11,7.24.18l-1.57.2c1.15,1.06,2.69,2.39,4.37,2.27,1.35-.1,2.19-1.18,2.55-2.41.38-1.33.33-2.77.15-4.13-.09-.7-.22-1.4-.41-2.09s-.5-1.25-.72-1.89-.25-1.65-.25-2.4c0-.89.1-1.77.29-2.64.42-1.91,1.21-3.69,2.19-5.38,2.45-4.23,5.89-7.84,9.38-11.23,4.82-4.69,9.96-9.03,14.99-13.48.97-.85-.45-2.26-1.41-1.41-4.37,3.86-8.81,7.64-13.06,11.63-3.65,3.42-7.23,7.01-10.11,11.12-2.25,3.2-4.08,6.9-4.25,10.87-.04.94.03,1.88.19,2.8.07.42.16.78.34,1.16.15.31.15.3.28.68.45,1.28.66,2.49.69,3.78,0,.37,0,.74-.03,1.11-.03.3-.03.39-.13.78-.04.14-.08.28-.13.42-.08.25.03,0-.09.21-.03.05-.07.11-.1.17-.1.19.03-.01-.02.04s-.27.26-.17.19c.16-.12-.41.22-.08.05-.03.01-.11.04-.13.04-.2-.02.21,0-.02,0-.08,0-.44-.04-.21,0-.15-.03-.3-.07-.45-.12-.69-.24-1.58-.98-2.22-1.57-.46-.43-1.25-.38-1.57.2-.98,1.78-3.13.6-4.1-.58-.37-.45-1.03-.31-1.41,0-.34.27-.73.52-1.13.68-.34.14-.5.17-.88.16-.2,0-.07,0-.02,0-.09-.02-.18-.04-.28-.07-.03,0-.18-.07-.02,0-.09-.04-.17-.09-.25-.14-.17-.1-.39-.32-.52-.5-1.16-1.6-1.2-3.96-1.12-5.85.1-2.41.65-4.8,1.24-7.13.55-2.17,1.2-4.31,1.96-6.41,3.33-9.25,8.62-17.8,15.32-24.98,4.28-4.58,9.12-8.6,14.38-12,1.08-.7.08-2.43-1.01-1.73h0Z"/>
    <path class="fill-black stroke-0" d="m149.65,246.16c.1.6.12.78.19,1.38s.12,1.17.17,1.76c.11,1.32.18,2.64.24,3.96.13,3.13.17,6.27.2,9.41.06,6.93.02,13.86.31,20.79.12,2.99.3,5.99.68,8.96.16,1.29.35,2.57.62,3.84.24,1.13.49,2.38,1.1,3.37,2,3.23,6.21,3.55,9.59,3.87,2.84.27,6.06.63,8.72-.65,1.25-.6,2.2-1.7,2.56-3.04.21-.79.22-1.63.23-2.44.02-.92-.1-1.86-.33-2.75-.88-3.46-3.63-6.35-7.26-6.76-.92-.1-1.84-.02-2.75.17l1.23,1.23c1.68-10.73,2.81-21.53,3.3-32.38.15-3.32.25-6.64.31-9.96.02-1.29-1.98-1.29-2,0-.19,11-.88,21.98-2.27,32.9-.38,2.98-.81,5.94-1.27,8.91-.12.76.43,1.4,1.23,1.23,3.16-.67,6.02,1.17,7.2,4.1.59,1.47.72,3.11.55,4.67-.13,1.15-.71,1.88-1.69,2.36-1.03.51-2.4.62-3.6.63-1.37.02-2.74-.1-4.11-.23-1.69-.16-3.3-.25-4.92-.81-1.3-.45-2.72-1.23-3.26-2.57-.37-.92-.56-1.96-.75-2.94-.22-1.14-.38-2.24-.51-3.35-.33-2.86-.5-5.75-.62-8.63-.27-6.55-.24-13.11-.29-19.67-.04-5.43,0-10.92-.65-16.32-.07-.54-.14-1.07-.23-1.61s-.75-.83-1.23-.7c-.57.16-.79.7-.7,1.23h0Z"/>
    <g>
      <path class="fill-accent-light stroke-0" d="m133.35,143.82c-18.33,1.21-9.25,21.68,4.63,15.53,5.97-2.38,7.38-16.39-4.63-15.53Z"/>
      <path class="fill-accent-shade stroke-0" d="m125.56,145.42c-2.55.24-3.04,12.23.13,13.51,3.56,1.71,12.92,2.22,14.43-.97.28-1-9.37-3.87-9.63-4.81-.23-.85-1.91-8-4.93-7.72Z"/>
      <path class="fill-black stroke-0" d="m131.78,148.7c-1.83.24-2.63,4.73-.37,6.01.43.24.82.39,1.31.34.62-.06,1.01-.58,1.42-.99.72-.72.8-1.88.61-2.82-.17-.85-.8-2.82-2.97-2.54Z"/>
      <ellipse class="fill-white stroke-0" cx="137.97" cy="146.23" rx="2.96" ry="2.97"/>
      <path class="fill-black stroke-0" d="m132.9,161.36c-6.36,0-10.98-4.22-10.98-10.03,0-6.23,6.45-9.06,12.45-9.06s9.51,3.13,9.51,9.06-4.62,10.03-10.98,10.03Zm1.47-17.03c-5.01,0-10.41,2.19-10.41,7.01s3.68,7.97,8.94,7.97,8.94-3.28,8.94-7.97-2.37-7.01-7.47-7.01Z"/>
    </g>
    <g>
      <path class="fill-accent-light stroke-0" d="m168.72,143.82c-18.45,1.21-9.31,21.68,4.66,15.53,6.01-2.38,7.42-16.39-4.66-15.53Z"/>
      <path class="fill-accent-shade stroke-0" d="m160.87,145.42c-2.57.24-3.06,12.23.13,13.51,3.58,1.71,13.01,2.22,14.53-.97.28-1-9.43-3.87-9.69-4.81-.23-.85-1.92-8-4.96-7.72Z"/>
      <path class="fill-black stroke-0" d="m167.19,149.76c-1.84.24-2.65,4.73-.37,6.01.43.24.82.39,1.32.34.62-.06,1.01-.58,1.43-.99.72-.72.8-1.88.62-2.82-.17-.85-.8-2.82-2.99-2.54Z"/>
      <circle class="fill-white stroke-0" cx="171.79" cy="146.84" r="2.97"/>
      <path class="fill-black stroke-0" d="m167.67,162.13c-6.14,0-10.6-4.05-10.6-9.62,0-6.1,5.86-9.4,11.38-9.4,5.99,0,9.86,3.69,9.86,9.4s-4.47,9.62-10.63,9.62Zm.77-16.97c-4.63,0-9.32,2.52-9.32,7.34,0,4.46,3.52,7.57,8.55,7.57s8.58-3.11,8.58-7.57-2.92-7.34-7.81-7.34Z"/>
    </g>
    <g>
      <ellipse class="fill-nose stroke-outline miter stroke-2 non-scaling-stroke" cx="149.5" cy="172.94" rx="7.14" ry="5.99"/>
      <path class="fill-black stroke-0" d="m161.57,188.72c.78-1.16-.47-2.49-1.51-1.04-2.04,2.87-4.76,3.45-7.47,1.64-3-2.23-2.5-6.4-2.79-9.7,0-1.32-2.05-1.32-2.05,0,.04,3.23-.05,6.93-2.09,9.6-2.3,2.32-5.61.84-7.1-1.68-.93-1.58-3.25-1.18-1.28,1.85,2.9,4.47,10.4,3.71,11.54-1.82,2.49,5.71,9.18,6.42,12.75,1.15Z"/>
    </g>
    <g>
      <path class="fill-black stroke-0" d="m153.13,204.66c-.46-.56-1.11-.68-1.8-.7-.89-.03-1.79-.06-2.51.54-1.33,1.1-1.48,3.18-.87,4.69.35.87.89,1.68,1.37,2.49.21.35.42.7.61,1.06.14.27.39.7.33,1.02,0,.01,0,.02,0,.03,0,.04-.02.07-.02.11-.02.31.19.46.42.48,0,0,.02,0,.03,0,.01,0,.02,0,.03,0,.23.04.47-.05.53-.36,0-.03,0-.06,0-.09,0-.02.01-.03.01-.05.07-.86.65-1.66,1.03-2.41.45-.89.88-1.8,1.12-2.77.31-1.22.6-3-.28-4.06Zm-.79,4.1c-.28.94-.72,1.82-1.17,2.68-.12.23-.24.46-.36.7-.28-.53-.63-1.04-.9-1.49-.81-1.38-1.69-2.78-1.05-4.43.3-.79.85-1.22,1.7-1.25.53-.01,1.37-.12,1.77.32.33.36.35.95.34,1.41-.01.7-.13,1.4-.33,2.06Z"/>
      <path id="fish-tag" class="fill-collar-tag stroke-outline round stroke-1 non-scaling-stroke" d="m167.27,212.91s-5.03.24-7.07,2.03c-.6.53-1,1.22-1.27,1.93-2.86-1.82-6.92-3.96-10.14-3.96-5.61,0-10.15,6.02-10.15,6.02,0,0,4.54,6.02,10.15,6.02,3.3,0,7.46-1.93,10.33-3.52.26.55.6,1.07,1.08,1.48,2.04,1.79,7.07,2.03,7.07,2.03,0,0-1.02-4.02-2.82-6.02,1.8-2,2.82-6.02,2.82-6.02Z"/>
      <path class="fill-black stroke-0" d="m145.81,216.36c-1.75.25-1.85,4.8.69,4.65,2.19-.61,2.24-4.73-.69-4.65Z"/>
    </g>
    <path id="collar" class="fill-black stroke-0" d="m140.51,200.42c-4.34.79-5.87,1.4-9.98,3.39,13.19,6.5,33.74,5.09,42.28.19-6.99-5.43-22.29-2.84-32.31-3.58Z"/>
    <path class="fill-black stroke-0" d="m97.71,292.05c-2.52.42-3.11,2.08-2.96,2.73.24,2.21,4.22,2.28,7.58,2.09,7.8-.28,7.78-7.24-4.61-4.82Z"/>
    <path class="fill-black stroke-0" d="m102.37,326.66c-2.45,2.24-3.58,9.84,2.31,10.06,11.45,2.34,8.91-19.04-2.31-10.06Z"/>
    <path class="fill-black stroke-0" d="m68.66,327.94c-7.56.21-9.9,12.01-1.1,12.61,9.27,3.1,11.77-14.66,1.1-12.61Z"/>
    <path class="fill-black stroke-0" d="m75.96,301.24c-2.55,2.17-.85,4.21,2.1,3.11,6.29-3.03,2.33-5.52-2.1-3.11Z"/>
    <path class="fill-black stroke-0" d="m124.34,300.26c-3.04-.3-6.6,1.78-7.07,3.48-2.75,15.96,25.83-.22,7.07-3.48Z"/>
    <g>
      <line class="fill-none stroke-outline miter stroke-2 non-scaling-stroke" x1="87.61" y1="188.75" x2="127.23" y2="171.62"/>
      <line class="fill-none stroke-outline miter stroke-2 non-scaling-stroke" x1="89.68" y1="203.15" x2="125.16" y2="178.78"/>
      <line class="fill-none stroke-outline miter stroke-2 non-scaling-stroke" x1="106.62" y1="211.91" x2="129.4" y2="181.03"/>
      <line class="fill-none stroke-outline miter stroke-2 non-scaling-stroke" x1="196.36" y1="205.81" x2="166.93" y2="182.8"/>
      <line class="fill-none stroke-outline miter stroke-2 non-scaling-stroke" x1="206.88" y1="196.07" x2="172.01" y2="178.07"/>
      <line class="fill-none stroke-outline miter stroke-2 non-scaling-stroke" x1="213.26" y1="181.27" x2="172.18" y2="173.15"/>
    </g>
    <rect id="card-bounds" class="fill-none stroke-0" width="288" height="431.15" pointer-events="none"/>
  </g>
</svg>
