<?xml version="1.0" encoding="UTF-8"?>
<svg xmlns="http://www.w3.org/2000/svg" viewBox="0 0 288 431.15">
  <defs>
    <style>
      .fill-cat-light { fill: var(--cat-light); }
      .fill-cat-shade { fill: var(--cat-shade); }
      .fill-mouse-light { fill: var(--mouse-light); }
      .fill-mouse-shade { fill: var(--mouse-shade); }
    </style>
  </defs>
  <g id="Cat_body_light">
    <path class="fill-cat-light stroke-outline miter stroke-3" d="m108.06,171.34c11.87,14.17,55.42,19.09,73.21,12.42,38.57-14.45,49.96-35.83,45.18-54.96-3.49-13.97-5.97-20.7-13.55-32-10.92-16.28-44.42-19.58-60.99-12.05-32.96,14.98-57.37,35.56-57.37,59.17,5.75,11.65,6.53,13.24,13.53,27.42Z"/>
  </g>
  <g id="Collar_fish">
    <path class="fill-black stroke-0" d="m132.74,184.1c-2.19,4.09-5.07,5.63-6.13,10.31,20.95-.18,30.79-16.44,30.86-33.26.04-8.49-4.86-9.98-6.19-9.29-6.58,3.43-3.45,14.5-7.81,20.7-3.41,4.84-8.03,7.8-10.73,11.53Z"/>
    <g>
      <path class="fill-black stroke-0" d="m138.9,191.82c-.46-.56-1.11-.68-1.8-.7-.89-.03-1.79-.06-2.51.54-1.33,1.1-1.48,3.18-.87,4.69.35.87.89,1.68,1.37,2.49.21.35.42.7.61,1.06.14.27.39.7.33,1.02,0,.01,0,.02,0,.03,0,.04-.02.07-.02.11-.02.31.19.46.42.48,0,0,.02,0,.03,0,.01,0,.02,0,.03,0,.23.04.47-.05.53-.36,0-.03,0-.06,0-.09,0-.02.01-.03.01-.05.07-.86.65-1.66,1.03-2.41.45-.89.88-1.8,1.12-2.77.31-1.22.6-3-.28-4.06Zm-.79,4.1c-.28.94-.72,1.82-1.17,2.68-.12.23-.24.46-.36.7-.28-.53-.63-1.04-.9-1.49-.81-1.38-1.69-2.78-1.05-4.43.3-.79.85-1.22,1.7-1.25.53-.01,1.37-.12,1.77.32.33.36.35.95.34,1.41-.01.7-.13,1.4-.33,2.06Z"/>
      <path class="fill-collar-tag stroke-outline round stroke-1 non-scaling-stroke" d="m153.04,200.06s-5.03.24-7.07,2.03c-.6.53-1,1.22-1.27,1.93-2.86-1.82-6.92-3.96-10.14-3.96-5.61,0-10.15,6.02-10.15,6.02,0,0,4.54,6.02,10.15,6.02,3.3,0,7.46-1.93,10.33-3.52.26.55.6,1.07,1.08,1.48,2.04,1.79,7.07,2.03,7.07,2.03,0,0-1.02-4.02-2.82-6.02,1.8-2,2.82-6.02,2.82-6.02Z"/>
      <path class="fill-black stroke-0" d="m131.59,203.52c-1.75.25-1.85,4.8.69,4.65,2.19-.61,2.24-4.73-.69-4.65Z"/>
    </g>
  </g>
  <g id="Ears_shade">
    <path class="fill-cat-shade stroke-outline round stroke-3" d="m150.09,139.56c1.72-20.79,3.69-43.36,3.69-43.36,0,0-15.99,14.81-25.28,23.67l21.59,19.69Z"/>
    <polygon class="fill-cat-shade stroke-outline round stroke-3" points="67.19 138.9 63.82 97.57 89.1 121.23 67.19 138.9 67.19 138.9"/>
  </g>
  <g id="Paws_shade">
    <g>
      <path class="fill-cat-shade stroke-0" d="m82.51,189.62c-3.75.01-17.58,17.83-17.96,19.3-.31,3.43,3.11,5.27,5.35,2.41-.1,1.37-.26,2.9,1.58,3.72,1.43.64,4.24.2,4.44-1.48-.17,2.88-.66,3.8,2.34,3.81,9.3-1.68,8.87-17.17,15.8-22.58,6.58-4.79,14.61-1.63,7.29,10.5-2.94,4.88-10.36,11.52-7.33,17.41,2.77,1.47,2.71-.38,4.99-1.67.56.89,2.14,3.44,2.72,3.59,2.59.65,2.64-1.29,4.53-2.02,1.16.63.89,2.67,2.19,3.44,6.04,1.52,4.39-6,5.36-10.59,12.17-29.1,44.07-34.34-31.31-25.84Z"/>
      <path class="fill-black stroke-0" d="m82.51,188.62c-1.82.04-3.53,1.73-4.78,2.87-2.1,1.91-4.01,4.02-5.86,6.17s-3.68,4.4-5.41,6.68c-.94,1.24-2.07,2.53-2.73,3.96-.35.75-.23,1.72,0,2.48.28.95.85,1.78,1.66,2.35,1.76,1.22,3.97.45,5.22-1.09l-1.71-.71c-.07,1.03-.12,2.09.38,3.03s1.59,1.67,2.67,1.86c1.81.33,4.59-.22,4.95-2.39l-1.96-.27c-.07,1.14-.43,2.64.22,3.68.71,1.14,2.52,1.29,3.7,1.03,2.56-.56,4.56-2.26,6.05-4.35,3.19-4.49,4.14-10.15,6.91-14.87,1.25-2.13,2.92-3.87,5.22-4.79,1.07-.43,2.03-.65,3.11-.6.12,0,.23.01.35.03.17.02-.05-.02.16.03.23.05.45.11.68.18.06.02.12.04.17.06-.04-.01-.17-.08,0,0,.09.04.19.09.28.14s.18.11.26.16c.05.03.1.07.14.1-.08-.06-.06-.05,0,0,.62.56.96,1.28,1.05,2.11.14,1.35-.18,2.7-.62,3.97-1.19,3.43-3.42,6.26-5.57,9.13s-4.23,5.73-4.66,9.21c-.1.77-.07,1.54.06,2.31s.38,1.9.98,2.38c.65.53,1.78.83,2.61.73.69-.09,1.24-.45,1.75-.91.57-.51,1.08-1.02,1.74-1.41l-1.37-.36c.48.76.96,1.52,1.48,2.26s1.05,1.58,1.93,1.81c1.03.28,2.15.16,3.02-.47.66-.48,1.17-1.25,1.95-1.57l-.77-.1c.4.24.52.92.68,1.34.26.7.58,1.37,1.17,1.85.93.75,2.7.75,3.79.32,2.29-.9,2.69-3.6,2.89-5.76.11-1.24.14-2.49.25-3.73.1-1.12.24-1.77.66-2.73.7-1.57,1.47-3.11,2.31-4.61,1.53-2.75,3.27-5.38,5.13-7.92.42-.57.84-1.14,1.27-1.7.1-.13.2-.26.3-.39.11-.15.05-.06.05-.06.06-.08.12-.16.18-.23.2-.26.4-.51.6-.77.76-.97,1.53-1.92,2.3-2.88,1.23-1.54,2.51-3.07,3.55-4.75.67-1.09,1.37-2.45,1.01-3.77-.38-1.41-1.87-2.03-3.16-2.32-2.4-.53-4.94-.46-7.37-.39-4.33.12-8.66.5-12.98.9-6.62.61-13.22,1.34-19.83,2.07-2.02.22-4.03.45-6.05.68-.54.06-1,.42-1,1,0,.49.46,1.06,1,1,7.5-.84,14.99-1.69,22.5-2.43,4.88-.48,9.77-.94,14.67-1.16,1.62-.07,3.24-.12,4.85-.08.63.01,1.26.04,1.88.09.26.02.52.05.78.08.06,0,.12.02.18.02.03,0-.25-.04-.04,0,.12.02.24.04.36.06.39.07.79.15,1.17.27.08.03.16.05.24.08.06.02.34.14.13.05s.05.02.1.05c.07.04.13.07.2.11.06.03.11.07.17.1.21.11-.11-.12-.03-.03.06.07.18.19.25.25.04.03-.14-.26-.05-.06.02.04.05.11.08.14.13.16-.03-.16-.03-.08,0,.04.03.11.05.15.02.05,0,.11.03.15-.06-.11,0-.29-.02-.07,0,.11-.02.24-.01.35,0-.03.06-.28,0-.06-.02.06-.03.12-.04.19-.03.14-.08.27-.13.4-.02.05-.12.31-.04.1s-.03.07-.06.12c-.07.15-.15.31-.23.46-.18.33-.38.66-.59.97-.24.37-.49.72-.75,1.08-.14.2-.29.39-.44.59-.07.1-.15.2-.22.29-.04.05-.08.1-.11.15,0,0,.13-.17-.01.01-.71.91-1.44,1.81-2.16,2.72-1.81,2.25-3.59,4.52-5.26,6.88-1.94,2.75-3.72,5.62-5.25,8.62-.41.8-.8,1.62-1.17,2.44-.21.47-.44.95-.62,1.44-.22.59-.26,1.28-.32,1.9-.14,1.28-.17,2.58-.27,3.86-.05.6-.1,1.15-.2,1.71-.08.43-.26,1.13-.37,1.39-.09.22-.21.42-.34.62-.09.13.03,0-.11.14-.05.06-.24.24-.21.21-.26.21-.62.33-1,.35-.43.02-1.09.05-1.39-.29-.43-.5-.54-1.32-.81-1.91-.31-.68-1.03-1.63-1.89-1.4-.68.18-1.29.69-1.79,1.16-.37.35-.7.76-1.12.89-.26.08-.53.07-.8.03-.09-.01-.19-.06-.29-.06.21,0,.15.1.08.02.15.16-.08-.1-.13-.15-.82-.88-1.43-1.98-2.07-2.99-.29-.46-.89-.64-1.37-.36-.85.5-1.49,1.18-2.24,1.81-.16.14-.34.26-.51.27-.36.03-.87-.22-1.23-.41l.36.36c-1.31-2.63-.11-5.52,1.29-7.85,1.63-2.73,3.76-5.11,5.53-7.75s3.37-5.82,3.55-9.04c.11-2.03-.62-4.15-2.47-5.19s-4.02-.85-5.9-.19c-2.38.83-4.32,2.32-5.82,4.34-3,4.07-4.09,9.21-6.32,13.69-.98,1.96-2.22,3.96-4.04,5.14-.86.55-1.9,1.06-2.95,1.01-.26-.01-.45-.03-.69-.09-.06-.01-.35-.11-.16-.05-.04-.01-.07-.05-.11-.06-.06-.02.06.12,0-.01.1.19,0,0,0-.04,0,.17.01.02,0-.1,0-.03,0,.09,0-.1,0-.14,0-.28,0-.42.02-.64.09-1.28.13-1.92.07-1.11-1.78-1.39-1.96-.27-.08.48-.4.71-.93.87s-1.14.21-1.69.1-1.12-.4-1.35-.94c-.26-.61-.14-1.36-.09-2,.06-.83-1.16-1.37-1.71-.71-.8.98-2.01,1.59-2.99.6-.43-.43-.64-1.03-.68-1.63,0-.11,0-.22,0-.33,0-.17.05-.12-.01-.09.02,0,.04-.23-.02.04-.04.2.02-.03.07-.12.79-1.38,1.79-2.65,2.76-3.92,3.07-4.02,6.48-8.16,10.22-11.7.44-.42.89-.83,1.35-1.22s.62-.53,1.09-.85c.35-.24.71-.45,1.08-.65.2-.11-.17.05.03-.02.08-.02.15-.05.23-.08.06-.02.13-.03.19-.05.08-.03-.27.01,0,0,1.29-.03,1.29-2.03,0-2Z"/>
    </g>
  </g>
  <g id="Cat_head_light">
    <path class="fill-cat-light stroke-outline miter stroke-3" d="m152.68,155.91c0,23.24-17.51,42.08-42.9,42.08s-45.98-18.84-45.98-42.08,20.59-42.08,45.98-42.08,42.9,18.84,42.9,42.08Z"/>
  </g>
  <g id="Mouse_tail">
    <path class="fill-black stroke-0" d="m124.83,303.58c-3.43.88-6.83,1.89-10.27,2.72-1.56.38-3.13.7-4.72.94-.08.01-.16.03-.24.03.53-.02.31-.04.18-.02-.2.02-.39.05-.59.07-.39.04-.77.08-1.16.1-.71.05-1.42.06-2.13.04-.32-.01-.65-.03-.97-.06-.14-.01-.28-.03-.42-.04-.39-.03.43.07.16.02-.1-.02-.21-.03-.31-.05-.65-.11-1.29-.26-1.91-.47-.15-.05-.29-.1-.44-.15-.06-.02-.13-.05-.19-.07-.36-.12.38.18.15.06-.31-.15-.62-.29-.93-.45-.27-.15-.54-.31-.8-.49-.13-.09-.26-.18-.39-.27-.27-.18.14.11.15.12-.1-.04-.21-.17-.29-.24-.54-.45-1.03-.94-1.48-1.48-.12-.14-.29-.3-.38-.46.02.03.29.39.09.11-.06-.08-.12-.17-.18-.25-.24-.33-.46-.68-.67-1.02-.46-.77-.85-1.57-1.23-2.39-.21-.45.11.28,0-.01-.05-.12-.1-.24-.15-.36-.08-.2-.15-.4-.23-.6-.19-.52-.37-1.05-.54-1.59-1.16-3.7-1.38-7.68-3.59-10.99-1.72-2.57-4.19-4.47-7.02-5.68-3.06-1.32-6.31-2-9.6-2.46-3.78-.53-7.58-.84-11.37-1.25-.96-.1-1.92-.21-2.88-.33-.23-.03-.46-.06-.68-.09-.12-.02-.49-.07,0,0-.1-.01-.2-.03-.3-.04-.51-.07-1.02-.14-1.52-.22-1.93-.3-3.86-.67-5.76-1.14s-3.72-1.03-5.52-1.73c-.22-.08-.43-.17-.65-.26-.34-.14-.01,0,.05.02-.12-.05-.24-.1-.35-.15-.47-.21-.94-.43-1.4-.66-.86-.43-1.71-.89-2.53-1.39s-1.68-1.09-2.48-1.7-2.27-.16-2.74.72c-.56,1.05-.18,2.06.72,2.74,6.61,4.99,14.82,6.83,22.87,7.86,3.74.48,7.5.77,11.25,1.2.42.05.84.1,1.26.15.23.03.46.06.69.09.36.05-.07-.01-.12-.02.14,0,.27.04.41.06.84.12,1.69.25,2.53.4,1.59.29,3.17.65,4.71,1.15.34.11.68.23,1.01.35.16.06.33.13.49.19.05.02.41.17.08.03s.07.03.13.06c.65.29,1.29.62,1.9.99.3.18.59.37.88.57.11.07.28.15.35.26-.22-.31-.28-.22-.1-.08.1.08.2.16.29.24.53.45,1.02.94,1.46,1.47.09.11.21.22.28.34-.3-.55,0,0,.08.13.22.31.42.63.61.96.17.31.33.62.48.94.03.07.06.15.1.22.19.37-.13-.35-.03-.09.08.21.17.42.24.63.7,1.94.94,4.02,1.47,6.01,1,3.75,2.53,7.55,5.24,10.4,2.05,2.16,4.8,3.57,7.75,4,3.22.48,6.44.09,9.62-.55,3.38-.68,6.69-1.66,10.01-2.56.88-.24,1.77-.47,2.65-.7,1.01-.26,1.73-1.45,1.4-2.46s-1.37-1.67-2.46-1.4h0Z"/>
    <g>
      <path class="fill-accent-light stroke-outline miter stroke-2" d="m70.09,284.55c-2.76,2.52-8.12,10.36-5.11,14.19,3.5.74,17.12.1,16.35-4.54-1.74-3.08-5.47-10.95-11.24-9.65Z"/>
      <path class="fill-accent-light stroke-outline miter stroke-2" d="m70.32,275.92c-3.91-4.22-6.11-7.54-6.27-12.05,5.55.61,12.17,1.16,17.38,2.26-1.4,4.72-4.78,8.09-7.83,9.85-.07.36.1.73-3.28-.07Z"/>
      <path class="fill-accent-light stroke-outline miter stroke-2" d="m67.53,280.66c1.6,3.62,6.27,6.04,8.31,2.39,1.75-5.22-7.15-10.48-8.31-2.39Z"/>
    </g>
  </g>
  <g id="Mouse_light">
    <path class="fill-mouse-light stroke-outline miter stroke-3" d="m161.01,258.78c4.46-4.79,7.24-11.13,6.93-17.58-3.33-9.88-20.71-10.93-26.8-3.18-4.64,7.83-5.84,18.95,2.75,24.48,6.74,2.47,10.7,3.17,17.12-3.72Z"/>
    <path class="fill-mouse-light stroke-outline miter stroke-3" d="m200.85,251.1c-1.46-5.61-3.4-12.96,1.03-17.87,5.37-5.04,16.32-3.6,19.27,3.56,10.72,15.59-12.59,29.92-20.3,14.3Z"/>
    <path class="fill-mouse-light stroke-outline miter stroke-3" d="m170.42,272.64c-7.6,8.43-25.24,16.13-31.71,18.77-5.11,2.09-25.05,19.09-5.8,32.48,12.77,10.14,19.85,4.64,27.14-6.12,2.15-2.75,9.3-24.63,9.99-32.08.44-2.19,1.07-4.62,2.62-8.28.95-2.24-1.84-5.22-2.24-4.77Z"/>
    <path class="fill-mouse-light stroke-outline miter stroke-3" d="m161.72,258.43c8.96-9.64,34.29-15.78,40.22-3.41-.97,7.34-4.79,17.03-7.23,24.4-8.04,24.34-8.18,18.58-32.99-20.98Z"/>
  </g>
  <g id="Cat_tail_shade">
    <path class="fill-cat-shade stroke-outline round stroke-3" d="m224.6,119.02c9.54,6.66,19.31,18.34,15,32.39-4.27,13.93-54.27,23.88-38.69,38.89,9.86,9.5,42.31-7.56,49.13-23.93,4.56-15.29,1.87-28.49-7.77-41.21-3.21-4.44-15.66-13.74-20.66-14.28l3,8.14Z"/>
  </g>
  <g id="Details">
    <rect id="card-bounds" class="fill-none stroke-0" width="288" height="431.15" pointer-events="none"/>
    <path class="fill-black stroke-0" d="m193.38,307.9c-1.66-.19-3.3-.6-4.89-1.19.15-.03.29-.06.44-.08.26-.04.52-.08.78-.11,0,0,0,0,.01,0,.07-.01.15-.02.22-.02.16-.02.32-.03.49-.05.81-.08,1.62-.13,2.44-.19.57-.04,1.13-.45,1.11-1.07-.01-.55-.46-1.15-1.07-1.11-1.42.09-2.86.19-4.27.4-.83.13-1.72.3-2.39.84-.11.09-.19.18-.27.27-1.7-.87-3.3-1.93-4.72-3.16-3.5-3.02-6.27-6.94-7.87-11.2-.91-2.42-1.51-5.02-1.66-7.49-.04-.59-.45-1.1-1.07-1.11-.55-.01-1.15.48-1.11,1.07.32,4.99,1.99,9.84,4.73,14.02,2.73,4.16,6.47,7.72,10.94,9.95.28.14.57.25.86.38.3.51.68.98,1,1.36.88,1.04,1.82,2.02,2.73,3.03.38.43,1.15.45,1.54.03.42-.44.44-1.09.03-1.54-.44-.49-.89-.98-1.34-1.47,1.09.28,2.19.51,3.31.64.59.07,1.1-.52,1.11-1.07.01-.64-.48-1.04-1.07-1.11Z"/>
    <path class="fill-black stroke-0" d="m182.37,312.8c-1.65-.48-3.24-1.13-4.76-1.9,1.4,0,2.79.05,4.19.06.59,0,1.04-.63,1-1.18-.05-.63-.59-.99-1.18-1-1.48,0-2.95-.06-4.43-.06-.8,0-1.67-.03-2.43.25-.07.03-.12.07-.19.11-1.93-1.34-3.68-2.93-5.17-4.77-3.27-4.03-5.36-8.81-7.04-13.68-1.01-2.95-1.88-5.95-2.72-8.95-.16-.57-.87-.85-1.4-.66-.59.21-.82.83-.66,1.4,1.51,5.37,3.06,10.77,5.49,15.81,2.33,4.83,5.5,9.29,9.9,12.44.2.14.4.26.6.39.12.73.47,1.43.79,2.09.71,1.47,1.44,2.92,2.12,4.4.24.54.81.87,1.4.66.52-.19.9-.86.66-1.4-.58-1.29-1.21-2.56-1.84-3.83-.02-.05-.04-.09-.07-.14,1.72.86,3.51,1.57,5.38,2.11.57.16,1.17-.35,1.26-.89.11-.63-.32-1.1-.89-1.26Z"/>
    <ellipse class="fill-black stroke-0" cx="187.06" cy="293.72" rx="4.38" ry="5.22" transform="translate(-119.29 459.29) rotate(-85.9)"/>
    <g>
      <ellipse class="fill-black stroke-0" cx="178.55" cy="266.41" rx="3.69" ry="3.79" transform="translate(-99.95 425.44) rotate(-85.9)"/>
      <path class="fill-white stroke-0" d="m179.13,263.86c-1.39.1-1.73,3.69.28,3.71,1.76-.36,2.03-3.61-.28-3.71Z"/>
    </g>
    <g>
      <ellipse class="fill-black stroke-0" cx="192.17" cy="264.08" rx="3.69" ry="3.79" transform="translate(-84.98 436.87) rotate(-85.9)"/>
      <path class="fill-white stroke-0" d="m192.75,261.53c-1.39.1-1.73,3.69.28,3.71,1.76-.36,2.03-3.61-.28-3.71Z"/>
    </g>
    <g>
      <path class="fill-black stroke-0" d="m128.36,322.21c.24.81.45,1.64.57,2.48,0,.03.03.25,0,.06,0,.08.02.17.03.25.02.16.03.32.04.49.02.32.02.64,0,.95,0,.14-.02.28-.04.41-.02.19.04-.22,0-.04-.01.06-.02.13-.03.19-.06.25-.13.5-.2.75-.1.33.05-.08-.04.1-.05.1-.1.2-.15.3s-.11.19-.17.28c-.03.05-.06.09-.09.13-.15.23.18-.2,0,0-.14.16-.28.31-.44.46-.08.07-.16.14-.24.2.23-.19,0,0-.1.06-.18.12-.37.23-.56.33-.1.05-.2.1-.3.14-.15.07.22-.09.07-.03-.07.03-.13.05-.2.08-.47.18-.96.31-1.46.42-.24.05-.49.1-.74.14-.13.02-.25.04-.38.06-.06,0-.24.03.04,0-.08.01-.16.02-.24.03-2.21.24-4.43.22-6.64.41-1.93.17-4.27.43-5.73,1.87-.46.45-.41.99-.41,1.56v5.23c0,1.61,2.5,1.61,2.5,0v-5.86l-.37.88s.14-.1.15-.14c0-.02.08-.07.1-.09,0,0-.23.15-.12.09.14-.08.27-.18.41-.26s.28-.14.42-.21c-.34.16.14-.05.27-.09.35-.11.71-.2,1.07-.28.18-.04.37-.07.56-.1.09-.01.18-.03.26-.04-.29.04,0,0,.12-.01,1.76-.2,3.53-.21,5.29-.31,3.25-.18,7.56-.59,9.18-3.92,1.16-2.4.68-5.2-.05-7.65-.46-1.54-2.87-.88-2.41.66h0Z"/>
      <path class="fill-black stroke-0" d="m148.17,330.27c.78.1,1.56.25,2.32.47.71.2,1.08.33,1.67.66.25.13.48.28.71.45.12.08-.03-.02-.04-.04.05.04.11.09.16.13.1.09.2.18.29.27s.17.19.26.29c-.16-.19,0,0,.05.08.13.2.25.41.35.63.06.13-.04-.09-.04-.09.02.06.04.11.06.17.03.1.06.2.09.3s.05.2.07.31c.01.06.02.12.03.18.05.24-.01-.18,0-.01.04.48.05.95,0,1.43-.01.12-.02.23-.04.35.03-.26,0,.02-.02.12-.05.28-.1.55-.17.82-.13.53-.28,1.06-.45,1.58-.7,2.17-1.67,4.24-2.36,6.41-.32.99-.56,2.02-.63,3.06-.06.89-.02,2.43.86,2.92s1.9.84,2.83,1.24c.84.37,1.68.74,2.51,1.11.62.27,1.34.18,1.71-.45.31-.53.17-1.44-.45-1.71-1.79-.79-3.58-1.58-5.37-2.36l.57.75c-.05-.15-.09-.29-.13-.44-.02-.08-.03-.15-.04-.23.08.35,0,.11,0,.02-.01-.34-.02-.67.01-1.01,0-.09.02-.18.03-.27-.04.35,0,.03,0-.03.04-.19.07-.37.11-.56.09-.39.2-.78.31-1.17.53-1.72,1.25-3.37,1.88-5.05,1.17-3.13,2.34-7.08-.11-9.92-1.72-1.99-4.58-2.57-7.06-2.89-.67-.09-1.25.64-1.25,1.25,0,.75.58,1.16,1.25,1.25h0Z"/>
    </g>
    <g>
      <g>
        <path class="fill-accent-light stroke-0" d="m91.23,145.88c-18.45,1.21-9.31,21.68,4.66,15.53,6.01-2.38,7.42-16.39-4.66-15.53Z"/>
        <path class="fill-accent-shade stroke-0" d="m83.38,147.47c-2.57.24-3.06,12.23.13,13.51,3.58,1.71,13.01,2.22,14.53-.97.28-1-9.43-3.87-9.69-4.81-.23-.85-1.92-8-4.96-7.72Z"/>
        <path class="fill-black stroke-0" d="m89.64,150.75c-1.84.24-2.65,4.73-.37,6.01.43.24.82.39,1.32.34.62-.06,1.01-.58,1.43-.99.72-.72.8-1.88.62-2.82-.17-.85-.8-2.82-2.99-2.54Z"/>
        <circle class="fill-white stroke-0" cx="95.87" cy="148.28" r="2.97"/>
        <path class="fill-black stroke-0" d="m90.76,163.41c-6.4,0-11.05-4.22-11.05-10.03,0-6.23,6.5-9.06,12.53-9.06s9.57,3.13,9.57,9.06-4.65,10.03-11.05,10.03Zm1.48-17.03c-5.05,0-10.48,2.19-10.48,7.01s3.7,7.97,9,7.97,9-3.28,9-7.97-2.39-7.01-7.52-7.01Z"/>
      </g>
      <g>
        <path class="fill-accent-light stroke-0" d="m126.52,145.88c-18.45,1.21-9.31,21.68,4.66,15.53,6.01-2.38,7.42-16.39-4.66-15.53Z"/>
        <path class="fill-accent-shade stroke-0" d="m118.67,147.47c-2.57.24-3.06,12.23.13,13.51,3.58,1.71,13.01,2.22,14.53-.97.28-1-9.43-3.87-9.69-4.81-.23-.85-1.92-8-4.96-7.72Z"/>
        <path class="fill-black stroke-0" d="m124.98,151.81c-1.84.24-2.65,4.73-.37,6.01.43.24.82.39,1.32.34.62-.06,1.01-.58,1.43-.99.72-.72.8-1.88.62-2.82-.17-.85-.8-2.82-2.99-2.54Z"/>
        <circle class="fill-white stroke-0" cx="129.58" cy="148.89" r="2.97"/>
        <path class="fill-black stroke-0" d="m125.47,164.18c-6.14,0-10.6-4.05-10.6-9.62,0-6.1,5.86-9.4,11.38-9.4,5.99,0,9.86,3.69,9.86,9.4s-4.47,9.62-10.63,9.62Zm.77-16.97c-4.63,0-9.32,2.52-9.32,7.34,0,4.46,3.52,7.57,8.55,7.57s8.58-3.11,8.58-7.57-2.92-7.34-7.81-7.34Z"/>
      </g>
    </g>
    <g>
      <g>
        <ellipse class="fill-nose stroke-outline miter stroke-2" cx="108.52" cy="169.7" rx="7.25" ry="6.09"/>
        <path class="fill-black stroke-0" d="m120.77,185.72c.8-1.17-.48-2.53-1.53-1.05-2.07,2.92-4.84,3.5-7.58,1.66-3.05-2.26-2.54-6.5-2.83-9.85,0-1.34-2.08-1.34-2.09,0,.04,3.28-.05,7.04-2.13,9.75-2.33,2.36-5.69.85-7.21-1.71-.95-1.6-3.3-1.19-1.3,1.88,2.95,4.54,10.56,3.76,11.72-1.85,2.53,5.8,9.32,6.52,12.95,1.17Z"/>
      </g>
      <g>
        <line class="fill-none stroke-outline miter stroke-2 non-scaling-stroke" x1="40.52" y1="183.74" x2="82.01" y2="169.61"/>
        <line class="fill-none stroke-outline miter stroke-2 non-scaling-stroke" x1="46.37" y1="197.11" x2="83.7" y2="174.37"/>
        <line class="fill-none stroke-outline miter stroke-2 non-scaling-stroke" x1="57.83" y1="204.27" x2="86.96" y2="178.39"/>
        <line class="fill-none stroke-outline miter stroke-2 non-scaling-stroke" x1="161.99" y1="201.08" x2="129.37" y2="181.7"/>
        <line class="fill-none stroke-outline miter stroke-2 non-scaling-stroke" x1="169.41" y1="191.71" x2="131.77" y2="178.63"/>
        <line class="fill-none stroke-outline miter stroke-2 non-scaling-stroke" x1="172.87" y1="175.39" x2="130.43" y2="172.67"/>
      </g>
    </g>
    <g>
      <line class="fill-none stroke-outline miter stroke-2 non-scaling-stroke" x1="177.67" y1="284.19" x2="153.6" y2="275.43"/>
      <line class="fill-none stroke-outline miter stroke-2 non-scaling-stroke" x1="177.67" y1="285.27" x2="152.12" y2="287.06"/>
      <line class="fill-none stroke-outline miter stroke-2 non-scaling-stroke" x1="194.1" y1="282.91" x2="219.59" y2="280.51"/>
      <line class="fill-none stroke-outline miter stroke-2 non-scaling-stroke" x1="193.63" y1="281.94" x2="215.95" y2="269.37"/>
    </g>
  </g>
</svg>
