<?xml version="1.0" encoding="UTF-8"?>
<svg xmlns="http://www.w3.org/2000/svg" viewBox="0 0 288 431.15">
  <defs>
    <style>
      .fill-cat-light { fill: var(--cat-light); }
      .fill-cat-shade { fill: var(--cat-shade); }
      .fill-pillow-light { fill: var(--pillow-light); }
      .fill-pillow-shade { fill: var(--pillow-shade); }
    </style>
  </defs>
  <g id="Pillow_shade">
    <polygon class="fill-pillow-shade stroke-outline round stroke-2" points="44.89 295.2 201.88 303.67 208.38 297.74 227.29 190.45 44.89 295.2"/>
  </g>
  <g id="Pillow_light">
    <path class="fill-pillow-light stroke-outline round stroke-3" d="m199.15,298.8l-149.16-8.91c-1.93-.12-3.12-1.24-2.63-2.5l36.63-94.96c.49-1.26,2.26-2.25,3.94-2.2l129.77,3.73c1.68.05,2.87,1.17,2.64,2.5l-17.26,100.13c-.23,1.33-2,2.32-3.93,2.2Z"/>
    <g>
      <path class="fill-pillow-light stroke-outline round stroke-2" d="m229.82,313.83c.25-.73.8-1.52.7-2.32-.22-1.01.44-1.63,1.27-1.97-.94-1.12-.14-1.42.92-1.74-2.49-2.03-.46-1.92,1.51-1.67-6.83-4.52-17.61-11.52-25.05-4.91.29-1.34-.14-2.83-1.32-3.79-1.2-.25-2.47-.15-3.66.18-5.24,2.43-3.57,7.88,3.11,6.12.76-.41,1.29-1.03,1.61-1.74,3.66,8.14,15.02,6.68,20.9,11.83Z"/>
    </g>
    <g>
      <path class="fill-pillow-light stroke-outline round stroke-2" d="m37.37,317.43c-.67-.38-1.6-.61-2.06-1.28-.5-.9-1.41-.94-2.26-.64-.03-1.46-.83-1.16-1.84-.69.53-3.17-.92-1.74-2.23-.25,2.14-7.91,5.59-20.28,15.53-20.25-1.1-.82-1.77-2.21-1.51-3.71.73-.98,1.75-1.75,2.86-2.29,5.54-1.64,7.88,3.55,1.72,6.65-.84.19-1.65.08-2.36-.24,2.64,8.53-6.85,14.95-7.85,22.7Z"/>
    </g>
    <g>
      <path class="fill-pillow-light stroke-outline round stroke-2" d="m252.04,179.89c-.4-.66-.65-1.59-1.32-2.03-.92-.48-.97-1.39-.69-2.24-1.46,0-1.18-.81-.73-1.82-3.16.6-1.76-.88-.3-2.23-7.86,2.31-20.16,6.03-19.91,15.97-.84-1.08-2.25-1.72-3.75-1.43-.97.75-1.71,1.79-2.22,2.91-1.52,5.57,3.72,7.8,6.68,1.57.17-.84.05-1.66-.29-2.35,8.58,2.45,14.79-7.17,22.52-8.34Z"/>
    </g>
  </g>
  <g id="Pillow_decorations_shade">
    <g>
      <g>
        <path class="fill-pillow-shade" d="m98.1,265.92c2.23-1.55,4.3-3.85,7.19-3.95,6.29-3.43-6.08-1.56-8.68,2.38-.16-2.32,3.08-7.39,1.42-7.96-2.07-.71-3.11,3.54-4.43,5.38-.61-1.69-12.71-4.14-8.47-.6,2.97.13,5.46,1.18,7.05,2.73-3.82,1.7-12.13-.33-13.27,1.59-1.44,2.44,6.72,1.33,9.68,1.74-1.38.63-2.59,1.51-3.85,2.31-2.09.66-4.59,3.38-.55,2.6,1.99-.84,4.72-2.99,6.06-3.49.2-.13.7-.23.97-.31,0,0,0,0,0,0,.05,0,.12-.03.13-.03,0,0,0,0,0,0-.02,0-.05.01-.07.02.02,0,.04,0,.08,0,.44.56.44,1.39-.21,2.63-1.12,2.05-.38,7.4,2.04,2.41,1.54-1.27.76-6.46,3.75-4.33-.06-.03-.08-.05-.1-.06,1.02.72,1.89,1.78,2.07,3.05,3.11,2.87,3.68-2.31.91-3.88,10.73-.33,9.09-1.42-1.71-2.23Z"/>
      </g>
      <g>
        <path class="fill-pillow-shade" d="m114.68,216.53c2.23-1.55,4.3-3.85,7.19-3.95,6.29-3.43-6.08-1.56-8.68,2.38-.16-2.32,3.08-7.39,1.42-7.96-2.07-.71-3.11,3.54-4.43,5.38-.61-1.69-12.71-4.14-8.47-.6,2.97.13,5.46,1.18,7.05,2.73-3.82,1.7-12.13-.33-13.27,1.59-1.44,2.44,6.72,1.33,9.68,1.74-1.38.63-2.59,1.51-3.85,2.31-2.09.66-4.59,3.38-.55,2.6,1.99-.84,4.72-2.99,6.06-3.49.2-.13.7-.23.97-.31,0,0,0,0,0,0,.05,0,.12-.03.13-.03,0,0,0,0,0,0-.02,0-.05.01-.07.02.02,0,.04,0,.08,0,.44.56.44,1.39-.21,2.63-1.12,2.05-.38,7.4,2.04,2.41,1.54-1.27.76-6.46,3.75-4.33-.06-.03-.08-.05-.1-.06,1.02.72,1.89,1.78,2.07,3.05,3.11,2.87,3.68-2.31.91-3.88,10.73-.33,9.09-1.42-1.71-2.23Z"/>
      </g>
      <g>
        <path class="fill-pillow-shade" d="m186.12,219.07c2.23-1.55,4.3-3.85,7.19-3.95,6.29-3.43-6.08-1.56-8.68,2.38-.16-2.32,3.08-7.39,1.42-7.96-2.07-.71-3.11,3.54-4.43,5.38-.61-1.69-12.71-4.14-8.47-.6,2.97.13,5.46,1.18,7.05,2.73-3.82,1.7-12.13-.33-13.27,1.59-1.44,2.44,6.72,1.33,9.68,1.74-1.38.63-2.59,1.51-3.85,2.31-2.09.66-4.59,3.38-.55,2.6,1.99-.84,4.72-2.99,6.06-3.49.2-.13.7-.23.97-.31,0,0,0,0,0,0,.05,0,.12-.03.13-.03,0,0,0,0,0,0-.02,0-.05.01-.07.02.02,0,.04,0,.08,0,.44.56.44,1.39-.21,2.63-1.12,2.05-.38,7.4,2.04,2.41,1.54-1.27.76-6.46,3.75-4.33-.06-.03-.08-.05-.1-.06,1.02.72,1.89,1.78,2.07,3.05,3.11,2.87,3.68-2.31.91-3.88,10.73-.33,9.09-1.42-1.71-2.23Z"/>
      </g>
      <g>
        <path class="fill-pillow-shade" d="m173.98,269.9c2.23-1.55,4.3-3.85,7.19-3.95,6.29-3.43-6.08-1.56-8.68,2.38-.16-2.32,3.08-7.39,1.42-7.96-2.07-.71-3.11,3.54-4.43,5.38-.61-1.69-12.71-4.14-8.47-.6,2.97.13,5.46,1.18,7.05,2.73-3.82,1.7-12.13-.33-13.27,1.59-1.44,2.44,6.72,1.33,9.68,1.74-1.38.63-2.59,1.51-3.85,2.31-2.09.66-4.59,3.38-.55,2.6,1.99-.84,4.72-2.99,6.06-3.49.2-.13.7-.23.97-.31,0,0,0,0,0,0,.05,0,.12-.03.13-.03,0,0,0,0,0,0-.02,0-.05.01-.07.02.02,0,.04,0,.08,0,.44.56.44,1.39-.21,2.63-1.12,2.05-.38,7.4,2.04,2.41,1.54-1.27.76-6.46,3.75-4.33-.06-.03-.08-.05-.1-.06,1.02.72,1.89,1.78,2.07,3.05,3.11,2.87,3.68-2.31.91-3.88,10.73-.33,9.09-1.42-1.71-2.23Z"/>
      </g>
    </g>
    <g>
      <path class="fill-pillow-shade stroke-outline miter stroke-1" d="m116.45,217.15c-.76,2.36-4.06,4.17-7.37,4.04-3.31-.13-5.35-2.14-4.55-4.49s4.1-4.16,7.37-4.04c3.27.12,5.31,2.13,4.55,4.49Z"/>
      <path class="fill-pillow-shade stroke-outline miter stroke-1" d="m186.66,219.78c-.52,2.42-3.63,4.28-6.94,4.15-3.31-.13-5.54-2.19-4.98-4.6s3.67-4.27,6.94-4.15c3.27.12,5.5,2.18,4.98,4.6Z"/>
      <path class="fill-pillow-shade stroke-outline miter stroke-1" d="m100.6,266.56c-.76,2.36-4.24,4.12-7.79,3.93-3.54-.19-5.77-2.25-4.97-4.6s4.28-4.11,7.79-3.93c3.5.18,5.73,2.24,4.97,4.6Z"/>
      <path class="fill-pillow-shade stroke-outline miter stroke-1" d="m175.75,270.51c-.52,2.42-3.82,4.23-7.36,4.04-3.54-.19-5.96-2.3-5.4-4.71.56-2.41,3.86-4.22,7.36-4.04,3.5.18,5.92,2.29,5.4,4.71Z"/>
    </g>
  </g>
  <g id="Cat_body_light">
    <path class="fill-cat-light stroke-outline miter stroke-3" d="m109.75,224.71c11.87,14.17,55.42,19.09,73.21,12.42,38.57-14.45,49.96-35.83,45.18-54.96-3.49-13.97-5.97-20.7-13.55-32-10.92-16.28-44.42-19.58-60.99-12.05-32.96,14.98-57.37,35.56-57.37,59.17,5.75,11.65,6.53,13.24,13.53,27.42Z"/>
  </g>
  <g id="Collar_fish">
    <path class="fill-black stroke-0" d="m134.43,237.47c-2.19,4.09-5.07,5.63-6.13,10.31,20.95-.18,30.79-16.44,30.86-33.26.04-8.49-4.86-9.98-6.19-9.29-6.58,3.43-3.45,14.5-7.81,20.7-3.41,4.84-8.03,7.8-10.73,11.53Z"/>
    <g>
      <path class="fill-black stroke-0" d="m140.6,245.18c-.46-.56-1.11-.68-1.8-.7-.89-.03-1.79-.06-2.51.54-1.33,1.1-1.48,3.18-.87,4.69.35.87.89,1.68,1.37,2.49.21.35.42.7.61,1.06.14.27.39.7.33,1.02,0,.01,0,.02,0,.03,0,.04-.02.07-.02.11-.02.31.19.46.42.48,0,0,.02,0,.03,0,.01,0,.02,0,.03,0,.23.04.47-.05.53-.36,0-.03,0-.06,0-.09,0-.02.01-.03.01-.05.07-.86.65-1.66,1.03-2.41.45-.89.88-1.8,1.12-2.77.31-1.22.6-3-.28-4.06Zm-.79,4.1c-.28.94-.72,1.82-1.17,2.68-.12.23-.24.46-.36.7-.28-.53-.63-1.04-.9-1.49-.81-1.38-1.69-2.78-1.05-4.43.3-.79.85-1.22,1.7-1.25.53-.01,1.37-.12,1.77.32.33.36.35.95.34,1.41-.01.7-.13,1.4-.33,2.06Z"/>
      <path class="fill-collar-tag stroke-outline round stroke-1 non-scaling-stroke" d="m154.74,253.43s-5.03.24-7.07,2.03c-.6.53-1,1.22-1.27,1.93-2.86-1.82-6.92-3.96-10.14-3.96-5.61,0-10.15,6.02-10.15,6.02,0,0,4.54,6.02,10.15,6.02,3.3,0,7.46-1.93,10.33-3.52.26.55.6,1.07,1.08,1.48,2.04,1.79,7.07,2.03,7.07,2.03,0,0-1.02-4.02-2.82-6.02,1.8-2,2.82-6.02,2.82-6.02Z"/>
      <path class="fill-black stroke-0" d="m133.28,256.88c-1.75.25-1.85,4.8.69,4.65,2.19-.61,2.24-4.73-.69-4.65Z"/>
    </g>
  </g>
  <g id="Ears_shade">
    <path class="fill-cat-shade stroke-outline round stroke-3" d="m151.79,192.92c1.72-20.79,3.69-43.36,3.69-43.36,0,0-15.99,14.81-25.28,23.67l21.59,19.69Z"/>
    <polygon class="fill-cat-shade stroke-outline round stroke-3" points="68.88 192.26 65.51 150.93 90.79 174.6 68.88 192.26 68.88 192.26"/>
  </g>
  <g id="Cat_head_light">
    <path class="fill-cat-light stroke-outline miter stroke-3" d="m154.37,209.27c0,23.24-17.51,42.08-42.9,42.08s-45.98-18.84-45.98-42.08,20.59-42.08,45.98-42.08,42.9,18.84,42.9,42.08Z"/>
  </g>
  <g id="Cat_shade">
    <path class="fill-cat-shade stroke-outline round stroke-3" d="m226.3,172.38c9.54,6.66,19.31,18.34,15,32.39-4.27,13.93-54.27,23.88-38.69,38.89,9.86,9.5,42.31-7.56,49.13-23.93,4.56-15.29,1.87-28.49-7.77-41.21-3.21-4.44-15.66-13.74-20.66-14.28l3,8.14Z"/>
    <g>
      <path class="fill-cat-shade stroke-0" d="m83.61,243.11c-4.42,1.52-17.01,17.77-17.37,19.17-.31,3.43,3.11,5.27,5.35,2.41-.1,1.37-.26,2.9,1.58,3.72,1.43.64,4.24.2,4.44-1.48-.17,2.88-.66,3.8,2.34,3.81,8.76-1.58,8.89-15.42,14.67-21.54-3.85-1.79-8.23-4.17-11.02-6.1Z"/>
      <path class="fill-black stroke-0" d="m83.34,242.14c-1.88.67-3.45,2.23-4.86,3.59-2.03,1.97-3.92,4.09-5.74,6.24s-3.43,4.16-5.04,6.32c-.56.75-1.11,1.5-1.63,2.28-.28.43-.65.91-.79,1.41-.45,1.69.56,3.85,2.06,4.66,1.77.96,3.75.23,4.96-1.25l-1.71-.71c-.07,1.03-.12,2.09.38,3.03s1.59,1.67,2.67,1.86c1.81.32,4.59-.22,4.95-2.39l-1.96-.27c-.06,1.01-.32,2.18,0,3.17.34,1.1,1.37,1.48,2.41,1.59,2.27.24,4.56-1.08,6.12-2.65,3.37-3.38,4.67-8.38,6.45-12.68.95-2.29,2.04-4.63,3.74-6.46.4-.43.41-1.29-.2-1.57-3.79-1.77-7.56-3.73-11.02-6.1-1.06-.73-2.07,1-1.01,1.73,3.45,2.37,7.22,4.33,11.02,6.1l-.2-1.57c-3.07,3.29-4.42,7.81-6.06,11.89-1.39,3.46-3.21,7.83-7.02,9.09-.57.19-1.08.29-1.68.22-.18-.02-.35-.05-.54-.11-.07-.02-.2-.13-.05,0-.02-.02-.07-.12-.07-.13,0,.24,0-.07-.01-.14.01.24,0-.08,0-.1,0-.13,0-.25,0-.37.02-.64.09-1.28.13-1.92.07-1.11-1.78-1.39-1.96-.27-.08.48-.4.71-.93.87s-1.14.21-1.69.1-1.12-.4-1.35-.94c-.26-.61-.14-1.36-.09-2,.06-.83-1.16-1.37-1.71-.71-.73.9-1.82,1.53-2.8.78-.45-.35-.71-.89-.82-1.44-.02-.12-.04-.24-.04-.36s0-.46,0-.46c0,0-.11.22-.03.08.78-1.2,1.57-2.38,2.43-3.53,2.98-3.95,6.24-7.9,9.79-11.42.84-.83,1.71-1.65,2.63-2.39.05-.04.1-.08.15-.12.13-.1-.1.08.02-.02.1-.07.19-.14.29-.22.18-.13.36-.26.55-.38.17-.1.34-.21.51-.3.08-.04.16-.08.24-.12.1-.05-.1.04-.1.04.05-.02.11-.04.16-.06,1.2-.43.69-2.36-.53-1.93Z"/>
    </g>
    <g>
      <path class="fill-cat-shade stroke-0" d="m105.84,251.89c-.29,1.82-1.16,4.08-2.79,6.78-2.94,4.88-10.36,11.52-7.33,17.41,2.77,1.47,2.71-.38,4.99-1.67.56.89,2.14,3.44,2.72,3.59,2.59.65,2.64-1.29,4.53-2.02,1.16.63.89,2.67,2.19,3.44,6.04,1.52,4.39-6,5.36-10.59,3.46-8.27,8.51-14.6,12.24-19.25-4.19,1.5-18.83,2.64-21.91,2.31Z"/>
      <path class="fill-black stroke-0" d="m104.87,251.62c-.82,4.87-4.2,8.64-6.99,12.5-1.36,1.88-2.66,3.88-3.38,6.11-.64,1.97-.8,4.53.36,6.36.39.62,1.53.93,2.23,1.01.53.06,1.06-.03,1.54-.28.98-.51,1.64-1.48,2.59-2.04l-1.37-.36c.48.76.96,1.52,1.48,2.26s1.05,1.58,1.93,1.81c1.03.28,2.15.16,3.02-.47.66-.48,1.17-1.25,1.95-1.57l-.77-.1c.37.23.49.81.63,1.2.23.65.5,1.32,1.01,1.81.89.86,2.62.94,3.76.58,2.2-.69,2.79-3.04,3.04-5.06.29-2.34-.03-4.92.93-7.09,1.5-3.39,3.34-6.61,5.4-9.69,1.93-2.88,4.06-5.61,6.23-8.31.28-.35.4-.8.16-1.21-.21-.36-.72-.6-1.13-.46-2.61.92-5.51,1.19-8.25,1.51-3.29.38-6.6.66-9.91.79-1.15.04-2.33.1-3.49-.01-.54-.05-1,.5-1,1,0,.59.46.95,1,1,2.51.25,5.14-.04,7.64-.23,3.5-.26,7.01-.62,10.47-1.2,1.36-.23,2.75-.47,4.06-.93l-.97-1.67c-2.44,3.04-4.85,6.12-6.99,9.39-1.23,1.88-2.38,3.81-3.41,5.8-.57,1.09-1.1,2.2-1.59,3.32-.2.46-.45.93-.55,1.42-.09.39-.13.8-.18,1.21-.18,1.46-.2,2.93-.32,4.39-.09,1.14-.24,2.45-.78,3.35-.2.34-.51.62-.79.73-.5.18-1.02.19-1.63.06-.64-.13-.77-1.03-.97-1.56-.28-.75-.74-1.72-1.59-1.96s-1.92.78-2.5,1.33c-.5.48-.83.84-1.58.77-.09,0-.17-.03-.26-.04-.44-.07,0,.06-.11-.02.17.14-.09-.1-.13-.15-.27-.28-.49-.6-.71-.92-.47-.68-.91-1.38-1.35-2.07-.29-.46-.89-.64-1.37-.36-.85.5-1.49,1.18-2.24,1.81-.16.14-.34.26-.51.27-.36.03-.87-.22-1.23-.41l.36.36c-1.48-2.97.21-6.23,1.85-8.75,1.93-2.97,4.36-5.59,6.08-8.7,1.03-1.86,1.93-3.87,2.28-5.98.09-.53-.14-1.08-.7-1.23-.48-.13-1.14.16-1.23.7Z"/>
    </g>
  </g>
  <g id="Details">
    <rect id="card-bounds" class="fill-none stroke-0" width="288" height="431.15" pointer-events="none"/>
    <g>
      <g>
        <path class="fill-accent-light stroke-0" d="m92.92,199.24c-18.45,1.21-9.31,21.68,4.66,15.53,6.01-2.38,7.42-16.39-4.66-15.53Z"/>
        <path class="fill-accent-shade stroke-0" d="m85.07,200.83c-2.57.24-3.06,12.23.13,13.51,3.58,1.71,13.01,2.22,14.53-.97.28-1-9.43-3.87-9.69-4.81-.23-.85-1.92-8-4.96-7.72Z"/>
        <path class="fill-black stroke-0" d="m91.34,204.11c-1.84.24-2.65,4.73-.37,6.01.43.24.82.39,1.32.34.62-.06,1.01-.58,1.43-.99.72-.72.8-1.88.62-2.82-.17-.85-.8-2.82-2.99-2.54Z"/>
        <circle class="fill-white stroke-0" cx="97.57" cy="201.65" r="2.97"/>
        <path class="fill-black stroke-0" d="m92.46,216.77c-6.4,0-11.05-4.22-11.05-10.03,0-6.23,6.5-9.06,12.53-9.06s9.57,3.13,9.57,9.06-4.65,10.03-11.05,10.03Zm1.48-17.03c-5.05,0-10.48,2.19-10.48,7.01s3.7,7.97,9,7.97,9-3.28,9-7.97-2.39-7.01-7.52-7.01Z"/>
      </g>
      <g>
        <path class="fill-accent-light stroke-0" d="m128.21,199.24c-18.45,1.21-9.31,21.68,4.66,15.53,6.01-2.38,7.42-16.39-4.66-15.53Z"/>
        <path class="fill-accent-shade stroke-0" d="m120.36,200.83c-2.57.24-3.06,12.23.13,13.51,3.58,1.71,13.01,2.22,14.53-.97.28-1-9.43-3.87-9.69-4.81-.23-.85-1.92-8-4.96-7.72Z"/>
        <path class="fill-black stroke-0" d="m126.68,205.18c-1.84.24-2.65,4.73-.37,6.01.43.24.82.39,1.32.34.62-.06,1.01-.58,1.43-.99.72-.72.8-1.88.62-2.82-.17-.85-.8-2.82-2.99-2.54Z"/>
        <circle class="fill-white stroke-0" cx="131.28" cy="202.25" r="2.97"/>
        <path class="fill-black stroke-0" d="m127.16,217.54c-6.14,0-10.6-4.05-10.6-9.62,0-6.1,5.86-9.4,11.38-9.4,5.99,0,9.86,3.69,9.86,9.4s-4.47,9.62-10.63,9.62Zm.77-16.97c-4.63,0-9.32,2.52-9.32,7.34,0,4.46,3.52,7.57,8.55,7.57s8.58-3.11,8.58-7.57-2.92-7.34-7.81-7.34Z"/>
      </g>
    </g>
    <g>
      <g>
        <ellipse class="fill-nose stroke-outline miter stroke-2" cx="110.22" cy="223.06" rx="7.25" ry="6.09"/>
        <path class="fill-black stroke-0" d="m122.47,239.08c.8-1.17-.48-2.53-1.53-1.05-2.07,2.92-4.84,3.5-7.58,1.66-3.05-2.26-2.54-6.5-2.83-9.85,0-1.34-2.08-1.34-2.09,0,.04,3.28-.05,7.04-2.13,9.75-2.33,2.36-5.69.85-7.21-1.71-.95-1.6-3.3-1.19-1.3,1.88,2.95,4.54,10.56,3.76,11.72-1.85,2.53,5.8,9.32,6.52,12.95,1.17Z"/>
      </g>
      <g>
        <line class="fill-none stroke-outline miter stroke-2 non-scaling-stroke" x1="42.21" y1="237.11" x2="83.71" y2="222.97"/>
        <line class="fill-none stroke-outline miter stroke-2 non-scaling-stroke" x1="48.06" y1="250.47" x2="85.4" y2="227.73"/>
        <line class="fill-none stroke-outline miter stroke-2 non-scaling-stroke" x1="59.53" y1="257.63" x2="88.66" y2="231.76"/>
        <line class="fill-none stroke-outline miter stroke-2 non-scaling-stroke" x1="163.68" y1="254.45" x2="131.07" y2="235.06"/>
        <line class="fill-none stroke-outline miter stroke-2 non-scaling-stroke" x1="171.1" y1="245.08" x2="133.46" y2="232"/>
        <line class="fill-none stroke-outline miter stroke-2 non-scaling-stroke" x1="174.57" y1="228.76" x2="132.13" y2="226.03"/>
      </g>
    </g>
  </g>
</svg>
