<svg xmlns="http://www.w3.org/2000/svg" viewBox="0 0 288 431.15">
  <g id="Details">
    <rect width="288" height="431.15" class="fill-none stroke-0"/>
  </g>
  <g id="Cat">
    <g id="Ears_shade">
      <path d="m188.16,130.97c1.93-23.36,4.14-48.71,4.14-48.71,0,0-17.96,16.64-28.4,26.59l24.26,22.12Z" class="fill-cat-shade stroke-outline round stroke-3"/>
      <polygon points="96.92 128.43 93.13 82 121.53 108.59 96.92 128.43 96.92 128.43" class="fill-cat-shade stroke-outline round stroke-3"/>
    </g>
    <g id="Cat_head_light">
      <path d="m192.34,151.28c0,26.52-19.97,48.01-48.95,48.01s-52.46-21.49-52.46-48.01,23.49-48.01,52.46-48.01,48.95,21.49,48.95,48.01Z" class="fill-cat-light stroke-outline miter stroke-3"/>
    </g>
    <g id="Cat_body_light">
      <path d="m124.37,198.69c-20.49,4.99-42.8,34.68-44,56.31-2.64,47.52,21.65,55.68,36.08,57.63,16.28,2.2,39.61,1.61,54.99-.44,22.17-2.96,26.95-30.5,26.4-40.04-2.2-37.84-14.43-61.55-38.59-73.47h-34.88Z" class="fill-cat-light stroke-outline miter stroke-3"/>
    </g>
    <g id="Cat_paws">
      <g>
        <path d="m123.95,250.17c.85,15.81,5.54,34.37,5.76,50.02-7.75.09-15.26,7.92-10.76,14.76,5.83,4.8,40.03,5.46,45.23-.57,5.45-6.32-2.87-13.63-9.57-15.29-3.1.26-.75-6.42-.69-7.14,1.52-14.28,2.79-28.72,4.55-42.94l-34.53,1.16Z" class="fill-cat-shade stroke-0"/>
        <line x1="141.04" y1="250.26" x2="141.4" y2="317.16" class="fill-none stroke-outline round stroke-1"/>
        <path d="m123.29,250.19l6.23,49.13s-13.05,2.41-11.11,12.72c1.19,6.36,17.21,5.8,23.19,5.8,5.48,0,24.37.32,24.16-7.09-.32-11.28-12.75-12.16-12.75-12.16l6.07-48.98" class="fill-none stroke-outline miter stroke-2"/>
      </g>
    </g>
    <g id="Cat_tail">
      <path d="m198.17,281.06c7.59,10.89,13.45,27.24,3.3,40.59-10.06,13.23-67.52,4.18-56.75,26.4,6.81,14.06,48.28,8.58,62.03-6.27,10.9-14.57,13.23-29.76,7.92-47.19-1.68-6.02-11.35-20.88-16.5-23.43v9.9Z" class="fill-cat-shade stroke-0"/>
      <path d="m198.17,281.06c7.59,10.89,13.45,27.24,3.3,40.59-10.06,13.23-67.52,4.18-56.75,26.4,6.81,14.06,48.28,8.58,62.03-6.27,10.9-14.57,13.23-29.76,7.92-47.19-1.68-6.02-11.35-20.88-16.5-23.43v9.9Z" class="fill-cat-shade stroke-outline miter stroke-3"/>
      <path d="m198.17,281.06c7.59,10.89,13.45,27.24,3.3,40.59-10.06,13.23-67.52,4.18-56.75,26.4,6.81,14.06,48.28,8.58,62.03-6.27,10.9-14.57,13.23-29.76,7.92-47.19-1.68-6.02-11.35-20.88-16.5-23.43v9.9Z" class="fill-none stroke-outline miter stroke-3"/>
    </g>
    <g id="Details-2" data-name="Details">
      <g>
        <line x1="68" y1="184.56" x2="113.2" y2="165.01" class="fill-none stroke-outline miter stroke-2"/>
        <line x1="70.36" y1="200.99" x2="110.84" y2="173.17" class="fill-none stroke-outline miter stroke-2"/>
        <line x1="89.69" y1="210.97" x2="115.67" y2="175.75" class="fill-none stroke-outline miter stroke-2"/>
        <line x1="192.08" y1="204.02" x2="158.49" y2="177.77" class="fill-none stroke-outline miter stroke-2"/>
        <line x1="204.08" y1="192.91" x2="164.29" y2="172.37" class="fill-none stroke-outline miter stroke-2"/>
        <line x1="211.35" y1="176.02" x2="164.48" y2="166.76" class="fill-none stroke-outline miter stroke-2"/>
      </g>
      <g>
        <ellipse cx="138.61" cy="166.52" rx="8.15" ry="6.84" class="fill-nose stroke-outline miter stroke-2"/>
        <path d="m152.38,184.52c.89-1.32-.54-2.85-1.72-1.18-2.32,3.28-5.44,3.93-8.52,1.87-3.42-2.54-2.85-7.3-3.18-11.06,0-1.51-2.34-1.51-2.34,0,.04,3.69-.06,7.91-2.39,10.96-2.62,2.65-6.39.96-8.1-1.92-1.07-1.8-3.7-1.34-1.46,2.11,3.31,5.1,11.86,4.23,13.17-2.08,2.85,6.52,10.47,7.32,14.55,1.31Z" class="fill-black stroke-0"/>
      </g>
      <g>
        <path d="m120.27,133.3c-21.05,1.38-10.63,24.74,5.32,17.72,6.85-2.72,8.47-18.7-5.32-17.72Z" class="fill-accent-light stroke-0"/>
        <path d="m111.31,135.12c-2.93.27-3.49,13.95.14,15.41,4.08,1.95,14.84,2.53,16.57-1.11.32-1.14-10.76-4.41-11.06-5.49-.27-.97-2.19-9.13-5.66-8.81Z" class="fill-accent-shade stroke-0"/>
        <path d="m118.46,138.86c-2.1.27-3.03,5.4-.42,6.86.49.27.94.45,1.5.39.71-.07,1.16-.66,1.63-1.13.82-.82.91-2.14.7-3.22-.19-.97-.92-3.22-3.41-2.9Z" class="fill-black stroke-0"/>
        <circle cx="125.57" cy="136.04" r="3.39" class="fill-white stroke-0"/>
        <path d="m119.75,153.3c-7.31,0-12.61-4.81-12.61-11.44,0-7.1,7.41-10.34,14.3-10.34s10.92,3.58,10.92,10.34-5.3,11.44-12.61,11.44Zm1.69-19.43c-5.76,0-11.96,2.5-11.96,8s4.22,9.1,10.27,9.1,10.27-3.74,10.27-9.1-2.73-8-8.58-8Z" class="fill-black stroke-0"/>
      </g>
      <g>
        <path d="m160.54,133.3c-21.05,1.38-10.63,24.74,5.32,17.72,6.85-2.72,8.47-18.7-5.32-17.72Z" class="fill-accent-light stroke-0"/>
        <path d="m151.58,135.12c-2.93.27-3.49,13.95.14,15.41,4.08,1.95,14.84,2.53,16.57-1.11.32-1.14-10.76-4.41-11.06-5.49-.27-.97-2.19-9.13-5.66-8.81Z" class="fill-accent-shade stroke-0"/>
        <path d="m158.78,140.07c-2.1.27-3.03,5.4-.42,6.86.49.27.94.45,1.5.39.71-.07,1.16-.66,1.63-1.13.82-.82.91-2.14.7-3.22-.19-.97-.92-3.22-3.41-2.9Z" class="fill-black stroke-0"/>
        <circle cx="164.04" cy="136.73" r="3.39" class="fill-white stroke-0"/>
        <path d="m159.34,154.18c-7.01,0-12.1-4.62-12.1-10.98,0-6.96,6.69-10.72,12.98-10.72,6.83,0,11.25,4.21,11.25,10.72s-5.1,10.98-12.13,10.98Zm.88-19.36c-5.29,0-10.64,2.88-10.64,8.38,0,5.08,4.01,8.64,9.76,8.64s9.79-3.55,9.79-8.64-3.33-8.38-8.91-8.38Z" class="fill-black stroke-0"/>
      </g>
    </g>
    <g id="Collar">
      <path d="m128.34,197.87c-4.95.91-6.7,1.6-11.38,3.87,15.05,7.41,38.5,5.81,48.24.22-7.97-6.2-25.44-3.24-36.86-4.08Z" class="fill-black stroke-0"/>
      <g>
        <path d="m142.74,202.71c-.53-.63-1.27-.77-2.05-.8-1.02-.03-2.04-.06-2.87.62-1.52,1.25-1.69,3.63-.99,5.35.4,1,1.01,1.92,1.56,2.84.24.4.48.79.7,1.21.16.31.44.79.38,1.16,0,.01,0,.02,0,.03,0,.04-.02.08-.02.12-.03.35.21.53.48.55.01,0,.02,0,.03,0,.01,0,.02,0,.04,0,.27.05.54-.06.6-.41,0-.03,0-.07,0-.1,0-.02.01-.03.01-.05.08-.98.74-1.89,1.17-2.75.51-1.01,1-2.05,1.28-3.16.35-1.39.68-3.43-.32-4.63Zm-.9,4.67c-.32,1.07-.82,2.07-1.34,3.05-.14.26-.28.53-.41.8-.32-.61-.72-1.18-1.02-1.7-.92-1.58-1.93-3.17-1.2-5.05.35-.9.97-1.4,1.94-1.42.61-.01,1.56-.13,2.02.36.38.41.4,1.08.39,1.61-.01.79-.15,1.59-.37,2.35Z" class="fill-black stroke-0"/>
        <path d="m158.88,212.11s-5.74.27-8.07,2.31c-.69.6-1.14,1.39-1.45,2.2-3.27-2.08-7.89-4.52-11.57-4.52-6.4,0-11.58,6.87-11.58,6.87,0,0,5.19,6.87,11.58,6.87,3.76,0,8.51-2.2,11.78-4.01.29.63.69,1.22,1.23,1.69,2.33,2.05,8.07,2.31,8.07,2.31,0,0-1.17-4.59-3.22-6.87,2.05-2.28,3.22-6.87,3.22-6.87Z" class="fill-collar-tag stroke-outline round stroke-1"/>
        <path d="m134.4,216.06c-1.99.28-2.11,5.48.79,5.31,2.5-.69,2.55-5.39-.79-5.31Z" class="fill-black stroke-0"/>
      </g>
    </g>
  </g>
</svg>