<svg xmlns="http://www.w3.org/2000/svg" viewBox="0 0 288 431.15">
<g id="Cheese_shade">
    <path
      class="fill-cheese-shade stroke-outline miter stroke-3"
      d="m215.5,220.28c-1.85,0-139.25,40.05-140.48,40.67-1.23.62-2.54,68.93,0,71.47.69.69,19.29-4.32,42.5-10.97.05-.92.21-1.88.61-2.82.84-1.97,3.45-3.48,5.33-3.45,2.24.03,4.19-.33,5.93,1.56.31.33.48.71.58,1.11,37.12-10.81,79.56-23.82,80.6-24.86,1.85-1.85,6.78-72.7,4.93-72.7Z"
    />
  </g>
  <g id="Cheese_light">
    <polygon
      class="fill-cheese-light stroke-outline round stroke-3"
      points="75.21 260.31 139.53 196.82 214.63 220.06 75.21 260.31"
    />
  </g>
  <g id="Ball_light">
    <circle
      class="fill-ball-light stroke-outline miter stroke-3"
      cx="148.35"
      cy="166.45"
      r="54.21"
    />
  </g>
  <g id="Ball_shade">
    <g>
      <path class="fill-ball-shade stroke-outline round stroke-2" d="m200.47,177.42c-35.39,5.03-74.66-3.09-93.63-45.58,0,0-10.78,11.7-12.32,29.26,3.96,30.58,50.82,55.75,90.55,45.28,13.55-15.09,15.4-28.95,15.4-28.95Z"/>
    </g>
  </g>
  <g id="Ball_accent_stripe">
    <g>
      <path
        class="fill-accent-light stroke-0"
        d="m198.16,184.02c-40.21,7-77.98-6.87-93.91-47.93,0,0-5.78,8.31-8.31,16.99,3.98,30.72,49.81,60.22,92.46,48.29,9.04-10.84,9.76-17.35,9.76-17.35Z"
      />
      <path
        class="fill-black stroke-0"
        d="m198.03,183.54c-7.57,1.31-15.27,1.93-22.96,1.65-7.28-.26-14.54-1.33-21.54-3.35s-13.31-4.84-19.27-8.64-11.52-8.69-16.15-14.21c-5.04-6.02-9.07-12.86-12.17-20.07-.42-.98-.82-1.96-1.2-2.95-.16-.41-.66-.49-.91-.12-2.34,3.36-4.32,7.04-5.99,10.77-.69,1.54-1.32,3.1-1.85,4.69-.23.67-.59,1.41-.49,2.12.08.58.17,1.16.28,1.74.41,2.21,1.03,4.37,1.82,6.47,3.52,9.39,10.16,17.42,17.81,23.77,8.74,7.25,19.05,12.6,29.94,15.8,11.59,3.41,23.92,4.34,35.85,2.3,1.56-.27,3.11-.58,4.65-.95.71-.17,1.42-.35,2.13-.54.41-.11.67-.16.96-.48.32-.36.62-.75.92-1.13,1.95-2.45,3.78-5.01,5.34-7.73,1.45-2.52,2.88-5.31,3.42-8.2.03-.15.05-.3.07-.46.07-.64-.93-.63-1,0,0,.09.03-.18,0-.03-.02.1-.03.2-.05.29-.07.37-.17.74-.28,1.11-.41,1.41-.97,2.77-1.61,4.09-1.09,2.26-2.4,4.41-3.82,6.47-.97,1.41-2,2.78-3.08,4.11-.24.3-.49.74-.84.9-.32.14-.72.2-1.06.28-.77.2-1.54.39-2.32.56-11.64,2.61-23.83,2.25-35.39-.6-10.83-2.67-21.16-7.48-30.1-14.15-7.95-5.94-15-13.52-19.24-22.57-.95-2.03-1.75-4.13-2.36-6.29-.3-1.05-.55-2.11-.75-3.18-.1-.51-.18-1.02-.26-1.53-.11-.75.34-1.64.58-2.34,1.72-4.94,4.22-9.65,7.08-14.03.17-.26.34-.52.52-.78l-.91-.12c2.94,7.55,6.8,14.73,11.76,21.15,4.5,5.82,9.86,10.96,15.91,15.15,5.87,4.08,12.36,7.23,19.15,9.45s14.3,3.6,21.64,4.07c7.71.5,15.46.07,23.09-1.07.99-.15,1.98-.31,2.97-.48.63-.11.36-1.07-.27-.96Z"
      />
    </g>
  </g>
  <g id="Details">
    <path
      class="fill-black stroke-0"
      d="m149.8,221.8c-3.7.62-4.57,3.05-4.35,4.02.36,3.25,6.2,3.34,11.13,3.07,11.46-.42,11.44-10.64-6.78-7.09Z"
    />
    <path
      class="fill-black stroke-0"
      d="m156.65,272.66c-3.6,3.3-5.27,14.47,3.39,14.79,16.82,3.43,13.1-27.97-3.39-14.79Z"
    />
    <path
      class="fill-black stroke-0"
      d="m107.11,274.53c-11.11.31-14.55,17.65-1.62,18.53,13.63,4.56,17.3-21.54,1.62-18.53Z"
    />
    <path
      class="fill-black stroke-0"
      d="m117.84,235.3c-3.75,3.18-1.25,6.19,3.08,4.57,9.24-4.45,3.42-8.11-3.08-4.57Z"
    />
    <path
      class="fill-black stroke-0"
      d="m188.93,233.85c-4.47-.45-9.7,2.61-10.4,5.12-4.04,23.46,37.96-.32,10.4-5.12Z"
    />
    <g>
      <path
        class="fill-white stroke-0"
        d="m190.41,147.15c-.53-.03-.34,1.98-.26,3.05.11,1.46.13,1.99.58,2.96.53,1.15.68,1.74.99,3.55.36,2.1.61,4.37,1.21,6.1.53,1.52.73-.84.88-2.09.19-1.65.24-3.31-.13-5.17-.17-.87-.44-1.48-.63-2.31-.17-.75-.29-1.53-.49-2.25-.21-.75-.43-1.12-.68-1.7-.22-.52-.39-1.23-1.46-2.15Z"
      />
      <path
        class="fill-white stroke-0"
        d="m188.17,151.79c-.49-.05-.45,1.4-.44,2.17,0,1.05-.02,1.43.33,2.16.41.86.51,1.29.67,2.6.19,1.53.26,3.17.7,4.44.38,1.12.73-.56.95-1.45.29-1.18.45-2.36.23-3.72-.1-.63-.3-1.08-.43-1.69-.11-.55-.16-1.11-.3-1.64s-.32-.82-.51-1.25c-.17-.38-.27-.9-1.2-1.62Z"
      />
    </g>
    <rect class="fill-none" width="288" height="431.15" />
  </g>
</svg>
