<svg id="Cheese" xmlns="http://www.w3.org/2000/svg" viewBox="0 0 288 431.15">
  <g id="Cheese_shade">
    <path d="m224.87,161.06c-2.01,0-151.77,43.65-153.12,44.32-1.34.67-2.77,75.13,0,77.9.75.75,21.02-4.7,46.32-11.96.05-1,.23-2.04.67-3.07.91-2.15,3.76-3.8,5.81-3.77,2.44.04,4.57-.36,6.46,1.7.33.36.52.78.64,1.21,40.46-11.78,86.71-25.96,87.85-27.1,2.01-2.01,7.39-79.24,5.37-79.24Z" class="fill-cheese-shade stroke-outline miter stroke-3"/>
  </g>
  <g id="Cheese_light">
    <polygon points="71.97 204.69 142.07 135.49 223.93 160.82 71.97 204.69" class="fill-cheese-light stroke-outline round stroke-3"/>
  </g>
  <g id="Details">
    <rect width="288" height="431.15" class="fill-none stroke-0"/>
    <path d="m153.26,162.71c-4.03.67-4.98,3.33-4.75,4.38.39,3.54,6.76,3.65,12.13,3.34,12.49-.45,12.47-11.59-7.39-7.72Z" class="fill-black stroke-0"/>
    <path d="m160.74,218.15c-3.93,3.59-5.74,15.77,3.69,16.12,18.34,3.74,14.28-30.49-3.69-16.12Z" class="fill-black stroke-0"/>
    <path d="m106.74,220.19c-12.11.34-15.86,19.23-1.76,20.2,14.86,4.97,18.85-23.48,1.76-20.2Z" class="fill-black stroke-0"/>
    <path d="m118.43,177.43c-4.09,3.47-1.36,6.74,3.36,4.98,10.08-4.85,3.73-8.84-3.36-4.98Z" class="fill-black stroke-0"/>
    <path d="m195.92,175.85c-4.87-.49-10.57,2.85-11.33,5.58-4.4,25.57,41.37-.35,11.33-5.58Z" class="fill-black stroke-0"/>
  </g>
</svg>