<svg xmlns="http://www.w3.org/2000/svg" viewBox="0 0 321.35 483.89">
<g id="Game_screen_small">
    <rect id="board-play-area" class="fill-white stroke-0" x="28.32" y="85.25" width="231.2" height="365.32" rx="33.36" ry="33.36"/>
    <path class="fill-board-light stroke-0" d="m0,51.96v431.93h321.35V51.96H0Zm259.57,365.26c0,18.35-15.01,33.36-33.36,33.36H61.74c-18.35,0-33.36-15.01-33.36-33.36V118.62c0-18.35,15.01-33.36,33.36-33.36h164.47c18.35,0,33.36,15.01,33.36,33.36v298.6Z"/>
    <g class="fill-board-dark stroke-0">
      <path d="m5.84,390.62c4.42-.3,10.34-3.61,12.4-7.34,2.91-5.28-3.08-8.51-6.91-11.57-.92-.73-2.04-1.25-3.12-1.76-3.38-1.59-6.1-1.76-8.03-.54v18.69c1.32,1.67,3.17,2.69,5.66,2.52Z"/>
      <path d="m12.88,251.1c.1-4.52-3.94-7.21-11.04-7.34-.57-.01-1.12,0-1.65.02v19.77c.58.15,1.15.24,1.7.25,5.05.13,10.86-6.59,11-12.7Z"/>
      <path d="m15.18,221.32c.23-4.35-6.25-9.05-12.32-8.92-.94.02-1.83.16-2.67.39v21.51c5.74-.5,14.73-8.15,14.99-12.98Z"/>
      <path d="m1.81,326.69c5.36-.22,5.93-4.34,6-6.81.13-8.44-3.1-14.2-7.62-15.47v22.18c.56.09,1.1.13,1.62.11Z"/>
      <path d="m4.84,179.9c6.62.24,15.94-5.85,16.27-10.63.32-4.67-6.49-10.1-12.75-10.14-3.83-.03-6.56,1.45-8.18,4.39v14.58c1.05,1.15,2.58,1.73,4.65,1.81Z"/>
      <path d="m16.91,332.01c-4.87.29-7.55,3.32-7.07,8.01.45,4.51,2.47,8.88,4.78,12.66,1.1,1.8,5.15,3.31,7.2,2.71,2.79-.82,5.2-3.56,6.68-6.76v-11.83c-2.2-3.2-6.51-5.09-11.59-4.78Z"/>
      <path d="m18.02,224.66c-3.22,3-3.39,7.06.03,9.9,6.16,5.11,7.21-2.15,10.45-4.93v-.48c-3.44-2.07-4.26-10.27-10.48-4.48Z"/>
      <path d="m12.5,295.44c-.82-1.79-2.2-3.85-5.05-4.63-1.46-.4-5.7,2.99-5.55,4.34.31,2.84,2.43,7.47,4.24,7.68,2.66.31,9.44-.66,6.36-7.39Z"/>
      <path d="m8.78,274.95c-2.15-2.55-4.3-5.11-6.45-7.66-.7.64-1.41,1.28-2.14,1.94v10.39c.65.36,1.27.57,1.89.55,2.28-.06,4.47-3.35,6.69-5.22Z"/>
      <path d="m23.6,215.65c.18,2.15,2.93,5.52,4.9,6.11v-11.32c-2.87.1-5.17,2.02-4.9,5.21Z"/>
      <path d="m5.55,149.06c.16-1.43-1.52-4.54-5.37-4.66v11.28c.4-.07.8-.16,1.16-.25,2.97-.75,3.89-3.58,4.21-6.38Z"/>
      <path d="m3.14,399.57c.25-2.53-.28-6.23-2.95-7.14v9.97c.98-.93,2.83-1.6,2.95-2.82Z"/>
      <path d="m9.85,309.52c-.41,2.74-.33,7.25,4.62,7.37,4.69.11,6.07-3.68,6.25-7.1.11-2.06.12-3.74-4.11-4.21-4.61-.51-6.4,1.61-6.75,3.94Z"/>
      <path d="m5.98,209.94c2.04-.22,5.48-1.98,5.7-4.41.3-3.3-3.46-7.15-6.62-7.28-2.52-.1-3.9.73-4.87,1.99v8.12c1.6,1.24,3.95,1.78,5.8,1.58Z"/>
      <path d="m14.53,145.3c-2.77-.37-6.55,1.43-6.38,6.48.17,5.13,4.59,5.24,7.39,5.92,1.22.3,5.01-3.64,4.68-4.4-1.26-2.94-2.42-7.56-5.69-8Z"/>
      <path d="m18.93,190.9c.61-2.11-1.43-5.47-3.83-6.18-2.64-.77-3.4,1.23-4.13,3.04-.45,1.12-.61,2.37-.72,2.85-.16,2.76.08,4.58,2.66,4.7,2.38.11,5.36-2.12,6.02-4.4Z"/>
      <path d="m22.9,194.84c.76.25,2.14-1.32,3.9-2.53-1.49-1.51-2.52-3.24-3.22-3.11-1.21.22-3,1.5-3.1,2.48-.1,1.03,1.31,2.79,2.42,3.16Z"/>
      <path d="m18.84,194.64c-.93-.07-2.64,1.37-2.8,2.35-.15.91,1.29,2.08,2.03,3.13h1.22c.71-.91,2.13-1.97,1.97-2.69-.24-1.12-1.5-2.72-2.42-2.79Z"/>
      <path d="m21.18,188.05c.91.17,2.11-1.26,3.18-1.98,0-.39.02-.78.03-1.16-1.14-.67-2.24-1.77-3.42-1.86-.74-.06-2.4,1.67-2.25,2.12.39,1.16,1.45,2.69,2.46,2.88Z"/>
      <path d="m74.21,76.13c2.38.11,5.36-2.12,6.02-4.4.61-2.11-1.43-5.47-3.83-6.18-2.64-.77-3.4,1.23-4.13,3.04-.45,1.12-.61,2.37-.72,2.85-.16,2.76.08,4.58,2.66,4.7Z"/>
      <path d="m84.89,70.01c-1.21.22-3,1.5-3.1,2.48-.1,1.03,1.31,2.79,2.42,3.16.76.25,2.14-1.32,3.9-2.53-1.49-1.51-2.52-3.24-3.22-3.11Z"/>
      <path d="m80.14,75.46c-.93-.07-2.64,1.37-2.8,2.35-.15.91,1.29,2.08,2.03,3.13.41,0,.81,0,1.22,0,.71-.91,2.13-1.96,1.97-2.68-.24-1.12-1.5-2.72-2.42-2.79Z"/>
      <path d="m82.49,68.87c.91.17,2.11-1.26,3.18-1.98,0-.39.02-.78.03-1.16-1.14-.67-2.24-1.77-3.42-1.86-.74-.06-2.4,1.67-2.25,2.12.39,1.16,1.45,2.69,2.46,2.88Z"/>
      <path d="m24.67,290.2c2.2-1.69,3.41-3.06,1.81-5.08-1.48-1.88-5.1-2.67-7.27-1.67-2,.92-3.21,4.66-2.17,6.94,1.14,2.5,3.16,1.76,4.99,1.14,1.15-.39,2.19-1.09,2.63-1.32Z"/>
      <path d="m18.78,281.77c.85-.6,1.26-2.82.81-3.9-.31-.74-2.72-2.54-4.47-1.3-1.73,1.23-.8,4.03-.25,4.47.96.78,3.1,1.29,3.91.72Z"/>
      <path d="m25.94,277.16c-1.06-.45-2.88-.32-3.32.26-.69.91-1.08,2.91-.52,3.65.56.75,2.76,1.1,3.61.58.78-.48,1.34-2.33,1.04-3.58-.1-.39-.43-.76-.8-.91Z"/>
      <path d="m12.01,282.5c-.38.08-.76.38-.9.74-.45,1.24.12,2.85.83,3.81.44.6,2.84.73,3.08.32.62-1.06,1.09-2.86.57-3.75-.46-.8-2.31-1.39-3.58-1.11Z"/>
      <path d="m51.07,470.09c-2.36,1.4-1.41,3.33-.59,5.09.51,1.1,1.32,2.06,1.6,2.47,1.91,2,3.41,3.05,5.25,1.25,1.71-1.67,2.1-5.36.87-7.41-1.13-1.89-4.98-2.68-7.13-1.4Z"/>
      <path d="m63.79,471.26c.71-.39.49-2.46.8-4.58-2.12.06-4.09-.36-4.47.24-.67,1.04-.94,3.22-.29,3.96.69.78,2.94.94,3.96.38Z"/>
      <path d="m60.87,474.1c-.69.64-.79,2.86-.19,3.65.56.73,2.4.47,3.68.64l.82-.9c-.18-1.14.01-2.89-.62-3.27-.98-.58-3.01-.75-3.69-.12Z"/>
      <path d="m57.64,467.9c.74-.55.52-2.4.72-3.68-.28-.27-.56-.54-.84-.81-1.27.37-2.82.43-3.69,1.24-.55.51-.41,2.9.02,3.09,1.12.5,2.96.77,3.79.16Z"/>
      <path d="m22.55,326.2c0,1.99,3.04,6.09,5.95,5.96v-14.19c-4.38.28-5.96,6.11-5.95,8.23Z"/>
      <path d="m12.76,391.59c-2.08-.32-4.94,1.2-6.49,2.79-.77.79-1.13,3.76,2.03,5.27,3.4,1.62,5.34-.51,6.38-2.09,1.25-1.9,1.45-5.44-1.91-5.96Z"/>
      <path d="m15.23,272.12c1.24.41,7.25-1.35,7.23-5.95-.02-4.68-6.35-6.58-7.55-6.12-2.45.96-5.52,4.05-5.57,6.32-.04,1.99,3.41,4.93,5.88,5.74Z"/>
      <path d="m209.15,77.58c3.36,1.42,9.94-1.62,11.65-5.38,1.4-3.09-1.18-6.36-6.94-8.79-5.85-2.47-9.25-2.05-10.54,1.28-1.56,4.03,1.65,11.13,5.83,12.89Z"/>
      <path d="m208.74,80.78c-6.47-2.99-7.63,1.3-6.57,4.5h10.2c.35-1.99-1.56-3.54-3.62-4.5Z"/>
      <path d="m216.22,78.68c-2.1,1.42-2.04,4.05.39,5.21,4.79,2.29,6.48.04,6.82-2.2.8-5.26-4.77-4.66-7.21-3.01Z"/>
      <path d="m197.56,79.33c1.78.43,5.32-.15,6.19-2.23.94-2.25-1.24-5.18-3.03-6.55-1.8-1.38-5.78-1.08-7.06,2.24-1.28,3.33,2.49,6.2,3.9,6.54Z"/>
      <path d="m235.55,62.7c-2.17,1.34-3.11,6.3-1.67,8.8,1.19,2.05,4.09,1.91,7.81-.38,3.77-2.32,4.92-4.42,3.55-6.51-1.66-2.52-6.99-3.57-9.69-1.91Z"/>
      <path d="m234.44,60.58c4.8-2.74,1.83-5.4-.64-5.73-2.13-.28-4.33,1.34-4.24,3.35.18,3.98,2.84,3.54,4.88,2.37Z"/>
      <path d="m232.13,64.99c.04-1.77-1.47-2.8-3.12-1.89-3.24,1.79-2.65,3.67-1.51,4.77,2.66,2.59,4.58-.82,4.63-2.87Z"/>
      <path d="m243.5,60.18c1.51-.46,2.96-2.85,1.59-4.92-1.37-2.08-4.53-1.1-5.3-.43-.97.84-2.07,3.08-1.24,4.42.9,1.45,3.44,1.4,4.95.94Z"/>
      <path d="m186.29,67.63c1.45,1.25,3.16.6,5.3-2.04,2.11-2.59,2.51-4.79,1.08-5.89-1.75-1.35-5.62-1.14-6.85.38-1.54,1.88-1.28,6.04.47,7.55Z"/>
      <path d="m184.32,59.02c1.09-1.44,1.7-3.41-1.31-3.95-1.52-.27-2.98,1.23-2.98,2.88,0,1.92,1.72,4.44,4.29,1.07Z"/>
      <path d="m187.91,57.71c1.57.17,4.35-.94,2.65-3.23-.72-.97-2.09-1.61-3.78.67-.86,1.16-.23,2.41,1.12,2.56Z"/>
      <path d="m183.09,65.86c.5-1.1.8-3.03-.21-3.86-.93-.77-2.75-.15-3.49.5-.58.51-1.65,2.82-.21,4.07,1.44,1.25,3.4.4,3.9-.71Z"/>
      <path d="m15.98,123.83c2.3-2.45,1.78-9.11-.91-11.78-2.22-2.2-5.87-1.02-9.82,3.18-4,4.26-4.74,7.33-2.27,9.51,2.98,2.64,10.14,2.14,13-.91Z"/>
      <path d="m25.17,127.48c-1.61-5.01-4.84-3.53-7.04-1.34-5.18,5.14-.47,7.51,2.8,7.07,2.82-.38,5.06-3.2,4.24-5.74Z"/>
      <path d="m19.56,119.73c.56,2.27,2.85,3.06,4.62,1.34,3.51-3.4,2.11-5.58.28-6.6-4.28-2.38-5.55,2.62-4.91,5.26Z"/>
      <path d="m13.3,135.33c.94-1.4,1.58-4.65.06-6.06-1.65-1.54-4.87-.59-6.63.52-1.77,1.11-2.79,4.65-.32,6.82,2.46,2.17,6.15-.17,6.9-1.28Z"/>
      <path d="m19.93,434.12c3.7-2.04,6.56-6.97,5.42-9.34-1.17-2.42-6.99-3.57-9.88-1.94-3.23,1.82-3.79,5.23-1.58,9.49,1.44,2.78,3.27,3.32,6.04,1.8Z"/>
      <path d="m13.4,422.27c-.82-1.95-1.38-4.1-2.62-5.73-.37-.49-3.38.03-3.86.86-.73,1.25-.94,4.13-.23,4.61,1.55,1.03,3.82.98,5.79,1.38.31-.37.61-.74.92-1.11Z"/>
      <path d="m21.24,416.62c-.33-2.08-3.79-3.93-5.16-2.79-1.08.9-1.44,2.66-1.78,3.36,1.52,3.65,3.75,3.67,5.7,2.88.79-.31,1.41-2.35,1.24-3.46Z"/>
      <path d="m9.7,431.51c2.46-.72,1.93-3.43.88-4.62-.91-1.03-3.21-1.29-4.77-1.05-.69.1-3.17,2.38-2.01,4.58,1.24,2.34,4.46,1.52,5.91,1.1Z"/>
      <path d="m7.57,357.63c-1.38,1.17-1.33,2.86.13,4.7.95,1.2,1.88,1.29,3.06.3,1.59-1.32,2.5-3.95,1.73-4.98-.79-1.05-3.68-1.06-4.92,0Z"/>
      <path d="m2.96,355.82c-.23.67-.07,2.07.32,2.23.84.35,1.92.12,2.9.12.11-.21.22-.41.34-.62-.58-.86-1.04-1.84-1.79-2.5-.22-.2-1.62.33-1.77.77Z"/>
      <path d="m9.48,355.88c.35-.22.46-1.26.27-1.77-.35-.97-2.18-1.53-2.73-.86-.43.53-.44,1.41-.54,1.78,1.07,1.61,2.14,1.41,3,.85Z"/>
      <path d="m5.6,360.02c-.53-.41-1.66-.32-2.39-.06-.32.11-1.3,1.44-.54,2.38.81,1.01,2.28.31,2.94-.03,1.11-.57.6-1.82-.01-2.3Z"/>
      <path d="m17.73,403.85c-1.14,1.03-1.17,1.95-.1,3.08,1.42,1.5,4.1,2.24,5.08,1.41,1-.85.82-3.74-.3-4.91-1.26-1.3-2.94-1.15-4.68.42Z"/>
      <path d="m23.93,398.72c-.68-.19-2.07.06-2.2.46-.3.86,0,1.92.06,2.91.21.1.43.2.64.3.82-.63,1.77-1.16,2.38-1.94.18-.24-.43-1.59-.88-1.72Z"/>
      <path d="m26.74,402.6c-.56-.4-1.43-.35-1.81-.43-1.54,1.17-1.27,2.22-.66,3.05.25.33,1.28.38,1.79.16.94-.41,1.39-2.28.68-2.78Z"/>
      <path d="m19.9,401.61c.37-.55.21-1.68-.09-2.39-.13-.31-1.52-1.21-2.41-.39-.95.87-.17,2.29.21,2.93.64,1.07,1.86.49,2.29-.16Z"/>
      <path d="m59.97,67.74c1.15-.65,1.52-3.52.64-4.87-.99-1.52-2.67-1.69-4.67-.48-1.31.79-1.52,1.7-.69,3,1.11,1.74,3.6,2.98,4.72,2.35Z"/>
      <path d="m63.53,60.38c.23-.2-.12-1.65-.54-1.86-.63-.32-2.04-.33-2.25.03-.46.79-.36,1.89-.49,2.87.19.14.38.28.57.41.92-.46,1.95-.8,2.71-1.45Z"/>
      <path d="m62.09,64.99c.18.37,1.19.62,1.72.5,1.01-.23,1.8-1.97,1.2-2.6-.47-.5-1.34-.62-1.69-.77-1.73.85-1.67,1.94-1.23,2.87Z"/>
      <path d="m58.48,60.6c.47-.47.53-1.61.37-2.36-.07-.33-1.26-1.47-2.29-.84-1.1.68-.6,2.22-.35,2.91.43,1.18,1.73.83,2.28.28Z"/>
      <path d="m74.36,458.09c-1.51.25-2.04,1.01-1.75,2.53.38,2.03,2.24,4.11,3.51,3.94,1.3-.17,2.72-2.7,2.4-4.29-.35-1.77-1.85-2.56-4.16-2.18Z"/>
      <path d="m82.35,457.12c-.47-.53-1.77-1.07-2.1-.81-.71.56-1.04,1.62-1.52,2.48.12.2.25.4.37.6,1.03-.08,2.11-.02,3.06-.34.28-.1.5-1.57.19-1.92Z"/>
      <path d="m81.32,460.58c-1.93.15-2.27,1.18-2.21,2.21.03.41.87,1.01,1.42,1.1,1.02.16,2.4-1.16,2.08-1.97-.25-.64-1.02-1.07-1.29-1.34Z"/>
      <path d="m76.79,453.69c-1.27.22-1.38,1.84-1.41,2.58-.04,1.25,1.3,1.42,2.01,1.11.61-.26,1.09-1.29,1.22-2.05.06-.33-.62-1.84-1.82-1.63Z"/>
      <path d="m28.29,236.9c-1.83,2.26-4.67,4.33-5.12,6.84-.29,1.59,2.55,3.75,5.34,7.16v-13.79c-.07-.07-.15-.14-.22-.21Z"/>
    </g>
  </g>
  <g id="Buttons_under_tokens">
    <path id="answer-button-bg-pillow" class="fill-board-dark fill-answer-button-bg stroke-0" d="m276.18,409.56c-9.26-11.89-12.53-25.2-8.18-39.92,1.16-3.92,7.28-7.32,11.15-8.11,13.11-2.68,28.32,3.91,32.2,16.66,4.16,13.69-6.77,32.21-17.02,37.03-4.92,2.31-12.92-.39-18.14-5.65Z"/>
    <path id="answer-button-bg-ball" class="fill-board-dark fill-answer-button-bg stroke-0" d="m280.98,303.02c14.94,1.99,26.59,9.19,33.81,22.74,1.92,3.61-.06,10.32-2.27,13.6-7.47,11.1-22.94,17.06-34.64,10.68-12.56-6.85-17.75-27.72-13.81-38.34,1.89-5.1,9.49-8.77,16.9-8.68Z"/>
    <path id="answer-button-bg-cheese" class="fill-board-dark fill-answer-button-bg stroke-0" d="m264.49,277c1.47-15,8.26-26.9,21.55-34.59,3.54-2.05,10.32-.3,13.67,1.79,11.35,7.08,17.85,22.33,11.89,34.25-6.4,12.79-27.08,18.7-37.84,15.14-5.16-1.71-9.1-9.18-9.27-16.59Z"/>
    <path id="answer-button-bg-cat" class="fill-board-dark fill-answer-button-bg stroke-0" d="m280.39,183.14c14.99,1.58,26.84,8.45,34.43,21.8,2.02,3.56.22,10.32-1.89,13.65-7.16,11.3-22.46,17.69-34.33,11.64-12.75-6.5-18.51-27.22-14.86-37.94,1.75-5.15,9.24-9.03,16.65-9.15Z"/>
    <path id="answer-button-bg-mouse" class="fill-board-dark fill-answer-button-bg stroke-0" d="m269.69,166.43c-5.54-14.02-4.92-27.7,3.4-40.61,2.22-3.44,9.05-4.97,12.98-4.64,13.33,1.12,26.07,11.73,26.2,25.05.14,14.31-15.57,29-26.76,30.73-5.37.83-12.28-4.01-15.82-10.53Z"/>
  </g>
  <g id="Restart_button" data-board-control="restart">
    <g class="fill-board-dark stroke-0">
      <path d="m278.55,101.89c-12.24-4-18.11-10.27-15.77-16.85,2.85-8.01,15.84-15.38,22.99-13.05,8.89,2.89,16.71,16.91,14.2,25.46-2.07,7.07-8.99,8.51-21.42,4.44Z"/>
      <path d="m289.16,69.62c-5.23-1.91-10.09-6.02-3.19-12.44,3.49-3.25,9.77-1.76,12.53,2.51,3.2,4.97,2.94,14.4-9.34,9.92Z"/>
      <path d="m260.03,64.41c.31-4.66,3.4-9.57,13.63-5.7,5.18,1.96,5.76,7.35,1.69,10.63-4.72,3.81-16.06,5.99-15.32-4.94Z"/>
      <path d="m316.37,79.92c-1.64,5.62-8.11,6.66-11.25,4.64s-7.1-6.49-5.86-10.31c1.14-3.52,6.85-4.96,9.83-4.5,2.36.36,8.93,4.54,7.29,10.17Z"/>
    </g>
    <g class="fill-white stroke-0">
      <path d="m272.98,87.67c.11.61.83,1.03,1.61.95.78-.08,1.33-.64,1.22-1.25-.5-2.84.45-5.05,2.6-6.06,2.11-.99,5.16-.72,8.18.65-.35.57-.58,1.11-.61,1.52,0,.03.02.06.05.07,1.11.53,4.16-.12,5.23-.69.06-.03.11-.09.12-.14.29-.96-.08-3.28-.98-3.97-.03-.02-.07-.03-.11-.02-.69.15-1.47.68-2.18,1.35-2.28-1.06-4.6-1.61-6.74-1.61-1.61,0-3.13.31-4.45.93-3.18,1.49-4.62,4.5-3.96,8.26Z"/>
      <path d="m292.2,86.67c-.11-.61-.83-1.03-1.61-.95-.78.08-1.33.64-1.22,1.25.5,2.84-.45,5.05-2.6,6.06-2.11.99-5.16.72-8.18-.65.35-.57.58-1.11.61-1.52,0-.03-.02-.06-.05-.07-1.11-.53-4.16.12-5.23.69-.06.03-.11.09-.12.14-.29.96.08,3.28.98,3.97.03.02.07.03.11.02.69-.15,1.47-.68,2.18-1.35,2.28,1.06,4.6,1.61,6.74,1.61,1.61,0,3.13-.31,4.45-.93,3.18-1.49,4.62-4.5,3.96-8.26Z"/>
    </g>
  </g>
  <g id="Five_card_mode_button" data-board-control="five-card-mode">
    <g class="fill-board-dark stroke-0">
      <path d="m271.51,425.13c3.49-2.37,10.15-.52,12.46,1.29,2,1.56,2.61,7.01,2.7,9.17.22,5.45-2.02,5.35-5.99,7.88-3.66,2.33-8.09-2.48-11.01-5.67-2.61-2.85-3.85-8.83,1.83-12.68Z"/>
      <path d="m299.41,427.61c2.8,1.29,6.11,4.57,7.07,6.31,1.61,2.94,2.27,7.12.38,9.17-2.99,3.26-8.11,5.24-13.27,2.86-4.76-2.19-5.92-10.37-5.07-13.81.68-2.73,6.8-6.42,10.9-4.53Z"/>
      <path d="m259.32,457.66c-1.03-6.74,2.44-11.23,6.64-12.36,4.21-1.12,12.03-.33,13.06,4.26.41,1.82.29,6.07-.86,7.93-1.54,2.48-4.39,3.84-6.26,4.59-2.6,1.04-11.54,2.36-12.57-4.42Z"/>
      <path d="m312.3,465.11c-1.03,3.07-3.85,3.31-6.74,3.62-3.24.34-6.64.46-8.53-.86-3.57-2.5-4.42-9.93-3.88-13.22.7-4.28,7.11-5.53,10.58-4.86,2.74.54,10.77,8.82,8.58,15.32Z"/>
      <path d="m281.17,478.38c-3.2-.72-4.62-3.28-5.99-6.04-1.49-3.01-2.73-6.28-1.35-8.09,2.63-3.47,8.23-8.14,12.58-6.34,4.01,1.65,7.33,4.96,6.52,8.39-.64,2.72-4.75,13.67-11.76,12.09Z"/>
    </g>
  </g>
  <g id="Cat">
    <g>
      <path class="fill-cat-shade stroke-outline round stroke-2" d="m307.04,198.71c.72-8.75,1.55-18.25,1.55-18.25,0,0-6.73,6.23-10.64,9.96l9.09,8.29Z"/>
      <polygon class="fill-cat-shade stroke-outline round stroke-2" points="272.87 197.76 271.45 180.37 282.09 190.32 272.87 197.76 272.87 197.76"/>
    </g>
    <path class="fill-cat-light stroke-outline miter stroke-2" d="m308.61,206.32c0,9.93-7.48,17.98-18.33,17.98s-19.65-8.05-19.65-17.98,8.8-17.98,19.65-17.98,18.33,8.05,18.33,17.98Z"/>
    <g>
      <g>
        <path class="fill-accent-light stroke-0" d="m296.7,199.58c-7.88.52-3.98,9.27,1.99,6.64,2.57-1.02,3.17-7-1.99-6.64Z"/>
        <path class="fill-accent-shade stroke-0" d="m293.34,200.26c-1.1.1-1.31,5.23.05,5.77,1.53.73,5.56.95,6.21-.42.12-.43-4.03-1.65-4.14-2.06-.1-.36-.82-3.42-2.12-3.3Z"/>
        <path class="fill-black stroke-0" d="m296.04,202.12c-.79.1-1.13,2.02-.16,2.57.18.1.35.17.56.15.27-.03.43-.25.61-.42.31-.31.34-.8.26-1.21-.07-.36-.34-1.21-1.28-1.09Z"/>
        <circle class="fill-white stroke-0" cx="298.01" cy="200.87" r="1.27"/>
        <path class="fill-black stroke-0" d="m296.25,207.4c-2.63,0-4.53-1.73-4.53-4.11,0-2.61,2.5-4.02,4.86-4.02,2.56,0,4.21,1.58,4.21,4.02s-1.91,4.11-4.54,4.11Zm.33-7.25c-1.98,0-3.98,1.08-3.98,3.14,0,1.9,1.5,3.23,3.65,3.23s3.67-1.33,3.67-3.23-1.25-3.14-3.34-3.14Z"/>
      </g>
      <g>
        <path class="fill-accent-light stroke-0" d="m281.61,199.58c-7.88.52-3.98,9.27,1.99,6.64,2.57-1.02,3.17-7-1.99-6.64Z"/>
        <path class="fill-accent-shade stroke-0" d="m278.26,200.26c-1.1.1-1.31,5.23.05,5.77,1.53.73,5.56.95,6.21-.42.12-.43-4.03-1.65-4.14-2.06-.1-.36-.82-3.42-2.12-3.3Z"/>
        <path class="fill-black stroke-0" d="m280.94,201.66c-.79.1-1.13,2.02-.16,2.57.18.1.35.17.56.15.27-.03.43-.25.61-.42.31-.31.34-.8.26-1.21-.07-.36-.34-1.21-1.28-1.09Z"/>
        <circle class="fill-white stroke-0" cx="283.6" cy="200.61" r="1.27"/>
        <path class="fill-black stroke-0" d="m281.42,207.07c-2.74,0-4.72-1.8-4.72-4.28,0-2.66,2.78-3.87,5.36-3.87s4.09,1.34,4.09,3.87-1.99,4.28-4.72,4.28Zm.63-7.28c-2.16,0-4.48.94-4.48,2.99s1.58,3.41,3.85,3.41,3.85-1.4,3.85-3.41-1.02-2.99-3.21-2.99Z"/>
      </g>
      <g>
        <ellipse class="fill-cat-shade stroke-outline miter stroke-1" cx="288.48" cy="212.02" rx="3.05" ry="2.56"/>
        <path class="fill-black stroke-0" d="m293.64,218.76c.34-.49-.2-1.07-.64-.44-.87,1.23-2.04,1.47-3.19.7-1.28-.95-1.07-2.73-1.19-4.14,0-.56-.88-.57-.88,0,.02,1.38-.02,2.96-.89,4.1-.98.99-2.4.36-3.03-.72-.4-.67-1.39-.5-.55.79,1.24,1.91,4.44,1.58,4.93-.78,1.07,2.44,3.92,2.74,5.45.49Z"/>
      </g>
      <g class="fill-none stroke-outline miter stroke-1">
        <line x1="262.03" y1="218.78" x2="278.97" y2="211.46"/>
        <line x1="262.92" y1="224.93" x2="278.08" y2="214.52"/>
        <line x1="270.16" y1="228.67" x2="279.89" y2="215.48"/>
        <line x1="308.51" y1="226.07" x2="295.93" y2="216.24"/>
        <line x1="313" y1="221.91" x2="298.1" y2="214.21"/>
        <line x1="315.73" y1="215.58" x2="298.17" y2="212.11"/>
      </g>
    </g>
  </g>
  <g id="Mouse">
    <g id="Mouse_light" class="fill-mouse-light stroke-outline miter stroke-2">
      <path d="m277.86,145.18c2.19-3.11,3.28-6.98,2.59-10.67-2.7-5.42-12.79-4.65-15.68.29-2.05,4.87-1.86,11.37,3.52,13.87,4.08.89,6.41.98,9.56-3.5Z"/>
      <path d="m300.18,137.59c-1.29-3.11-2.99-7.19-.82-10.36,2.69-3.33,9.1-3.37,11.37.52,7.41,8.12-4.87,18.22-10.55,9.84Z"/>
      <path d="m278.24,144.91c4.39-6.26,18.48-11.8,22.87-5.15.02,4.3-1.41,10.18-2.22,14.61-2.7,14.64-3.23,11.34-20.65-9.46Z"/>
    </g>
    <g>
      <ellipse class="fill-black stroke-0" cx="295.62" cy="163.22" rx="3.03" ry="2.54" transform="translate(-10.03 19.66) rotate(-3.75)"/>
      <ellipse class="fill-black stroke-0" cx="288.55" cy="148.17" rx="2.2" ry="2.14" transform="translate(-9.06 19.16) rotate(-3.75)"/>
      <path class="fill-white stroke-0" d="m288.69,146.66c-.79.17-.7,2.26.46,2.11.99-.34.89-2.24-.46-2.11Z"/>
      <ellipse class="fill-black stroke-0" cx="296.21" cy="145.75" rx="2.2" ry="2.14" transform="translate(-8.89 19.66) rotate(-3.75)"/>
      <path class="fill-white stroke-0" d="m296.34,144.24c-.79.17-.7,2.26.46,2.11.99-.34.89-2.24-.46-2.11Z"/>
      <g id="Mouse_whiskers" class="fill-none stroke-outline miter stroke-1">
        <line x1="290.44" y1="160.27" x2="276.61" y2="165.77"/>
        <line x1="289.55" y1="159.1" x2="274.98" y2="162.15"/>
        <line x1="298.82" y1="156.44" x2="313.3" y2="153.03"/>
        <line x1="298.3" y1="158.03" x2="313.12" y2="156.68"/>
      </g>
    </g>
  </g>
  <g id="Cheese">
    <polygon class="fill-cheese-light stroke-outline round stroke-2" points="271.36 264.52 289.7 246.42 311.11 253.04 271.36 264.52"/>
    <path class="fill-cheese-shade stroke-outline miter stroke-2" d="m311.35,253.11c-.53,0-39.7,11.42-40.05,11.59-.35.18-.72,19.65,0,20.38.2.2,5.5-1.23,12.12-3.13.01-.26.06-.53.17-.8.24-.56.98-.99,1.52-.98.64,0,1.19-.09,1.69.44.09.09.14.2.17.32,10.58-3.08,22.68-6.79,22.98-7.09.53-.53,1.93-20.73,1.41-20.73Z"/>
    <g id="Cheese_holes" class="fill-black stroke-0">
      <path d="m292.72,251.66c-1.05.18-1.3.87-1.24,1.15.1.93,1.77.95,3.17.87,3.27-.12,3.26-3.03-1.93-2.02Z"/>
      <path d="m294.58,268.04c-1.03.94-1.5,4.12.97,4.22,4.8.98,3.73-7.97-.97-4.22Z"/>
      <path d="m279.76,267.56c-3.37.09-4.41,5.35-.49,5.62,4.13,1.38,5.24-6.53.49-5.62Z"/>
      <path d="m283.51,257.39c-1.07.91-.36,1.76.88,1.3,2.64-1.27.98-2.31-.88-1.3Z"/>
      <path d="m303.78,256.98c-1.27-.13-2.77.74-2.96,1.46-1.15,6.69,10.82-.09,2.96-1.46Z"/>
    </g>
  </g>
  <g id="Ball">
    <circle class="fill-ball-light stroke-outline miter stroke-2" cx="289.97" cy="323.68" r="18.32"/>
    <g>
      <path class="fill-ball-shade stroke-0" d="m307.68,327.53c-11.93,1.7-25.16-1.04-31.55-15.36,0,0-3.63,3.94-4.15,9.86,1.33,10.31,17.13,18.79,30.52,15.26,4.57-5.09,5.19-9.76,5.19-9.76Z"/>
      <path class="fill-black stroke-0" d="m307.55,327.04c-9.25,1.3-19.24-.3-25.91-7.35-2.15-2.27-3.8-4.94-5.08-7.78-.13-.29-.58-.32-.79-.1-2.18,2.38-3.61,5.7-4.12,8.84-.09.53-.22,1.11-.14,1.64.07.5.18.99.31,1.48.24.87.59,1.72,1,2.53.89,1.75,2.14,3.32,3.55,4.68,6.59,6.35,16.95,9.04,25.81,6.89.38-.09.57-.14.83-.42.29-.32.57-.66.84-1,.5-.63.98-1.28,1.41-1.95.71-1.08,1.32-2.23,1.83-3.42.46-1.08.91-2.25,1.07-3.42.09-.63-.88-.9-.96-.27-.11.84-.39,1.68-.69,2.47-.79,2.12-1.97,4.11-3.37,5.88-.22.28-.44.56-.68.82s-.37.31-.72.39c-.56.13-1.13.24-1.7.34-1.15.19-2.32.28-3.49.3-2.25.04-4.49-.2-6.68-.69-4.15-.94-8.19-2.75-11.48-5.46-2.8-2.3-5.19-5.36-5.85-9.01-.22-1.25.29-2.78.67-3.97.36-1.12.83-2.19,1.4-3.22.53-.96,1.13-1.92,1.87-2.74l-.79-.1c2.22,4.94,5.67,9.28,10.34,12.1,4.1,2.48,8.86,3.66,13.62,3.91,2.73.14,5.45-.04,8.15-.42.63-.09.36-1.05-.27-.96Z"/>
    </g>
    <g>
      <path class="fill-accent-light stroke-0" d="m306.8,329.62c-13.58,2.37-26.35-2.32-31.73-16.19,0,0-1.95,2.81-2.81,5.74,1.34,10.38,16.83,20.35,31.24,16.32,3.05-3.66,3.3-5.86,3.3-5.86Z"/>
      <path class="fill-black stroke-0" d="m306.66,329.14c-4.93.85-10.06.82-14.88-.58-4.56-1.32-8.65-3.91-11.72-7.54-1.93-2.29-3.41-4.94-4.5-7.72-.16-.41-.66-.49-.91-.12-.81,1.17-1.5,2.45-2.07,3.75-.22.49-.42.99-.59,1.5-.18.54-.21.88-.11,1.43.13.75.34,1.49.6,2.2,1.2,3.26,3.47,6.05,6.12,8.25,6.24,5.19,14.81,7.62,22.82,6.17.62-.11,1.23-.25,1.84-.41.64-.17.88-.56,1.28-1.07.69-.89,1.32-1.82,1.84-2.82.41-.79.83-1.66.93-2.55.08-.64-.93-.63-1,0,.02-.16.02-.1,0,0-.03.13-.06.25-.09.38-.13.45-.31.88-.51,1.31-.36.75-.8,1.47-1.27,2.16-.3.44-.61.88-.96,1.29-.36.43-.91.47-1.44.58-3.86.85-7.91.71-11.74-.25-6.62-1.65-13.38-5.86-16.38-12.2-.35-.75-.64-1.53-.85-2.34-.1-.4-.24-.84-.26-1.25-.02-.47.31-1.08.49-1.52.59-1.43,1.34-2.84,2.23-4.11l-.91-.12c1.93,4.93,5.03,9.32,9.39,12.39,4.08,2.86,8.97,4.34,13.92,4.68,3.02.21,6.05-.01,9.03-.52.63-.11.36-1.07-.27-.96Z"/>
    </g>
    <g>
      <path class="fill-white stroke-0" d="m304.18,317.16c-.18-.01-.11.67-.09,1.03.04.49.04.67.19,1,.18.39.23.59.33,1.2.12.71.21,1.48.41,2.06.18.51.25-.28.3-.71.06-.56.08-1.12-.05-1.75-.06-.29-.15-.5-.21-.78-.06-.25-.1-.52-.17-.76s-.15-.38-.23-.57c-.08-.17-.13-.42-.49-.73Z"/>
      <path class="fill-white stroke-0" d="m303.42,318.73c-.16-.02-.15.47-.15.73,0,.36,0,.48.11.73.14.29.17.43.23.88.06.52.09,1.07.24,1.5.13.38.25-.19.32-.49.1-.4.15-.8.08-1.26-.03-.21-.1-.37-.14-.57-.04-.19-.05-.38-.1-.55s-.11-.28-.17-.42c-.06-.13-.09-.31-.4-.55Z"/>
    </g>
  </g>
  <g id="Pillow">
    <rect class="fill-pillow-light stroke-outline miter stroke-2" x="271.4" y="366.5" width="36.38" height="36.38" rx="3.6" ry="3.6" transform="translate(115.2 -64.13) rotate(15.74)"/>
    <g id="Pillow_button_folds" class="fill-pillow-shade stroke-0">
      <path d="m284.82,373.71s0-.08,0-.11c2.71-1.76,1.72-2.51-.24-.74-.09-.15-.21-.28-.35-.39.22-1.94.58-2.81-.86-.32-.08,0-.16,0-.25,0-1.21-2.69-2.09-2.23-.72.28-.09.06-.17.13-.24.21-2.67-.64-2.6.51-.4,1.08,0,.1.01.19.03.28-.52.19-1,.59-1.24,1.14-.54,1.23,1.03.25,1.77-.27.12.09.25.16.39.22-.56,2.59.37,1.59.74.11.14-.02.27-.05.4-.1,1.49,1.73,2.39,1.54.64-.48.04-.06.08-.12.11-.18,2.55.4,2.4,0,.2-.73Z"/>
      <path d="m279.87,390.18c-.07-.17-.18-.33-.31-.46.51-1.85.98-2.62-.79-.43-.09-.02-.18-.03-.27-.03-.78-2.8-1.7-2.48-.75.17-.1.05-.2.11-.28.19-2.54-1.03-2.63.12-.53,1.02,0,.09,0,.18,0,.27-.55.1-1.1.43-1.42.94-.74,1.15,1.03.38,1.83-.01.1.1.21.19.33.27,0,0,0,.02-.01.03-.96,2.5.14,1.63.73.19.13,0,.26,0,.38-.03,1.21,1.96,2.15,1.92.72-.36.05-.05.1-.1.15-.15,2.45.78,2.37.37.33-.69,0-.04.02-.09.02-.13,2.91-1.31,2.06-2.2-.12-.78Z"/>
      <path d="m302.21,378.29c-.01-.07-.03-.13-.05-.2,2.18-2.2,1.09-2.7-.43-.64-.13-.12-.28-.21-.46-.28-.18-1.95,0-2.87-.92-.07-.06.01-.12.03-.18.05-1.78-2.47-2.56-1.81-.63.44-.05.06-.1.13-.14.2-2.9-.11-2.57,1.05-.19,1.14.02.08.04.15.07.23-.5.28-.92.8-1.05,1.4-.28,1.33,1.09.01,1.7-.65.11.07.23.12.36.16.02,0,.03,0,.05,0-.02,2.6.67,1.5.74,0,.16-.04.3-.1.44-.19,1.74,1.31,2.55.96.55-.59.04-.08.08-.17.1-.26,2.43-.13,2.21-.48.03-.74Z"/>
      <path d="m297.42,395.78c0-.08,0-.16,0-.24,2.52-1.67,1.59-2.37-.28-.73-.11-.16-.26-.29-.43-.4.22-1.89.55-2.69-.86-.24-.08,0-.16,0-.24.02-1.22-2.73-2.11-2.24-.7.32-.06.05-.12.11-.18.18-2.82-.7-2.72.52-.37,1.09,0,.07.01.14.03.21-.57.17-1.1.59-1.36,1.17-.56,1.27,1.14.18,1.85-.32.1.09.21.17.33.23,0,.01,0,.03-.01.04-.56,2.6.37,1.6.74.11.15,0,.29-.02.43-.07,1.45,1.67,2.33,1.5.67-.45.06-.07.12-.15.17-.23,2.39.36,2.26-.01.22-.71Z"/>
    </g>
    <g class="fill-pillow-light stroke-outline stroke-1">
        <path d="m302.53,414.25c.29-.73.41-.24.5.23.56-1.91,1.42-4.92-.65-6.18.33-.03.65-.23.79-.58-.03-.3-.14-.59-.3-.84-.94-1.05-2.09-.27-1.2,1.16.15.15.34.23.53.25-1.64,1.43-.49,3.97-1.27,5.71.19,0,.41.08.59,0,.22-.12.41-.02.55.15.19-.3.32-.13.47.09Z"/>
        <path d="m266.99,398.37c1.21-1.16.3-2.2-.88-1.42-.22.2-.4.46-.5.74.05.37.3.65.62.76-2.32.71-2.23,3.83-2.16,5.83.2-.44.43-.88.54-.1.2-.18.37-.31.48.03.18-.13.39-.19.57-.01.15.12.39.11.57.15-.32-1.88,1.42-4.05.2-5.85.19.02.38,0,.57-.11Z"/>
        <path d="m277.18,361.19c-.21-.03-.4.02-.57.11.44-2.13-2.01-3.46-2.43-5.32-.15.11-.37.19-.47.36-.1.23-.32.26-.53.21.03.36-.18.3-.43.21.2.76-.18.44-.54.11.7,1.87,1.83,4.79,4.24,4.55-.25.22-.38.58-.28.94.2.22.47.38.75.49,1.38.27,1.83-1.04.26-1.65Z"/>
        <path d="m317.31,367.71c-.13-.13-.25-.34-.43-.4-.24-.06-.31-.27-.3-.49-.35.09-.33-.12-.28-.39-.71.33-.47-.1-.2-.51-1.72,1.02-4.4,2.63-3.74,4.97-.26-.21-.63-.27-.97-.11-.18.24-.3.53-.35.82-.02,1.41,1.35,1.62,1.67-.03-.01-.21-.09-.39-.21-.54,2.17.06,3.06-2.58,4.82-3.32Z"/>
    </g>
  </g>
  <g id="Answers" class="fill-none stroke-0">
    <g id="Pillow_answer">
      <path d="m289.56,365.83c3.33,1.21,8.52,4.13,6.19,8.64-1.34,2.58-4.96,7.5-7.63,6.18-4.94-3.1-10.86-8.68-3.94-13.34,1.5-1,3.53-1.82,5.38-1.49Z"/>
      <path d="m291.24,407.95c-6.15-.39-14.56-1.51-13.8-9.1.46-6.51,3.98-13.16,10.86-14.65,7.67-1.48,13.1,5.5,16.12,11.52,4.19,8.5-6.96,11.85-13.18,12.23Z"/>
      <path d="m271.01,388.99c-10.15.73-7.54-16.79,3.91-13.68,3.03.63,3.35,3.33,3.69,5.73.98,6.86.04,7.79-7.6,7.95Z"/>
      <path d="m307.63,371.33c4.18-.04,7.33,3.44,7.3,8.07-.02,3.03-5.51,6.67-10.09,6.7-1.6,0-4.58-6.05-4.61-9.36-.03-3.17,2.97-5.35,7.4-5.4Z"/>
    </g>
    <g id="Ball_answer">
      <path d="m289.56,305.61c3.33,1.21,8.52,4.13,6.19,8.64-1.34,2.58-4.96,7.5-7.63,6.18-4.94-3.1-10.86-8.68-3.94-13.34,1.5-1,3.53-1.82,5.38-1.49Z"/>
      <path d="m291.24,347.74c-6.15-.39-14.56-1.51-13.8-9.1.46-6.51,3.98-13.16,10.86-14.65,7.67-1.48,13.1,5.5,16.12,11.52,4.19,8.5-6.96,11.85-13.18,12.23Z"/>
      <path d="m271.01,328.78c-10.15.73-7.54-16.79,3.91-13.68,3.03.63,3.35,3.33,3.69,5.73.98,6.86.04,7.79-7.6,7.95Z"/>
      <path d="m307.63,311.11c4.18-.04,7.33,3.44,7.3,8.07-.02,3.03-5.51,6.67-10.09,6.7-1.6,0-4.58-6.05-4.61-9.36-.03-3.17,2.97-5.35,7.4-5.4Z"/>
    </g>
    <g id="Cheese_answer">
      <path d="m289.56,244.39c3.33,1.21,8.52,4.13,6.19,8.64-1.34,2.58-4.96,7.5-7.63,6.18-4.94-3.1-10.86-8.68-3.94-13.34,1.5-1,3.53-1.82,5.38-1.49Z"/>
      <path d="m291.24,286.52c-6.15-.39-14.56-1.51-13.8-9.1.46-6.51,3.98-13.16,10.86-14.65,7.67-1.48,13.1,5.5,16.12,11.52,4.19,8.5-6.96,11.85-13.18,12.23Z"/>
      <path d="m271.01,267.56c-10.15.73-7.54-16.79,3.91-13.68,3.03.63,3.35,3.33,3.69,5.73.98,6.86.04,7.79-7.6,7.95Z"/>
      <path d="m307.63,249.89c4.18-.04,7.33,3.44,7.3,8.07-.02,3.03-5.51,6.67-10.09,6.7-1.6,0-4.58-6.05-4.61-9.36-.03-3.17,2.97-5.35,7.4-5.4Z"/>
    </g>
    <g id="Cat_answer">
      <path d="m289.56,185.83c3.33,1.21,8.52,4.13,6.19,8.64-1.34,2.58-4.96,7.5-7.63,6.18-4.94-3.1-10.86-8.68-3.94-13.34,1.5-1,3.53-1.82,5.38-1.49Z"/>
      <path d="m291.24,227.95c-6.15-.39-14.56-1.51-13.8-9.1.46-6.51,3.98-13.16,10.86-14.65,7.67-1.48,13.1,5.5,16.12,11.52,4.19,8.5-6.96,11.85-13.18,12.23Z"/>
      <path d="m271.01,208.99c-10.15.73-7.54-16.79,3.91-13.68,3.03.63,3.35,3.33,3.69,5.73.98,6.86.04,7.79-7.6,7.95Z"/>
      <path d="m307.63,191.33c4.18-.04,7.33,3.44,7.3,8.07-.02,3.03-5.51,6.67-10.09,6.7-1.6,0-4.58-6.05-4.61-9.36-.03-3.17,2.97-5.35,7.4-5.4Z"/>
    </g>
    <g id="Mouse_answer">
      <path d="m289.56,124.61c3.33,1.21,8.52,4.13,6.19,8.64-1.34,2.58-4.96,7.5-7.63,6.18-4.94-3.1-10.86-8.68-3.94-13.34,1.5-1,3.53-1.82,5.38-1.49Z"/>
      <path d="m291.24,166.73c-6.15-.39-14.56-1.51-13.8-9.1.46-6.51,3.98-13.16,10.86-14.65,7.67-1.48,13.1,5.5,16.12,11.52,4.19,8.5-6.96,11.85-13.18,12.23Z"/>
      <path d="m271.01,147.77c-10.15.73-7.54-16.79,3.91-13.68,3.03.63,3.35,3.33,3.69,5.73.98,6.86.04,7.79-7.6,7.95Z"/>
      <path d="m307.63,130.11c4.18-.04,7.33,3.44,7.3,8.07-.02,3.03-5.51,6.67-10.09,6.7-1.6,0-4.58-6.05-4.61-9.36-.03-3.17,2.97-5.35,7.4-5.4Z"/>
    </g>
  </g>
  <g id="Card_placement_bounding_box">
    <rect class="fill-card-placement-bounds stroke-0" x=".34" y="52.42" width="288" height="431.15"/>
  </g>
  <g id="Rules" data-board-control="rules">
    <g class="fill-board-dark stroke-0">
      <path d="m27.63,457.94c-6.97.04-11.03,5.14-11.29,14.17-.17,5.9,2.34,8.46,8.3,8.49,7.96.03,17.18-5.47,17.47-10.42.29-5.06-8.24-12.27-14.48-12.24Z"/>
      <path d="m24.87,454.62c2.13-1.59,1.71-6.46,1.33-9.14-.16-1.14-5.59-3.04-7.14-2.12-2.34,1.38-5.33,5.94-4.59,7.37,1.1,2.14,3.22,3.75,5.38,5.34,1.88.32,3.49-.3,5.02-1.44Z"/>
      <path d="m36.54,457.36c1.58.2,4.47-2.57,5.2-4.56,1.36-3.73-2.65-9.93-5.93-9.31-2.6.49-5.43,2.55-6.01,3.9-2.27,5.23,2.82,9.47,6.75,9.97Z"/>
      <path d="m10.93,466.1c4.08.68,5.86-4.16,5.51-6.91-.3-2.37-3.26-4.53-5.65-5.32-1.05-.35-6.62,1.51-7.05,5.98-.46,4.77,4.78,5.85,7.19,6.25Z"/>
    </g>
    <g class="fill-white stroke-0">
      <path d="m30.59,462.98c-1.22-2.68-6.05-2.26-7.76-.19-1.52,1.84-1.25,4.71.28,4.85.47.04,1.51-.28,1.03-1.16-2.18-4.01,6.18-4.88,5.27-.26-.34,1.75-2.71,2.41-2.86,4.28-.09,1.09.52,2.95,1.74,2.12.73-.68-.53-2.21.09-2.76,1.65-1.46,4.02-2.9,2.21-6.87Z"/>
      <path d="m28.44,473.81c-1.19,1.17.55,2.92,1.65,1.67,1.23-1.08-.48-2.82-1.65-1.67Z"/>
    </g>
  </g>
  <g id="ScoreAndTimer" font-family="Hannotate TC, sans-serif" font-size="14.69px">
    <rect class="fill-board-dark stroke-0" width="321.34" height="51.95"/>
    <g id="ScoreAndTimer_labels" class="fill-white">
      <text transform="translate(19.58 29.49)"><tspan x="0" y="0">Time:</tspan></text>
      <text transform="translate(117.83 29.49)"><tspan x="0" y="0">Score:</tspan></text>
      <text transform="translate(231.19 29.49)"><tspan x="0" y="0">Best:</tspan></text>
    </g>
    <g id="ScoreAndTimer_frames" class="fill-board-light stroke-0">
      <g id="Timer_frame">
        <rect x="58.67" y="12.46" width="39.31" height="26.31" rx="7.13" ry="7.13"/>
      </g>
      <g id="Score_frame">
        <rect x="164.23" y="12.46" width="39.31" height="26.31" rx="7.13" ry="7.13"/>
      </g>
      <g id="Best_frame">
        <rect x="269.79" y="12.46" width="39.31" height="26.31" rx="7.13" ry="7.13"/>
      </g>
    </g>
  </g>
  <g id="Review_previous" data-board-control="previous">
    <g class="fill-board-dark stroke-0">
      <path d="m18.46,92.82c2.25,4.42,8.35,4.45,16.38.08,8.15-4.44,10.79-8.71,8.15-13.22-3.19-5.46-14.24-8.26-20.06-5.08-4.69,2.56-7.21,12.85-4.47,18.23Z"/>
      <path d="m11.45,66.67c-.06,7.58,5.03,7.01,9.04,5,9.4-4.71,4.03-10.07-.64-10.94-4.02-.75-8.36,2.1-8.39,5.94Z"/>
      <path d="m8.78,75.14c-6.34,3.07-5.4,6.69-3.36,8.9,4.79,5.18,8.78-1.09,9.09-4.99.26-3.36-2.52-5.47-5.73-3.91Z"/>
      <path d="m31.96,59.99c-1.92,1.49-4.23,4.66-2.79,7.29,1.56,2.84,6.4,3,9.31,2.28,1.18-.29,3.63-2.5,3.8-3.98.32-2.72-1.47-5.34-3.89-6.6-1.59-.83-5.75.48-6.43,1.02Z"/>
    </g>
    <path id="review-previous-arrow" class="fill-white stroke-0" d="m39.3,83.78c.2.58-.22,1.31-.95,1.62-.73.31-1.48.09-1.68-.5-.95-2.73-2.85-4.19-5.22-4.02-2.32.17-4.86,1.88-6.82,4.56.58.33,1.05.69,1.27,1.03.01.02.01.06,0,.09-.71,1.01-3.69,1.93-4.91,1.95-.06,0-.14-.03-.18-.06-.72-.7-1.53-2.91-1.08-3.95.01-.03.05-.06.09-.07.67-.2,1.61-.12,2.56.12,1.48-2.04,3.23-3.64,5.1-4.69,1.41-.79,2.88-1.26,4.34-1.36,3.5-.25,6.23,1.68,7.48,5.29Z"/>
  </g>
</svg>
