<svg xmlns="http://www.w3.org/2000/svg" viewBox="0 0 288 431.15">
  <g id="PlacementFrameForCards">
    <rect width="288" height="431.15" fill="none"/>
    <g
      opacity=".7"
      fill="#d3bebe"
      stroke="#38272c"
      stroke-linecap="round"
      stroke-linejoin="round"
      stroke-width=".5"
    >
      <path id="review-previous-shape" d="m48.22,54,6.97,22.75c.39,1.28,1.58,2.15,2.92,2.15l78.08-.45c1.67,0,3.02-1.37,3.02-3.03v-19.04c0-1.68-1.37-3.04-3.05-3.03l-78.95.46c-.86,0-1.69-.36-2.27-1l-1.57-1.73c-1.09-1.2-9.38-11.2-9.38-11.2,0,0,3.76,12.58,4.23,14.13Z"/>
      <path id="game-rules-shape" d="m48.92,375.51,6.97-22.75c.39-1.28,1.58-2.15,2.92-2.15l61.14.45c1.67,0,3.02,1.37,3.02,3.03v19.04c0,1.68-1.37,3.04-3.05,3.03l-62.01-.46c-.86,0-1.69.36-2.27,1l-1.57,1.73c-1.09,1.2-9.38,11.2-9.38,11.2,0,0,3.76-12.58,4.23-14.13Z"/>
      <path id="change-level-shape" d="m249.91,359.76-6.97-22.75c-.39-1.28-1.58-2.15-2.92-2.15l-65.26.45c-1.67,0-3.02,1.37-3.02,3.03v19.04c0,1.68,1.37,3.04,3.05,3.03l66.13-.46c.86,0,1.69.36,2.27,1l1.57,1.73c1.09,1.2,9.38,11.2,9.38,11.2,0,0-3.76-12.58-4.23-14.13Z"/>
      <path id="start-new-game-shape" d="m249.91,69.62-6.97,22.75c-.39,1.28-1.58,2.15-2.92,2.15l-73.81-.45c-1.67,0-3.02-1.37-3.02-3.03v-19.04c0-1.68,1.37-3.04,3.05-3.03l74.67.46c.86,0,1.69-.36,2.27-1l1.57-1.73c1.09-1.2,9.38-11.2,9.38-11.2,0,0-3.76,12.58-4.23,14.13Z"/>
      <path id="quick-start-shape" d="m256.08,207.52-20.77-5.68v-73.25c0-1.67-1.35-3.02-3.02-3.03l-173.59-.44-6.33-.02s-.02,0-.03,0h-1.01c-1.34-.01-1.62.86-2.02,2.14v.89s0,0,0,0v158.4c0,1.67,1.35,3.02,3.02,3.03l173.46.44,6.46.02s.02,0,.03,0h1.01c1.34.01,1.62-.86,2.02-2.14v-74.59l20.77-5.77Z"/>
    </g>
    </g>
    <rect id="review-previous-bounds" x="56.97" y="53.57" width="82.24" height="25.33" fill="none"/>
    <rect id="start-new-game-bounds" x="163.2" y="69.36" width="78.69" height="25.33" fill="none"/>
    <rect id="quick-start-bounds" x="49.94" y="125.1" width="185.45" height="164.92" fill="none"/>
    <rect id="change-level-bounds" x="171.75" y="334.86" width="70.31" height="25.33" fill="none"/>
    <rect id="game-rules-bounds" x="58.09" y="350.61" width="64.88" height="25.33" fill="none"/>
</svg>
