<?xml version="1.0" encoding="UTF-8"?>
<svg id="InvisiblePlacementLarge" xmlns="http://www.w3.org/2000/svg" viewBox="0 0 619.71 574.08">
  <defs>
    <style>
      .cls-1 {
        fill: none;
        stroke-width: 0px;
      }

      .cls-7 {
        fill: #d0bfbf;
        stroke: #35282c;
        stroke-linecap: round;
        stroke-linejoin: round;
        stroke-width: .5px;
      }
    </style>
  </defs>
  <rect class="cls-1" width="619.71" height="574.08"/>
  <path class="cls-7" d="m57.09,72.52l6.97,22.75c.39,1.28,1.58,2.15,2.92,2.15l78.08-.45c1.67,0,3.02-1.37,3.02-3.03v-19.04c0-1.68-1.37-3.04-3.05-3.03l-78.95.46c-.86,0-1.69-.36-2.27-1l-1.57-1.73c-1.09-1.2-9.38-11.2-9.38-11.2,0,0,3.76,12.58,4.23,14.13Z"/>
  <path class="cls-7" d="m57.79,506.12l6.97-22.75c.39-1.28,1.58-2.15,2.92-2.15l61.14.45c1.67,0,3.02,1.37,3.02,3.03v19.04c0,1.68-1.37,3.04-3.05,3.03l-62.01-.46c-.86,0-1.69.36-2.27,1l-1.57,1.73c-1.09,1.2-9.38,11.2-9.38,11.2,0,0,3.76-12.58,4.23-14.13Z"/>
  <path class="cls-7" d="m532.62,490.67l-6.97-22.75c-.39-1.28-1.58-2.15-2.92-2.15l-65.26.45c-1.67,0-3.02,1.37-3.02,3.03v19.04c0,1.68,1.37,3.04,3.05,3.03l66.13-.46c.86,0,1.69.36,2.27,1l1.57,1.73c1.09,1.2,9.38,11.2,9.38,11.2,0,0-3.76-12.58-4.23-14.13Z"/>
  <path class="cls-7" d="m533.85,88.14l-6.97,22.75c-.39,1.28-1.58,2.15-2.92,2.15l-73.81-.45c-1.67,0-3.02-1.37-3.02-3.03v-19.04c0-1.68,1.37-3.04,3.05-3.03l74.67.46c.86,0,1.69-.36,2.27-1l1.57-1.73c1.09-1.2,9.38-11.2,9.38-11.2,0,0-3.76,12.58-4.23,14.13Z"/>
  <path class="cls-7" d="m536.85,275.74l-20.77-5.68v-73.25c0-1.67-1.35-3.02-3.02-3.03l-173.59-.44-6.33-.02s-.02,0-.03,0h-1.01c-1.34-.01-1.62.86-2.02,2.14v.89s0,0,0,0v158.4c0,1.67,1.35,3.02,3.02,3.03l173.46.44,6.46.02s.02,0,.03,0h1.01c1.34.01,1.62-.86,2.02-2.14v-74.59l20.77-5.77Z"/>
  <rect class="cls-1" x="65.83" y="72.09" width="82.24" height="25.33"/>
  <rect class="cls-1" x="447.14" y="87.88" width="78.69" height="25.33"/>
  <rect class="cls-1" x="330.7" y="193.32" width="185.45" height="164.92"/>
  <rect class="cls-1" x="454.46" y="465.77" width="70.31" height="25.33"/>
  <rect class="cls-1" x="66.95" y="481.22" width="64.88" height="25.33"/>
</svg>
