<svg xmlns="http://www.w3.org/2000/svg" viewBox="0 0 320.82 431.15">
  <g id="Game_screen_small">
    <path class="fill-board-light stroke-0" d="m.16,0v431h320.66V0H.16Zm259.02,364.48c0,18.31-14.98,33.29-33.29,33.29H61.77c-18.31,0-33.29-14.98-33.29-33.29V66.52c0-18.31,14.98-33.29,33.29-33.29h164.12c18.31,0,33.29,14.98,33.29,33.29v297.96Z"/>
    <g id="decorative-paws">
      <path class="fill-board-dark stroke-0" d="m5.66,338.19c4.42-.3,10.34-3.61,12.4-7.34,2.91-5.28-3.08-8.51-6.91-11.57-.92-.73-2.04-1.25-3.12-1.76-3.38-1.59-6.1-1.76-8.03-.54v18.69c1.32,1.67,3.17,2.69,5.66,2.52Z"/>
      <path class="fill-board-dark stroke-0" d="m12.7,198.68c.1-4.52-3.94-7.21-11.04-7.34-.57-.01-1.12,0-1.65.02v19.77c.58.15,1.15.24,1.7.25,5.05.13,10.86-6.59,11-12.7Z"/>
      <path class="fill-board-dark stroke-0" d="m14.99,168.9c.23-4.35-6.25-9.05-12.32-8.92-.94.02-1.83.16-2.67.39v21.51c5.74-.5,14.73-8.15,14.99-12.98Z"/>
      <path class="fill-board-dark stroke-0" d="m1.62,274.27c5.36-.22,5.93-4.34,6-6.81.13-8.44-3.1-14.2-7.62-15.47v22.18c.56.09,1.1.13,1.62.11Z"/>
      <path class="fill-board-dark stroke-0" d="m4.65,127.48c6.62.24,15.94-5.85,16.27-10.63.32-4.67-6.49-10.1-12.75-10.14-3.83-.03-6.56,1.45-8.18,4.39v14.58c1.05,1.15,2.58,1.73,4.65,1.81Z"/>
      <path class="fill-board-dark stroke-0" d="m16.72,279.59c-4.87.29-7.55,3.32-7.07,8.01.45,4.51,2.47,8.88,4.78,12.66,1.1,1.8,5.15,3.31,7.2,2.71,2.79-.82,5.2-3.56,6.68-6.76v-11.83c-2.2-3.2-6.51-5.09-11.59-4.78Z"/>
      <path class="fill-board-dark stroke-0" d="m17.84,172.24c-3.22,3-3.39,7.06.03,9.9,6.16,5.11,7.21-2.15,10.45-4.93v-.48c-3.44-2.07-4.26-10.27-10.48-4.48Z"/>
      <path class="fill-board-dark stroke-0" d="m12.31,243.02c-.82-1.79-2.2-3.85-5.05-4.63-1.46-.4-5.7,2.99-5.55,4.34.31,2.84,2.43,7.47,4.24,7.68,2.66.31,9.44-.66,6.36-7.39Z"/>
      <path class="fill-board-dark stroke-0" d="m8.59,222.53c-2.15-2.55-4.3-5.11-6.45-7.66-.7.64-1.41,1.28-2.14,1.94v10.39c.65.36,1.27.57,1.89.55,2.28-.06,4.47-3.35,6.69-5.22Z"/>
      <path class="fill-board-dark stroke-0" d="m23.41,163.23c.18,2.15,2.93,5.52,4.9,6.11v-11.32c-2.87.1-5.17,2.02-4.9,5.21Z"/>
      <path class="fill-board-dark stroke-0" d="m5.37,96.64c.16-1.43-1.52-4.54-5.37-4.66v11.28c.4-.07.8-.16,1.16-.25,2.97-.75,3.89-3.58,4.21-6.38Z"/>
      <path class="fill-board-dark stroke-0" d="m2.95,347.14c-1.63-1.95-.28-6.23-2.95-7.14v9.97c.98-.93,1.99-2.05,2.95-2.82Z"/>
      <path class="fill-board-dark stroke-0" d="m9.66,257.1c-.41,2.74-.33,7.25,4.62,7.37,4.69.11,6.07-3.68,6.25-7.1.11-2.06.12-3.74-4.11-4.21-4.61-.51-6.4,1.61-6.75,3.94Z"/>
      <path class="fill-board-dark stroke-0" d="m5.8,157.51c2.04-.22,5.48-1.98,5.7-4.41.3-3.3-3.46-7.15-6.62-7.28-2.52-.1-3.9.73-4.87,1.99v8.12c1.6,1.24,3.95,1.78,5.8,1.58Z"/>
      <path class="fill-board-dark stroke-0" d="m14.34,92.88c-2.77-.37-6.55,1.43-6.38,6.48.17,5.13,4.59,5.24,7.39,5.92,1.22.3,5.01-3.64,4.68-4.4-1.26-2.94-2.42-7.56-5.69-8Z"/>
      <path class="fill-board-dark stroke-0" d="m18.74,138.48c.61-2.11-1.43-5.47-3.83-6.18-2.64-.77-3.4,1.23-4.13,3.04-.45,1.12-.61,2.37-.72,2.85-.16,2.76.08,4.58,2.66,4.7,2.38.11,5.36-2.12,6.02-4.4Z"/>
      <path class="fill-board-dark stroke-0" d="m22.72,142.41c.76.25,2.14-1.32,3.9-2.53-1.49-1.51-2.52-3.24-3.22-3.11-1.21.22-3,1.5-3.1,2.48-.1,1.03,1.31,2.79,2.42,3.16Z"/>
      <path class="fill-board-dark stroke-0" d="m18.65,142.21c-.93-.07-2.64,1.37-2.8,2.35-.15.91,1.29,2.08,2.03,3.13h1.22c.71-.91,2.13-1.97,1.97-2.69-.24-1.12-1.5-2.72-2.42-2.79Z"/>
      <path class="fill-board-dark stroke-0" d="m21,135.63c.91.17,2.11-1.26,3.18-1.98,0-.39.02-.78.03-1.16-1.14-.67-2.24-1.77-3.42-1.86-.74-.06-2.4,1.67-2.25,2.12.39,1.16,1.45,2.69,2.46,2.88Z"/>
      <path class="fill-board-dark stroke-0" d="m92.1,22.58c2.38.11,5.36-2.12,6.02-4.4.61-2.11-1.43-5.47-3.83-6.18-2.64-.77-3.4,1.23-4.13,3.04-.45,1.12-.61,2.37-.72,2.85-.16,2.76.08,4.58,2.66,4.7Z"/>
      <path class="fill-board-dark stroke-0" d="m102.78,16.46c-1.21.22-3,1.5-3.1,2.48-.1,1.03,1.31,2.79,2.42,3.16.76.25,2.14-1.32,3.9-2.53-1.49-1.51-2.52-3.24-3.22-3.11Z"/>
      <path class="fill-board-dark stroke-0" d="m98.03,21.91c-.93-.07-2.64,1.37-2.8,2.35-.15.91,1.29,2.08,2.03,3.13.41,0,.81,0,1.22,0,.71-.91,2.13-1.96,1.97-2.68-.24-1.12-1.5-2.72-2.42-2.79Z"/>
      <path class="fill-board-dark stroke-0" d="m100.37,15.32c.91.17,2.11-1.26,3.18-1.98,0-.39.02-.78.03-1.16-1.14-.67-2.24-1.77-3.42-1.86-.74-.06-2.4,1.67-2.25,2.12.39,1.16,1.45,2.69,2.46,2.88Z"/>
      <path class="fill-board-dark stroke-0" d="m24.49,237.78c2.2-1.69,3.41-3.06,1.81-5.08-1.48-1.88-5.1-2.67-7.27-1.67-2,.92-3.21,4.66-2.17,6.94,1.14,2.5,3.16,1.76,4.99,1.14,1.15-.39,2.19-1.09,2.63-1.32Z"/>
      <path class="fill-board-dark stroke-0" d="m18.59,229.34c.85-.6,1.26-2.82.81-3.9-.31-.74-2.72-2.54-4.47-1.3-1.73,1.23-.8,4.03-.25,4.47.96.78,3.1,1.29,3.91.72Z"/>
      <path class="fill-board-dark stroke-0" d="m25.75,224.74c-1.06-.45-2.88-.32-3.32.26-.69.91-1.08,2.91-.52,3.65.56.75,2.76,1.1,3.61.58.78-.48,1.34-2.33,1.04-3.58-.1-.39-.43-.76-.8-.91Z"/>
      <path class="fill-board-dark stroke-0" d="m11.82,230.07c-.38.08-.76.38-.9.74-.45,1.24.12,2.85.83,3.81.44.6,2.84.73,3.08.32.62-1.06,1.09-2.86.57-3.75-.46-.8-2.31-1.39-3.58-1.11Z"/>
      <path class="fill-board-dark stroke-0" d="m43.54,417.67c-2.36,1.4-1.41,3.33-.59,5.09.51,1.1,1.32,2.06,1.6,2.47,1.91,2,3.41,3.05,5.25,1.25,1.71-1.67,2.1-5.36.87-7.41-1.13-1.89-4.98-2.68-7.13-1.4Z"/>
      <path class="fill-board-dark stroke-0" d="m56.26,418.84c.71-.39.49-2.46.8-4.58-2.12.06-4.09-.36-4.47.24-.67,1.04-.94,3.22-.29,3.96.69.78,2.94.94,3.96.38Z"/>
      <path class="fill-board-dark stroke-0" d="m53.34,421.68c-.69.64-.79,2.86-.19,3.65.56.73,2.4.47,3.68.64l.82-.9c-.18-1.14.01-2.89-.62-3.27-.98-.58-3.01-.75-3.69-.12Z"/>
      <path class="fill-board-dark stroke-0" d="m50.11,415.48c.74-.55.52-2.4.72-3.68-.28-.27-.56-.54-.84-.81-1.27.37-2.82.43-3.69,1.24-.55.51-.41,2.9.02,3.09,1.12.5,2.96.77,3.79.16Z"/>
      <path class="fill-board-dark stroke-0" d="m22.36,273.78c0,1.99,3.04,6.09,5.95,5.96v-14.19c-4.38.28-5.96,6.11-5.95,8.23Z"/>
      <path class="fill-board-dark stroke-0" d="m11.11,351.95c2.51-.66,5.05-3.9,6.04-6.56.5-1.33-.52-5.04-4.82-5.25-4.64-.23-5.82,3.28-6.25,5.68-.51,2.89.95,7.2,5.03,6.13Z"/>
      <path class="fill-board-dark stroke-0" d="m15.04,219.69c1.24.41,7.25-1.35,7.23-5.95-.02-4.68-6.35-6.58-7.55-6.12-2.45.96-5.52,4.05-5.57,6.32-.04,1.99,3.41,4.93,5.88,5.74Z"/>
      <path class="fill-board-dark stroke-0" d="m11.1,25.14c-.4,8.47,5.49,6.81,7.95,3.87,2.12-2.53,1.83-6.71-.86-8.25-5.31-3.04-6.92.77-7.09,4.38Z"/>
      <path class="fill-board-dark stroke-0" d="m14.39,15.47c6.19-1.27,3.03-7.77.11-10.01-2.52-1.94-5.4-.74-5.6,2.69-.39,6.78,2.86,7.86,5.5,7.32Z"/>
      <path class="fill-board-dark stroke-0" d="m6.73,41.22c6.16-1.38,3.44-6.35.7-7.96-2.36-1.39-5.27-.27-5.67,2.47-.79,5.41,2.35,6.08,4.97,5.49Z"/>
      <path class="fill-board-dark stroke-0" d="m56.36,30.33c4.37.29,7.15-4.33,7.46-12.4.32-8.19-1.73-12.12-6.35-12.16-5.59-.05-12.7,7.07-12.92,12.93-.18,4.71,6.49,11.28,11.81,11.63Z"/>
      <path class="fill-board-dark stroke-0" d="m31.47,23.3c6.31,3.82,8.37-.72,8.68-5.07.74-10.21-6.42-8.38-9.47-4.91-2.63,2.99-2.41,8.04.79,9.97Z"/>
      <path class="fill-board-dark stroke-0" d="m38.42,29.17c-.59,6.83,2.91,7.85,5.77,7.24,6.72-1.43,3.46-7.89.35-10.08-2.68-1.89-5.83-.62-6.12,2.84Z"/>
      <path class="fill-board-dark stroke-0" d="m36.8,4.07c.29,2.35,2.61,6.36,5.52,6.47,3.16.11,5.69-3.86,6.54-6.65.34-1.13.18-2.57-.42-3.88h-10.65c-.79,1.56-1.09,3.23-.98,4.07Z"/>
      <path class="fill-board-dark stroke-0" d="m223.65,25.68c3.36,1.42,9.94-1.62,11.65-5.38,1.4-3.09-1.18-6.36-6.94-8.79-5.85-2.47-9.25-2.05-10.54,1.28-1.56,4.03,1.65,11.13,5.83,12.89Z"/>
      <path class="fill-board-dark stroke-0" d="m222.1,28.73c-6.47-2.99-7.63,1.3-6.57,4.5h10.2c.35-1.99-1.56-3.54-3.62-4.5Z"/>
      <path class="fill-board-dark stroke-0" d="m229.17,27.76c-2.1,1.42-2.04,4.05.39,5.21,4.79,2.29,6.48.04,6.82-2.2.8-5.26-4.77-4.66-7.21-3.01Z"/>
      <path class="fill-board-dark stroke-0" d="m210.93,27.29c1.78.43,5.32-.15,6.19-2.23.94-2.25-1.24-5.18-3.03-6.55-1.8-1.38-5.78-1.08-7.06,2.24-1.28,3.33,2.49,6.2,3.9,6.54Z"/>
      <path class="fill-board-dark stroke-0" d="m248.92,10.65c-2.17,1.34-3.11,6.3-1.67,8.8,1.19,2.05,4.09,1.91,7.81-.38,3.77-2.32,4.92-4.42,3.55-6.51-1.66-2.52-6.99-3.57-9.69-1.91Z"/>
      <path class="fill-board-dark stroke-0" d="m247.81,8.54c4.8-2.74,1.83-5.4-.64-5.73-2.13-.28-4.33,1.34-4.24,3.35.18,3.98,2.84,3.54,4.88,2.37Z"/>
      <path class="fill-board-dark stroke-0" d="m245.49,12.94c.04-1.77-1.47-2.8-3.12-1.89-3.24,1.79-2.65,3.67-1.51,4.77,2.66,2.59,4.58-.82,4.63-2.87Z"/>
      <path class="fill-board-dark stroke-0" d="m256.86,8.13c1.51-.46,2.96-2.85,1.59-4.92-1.37-2.08-4.53-1.1-5.3-.43-.97.84-2.07,3.08-1.24,4.42.9,1.45,3.44,1.4,4.95.94Z"/>
      <path class="fill-board-dark stroke-0" d="m199.66,15.59c1.45,1.25,3.16.6,5.3-2.04,2.11-2.59,2.51-4.79,1.08-5.89-1.75-1.35-5.62-1.14-6.85.38-1.54,1.88-1.28,6.04.47,7.55Z"/>
      <path class="fill-board-dark stroke-0" d="m197.69,6.97c1.09-1.44,1.7-3.41-1.31-3.95-1.52-.27-2.98,1.23-2.98,2.88,0,1.92,1.72,4.44,4.29,1.07Z"/>
      <path class="fill-board-dark stroke-0" d="m201.27,5.66c1.57.17,4.35-.94,2.65-3.23-.72-.97-2.09-1.61-3.78.67-.86,1.16-.23,2.41,1.12,2.56Z"/>
      <path class="fill-board-dark stroke-0" d="m196.46,13.82c.5-1.1.8-3.03-.21-3.86-.93-.77-2.75-.15-3.49.5-.58.51-1.65,2.82-.21,4.07,1.44,1.25,3.4.4,3.9-.71Z"/>
      <path class="fill-board-dark stroke-0" d="m16.55,58.98c2.3-2.45,1.78-9.11-.91-11.78-2.22-2.2-5.87-1.02-9.82,3.18-4,4.26-4.74,7.33-2.27,9.51,2.98,2.64,10.14,2.14,13-.91Z"/>
      <path class="fill-board-dark stroke-0" d="m25.74,62.64c-1.61-5.01-4.84-3.53-7.04-1.34-5.18,5.14-.47,7.51,2.8,7.07,2.82-.38,5.06-3.2,4.24-5.74Z"/>
      <path class="fill-board-dark stroke-0" d="m20.12,54.89c.56,2.27,2.85,3.06,4.62,1.34,3.51-3.4,2.11-5.58.28-6.6-4.28-2.38-5.55,2.62-4.91,5.26Z"/>
      <path class="fill-board-dark stroke-0" d="m13.87,70.49c.94-1.4,1.58-4.65.06-6.06-1.65-1.54-4.87-.59-6.63.52-1.77,1.11-2.79,4.65-.32,6.82,2.46,2.17,6.15-.17,6.9-1.28Z"/>
      <path class="fill-board-dark stroke-0" d="m18.03,413.51c4.75-3.02,5.33-8.25,1.63-14.53-2.42-4.11-5.23-4.78-9.32-2.23-5.46,3.4-9.39,11.12-7.46,14.62,1.98,3.58,10.9,4.85,15.15,2.14Z"/>
      <path class="fill-board-dark stroke-0" d="m31.43,414.05c-2.43-1.44-5.87-1.18-8.9-1.62-.44.59-.87,1.17-1.31,1.76,1.4,2.89,2.43,6.11,4.44,8.48.6.71,5.13-.32,5.79-1.62,1-1.95,1.09-6.35-.03-7.01Z"/>
      <path class="fill-board-dark stroke-0" d="m11.39,418.07c-1.17.54-1.95,3.68-1.59,5.35.67,3.14,6.07,5.65,8.05,3.81,1.56-1.45,1.97-4.16,2.43-5.25-2.6-5.42-5.99-5.26-8.89-3.91Z"/>
      <path class="fill-board-dark stroke-0" d="m26.09,399.87c-3.68,1.29-2.64,5.36-.95,7.09,1.46,1.49,4.98,1.7,7.33,1.21,1.03-.21,4.63-3.87,2.68-7.12-2.07-3.45-6.89-1.94-9.06-1.18Z"/>
      <path class="fill-board-dark stroke-0" d="m13.97,386.58c4.15.81,9.51-1.13,10.15-3.68.66-2.61-3.07-7.22-6.32-7.83-3.64-.68-6.27,1.57-7.31,6.26-.68,3.06.37,4.65,3.48,5.26Z"/>
      <path class="fill-board-dark stroke-0" d="m16.57,373.31c.62-2.02,1.57-4.03,1.67-6.07.03-.61-2.61-2.15-3.51-1.82-1.36.49-3.37,2.56-3.13,3.38.52,1.79,2.29,3.21,3.56,4.77.47-.09.94-.17,1.42-.26Z"/>
      <path class="fill-board-dark stroke-0" d="m26.2,374.01c1.08-1.81-.38-5.44-2.16-5.45-1.4,0-2.81,1.12-3.53,1.43-1.18,3.77.52,5.22,2.52,5.87.8.26,2.59-.89,3.17-1.86Z"/>
      <path class="fill-board-dark stroke-0" d="m7.8,378.01c2.35,1.03,3.68-1.39,3.64-2.98-.03-1.37-1.63-3.05-2.98-3.87-.59-.36-3.96-.21-4.49,2.22-.56,2.59,2.44,4.03,3.83,4.64Z"/>
      <path class="fill-board-dark stroke-0" d="m7.38,305.2c-1.38,1.17-1.33,2.86.13,4.7.95,1.2,1.88,1.29,3.06.3,1.59-1.32,2.5-3.95,1.73-4.98-.79-1.05-3.68-1.06-4.92,0Z"/>
      <path class="fill-board-dark stroke-0" d="m2.77,303.39c-.23.67-.07,2.07.32,2.23.84.35,1.92.12,2.9.12.11-.21.22-.41.34-.62-.58-.86-1.04-1.84-1.79-2.5-.22-.2-1.62.33-1.77.77Z"/>
      <path class="fill-board-dark stroke-0" d="m9.29,303.46c.35-.22.46-1.26.27-1.77-.35-.97-2.18-1.53-2.73-.86-.43.53-.44,1.41-.54,1.78,1.07,1.61,2.14,1.41,3,.85Z"/>
      <path class="fill-board-dark stroke-0" d="m5.41,307.6c-.53-.41-1.66-.32-2.39-.06-.32.11-1.3,1.44-.54,2.38.81,1.01,2.28.31,2.94-.03,1.11-.57.6-1.82-.01-2.3Z"/>
      <path class="fill-board-dark stroke-0" d="m17.51,354.46c-1.31.79-1.52,1.7-.69,3,1.11,1.74,3.6,2.98,4.72,2.35,1.15-.65,1.52-3.52.64-4.87-.99-1.52-2.67-1.69-4.67-.48Z"/>
      <path class="fill-board-dark stroke-0" d="m24.56,350.61c-.63-.32-2.04-.33-2.25.03-.46.79-.36,1.89-.49,2.87.19.14.38.28.57.41.92-.46,1.95-.8,2.71-1.45.23-.2-.12-1.65-.54-1.86Z"/>
      <path class="fill-board-dark stroke-0" d="m26.59,354.96c-.47-.5-1.34-.62-1.69-.77-1.73.85-1.67,1.94-1.23,2.87.18.37,1.19.62,1.72.5,1.01-.23,1.8-1.97,1.2-2.6Z"/>
      <path class="fill-board-dark stroke-0" d="m20.05,352.68c.47-.47.53-1.61.37-2.36-.07-.33-1.26-1.47-2.29-.84-1.1.68-.6,2.22-.35,2.91.43,1.18,1.73.83,2.28.28Z"/>
      <path class="fill-board-dark stroke-0" d="m77.85,14.19c1.15-.65,1.52-3.52.64-4.87-.99-1.52-2.67-1.69-4.67-.48-1.31.79-1.52,1.7-.69,3,1.11,1.74,3.6,2.98,4.72,2.35Z"/>
      <path class="fill-board-dark stroke-0" d="m81.41,6.83c.23-.2-.12-1.65-.54-1.86-.63-.32-2.04-.33-2.25.03-.46.79-.36,1.89-.49,2.87.19.14.38.28.57.41.92-.46,1.95-.8,2.71-1.45Z"/>
      <path class="fill-board-dark stroke-0" d="m79.98,11.43c.18.37,1.19.62,1.72.5,1.01-.23,1.8-1.97,1.2-2.6-.47-.5-1.34-.62-1.69-.77-1.73.85-1.67,1.94-1.23,2.87Z"/>
      <path class="fill-board-dark stroke-0" d="m76.37,7.05c.47-.47.53-1.61.37-2.36-.07-.33-1.26-1.47-2.29-.84-1.1.68-.6,2.22-.35,2.91.43,1.18,1.73.83,2.28.28Z"/>
      <path class="fill-board-dark stroke-0" d="m66.83,405.66c-1.51.25-2.04,1.01-1.75,2.53.38,2.03,2.24,4.11,3.51,3.94,1.3-.17,2.72-2.7,2.4-4.29-.35-1.77-1.85-2.56-4.16-2.18Z"/>
      <path class="fill-board-dark stroke-0" d="m74.82,404.7c-.47-.53-1.77-1.07-2.1-.81-.71.56-1.04,1.62-1.52,2.48.12.2.25.4.37.6,1.03-.08,2.11-.02,3.06-.34.28-.1.5-1.57.19-1.92Z"/>
      <path class="fill-board-dark stroke-0" d="m73.79,408.15c-1.93.15-2.27,1.18-2.21,2.21.03.41.87,1.01,1.42,1.1,1.02.16,2.4-1.16,2.08-1.97-.25-.64-1.02-1.07-1.29-1.34Z"/>
      <path class="fill-board-dark stroke-0" d="m69.26,401.27c-1.27.22-1.38,1.84-1.41,2.58-.04,1.25,1.3,1.42,2.01,1.11.61-.26,1.09-1.29,1.22-2.05.06-.33-.62-1.84-1.82-1.63Z"/>
      <path class="fill-board-dark stroke-0" d="m28.1,184.47c-1.83,2.26-4.67,4.33-5.12,6.84-.29,1.59,2.55,3.75,5.34,7.16v-13.79c-.07-.07-.15-.14-.22-.21Z"/>
      <path class="fill-board-dark stroke-0" d="m7.24,14.28c-2.43-3.58-4.83-5.7-7.24-6.4v23.97c1.38-.54,2.72-1.24,3.96-2.1,5.6-3.89,6.92-10.11,3.29-15.47Z"/>
    </g>
  </g>
  <g id="Buttons_under_tokens">
    <path id="mouse_answer" class="fill-board-dark stroke-0" d="m275.99,357.13c-9.26-11.89-12.53-25.2-8.18-39.92,1.16-3.92,7.28-7.32,11.15-8.11,13.11-2.68,28.32,3.91,32.2,16.66,4.16,13.69-6.77,32.21-17.02,37.03-4.92,2.31-12.92-.39-18.14-5.65Z"/>
    <path id="cat_answer" class="fill-board-dark stroke-0" d="m280.79,250.59c14.94,1.99,26.59,9.19,33.81,22.74,1.92,3.61-.06,10.32-2.27,13.6-7.47,11.1-22.94,17.06-34.64,10.68-12.56-6.85-17.75-27.72-13.81-38.34,1.89-5.1,9.49-8.77,16.9-8.68Z"/>
    <path id="cheese_answer" class="fill-board-dark stroke-0" d="m264.31,224.58c1.47-15,8.26-26.9,21.55-34.59,3.54-2.05,10.32-.3,13.67,1.79,11.35,7.08,17.85,22.33,11.89,34.25-6.4,12.79-27.08,18.7-37.84,15.14-5.16-1.71-9.1-9.18-9.27-16.59Z"/>
    <path id="ball_answer" class="fill-board-dark stroke-0" d="m280.2,130.72c14.99,1.58,26.84,8.45,34.43,21.8,2.02,3.56.22,10.32-1.89,13.65-7.16,11.3-22.46,17.69-34.33,11.64-12.75-6.5-18.51-27.22-14.86-37.94,1.75-5.15,9.24-9.03,16.65-9.15Z"/>
    <path id="pillow_answer" class="fill-board-dark stroke-0" d="m269.5,114.01c-5.54-14.02-4.92-27.7,3.4-40.61,2.22-3.44,9.05-4.97,12.98-4.64,13.33,1.12,26.07,11.73,26.2,25.05.14,14.31-15.57,29-26.76,30.73-5.37.83-12.28-4.01-15.82-10.53Z"/>
  </g>
  <g id="Restart_button">
    <path class="fill-board-dark stroke-0" d="m299.11,54.25c-10.28,7.75-18.79,8.97-22.84,3.28-4.93-6.92-3.54-21.79,2.46-26.32,7.46-5.64,23.43-4.02,29,2.93,4.61,5.75,1.83,12.24-8.62,20.11Z"/>
    <path class="fill-board-dark stroke-0" d="m278.72,27.07c-4.56,3.2-10.71,4.83-12.02-4.5-.67-4.72,4.15-9.02,9.23-8.83,5.91.22,13.49,5.83,2.79,13.34Z"/>
    <path class="fill-board-dark stroke-0" d="m257.77,47.98c-3.64-2.92-5.9-8.27,3.13-14.43,4.57-3.12,9.32-.51,9.69,4.7.42,6.06-4.28,16.6-12.82,9.73Z"/>
    <path class="fill-board-dark stroke-0" d="m302.74,10.66c3.67,4.56.81,10.46-2.63,11.88s-9.38,2.1-11.81-1.09c-2.24-2.95-.14-8.46,1.94-10.63,1.65-1.73,8.84-4.72,12.51-.16Z"/>
    <path class="fill-white stroke-0" d="m280.8,42.85c.11.61.83,1.03,1.61.95.78-.08,1.33-.64,1.22-1.25-.5-2.84.45-5.05,2.6-6.06,2.11-.99,5.16-.72,8.18.65-.35.57-.58,1.11-.61,1.52,0,.03.02.06.05.07,1.11.53,4.16-.12,5.23-.69.06-.03.11-.09.12-.14.29-.96-.08-3.28-.98-3.97-.03-.02-.07-.03-.11-.02-.69.15-1.47.68-2.18,1.35-2.28-1.06-4.6-1.61-6.74-1.61-1.61,0-3.13.31-4.45.93-3.18,1.49-4.62,4.5-3.96,8.26Z"/>
    <path class="fill-white stroke-0" d="m300.02,41.86c-.11-.61-.83-1.03-1.61-.95-.78.08-1.33.64-1.22,1.25.5,2.84-.45,5.05-2.6,6.06-2.11.99-5.16.72-8.18-.65.35-.57.58-1.11.61-1.52,0-.03-.02-.06-.05-.07-1.11-.53-4.16.12-5.23.69-.06.03-.11.09-.12.14-.29.96.08,3.28.98,3.97.03.02.07.03.11.02.69-.15,1.47-.68,2.18-1.35,2.28,1.06,4.6,1.61,6.74,1.61,1.61,0,3.13-.31,4.45-.93,3.18-1.49,4.62-4.5,3.96-8.26Z"/>
  </g>
  <g id="Five_card_mode_button">
    <g>
      <path class="fill-board-dark stroke-0" d="m271.32,372.71c3.49-2.37,10.15-.52,12.46,1.29,2,1.56,2.61,7.01,2.7,9.17.22,5.45-2.02,5.35-5.99,7.88-3.66,2.33-8.09-2.48-11.01-5.67-2.61-2.85-3.85-8.83,1.83-12.68Z"/>
      <path class="fill-board-dark stroke-0" d="m299.22,375.19c2.8,1.29,6.11,4.57,7.07,6.31,1.61,2.94,2.27,7.12.38,9.17-2.99,3.26-8.11,5.24-13.27,2.86-4.76-2.19-5.92-10.37-5.07-13.81.68-2.73,6.8-6.42,10.9-4.53Z"/>
      <path class="fill-board-dark stroke-0" d="m259.13,405.24c-1.03-6.74,2.44-11.23,6.64-12.36,4.21-1.12,12.03-.33,13.06,4.26.41,1.82.29,6.07-.86,7.93-1.54,2.48-4.39,3.84-6.26,4.59-2.6,1.04-11.54,2.36-12.57-4.42Z"/>
      <path class="fill-board-dark stroke-0" d="m312.11,412.69c-1.03,3.07-3.85,3.31-6.74,3.62-3.24.34-6.64.46-8.53-.86-3.57-2.5-4.42-9.93-3.88-13.22.7-4.28,7.11-5.53,10.58-4.86,2.74.54,10.77,8.82,8.58,15.32Z"/>
      <path class="fill-board-dark stroke-0" d="m280.98,425.96c-3.2-.72-4.62-3.28-5.99-6.04-1.49-3.01-2.73-6.28-1.35-8.09,2.63-3.47,8.23-8.14,12.58-6.34,4.01,1.65,7.33,4.96,6.52,8.39-.64,2.72-4.75,13.67-11.76,12.09Z"/>
    </g>
  </g>
  <g id="Mouse">
    <g id="Mouse_light">
      <path class="fill-mouse-light stroke-outline miter stroke-2" d="m277.67,92.75c2.19-3.11,3.28-6.98,2.59-10.67-2.7-5.42-12.79-4.65-15.68.29-2.05,4.87-1.86,11.37,3.52,13.87,4.08.89,6.41.98,9.56-3.5Z"/>
      <path class="fill-mouse-light stroke-outline miter stroke-2" d="m299.99,85.17c-1.29-3.11-2.99-7.19-.82-10.36,2.69-3.33,9.1-3.37,11.37.52,7.41,8.12-4.87,18.22-10.55,9.84Z"/>
      <path class="fill-mouse-light stroke-outline miter stroke-2" d="m278.05,92.49c4.39-6.26,18.48-11.8,22.87-5.15.02,4.3-1.41,10.18-2.22,14.61-2.7,14.64-3.23,11.34-20.65-9.46Z"/>
    </g>
    <g>
      <ellipse class="fill-black stroke-0" cx="295.43" cy="110.8" rx="3.03" ry="2.54" transform="translate(-6.61 19.53) rotate(-3.75)"/>
      <ellipse class="fill-black stroke-0" cx="288.37" cy="95.75" rx="2.2" ry="2.14" transform="translate(-5.64 19.04) rotate(-3.75)"/>
      <path class="fill-white stroke-0" d="m288.5,94.24c-.79.17-.7,2.26.46,2.11.99-.34.89-2.24-.46-2.11Z"/>
      <ellipse class="fill-black stroke-0" cx="296.02" cy="93.33" rx="2.2" ry="2.14" transform="translate(-5.46 19.53) rotate(-3.75)"/>
      <path class="fill-white stroke-0" d="m296.16,91.82c-.79.17-.7,2.26.46,2.11.99-.34.89-2.24-.46-2.11Z"/>
      <line class="fill-none stroke-outline miter stroke-1" x1="290.25" y1="107.84" x2="276.43" y2="113.35"/>
      <line class="fill-none stroke-outline miter stroke-1" x1="289.36" y1="106.68" x2="274.8" y2="109.73"/>
      <line class="fill-none stroke-outline miter stroke-1" x1="298.63" y1="104.02" x2="313.11" y2="100.61"/>
      <line class="fill-none stroke-outline miter stroke-1" x1="298.11" y1="105.61" x2="312.93" y2="104.26"/>
    </g>
  </g>
  <g id="Cat">
    <g>
      <path class="fill-cat-shade stroke-outline round stroke-2" d="m306.85,146.29c.72-8.75,1.55-18.25,1.55-18.25,0,0-6.73,6.23-10.64,9.96l9.09,8.29Z"/>
      <polygon class="fill-cat-shade stroke-outline round stroke-2" points="272.68 145.34 271.26 127.94 281.9 137.9 272.68 145.34 272.68 145.34"/>
    </g>
    <path class="fill-cat-light stroke-outline miter stroke-2" d="m308.42,153.9c0,9.93-7.48,17.98-18.33,17.98s-19.65-8.05-19.65-17.98,8.8-17.98,19.65-17.98,18.33,8.05,18.33,17.98Z"/>
    <g>
      <g>
        <path class="fill-accent-light stroke-0" d="m296.51,147.16c-7.88.52-3.98,9.27,1.99,6.64,2.57-1.02,3.17-7-1.99-6.64Z"/>
        <path class="fill-accent-shade stroke-0" d="m293.16,147.84c-1.1.1-1.31,5.23.05,5.77,1.53.73,5.56.95,6.21-.42.12-.43-4.03-1.65-4.14-2.06-.1-.36-.82-3.42-2.12-3.3Z"/>
        <path class="fill-black stroke-0" d="m295.85,149.69c-.79.1-1.13,2.02-.16,2.57.18.1.35.17.56.15.27-.03.43-.25.61-.42.31-.31.34-.8.26-1.21-.07-.36-.34-1.21-1.28-1.09Z"/>
        <circle class="fill-white stroke-0" cx="297.82" cy="148.44" r="1.27"/>
        <path class="fill-black stroke-0" d="m296.06,154.98c-2.63,0-4.53-1.73-4.53-4.11,0-2.61,2.5-4.02,4.86-4.02,2.56,0,4.21,1.58,4.21,4.02s-1.91,4.11-4.54,4.11Zm.33-7.25c-1.98,0-3.98,1.08-3.98,3.14,0,1.9,1.5,3.23,3.65,3.23s3.67-1.33,3.67-3.23-1.25-3.14-3.34-3.14Z"/>
      </g>
      <g>
        <path class="fill-accent-light stroke-0" d="m281.43,147.16c-7.88.52-3.98,9.27,1.99,6.64,2.57-1.02,3.17-7-1.99-6.64Z"/>
        <path class="fill-accent-shade stroke-0" d="m278.07,147.84c-1.1.1-1.31,5.23.05,5.77,1.53.73,5.56.95,6.21-.42.12-.43-4.03-1.65-4.14-2.06-.1-.36-.82-3.42-2.12-3.3Z"/>
        <path class="fill-black stroke-0" d="m280.75,149.24c-.79.1-1.13,2.02-.16,2.57.18.1.35.17.56.15.27-.03.43-.25.61-.42.31-.31.34-.8.26-1.21-.07-.36-.34-1.21-1.28-1.09Z"/>
        <circle class="fill-white stroke-0" cx="283.41" cy="148.19" r="1.27"/>
        <path class="fill-black stroke-0" d="m281.23,154.65c-2.74,0-4.72-1.8-4.72-4.28,0-2.66,2.78-3.87,5.36-3.87s4.09,1.34,4.09,3.87-1.99,4.28-4.72,4.28Zm.63-7.28c-2.16,0-4.48.94-4.48,2.99s1.58,3.41,3.85,3.41,3.85-1.4,3.85-3.41-1.02-2.99-3.21-2.99Z"/>
      </g>
      <g>
        <ellipse class="fill-cat-shade stroke-outline miter stroke-1" cx="288.3" cy="159.6" rx="3.05" ry="2.56"/>
        <path class="fill-black stroke-0" d="m293.45,166.34c.34-.49-.2-1.07-.64-.44-.87,1.23-2.04,1.47-3.19.7-1.28-.95-1.07-2.73-1.19-4.14,0-.56-.88-.57-.88,0,.02,1.38-.02,2.96-.89,4.1-.98.99-2.4.36-3.03-.72-.4-.67-1.39-.5-.55.79,1.24,1.91,4.44,1.58,4.93-.78,1.07,2.44,3.92,2.74,5.45.49Z"/>
      </g>
      <g>
        <line class="fill-none stroke-outline miter stroke-1" x1="261.85" y1="166.36" x2="278.78" y2="159.04"/>
        <line class="fill-none stroke-outline miter stroke-1" x1="262.73" y1="172.51" x2="277.9" y2="162.09"/>
        <line class="fill-none stroke-outline miter stroke-1" x1="269.97" y1="176.25" x2="279.71" y2="163.06"/>
        <line class="fill-none stroke-outline miter stroke-1" x1="308.32" y1="173.65" x2="295.74" y2="163.81"/>
        <line class="fill-none stroke-outline miter stroke-1" x1="312.82" y1="169.48" x2="297.92" y2="161.79"/>
        <line class="fill-none stroke-outline miter stroke-1" x1="315.54" y1="163.16" x2="297.99" y2="159.69"/>
      </g>
    </g>
  </g>
  <g id="Cheese">
    <polygon class="fill-cheese-light stroke-outline round stroke-2" points="271.17 212.1 289.51 194 310.92 200.62 271.17 212.1"/>
    <path class="fill-cheese-shade stroke-outline miter stroke-2" d="m311.17,200.69c-.53,0-39.7,11.42-40.05,11.59-.35.18-.72,19.65,0,20.38.2.2,5.5-1.23,12.12-3.13.01-.26.06-.53.17-.8.24-.56.98-.99,1.52-.98.64,0,1.19-.09,1.69.44.09.09.14.2.17.32,10.58-3.08,22.68-6.79,22.98-7.09.53-.53,1.93-20.73,1.41-20.73Z"/>
    <g>
      <path class="fill-black stroke-0" d="m292.53,199.24c-1.05.18-1.3.87-1.24,1.15.1.93,1.77.95,3.17.87,3.27-.12,3.26-3.03-1.93-2.02Z"/>
      <path class="fill-black stroke-0" d="m294.39,215.62c-1.03.94-1.5,4.12.97,4.22,4.8.98,3.73-7.97-.97-4.22Z"/>
      <path class="fill-black stroke-0" d="m279.57,215.14c-3.37.09-4.41,5.35-.49,5.62,4.13,1.38,5.24-6.53.49-5.62Z"/>
      <path class="fill-black stroke-0" d="m283.33,204.97c-1.07.91-.36,1.76.88,1.3,2.64-1.27.98-2.31-.88-1.3Z"/>
      <path class="fill-black stroke-0" d="m303.59,204.55c-1.27-.13-2.77.74-2.96,1.46-1.15,6.69,10.82-.09,2.96-1.46Z"/>
    </g>
  </g>
  <g id="Ball">
    <circle class="fill-ball-light stroke-outline miter stroke-2" cx="289.78" cy="271.26" r="18.32"/>
    <g>
      <path class="fill-ball-shade stroke-0" d="m307.49,275.1c-11.93,1.7-25.16-1.04-31.55-15.36,0,0-3.63,3.94-4.15,9.86,1.33,10.31,17.13,18.79,30.52,15.26,4.57-5.09,5.19-9.76,5.19-9.76Z"/>
      <path class="fill-black stroke-0" d="m307.36,274.62c-9.25,1.3-19.24-.3-25.91-7.35-2.15-2.27-3.8-4.94-5.08-7.78-.13-.29-.58-.32-.79-.1-2.18,2.38-3.61,5.7-4.12,8.84-.09.53-.22,1.11-.14,1.64.07.5.18.99.31,1.48.24.87.59,1.72,1,2.53.89,1.75,2.14,3.32,3.55,4.68,6.59,6.35,16.95,9.04,25.81,6.89.38-.09.57-.14.83-.42.29-.32.57-.66.84-1,.5-.63.98-1.28,1.41-1.95.71-1.08,1.32-2.23,1.83-3.42.46-1.08.91-2.25,1.07-3.42.09-.63-.88-.9-.96-.27-.11.84-.39,1.68-.69,2.47-.79,2.12-1.97,4.11-3.37,5.88-.22.28-.44.56-.68.82s-.37.31-.72.39c-.56.13-1.13.24-1.7.34-1.15.19-2.32.28-3.49.3-2.25.04-4.49-.2-6.68-.69-4.15-.94-8.19-2.75-11.48-5.46-2.8-2.3-5.19-5.36-5.85-9.01-.22-1.25.29-2.78.67-3.97.36-1.12.83-2.19,1.4-3.22.53-.96,1.13-1.92,1.87-2.74l-.79-.1c2.22,4.94,5.67,9.28,10.34,12.1,4.1,2.48,8.86,3.66,13.62,3.91,2.73.14,5.45-.04,8.15-.42.63-.09.36-1.05-.27-.96Z"/>
    </g>
    <g>
      <path class="fill-accent-light stroke-outline stroke-1" d="m306.61,277.2c-13.58,2.37-26.35-2.32-31.73-16.19,0,0-1.95,2.81-2.81,5.74,1.34,10.38,16.83,20.35,31.24,16.32,3.05-3.66,3.3-5.86,3.3-5.86Z"/>
    </g>
    <g>
      <path class="fill-white stroke-0" d="m303.99,264.74c-.18-.01-.11.67-.09,1.03.04.49.04.67.19,1,.18.39.23.59.33,1.2.12.71.21,1.48.41,2.06.18.51.25-.28.3-.71.06-.56.08-1.12-.05-1.75-.06-.29-.15-.5-.21-.78-.06-.25-.1-.52-.17-.76s-.15-.38-.23-.57c-.08-.17-.13-.42-.49-.73Z"/>
      <path class="fill-white stroke-0" d="m303.23,266.31c-.16-.02-.15.47-.15.73,0,.36,0,.48.11.73.14.29.17.43.23.88.06.52.09,1.07.24,1.5.13.38.25-.19.32-.49.1-.4.15-.8.08-1.26-.03-.21-.1-.37-.14-.57-.04-.19-.05-.38-.1-.55s-.11-.28-.17-.42c-.06-.13-.09-.31-.4-.55Z"/>
    </g>
  </g>
  <g id="Pillow">
    <rect class="fill-pillow-light stroke-outline miter stroke-2" x="271.21" y="314.08" width="36.38" height="36.38" rx="3.6" ry="3.6" transform="translate(100.98 -66.04) rotate(15.74)"/>
    <g>
      <path class="fill-pillow-shade stroke-0" d="m284.63,321.29s0-.08,0-.11c2.71-1.76,1.72-2.51-.24-.74-.09-.15-.21-.28-.35-.39.22-1.94.58-2.81-.86-.32-.08,0-.16,0-.25,0-1.21-2.69-2.09-2.23-.72.28-.09.06-.17.13-.24.21-2.67-.64-2.6.51-.4,1.08,0,.1.01.19.03.28-.52.19-1,.59-1.24,1.14-.54,1.23,1.03.25,1.77-.27.12.09.25.16.39.22-.56,2.59.37,1.59.74.11.14-.02.27-.05.4-.1,1.49,1.73,2.39,1.54.64-.48.04-.06.08-.12.11-.18,2.55.4,2.4,0,.2-.73Z"/>
      <path class="fill-pillow-shade stroke-0" d="m279.68,337.76c-.07-.17-.18-.33-.31-.46.51-1.85.98-2.62-.79-.43-.09-.02-.18-.03-.27-.03-.78-2.8-1.7-2.48-.75.17-.1.05-.2.11-.28.19-2.54-1.03-2.63.12-.53,1.02,0,.09,0,.18,0,.27-.55.1-1.1.43-1.42.94-.74,1.15,1.03.38,1.83-.01.1.1.21.19.33.27,0,0,0,.02-.01.03-.96,2.5.14,1.63.73.19.13,0,.26,0,.38-.03,1.21,1.96,2.15,1.92.72-.36.05-.05.1-.1.15-.15,2.45.78,2.37.37.33-.69,0-.04.02-.09.02-.13,2.91-1.31,2.06-2.2-.12-.78Z"/>
      <path class="fill-pillow-shade stroke-0" d="m302.03,325.87c-.01-.07-.03-.13-.05-.2,2.18-2.2,1.09-2.7-.43-.64-.13-.12-.28-.21-.46-.28-.18-1.95,0-2.87-.92-.07-.06.01-.12.03-.18.05-1.78-2.47-2.56-1.81-.63.44-.05.06-.1.13-.14.2-2.9-.11-2.57,1.05-.19,1.14.02.08.04.15.07.23-.5.28-.92.8-1.05,1.4-.28,1.33,1.09.01,1.7-.65.11.07.23.12.36.16.02,0,.03,0,.05,0-.02,2.6.67,1.5.74,0,.16-.04.3-.1.44-.19,1.74,1.31,2.55.96.55-.59.04-.08.08-.17.1-.26,2.43-.13,2.21-.48.03-.74Z"/>
      <path class="fill-pillow-shade stroke-0" d="m297.24,343.36c0-.08,0-.16,0-.24,2.52-1.67,1.59-2.37-.28-.73-.11-.16-.26-.29-.43-.4.22-1.89.55-2.69-.86-.24-.08,0-.16,0-.24.02-1.22-2.73-2.11-2.24-.7.32-.06.05-.12.11-.18.18-2.82-.7-2.72.52-.37,1.09,0,.07.01.14.03.21-.57.17-1.1.59-1.36,1.17-.56,1.27,1.14.18,1.85-.32.1.09.21.17.33.23,0,.01,0,.03-.01.04-.56,2.6.37,1.6.74.11.15,0,.29-.02.43-.07,1.45,1.67,2.33,1.5.67-.45.06-.07.12-.15.17-.23,2.39.36,2.26-.01.22-.71Z"/>
    </g>
    <g>
      <g>
        <path class="fill-pillow-light stroke-outline stroke-1" d="m302.35,361.83c.29-.73.41-.24.5.23.56-1.91,1.42-4.92-.65-6.18.33-.03.65-.23.79-.58-.03-.3-.14-.59-.3-.84-.94-1.05-2.09-.27-1.2,1.16.15.15.34.23.53.25-1.64,1.43-.49,3.97-1.27,5.71.19,0,.41.08.59,0,.22-.12.41-.02.55.15.19-.3.32-.13.47.09Z"/>
      </g>
      <g>
        <path class="fill-pillow-light stroke-outline stroke-1" d="m266.8,345.95c1.21-1.16.3-2.2-.88-1.42-.22.2-.4.46-.5.74.05.37.3.65.62.76-2.32.71-2.23,3.83-2.16,5.83.2-.44.43-.88.54-.1.2-.18.37-.31.48.03.18-.13.39-.19.57-.01.15.12.39.11.57.15-.32-1.88,1.42-4.05.2-5.85.19.02.38,0,.57-.11Z"/>
      </g>
      <g>
        <path class="fill-pillow-light stroke-outline stroke-1" d="m276.99,308.77c-.21-.03-.4.02-.57.11.44-2.13-2.01-3.46-2.43-5.32-.15.11-.37.19-.47.36-.1.23-.32.26-.53.21.03.36-.18.3-.43.21.2.76-.18.44-.54.11.7,1.87,1.83,4.79,4.24,4.55-.25.22-.38.58-.28.94.2.22.47.38.75.49,1.38.27,1.83-1.04.26-1.65Z"/>
      </g>
      <g>
        <path class="fill-pillow-light stroke-outline stroke-1" d="m317.12,315.29c-.13-.13-.25-.34-.43-.4-.24-.06-.31-.27-.3-.49-.35.09-.33-.12-.28-.39-.71.33-.47-.1-.2-.51-1.72,1.02-4.4,2.63-3.74,4.97-.26-.21-.63-.27-.97-.11-.18.24-.3.53-.35.82-.02,1.41,1.35,1.62,1.67-.03-.01-.21-.09-.39-.21-.54,2.17.06,3.06-2.58,4.82-3.32Z"/>
      </g>
    </g>
  </g>
  <g id="Answers">
    <g id="answer-paw-pillow" data-answer-object="pillow" transform="translate(291.13 334.47) scale(1.12) translate(-291.13 -334.47)">
      <path class="fill-answer-paw stroke-outline round stroke-1" d="m289.38,313.41c3.33,1.21,8.52,4.13,6.19,8.64-1.34,2.58-4.96,7.5-7.63,6.18-4.94-3.1-10.86-8.68-3.94-13.34,1.5-1,3.53-1.82,5.38-1.49Z"/>
      <path class="fill-answer-paw stroke-outline round stroke-1" d="m291.05,355.53c-6.15-.39-14.56-1.51-13.8-9.1.46-6.51,3.98-13.16,10.86-14.65,7.67-1.48,13.1,5.5,16.12,11.52,4.19,8.5-6.96,11.85-13.18,12.23Z"/>
      <path class="fill-answer-paw stroke-outline round stroke-1" d="m270.82,336.57c-10.15.73-7.54-16.79,3.91-13.68,3.03.63,3.35,3.33,3.69,5.73.98,6.86.04,7.79-7.6,7.95Z"/>
      <path class="fill-answer-paw stroke-outline round stroke-1" d="m307.44,318.91c4.18-.04,7.33,3.44,7.3,8.07-.02,3.03-5.51,6.67-10.09,6.7-1.6,0-4.58-6.05-4.61-9.36-.03-3.17,2.97-5.35,7.4-5.4Z"/>
    </g>
    <g id="answer-paw-ball" data-answer-object="ball" transform="translate(291.13 274.25) scale(1.12) translate(-291.13 -274.25)">
      <path class="fill-answer-paw stroke-outline round stroke-1" d="m289.38,253.19c3.33,1.21,8.52,4.13,6.19,8.64-1.34,2.58-4.96,7.5-7.63,6.18-4.94-3.1-10.86-8.68-3.94-13.34,1.5-1,3.53-1.82,5.38-1.49Z"/>
      <path class="fill-answer-paw stroke-outline round stroke-1" d="m291.05,295.31c-6.15-.39-14.56-1.51-13.8-9.1.46-6.51,3.98-13.16,10.86-14.65,7.67-1.48,13.1,5.5,16.12,11.52,4.19,8.5-6.96,11.85-13.18,12.23Z"/>
      <path class="fill-answer-paw stroke-outline round stroke-1" d="m270.82,276.35c-10.15.73-7.54-16.79,3.91-13.68,3.03.63,3.35,3.33,3.69,5.73.98,6.86.04,7.79-7.6,7.95Z"/>
      <path class="fill-answer-paw stroke-outline round stroke-1" d="m307.44,258.69c4.18-.04,7.33,3.44,7.3,8.07-.02,3.03-5.51,6.67-10.09,6.7-1.6,0-4.58-6.05-4.61-9.36-.03-3.17,2.97-5.35,7.4-5.4Z"/>
    </g>
    <g id="answer-paw-cheese" data-answer-object="cheese" transform="translate(291.13 213.04) scale(1.12) translate(-291.13 -213.04)">
      <path class="fill-answer-paw stroke-outline round stroke-1" d="m289.38,191.97c3.33,1.21,8.52,4.13,6.19,8.64-1.34,2.58-4.96,7.5-7.63,6.18-4.94-3.1-10.86-8.68-3.94-13.34,1.5-1,3.53-1.82,5.38-1.49Z"/>
      <path class="fill-answer-paw stroke-outline round stroke-1" d="m291.05,234.1c-6.15-.39-14.56-1.51-13.8-9.1.46-6.51,3.98-13.16,10.86-14.65,7.67-1.48,13.1,5.5,16.12,11.52,4.19,8.5-6.96,11.85-13.18,12.23Z"/>
      <path class="fill-answer-paw stroke-outline round stroke-1" d="m270.82,215.13c-10.15.73-7.54-16.79,3.91-13.68,3.03.63,3.35,3.33,3.69,5.73.98,6.86.04,7.79-7.6,7.95Z"/>
      <path class="fill-answer-paw stroke-outline round stroke-1" d="m307.44,197.47c4.18-.04,7.33,3.44,7.3,8.07-.02,3.03-5.51,6.67-10.09,6.7-1.6,0-4.58-6.05-4.61-9.36-.03-3.17,2.97-5.35,7.4-5.4Z"/>
    </g>
    <g id="answer-paw-cat" data-answer-object="cat" transform="translate(291.13 154.47) scale(1.12) translate(-291.13 -154.47)">
      <path class="fill-answer-paw stroke-outline round stroke-1" d="m289.38,133.41c3.33,1.21,8.52,4.13,6.19,8.64-1.34,2.58-4.96,7.5-7.63,6.18-4.94-3.1-10.86-8.68-3.94-13.34,1.5-1,3.53-1.82,5.38-1.49Z"/>
      <path class="fill-answer-paw stroke-outline round stroke-1" d="m291.05,175.53c-6.15-.39-14.56-1.51-13.8-9.1.46-6.51,3.98-13.16,10.86-14.65,7.67-1.48,13.1,5.5,16.12,11.52,4.19,8.5-6.96,11.85-13.18,12.23Z"/>
      <path class="fill-answer-paw stroke-outline round stroke-1" d="m270.82,156.57c-10.15.73-7.54-16.79,3.91-13.68,3.03.63,3.35,3.33,3.69,5.73.98,6.86.04,7.79-7.6,7.95Z"/>
      <path class="fill-answer-paw stroke-outline round stroke-1" d="m307.44,138.91c4.18-.04,7.33,3.44,7.3,8.07-.02,3.03-5.51,6.67-10.09,6.7-1.6,0-4.58-6.05-4.61-9.36-.03-3.17,2.97-5.35,7.4-5.4Z"/>
    </g>
    <g id="answer-paw-mouse" data-answer-object="mouse" transform="translate(291.13 93.25) scale(1.12) translate(-291.13 -93.25)">
      <path class="fill-answer-paw stroke-outline round stroke-1" d="m289.38,72.19c3.33,1.21,8.52,4.13,6.19,8.64-1.34,2.58-4.96,7.5-7.63,6.18-4.94-3.1-10.86-8.68-3.94-13.34,1.5-1,3.53-1.82,5.38-1.49Z"/>
      <path class="fill-answer-paw stroke-outline round stroke-1" d="m291.05,114.31c-6.15-.39-14.56-1.51-13.8-9.1.46-6.51,3.98-13.16,10.86-14.65,7.67-1.48,13.1,5.5,16.12,11.52,4.19,8.5-6.96,11.85-13.18,12.23Z"/>
      <path class="fill-answer-paw stroke-outline round stroke-1" d="m270.82,95.35c-10.15.73-7.54-16.79,3.91-13.68,3.03.63,3.35,3.33,3.69,5.73.98,6.86.04,7.79-7.6,7.95Z"/>
      <path class="fill-answer-paw stroke-outline round stroke-1" d="m307.44,77.69c4.18-.04,7.33,3.44,7.3,8.07-.02,3.03-5.51,6.67-10.09,6.7-1.6,0-4.58-6.05-4.61-9.36-.03-3.17,2.97-5.35,7.4-5.4Z"/>
    </g>
  </g>
  <g id="Card_placement_bounding_box">
    <rect class="fill-card-placement-bounds stroke-0" x=".16" y="0" width="288" height="431.15"/>
  </g>
</svg>
