<?xml version="1.0" encoding="UTF-8"?>
<svg xmlns="http://www.w3.org/2000/svg" viewBox="0 0 322.04 484.25">
  <defs>
    <style>
      .cls-1, .cls-2 {
        stroke-linecap: round;
        stroke-linejoin: round;
      }

      .cls-1, .cls-3, .cls-4, .cls-5, .cls-6, .cls-7, .cls-8 {
        stroke: #000;
      }

      .cls-1, .cls-7 {
        fill: #de7727;
      }

      .cls-2 {
        fill: #ffdf5d;
      }

      .cls-2, .cls-9 {
        stroke: #201f1f;
      }

      .cls-10, .cls-8 {
        fill: none;
      }

      .cls-10, .cls-11, .cls-12, .cls-13, .cls-14, .cls-15, .cls-16, .cls-17, .cls-18, .cls-19, .cls-20 {
        stroke-width: 0px;
      }

      .cls-21 {
        font-family: HannotateTC-W5-B5pc-H, 'Hannotate TC';
        font-size: 14.69px;
      }

      .cls-3 {
        fill: #005aa9;
      }

      .cls-3, .cls-9, .cls-4, .cls-5, .cls-6, .cls-7, .cls-8 {
        stroke-miterlimit: 10;
      }

      .cls-9 {
        fill: #e8c21d;
      }

      .cls-4 {
        fill: #f79420;
      }

      .cls-5, .cls-14 {
        fill: #d7172f;
      }

      .cls-6 {
        fill: #808283;
      }

      .cls-12 {
        fill: #37b34a;
      }

      .cls-13 {
        fill: #201f1f;
      }

      .cls-15 {
        fill: #9d0917;
      }

      .cls-16 {
        fill: #fff;
      }

      .cls-17 {
        fill: #023f87;
      }

      .cls-18 {
        fill: #005157;
      }

      .cls-19 {
        fill: #006634;
      }

      .cls-20 {
        fill: #008d96;
      }
    </style>
  </defs>
  <g id="Game_screen_small">
    <path class="cls-20" d="m.4,52.32v431.93h321.35V52.32H.4Zm259.57,365.26c0,18.35-15.01,33.36-33.36,33.36H62.14c-18.35,0-33.36-15.01-33.36-33.36V118.98c0-18.35,15.01-33.36,33.36-33.36h164.47c18.35,0,33.36,15.01,33.36,33.36v298.6Z"/>
    <g>
      <path class="cls-18" d="m6.25,390.98c4.42-.3,10.34-3.61,12.4-7.34,2.91-5.28-3.08-8.51-6.91-11.57-.92-.73-2.04-1.25-3.12-1.76-3.38-1.59-6.1-1.76-8.03-.54v18.69c1.32,1.67,3.17,2.69,5.66,2.52Z"/>
      <path class="cls-18" d="m13.29,251.46c.1-4.52-3.94-7.21-11.04-7.34-.57-.01-1.12,0-1.65.02v19.77c.58.15,1.15.24,1.7.25,5.05.13,10.86-6.59,11-12.7Z"/>
      <path class="cls-18" d="m15.58,221.68c.23-4.35-6.25-9.05-12.32-8.92-.94.02-1.83.16-2.67.39v21.51c5.74-.5,14.73-8.15,14.99-12.98Z"/>
      <path class="cls-18" d="m2.21,327.05c5.36-.22,5.93-4.34,6-6.81.13-8.44-3.1-14.2-7.62-15.47v22.18c.56.09,1.1.13,1.62.11Z"/>
      <path class="cls-18" d="m5.24,180.26c6.62.24,15.94-5.85,16.27-10.63.32-4.67-6.49-10.1-12.75-10.14-3.83-.03-6.56,1.45-8.18,4.39v14.58c1.05,1.15,2.58,1.73,4.65,1.81Z"/>
      <path class="cls-18" d="m17.32,332.37c-4.87.29-7.55,3.32-7.07,8.01.45,4.51,2.47,8.88,4.78,12.66,1.1,1.8,5.15,3.31,7.2,2.71,2.79-.82,5.2-3.56,6.68-6.76v-11.83c-2.2-3.2-6.51-5.09-11.59-4.78Z"/>
      <path class="cls-18" d="m18.43,225.02c-3.22,3-3.39,7.06.03,9.9,6.16,5.11,7.21-2.15,10.45-4.93v-.48c-3.44-2.07-4.26-10.27-10.48-4.48Z"/>
      <path class="cls-18" d="m12.91,295.8c-.82-1.79-2.2-3.85-5.05-4.63-1.46-.4-5.7,2.99-5.55,4.34.31,2.84,2.43,7.47,4.24,7.68,2.66.31,9.44-.66,6.36-7.39Z"/>
      <path class="cls-18" d="m9.18,275.31c-2.15-2.55-4.3-5.11-6.45-7.66-.7.64-1.41,1.28-2.14,1.94v10.39c.65.36,1.27.57,1.89.55,2.28-.06,4.47-3.35,6.69-5.22Z"/>
      <path class="cls-18" d="m24,216.01c.18,2.15,2.93,5.52,4.9,6.11v-11.32c-2.87.1-5.17,2.02-4.9,5.21Z"/>
      <path class="cls-18" d="m5.96,149.42c.16-1.43-1.52-4.54-5.37-4.66v11.28c.4-.07.8-.16,1.16-.25,2.97-.75,3.89-3.58,4.21-6.38Z"/>
      <path class="cls-18" d="m3.54,399.93c.25-2.53-.28-6.23-2.95-7.14v9.97c.98-.93,2.83-1.6,2.95-2.82Z"/>
      <path class="cls-18" d="m10.25,309.88c-.41,2.74-.33,7.25,4.62,7.37,4.69.11,6.07-3.68,6.25-7.1.11-2.06.12-3.74-4.11-4.21-4.61-.51-6.4,1.61-6.75,3.94Z"/>
      <path class="cls-18" d="m6.39,210.3c2.04-.22,5.48-1.98,5.7-4.41.3-3.3-3.46-7.15-6.62-7.28-2.52-.1-3.9.73-4.87,1.99v8.12c1.6,1.24,3.95,1.78,5.8,1.58Z"/>
      <path class="cls-18" d="m14.93,145.66c-2.77-.37-6.55,1.43-6.38,6.48.17,5.13,4.59,5.24,7.39,5.92,1.22.3,5.01-3.64,4.68-4.4-1.26-2.94-2.42-7.56-5.69-8Z"/>
      <path class="cls-18" d="m19.33,191.26c.61-2.11-1.43-5.47-3.83-6.18-2.64-.77-3.4,1.23-4.13,3.04-.45,1.12-.61,2.37-.72,2.85-.16,2.76.08,4.58,2.66,4.7,2.38.11,5.36-2.12,6.02-4.4Z"/>
      <path class="cls-18" d="m23.31,195.2c.76.25,2.14-1.32,3.9-2.53-1.49-1.51-2.52-3.24-3.22-3.11-1.21.22-3,1.5-3.1,2.48-.1,1.03,1.31,2.79,2.42,3.16Z"/>
      <path class="cls-18" d="m19.24,195c-.93-.07-2.64,1.37-2.8,2.35-.15.91,1.29,2.08,2.03,3.13h1.22c.71-.91,2.13-1.97,1.97-2.69-.24-1.12-1.5-2.72-2.42-2.79Z"/>
      <path class="cls-18" d="m21.59,188.41c.91.17,2.11-1.26,3.18-1.98,0-.39.02-.78.03-1.16-1.14-.67-2.24-1.77-3.42-1.86-.74-.06-2.4,1.67-2.25,2.12.39,1.16,1.45,2.69,2.46,2.88Z"/>
      <path class="cls-18" d="m92.69,75.36c2.38.11,5.36-2.12,6.02-4.4.61-2.11-1.43-5.47-3.83-6.18-2.64-.77-3.4,1.23-4.13,3.04-.45,1.12-.61,2.37-.72,2.85-.16,2.76.08,4.58,2.66,4.7Z"/>
      <path class="cls-18" d="m103.37,69.24c-1.21.22-3,1.5-3.1,2.48-.1,1.03,1.31,2.79,2.42,3.16.76.25,2.14-1.32,3.9-2.53-1.49-1.51-2.52-3.24-3.22-3.11Z"/>
      <path class="cls-18" d="m98.62,74.69c-.93-.07-2.64,1.37-2.8,2.35-.15.91,1.29,2.08,2.03,3.13.41,0,.81,0,1.22,0,.71-.91,2.13-1.96,1.97-2.68-.24-1.12-1.5-2.72-2.42-2.79Z"/>
      <path class="cls-18" d="m100.96,68.1c.91.17,2.11-1.26,3.18-1.98,0-.39.02-.78.03-1.16-1.14-.67-2.24-1.77-3.42-1.86-.74-.06-2.4,1.67-2.25,2.12.39,1.16,1.45,2.69,2.46,2.88Z"/>
      <path class="cls-18" d="m25.08,290.56c2.2-1.69,3.41-3.06,1.81-5.08-1.48-1.88-5.1-2.67-7.27-1.67-2,.92-3.21,4.66-2.17,6.94,1.14,2.5,3.16,1.76,4.99,1.14,1.15-.39,2.19-1.09,2.63-1.32Z"/>
      <path class="cls-18" d="m19.18,282.13c.85-.6,1.26-2.82.81-3.9-.31-.74-2.72-2.54-4.47-1.3-1.73,1.23-.8,4.03-.25,4.47.96.78,3.1,1.29,3.91.72Z"/>
      <path class="cls-18" d="m26.34,277.52c-1.06-.45-2.88-.32-3.32.26-.69.91-1.08,2.91-.52,3.65.56.75,2.76,1.1,3.61.58.78-.48,1.34-2.33,1.04-3.58-.1-.39-.43-.76-.8-.91Z"/>
      <path class="cls-18" d="m12.41,282.86c-.38.08-.76.38-.9.74-.45,1.24.12,2.85.83,3.81.44.6,2.84.73,3.08.32.62-1.06,1.09-2.86.57-3.75-.46-.8-2.31-1.39-3.58-1.11Z"/>
      <path class="cls-18" d="m51.47,470.45c-2.36,1.4-1.41,3.33-.59,5.09.51,1.1,1.32,2.06,1.6,2.47,1.91,2,3.41,3.05,5.25,1.25,1.71-1.67,2.1-5.36.87-7.41-1.13-1.89-4.98-2.68-7.13-1.4Z"/>
      <path class="cls-18" d="m64.19,471.62c.71-.39.49-2.46.8-4.58-2.12.06-4.09-.36-4.47.24-.67,1.04-.94,3.22-.29,3.96.69.78,2.94.94,3.96.38Z"/>
      <path class="cls-18" d="m61.28,474.46c-.69.64-.79,2.86-.19,3.65.56.73,2.4.47,3.68.64l.82-.9c-.18-1.14.01-2.89-.62-3.27-.98-.58-3.01-.75-3.69-.12Z"/>
      <path class="cls-18" d="m58.05,468.26c.74-.55.52-2.4.72-3.68-.28-.27-.56-.54-.84-.81-1.27.37-2.82.43-3.69,1.24-.55.51-.41,2.9.02,3.09,1.12.5,2.96.77,3.79.16Z"/>
      <path class="cls-18" d="m22.95,326.56c0,1.99,3.04,6.09,5.95,5.96v-14.19c-4.38.28-5.96,6.11-5.95,8.23Z"/>
      <path class="cls-18" d="m13.17,391.95c-2.08-.32-4.94,1.2-6.49,2.79-.77.79-1.13,3.76,2.03,5.27,3.4,1.62,5.34-.51,6.38-2.09,1.25-1.9,1.45-5.44-1.91-5.96Z"/>
      <path class="cls-18" d="m15.64,272.48c1.24.41,7.25-1.35,7.23-5.95-.02-4.68-6.35-6.58-7.55-6.12-2.45.96-5.52,4.05-5.57,6.32-.04,1.99,3.41,4.93,5.88,5.74Z"/>
      <path class="cls-18" d="m11.69,77.92c-.4,8.47,5.49,6.81,7.95,3.87,2.12-2.53,1.83-6.71-.86-8.25-5.31-3.04-6.92.77-7.09,4.38Z"/>
      <path class="cls-18" d="m14.98,68.25c6.19-1.27,3.03-7.77.11-10.01-2.52-1.94-5.4-.74-5.6,2.69-.39,6.78,2.86,7.86,5.5,7.32Z"/>
      <path class="cls-18" d="m7.33,94.01c6.16-1.38,3.44-6.35.7-7.96-2.36-1.39-5.27-.27-5.67,2.47-.79,5.41,2.35,6.08,4.97,5.49Z"/>
      <path class="cls-18" d="m56.96,83.11c4.37.29,7.15-4.33,7.46-12.4.32-8.19-1.73-12.12-6.35-12.16-5.59-.05-12.7,7.07-12.92,12.93-.18,4.71,6.49,11.28,11.81,11.63Z"/>
      <path class="cls-18" d="m32.06,76.08c6.31,3.82,8.37-.72,8.68-5.07.74-10.21-6.42-8.38-9.47-4.91-2.63,2.99-2.41,8.04.79,9.97Z"/>
      <path class="cls-18" d="m39.01,81.95c-.59,6.83,2.91,7.85,5.77,7.24,6.72-1.43,3.46-7.89.35-10.08-2.68-1.89-5.83-.62-6.12,2.84Z"/>
      <path class="cls-18" d="m37.39,56.85c.29,2.35,2.61,6.36,5.52,6.47,3.16.11,5.69-3.86,6.54-6.65.34-1.13.18-2.57-.42-3.88h-10.65c-.79,1.56-1.09,3.23-.98,4.07Z"/>
      <path class="cls-18" d="m224.24,78.46c3.36,1.42,9.94-1.62,11.65-5.38,1.4-3.09-1.18-6.36-6.94-8.79-5.85-2.47-9.25-2.05-10.54,1.28-1.56,4.03,1.65,11.13,5.83,12.89Z"/>
      <path class="cls-18" d="m222.69,81.51c-6.47-2.99-7.63,1.3-6.57,4.5h10.2c.35-1.99-1.56-3.54-3.62-4.5Z"/>
      <path class="cls-18" d="m229.76,80.55c-2.1,1.42-2.04,4.05.39,5.21,4.79,2.29,6.48.04,6.82-2.2.8-5.26-4.77-4.66-7.21-3.01Z"/>
      <path class="cls-18" d="m211.52,80.07c1.78.43,5.32-.15,6.19-2.23.94-2.25-1.24-5.18-3.03-6.55-1.8-1.38-5.78-1.08-7.06,2.24-1.28,3.33,2.49,6.2,3.9,6.54Z"/>
      <path class="cls-18" d="m249.51,63.44c-2.17,1.34-3.11,6.3-1.67,8.8,1.19,2.05,4.09,1.91,7.81-.38,3.77-2.32,4.92-4.42,3.55-6.51-1.66-2.52-6.99-3.57-9.69-1.91Z"/>
      <path class="cls-18" d="m248.4,61.32c4.8-2.74,1.83-5.4-.64-5.73-2.13-.28-4.33,1.34-4.24,3.35.18,3.98,2.84,3.54,4.88,2.37Z"/>
      <path class="cls-18" d="m246.08,65.72c.04-1.77-1.47-2.8-3.12-1.89-3.24,1.79-2.65,3.67-1.51,4.77,2.66,2.59,4.58-.82,4.63-2.87Z"/>
      <path class="cls-18" d="m257.45,60.91c1.51-.46,2.96-2.85,1.59-4.92-1.37-2.08-4.53-1.1-5.3-.43-.97.84-2.07,3.08-1.24,4.42.9,1.45,3.44,1.4,4.95.94Z"/>
      <path class="cls-18" d="m200.25,68.37c1.45,1.25,3.16.6,5.3-2.04,2.11-2.59,2.51-4.79,1.08-5.89-1.75-1.35-5.62-1.14-6.85.38-1.54,1.88-1.28,6.04.47,7.55Z"/>
      <path class="cls-18" d="m198.28,59.76c1.09-1.44,1.7-3.41-1.31-3.95-1.52-.27-2.98,1.23-2.98,2.88,0,1.92,1.72,4.44,4.29,1.07Z"/>
      <path class="cls-18" d="m201.86,58.44c1.57.17,4.35-.94,2.65-3.23-.72-.97-2.09-1.61-3.78.67-.86,1.16-.23,2.41,1.12,2.56Z"/>
      <path class="cls-18" d="m197.05,66.6c.5-1.1.8-3.03-.21-3.86-.93-.77-2.75-.15-3.49.5-.58.51-1.65,2.82-.21,4.07,1.44,1.25,3.4.4,3.9-.71Z"/>
      <path class="cls-18" d="m17.14,111.77c2.3-2.45,1.78-9.11-.91-11.78-2.22-2.2-5.87-1.02-9.82,3.18-4,4.26-4.74,7.33-2.27,9.51,2.98,2.64,10.14,2.14,13-.91Z"/>
      <path class="cls-18" d="m26.33,115.42c-1.61-5.01-4.84-3.53-7.04-1.34-5.18,5.14-.47,7.51,2.8,7.07,2.82-.38,5.06-3.2,4.24-5.74Z"/>
      <path class="cls-18" d="m20.71,107.67c.56,2.27,2.85,3.06,4.62,1.34,3.51-3.4,2.11-5.58.28-6.6-4.28-2.38-5.55,2.62-4.91,5.26Z"/>
      <path class="cls-18" d="m14.46,123.27c.94-1.4,1.58-4.65.06-6.06-1.65-1.54-4.87-.59-6.63.52-1.77,1.11-2.79,4.65-.32,6.82,2.46,2.17,6.15-.17,6.9-1.28Z"/>
      <path class="cls-18" d="m20.34,434.48c3.7-2.04,6.56-6.97,5.42-9.34-1.17-2.42-6.99-3.57-9.88-1.94-3.23,1.82-3.79,5.23-1.58,9.49,1.44,2.78,3.27,3.32,6.04,1.8Z"/>
      <path class="cls-18" d="m13.81,422.63c-.82-1.95-1.38-4.1-2.62-5.73-.37-.49-3.38.03-3.86.86-.73,1.25-.94,4.13-.23,4.61,1.55,1.03,3.82.98,5.79,1.38.31-.37.61-.74.92-1.11Z"/>
      <path class="cls-18" d="m21.64,416.98c-.33-2.08-3.79-3.93-5.16-2.79-1.08.9-1.44,2.66-1.78,3.36,1.52,3.65,3.75,3.67,5.7,2.88.79-.31,1.41-2.35,1.24-3.46Z"/>
      <path class="cls-18" d="m10.11,431.87c2.46-.72,1.93-3.43.88-4.62-.91-1.03-3.21-1.29-4.77-1.05-.69.1-3.17,2.38-2.01,4.58,1.24,2.34,4.46,1.52,5.91,1.1Z"/>
      <path class="cls-18" d="m7.97,357.99c-1.38,1.17-1.33,2.86.13,4.7.95,1.2,1.88,1.29,3.06.3,1.59-1.32,2.5-3.95,1.73-4.98-.79-1.05-3.68-1.06-4.92,0Z"/>
      <path class="cls-18" d="m3.37,356.18c-.23.67-.07,2.07.32,2.23.84.35,1.92.12,2.9.12.11-.21.22-.41.34-.62-.58-.86-1.04-1.84-1.79-2.5-.22-.2-1.62.33-1.77.77Z"/>
      <path class="cls-18" d="m9.88,356.24c.35-.22.46-1.26.27-1.77-.35-.97-2.18-1.53-2.73-.86-.43.53-.44,1.41-.54,1.78,1.07,1.61,2.14,1.41,3,.85Z"/>
      <path class="cls-18" d="m6,360.38c-.53-.41-1.66-.32-2.39-.06-.32.11-1.3,1.44-.54,2.38.81,1.01,2.28.31,2.94-.03,1.11-.57.6-1.82-.01-2.3Z"/>
      <path class="cls-18" d="m18.14,404.21c-1.14,1.03-1.17,1.95-.1,3.08,1.42,1.5,4.1,2.24,5.08,1.41,1-.85.82-3.74-.3-4.91-1.26-1.3-2.94-1.15-4.68.42Z"/>
      <path class="cls-18" d="m24.33,399.08c-.68-.19-2.07.06-2.2.46-.3.86,0,1.92.06,2.91.21.1.43.2.64.3.82-.63,1.77-1.16,2.38-1.94.18-.24-.43-1.59-.88-1.72Z"/>
      <path class="cls-18" d="m27.15,402.96c-.56-.4-1.43-.35-1.81-.43-1.54,1.17-1.27,2.22-.66,3.05.25.33,1.28.38,1.79.16.94-.41,1.39-2.28.68-2.78Z"/>
      <path class="cls-18" d="m20.3,401.97c.37-.55.21-1.68-.09-2.39-.13-.31-1.52-1.21-2.41-.39-.95.87-.17,2.29.21,2.93.64,1.07,1.86.49,2.29-.16Z"/>
      <path class="cls-18" d="m78.44,66.97c1.15-.65,1.52-3.52.64-4.87-.99-1.52-2.67-1.69-4.67-.48-1.31.79-1.52,1.7-.69,3,1.11,1.74,3.6,2.98,4.72,2.35Z"/>
      <path class="cls-18" d="m82,59.61c.23-.2-.12-1.65-.54-1.86-.63-.32-2.04-.33-2.25.03-.46.79-.36,1.89-.49,2.87.19.14.38.28.57.41.92-.46,1.95-.8,2.71-1.45Z"/>
      <path class="cls-18" d="m80.57,64.22c.18.37,1.19.62,1.72.5,1.01-.23,1.8-1.97,1.2-2.6-.47-.5-1.34-.62-1.69-.77-1.73.85-1.67,1.94-1.23,2.87Z"/>
      <path class="cls-18" d="m76.96,59.83c.47-.47.53-1.61.37-2.36-.07-.33-1.26-1.47-2.29-.84-1.1.68-.6,2.22-.35,2.91.43,1.18,1.73.83,2.28.28Z"/>
      <path class="cls-18" d="m74.77,458.45c-1.51.25-2.04,1.01-1.75,2.53.38,2.03,2.24,4.11,3.51,3.94,1.3-.17,2.72-2.7,2.4-4.29-.35-1.77-1.85-2.56-4.16-2.18Z"/>
      <path class="cls-18" d="m82.75,457.48c-.47-.53-1.77-1.07-2.1-.81-.71.56-1.04,1.62-1.52,2.48.12.2.25.4.37.6,1.03-.08,2.11-.02,3.06-.34.28-.1.5-1.57.19-1.92Z"/>
      <path class="cls-18" d="m81.73,460.94c-1.93.15-2.27,1.18-2.21,2.21.03.41.87,1.01,1.42,1.1,1.02.16,2.4-1.16,2.08-1.97-.25-.64-1.02-1.07-1.29-1.34Z"/>
      <path class="cls-18" d="m77.19,454.05c-1.27.22-1.38,1.84-1.41,2.58-.04,1.25,1.3,1.42,2.01,1.11.61-.26,1.09-1.29,1.22-2.05.06-.33-.62-1.84-1.82-1.63Z"/>
      <path class="cls-18" d="m28.69,237.26c-1.83,2.26-4.67,4.33-5.12,6.84-.29,1.59,2.55,3.75,5.34,7.16v-13.79c-.07-.07-.15-.14-.22-.21Z"/>
      <path class="cls-18" d="m7.83,67.06c-2.43-3.58-4.83-5.7-7.24-6.4v23.97c1.38-.54,2.72-1.24,3.96-2.1,5.6-3.89,6.92-10.11,3.29-15.47Z"/>
    </g>
  </g>
  <g id="Buttons_under_tokens">
    <path class="cls-18" d="m276.58,409.92c-9.26-11.89-12.53-25.2-8.18-39.92,1.16-3.92,7.28-7.32,11.15-8.11,13.11-2.68,28.32,3.91,32.2,16.66,4.16,13.69-6.77,32.21-17.02,37.03-4.92,2.31-12.92-.39-18.14-5.65Z"/>
    <path class="cls-18" d="m281.38,303.38c14.94,1.99,26.59,9.19,33.81,22.74,1.92,3.61-.06,10.32-2.27,13.6-7.47,11.1-22.94,17.06-34.64,10.68-12.56-6.85-17.75-27.72-13.81-38.34,1.89-5.1,9.49-8.77,16.9-8.68Z"/>
    <path class="cls-18" d="m264.9,277.36c1.47-15,8.26-26.9,21.55-34.59,3.54-2.05,10.32-.3,13.67,1.79,11.35,7.08,17.85,22.33,11.89,34.25-6.4,12.79-27.08,18.7-37.84,15.14-5.16-1.71-9.1-9.18-9.27-16.59Z"/>
    <path class="cls-18" d="m280.79,183.5c14.99,1.58,26.84,8.45,34.43,21.8,2.02,3.56.22,10.32-1.89,13.65-7.16,11.3-22.46,17.69-34.33,11.64-12.75-6.5-18.51-27.22-14.86-37.94,1.75-5.15,9.24-9.03,16.65-9.15Z"/>
    <path class="cls-18" d="m270.09,166.79c-5.54-14.02-4.92-27.7,3.4-40.61,2.22-3.44,9.05-4.97,12.98-4.64,13.33,1.12,26.07,11.73,26.2,25.05.14,14.31-15.57,29-26.76,30.73-5.37.83-12.28-4.01-15.82-10.53Z"/>
  </g>
  <g id="Restart_button">
    <path class="cls-18" d="m299.7,107.04c-10.28,7.75-18.79,8.97-22.84,3.28-4.93-6.92-3.54-21.79,2.46-26.32,7.46-5.64,23.43-4.02,29,2.93,4.61,5.75,1.83,12.24-8.62,20.11Z"/>
    <path class="cls-18" d="m279.31,79.86c-4.56,3.2-10.71,4.83-12.02-4.5-.67-4.72,4.15-9.02,9.23-8.83,5.91.22,13.49,5.83,2.79,13.34Z"/>
    <path class="cls-18" d="m258.37,100.76c-3.64-2.92-5.9-8.27,3.13-14.43,4.57-3.12,9.32-.51,9.69,4.7.42,6.06-4.28,16.6-12.82,9.73Z"/>
    <path class="cls-18" d="m303.33,63.44c3.67,4.56.81,10.46-2.63,11.88s-9.38,2.1-11.81-1.09c-2.24-2.95-.14-8.46,1.94-10.63,1.65-1.73,8.84-4.72,12.51-.16Z"/>
    <path class="cls-16" d="m281.39,95.64c.11.61.83,1.03,1.61.95.78-.08,1.33-.64,1.22-1.25-.5-2.84.45-5.05,2.6-6.06,2.11-.99,5.16-.72,8.18.65-.35.57-.58,1.11-.61,1.52,0,.03.02.06.05.07,1.11.53,4.16-.12,5.23-.69.06-.03.11-.09.12-.14.29-.96-.08-3.28-.98-3.97-.03-.02-.07-.03-.11-.02-.69.15-1.47.68-2.18,1.35-2.28-1.06-4.6-1.61-6.74-1.61-1.61,0-3.13.31-4.45.93-3.18,1.49-4.62,4.5-3.96,8.26Z"/>
    <path class="cls-16" d="m300.61,94.64c-.11-.61-.83-1.03-1.61-.95-.78.08-1.33.64-1.22,1.25.5,2.84-.45,5.05-2.6,6.06-2.11.99-5.16.72-8.18-.65.35-.57.58-1.11.61-1.52,0-.03-.02-.06-.05-.07-1.11-.53-4.16.12-5.23.69-.06.03-.11.09-.12.14-.29.96.08,3.28.98,3.97.03.02.07.03.11.02.69-.15,1.47-.68,2.18-1.35,2.28,1.06,4.6,1.61,6.74,1.61,1.61,0,3.13-.31,4.45-.93,3.18-1.49,4.62-4.5,3.96-8.26Z"/>
  </g>
  <g id="Five_card_mode_button">
    <g>
      <path class="cls-18" d="m271.91,425.49c3.49-2.37,10.15-.52,12.46,1.29,2,1.56,2.61,7.01,2.7,9.17.22,5.45-2.02,5.35-5.99,7.88-3.66,2.33-8.09-2.48-11.01-5.67-2.61-2.85-3.85-8.83,1.83-12.68Z"/>
      <path class="cls-18" d="m299.81,427.97c2.8,1.29,6.11,4.57,7.07,6.31,1.61,2.94,2.27,7.12.38,9.17-2.99,3.26-8.11,5.24-13.27,2.86-4.76-2.19-5.92-10.37-5.07-13.81.68-2.73,6.8-6.42,10.9-4.53Z"/>
      <path class="cls-18" d="m259.72,458.02c-1.03-6.74,2.44-11.23,6.64-12.36,4.21-1.12,12.03-.33,13.06,4.26.41,1.82.29,6.07-.86,7.93-1.54,2.48-4.39,3.84-6.26,4.59-2.6,1.04-11.54,2.36-12.57-4.42Z"/>
      <path class="cls-18" d="m312.7,465.47c-1.03,3.07-3.85,3.31-6.74,3.62-3.24.34-6.64.46-8.53-.86-3.57-2.5-4.42-9.93-3.88-13.22.7-4.28,7.11-5.53,10.58-4.86,2.74.54,10.77,8.82,8.58,15.32Z"/>
      <path class="cls-18" d="m281.57,478.74c-3.2-.72-4.62-3.28-5.99-6.04-1.49-3.01-2.73-6.28-1.35-8.09,2.63-3.47,8.23-8.14,12.58-6.34,4.01,1.65,7.33,4.96,6.52,8.39-.64,2.72-4.75,13.67-11.76,12.09Z"/>
    </g>
  </g>
  <g id="Cat">
    <g>
      <path class="cls-1" d="m307.44,199.07c.72-8.75,1.55-18.25,1.55-18.25,0,0-6.73,6.23-10.64,9.96l9.09,8.29Z"/>
      <polygon class="cls-1" points="273.27 198.12 271.85 180.73 282.49 190.68 273.27 198.12 273.27 198.12"/>
    </g>
    <path class="cls-4" d="m309.01,206.68c0,9.93-7.48,17.98-18.33,17.98s-19.65-8.05-19.65-17.98,8.8-17.98,19.65-17.98,18.33,8.05,18.33,17.98Z"/>
    <g>
      <g>
        <path class="cls-12" d="m297.1,199.94c-7.88.52-3.98,9.27,1.99,6.64,2.57-1.02,3.17-7-1.99-6.64Z"/>
        <path class="cls-19" d="m293.75,200.62c-1.1.1-1.31,5.23.05,5.77,1.53.73,5.56.95,6.21-.42.12-.43-4.03-1.65-4.14-2.06-.1-.36-.82-3.42-2.12-3.3Z"/>
        <path class="cls-11" d="m296.44,202.48c-.79.1-1.13,2.02-.16,2.57.18.1.35.17.56.15.27-.03.43-.25.61-.42.31-.31.34-.8.26-1.21-.07-.36-.34-1.21-1.28-1.09Z"/>
        <circle class="cls-16" cx="298.41" cy="201.23" r="1.27"/>
        <path class="cls-11" d="m296.65,207.76c-2.63,0-4.53-1.73-4.53-4.11,0-2.61,2.5-4.02,4.86-4.02,2.56,0,4.21,1.58,4.21,4.02s-1.91,4.11-4.54,4.11Zm.33-7.25c-1.98,0-3.98,1.08-3.98,3.14,0,1.9,1.5,3.23,3.65,3.23s3.67-1.33,3.67-3.23-1.25-3.14-3.34-3.14Z"/>
      </g>
      <g>
        <path class="cls-12" d="m282.02,199.94c-7.88.52-3.98,9.27,1.99,6.64,2.57-1.02,3.17-7-1.99-6.64Z"/>
        <path class="cls-19" d="m278.66,200.62c-1.1.1-1.31,5.23.05,5.77,1.53.73,5.56.95,6.21-.42.12-.43-4.03-1.65-4.14-2.06-.1-.36-.82-3.42-2.12-3.3Z"/>
        <path class="cls-11" d="m281.34,202.02c-.79.1-1.13,2.02-.16,2.57.18.1.35.17.56.15.27-.03.43-.25.61-.42.31-.31.34-.8.26-1.21-.07-.36-.34-1.21-1.28-1.09Z"/>
        <circle class="cls-16" cx="284" cy="200.97" r="1.27"/>
        <path class="cls-11" d="m281.82,207.43c-2.74,0-4.72-1.8-4.72-4.28,0-2.66,2.78-3.87,5.36-3.87s4.09,1.34,4.09,3.87-1.99,4.28-4.72,4.28Zm.63-7.28c-2.16,0-4.48.94-4.48,2.99s1.58,3.41,3.85,3.41,3.85-1.4,3.85-3.41-1.02-2.99-3.21-2.99Z"/>
      </g>
      <g>
        <ellipse class="cls-7" cx="288.89" cy="212.38" rx="3.05" ry="2.56"/>
        <path class="cls-11" d="m294.04,219.12c.34-.49-.2-1.07-.64-.44-.87,1.23-2.04,1.47-3.19.7-1.28-.95-1.07-2.73-1.19-4.14,0-.56-.88-.57-.88,0,.02,1.38-.02,2.96-.89,4.1-.98.99-2.4.36-3.03-.72-.4-.67-1.39-.5-.55.79,1.24,1.91,4.44,1.58,4.93-.78,1.07,2.44,3.92,2.74,5.45.49Z"/>
      </g>
      <g>
        <line class="cls-8" x1="262.44" y1="219.14" x2="279.37" y2="211.82"/>
        <line class="cls-8" x1="263.32" y1="225.29" x2="278.49" y2="214.88"/>
        <line class="cls-8" x1="270.56" y1="229.03" x2="280.3" y2="215.84"/>
        <line class="cls-8" x1="308.91" y1="226.43" x2="296.33" y2="216.6"/>
        <line class="cls-8" x1="313.41" y1="222.27" x2="298.51" y2="214.57"/>
        <line class="cls-8" x1="316.13" y1="215.94" x2="298.58" y2="212.47"/>
      </g>
    </g>
  </g>
  <g id="Mouse">
    <g id="Mouse_light">
      <path class="cls-6" d="m278.26,145.54c2.19-3.11,3.28-6.98,2.59-10.67-2.7-5.42-12.79-4.65-15.68.29-2.05,4.87-1.86,11.37,3.52,13.87,4.08.89,6.41.98,9.56-3.5Z"/>
      <path class="cls-6" d="m300.58,137.95c-1.29-3.11-2.99-7.19-.82-10.36,2.69-3.33,9.1-3.37,11.37.52,7.41,8.12-4.87,18.22-10.55,9.84Z"/>
      <path class="cls-6" d="m278.64,145.27c4.39-6.26,18.48-11.8,22.87-5.15.02,4.3-1.41,10.18-2.22,14.61-2.7,14.64-3.23,11.34-20.65-9.46Z"/>
    </g>
    <g>
      <ellipse class="cls-11" cx="296.02" cy="163.58" rx="3.03" ry="2.54" transform="translate(-10.05 19.68) rotate(-3.75)"/>
      <ellipse class="cls-11" cx="288.96" cy="148.53" rx="2.2" ry="2.14" transform="translate(-9.08 19.19) rotate(-3.75)"/>
      <path class="cls-16" d="m289.09,147.02c-.79.17-.7,2.26.46,2.11.99-.34.89-2.24-.46-2.11Z"/>
      <ellipse class="cls-11" cx="296.61" cy="146.11" rx="2.2" ry="2.14" transform="translate(-8.91 19.69) rotate(-3.75)"/>
      <path class="cls-16" d="m296.75,144.6c-.79.17-.7,2.26.46,2.11.99-.34.89-2.24-.46-2.11Z"/>
      <line class="cls-8" x1="290.84" y1="160.63" x2="277.02" y2="166.13"/>
      <line class="cls-8" x1="289.95" y1="159.46" x2="275.39" y2="162.51"/>
      <line class="cls-8" x1="299.22" y1="156.8" x2="313.7" y2="153.39"/>
      <line class="cls-8" x1="298.71" y1="158.39" x2="313.52" y2="157.04"/>
    </g>
  </g>
  <g id="Cheese">
    <polygon class="cls-2" points="271.77 264.88 290.1 246.78 311.51 253.4 271.77 264.88"/>
    <path class="cls-9" d="m311.76,253.47c-.53,0-39.7,11.42-40.05,11.59-.35.18-.72,19.65,0,20.38.2.2,5.5-1.23,12.12-3.13.01-.26.06-.53.17-.8.24-.56.98-.99,1.52-.98.64,0,1.19-.09,1.69.44.09.09.14.2.17.32,10.58-3.08,22.68-6.79,22.98-7.09.53-.53,1.93-20.73,1.41-20.73Z"/>
    <g>
      <path class="cls-13" d="m293.12,252.02c-1.05.18-1.3.87-1.24,1.15.1.93,1.77.95,3.17.87,3.27-.12,3.26-3.03-1.93-2.02Z"/>
      <path class="cls-13" d="m294.98,268.4c-1.03.94-1.5,4.12.97,4.22,4.8.98,3.73-7.97-.97-4.22Z"/>
      <path class="cls-13" d="m280.16,267.92c-3.37.09-4.41,5.35-.49,5.62,4.13,1.38,5.24-6.53.49-5.62Z"/>
      <path class="cls-13" d="m283.92,257.75c-1.07.91-.36,1.76.88,1.3,2.64-1.27.98-2.31-.88-1.3Z"/>
      <path class="cls-13" d="m304.18,257.34c-1.27-.13-2.77.74-2.96,1.46-1.15,6.69,10.82-.09,2.96-1.46Z"/>
    </g>
  </g>
  <g id="Ball">
    <circle class="cls-3" cx="290.37" cy="324.04" r="18.32"/>
    <g>
      <path class="cls-17" d="m308.08,327.89c-11.93,1.7-25.16-1.04-31.55-15.36,0,0-3.63,3.94-4.15,9.86,1.33,10.31,17.13,18.79,30.52,15.26,4.57-5.09,5.19-9.76,5.19-9.76Z"/>
      <path class="cls-11" d="m307.95,327.4c-9.25,1.3-19.24-.3-25.91-7.35-2.15-2.27-3.8-4.94-5.08-7.78-.13-.29-.58-.32-.79-.1-2.18,2.38-3.61,5.7-4.12,8.84-.09.53-.22,1.11-.14,1.64.07.5.18.99.31,1.48.24.87.59,1.72,1,2.53.89,1.75,2.14,3.32,3.55,4.68,6.59,6.35,16.95,9.04,25.81,6.89.38-.09.57-.14.83-.42.29-.32.57-.66.84-1,.5-.63.98-1.28,1.41-1.95.71-1.08,1.32-2.23,1.83-3.42.46-1.08.91-2.25,1.07-3.42.09-.63-.88-.9-.96-.27-.11.84-.39,1.68-.69,2.47-.79,2.12-1.97,4.11-3.37,5.88-.22.28-.44.56-.68.82s-.37.31-.72.39c-.56.13-1.13.24-1.7.34-1.15.19-2.32.28-3.49.3-2.25.04-4.49-.2-6.68-.69-4.15-.94-8.19-2.75-11.48-5.46-2.8-2.3-5.19-5.36-5.85-9.01-.22-1.25.29-2.78.67-3.97.36-1.12.83-2.19,1.4-3.22.53-.96,1.13-1.92,1.87-2.74l-.79-.1c2.22,4.94,5.67,9.28,10.34,12.1,4.1,2.48,8.86,3.66,13.62,3.91,2.73.14,5.45-.04,8.15-.42.63-.09.36-1.05-.27-.96Z"/>
    </g>
    <g>
      <path class="cls-12" d="m307.2,329.98c-13.58,2.37-26.35-2.32-31.73-16.19,0,0-1.95,2.81-2.81,5.74,1.34,10.38,16.83,20.35,31.24,16.32,3.05-3.66,3.3-5.86,3.3-5.86Z"/>
      <path class="cls-11" d="m307.07,329.5c-4.93.85-10.06.82-14.88-.58-4.56-1.32-8.65-3.91-11.72-7.54-1.93-2.29-3.41-4.94-4.5-7.72-.16-.41-.66-.49-.91-.12-.81,1.17-1.5,2.45-2.07,3.75-.22.49-.42.99-.59,1.5-.18.54-.21.88-.11,1.43.13.75.34,1.49.6,2.2,1.2,3.26,3.47,6.05,6.12,8.25,6.24,5.19,14.81,7.62,22.82,6.17.62-.11,1.23-.25,1.84-.41.64-.17.88-.56,1.28-1.07.69-.89,1.32-1.82,1.84-2.82.41-.79.83-1.66.93-2.55.08-.64-.93-.63-1,0,.02-.16.02-.1,0,0-.03.13-.06.25-.09.38-.13.45-.31.88-.51,1.31-.36.75-.8,1.47-1.27,2.16-.3.44-.61.88-.96,1.29-.36.43-.91.47-1.44.58-3.86.85-7.91.71-11.74-.25-6.62-1.65-13.38-5.86-16.38-12.2-.35-.75-.64-1.53-.85-2.34-.1-.4-.24-.84-.26-1.25-.02-.47.31-1.08.49-1.52.59-1.43,1.34-2.84,2.23-4.11l-.91-.12c1.93,4.93,5.03,9.32,9.39,12.39,4.08,2.86,8.97,4.34,13.92,4.68,3.02.21,6.05-.01,9.03-.52.63-.11.36-1.07-.27-.96Z"/>
    </g>
    <g>
      <path class="cls-16" d="m304.58,317.52c-.18-.01-.11.67-.09,1.03.04.49.04.67.19,1,.18.39.23.59.33,1.2.12.71.21,1.48.41,2.06.18.51.25-.28.3-.71.06-.56.08-1.12-.05-1.75-.06-.29-.15-.5-.21-.78-.06-.25-.1-.52-.17-.76s-.15-.38-.23-.57c-.08-.17-.13-.42-.49-.73Z"/>
      <path class="cls-16" d="m303.83,319.09c-.16-.02-.15.47-.15.73,0,.36,0,.48.11.73.14.29.17.43.23.88.06.52.09,1.07.24,1.5.13.38.25-.19.32-.49.1-.4.15-.8.08-1.26-.03-.21-.1-.37-.14-.57-.04-.19-.05-.38-.1-.55s-.11-.28-.17-.42c-.06-.13-.09-.31-.4-.55Z"/>
    </g>
  </g>
  <g id="Pillow">
    <rect class="cls-5" x="271.8" y="366.86" width="36.38" height="36.38" rx="3.6" ry="3.6" transform="translate(115.32 -64.22) rotate(15.74)"/>
    <g>
      <path class="cls-15" d="m285.22,374.07s0-.08,0-.11c2.71-1.76,1.72-2.51-.24-.74-.09-.15-.21-.28-.35-.39.22-1.94.58-2.81-.86-.32-.08,0-.16,0-.25,0-1.21-2.69-2.09-2.23-.72.28-.09.06-.17.13-.24.21-2.67-.64-2.6.51-.4,1.08,0,.1.01.19.03.28-.52.19-1,.59-1.24,1.14-.54,1.23,1.03.25,1.77-.27.12.09.25.16.39.22-.56,2.59.37,1.59.74.11.14-.02.27-.05.4-.1,1.49,1.73,2.39,1.54.64-.48.04-.06.08-.12.11-.18,2.55.4,2.4,0,.2-.73Z"/>
      <path class="cls-15" d="m280.27,390.54c-.07-.17-.18-.33-.31-.46.51-1.85.98-2.62-.79-.43-.09-.02-.18-.03-.27-.03-.78-2.8-1.7-2.48-.75.17-.1.05-.2.11-.28.19-2.54-1.03-2.63.12-.53,1.02,0,.09,0,.18,0,.27-.55.1-1.1.43-1.42.94-.74,1.15,1.03.38,1.83-.01.1.1.21.19.33.27,0,0,0,.02-.01.03-.96,2.5.14,1.63.73.19.13,0,.26,0,.38-.03,1.21,1.96,2.15,1.92.72-.36.05-.05.1-.1.15-.15,2.45.78,2.37.37.33-.69,0-.04.02-.09.02-.13,2.91-1.31,2.06-2.2-.12-.78Z"/>
      <path class="cls-15" d="m302.62,378.65c-.01-.07-.03-.13-.05-.2,2.18-2.2,1.09-2.7-.43-.64-.13-.12-.28-.21-.46-.28-.18-1.95,0-2.87-.92-.07-.06.01-.12.03-.18.05-1.78-2.47-2.56-1.81-.63.44-.05.06-.1.13-.14.2-2.9-.11-2.57,1.05-.19,1.14.02.08.04.15.07.23-.5.28-.92.8-1.05,1.4-.28,1.33,1.09.01,1.7-.65.11.07.23.12.36.16.02,0,.03,0,.05,0-.02,2.6.67,1.5.74,0,.16-.04.3-.1.44-.19,1.74,1.31,2.55.96.55-.59.04-.08.08-.17.1-.26,2.43-.13,2.21-.48.03-.74Z"/>
      <path class="cls-15" d="m297.83,396.14c0-.08,0-.16,0-.24,2.52-1.67,1.59-2.37-.28-.73-.11-.16-.26-.29-.43-.4.22-1.89.55-2.69-.86-.24-.08,0-.16,0-.24.02-1.22-2.73-2.11-2.24-.7.32-.06.05-.12.11-.18.18-2.82-.7-2.72.52-.37,1.09,0,.07.01.14.03.21-.57.17-1.1.59-1.36,1.17-.56,1.27,1.14.18,1.85-.32.1.09.21.17.33.23,0,.01,0,.03-.01.04-.56,2.6.37,1.6.74.11.15,0,.29-.02.43-.07,1.45,1.67,2.33,1.5.67-.45.06-.07.12-.15.17-.23,2.39.36,2.26-.01.22-.71Z"/>
    </g>
    <g>
      <g>
        <path class="cls-14" d="m302.94,414.61c.29-.73.41-.24.5.23.56-1.91,1.42-4.92-.65-6.18.33-.03.65-.23.79-.58-.03-.3-.14-.59-.3-.84-.94-1.05-2.09-.27-1.2,1.16.15.15.34.23.53.25-1.64,1.43-.49,3.97-1.27,5.71.19,0,.41.08.59,0,.22-.12.41-.02.55.15.19-.3.32-.13.47.09Z"/>
        <path class="cls-11" d="m303.37,414.86s.11-.18.1-.22c0,.02-.59-.15-.6-.04-.01.1.06.28.08.38.09.51.83.44.96,0,.64-2.18,1.46-5.27-.88-6.75l-.12.91c.36-.05.68-.24.9-.52.3-.37.27-.74.11-1.17-.25-.65-.86-1.22-1.6-1.19-.61.02-1.04.52-1.08,1.11-.05.78.41,1.62,1.21,1.77l-.22-.84c-.81.74-1.06,1.78-1.09,2.84-.03.96.14,2.06-.25,2.97-.15.36.03.72.43.75.16.01.32.04.48.03.08,0,.17-.02.25-.05-.03-.08,0-.08.06.03.24.26.6.14.79-.1-.42-.12-.55-.09-.39.09.36.53,1.23.03.86-.5s-.9-.66-1.33-.09l.79-.1c-.18-.19-.42-.35-.69-.35-.13,0-.22.05-.34.07-.15.03-.3,0-.46-.02l.43.75c.41-.95.38-1.95.38-2.96s.05-1.95.81-2.65c.26-.24.15-.77-.22-.84-.32-.06-.5-.4-.48-.72,0-.12.02-.18.12-.19.2-.03.44.2.54.34.06.09.09.19.12.3.03.11.1-.02.02.1s-.26.16-.4.18c-.46.06-.45.71-.12.91,1.84,1.16.9,3.97.42,5.62h.96c-.06-.34-.14-.76-.49-.92-.45-.2-.76.2-.92.57-.25.58.61,1.09.86.5Z"/>
      </g>
      <g>
        <path class="cls-14" d="m267.39,398.73c1.21-1.16.3-2.2-.88-1.42-.22.2-.4.46-.5.74.05.37.3.65.62.76-2.32.71-2.23,3.83-2.16,5.83.2-.44.43-.88.54-.1.2-.18.37-.31.48.03.18-.13.39-.19.57-.01.15.12.39.11.57.15-.32-1.88,1.42-4.05.2-5.85.19.02.38,0,.57-.11Z"/>
        <path class="cls-11" d="m267.74,399.08c.44-.44.85-1.06.68-1.72-.14-.54-.66-.86-1.21-.83-.69.04-1.27.49-1.57,1.1-.35.72.2,1.38.85,1.64v-.96c-2.63.85-2.61,4.04-2.53,6.31.02.46.71.73.93.25.03-.07.18-.28.18-.36,0,0-.6-.11-.6-.11-.01.01.04.25.04.24.06.4.58.44.84.22.19-.13.07-.2-.36-.19.12.28.43.49.73.3.1-.06.08-.01.07-.01.08.02.17.09.25.12.14.05.29.06.44.08.4.07.68-.22.62-.62-.15-.99.29-2,.5-2.95.23-1.04.25-2.09-.35-3.01l-.43.75c.3.02.55-.05.82-.18.58-.28.07-1.15-.5-.86-.11.05-.19.05-.31.05-.37-.02-.63.44-.43.75.56.86.36,1.83.12,2.77s-.53,1.94-.37,2.96l.62-.62c-.12-.02-.28-.02-.4-.07s-.19-.13-.32-.17c-.29-.09-.57,0-.81.15l.73.3c-.28-.66-.8-.7-1.31-.25l.84.22c-.06-.41-.29-.9-.8-.78-.35.08-.52.46-.65.76l.93.25c-.06-1.72-.28-4.68,1.8-5.35.5-.16.44-.78,0-.96-.11-.05-.16-.13-.22-.22l-.02-.08c0,.09.02.1.05.02.04-.06.07-.12.12-.18.13-.17.42-.38.65-.32.39.1-.18.72-.3.84-.45.46.25,1.16.71.71Z"/>
      </g>
      <g>
        <path class="cls-14" d="m277.58,361.55c-.21-.03-.4.02-.57.11.44-2.13-2.01-3.46-2.43-5.32-.15.11-.37.19-.47.36-.1.23-.32.26-.53.21.03.36-.18.3-.43.21.2.76-.18.44-.54.11.7,1.87,1.83,4.79,4.24,4.55-.25.22-.38.58-.28.94.2.22.47.38.75.49,1.38.27,1.83-1.04.26-1.65Z"/>
        <path class="cls-11" d="m277.58,361.05c-.3-.02-.55.05-.82.18l.73.56c.21-1.12-.2-2.11-.84-3.01-.58-.81-1.35-1.59-1.59-2.58-.07-.3-.47-.47-.73-.3-.14.09-.28.16-.41.27-.06.05-.16.12-.19.2l-.05.07c.1-.01.11-.02.03-.02-.31-.06-.64.14-.63.48l.14-.16.25-.07c-.06,0-.11-.02-.19-.04-.38-.13-.7.27-.62.62.01.05.02.1.04.15,0,.18.05.1.18-.25l.25-.07c.1,0,.1.07.05,0s-.16-.14-.22-.2c-.34-.31-1.02,0-.84.49.78,2.08,1.99,5.14,4.72,4.91l-.35-.85c-.28.28-.45.63-.46,1.02,0,.47.24.74.62.99.53.34,1.26.43,1.82.11.44-.25.68-.76.55-1.26-.16-.63-.76-.99-1.32-1.22-.25-.1-.55.11-.62.35-.08.29.1.51.35.62.23.09.5.24.61.47.02.04.02.1,0,.13-.14.12-.42.14-.6.09-.12-.03-.38-.16-.45-.28.07.11.03-.03.06-.11s.08-.14.14-.2c.29-.29.09-.89-.35-.85-2.2.19-3.14-2.53-3.76-4.18l-.84.49c.25.24.57.55.94.49.55-.09.53-.67.43-1.09l-.62.62c.56.19,1.07-.05,1.06-.69l-.63.48c.3.06.6.05.86-.15.1-.08.15-.21.24-.29.07-.07.2-.12.29-.18l-.73-.3c.24.98.9,1.75,1.49,2.54.54.73,1.13,1.56.95,2.52-.08.44.33.76.73.56.11-.05.19-.05.31-.04.64.04.64-.96,0-1Z"/>
      </g>
      <g>
        <path class="cls-14" d="m317.71,368.07c-.13-.13-.25-.34-.43-.4-.24-.06-.31-.27-.3-.49-.35.09-.33-.12-.28-.39-.71.33-.47-.1-.2-.51-1.72,1.02-4.4,2.63-3.74,4.97-.26-.21-.63-.27-.97-.11-.18.24-.3.53-.35.82-.02,1.41,1.35,1.62,1.67-.03-.01-.21-.09-.39-.21-.54,2.17.06,3.06-2.58,4.82-3.32Z"/>
        <path class="cls-11" d="m318.07,367.72c-.13-.14-.24-.29-.39-.39-.06-.04-.2-.15-.26-.13.07-.02.07.23.07,0,0-.34-.32-.54-.63-.48.49-.1.29.49.33.23.07-.45-.32-.75-.73-.56-.04.02-.09.04-.14.05.04,0,.03,0-.02,0l.25.07.05.05.13.22c.04.09-.05.21.04.07.06-.09.11-.18.16-.27.28-.43-.27-.93-.68-.68-1.94,1.15-4.68,2.87-3.97,5.53l.73-.56c-.36-.26-.84-.34-1.26-.2s-.63.61-.75,1.01c-.17.61.02,1.39.56,1.76.46.32,1.07.21,1.46-.17.54-.53.79-1.45.31-2.09l-.43.75c1.14.02,2.05-.61,2.81-1.4.7-.71,1.32-1.58,2.25-1.99.25-.11.3-.47.18-.68-.15-.26-.44-.29-.68-.18-.92.4-1.58,1.22-2.25,1.93-.63.67-1.33,1.34-2.32,1.32-.35,0-.66.44-.43.75.14.18.15.25.08.46-.04.11-.09.23-.15.32-.08.1-.1.11-.19.16.08-.05-.06.04.03,0-.03,0-.06,0-.09,0,.05,0,.06,0,.02,0-.02,0,.03.03-.04-.02-.03-.02-.03-.02,0,0-.02-.02-.05-.05-.07-.07.04.06-.04-.08-.04-.08-.03-.06-.02-.04-.04-.11-.1-.35.04-.65.24-.94l-.3.23c.23-.09.38-.08.58.06.37.26.84-.17.73-.56-.56-2.11,2.02-3.52,3.51-4.4l-.68-.68c-.18.28-.41.62-.3.97.18.56.79.39,1.19.22l-.73-.56c-.04.27-.08.55.1.78.2.26.5.28.8.22l-.63-.48c0,.29.07.57.29.77.1.09.22.11.33.18.1.07.17.2.26.29.44.47,1.15-.24.71-.71Z"/>
      </g>
    </g>
  </g>
  <g id="Answers">
    <g id="Pillow_answer">
      <path class="cls-10" d="m289.97,366.19c3.33,1.21,8.52,4.13,6.19,8.64-1.34,2.58-4.96,7.5-7.63,6.18-4.94-3.1-10.86-8.68-3.94-13.34,1.5-1,3.53-1.82,5.38-1.49Z"/>
      <path class="cls-10" d="m291.65,408.31c-6.15-.39-14.56-1.51-13.8-9.1.46-6.51,3.98-13.16,10.86-14.65,7.67-1.48,13.1,5.5,16.12,11.52,4.19,8.5-6.96,11.85-13.18,12.23Z"/>
      <path class="cls-10" d="m271.41,389.35c-10.15.73-7.54-16.79,3.91-13.68,3.03.63,3.35,3.33,3.69,5.73.98,6.86.04,7.79-7.6,7.95Z"/>
      <path class="cls-10" d="m308.03,371.69c4.18-.04,7.33,3.44,7.3,8.07-.02,3.03-5.51,6.67-10.09,6.7-1.6,0-4.58-6.05-4.61-9.36-.03-3.17,2.97-5.35,7.4-5.4Z"/>
    </g>
    <g id="Ball_answer">
      <path class="cls-10" d="m289.97,305.97c3.33,1.21,8.52,4.13,6.19,8.64-1.34,2.58-4.96,7.5-7.63,6.18-4.94-3.1-10.86-8.68-3.94-13.34,1.5-1,3.53-1.82,5.38-1.49Z"/>
      <path class="cls-10" d="m291.65,348.1c-6.15-.39-14.56-1.51-13.8-9.1.46-6.51,3.98-13.16,10.86-14.65,7.67-1.48,13.1,5.5,16.12,11.52,4.19,8.5-6.96,11.85-13.18,12.23Z"/>
      <path class="cls-10" d="m271.41,329.14c-10.15.73-7.54-16.79,3.91-13.68,3.03.63,3.35,3.33,3.69,5.73.98,6.86.04,7.79-7.6,7.95Z"/>
      <path class="cls-10" d="m308.03,311.47c4.18-.04,7.33,3.44,7.3,8.07-.02,3.03-5.51,6.67-10.09,6.7-1.6,0-4.58-6.05-4.61-9.36-.03-3.17,2.97-5.35,7.4-5.4Z"/>
    </g>
    <g id="Cheese_answer">
      <path class="cls-10" d="m289.97,244.75c3.33,1.21,8.52,4.13,6.19,8.64-1.34,2.58-4.96,7.5-7.63,6.18-4.94-3.1-10.86-8.68-3.94-13.34,1.5-1,3.53-1.82,5.38-1.49Z"/>
      <path class="cls-10" d="m291.65,286.88c-6.15-.39-14.56-1.51-13.8-9.1.46-6.51,3.98-13.16,10.86-14.65,7.67-1.48,13.1,5.5,16.12,11.52,4.19,8.5-6.96,11.85-13.18,12.23Z"/>
      <path class="cls-10" d="m271.41,267.92c-10.15.73-7.54-16.79,3.91-13.68,3.03.63,3.35,3.33,3.69,5.73.98,6.86.04,7.79-7.6,7.95Z"/>
      <path class="cls-10" d="m308.03,250.25c4.18-.04,7.33,3.44,7.3,8.07-.02,3.03-5.51,6.67-10.09,6.7-1.6,0-4.58-6.05-4.61-9.36-.03-3.17,2.97-5.35,7.4-5.4Z"/>
    </g>
    <g id="Cat_answer">
      <path class="cls-10" d="m289.97,186.19c3.33,1.21,8.52,4.13,6.19,8.64-1.34,2.58-4.96,7.5-7.63,6.18-4.94-3.1-10.86-8.68-3.94-13.34,1.5-1,3.53-1.82,5.38-1.49Z"/>
      <path class="cls-10" d="m291.65,228.31c-6.15-.39-14.56-1.51-13.8-9.1.46-6.51,3.98-13.16,10.86-14.65,7.67-1.48,13.1,5.5,16.12,11.52,4.19,8.5-6.96,11.85-13.18,12.23Z"/>
      <path class="cls-10" d="m271.41,209.35c-10.15.73-7.54-16.79,3.91-13.68,3.03.63,3.35,3.33,3.69,5.73.98,6.86.04,7.79-7.6,7.95Z"/>
      <path class="cls-10" d="m308.03,191.69c4.18-.04,7.33,3.44,7.3,8.07-.02,3.03-5.51,6.67-10.09,6.7-1.6,0-4.58-6.05-4.61-9.36-.03-3.17,2.97-5.35,7.4-5.4Z"/>
    </g>
    <g id="Mouse_answer">
      <path class="cls-10" d="m289.97,124.97c3.33,1.21,8.52,4.13,6.19,8.64-1.34,2.58-4.96,7.5-7.63,6.18-4.94-3.1-10.86-8.68-3.94-13.34,1.5-1,3.53-1.82,5.38-1.49Z"/>
      <path class="cls-10" d="m291.65,167.09c-6.15-.39-14.56-1.51-13.8-9.1.46-6.51,3.98-13.16,10.86-14.65,7.67-1.48,13.1,5.5,16.12,11.52,4.19,8.5-6.96,11.85-13.18,12.23Z"/>
      <path class="cls-10" d="m271.41,148.13c-10.15.73-7.54-16.79,3.91-13.68,3.03.63,3.35,3.33,3.69,5.73.98,6.86.04,7.79-7.6,7.95Z"/>
      <path class="cls-10" d="m308.03,130.47c4.18-.04,7.33,3.44,7.3,8.07-.02,3.03-5.51,6.67-10.09,6.7-1.6,0-4.58-6.05-4.61-9.36-.03-3.17,2.97-5.35,7.4-5.4Z"/>
    </g>
  </g>
  <g id="Card_placement_bounding_box">
    <rect class="cls-10" x=".75" y="52.78" width="288" height="431.15"/>
  </g>
  <g id="Rules">
    <g>
      <path class="cls-18" d="m28.03,458.3c-6.97.04-11.03,5.14-11.29,14.17-.17,5.9,2.34,8.46,8.3,8.49,7.96.03,17.18-5.47,17.47-10.42.29-5.06-8.24-12.27-14.48-12.24Z"/>
      <path class="cls-18" d="m25.27,454.98c2.13-1.59,1.71-6.46,1.33-9.14-.16-1.14-5.59-3.04-7.14-2.12-2.34,1.38-5.33,5.94-4.59,7.37,1.1,2.14,3.22,3.75,5.38,5.34,1.88.32,3.49-.3,5.02-1.44Z"/>
      <path class="cls-18" d="m36.95,457.72c1.58.2,4.47-2.57,5.2-4.56,1.36-3.73-2.65-9.93-5.93-9.31-2.6.49-5.43,2.55-6.01,3.9-2.27,5.23,2.82,9.47,6.75,9.97Z"/>
      <path class="cls-18" d="m11.33,466.46c4.08.68,5.86-4.16,5.51-6.91-.3-2.37-3.26-4.53-5.65-5.32-1.05-.35-6.62,1.51-7.05,5.98-.46,4.77,4.78,5.85,7.19,6.25Z"/>
    </g>
    <g>
      <path class="cls-16" d="m31,463.34c-1.22-2.68-6.05-2.26-7.76-.19-1.52,1.84-1.25,4.71.28,4.85.47.04,1.51-.28,1.03-1.16-2.18-4.01,6.18-4.88,5.27-.26-.34,1.75-2.71,2.41-2.86,4.28-.09,1.09.52,2.95,1.74,2.12.73-.68-.53-2.21.09-2.76,1.65-1.46,4.02-2.9,2.21-6.87Z"/>
      <path class="cls-16" d="m28.85,474.17c-1.19,1.17.55,2.92,1.65,1.67,1.23-1.08-.48-2.82-1.65-1.67Z"/>
    </g>
  </g>
  <g id="ScoreAndTimer">
    <rect class="cls-18" width="322.04" height="51.95"/>
    <rect class="cls-20" x="59.07" y="12.82" width="39.31" height="26.31" rx="7.13" ry="7.13"/>
    <rect class="cls-20" x="164.63" y="12.82" width="39.31" height="26.31" rx="7.13" ry="7.13"/>
    <rect class="cls-20" x="270.2" y="12.82" width="39.31" height="26.31" rx="7.13" ry="7.13"/>
    <text class="cls-21" transform="translate(19.98 29.85)"><tspan x="0" y="0">Time:</tspan></text>
    <text class="cls-21" transform="translate(68.26 29.85)"><tspan x="0" y="0">58</tspan></text>
    <text class="cls-21" transform="translate(179.44 29.85)"><tspan x="0" y="0">3</tspan></text>
    <text class="cls-21" transform="translate(280.75 29.85)"><tspan x="0" y="0">30</tspan></text>
    <text class="cls-21" transform="translate(118.23 29.85)"><tspan x="0" y="0">Score:</tspan></text>
    <text class="cls-21" transform="translate(231.59 29.85)"><tspan x="0" y="0">Best:</tspan></text>
  </g>
</svg>