<?xml version="1.0" encoding="UTF-8"?>
<svg xmlns="http://www.w3.org/2000/svg" viewBox="0 0 288 431.15">
  <defs>
    <style>
      .fill-ball-light { fill: var(--ball-light); }
      .fill-ball-shade { fill: var(--ball-shade); }
      .fill-mouse-light { fill: var(--mouse-light); }
      .fill-mouse-shade { fill: var(--mouse-shade); }
    </style>
  </defs>
  <g id="Ball">
    <g id="Ball_light">
      <circle class="fill-ball-light stroke-outline miter stroke-3" cx="143.42" cy="258.83" r="48.08"/>
    </g>
    <g id="Ball_shade">
      <g>
        <path class="fill-ball-shade stroke-outline round stroke-2" d="m189.93,268.93c-31.31,4.45-66.06-2.73-82.84-40.33,0,0-9.54,10.36-10.9,25.89,3.5,27.06,44.96,49.32,80.12,40.06,11.99-13.35,13.63-25.62,13.63-25.62Z"/>
      </g>
    </g>
    <g id="Ball_accent">
      <g>
        <path class="fill-accent-light stroke-0" d="m187.61,274.42c-35.66,6.21-69.17-6.09-83.29-42.51,0,0-5.13,7.37-7.37,15.07,3.53,27.25,44.19,53.41,82.01,42.84,8.01-9.62,8.66-15.39,8.66-15.39Z"/>
        <path class="fill-black stroke-0" d="m187.47,273.94c-6.72,1.17-13.56,1.71-20.38,1.46-6.44-.23-12.85-1.18-19.04-2.97s-11.82-4.3-17.11-7.67-10.19-7.68-14.28-12.57c-4.48-5.35-8.06-11.42-10.8-17.82-.37-.86-.72-1.73-1.06-2.6-.16-.41-.66-.49-.91-.12-2.12,3.06-3.92,6.4-5.42,9.8-.6,1.35-1.15,2.73-1.61,4.14-.2.61-.44,1.15-.35,1.79.07.51.15,1.02.25,1.53.37,1.97.93,3.91,1.64,5.78,3.15,8.32,9.05,15.43,15.85,21.06,7.76,6.42,16.91,11.15,26.57,13.98,10.31,3.02,21.28,3.83,31.89,2,1.36-.24,2.72-.51,4.07-.84.65-.16,1.29-.32,1.93-.5.35-.1.52-.15.76-.43.32-.36.61-.75.91-1.12,1.69-2.14,3.28-4.37,4.63-6.73,1.28-2.23,2.55-4.71,3.03-7.26.03-.14.05-.29.07-.43.07-.64-.93-.63-1,0,.03-.23-.02.12-.04.23-.06.32-.14.63-.23.94-.36,1.24-.85,2.44-1.41,3.61-.96,2.01-2.12,3.92-3.38,5.75-.84,1.22-1.74,2.41-2.67,3.57-.21.27-.45.68-.74.87-.23.14-.7.19-.97.26-.71.18-1.42.35-2.13.51-10.26,2.29-21.01,1.99-31.2-.51-9.6-2.35-18.77-6.6-26.7-12.5-7.05-5.24-13.29-11.94-17.08-19.93-.86-1.81-1.58-3.68-2.13-5.6-.27-.93-.5-1.88-.68-2.83-.09-.46-.17-.92-.24-1.39-.1-.65.24-1.34.45-1.95,1.53-4.45,3.77-8.69,6.34-12.61.15-.23.3-.45.45-.68l-.91-.12c2.6,6.68,6.02,13.04,10.4,18.72,3.99,5.17,8.73,9.73,14.09,13.46s11.03,6.47,17.1,8.45,12.67,3.18,19.17,3.61c6.85.44,13.74.06,20.53-.95.87-.13,1.75-.27,2.62-.42.63-.11.36-1.07-.27-.96Z"/>
      </g>
    </g>
    <g id="Ball_highlight">
      <g>
        <path class="fill-white stroke-0" d="m180.73,241.71c-.47-.03-.3,1.75-.23,2.7.1,1.29.11,1.76.51,2.63.47,1.02.6,1.55.88,3.15.32,1.86.54,3.88,1.08,5.41.47,1.35.65-.74.78-1.85.17-1.47.21-2.93-.12-4.58-.16-.77-.39-1.31-.56-2.05-.15-.67-.26-1.36-.44-1.99-.19-.66-.38-.99-.6-1.5-.2-.46-.34-1.09-1.29-1.91Z"/>
        <path class="fill-white stroke-0" d="m178.75,245.83c-.43-.05-.4,1.24-.39,1.93,0,.93-.02,1.27.29,1.91.36.76.45,1.14.59,2.3.17,1.36.23,2.81.62,3.94.34.99.65-.5.84-1.29.26-1.04.4-2.09.2-3.3-.09-.56-.27-.96-.38-1.5-.1-.49-.14-.99-.27-1.45s-.29-.73-.45-1.11c-.15-.34-.24-.8-1.06-1.44Z"/>
      </g>
    </g>
  </g>
  <g id="Mouse">
    <g id="Mouse_tail">
      <path class="fill-black stroke-0" d="m119.59,173.88c-.56.14-1.12.27-1.69.38-.52.1-1.13.29-1.66.28.59.01-.14.01-.29.03-.27.03-.54.06-.81.08-.53.04-1.07.07-1.6.08-.99.02-1.98-.03-2.97-.14-.12-.01-.25-.04-.38-.05.58.01.19.02.03,0-.23-.03-.45-.07-.68-.12-.5-.09-1-.21-1.5-.34-.43-.12-.85-.25-1.27-.39-.19-.07-.38-.13-.56-.21-.11-.04-.22-.09-.33-.13-.33-.13.44.2-.07-.03-.82-.38-1.61-.8-2.37-1.3-.2-.13-.39-.26-.58-.4-.09-.07-.2-.13-.28-.21.02.02.38.31.13.1-.38-.31-.75-.63-1.11-.97-.33-.32-.65-.65-.95-.99-.13-.15-.26-.3-.39-.46-.08-.09-.16-.18-.23-.28.34.51.02.02-.05-.08-.56-.78-1.06-1.61-1.49-2.47-.12-.23-.23-.47-.33-.7,0,0-.11-.21-.11-.24l.1.23c-.03-.08-.07-.16-.1-.25-.2-.5-.38-1.02-.55-1.53-.34-1.1-.6-2.23-.78-3.37-.02-.1-.03-.2-.05-.3-.08-.52.05.45-.01-.08-.04-.31-.07-.62-.1-.93-.06-.64-.1-1.29-.12-1.94-.04-1.33,0-2.67.11-4,.05-.68.13-1.36.21-2.04.08-.63-.06.4.03-.23.03-.19.06-.39.09-.58.07-.43.14-.85.22-1.28.48-2.63,1.12-5.24,1.68-7.86,2.09-9.87,3.99-19.86,4.56-29.95.25-4.45.19-8.92-.45-13.34-.52-3.63-1.53-7.27-3.41-10.45-1.75-2.96-4.32-5.47-7.46-6.92-3.78-1.74-7.97-2.16-12.09-1.83-1.32.11-2.64.29-3.95.51-1.03.17-1.71,1.51-1.4,2.46.36,1.12,1.35,1.58,2.46,1.4.32-.05.64-.1.96-.15.09-.01.63-.08.1-.02.15-.02.31-.04.47-.06.6-.07,1.2-.13,1.8-.17,1.07-.07,2.14-.1,3.21-.06.48.02.95.05,1.42.1.25.02.5.04.75.08-.67-.13.16.03.31.06.91.16,1.81.37,2.69.66.29.1.92.2,1.13.42-.22-.23-.36-.16-.08-.03.06.03.13.06.19.09.22.1.44.21.66.32.7.37,1.35.8,2,1.25.32.22-.38-.31-.08-.07.08.06.16.13.24.19.13.11.26.22.38.33.31.28.62.57.91.87.27.28.52.57.77.87.04.05.08.11.13.16.25.3-.29-.4-.06-.08.14.19.28.38.42.58.45.66.86,1.35,1.23,2.06.18.35.34.71.51,1.07.06.14.26.44-.03-.08.05.09.09.21.13.3.08.21.16.41.24.62.64,1.72,1.09,3.52,1.41,5.33.08.45.15.9.22,1.36s-.06-.48,0-.03c.02.13.03.25.05.38.03.26.06.51.09.77.11,1.04.18,2.07.23,3.12.1,2.19.09,4.39,0,6.58-.1,2.37-.29,4.74-.55,7.11-.13,1.2-.28,2.4-.43,3.6-.07.54.06-.44-.01.1-.02.16-.04.32-.07.48-.04.27-.07.53-.11.8-.09.64-.19,1.28-.29,1.92-.78,5.05-1.75,10.08-2.79,15.08-1.16,5.57-2.67,11.12-2.73,16.84-.05,4.72.82,9.61,3.28,13.7,2.14,3.57,5.36,6.21,9.21,7.75s8.33,1.72,12.51,1.12c1.08-.16,2.15-.37,3.21-.64s1.72-1.45,1.4-2.46-1.37-1.67-2.46-1.4h0Z"/>
    </g>
    <g id="Mouse_light">
      <path class="fill-mouse-light stroke-outline miter stroke-3" d="m156.17,127.42c4.46-4.79,7.24-11.13,6.93-17.58-3.33-9.88-20.71-10.93-26.8-3.18-4.64,7.83-5.84,18.95,2.75,24.48,6.74,2.47,10.7,3.17,17.12-3.72Z"/>
      <path class="fill-mouse-light stroke-outline miter stroke-3" d="m196.01,119.74c-1.46-5.61-3.4-12.96,1.03-17.87,5.37-5.04,16.32-3.6,19.27,3.56,10.72,15.59-12.59,29.92-20.3,14.3Z"/>
      <path class="fill-mouse-light stroke-outline miter stroke-3" d="m165.57,141.27c-7.6,8.43-25.24,16.13-31.71,18.77-5.11,2.09-25.05,19.09-5.8,32.48,12.77,10.14,19.85,4.64,27.14-6.12,2.15-2.75,9.3-24.63,9.99-32.08.44-2.19,1.07-4.62,2.62-8.28.95-2.24-1.84-5.22-2.24-4.77Z"/>
      <path class="fill-mouse-light stroke-outline miter stroke-3" d="m156.88,127.06c8.96-9.64,34.29-15.78,40.22-3.41-.97,7.34-4.79,17.03-7.23,24.4-8.04,24.34-8.18,18.58-32.99-20.98Z"/>
    </g>
    <g id="Mouse_details">
      <path class="fill-black stroke-0" d="m188.54,176.53c-1.66-.19-3.3-.6-4.89-1.19.15-.03.29-.06.44-.08.26-.04.52-.08.78-.11,0,0,0,0,.01,0,.07-.01.15-.02.22-.02.16-.02.32-.03.49-.05.81-.08,1.62-.13,2.44-.19.57-.04,1.13-.45,1.11-1.07-.01-.55-.46-1.15-1.07-1.11-1.42.09-2.86.19-4.27.4-.83.13-1.72.3-2.39.84-.11.09-.19.18-.27.27-1.7-.87-3.3-1.93-4.72-3.16-3.5-3.02-6.27-6.94-7.87-11.2-.91-2.42-1.51-5.02-1.66-7.49-.04-.59-.45-1.1-1.07-1.11-.55-.01-1.15.48-1.11,1.07.32,4.99,1.99,9.84,4.73,14.02,2.73,4.16,6.47,7.72,10.94,9.95.28.14.57.25.86.38.3.51.68.98,1,1.36.88,1.04,1.82,2.02,2.73,3.03.38.43,1.15.45,1.54.03.42-.44.44-1.09.03-1.54-.44-.49-.89-.98-1.34-1.47,1.09.28,2.19.51,3.31.64.59.07,1.1-.52,1.11-1.07.01-.64-.48-1.04-1.07-1.11Z"/>
      <path class="fill-black stroke-0" d="m123.7,140.28c1.28,1.15,2.67,2.16,4.13,3.03-.75-1.18-1.52-2.34-2.27-3.52-.31-.5-.02-1.22.47-1.47.56-.29,1.15-.03,1.47.47.79,1.25,1.61,2.47,2.4,3.72.42.67.91,1.4,1.08,2.2.02.07,0,.14.01.22,2.16.93,4.43,1.57,6.78,1.87,5.15.64,10.31-.11,15.33-1.27,3.04-.7,6.04-1.56,9.03-2.43.57-.17,1.18.29,1.3.84.13.61-.27,1.13-.84,1.3-5.35,1.56-10.76,3.11-16.32,3.71-5.33.58-10.79.26-15.79-1.81-.22-.09-.43-.21-.65-.31-.68.29-1.46.36-2.19.44-1.62.17-3.24.32-4.85.53-.58.08-1.17-.23-1.3-.84-.12-.54.25-1.22.84-1.3,1.4-.19,2.81-.33,4.22-.47.05,0,.1-.01.16-.02-1.64-1-3.19-2.15-4.64-3.45-.44-.39-.32-1.18.09-1.54.48-.43,1.1-.31,1.54.09Z"/>
      <ellipse class="fill-black stroke-0" cx="182.21" cy="162.36" rx="4.38" ry="5.22" transform="translate(7.24 332.49) rotate(-85.9)"/>
      <g>
        <ellipse class="fill-black stroke-0" cx="173.7" cy="135.04" rx="3.69" ry="3.79" transform="translate(26.58 298.64) rotate(-85.9)"/>
        <path class="fill-white stroke-0" d="m174.28,132.5c-1.39.1-1.73,3.69.28,3.71,1.76-.36,2.03-3.61-.28-3.71Z"/>
      </g>
      <g>
        <ellipse class="fill-black stroke-0" cx="187.32" cy="132.71" rx="3.69" ry="3.79" transform="translate(41.55 310.06) rotate(-85.9)"/>
        <path class="fill-white stroke-0" d="m187.9,130.17c-1.39.1-1.73,3.69.28,3.71,1.76-.36,2.03-3.61-.28-3.71Z"/>
      </g>
      <g>
        <path class="fill-black stroke-0" d="m120.16,184.74c-4.44.86-8.92,1.16-13.4,1.71-1.83.22-3.65.51-5.41,1.03-.62.18-1.04.38-1.31,1.01-.04.1-.08.2-.13.3l-.65,1.56c-.45,1.07-.9,2.14-1.35,3.21-.26.62.28,1.38.87,1.54.72.2,1.27-.25,1.54-.87.71-1.69,1.42-3.38,2.13-5.08l-.87.87c2.69-.85,5.36-1.12,8.13-1.39,3.73-.36,7.44-.77,11.11-1.48.66-.13,1.04-.92.87-1.54-.19-.69-.87-1-1.54-.87h0Z"/>
        <path class="fill-black stroke-0" d="m142.12,197.99c.83,4.48,1.62,8.98,2.43,13.46.2,1.08.39,2.15.59,3.23.11.59.22,1.19.34,1.78.13.7.2,1.49.42,2.17.19.61.61.76,1.12.99l1.69.74c1.04.46,2.09.92,3.13,1.38.62.27,1.34.18,1.71-.45.31-.53.17-1.44-.45-1.71-1.79-.79-3.58-1.58-5.37-2.36l.57.75c-1.32-6.87-2.5-13.76-3.78-20.64-.12-.66-.93-1.04-1.54-.87-.7.19-1,.87-.87,1.54h0Z"/>
      </g>
      <g>
        <line class="fill-none stroke-outline miter stroke-2" x1="174.07" y1="156.1" x2="149.2" y2="162.24"/>
        <line class="fill-none stroke-outline miter stroke-2" x1="172.82" y1="153.9" x2="147.28" y2="155.69"/>
        <line class="fill-none stroke-outline miter stroke-2" x1="189.25" y1="151.55" x2="214.75" y2="149.14"/>
        <line class="fill-none stroke-outline miter stroke-2" x1="188" y1="154.14" x2="213.58" y2="155.33"/>
      </g>
    </g>
    <g id="Mouse_accent_bow">
      <g>
        <path class="fill-accent-light stroke-outline round stroke-2" d="m97.2,113.25c-2.88-2.38-11.39-6.6-14.77-3.08-.25,3.56,2.28,16.97,6.77,15.56,2.81-2.15,10.08-6.94,7.99-12.48Z"/>
        <path class="fill-accent-light stroke-outline round stroke-2" d="m105.77,112.27c3.64-4.46,6.62-7.1,11.06-7.89.17,5.58.54,12.21.18,17.53-4.87-.73-8.68-3.61-10.85-6.39-.37-.02-.7.2-.39-3.25Z"/>
        <path class="fill-accent-light stroke-outline round stroke-2" d="m100.69,110.17c-3.36,2.09-5.11,7.05-1.21,8.57,5.41,1,9.38-8.54,1.21-8.57Z"/>
      </g>
    </g>
  </g>
  <g id="Details">
    <rect class="fill-none stroke-0" width="288" height="431.15"/>
  </g>
</svg>
