<svg xmlns="http://www.w3.org/2000/svg" viewBox="0 0 288 431.15">
  <g id="Mouse">
    <g id="Mouse_tail">
      <path d="m138.42,263.17c-1.27-7.12-3.44-14.23-7.25-20.42-2.94-4.78-6.83-8.85-11.47-12-4.07-2.76-8.64-4.72-13.27-6.33-4.24-1.48-8.58-2.65-12.83-4.12-1.01-.35-2.01-.71-3-1.11-.23-.09-.46-.19-.68-.28-.43-.18.29.13.05.02-.13-.06-.25-.11-.38-.16-.47-.21-.94-.42-1.4-.64-.89-.43-1.77-.9-2.62-1.41-.42-.26-.84-.52-1.25-.8-.19-.13-.38-.26-.57-.4-.11-.08-.21-.16-.31-.23-.31-.23.4.32.03.02-.77-.61-1.5-1.27-2.18-1.98-.34-.36-.67-.73-.99-1.12-.07-.09-.15-.18-.22-.28-.2-.24.32.43.04.05-.16-.22-.32-.43-.47-.66-.59-.86-1.11-1.76-1.56-2.7-.11-.23-.22-.47-.32-.71-.18-.39.19.47,0-.02-.06-.14-.11-.28-.17-.42-.2-.53-.39-1.07-.55-1.61-.18-.61-.35-1.22-.48-1.84-.07-.3-.12-.61-.18-.92-.03-.17-.06-.35-.08-.52-.01-.08-.05-.35,0-.02.05.35,0,0,0-.08-.14-1.35-.2-2.7-.15-4.05.02-.69.07-1.39.13-2.08.03-.33.07-.66.1-.99.02-.17.04-.33.06-.5.02-.13.09-.35-.02.16.03-.12.04-.25.05-.37.21-1.41.48-2.81.78-4.2,1.25-5.67,3.16-11.17,4.5-16.83,1.14-4.82,2.13-10.3.39-15.1-.85-2.35-2.28-4.44-4.24-6-2.48-1.97-5.42-3.2-8.47-3.99-1.95-.5-3.94-.81-5.93-1.06-1.04-.13-2.04,1.01-2,2,.05,1.19.88,1.86,2,2,.12.02.25.03.37.05-.37-.05-.05,0,.02,0,.24.03.48.07.72.11.52.08,1.03.17,1.54.27.89.17,1.78.37,2.66.61.77.21,1.53.45,2.27.72.17.06.34.13.51.19.08.03.16.07.25.1.25.09-.36-.16-.11-.05.33.15.66.29.98.45.6.3,1.18.63,1.75.99.25.16.49.34.73.51.22.16-.35-.29.02.02.13.11.27.22.4.34.42.37.81.76,1.17,1.19.08.1.16.21.25.3.16.17-.26-.37-.13-.17.03.05.08.1.12.16.17.24.33.47.48.72.26.43.42.99.72,1.38-.3-.39-.12-.29-.02-.04.05.12.09.24.13.35.09.27.18.54.26.82.15.53.25,1.06.34,1.6.08.48-.03-.32,0-.04.01.13.03.26.04.39.03.28.05.57.06.85.06,1.18.02,2.35-.1,3.52-.03.29-.06.59-.1.88-.06.53.05-.32,0,.02-.03.19-.05.37-.08.56-.1.63-.21,1.26-.33,1.88-1.1,5.59-2.97,10.99-4.37,16.51-1.43,5.62-2.48,11.48-1.56,17.27.73,4.57,2.86,9.01,6.09,12.33,2.99,3.08,6.8,5.1,10.73,6.69s8.25,2.8,12.39,4.11c2.21.7,4.41,1.44,6.57,2.28.26.1.52.2.78.31.13.05.26.11.39.16.09.04.58.24.24.1s.13.06.2.08c.13.06.26.11.39.17.27.12.55.24.82.37,1.09.5,2.17,1.04,3.22,1.62s2.09,1.2,3.09,1.87c.5.33,1,.68,1.48,1.04.12.09.24.18.35.26.21.16.37.23.04.02.28.17.53.42.78.63,2.02,1.67,3.83,3.55,5.46,5.59.21.26-.06-.08-.09-.11.05.06.1.13.15.2.1.13.2.27.3.4.22.3.44.61.66.92.41.59.79,1.18,1.17,1.79.8,1.3,1.53,2.66,2.19,4.04.17.35.33.7.48,1.05.08.18.16.36.24.54.04.09.08.18.12.27-.21-.48,0,0,.03.07.33.8.64,1.62.93,2.43.61,1.71,1.13,3.44,1.59,5.2.5,1.94.92,3.9,1.27,5.87.18,1.03,1.5,1.71,2.46,1.4,1.11-.36,1.59-1.35,1.4-2.46h0Z" class="fill-black stroke-0"/>
    </g>
    <g id="Mouse_light">
      <path d="m139.6,182.25c4.9-6.96,7.35-15.63,5.8-23.88-6.04-12.14-28.62-10.4-35.09.66-4.59,10.91-4.16,25.45,7.89,31.05,9.12,1.99,14.35,2.18,21.4-7.83Z" class="fill-mouse-light stroke-outline miter stroke-3"/>
      <path d="m189.56,165.28c-2.88-6.97-6.68-16.09-1.85-23.2,6.02-7.45,20.38-7.53,25.46,1.17,16.58,18.18-10.91,40.78-23.61,22.03Z" class="fill-mouse-light stroke-outline miter stroke-3"/>
      <path d="m152.78,198.79c-.38,14.75-11.31,37.28-15.45,45.36-3.28,6.39-8.61,40.04,21.73,37,21.18-.78,23.54-12.2,21.64-28.99-.2-4.54-11.63-32.2-17.26-40.15-1.42-2.53-2.85-5.48-4.41-10.4-.96-3.02-6.23-3.61-6.25-2.82Z" class="fill-mouse-light stroke-outline miter stroke-3"/>
      <path d="m140.45,181.66c9.83-14.02,41.37-26.42,51.2-11.54.06,9.63-3.15,22.8-4.98,32.71-6.04,32.78-7.24,25.39-46.23-21.17Z" class="fill-mouse-light stroke-outline miter stroke-3"/>
    </g>
    <g id="Mouse_details">
      <path d="m201.41,246.05c-.13-.82-.85-1.23-1.62-1.18-2.17.13-4.36-.02-6.53-.42.18-.07.36-.14.55-.21.32-.11.65-.22.97-.32,0,0,0,0,.01,0,.09-.03.19-.06.28-.08.2-.06.41-.12.61-.17,1.02-.28,2.05-.54,3.08-.79.72-.18,1.34-.83,1.18-1.62-.14-.7-.85-1.37-1.62-1.18-1.8.44-3.62.89-5.38,1.48-1.04.35-2.14.77-2.87,1.62-.12.13-.21.27-.29.4-2.37-.73-4.66-1.73-6.76-2.98-2.91-1.73-5.57-3.89-7.9-6.35.7,1.78,1.25,3.61,1.72,5.46,3.67,3,7.88,5.35,12.42,6.7.39.12.79.2,1.18.3.49.58,1.09,1.1,1.59,1.51,1.36,1.13,2.79,2.18,4.19,3.27.59.46,1.57.31,1.98-.31.44-.66.31-1.49-.31-1.98-.68-.53-1.36-1.06-2.04-1.58,1.45.12,2.91.16,4.38.07.77-.05,1.29-.92,1.18-1.62Z" class="fill-black stroke-0"/>
      <path d="m152.37,265.13c-1.4-1.75-2.61-3.62-3.65-5.58,1.48,1.05,2.93,2.14,4.41,3.19.63.44,1.58.11,1.94-.51.41-.71.11-1.5-.51-1.94-1.57-1.11-3.1-2.27-4.67-3.38-.85-.6-1.76-1.28-2.78-1.55-.09-.03-.19-.01-.28-.03-1.05-2.86-1.74-5.86-1.95-8.94-.47-6.73.86-13.38,2.71-19.82,1.12-3.9,2.44-7.73,3.78-11.56.25-.72-.29-1.55-1-1.74-.78-.21-1.49.27-1.74,1-2.4,6.84-4.78,13.76-5.95,20.94-1.12,6.88-1.08,14,1.26,20.63.1.3.24.57.35.87-.42.87-.57,1.87-.72,2.81-.34,2.09-.64,4.18-1.03,6.27-.14.75.21,1.53,1,1.74.69.19,1.6-.24,1.74-1,.34-1.81.62-3.63.9-5.45.01-.07.02-.13.03-.2,1.19,2.2,2.57,4.29,4.15,6.26.48.6,1.51.5,2.01,0,.59-.59.48-1.41,0-2.01Z" class="fill-black stroke-0"/>
      <ellipse cx="179.36" cy="222.64" rx="6.79" ry="5.69" transform="translate(-14.16 12.19) rotate(-3.75)" class="fill-black stroke-0"/>
      <g>
        <ellipse cx="163.54" cy="188.96" rx="4.93" ry="4.79" transform="translate(-11.99 11.09) rotate(-3.75)" class="fill-black stroke-0"/>
        <path d="m163.83,185.58c-1.78.37-1.57,5.06,1.03,4.73,2.21-.77,1.98-5.01-1.03-4.73Z" class="fill-white stroke-0"/>
      </g>
      <g>
        <ellipse cx="180.68" cy="183.54" rx="4.93" ry="4.79" transform="translate(-11.6 12.19) rotate(-3.75)" class="fill-black stroke-0"/>
        <path d="m180.97,180.16c-1.78.37-1.57,5.06,1.03,4.73,2.21-.77,1.98-5.01-1.03-4.73Z" class="fill-white stroke-0"/>
      </g>
      <g>
        <path d="m148.25,281.56c.18,5.88-.34,11.7-.6,17.56-.1,2.28-.11,4.57.15,6.84.1.85.09,1.66.86,2.19.12.08.25.16.37.23l1.82,1.14c1.29.81,2.58,1.61,3.87,2.42,1.64,1.03,3.15-1.57,1.51-2.59-2.02-1.27-4.05-2.53-6.07-3.8l.69.9c-.01-.07-.03-.15-.03-.22,0-.25.02.2,0-.05-.02-.15-.04-.3-.05-.45-.04-.35-.07-.7-.1-1.04-.05-.7-.08-1.4-.09-2.1-.02-1.4.02-2.8.1-4.19.17-3.28.45-6.56.56-9.85.08-2.33.08-4.66,0-6.99-.06-1.93-3.06-1.93-3,0h0Z" class="fill-black stroke-0"/>
        <path d="m165.4,280.28c.4,5.48.81,10.95,1.25,16.43.23,2.94.43,5.9.71,8.84.07.7.22,1.19.84,1.58.19.12.39.22.58.34l2.1,1.22c1.28.74,2.56,1.48,3.83,2.23,1.67.97,3.18-1.62,1.51-2.59-2.2-1.28-4.4-2.55-6.6-3.83l.74,1.3c-.51-6.33-1.02-12.66-1.5-18.99-.16-2.17-.32-4.34-.48-6.52-.06-.81-.65-1.5-1.5-1.5-.77,0-1.56.69-1.5,1.5h0Z" class="fill-black stroke-0"/>
      </g>
      <g>
        <line x1="167.75" y1="216.03" x2="136.81" y2="228.35" class="fill-none stroke-outline miter stroke-1"/>
        <line x1="165.76" y1="213.41" x2="133.16" y2="220.25" class="fill-none stroke-outline miter stroke-1"/>
        <line x1="186.51" y1="207.46" x2="218.93" y2="199.84" class="fill-none stroke-outline miter stroke-1"/>
        <line x1="185.36" y1="211.03" x2="218.52" y2="208.01" class="fill-none stroke-outline miter stroke-1"/>
      </g>
    </g>
    <g id="Mouse_accent_bow">
      <g>
        <path d="m68.74,191.41c-4.13-2.56-15.84-6.48-19.57-1.35.31,4.64,5.95,21.45,11.49,18.84,3.24-3.27,11.75-10.73,8.08-17.49Z" class="fill-accent-light stroke-outline round stroke-2"/>
        <path d="m79.61,188.63c3.9-6.39,7.27-10.33,12.85-12.13,1.2,7.16,2.87,15.64,3.34,22.55-6.4-.07-11.82-3.11-15.11-6.3-.48.03-.87.38-1.08-4.12Z" class="fill-accent-light stroke-outline round stroke-2"/>
        <path d="m72.69,186.82c-3.96,3.29-5.33,9.98-.04,11.25,7.15.33,10.57-12.67.04-11.25Z" class="fill-accent-light stroke-outline round stroke-2"/>
      </g>
    </g>
  </g>
  <g id="Details">
    <path d="m0,0v431.15h288V0H0Z" class="fill-none stroke-0"/>
  </g>
</svg>