<svg xmlns="http://www.w3.org/2000/svg" viewBox="0 0 288 431.15">
<g id="Cheese">
    <g id="Cheese_shade">
      <path class="fill-cheese-shade stroke-outline miter stroke-3" d="m232.91,181.07c-2.21,0-166.67,47.94-168.15,48.67-1.47.74-3.04,82.51,0,85.55.82.82,23.09-5.17,50.87-13.13.06-1.1.25-2.24.73-3.37,1-2.36,4.13-4.17,6.38-4.13,2.68.04,5.01-.39,7.1,1.86.37.4.57.85.7,1.33,44.43-12.94,95.22-28.51,96.47-29.76,2.21-2.21,8.11-87.02,5.9-87.02Z"/>
    </g>
    <g id="Cheese_light">
      <polygon class="fill-cheese-light stroke-outline round stroke-3" points="65 228.98 141.98 152.99 231.87 180.8 65 228.98"/>
    </g>
    <g id="Cheese_details">
      <path class="fill-black stroke-0" d="m154.27,182.88c-4.42.74-5.47,3.65-5.21,4.81.43,3.89,7.42,4,13.32,3.67,13.72-.5,13.69-12.73-8.11-8.48Z"/>
      <path class="fill-black stroke-0" d="m162.48,243.76c-4.31,3.95-6.3,17.32,4.06,17.7,20.14,4.11,15.68-33.48-4.06-17.7Z"/>
      <path class="fill-black stroke-0" d="m102.96,234.15c-27.28.77-35.75,43.35-3.98,45.52,33.48,11.2,42.48-52.92,3.98-45.52Z"/>
      <path class="fill-black stroke-0" d="m116.02,199.05c-4.49,3.81-1.49,7.41,3.69,5.47,11.06-5.33,4.1-9.7-3.69-5.47Z"/>
      <path class="fill-black stroke-0" d="m201.11,197.31c-5.35-.54-11.61,3.13-12.44,6.13-4.83,28.08,45.43-.38,12.44-6.13Z"/>
    </g>
  </g>
  <g id="Mouse">
    <g id="Mouse_tail">
      <path class="fill-black stroke-0" d="m160.18,181.48c-.25-.72-.45-1.46-.6-2.21-.04-.18-.07-.37-.1-.55-.08-.47.02.27-.02-.1-.05-.43-.09-.85-.1-1.28-.03-.78-.01-1.57.06-2.35.02-.2.04-.4.07-.6-.06.47.01-.06.04-.23.07-.41.15-.82.25-1.23.21-.88.47-1.75.78-2.59.08-.21.16-.43.25-.64.02-.05.16-.39.06-.16s.05-.11.07-.16c.21-.47.42-.93.66-1.38.46-.91.97-1.79,1.52-2.64.29-.45.59-.9.9-1.34.16-.23.32-.45.49-.67s.37-.49.4-.52c2.88-3.64,6.38-6.72,9.68-9.97s6.21-6.21,9.2-9.43c5.49-5.9,10.84-12.14,14.94-19.11,3.2-5.45,5.91-11.87,5.04-18.32-.42-3.1-1.67-5.91-3.59-8.37-2.15-2.76-5.08-4.88-8.14-6.52-.9-.49-1.82-.93-2.76-1.35s-2.19-.31-2.74.72c-.46.87-.3,2.28.72,2.74,1.81.81,3.58,1.73,5.24,2.83.34.23.68.46,1.01.7.17.13.34.25.51.38-.38-.29.19.15.27.22.63.52,1.23,1.07,1.79,1.65.24.25.48.51.71.78.12.14.23.28.35.42.04.05.08.11.13.16-.35-.42-.05-.06.01.02.41.56.79,1.14,1.12,1.75.16.3.31.6.45.9.04.08.23.51.1.22s.09.24.13.34c.23.61.41,1.24.56,1.88.07.32.13.64.18.96,0,.04.05.19.04.24,0-.02-.06-.52-.02-.17.02.18.04.37.05.55.05.67.06,1.33.04,2-.01.34-.04.68-.07,1.02-.01.15-.03.3-.05.45,0,.06-.04.19-.03.26-.05-.42.03-.25,0-.01-.11.71-.25,1.41-.43,2.1-.37,1.48-.88,2.91-1.46,4.32.19-.47-.04.09-.09.21-.08.18-.16.37-.25.55-.18.4-.37.79-.56,1.18-.38.76-.77,1.51-1.19,2.24-.89,1.59-1.86,3.13-2.88,4.63-.53.78-1.07,1.55-1.63,2.31-.27.36-.53.73-.8,1.09-.15.19-.29.39-.44.58-.07.1-.15.19-.22.29-.13.17.14-.18-.08.1-2.54,3.26-5.24,6.38-8.04,9.42s-5.95,6.27-9.01,9.31c-3.25,3.23-6.75,6.29-9.71,9.79-5.02,5.95-8.84,13.56-7.24,21.52.15.73.35,1.44.59,2.14.34.99,1.39,1.74,2.46,1.4.98-.32,1.76-1.4,1.4-2.46h0Z"/>
    </g>
    <g id="Mouse_light">
      <path class="fill-mouse-light stroke-outline miter stroke-3" d="m80.64,250.66c4.46-4.79,7.24-11.13,6.93-17.58-3.33-9.88-20.71-10.93-26.8-3.18-4.64,7.83-5.84,18.95,2.75,24.48,6.74,2.47,10.7,3.17,17.12-3.72Z"/>
      <path class="fill-mouse-light stroke-outline miter stroke-3" d="m120.48,242.98c-1.46-5.61-3.4-12.96,1.03-17.87,5.37-5.04,16.32-3.6,19.27,3.56,10.72,15.59-12.59,29.92-20.3,14.3Z"/>
      <path class="fill-mouse-light stroke-outline miter stroke-3" d="m81.35,250.3c8.96-9.64,34.29-15.78,40.22-3.41-.97,7.34-4.79,17.03-7.23,24.4-8.04,24.34-8.18,18.58-32.99-20.98Z"/>
    </g>
    <g id="Mouse_details">
      <ellipse class="fill-black stroke-0" cx="106.69" cy="285.6" rx="4.38" ry="5.22" transform="translate(-185.81 371.59) rotate(-85.9)"/>
      <g>
        <ellipse class="fill-black stroke-0" cx="98.17" cy="258.28" rx="3.69" ry="3.79" transform="translate(-166.47 337.73) rotate(-85.9)"/>
        <path class="fill-white stroke-0" d="m98.75,255.74c-1.39.1-1.73,3.69.28,3.71,1.76-.36,2.03-3.61-.28-3.71Z"/>
      </g>
      <g>
        <ellipse class="fill-black stroke-0" cx="111.8" cy="255.95" rx="3.69" ry="3.79" transform="translate(-151.5 349.16) rotate(-85.9)"/>
        <path class="fill-white stroke-0" d="m112.38,253.41c-1.39.1-1.73,3.69.28,3.71,1.76-.36,2.03-3.61-.28-3.71Z"/>
      </g>
      <g>
        <line class="fill-none stroke-outline miter stroke-2" x1="98.54" y1="279.35" x2="73.68" y2="285.49"/>
        <line class="fill-none stroke-outline miter stroke-2" x1="97.29" y1="277.15" x2="71.75" y2="278.94"/>
        <line class="fill-none stroke-outline miter stroke-2" x1="113.73" y1="274.79" x2="139.22" y2="272.39"/>
        <line class="fill-none stroke-outline miter stroke-2" x1="112.48" y1="277.39" x2="138.06" y2="278.57"/>
      </g>
    </g>
    <g id="Mouse_accent_bow">
      <g>
        <path class="fill-accent-light stroke-outline round stroke-2" d="m187.72,129.65c-1.08-3.58-5.83-11.8-10.6-10.73-2.18,2.83-7.48,15.4-2.96,16.71,3.53-.24,12.24-.21,13.56-5.97Z"/>
        <path class="fill-accent-light stroke-outline round stroke-2" d="m195.4,133.58c5.5-1.7,9.44-2.26,13.58-.45-2.95,4.74-6.3,10.47-9.55,14.7-3.65-3.3-5.23-7.81-5.51-11.32-.29-.22-.7-.22,1.47-2.93Z"/>
        <path class="fill-accent-light stroke-outline round stroke-2" d="m192.33,129.02c-3.96-.12-8.16,3.04-5.75,6.46,3.95,3.83,12.54-1.93,5.75-6.46Z"/>
      </g>
    </g>
  </g>
  <g id="Details">
    <rect class="fill-none stroke-0" width="288" height="431.15"/>
  </g>
</svg>
