<svg xmlns="http://www.w3.org/2000/svg" viewBox="0 0 321.35 483.89">
<g id="Cat">
    <path id="answer-button-bg-cat" class="fill-board-dark fill-answer-button-bg stroke-0" d="m280.4,181.85c14.99,1.58,26.84,8.45,34.43,21.8,2.02,3.56.22,10.32-1.89,13.65-7.16,11.3-22.46,17.69-34.33,11.64-12.75-6.5-18.51-27.22-14.86-37.94,1.75-5.15,9.24-9.03,16.65-9.15Z" />
    <g id="CatToken">
      <g id="CatShade" class="fill-cat-shade stroke-outline round stroke-2">
        <path d="m307.06,197.41c.72-8.75,1.55-18.25,1.55-18.25,0,0-6.73,6.23-10.64,9.96l9.09,8.29Z" />
        <polygon points="272.88 196.46 271.46 179.07 282.1 189.03 272.88 196.46 272.88 196.46" />
      </g>
      <path id="CatLight" class="fill-cat-light stroke-outline miter stroke-2" d="m308.62,205.02c0,9.93-7.48,17.98-18.33,17.98s-19.65-8.05-19.65-17.98,8.8-17.98,19.65-17.98,18.33,8.05,18.33,17.98Z" />
      <g id="CatFace">
        <g id="CatEyeRight">
          <path id="EyeAccentLightRight" class="fill-accent-light stroke-0" d="m296.71,198.28c-7.88.52-3.98,9.27,1.99,6.64,2.57-1.02,3.17-7-1.99-6.64Z" />
          <path id="EyeAccentShadeRight" class="fill-accent-shade stroke-0" d="m293.36,198.96c-1.1.1-1.31,5.23.05,5.77,1.53.73,5.56.95,6.21-.42.12-.43-4.03-1.65-4.14-2.06-.1-.36-.82-3.42-2.12-3.3Z" />
          <path class="fill-black stroke-0" d="m296.06,200.82c-.79.1-1.13,2.02-.16,2.57.18.1.35.17.56.15.27-.03.43-.25.61-.42.31-.31.34-.8.26-1.21-.07-.36-.34-1.21-1.28-1.09Z" />
          <circle class="fill-white stroke-0" cx="298.02" cy="199.57" r="1.27" />
          <path class="fill-black stroke-0" d="m296.26,206.1c-2.63,0-4.53-1.73-4.53-4.11,0-2.61,2.5-4.02,4.86-4.02,2.56,0,4.21,1.58,4.21,4.02s-1.91,4.11-4.54,4.11Zm.33-7.25c-1.98,0-3.98,1.08-3.98,3.14,0,1.9,1.5,3.23,3.65,3.23s3.67-1.33,3.67-3.23-1.25-3.14-3.34-3.14Z" />
        </g>
        <g id="CatEyeLeft">
          <path id="EyeAccentLightLeft" class="fill-accent-light stroke-0" d="m281.63,198.28c-7.88.52-3.98,9.27,1.99,6.64,2.57-1.02,3.17-7-1.99-6.64Z" />
          <path id="EyeAccentShadeLeft" class="fill-accent-shade stroke-0" d="m278.28,198.96c-1.1.1-1.31,5.23.05,5.77,1.53.73,5.56.95,6.21-.42.12-.43-4.03-1.65-4.14-2.06-.1-.36-.82-3.42-2.12-3.3Z" />
          <path class="fill-black stroke-0" d="m280.95,200.37c-.79.1-1.13,2.02-.16,2.57.18.1.35.17.56.15.27-.03.43-.25.61-.42.31-.31.34-.8.26-1.21-.07-.36-.34-1.21-1.28-1.09Z" />
          <circle class="fill-white stroke-0" cx="283.62" cy="199.31" r="1.27" />
          <path class="fill-black stroke-0" d="m281.43,205.78c-2.74,0-4.72-1.8-4.72-4.28,0-2.66,2.78-3.87,5.36-3.87s4.09,1.34,4.09,3.87-1.99,4.28-4.72,4.28Zm.63-7.28c-2.16,0-4.48.94-4.48,2.99s1.58,3.41,3.85,3.41,3.85-1.4,3.85-3.41-1.02-2.99-3.21-2.99Z" />
        </g>
        <g id="Whiskers" class="fill-none stroke-outline miter stroke-1">
          <line x1="262.05" y1="217.48" x2="278.98" y2="210.16" />
          <line x1="262.93" y1="223.64" x2="278.1" y2="213.22" />
          <line x1="270.17" y1="227.38" x2="279.91" y2="214.19" />
          <line x1="308.52" y1="224.77" x2="295.95" y2="214.94" />
          <line x1="313.02" y1="220.61" x2="298.12" y2="212.92" />
          <line x1="315.74" y1="214.29" x2="298.19" y2="210.82" />
        </g>
        <ellipse id="CatShadeNose" class="fill-cat-shade stroke-outline miter stroke-1" cx="288.5" cy="210.73" rx="3.05" ry="2.56" />
        <path id="CatSmile" class="fill-black stroke-0" d="m293.66,217.47c.34-.49-.2-1.07-.64-.44-.87,1.23-2.04,1.47-3.19.7-1.28-.95-1.07-2.73-1.19-4.14,0-.56-.88-.57-.88,0,.02,1.38-.02,2.96-.89,4.1-.98.99-2.4.36-3.03-.72-.4-.67-1.39-.5-.55.79,1.24,1.91,4.44,1.58,4.93-.78,1.07,2.44,3.92,2.74,5.45.49Z" />
      </g>
    </g>
    <g id="answer-paw-cat" class="fill-answer-paw stroke-outline round stroke-1">
      <path d="m290.61,182.21c3.42,1.24,8.75,4.25,6.36,8.87-1.37,2.65-5.09,7.7-7.83,6.35-5.07-3.19-11.15-8.91-4.05-13.69,1.54-1.03,3.62-1.87,5.52-1.53Z" />
      <path d="m292.33,225.46c-6.31-.41-14.94-1.55-14.17-9.34.48-6.69,4.09-13.52,11.15-15.04,7.88-1.52,13.45,5.65,16.55,11.83,4.3,8.73-7.14,12.16-13.53,12.55Z" />
      <path d="m271.55,205.99c-10.43.75-7.74-17.24,4.01-14.05,3.11.64,3.44,3.42,3.79,5.89,1,7.04.04,8-7.8,8.16Z" />
      <path d="m309.15,187.86c4.29-.04,7.53,3.53,7.5,8.28-.02,3.11-5.66,6.85-10.36,6.87-1.64,0-4.7-6.21-4.73-9.61-.03-3.25,3.04-5.5,7.6-5.54Z" />
    </g>
  </g>
  <g id="Pillow">
    <path id="answer-button-bg-pillow" class="fill-board-dark fill-answer-button-bg stroke-0" d="m276.19,408.26c-9.26-11.89-12.53-25.2-8.18-39.92,1.16-3.92,7.28-7.32,11.15-8.11,13.11-2.68,28.32,3.91,32.2,16.66,4.16,13.69-6.77,32.21-17.02,37.03-4.92,2.31-12.92-.39-18.14-5.65Z" />
    <g id="PillowToken">
      <g id="PillowLight" class="fill-pillow-light stroke-outline">
        <rect id="PillowLightBase" class="miter stroke-2" x="271.41" y="365.21" width="36.38" height="36.38" rx="3.6" ry="3.6" transform="translate(114.85 -64.18) rotate(15.74)" />
        <g id="PillowPompoms" class="stroke-1">
          <path d="m302.55,412.95c.29-.73.41-.24.5.23.56-1.91,1.42-4.92-.65-6.18.33-.03.65-.23.79-.58-.03-.3-.14-.59-.3-.84-.94-1.05-2.09-.27-1.2,1.16.15.15.34.23.53.25-1.64,1.43-.49,3.97-1.27,5.71.19,0,.41.08.59,0,.22-.12.41-.02.55.15.19-.3.32-.13.47.09Z" />
          <path d="m267,397.07c1.21-1.16.3-2.2-.88-1.42-.22.2-.4.46-.5.74.05.37.3.65.62.76-2.32.71-2.23,3.83-2.16,5.83.2-.44.43-.88.54-.1.2-.18.37-.31.48.03.18-.13.39-.19.57-.01.15.12.39.11.57.15-.32-1.88,1.42-4.05.2-5.85.19.02.38,0,.57-.11Z" />
          <path d="m277.19,359.89c-.21-.03-.4.02-.57.11.44-2.13-2.01-3.46-2.43-5.32-.15.11-.37.19-.47.36-.1.23-.32.26-.53.21.03.36-.18.3-.43.21.2.76-.18.44-.54.11.7,1.87,1.83,4.79,4.24,4.55-.25.22-.38.58-.28.94.2.22.47.38.75.49,1.38.27,1.83-1.04.26-1.65Z" />
          <path d="m317.32,366.42c-.13-.13-.25-.34-.43-.4-.24-.06-.31-.27-.3-.49-.35.09-.33-.12-.28-.39-.71.33-.47-.1-.2-.51-1.72,1.02-4.4,2.63-3.74,4.97-.26-.21-.63-.27-.97-.11-.18.24-.3.53-.35.82-.02,1.41,1.35,1.62,1.67-.03-.01-.21-.09-.39-.21-.54,2.17.06,3.06-2.58,4.82-3.32Z" />
        </g>
      </g>
      <g id="PillowShade" class="fill-pillow-shade stroke-0">
        <path d="m284.83,372.42s0-.08,0-.11c2.71-1.76,1.72-2.51-.24-.74-.09-.15-.21-.28-.35-.39.22-1.94.58-2.81-.86-.32-.08,0-.16,0-.25,0-1.21-2.69-2.09-2.23-.72.28-.09.06-.17.13-.24.21-2.67-.64-2.6.51-.4,1.08,0,.1.01.19.03.28-.52.19-1,.59-1.24,1.14-.54,1.23,1.03.25,1.77-.27.12.09.25.16.39.22-.56,2.59.37,1.59.74.11.14-.02.27-.05.4-.1,1.49,1.73,2.39,1.54.64-.48.04-.06.08-.12.11-.18,2.55.4,2.4,0,.2-.73Z" />
        <path d="m279.88,388.89c-.07-.17-.18-.33-.31-.46.51-1.85.98-2.62-.79-.43-.09-.02-.18-.03-.27-.03-.78-2.8-1.7-2.48-.75.17-.1.05-.2.11-.28.19-2.54-1.03-2.63.12-.53,1.02,0,.09,0,.18,0,.27-.55.1-1.1.43-1.42.94-.74,1.15,1.03.38,1.83-.01.1.1.21.19.33.27,0,0,0,.02-.01.03-.96,2.5.14,1.63.73.19.13,0,.26,0,.38-.03,1.21,1.96,2.15,1.92.72-.36.05-.05.1-.1.15-.15,2.45.78,2.37.37.33-.69,0-.04.02-.09.02-.13,2.91-1.31,2.06-2.2-.12-.78Z" />
        <path d="m302.23,377c-.01-.07-.03-.13-.05-.2,2.18-2.2,1.09-2.7-.43-.64-.13-.12-.28-.21-.46-.28-.18-1.95,0-2.87-.92-.07-.06.01-.12.03-.18.05-1.78-2.47-2.56-1.81-.63.44-.05.06-.1.13-.14.2-2.9-.11-2.57,1.05-.19,1.14.02.08.04.15.07.23-.5.28-.92.8-1.05,1.4-.28,1.33,1.09.01,1.7-.65.11.07.23.12.36.16.02,0,.03,0,.05,0-.02,2.6.67,1.5.74,0,.16-.04.3-.1.44-.19,1.74,1.31,2.55.96.55-.59.04-.08.08-.17.1-.26,2.43-.13,2.21-.48.03-.74Z" />
        <path d="m297.44,394.48c0-.08,0-.16,0-.24,2.52-1.67,1.59-2.37-.28-.73-.11-.16-.26-.29-.43-.4.22-1.89.55-2.69-.86-.24-.08,0-.16,0-.24.02-1.22-2.73-2.11-2.24-.7.32-.06.05-.12.11-.18.18-2.82-.7-2.72.52-.37,1.09,0,.07.01.14.03.21-.57.17-1.1.59-1.36,1.17-.56,1.27,1.14.18,1.85-.32.1.09.21.17.33.23,0,.01,0,.03-.01.04-.56,2.6.37,1.6.74.11.15,0,.29-.02.43-.07,1.45,1.67,2.33,1.5.67-.45.06-.07.12-.15.17-.23,2.39.36,2.26-.01.22-.71Z" />
      </g>
    </g>
    <g id="answer-paw-pillow" class="fill-answer-paw stroke-outline round stroke-1">
      <path d="m290.61,364.62c3.42,1.24,8.75,4.25,6.36,8.87-1.37,2.65-5.09,7.7-7.83,6.35-5.07-3.19-11.15-8.91-4.05-13.69,1.54-1.03,3.62-1.87,5.52-1.53Z" />
      <path d="m292.33,407.86c-6.31-.41-14.94-1.55-14.17-9.34.48-6.69,4.09-13.52,11.15-15.04,7.88-1.52,13.45,5.65,16.55,11.83,4.3,8.73-7.14,12.16-13.53,12.55Z" />
      <path d="m271.55,388.4c-10.43.75-7.74-17.24,4.01-14.05,3.11.64,3.44,3.42,3.79,5.89,1,7.04.04,8-7.8,8.16Z" />
      <path d="m309.15,370.26c4.29-.04,7.53,3.53,7.5,8.28-.02,3.11-5.66,6.85-10.36,6.87-1.64,0-4.7-6.21-4.73-9.61-.03-3.25,3.04-5.5,7.6-5.54Z" />
    </g>
  </g>
  <g id="Cheese">
    <path id="answer-button-bg-cheese" class="fill-board-dark fill-answer-button-bg stroke-0" d="m264.51,275.71c1.47-15,8.26-26.9,21.55-34.59,3.54-2.05,10.32-.3,13.67,1.79,11.35,7.08,17.85,22.33,11.89,34.25-6.4,12.79-27.08,18.7-37.84,15.14-5.16-1.71-9.1-9.18-9.27-16.59Z" />
    <g id="CheeseToken">
      <path id="CheeseShade" class="fill-cheese-shade stroke-outline miter stroke-2" d="m311.37,251.81c-.53,0-39.7,11.42-40.05,11.59-.35.18-.72,19.65,0,20.38.2.2,5.5-1.23,12.12-3.13.01-.26.06-.53.17-.8.24-.56.98-.99,1.52-.98.64,0,1.19-.09,1.69.44.09.09.14.2.17.32,10.58-3.08,22.68-6.79,22.98-7.09.53-.53,1.93-20.73,1.41-20.73Z" />
      <polygon id="CheeseLight" class="fill-cheese-light stroke-outline round stroke-2" points="271.38 263.22 289.71 245.12 311.12 251.75 271.38 263.22" />
      <g id="CheeseHoles" class="fill-black stroke-0">
        <path d="m292.73,250.37c-1.05.18-1.3.87-1.24,1.15.1.93,1.77.95,3.17.87,3.27-.12,3.26-3.03-1.93-2.02Z" />
        <path d="m294.6,266.74c-1.03.94-1.5,4.12.97,4.22,4.8.98,3.73-7.97-.97-4.22Z" />
        <path d="m279.77,266.27c-3.37.09-4.41,5.35-.49,5.62,4.13,1.38,5.24-6.53.49-5.62Z" />
        <path d="m283.53,256.09c-1.07.91-.36,1.76.88,1.3,2.64-1.27.98-2.31-.88-1.3Z" />
        <path d="m303.8,255.68c-1.27-.13-2.77.74-2.96,1.46-1.15,6.69,10.82-.09,2.96-1.46Z" />
      </g>
    </g>
    <g id="answer-paw-cheese" class="fill-answer-paw stroke-outline round stroke-1">
      <path d="m292.33,286.26c-6.31-.41-14.94-1.55-14.17-9.34.48-6.69,4.09-13.52,11.15-15.04,7.88-1.52,13.45,5.65,16.55,11.83,4.3,8.73-7.14,12.16-13.53,12.55Z" />
      <path d="m271.55,266.79c-10.43.75-7.74-17.24,4.01-14.05,3.11.64,3.44,3.42,3.79,5.89,1,7.04.04,8-7.8,8.16Z" />
      <path d="m309.15,248.66c4.29-.04,7.53,3.53,7.5,8.28-.02,3.11-5.66,6.85-10.36,6.87-1.64,0-4.7-6.21-4.73-9.61-.03-3.25,3.04-5.5,7.6-5.54Z" />
      <path d="m290.61,243.01c3.42,1.24,8.75,4.25,6.36,8.87-1.37,2.65-5.09,7.7-7.83,6.35-5.07-3.19-11.15-8.91-4.05-13.69,1.54-1.03,3.62-1.87,5.52-1.53Z" />
    </g>
  </g>
  <g id="Ball">
    <path id="answer-button-bg-ball" class="fill-board-dark fill-answer-button-bg stroke-0" d="m280.99,301.72c14.94,1.99,26.59,9.19,33.81,22.74,1.92,3.61-.06,10.32-2.27,13.6-7.47,11.1-22.94,17.06-34.64,10.68-12.56-6.85-17.75-27.72-13.81-38.34,1.89-5.1,9.49-8.77,16.9-8.68Z" />
    <g id="BallToken">
      <circle id="BallLight" class="fill-ball-light stroke-outline miter stroke-2" cx="289.98" cy="322.38" r="18.32" />
      <g id="BallShade">
        <path class="fill-ball-shade stroke-0" d="m307.7,326.23c-11.93,1.7-25.16-1.04-31.55-15.36,0,0-3.63,3.94-4.15,9.86,1.33,10.31,17.13,18.79,30.52,15.26,4.57-5.09,5.19-9.76,5.19-9.76Z" />
        <path class="fill-black stroke-0" d="m307.56,325.75c-9.25,1.3-19.24-.3-25.91-7.35-2.15-2.27-3.8-4.94-5.08-7.78-.13-.29-.58-.32-.79-.1-2.18,2.38-3.61,5.7-4.12,8.84-.09.53-.22,1.11-.14,1.64.07.5.18.99.31,1.48.24.87.59,1.72,1,2.53.89,1.75,2.14,3.32,3.55,4.68,6.59,6.35,16.95,9.04,25.81,6.89.38-.09.57-.14.83-.42.29-.32.57-.66.84-1,.5-.63.98-1.28,1.41-1.95.71-1.08,1.32-2.23,1.83-3.42.46-1.08.91-2.25,1.07-3.42.09-.63-.88-.9-.96-.27-.11.84-.39,1.68-.69,2.47-.79,2.12-1.97,4.11-3.37,5.88-.22.28-.44.56-.68.82s-.37.31-.72.39c-.56.13-1.13.24-1.7.34-1.15.19-2.32.28-3.49.3-2.25.04-4.49-.2-6.68-.69-4.15-.94-8.19-2.75-11.48-5.46-2.8-2.3-5.19-5.36-5.85-9.01-.22-1.25.29-2.78.67-3.97.36-1.12.83-2.19,1.4-3.22.53-.96,1.13-1.92,1.87-2.74l-.79-.1c2.22,4.94,5.67,9.28,10.34,12.1,4.1,2.48,8.86,3.66,13.62,3.91,2.73.14,5.45-.04,8.15-.42.63-.09.36-1.05-.27-.96Z" />
      </g>
      <g id="BallAccentColor">
        <path class="fill-accent-light stroke-0" d="m306.81,328.32c-13.58,2.37-26.35-2.32-31.73-16.19,0,0-1.95,2.81-2.81,5.74,1.34,10.38,16.83,20.35,31.24,16.32,3.05-3.66,3.3-5.86,3.3-5.86Z" />
        <path class="fill-black stroke-0" d="m306.68,327.84c-4.93.85-10.06.82-14.88-.58-4.56-1.32-8.65-3.91-11.72-7.54-1.93-2.29-3.41-4.94-4.5-7.72-.16-.41-.66-.49-.91-.12-.81,1.17-1.5,2.45-2.07,3.75-.22.49-.42.99-.59,1.5-.18.54-.21.88-.11,1.43.13.75.34,1.49.6,2.2,1.2,3.26,3.47,6.05,6.12,8.25,6.24,5.19,14.81,7.62,22.82,6.17.62-.11,1.23-.25,1.84-.41.64-.17.88-.56,1.28-1.07.69-.89,1.32-1.82,1.84-2.82.41-.79.83-1.66.93-2.55.08-.64-.93-.63-1,0,.02-.16.02-.1,0,0-.03.13-.06.25-.09.38-.13.45-.31.88-.51,1.31-.36.75-.8,1.47-1.27,2.16-.3.44-.61.88-.96,1.29-.36.43-.91.47-1.44.58-3.86.85-7.91.71-11.74-.25-6.62-1.65-13.38-5.86-16.38-12.2-.35-.75-.64-1.53-.85-2.34-.1-.4-.24-.84-.26-1.25-.02-.47.31-1.08.49-1.52.59-1.43,1.34-2.84,2.23-4.11l-.91-.12c1.93,4.93,5.03,9.32,9.39,12.39,4.08,2.86,8.97,4.34,13.92,4.68,3.02.21,6.05-.01,9.03-.52.63-.11.36-1.07-.27-.96Z" />
      </g>
      <g id="BallHighlight">
        <path class="fill-white stroke-0" d="m304.19,315.86c-.18-.01-.11.67-.09,1.03.04.49.04.67.19,1,.18.39.23.59.33,1.2.12.71.21,1.48.41,2.06.18.51.25-.28.3-.71.06-.56.08-1.12-.05-1.75-.06-.29-.15-.5-.21-.78-.06-.25-.1-.52-.17-.76s-.15-.38-.23-.57c-.08-.17-.13-.42-.49-.73Z" />
        <path class="fill-white stroke-0" d="m303.44,317.43c-.16-.02-.15.47-.15.73,0,.36,0,.48.11.73.14.29.17.43.23.88.06.52.09,1.07.24,1.5.13.38.25-.19.32-.49.1-.4.15-.8.08-1.26-.03-.21-.1-.37-.14-.57-.04-.19-.05-.38-.1-.55s-.11-.28-.17-.42c-.06-.13-.09-.31-.4-.55Z" />
      </g>
    </g>
    <g id="answer-paw-ball" class="fill-answer-paw stroke-outline round stroke-1">
      <path d="m290.61,303.81c3.42,1.24,8.75,4.25,6.36,8.87-1.37,2.65-5.09,7.7-7.83,6.35-5.07-3.19-11.15-8.91-4.05-13.69,1.54-1.03,3.62-1.87,5.52-1.53Z" />
      <path d="m292.33,347.06c-6.31-.41-14.94-1.55-14.17-9.34.48-6.69,4.09-13.52,11.15-15.04,7.88-1.52,13.45,5.65,16.55,11.83,4.3,8.73-7.14,12.16-13.53,12.55Z" />
      <path d="m271.55,327.6c-10.43.75-7.74-17.24,4.01-14.05,3.11.64,3.44,3.42,3.79,5.89,1,7.04.04,8-7.8,8.16Z" />
      <path d="m309.15,309.46c4.29-.04,7.53,3.53,7.5,8.28-.02,3.11-5.66,6.85-10.36,6.87-1.64,0-4.7-6.21-4.73-9.61-.03-3.25,3.04-5.5,7.6-5.54Z" />
    </g>
  </g>
  <g id="Mouse">
    <path id="answer-button-bg-mouse" class="fill-board-dark fill-answer-button-bg stroke-0" d="m269.71,165.14c-5.54-14.02-4.92-27.7,3.4-40.61,2.22-3.44,9.05-4.97,12.98-4.64,13.33,1.12,26.07,11.73,26.2,25.05.14,14.31-15.57,29-26.76,30.73-5.37.83-12.28-4.01-15.82-10.53Z" />
    <g id="MouseToken">
      <g id="MouseLight" class="fill-mouse-light stroke-outline miter stroke-2">
        <path d="m277.87,143.88c2.19-3.11,3.28-6.98,2.59-10.67-2.7-5.42-12.79-4.65-15.68.29-2.05,4.87-1.86,11.37,3.52,13.87,4.08.89,6.41.98,9.56-3.5Z" />
        <path d="m300.19,136.3c-1.29-3.11-2.99-7.19-.82-10.36,2.69-3.33,9.1-3.37,11.37.52,7.41,8.12-4.87,18.22-10.55,9.84Z" />
        <path d="m278.26,143.62c4.39-6.26,18.48-11.8,22.87-5.15.02,4.3-1.41,10.18-2.22,14.61-2.7,14.64-3.23,11.34-20.65-9.46Z" />
      </g>
      <g id="MouseFace">
        <ellipse class="fill-black stroke-0" cx="295.64" cy="161.92" rx="3.03" ry="2.54" transform="translate(-9.95 19.66) rotate(-3.75)" />
        <ellipse class="fill-black stroke-0" cx="288.57" cy="146.88" rx="2.2" ry="2.14" transform="translate(-8.98 19.16) rotate(-3.75)" />
        <path class="fill-white stroke-0" d="m288.7,145.37c-.79.17-.7,2.26.46,2.11.99-.34.89-2.24-.46-2.11Z" />
        <ellipse class="fill-black stroke-0" cx="296.23" cy="144.45" rx="2.2" ry="2.14" transform="translate(-8.8 19.66) rotate(-3.75)" />
        <path class="fill-white stroke-0" d="m296.36,142.94c-.79.17-.7,2.26.46,2.11.99-.34.89-2.24-.46-2.11Z" />
        <g id="MouseWhiskers" class="fill-none stroke-outline miter stroke-1">
          <line x1="290.45" y1="158.97" x2="276.63" y2="164.47" />
          <line x1="289.56" y1="157.8" x2="275" y2="160.86" />
          <line x1="298.83" y1="155.14" x2="313.31" y2="151.74" />
          <line x1="298.32" y1="156.73" x2="313.13" y2="155.39" />
        </g>
      </g>
    </g>
    <g id="answer-paw-mouse" class="fill-answer-paw stroke-outline round stroke-1">
      <path d="m290.61,121.41c3.42,1.24,8.75,4.25,6.36,8.87-1.37,2.65-5.09,7.7-7.83,6.35-5.07-3.19-11.15-8.91-4.05-13.69,1.54-1.03,3.62-1.87,5.52-1.53Z" />
      <path d="m292.33,164.66c-6.31-.41-14.94-1.55-14.17-9.34.48-6.69,4.09-13.52,11.15-15.04,7.88-1.52,13.45,5.65,16.55,11.83,4.3,8.73-7.14,12.16-13.53,12.55Z" />
      <path d="m271.55,145.19c-10.43.75-7.74-17.24,4.01-14.05,3.11.64,3.44,3.42,3.79,5.89,1,7.04.04,8-7.8,8.16Z" />
      <path d="m309.15,127.05c4.29-.04,7.53,3.53,7.5,8.28-.02,3.11-5.66,6.85-10.36,6.87-1.64,0-4.7-6.21-4.73-9.61-.03-3.25,3.04-5.5,7.6-5.54Z" />
    </g>
  </g>

</svg>