<svg xmlns="http://www.w3.org/2000/svg" viewBox="0 0 321.35 483.89">
<g id="ScoreAndTimer" font-family="Hannotate TC, sans-serif" font-size="14.69px">
    <rect class="fill-board-light stroke-0" x="58.68" y="14" width="39.31" height="26.31" rx="7.13" ry="7.13"/>
    <rect class="fill-board-light stroke-0" x="164.25" y="14" width="39.31" height="26.31" rx="7.13" ry="7.13"/>
    <rect class="fill-board-light stroke-0" x="269.81" y="14" width="39.31" height="26.31" rx="7.13" ry="7.13"/>
    <text class="fill-white" transform="translate(19.59 31.04)"><tspan x="0" y="0">Time:</tspan></text>
    <text class="fill-white" transform="translate(117.84 31.04)"><tspan x="0" y="0">Score:</tspan></text>
    <text class="fill-white" transform="translate(231.21 31.04)"><tspan x="0" y="0">Best:</tspan></text>
  </g>

  <g id="Card_placement_bounding_box">
    <rect class="fill-card-placement-bounds stroke-0" x="0" y="52.42" width="288" height="431.15"/>
  </g>

  <g id="DecorativePawsLight" class="fill-board-dark stroke-0" opacity=".6">
    <g>
      <path d="m9.7,387.44c-.38.88.29,1.23.88,1.56.37.21.8.31.96.37.95.17,1.59.16,1.74-.73.14-.82-.51-1.95-1.28-2.28-.71-.3-1.96.27-2.31,1.07Z"/>
      <path d="m13.54,385.15c.12-.25.02-1.3-.72-1.46s-1.23.74-1.22.99c.02.43.4,1.11.73,1.18.35.08,1.03-.34,1.2-.71Z"/>
      <path d="m13.3,386.55c-.06.32.37.97.7,1.07.31.09.92-.2,1.17-.58.08-.12.09-.29.05-.42-.13-.38-.59-.82-.85-.8-.4.04-1.01.41-1.07.73Z"/>
      <path d="m11.11,385.46c.1-.31-.19-.93-.55-1.19-.11-.08-.28-.11-.4-.06-.43.17-.71.7-.79,1.11-.05.26.48.91.64.87.42-.09,1-.39,1.11-.74Z"/>
    </g>
    <g>
      <path d="m4.94,379.82c.35.72.93.49,1.46.29.33-.12.63-.33.75-.4.62-.5.96-.91.49-1.49-.44-.53-1.5-.73-2.12-.43-.57.28-.89,1.37-.58,2.03Z"/>
      <path d="m5.58,376.18c-.09-.21-.81-.72-1.31-.34s-.2,1.17-.04,1.3c.28.22.91.35,1.14.18.24-.18.34-.83.21-1.14Z"/>
      <path d="m6.33,377.09c.17.21.81.3,1.05.14.22-.14.37-.69.27-1.05-.03-.11-.13-.22-.24-.26-.31-.12-.84-.07-.96.1-.19.27-.29.85-.12,1.06Z"/>
      <path d="m4.46,377.87c-.14-.23-.68-.38-1.04-.3-.11.03-.22.12-.25.22-.12.36.06.83.27,1.1.13.17.83.19.89.07.17-.31.29-.84.14-1.09Z"/>
    </g>
    <g>
      <path d="m8.66,412.98c.69,1.34,1.77.88,2.76.49.62-.24,1.17-.65,1.4-.79,1.16-.98,1.78-1.76.86-2.82-.86-.99-2.86-1.32-4.02-.72-1.07.55-1.63,2.63-1,3.85Z"/>
      <path d="m9.72,406.08c-.19-.4-1.55-1.32-2.48-.59s-.33,2.22-.02,2.45c.54.4,1.73.62,2.15.29.45-.35.61-1.57.34-2.15Z"/>
      <path d="m11.18,407.76c.32.4,1.54.53,1.99.22.42-.28.67-1.31.47-1.99-.06-.21-.25-.4-.46-.48-.59-.22-1.58-.1-1.81.23-.35.52-.51,1.62-.19,2.01Z"/>
      <path d="m7.68,409.32c-.27-.42-1.3-.7-1.98-.52-.21.05-.41.23-.47.43-.22.69.14,1.56.55,2.06.26.32,1.57.32,1.69.09.31-.59.52-1.59.21-2.06Z"/>
    </g>
    <g>
      <path d="m15.71,397.7c-1.3,1.59-.14,2.69.89,3.71.64.64,1.45,1.1,1.75,1.32,1.85.91,3.17,1.27,4-.46.77-1.61.1-4.29-1.28-5.41-1.27-1.03-4.17-.61-5.35.84Z"/>
      <path d="m24.91,395.27c.4-.45.8-2.66-.61-3.42s-2.96.79-3.07,1.31c-.2.9.16,2.5.81,2.85.68.37,2.3-.09,2.87-.74Z"/>
      <path d="m23.6,398c-.32.62.18,2.21.8,2.6.58.37,2,.13,2.74-.49.23-.19.36-.54.35-.84-.05-.86-.73-2.03-1.27-2.13-.84-.16-2.3.24-2.62.86Z"/>
      <path d="m19.75,394.48c.38-.57.16-2-.43-2.76-.18-.23-.5-.39-.79-.36-.98.11-1.87,1.02-2.27,1.81-.25.49.45,2.14.8,2.16.91.07,2.27-.21,2.69-.86Z"/>
    </g>
  </g>

  <g id="TopRightCorner">
    <path id="CornerBackgroundTopRight" class="fill-board-light stroke-0" d="m321.37,51.96h-149.12v33.3h53.98c18.35,0,33.36,15.01,33.36,33.36v.16h61.78V51.96Z"/>
    <g id="DecorativePawsTopRight" pointer-events="none" class="fill-board-dark stroke-0">
      <g>
        <path d="m185.26,67.06c1.53,1.55,2.83.45,4.02-.52.75-.61,1.33-1.41,1.59-1.7,1.17-1.85,1.69-3.21-.04-4.28-1.61-.99-4.53-.58-5.86.75-1.23,1.23-1.11,4.34.29,5.75Z"/>
        <path d="m183.71,57.06c-.43-.47-2.72-1.14-3.68.26s.51,3.21,1.04,3.39c.92.31,2.66.11,3.1-.53.47-.68.16-2.44-.46-3.12Z"/>
        <path d="m186.46,58.76c.62.41,2.35.06,2.84-.56.45-.57.36-2.1-.21-2.95-.18-.27-.53-.44-.85-.46-.91-.04-2.23.55-2.39,1.1-.26.87,0,2.46.61,2.86Z"/>
        <path d="m182.31,62.43c-.56-.46-2.1-.4-2.96.15-.26.16-.46.49-.46.8,0,1.05.87,2.09,1.66,2.6.49.32,2.31-.24,2.37-.61.17-.96.03-2.42-.61-2.94Z"/>
      </g>
      <g>
        <path d="m180.55,77.55c.86-.31.67-1,.51-1.62-.1-.39-.3-.75-.37-.9-.5-.77-.92-1.21-1.63-.73-.66.44-1.02,1.62-.75,2.36.25.68,1.46,1.18,2.24.9Z"/>
        <path d="m176.48,76.38c-.25.08-.91.83-.55,1.44s1.31.37,1.47.2c.28-.3.51-.99.34-1.27-.18-.3-.9-.49-1.27-.37Z"/>
        <path d="m177.6,75.63c.26-.17.44-.88.29-1.18-.14-.27-.74-.5-1.16-.44-.13.02-.26.12-.32.24-.18.34-.18.94,0,1.1.28.25.93.43,1.2.27Z"/>
        <path d="m178.27,77.86c-.28.13-.52.73-.46,1.15.02.13.1.26.22.32.4.18.95.03,1.28-.17.21-.13.32-.92.19-1.01-.33-.23-.92-.44-1.23-.29Z"/>
      </g>
      <g>
        <path d="m253.31,60.02c.64.65,1.18.2,1.69-.21.31-.25.56-.59.67-.71.5-.77.72-1.34,0-1.79-.67-.42-1.89-.26-2.46.3-.52.51-.48,1.82.11,2.41Z"/>
        <path d="m252.7,55.82c-.18-.2-1.14-.49-1.54.1s.2,1.35.43,1.42c.39.13,1.11.05,1.3-.22.2-.28.07-1.02-.19-1.31Z"/>
        <path d="m253.84,56.54c.26.17.99.03,1.19-.22.19-.24.16-.88-.08-1.24-.07-.11-.22-.19-.35-.19-.38-.02-.93.22-1.01.46-.11.36,0,1.03.25,1.2Z"/>
        <path d="m252.09,58.07c-.23-.2-.88-.17-1.24.06-.11.07-.2.2-.2.33,0,.44.36.88.69,1.1.21.14.97-.09,1-.25.08-.4.02-1.01-.25-1.23Z"/>
      </g>
      <g>
        <path d="m200.05,61.81c1.02.71,1.64-.04,2.21-.72.36-.42.6-.94.72-1.12.47-1.17.62-1.98-.47-2.41-1.01-.39-2.61.14-3.23,1.03-.57.82-.17,2.56.76,3.21Z"/>
        <path d="m198.13,56.33c-.29-.22-1.65-.36-2.05.53s.62,1.76.94,1.8c.55.08,1.51-.22,1.69-.63.19-.43-.16-1.39-.59-1.71Z"/>
        <path d="m199.86,57c.39.16,1.33-.21,1.54-.61.19-.37-.02-1.22-.43-1.64-.13-.13-.34-.2-.53-.17-.52.07-1.2.54-1.23.87-.06.52.26,1.39.64,1.55Z"/>
        <path d="m197.9,59.5c-.37-.2-1.23,0-1.66.39-.13.12-.21.32-.18.5.11.59.71,1.09,1.21,1.29.31.13,1.28-.37,1.28-.59,0-.56-.24-1.37-.65-1.6Z"/>
      </g>
      <g>
        <path d="m225.2,62.91c1.46-.62,1.06-1.8.73-2.87-.21-.67-.6-1.28-.73-1.54-.94-1.29-1.72-2.01-2.91-1.12-1.11.83-1.61,2.91-1.07,4.18.5,1.17,2.65,1.92,3.98,1.35Z"/>
        <path d="m218,61.27c-.43.17-1.51,1.54-.81,2.57s2.32.52,2.58.21c.46-.54.79-1.77.47-2.25-.33-.5-1.61-.77-2.24-.52Z"/>
        <path d="m219.89,59.86c.44-.31.67-1.58.39-2.08-.27-.46-1.33-.81-2.06-.65-.23.05-.44.24-.54.45-.28.61-.23,1.66.11,1.92.52.41,1.67.66,2.11.35Z"/>
        <path d="m221.26,63.67c-.47.26-.83,1.32-.69,2.05.04.22.21.45.42.53.71.28,1.65-.03,2.21-.43.35-.25.46-1.63.23-1.77-.6-.38-1.64-.67-2.16-.38Z"/>
      </g>
      <g>
        <path d="m214.45,74.35c2.5-2.03,1.08-4.1-.18-6-.78-1.19-1.88-2.17-2.27-2.59-2.56-2-4.47-2.97-6.3-.57-1.7,2.23-1.53,6.58.23,8.74,1.63,2,6.23,2.27,8.51.42Z"/>
        <path d="m199.5,75.14c-.75.57-2.08,3.83-.16,5.45s4.81-.27,5.15-1.03c.6-1.31.55-3.9-.33-4.64-.93-.79-3.57-.6-4.66.22Z"/>
        <path d="m202.4,71.35c.69-.85.44-3.46-.4-4.26-.77-.75-3.04-.84-4.37-.12-.42.22-.73.71-.8,1.18-.2,1.33.47,3.36,1.27,3.69,1.24.51,3.62.37,4.3-.48Z"/>
        <path d="m207.19,78c-.77.76-.9,3.03-.22,4.39.2.41.65.76,1.11.8,1.54.15,3.2-.98,4.08-2.06.55-.68,0-3.43-.54-3.59-1.38-.4-3.56-.4-4.42.45Z"/>
      </g>
      <g>
        <path d="m238.59,82.49c2.62,3.14,5.22,1.29,7.62-.33,1.49-1.01,2.72-2.43,3.25-2.92,2.49-3.28,3.69-5.73.61-8.01-2.86-2.11-8.38-1.82-11.09.46-2.51,2.1-2.77,7.95-.38,10.81Z"/>
        <path d="m237.31,63.53c-.73-.95-4.9-2.58-6.93-.1s.44,6.09,1.4,6.52c1.68.74,4.96.63,5.89-.5.98-1.19.7-4.54-.37-5.91Z"/>
        <path d="m242.17,67.14c1.1.86,4.4.49,5.4-.58.94-1,1.01-3.88.08-5.55-.29-.53-.91-.92-1.51-1-1.7-.23-4.26.66-4.66,1.68-.63,1.58-.4,4.6.69,5.45Z"/>
        <path d="m233.82,73.35c-.98-.96-3.87-1.08-5.57-.19-.51.27-.95.84-1,1.42-.16,1.96,1.3,4.05,2.68,5.14.87.69,4.36-.07,4.54-.76.48-1.76.44-4.53-.66-5.61Z"/>
      </g>
    </g>
    <g id="Restart_button" data-board-control="restart">
      <g id="RestartGameBackground" class="fill-board-dark stroke-0">
        <path d="m278.56,101.89c-12.24-4-18.11-10.27-15.77-16.85,2.85-8.01,15.84-15.38,22.99-13.05,8.89,2.89,16.71,16.91,14.2,25.46-2.07,7.07-8.99,8.51-21.42,4.44Z"/>
        <path d="m289.18,69.62c-5.23-1.91-10.09-6.02-3.19-12.44,3.49-3.25,9.77-1.76,12.53,2.51,3.2,4.97,2.94,14.4-9.34,9.92Z"/>
        <path d="m260.05,64.41c.31-4.66,3.4-9.57,13.63-5.7,5.18,1.96,5.76,7.35,1.69,10.63-4.72,3.81-16.06,5.99-15.32-4.94Z"/>
        <path d="m316.39,79.92c-1.64,5.62-8.11,6.66-11.25,4.64s-7.1-6.49-5.86-10.31c1.14-3.52,6.85-4.96,9.83-4.5,2.36.36,8.93,4.54,7.29,10.17Z"/>
      </g>
      <g id="RestartGameIcon" class="fill-white stroke-0">
        <path d="m273,87.67c.11.61.83,1.03,1.61.95.78-.08,1.33-.64,1.22-1.25-.5-2.84.45-5.05,2.6-6.06,2.11-.99,5.16-.72,8.18.65-.35.57-.58,1.11-.61,1.52,0,.03.02.06.05.07,1.11.53,4.16-.12,5.23-.69.06-.03.11-.09.12-.14.29-.96-.08-3.28-.98-3.97-.03-.02-.07-.03-.11-.02-.69.15-1.47.68-2.18,1.35-2.28-1.06-4.6-1.61-6.74-1.61-1.61,0-3.13.31-4.45.93-3.18,1.49-4.62,4.5-3.96,8.26Z"/>
        <path d="m292.21,86.67c-.11-.61-.83-1.03-1.61-.95-.78.08-1.33.64-1.22,1.25.5,2.84-.45,5.05-2.6,6.06-2.11.99-5.16.72-8.18-.65.35-.57.58-1.11.61-1.52,0-.03-.02-.06-.05-.07-1.11-.53-4.16.12-5.23.69-.06.03-.11.09-.12.14-.29.96.08,3.28.98,3.97.03.02.07.03.11.02.69-.15,1.47-.68,2.18-1.35,2.28,1.06,4.6,1.61,6.74,1.61,1.61,0,3.13-.31,4.45-.93,3.18-1.49,4.62-4.5,3.96-8.26Z"/>
      </g>
    </g>
  </g>
  <g id="BottomRightCorner">
    <path id="CornerBackgroundBottomRight" class="fill-board-light stroke-0" d="m259.59,417.22c0,18.35-15.01,33.36-33.36,33.36h-53.98v33.3h149.12v-67.53h-61.78v.87Z"/>
    <g id="DecorativePawsBottomRight" class="fill-board-dark stroke-0">
      <g>
        <path d="m253.3,471.49c2.6-1.54,1.55-3.66.65-5.59-.57-1.21-1.46-2.26-1.75-2.71-2.1-2.2-3.75-3.36-5.77-1.38-1.88,1.84-2.3,5.9-.96,8.14,1.24,2.07,5.47,2.95,7.84,1.54Z"/>
        <path d="m239.32,470.21c-.78.42-2.45,3.28-.88,5.04s4.5.39,4.92-.26c.73-1.14,1.04-3.54.32-4.35-.75-.85-3.23-1.04-4.36-.42Z"/>
        <path d="m242.52,467.09c.75-.7.87-3.15.21-4.01-.62-.8-2.71-1.19-4.04-.7-.42.15-.77.56-.9.99-.37,1.21-.01,3.18.68,3.59,1.08.64,3.31.83,4.06.14Z"/>
        <path d="m246.07,473.91c-.81.6-1.24,2.69-.79,4.04.13.4.5.79.92.89,1.41.35,3.1-.48,4.06-1.36.6-.56.46-3.19-.02-3.4-1.23-.55-3.25-.85-4.16-.17Z"/>
      </g>
      <g>
        <path d="m231.47,461.41c1.57-.13,1.57-1.36,1.59-2.48.01-.7-.16-1.4-.2-1.68-.48-1.52-.98-2.44-2.39-1.98-1.3.43-2.44,2.24-2.33,3.6.1,1.26,1.89,2.65,3.32,2.53Z"/>
        <path d="m225.2,457.58c-.46.02-1.91.97-1.58,2.16s2.02,1.22,2.37,1.01c.61-.36,1.3-1.42,1.16-1.97-.16-.58-1.28-1.23-1.95-1.2Z"/>
        <path d="m227.43,456.85c.52-.15,1.14-1.28,1.02-1.83-.11-.52-1-1.18-1.73-1.26-.23-.03-.49.08-.65.25-.45.48-.74,1.49-.51,1.84.36.55,1.36,1.15,1.87,1Z"/>
        <path d="m227.52,460.87c-.52.09-1.2.98-1.3,1.71-.03.22.05.49.23.63.58.49,1.57.49,2.22.3.41-.12.95-1.39.77-1.6-.45-.54-1.33-1.15-1.92-1.04Z"/>
      </g>
      <g>
        <path d="m208.54,466.32c1.17-.44.9-1.38.67-2.23-.14-.53-.43-1.03-.52-1.23-.7-1.05-1.28-1.64-2.25-.98-.9.61-1.36,2.23-.98,3.24.35.93,2.01,1.59,3.08,1.19Z"/>
        <path d="m202.94,464.78c-.35.12-1.23,1.15-.72,1.98s1.8.49,2.02.25c.38-.41.68-1.36.45-1.75-.24-.4-1.24-.66-1.74-.49Z"/>
        <path d="m204.47,463.74c.36-.23.58-1.22.37-1.62-.19-.37-1.02-.68-1.59-.58-.18.03-.36.17-.44.34-.24.47-.24,1.29.02,1.51.39.34,1.29.58,1.64.35Z"/>
        <path d="m205.42,466.77c-.37.19-.7,1.01-.61,1.59.03.17.15.36.31.43.55.24,1.3.03,1.75-.26.28-.18.42-1.26.24-1.38-.46-.31-1.26-.58-1.68-.37Z"/>
      </g>
      <g>
        <path d="m192.29,477.79c.94.5,1.39-.21,1.8-.84.26-.39.41-.86.49-1.03.27-1.04.32-1.75-.65-1.99-.9-.23-2.2.4-2.63,1.22-.39.76.12,2.19.99,2.64Z"/>
        <path d="m190.09,473.35c-.27-.16-1.44-.13-1.68.67s.71,1.43.99,1.43c.48.01,1.26-.34,1.37-.71.12-.38-.28-1.16-.68-1.39Z"/>
        <path d="m191.62,473.73c.35.1,1.11-.32,1.25-.68.13-.33-.14-1.03-.53-1.35-.12-.1-.31-.13-.46-.09-.43.11-.96.58-.96.87,0,.44.36,1.15.71,1.25Z"/>
        <path d="m190.23,476.06c-.33-.13-1.04.12-1.36.51-.1.12-.14.3-.1.44.16.49.72.85,1.16.97.28.08,1.04-.45,1.02-.64-.06-.47-.35-1.14-.72-1.29Z"/>
      </g>
      <g>
        <path d="m221.64,478.21c1.96.6,2.55-.88,3.11-2.22.35-.83.48-1.76.57-2.12.15-2.06-.01-3.41-1.93-3.53-1.78-.11-4.02,1.52-4.54,3.22-.48,1.57,1.01,4.1,2.79,4.65Z"/>
        <path d="m215.92,470.58c-.57-.2-2.76.26-2.94,1.85s1.85,2.44,2.37,2.36c.91-.15,2.25-1.09,2.34-1.82.09-.77-.95-2.1-1.77-2.39Z"/>
        <path d="m218.95,470.78c.7.06,1.98-.99,2.11-1.72.12-.67-.64-1.9-1.48-2.35-.27-.14-.63-.14-.91,0-.78.37-1.61,1.44-1.5,1.98.17.84,1.09,2.04,1.78,2.1Z"/>
        <path d="m217.13,475.67c-.67-.14-1.92.6-2.39,1.44-.14.25-.17.61-.03.87.47.87,1.65,1.35,2.53,1.43.55.05,1.81-1.22,1.7-1.56-.28-.87-1.05-2.02-1.81-2.18Z"/>
      </g>
    </g>
    <g id="Five_card_mode_button" data-board-control="five-card-mode" class="fill-board-dark stroke-0">
      <path d="m271.53,425.13c3.49-2.37,10.15-.52,12.46,1.29,2,1.56,2.61,7.01,2.7,9.17.22,5.45-2.02,5.35-5.99,7.88-3.66,2.33-8.09-2.48-11.01-5.67-2.61-2.85-3.85-8.83,1.83-12.68Z"/>
      <path d="m299.42,427.61c2.8,1.29,6.11,4.57,7.07,6.31,1.61,2.94,2.27,7.12.38,9.17-2.99,3.26-8.11,5.24-13.27,2.86-4.76-2.19-5.92-10.37-5.07-13.81.68-2.73,6.8-6.42,10.9-4.53Z"/>
      <path d="m259.33,457.66c-1.03-6.74,2.44-11.23,6.64-12.36,4.21-1.12,12.03-.33,13.06,4.26.41,1.82.29,6.07-.86,7.93-1.54,2.48-4.39,3.84-6.26,4.59-2.6,1.04-11.54,2.36-12.57-4.42Z"/>
      <path d="m312.32,465.11c-1.03,3.07-3.85,3.31-6.74,3.62-3.24.34-6.64.46-8.53-.86-3.57-2.5-4.42-9.93-3.88-13.22.7-4.28,7.11-5.53,10.58-4.86,2.74.54,10.77,8.82,8.58,15.32Z"/>
      <path d="m281.18,478.38c-3.2-.72-4.62-3.28-5.99-6.04-1.49-3.01-2.73-6.28-1.35-8.09,2.63-3.47,8.23-8.14,12.58-6.34,4.01,1.65,7.33,4.96,6.52,8.39-.64,2.72-4.75,13.67-11.76,12.09Z"/>
    </g>
  </g>
  <g id="TopLeftCorner">
    <path id="CornerBackgroundLeftTop" class="fill-board-light stroke-0" d="m28.39,118.62c0-18.35,15.01-33.36,33.36-33.36h32.56v-33.3H.02v66.82h28.38v-.16Z"/>
    <g id="DecorativePawsTopLeft" class="fill-board-dark stroke-0">
      <g>
        <path d="m14.72,100.43c1.55-1.28.64-2.56-.15-3.74-.5-.74-1.19-1.34-1.43-1.6-1.61-1.23-2.81-1.82-3.93-.31-1.04,1.4-.91,4.11.21,5.45,1.03,1.23,3.9,1.37,5.31.2Z"/>
        <path d="m5.4,101.03c-.47.36-1.27,2.41-.06,3.4s2.99-.21,3.21-.68c.36-.82.32-2.43-.24-2.89-.58-.48-2.23-.35-2.91.17Z"/>
        <path d="m7.18,98.65c.42-.54.25-2.16-.28-2.66-.49-.46-1.9-.5-2.73-.05-.26.14-.45.45-.49.74-.12.83.32,2.09.82,2.29.78.31,2.26.2,2.68-.33Z"/>
        <path d="m10.22,102.76c-.47.48-.54,1.9-.1,2.74.13.25.41.47.7.49.96.08,1.99-.63,2.53-1.31.34-.43-.03-2.14-.37-2.23-.87-.24-2.22-.22-2.75.32Z"/>
      </g>
      <g>
        <path d="m65.65,68.15c-2.49-.25-2.83,1.68-3.18,3.41-.22,1.08-.14,2.22-.16,2.67.32,2.5.85,4.08,3.17,3.75,2.15-.3,4.43-2.8,4.64-4.95.19-1.99-2.2-4.65-4.47-4.87Z"/>
        <path d="m74.34,75.87c.73.1,3.24-.98,3.06-2.92s-2.8-2.47-3.41-2.24c-1.05.4-2.43,1.85-2.35,2.74.08.94,1.64,2.28,2.69,2.42Z"/>
        <path d="m70.67,76.38c-.85.1-2.13,1.67-2.11,2.57.02.84,1.22,2.12,2.35,2.45.35.1.79,0,1.09-.21.84-.63,1.57-2.11,1.31-2.73-.4-.96-1.8-2.18-2.64-2.08Z"/>
        <path d="m71.65,70.1c.84,0,2.15-1.19,2.51-2.3.11-.34.05-.77-.17-1.04-.77-.92-2.3-1.21-3.37-1.09-.67.07-1.87,1.9-1.65,2.28.55.97,1.75,2.16,2.69,2.16Z"/>
      </g>
      <g>
        <path d="m50.44,61c-1.29.87-.69,1.93-.17,2.9.33.61.82,1.12.98,1.34,1.15,1.07,2.03,1.62,3.01.54.91-1,1.01-3.1.25-4.22-.7-1.03-2.91-1.35-4.08-.56Z"/>
        <path d="m57.68,61.24c.39-.24,1.16-1.76.3-2.62s-2.33-.07-2.52.28c-.34.61-.43,1.85-.04,2.25.41.42,1.69.44,2.26.09Z"/>
        <path d="m56.12,62.95c-.37.38-.36,1.65.01,2.07.34.39,1.43.53,2.1.24.21-.09.38-.31.44-.53.15-.63-.09-1.64-.46-1.83-.57-.3-1.73-.33-2.09.05Z"/>
        <path d="m54.09,59.54c.4-.33.56-1.42.29-2.1-.08-.2-.28-.39-.5-.43-.74-.14-1.58.34-2.05.82-.29.3-.14,1.65.11,1.75.65.25,1.7.34,2.15-.03Z"/>
      </g>
      <g>
        <path d="m66.07,56c-1.02-.51-1.48.25-1.91.93-.27.43-.42.92-.5,1.11-.27,1.11-.3,1.87.74,2.11.96.22,2.34-.47,2.78-1.35.4-.82-.18-2.34-1.11-2.8Z"/>
        <path d="m68.51,60.69c.29.16,1.54.11,1.78-.75s-.79-1.51-1.09-1.51c-.51,0-1.33.39-1.45.79-.12.41.33,1.24.75,1.47Z"/>
        <path d="m66.87,60.31c-.38-.1-1.18.36-1.31.75-.13.36.18,1.1.6,1.42.13.1.33.13.5.09.46-.13,1.01-.64,1-.95-.02-.47-.41-1.22-.78-1.31Z"/>
        <path d="m68.31,57.8c.36.14,1.11-.16,1.44-.57.1-.13.15-.32.1-.47-.18-.52-.78-.89-1.26-1.01-.3-.08-1.1.5-1.07.7.07.5.39,1.2.79,1.36Z"/>
      </g>
      <g>
        <path d="m18.66,108.95c-.17-1.12-1.06-1.06-1.86-1.02-.5.03-1,.19-1.2.23-1.07.42-1.7.83-1.3,1.82.38.91,1.73,1.64,2.71,1.49.9-.14,1.8-1.5,1.65-2.52Z"/>
        <path d="m16.23,113.65c.04.33.8,1.32,1.64,1.02s.77-1.51.6-1.76c-.29-.42-1.09-.86-1.48-.73-.4.14-.82.98-.76,1.46Z"/>
        <path d="m15.6,112.09c-.14-.36-.98-.75-1.37-.64-.37.1-.8.78-.82,1.31,0,.17.09.35.22.45.37.3,1.11.45,1.35.27.38-.29.76-1.04.62-1.4Z"/>
        <path d="m18.48,111.81c.1.37.77.81,1.3.85.16.01.35-.06.44-.19.32-.44.27-1.15.1-1.61-.11-.29-1.05-.61-1.19-.47-.37.35-.76,1.02-.65,1.43Z"/>
      </g>
      <g>
        <path d="m76.46,56.92c-.86.2-.76.88-.68,1.5.05.39.2.76.24.91.39.8.74,1.27,1.48.9.69-.34,1.17-1.44,1-2.18-.16-.69-1.26-1.31-2.05-1.14Z"/>
        <path d="m80.24,58.54c.25-.05.98-.69.7-1.33s-1.22-.51-1.4-.37c-.31.25-.61.89-.48,1.18.13.31.81.58,1.18.51Z"/>
        <path d="m79.06,59.12c-.27.13-.53.8-.42,1.1.1.28.65.57,1.06.56.13,0,.27-.09.34-.19.21-.3.29-.89.13-1.06-.24-.28-.85-.53-1.12-.4Z"/>
        <path d="m78.69,56.9c.28-.09.59-.64.58-1.06,0-.13-.07-.27-.18-.33-.36-.22-.91-.15-1.25.01-.22.1-.41.85-.3.95.29.27.83.53,1.15.42Z"/>
      </g>
      <g>
        <path d="m86.85,59.03c-.57-.5-1-.08-1.39.29-.24.23-.42.53-.51.63-.36.68-.5,1.16.13,1.48.59.3,1.59.08,2.02-.41.4-.46.27-1.54-.25-1.99Z"/>
        <path d="m87.65,62.47c.16.15.98.33,1.27-.19s-.26-1.1-.45-1.15c-.33-.08-.93.03-1.06.27-.14.25,0,.85.24,1.07Z"/>
        <path d="m86.65,61.95c-.23-.12-.82.04-.97.27-.14.21-.07.74.15,1.02.07.09.19.14.31.14.32,0,.76-.25.8-.45.07-.31-.06-.85-.29-.98Z"/>
        <path d="m88,60.57c.21.15.74.08,1.03-.13.09-.06.15-.18.14-.29-.03-.36-.36-.7-.65-.86-.18-.1-.8.14-.81.27-.03.34.06.84.29,1.01Z"/>
      </g>
      <g>
        <path d="m9.28,115.76c.61-.45.3-.95.02-1.41-.17-.29-.42-.53-.51-.63-.58-.5-1.02-.75-1.48-.2-.42.51-.43,1.53-.04,2.06.36.49,1.44.6,2,.19Z"/>
        <path d="m5.75,115.79c-.18.13-.53.88-.1,1.28s1.13-.01,1.22-.19c.16-.3.17-.91-.03-1.1-.21-.19-.83-.18-1.1,0Z"/>
        <path d="m6.48,114.93c.17-.19.14-.81-.05-1.01-.17-.18-.71-.23-1.03-.08-.1.05-.18.16-.2.27-.06.31.08.8.26.88.29.13.85.13,1.02-.07Z"/>
        <path d="m7.53,116.55c-.19.17-.24.7-.1,1.03.04.1.15.18.25.2.36.05.76-.2.98-.44.14-.15.04-.81-.09-.85-.32-.11-.83-.13-1.05.06Z"/>
      </g>
    </g>
    <g id="Review_previous" data-board-control="previous">
      <g id="ReviewPreviousBackground" class="fill-board-dark stroke-0">
        <path d="m18.48,92.82c2.25,4.42,8.35,4.45,16.38.08,8.15-4.44,10.79-8.71,8.15-13.22-3.19-5.46-14.24-8.26-20.06-5.08-4.69,2.56-7.21,12.85-4.47,18.23Z"/>
        <path d="m11.46,66.67c-.06,7.58,5.03,7.01,9.04,5,9.4-4.71,4.03-10.07-.64-10.94-4.02-.75-8.36,2.1-8.39,5.94Z"/>
        <path d="m8.8,75.14c-6.34,3.07-5.4,6.69-3.36,8.9,4.79,5.18,8.78-1.09,9.09-4.99.26-3.36-2.52-5.47-5.73-3.91Z"/>
        <path d="m31.97,59.99c-1.92,1.49-4.23,4.66-2.79,7.29,1.56,2.84,6.4,3,9.31,2.28,1.18-.29,3.63-2.5,3.8-3.98.32-2.72-1.47-5.34-3.89-6.6-1.59-.83-5.75.48-6.43,1.02Z"/>
      </g>
      <path  id="review-previous-arrow" class="fill-white stroke-0" d="m39.31,83.78c.2.58-.22,1.31-.95,1.62-.73.31-1.48.09-1.68-.5-.95-2.73-2.85-4.19-5.22-4.02-2.32.17-4.86,1.88-6.82,4.56.58.33,1.05.69,1.27,1.03.01.02.01.06,0,.09-.71,1.01-3.69,1.93-4.91,1.95-.06,0-.14-.03-.18-.06-.72-.7-1.53-2.91-1.08-3.95.01-.03.05-.06.09-.07.67-.2,1.61-.12,2.56.12,1.48-2.04,3.23-3.64,5.1-4.69,1.41-.79,2.88-1.26,4.34-1.36,3.5-.25,6.23,1.68,7.48,5.29Z"/>
    </g>
  </g>
  <g id="BottomLeftCorner">
    <path id="CornerBackgroundLeftBottom" class="fill-board-light stroke-0" d="m28.39,417.22v-.87H.02v67.53h94.3v-33.3h-32.56c-18.35,0-33.36-15.01-33.36-33.36Z"/>
    <g id="Rules" data-board-control="rules">
      <g id="GameInfoBackground" class="fill-board-dark stroke-0">
        <path d="m27.64,457.94c-6.97.04-11.03,5.14-11.29,14.17-.17,5.9,2.34,8.46,8.3,8.49,7.96.03,17.18-5.47,17.47-10.42.29-5.06-8.24-12.27-14.48-12.24Z"/>
        <path d="m24.88,454.62c2.13-1.59,1.71-6.46,1.33-9.14-.16-1.14-5.59-3.04-7.14-2.12-2.34,1.38-5.33,5.94-4.59,7.37,1.1,2.14,3.22,3.75,5.38,5.34,1.88.32,3.49-.3,5.02-1.44Z"/>
        <path d="m36.56,457.36c1.58.2,4.47-2.57,5.2-4.56,1.36-3.73-2.65-9.93-5.93-9.31-2.6.49-5.43,2.55-6.01,3.9-2.27,5.23,2.82,9.47,6.75,9.97Z"/>
        <path d="m10.94,466.1c4.08.68,5.86-4.16,5.51-6.91-.3-2.37-3.26-4.53-5.65-5.32-1.05-.35-6.62,1.51-7.05,5.98-.46,4.77,4.78,5.85,7.19,6.25Z"/>
      </g>
      <g id="GameInfoIcon" class="fill-white stroke-0">
        <path d="m30.61,462.98c-1.22-2.68-6.05-2.26-7.76-.19-1.52,1.84-1.25,4.71.28,4.85.47.04,1.51-.28,1.03-1.16-2.18-4.01,6.18-4.88,5.27-.26-.34,1.75-2.71,2.41-2.86,4.28-.09,1.09.52,2.95,1.74,2.12.73-.68-.53-2.21.09-2.76,1.65-1.46,4.02-2.9,2.21-6.87Z"/>
        <path d="m28.46,473.81c-1.19,1.17.55,2.92,1.65,1.67,1.23-1.08-.48-2.82-1.65-1.67Z"/>
      </g>
    </g>
    <g id="DecorativePawsBottomLeft" class="fill-board-dark stroke-0">
      <g>
        <path d="m49.01,470.28c-2.36,1.4-1.41,3.33-.59,5.09.51,1.1,1.32,2.06,1.6,2.47,1.91,2,3.41,3.05,5.25,1.25,1.71-1.67,2.1-5.36.87-7.41-1.13-1.89-4.98-2.68-7.13-1.4Z"/>
        <path d="m61.73,471.45c.71-.39,2.23-2.98.8-4.58s-4.09-.36-4.47.24c-.67,1.04-.94,3.22-.29,3.96.69.78,2.94.94,3.96.38Z"/>
        <path d="m58.82,474.29c-.69.64-.79,2.86-.19,3.65.56.73,2.46,1.08,3.68.64.38-.14.7-.51.82-.9.33-1.1.01-2.89-.62-3.27-.98-.58-3.01-.75-3.69-.12Z"/>
        <path d="m55.59,468.09c.74-.55,1.13-2.45.72-3.68-.12-.37-.46-.72-.84-.81-1.28-.32-2.82.43-3.69,1.24-.55.51-.41,2.9.02,3.09,1.12.5,2.96.77,3.79.16Z"/>
      </g>
      <g>
        <path d="m6.62,442.03c.67,1.88,2.18,1.47,3.55,1.12.85-.21,1.65-.66,1.98-.8,1.69-1.09,2.65-2.01,1.62-3.57-.95-1.45-3.53-2.24-5.16-1.65-1.5.54-2.6,3.18-1.99,4.89Z"/>
        <path d="m9.22,433.12c-.18-.56-1.82-2-3.16-1.21s-.82,2.87-.45,3.22c.65.62,2.17,1.12,2.78.76.65-.38,1.08-1.96.82-2.77Z"/>
        <path d="m10.84,435.59c.36.58,1.93.96,2.58.64.6-.3,1.11-1.61.97-2.53-.05-.29-.26-.57-.53-.71-.74-.39-2.06-.41-2.42-.01-.55.62-.95,2.04-.6,2.61Z"/>
        <path d="m5.97,437.04c-.29-.6-1.59-1.14-2.52-1.02-.28.04-.58.23-.69.48-.4.87-.08,2.07.37,2.81.28.46,2.01.7,2.21.41.52-.73.96-2,.64-2.68Z"/>
      </g>
      <g>
        <path d="m65.6,459.11c-1.36.81-.81,1.91-.34,2.93.3.63.76,1.18.92,1.42,1.1,1.15,1.96,1.76,3.02.72.98-.96,1.21-3.09.5-4.26-.65-1.08-2.86-1.54-4.1-.81Z"/>
        <path d="m72.92,459.78c.41-.22,1.28-1.71.46-2.64s-2.35-.21-2.57.14c-.38.6-.54,1.85-.17,2.28.39.45,1.69.54,2.28.22Z"/>
        <path d="m71.24,461.42c-.39.37-.46,1.65-.11,2.1.32.42,1.42.62,2.11.37.22-.08.41-.29.47-.52.19-.63,0-1.66-.36-1.88-.56-.34-1.73-.43-2.12-.07Z"/>
        <path d="m69.39,457.85c.43-.31.65-1.41.41-2.11-.07-.21-.26-.41-.48-.47-.74-.18-1.62.25-2.12.71-.31.29-.24,1.67.01,1.78.64.29,1.7.44,2.18.09Z"/>
      </g>
      <g>
        <path d="m76.33,472.51c-1.01-.6-1.54.15-2.03.82-.31.42-.5.92-.6,1.11-.36,1.13-.45,1.91.61,2.23.98.3,2.45-.31,2.96-1.19.48-.81-.01-2.42-.94-2.97Z"/>
        <path d="m78.5,477.53c.29.19,1.58.23,1.89-.64s-.7-1.61-1.01-1.63c-.53-.04-1.4.31-1.55.7-.15.42.25,1.3.67,1.57Z"/>
        <path d="m76.84,477.02c-.38-.13-1.24.29-1.41.68-.16.36.1,1.15.51,1.51.13.12.34.16.51.13.48-.1,1.09-.59,1.1-.9.02-.49-.33-1.29-.71-1.41Z"/>
        <path d="m78.51,474.53c.36.17,1.15-.08,1.53-.48.11-.12.18-.32.13-.48-.14-.55-.74-.97-1.22-1.14-.3-.1-1.17.44-1.16.64.04.52.32,1.27.72,1.46Z"/>
      </g>
      <g>
        <path d="m81.79,461.04c-.7.35-.47.92-.27,1.44.12.32.34.61.4.73.5.61.91.94,1.47.46.52-.44.7-1.49.4-2.09-.28-.56-1.36-.86-2-.54Z"/>
        <path d="m85.39,461.63c.21-.1.69-.8.32-1.29s-1.16-.18-1.28-.02c-.21.28-.33.9-.16,1.12.18.23.82.33,1.12.19Z"/>
        <path d="m84.5,462.38c-.21.17-.28.8-.13,1.03.15.22.68.36,1.03.26.11-.03.21-.13.25-.24.12-.31.06-.82-.11-.94-.27-.19-.84-.27-1.05-.11Z"/>
        <path d="m83.71,460.55c.22-.14.37-.68.28-1.03-.03-.11-.12-.21-.22-.25-.36-.12-.81.07-1.08.28-.17.13-.18.82-.06.88.31.17.83.28,1.08.12Z"/>
      </g>
      <g>
        <path d="m89.52,466.95c-.78-.08-.89.52-1,1.07-.07.34-.05.7-.05.84.1.78.26,1.28.99,1.18.67-.09,1.39-.88,1.46-1.55.06-.62-.69-1.46-1.4-1.53Z"/>
        <path d="m92.24,469.37c.23.03,1.02-.31.96-.92s-.88-.78-1.07-.7c-.33.12-.76.58-.74.86.03.29.51.71.84.76Z"/>
        <path d="m91.09,469.53c-.27.03-.67.52-.66.81,0,.26.38.67.73.77.11.03.25,0,.34-.07.26-.2.49-.66.41-.86-.13-.3-.56-.68-.83-.65Z"/>
        <path d="m91.4,467.56c.26,0,.67-.37.79-.72.03-.11.02-.24-.05-.33-.24-.29-.72-.38-1.06-.34-.21.02-.59.59-.52.71.17.31.55.68.84.68Z"/>
      </g>
      <g>
        <path d="m13.64,422.31c-1.08.92-.43,1.82.14,2.64.36.52.85.93,1.03,1.12,1.15.85,2,1.26,2.78.18.72-1,.6-2.92-.2-3.85-.74-.86-2.77-.93-3.76-.09Z"/>
        <path d="m20.23,421.8c.33-.26.88-1.71.01-2.41s-2.12.17-2.26.51c-.25.59-.2,1.72.2,2.04.42.34,1.58.23,2.05-.15Z"/>
        <path d="m18.99,423.51c-.29.38-.16,1.53.22,1.88.35.32,1.35.34,1.93,0,.18-.1.31-.32.34-.53.07-.59-.25-1.48-.6-1.61-.55-.21-1.6-.12-1.89.26Z"/>
        <path d="m16.8,420.62c.33-.34.36-1.35.05-1.94-.09-.18-.3-.33-.5-.34-.68-.05-1.4.47-1.78.95-.24.31.04,1.51.28,1.58.61.16,1.57.14,1.94-.25Z"/>
      </g>
    </g>
  </g>

    
  <g id="Cat">
    <path id="answer-button-bg-cat" class="fill-board-dark fill-answer-button-bg stroke-0" d="m280.4,181.85c14.99,1.58,26.84,8.45,34.43,21.8,2.02,3.56.22,10.32-1.89,13.65-7.16,11.3-22.46,17.69-34.33,11.64-12.75-6.5-18.51-27.22-14.86-37.94,1.75-5.15,9.24-9.03,16.65-9.15Z"/>
    <g id="CatToken">
      <g id="CatShade" class="fill-cat-shade stroke-outline round stroke-2">
        <path d="m307.06,197.41c.72-8.75,1.55-18.25,1.55-18.25,0,0-6.73,6.23-10.64,9.96l9.09,8.29Z"/>
        <polygon points="272.88 196.46 271.46 179.07 282.1 189.03 272.88 196.46 272.88 196.46"/>
      </g>
      <path id="CatLight" class="fill-cat-light stroke-outline miter stroke-2" d="m308.62,205.02c0,9.93-7.48,17.98-18.33,17.98s-19.65-8.05-19.65-17.98,8.8-17.98,19.65-17.98,18.33,8.05,18.33,17.98Z"/>
      <g id="CatFace">
        <g id="CatEyeRight">
          <path id="EyeAccentLightRight" class="fill-accent-light stroke-0" d="m296.71,198.28c-7.88.52-3.98,9.27,1.99,6.64,2.57-1.02,3.17-7-1.99-6.64Z"/>
          <path id="EyeAccentShadeRight" class="fill-accent-shade stroke-0" d="m293.36,198.96c-1.1.1-1.31,5.23.05,5.77,1.53.73,5.56.95,6.21-.42.12-.43-4.03-1.65-4.14-2.06-.1-.36-.82-3.42-2.12-3.3Z"/>
          <path class="fill-black stroke-0" d="m296.06,200.82c-.79.1-1.13,2.02-.16,2.57.18.1.35.17.56.15.27-.03.43-.25.61-.42.31-.31.34-.8.26-1.21-.07-.36-.34-1.21-1.28-1.09Z"/>
          <circle class="fill-white stroke-0" cx="298.02" cy="199.57" r="1.27"/>
          <path class="fill-black stroke-0" d="m296.26,206.1c-2.63,0-4.53-1.73-4.53-4.11,0-2.61,2.5-4.02,4.86-4.02,2.56,0,4.21,1.58,4.21,4.02s-1.91,4.11-4.54,4.11Zm.33-7.25c-1.98,0-3.98,1.08-3.98,3.14,0,1.9,1.5,3.23,3.65,3.23s3.67-1.33,3.67-3.23-1.25-3.14-3.34-3.14Z"/>
        </g>
        <g id="CatEyeLeft">
          <path id="EyeAccentLightLeft" class="fill-accent-light stroke-0" d="m281.63,198.28c-7.88.52-3.98,9.27,1.99,6.64,2.57-1.02,3.17-7-1.99-6.64Z"/>
          <path id="EyeAccentShadeLeft" class="fill-accent-shade stroke-0" d="m278.28,198.96c-1.1.1-1.31,5.23.05,5.77,1.53.73,5.56.95,6.21-.42.12-.43-4.03-1.65-4.14-2.06-.1-.36-.82-3.42-2.12-3.3Z"/>
          <path class="fill-black stroke-0" d="m280.95,200.37c-.79.1-1.13,2.02-.16,2.57.18.1.35.17.56.15.27-.03.43-.25.61-.42.31-.31.34-.8.26-1.21-.07-.36-.34-1.21-1.28-1.09Z"/>
          <circle class="fill-white stroke-0" cx="283.62" cy="199.31" r="1.27"/>
          <path class="fill-black stroke-0" d="m281.43,205.78c-2.74,0-4.72-1.8-4.72-4.28,0-2.66,2.78-3.87,5.36-3.87s4.09,1.34,4.09,3.87-1.99,4.28-4.72,4.28Zm.63-7.28c-2.16,0-4.48.94-4.48,2.99s1.58,3.41,3.85,3.41,3.85-1.4,3.85-3.41-1.02-2.99-3.21-2.99Z"/>
        </g>
        <g id="Whiskers" class="fill-none stroke-outline miter stroke-1">
          <line x1="262.05" y1="217.48" x2="278.98" y2="210.16"/>
          <line x1="262.93" y1="223.64" x2="278.1" y2="213.22"/>
          <line x1="270.17" y1="227.38" x2="279.91" y2="214.19"/>
          <line x1="308.52" y1="224.77" x2="295.95" y2="214.94"/>
          <line x1="313.02" y1="220.61" x2="298.12" y2="212.92"/>
          <line x1="315.74" y1="214.29" x2="298.19" y2="210.82"/>
        </g>
        <ellipse id="CatShadeNose" class="fill-cat-shade stroke-outline miter stroke-1" cx="288.5" cy="210.73" rx="3.05" ry="2.56"/>
        <path id="CatSmile" class="fill-black stroke-0" d="m293.66,217.47c.34-.49-.2-1.07-.64-.44-.87,1.23-2.04,1.47-3.19.7-1.28-.95-1.07-2.73-1.19-4.14,0-.56-.88-.57-.88,0,.02,1.38-.02,2.96-.89,4.1-.98.99-2.4.36-3.03-.72-.4-.67-1.39-.5-.55.79,1.24,1.91,4.44,1.58,4.93-.78,1.07,2.44,3.92,2.74,5.45.49Z"/>
      </g>
    </g>
    <g id="answer-paw-cat" class="fill-answer-paw stroke-outline round stroke-1">
      <path d="m290.61,182.21c3.42,1.24,8.75,4.25,6.36,8.87-1.37,2.65-5.09,7.7-7.83,6.35-5.07-3.19-11.15-8.91-4.05-13.69,1.54-1.03,3.62-1.87,5.52-1.53Z"/>
      <path d="m292.33,225.46c-6.31-.41-14.94-1.55-14.17-9.34.48-6.69,4.09-13.52,11.15-15.04,7.88-1.52,13.45,5.65,16.55,11.83,4.3,8.73-7.14,12.16-13.53,12.55Z"/>
      <path d="m271.55,205.99c-10.43.75-7.74-17.24,4.01-14.05,3.11.64,3.44,3.42,3.79,5.89,1,7.04.04,8-7.8,8.16Z"/>
      <path d="m309.15,187.86c4.29-.04,7.53,3.53,7.5,8.28-.02,3.11-5.66,6.85-10.36,6.87-1.64,0-4.7-6.21-4.73-9.61-.03-3.25,3.04-5.5,7.6-5.54Z"/>
    </g>
  </g>
  <g id="Pillow">
    <path id="answer-button-bg-pillow" class="fill-board-dark fill-answer-button-bg stroke-0" d="m276.19,408.26c-9.26-11.89-12.53-25.2-8.18-39.92,1.16-3.92,7.28-7.32,11.15-8.11,13.11-2.68,28.32,3.91,32.2,16.66,4.16,13.69-6.77,32.21-17.02,37.03-4.92,2.31-12.92-.39-18.14-5.65Z"/>
    <g id="PillowToken">
      <g id="PillowLight" class="fill-pillow-light stroke-outline">
        <rect id="PillowLightBase" class="miter stroke-2" x="271.41" y="365.21" width="36.38" height="36.38" rx="3.6" ry="3.6" transform="translate(114.85 -64.18) rotate(15.74)"/>
        <g id="PillowPompoms" class="stroke-1">
          <path d="m302.55,412.95c.29-.73.41-.24.5.23.56-1.91,1.42-4.92-.65-6.18.33-.03.65-.23.79-.58-.03-.3-.14-.59-.3-.84-.94-1.05-2.09-.27-1.2,1.16.15.15.34.23.53.25-1.64,1.43-.49,3.97-1.27,5.71.19,0,.41.08.59,0,.22-.12.41-.02.55.15.19-.3.32-.13.47.09Z"/>
          <path d="m267,397.07c1.21-1.16.3-2.2-.88-1.42-.22.2-.4.46-.5.74.05.37.3.65.62.76-2.32.71-2.23,3.83-2.16,5.83.2-.44.43-.88.54-.1.2-.18.37-.31.48.03.18-.13.39-.19.57-.01.15.12.39.11.57.15-.32-1.88,1.42-4.05.2-5.85.19.02.38,0,.57-.11Z"/>
          <path d="m277.19,359.89c-.21-.03-.4.02-.57.11.44-2.13-2.01-3.46-2.43-5.32-.15.11-.37.19-.47.36-.1.23-.32.26-.53.21.03.36-.18.3-.43.21.2.76-.18.44-.54.11.7,1.87,1.83,4.79,4.24,4.55-.25.22-.38.58-.28.94.2.22.47.38.75.49,1.38.27,1.83-1.04.26-1.65Z"/>
          <path d="m317.32,366.42c-.13-.13-.25-.34-.43-.4-.24-.06-.31-.27-.3-.49-.35.09-.33-.12-.28-.39-.71.33-.47-.1-.2-.51-1.72,1.02-4.4,2.63-3.74,4.97-.26-.21-.63-.27-.97-.11-.18.24-.3.53-.35.82-.02,1.41,1.35,1.62,1.67-.03-.01-.21-.09-.39-.21-.54,2.17.06,3.06-2.58,4.82-3.32Z"/>
        </g>
      </g>
      <g id="PillowShade" class="fill-pillow-shade stroke-0">
        <path d="m284.83,372.42s0-.08,0-.11c2.71-1.76,1.72-2.51-.24-.74-.09-.15-.21-.28-.35-.39.22-1.94.58-2.81-.86-.32-.08,0-.16,0-.25,0-1.21-2.69-2.09-2.23-.72.28-.09.06-.17.13-.24.21-2.67-.64-2.6.51-.4,1.08,0,.1.01.19.03.28-.52.19-1,.59-1.24,1.14-.54,1.23,1.03.25,1.77-.27.12.09.25.16.39.22-.56,2.59.37,1.59.74.11.14-.02.27-.05.4-.1,1.49,1.73,2.39,1.54.64-.48.04-.06.08-.12.11-.18,2.55.4,2.4,0,.2-.73Z"/>
        <path d="m279.88,388.89c-.07-.17-.18-.33-.31-.46.51-1.85.98-2.62-.79-.43-.09-.02-.18-.03-.27-.03-.78-2.8-1.7-2.48-.75.17-.1.05-.2.11-.28.19-2.54-1.03-2.63.12-.53,1.02,0,.09,0,.18,0,.27-.55.1-1.1.43-1.42.94-.74,1.15,1.03.38,1.83-.01.1.1.21.19.33.27,0,0,0,.02-.01.03-.96,2.5.14,1.63.73.19.13,0,.26,0,.38-.03,1.21,1.96,2.15,1.92.72-.36.05-.05.1-.1.15-.15,2.45.78,2.37.37.33-.69,0-.04.02-.09.02-.13,2.91-1.31,2.06-2.2-.12-.78Z"/>
        <path d="m302.23,377c-.01-.07-.03-.13-.05-.2,2.18-2.2,1.09-2.7-.43-.64-.13-.12-.28-.21-.46-.28-.18-1.95,0-2.87-.92-.07-.06.01-.12.03-.18.05-1.78-2.47-2.56-1.81-.63.44-.05.06-.1.13-.14.2-2.9-.11-2.57,1.05-.19,1.14.02.08.04.15.07.23-.5.28-.92.8-1.05,1.4-.28,1.33,1.09.01,1.7-.65.11.07.23.12.36.16.02,0,.03,0,.05,0-.02,2.6.67,1.5.74,0,.16-.04.3-.1.44-.19,1.74,1.31,2.55.96.55-.59.04-.08.08-.17.1-.26,2.43-.13,2.21-.48.03-.74Z"/>
        <path d="m297.44,394.48c0-.08,0-.16,0-.24,2.52-1.67,1.59-2.37-.28-.73-.11-.16-.26-.29-.43-.4.22-1.89.55-2.69-.86-.24-.08,0-.16,0-.24.02-1.22-2.73-2.11-2.24-.7.32-.06.05-.12.11-.18.18-2.82-.7-2.72.52-.37,1.09,0,.07.01.14.03.21-.57.17-1.1.59-1.36,1.17-.56,1.27,1.14.18,1.85-.32.1.09.21.17.33.23,0,.01,0,.03-.01.04-.56,2.6.37,1.6.74.11.15,0,.29-.02.43-.07,1.45,1.67,2.33,1.5.67-.45.06-.07.12-.15.17-.23,2.39.36,2.26-.01.22-.71Z"/>
      </g>
    </g>
    <g id="answer-paw-pillow" class="fill-answer-paw stroke-outline round stroke-1">
      <path d="m290.61,364.62c3.42,1.24,8.75,4.25,6.36,8.87-1.37,2.65-5.09,7.7-7.83,6.35-5.07-3.19-11.15-8.91-4.05-13.69,1.54-1.03,3.62-1.87,5.52-1.53Z"/>
      <path d="m292.33,407.86c-6.31-.41-14.94-1.55-14.17-9.34.48-6.69,4.09-13.52,11.15-15.04,7.88-1.52,13.45,5.65,16.55,11.83,4.3,8.73-7.14,12.16-13.53,12.55Z"/>
      <path d="m271.55,388.4c-10.43.75-7.74-17.24,4.01-14.05,3.11.64,3.44,3.42,3.79,5.89,1,7.04.04,8-7.8,8.16Z"/>
      <path d="m309.15,370.26c4.29-.04,7.53,3.53,7.5,8.28-.02,3.11-5.66,6.85-10.36,6.87-1.64,0-4.7-6.21-4.73-9.61-.03-3.25,3.04-5.5,7.6-5.54Z"/>
    </g>
  </g>
  <g id="Cheese">
    <path id="answer-button-bg-cheese" class="fill-board-dark fill-answer-button-bg stroke-0" d="m264.51,275.71c1.47-15,8.26-26.9,21.55-34.59,3.54-2.05,10.32-.3,13.67,1.79,11.35,7.08,17.85,22.33,11.89,34.25-6.4,12.79-27.08,18.7-37.84,15.14-5.16-1.71-9.1-9.18-9.27-16.59Z"/>
    <g id="CheeseToken">
      <path id="CheeseShade" class="fill-cheese-shade stroke-outline miter stroke-2" d="m311.37,251.81c-.53,0-39.7,11.42-40.05,11.59-.35.18-.72,19.65,0,20.38.2.2,5.5-1.23,12.12-3.13.01-.26.06-.53.17-.8.24-.56.98-.99,1.52-.98.64,0,1.19-.09,1.69.44.09.09.14.2.17.32,10.58-3.08,22.68-6.79,22.98-7.09.53-.53,1.93-20.73,1.41-20.73Z"/>
      <polygon id="CheeseLight" class="fill-cheese-light stroke-outline round stroke-2" points="271.38 263.22 289.71 245.12 311.12 251.75 271.38 263.22"/>
      <g id="CheeseHoles" class="fill-black stroke-0">
        <path d="m292.73,250.37c-1.05.18-1.3.87-1.24,1.15.1.93,1.77.95,3.17.87,3.27-.12,3.26-3.03-1.93-2.02Z"/>
        <path d="m294.6,266.74c-1.03.94-1.5,4.12.97,4.22,4.8.98,3.73-7.97-.97-4.22Z"/>
        <path d="m279.77,266.27c-3.37.09-4.41,5.35-.49,5.62,4.13,1.38,5.24-6.53.49-5.62Z"/>
        <path d="m283.53,256.09c-1.07.91-.36,1.76.88,1.3,2.64-1.27.98-2.31-.88-1.3Z"/>
        <path d="m303.8,255.68c-1.27-.13-2.77.74-2.96,1.46-1.15,6.69,10.82-.09,2.96-1.46Z"/>
      </g>
    </g>
    <g id="answer-paw-cheese" class="fill-answer-paw stroke-outline round stroke-1">
      <path d="m292.33,286.26c-6.31-.41-14.94-1.55-14.17-9.34.48-6.69,4.09-13.52,11.15-15.04,7.88-1.52,13.45,5.65,16.55,11.83,4.3,8.73-7.14,12.16-13.53,12.55Z"/>
      <path d="m271.55,266.79c-10.43.75-7.74-17.24,4.01-14.05,3.11.64,3.44,3.42,3.79,5.89,1,7.04.04,8-7.8,8.16Z"/>
      <path d="m309.15,248.66c4.29-.04,7.53,3.53,7.5,8.28-.02,3.11-5.66,6.85-10.36,6.87-1.64,0-4.7-6.21-4.73-9.61-.03-3.25,3.04-5.5,7.6-5.54Z"/>
      <path d="m290.61,243.01c3.42,1.24,8.75,4.25,6.36,8.87-1.37,2.65-5.09,7.7-7.83,6.35-5.07-3.19-11.15-8.91-4.05-13.69,1.54-1.03,3.62-1.87,5.52-1.53Z"/>
    </g>
  </g>
  <g id="Ball">
    <path id="answer-button-bg-ball" class="fill-board-dark fill-answer-button-bg stroke-0" d="m280.99,301.72c14.94,1.99,26.59,9.19,33.81,22.74,1.92,3.61-.06,10.32-2.27,13.6-7.47,11.1-22.94,17.06-34.64,10.68-12.56-6.85-17.75-27.72-13.81-38.34,1.89-5.1,9.49-8.77,16.9-8.68Z"/>
    <g id="BallToken">
      <circle id="BallLight" class="fill-ball-light stroke-outline miter stroke-2" cx="289.98" cy="322.38" r="18.32"/>
      <g id="BallShade">
        <path class="fill-ball-shade stroke-0" d="m307.7,326.23c-11.93,1.7-25.16-1.04-31.55-15.36,0,0-3.63,3.94-4.15,9.86,1.33,10.31,17.13,18.79,30.52,15.26,4.57-5.09,5.19-9.76,5.19-9.76Z"/>
        <path class="fill-black stroke-0" d="m307.56,325.75c-9.25,1.3-19.24-.3-25.91-7.35-2.15-2.27-3.8-4.94-5.08-7.78-.13-.29-.58-.32-.79-.1-2.18,2.38-3.61,5.7-4.12,8.84-.09.53-.22,1.11-.14,1.64.07.5.18.99.31,1.48.24.87.59,1.72,1,2.53.89,1.75,2.14,3.32,3.55,4.68,6.59,6.35,16.95,9.04,25.81,6.89.38-.09.57-.14.83-.42.29-.32.57-.66.84-1,.5-.63.98-1.28,1.41-1.95.71-1.08,1.32-2.23,1.83-3.42.46-1.08.91-2.25,1.07-3.42.09-.63-.88-.9-.96-.27-.11.84-.39,1.68-.69,2.47-.79,2.12-1.97,4.11-3.37,5.88-.22.28-.44.56-.68.82s-.37.31-.72.39c-.56.13-1.13.24-1.7.34-1.15.19-2.32.28-3.49.3-2.25.04-4.49-.2-6.68-.69-4.15-.94-8.19-2.75-11.48-5.46-2.8-2.3-5.19-5.36-5.85-9.01-.22-1.25.29-2.78.67-3.97.36-1.12.83-2.19,1.4-3.22.53-.96,1.13-1.92,1.87-2.74l-.79-.1c2.22,4.94,5.67,9.28,10.34,12.1,4.1,2.48,8.86,3.66,13.62,3.91,2.73.14,5.45-.04,8.15-.42.63-.09.36-1.05-.27-.96Z"/>
      </g>
      <g id="BallAccentColor">
        <path class="fill-accent-light stroke-0" d="m306.81,328.32c-13.58,2.37-26.35-2.32-31.73-16.19,0,0-1.95,2.81-2.81,5.74,1.34,10.38,16.83,20.35,31.24,16.32,3.05-3.66,3.3-5.86,3.3-5.86Z"/>
        <path class="fill-black stroke-0" d="m306.68,327.84c-4.93.85-10.06.82-14.88-.58-4.56-1.32-8.65-3.91-11.72-7.54-1.93-2.29-3.41-4.94-4.5-7.72-.16-.41-.66-.49-.91-.12-.81,1.17-1.5,2.45-2.07,3.75-.22.49-.42.99-.59,1.5-.18.54-.21.88-.11,1.43.13.75.34,1.49.6,2.2,1.2,3.26,3.47,6.05,6.12,8.25,6.24,5.19,14.81,7.62,22.82,6.17.62-.11,1.23-.25,1.84-.41.64-.17.88-.56,1.28-1.07.69-.89,1.32-1.82,1.84-2.82.41-.79.83-1.66.93-2.55.08-.64-.93-.63-1,0,.02-.16.02-.1,0,0-.03.13-.06.25-.09.38-.13.45-.31.88-.51,1.31-.36.75-.8,1.47-1.27,2.16-.3.44-.61.88-.96,1.29-.36.43-.91.47-1.44.58-3.86.85-7.91.71-11.74-.25-6.62-1.65-13.38-5.86-16.38-12.2-.35-.75-.64-1.53-.85-2.34-.1-.4-.24-.84-.26-1.25-.02-.47.31-1.08.49-1.52.59-1.43,1.34-2.84,2.23-4.11l-.91-.12c1.93,4.93,5.03,9.32,9.39,12.39,4.08,2.86,8.97,4.34,13.92,4.68,3.02.21,6.05-.01,9.03-.52.63-.11.36-1.07-.27-.96Z"/>
      </g>
      <g id="BallHighlight">
        <path class="fill-white stroke-0" d="m304.19,315.86c-.18-.01-.11.67-.09,1.03.04.49.04.67.19,1,.18.39.23.59.33,1.2.12.71.21,1.48.41,2.06.18.51.25-.28.3-.71.06-.56.08-1.12-.05-1.75-.06-.29-.15-.5-.21-.78-.06-.25-.1-.52-.17-.76s-.15-.38-.23-.57c-.08-.17-.13-.42-.49-.73Z"/>
        <path class="fill-white stroke-0" d="m303.44,317.43c-.16-.02-.15.47-.15.73,0,.36,0,.48.11.73.14.29.17.43.23.88.06.52.09,1.07.24,1.5.13.38.25-.19.32-.49.1-.4.15-.8.08-1.26-.03-.21-.1-.37-.14-.57-.04-.19-.05-.38-.1-.55s-.11-.28-.17-.42c-.06-.13-.09-.31-.4-.55Z"/>
      </g>
    </g>
    <g id="answer-paw-ball" class="fill-answer-paw stroke-outline round stroke-1">
      <path d="m290.61,303.81c3.42,1.24,8.75,4.25,6.36,8.87-1.37,2.65-5.09,7.7-7.83,6.35-5.07-3.19-11.15-8.91-4.05-13.69,1.54-1.03,3.62-1.87,5.52-1.53Z"/>
      <path d="m292.33,347.06c-6.31-.41-14.94-1.55-14.17-9.34.48-6.69,4.09-13.52,11.15-15.04,7.88-1.52,13.45,5.65,16.55,11.83,4.3,8.73-7.14,12.16-13.53,12.55Z"/>
      <path d="m271.55,327.6c-10.43.75-7.74-17.24,4.01-14.05,3.11.64,3.44,3.42,3.79,5.89,1,7.04.04,8-7.8,8.16Z"/>
      <path d="m309.15,309.46c4.29-.04,7.53,3.53,7.5,8.28-.02,3.11-5.66,6.85-10.36,6.87-1.64,0-4.7-6.21-4.73-9.61-.03-3.25,3.04-5.5,7.6-5.54Z"/>
    </g>
  </g>
  <g id="Mouse">
    <path id="answer-button-bg-mouse" class="fill-board-dark fill-answer-button-bg stroke-0" d="m269.71,165.14c-5.54-14.02-4.92-27.7,3.4-40.61,2.22-3.44,9.05-4.97,12.98-4.64,13.33,1.12,26.07,11.73,26.2,25.05.14,14.31-15.57,29-26.76,30.73-5.37.83-12.28-4.01-15.82-10.53Z"/>
    <g id="MouseToken">
      <g id="MouseLight" class="fill-mouse-light stroke-outline miter stroke-2">
        <path d="m277.87,143.88c2.19-3.11,3.28-6.98,2.59-10.67-2.7-5.42-12.79-4.65-15.68.29-2.05,4.87-1.86,11.37,3.52,13.87,4.08.89,6.41.98,9.56-3.5Z"/>
        <path d="m300.19,136.3c-1.29-3.11-2.99-7.19-.82-10.36,2.69-3.33,9.1-3.37,11.37.52,7.41,8.12-4.87,18.22-10.55,9.84Z"/>
        <path d="m278.26,143.62c4.39-6.26,18.48-11.8,22.87-5.15.02,4.3-1.41,10.18-2.22,14.61-2.7,14.64-3.23,11.34-20.65-9.46Z"/>
      </g>
      <g id="MouseFace">
        <ellipse class="fill-black stroke-0" cx="295.64" cy="161.92" rx="3.03" ry="2.54" transform="translate(-9.95 19.66) rotate(-3.75)"/>
        <ellipse class="fill-black stroke-0" cx="288.57" cy="146.88" rx="2.2" ry="2.14" transform="translate(-8.98 19.16) rotate(-3.75)"/>
        <path class="fill-white stroke-0" d="m288.7,145.37c-.79.17-.7,2.26.46,2.11.99-.34.89-2.24-.46-2.11Z"/>
        <ellipse class="fill-black stroke-0" cx="296.23" cy="144.45" rx="2.2" ry="2.14" transform="translate(-8.8 19.66) rotate(-3.75)"/>
        <path class="fill-white stroke-0" d="m296.36,142.94c-.79.17-.7,2.26.46,2.11.99-.34.89-2.24-.46-2.11Z"/>
        <g id="MouseWhiskers" class="fill-none stroke-outline miter stroke-1">
          <line x1="290.45" y1="158.97" x2="276.63" y2="164.47"/>
          <line x1="289.56" y1="157.8" x2="275" y2="160.86"/>
          <line x1="298.83" y1="155.14" x2="313.31" y2="151.74"/>
          <line x1="298.32" y1="156.73" x2="313.13" y2="155.39"/>
        </g>
      </g>
    </g>
    <g id="answer-paw-mouse" class="fill-answer-paw stroke-outline round stroke-1">
      <path d="m290.61,121.41c3.42,1.24,8.75,4.25,6.36,8.87-1.37,2.65-5.09,7.7-7.83,6.35-5.07-3.19-11.15-8.91-4.05-13.69,1.54-1.03,3.62-1.87,5.52-1.53Z"/>
      <path d="m292.33,164.66c-6.31-.41-14.94-1.55-14.17-9.34.48-6.69,4.09-13.52,11.15-15.04,7.88-1.52,13.45,5.65,16.55,11.83,4.3,8.73-7.14,12.16-13.53,12.55Z"/>
      <path d="m271.55,145.19c-10.43.75-7.74-17.24,4.01-14.05,3.11.64,3.44,3.42,3.79,5.89,1,7.04.04,8-7.8,8.16Z"/>
      <path d="m309.15,127.05c4.29-.04,7.53,3.53,7.5,8.28-.02,3.11-5.66,6.85-10.36,6.87-1.64,0-4.7-6.21-4.73-9.61-.03-3.25,3.04-5.5,7.6-5.54Z"/>
    </g>
  </g>

</svg>
