<svg xmlns="http://www.w3.org/2000/svg" viewBox="0 0 288 431.15">
<g id="illustration" transform="translate(0 10)">
<g id="Mouse">
    <g id="Mouse_light">
      <path class="fill-mouse-light stroke-outline miter stroke-3" d="m129.94,240.84c6.03-6.47,9.79-15.05,9.36-23.77-4.5-13.36-28-14.77-36.23-4.3-6.28,10.58-7.89,25.62,3.72,33.1,9.11,3.34,14.47,4.29,23.15-5.03Z"/>
      <path class="fill-mouse-light stroke-outline miter stroke-3" d="m97.39,246.35c8.96-9.64,34.29-15.78,40.22-3.41-.97,7.34-4.79,17.03-7.23,24.4-8.04,24.34-8.18,18.58-32.99-20.98Z"/>
    </g>
    <g id="Mouse_tail">
      <path class="fill-black" d="m180.25,153.65c-.25-.72-.45-1.46-.6-2.21-.04-.18-.07-.37-.1-.55-.08-.47.02.27-.02-.1-.05-.43-.09-.85-.1-1.28-.03-.78-.01-1.57.06-2.35.02-.2.04-.4.07-.6-.06.47.01-.06.04-.23.07-.41.15-.82.25-1.23.21-.88.47-1.75.78-2.59.08-.21.16-.43.25-.64.02-.05.16-.39.06-.16s.05-.11.07-.16c.21-.47.42-.93.66-1.38.46-.91.97-1.79,1.52-2.64.29-.45.59-.9.9-1.34.16-.23.32-.45.49-.67s.37-.49.4-.52c2.88-3.64,6.38-6.72,9.68-9.97s6.21-6.21,9.2-9.43c5.49-5.9,10.84-12.14,14.94-19.11,3.2-5.45,5.91-11.87,5.04-18.32-.42-3.1-1.67-5.91-3.59-8.37-2.15-2.76-5.08-4.88-8.14-6.52-.9-.49-1.82-.93-2.76-1.35s-2.19-.31-2.74.72c-.46.87-.3,2.28.72,2.74,1.81.81,3.58,1.73,5.24,2.83.34.23.68.46,1.01.7.17.13.34.25.51.38-.38-.29.19.15.27.22.63.52,1.23,1.07,1.79,1.65.24.25.48.51.71.78.12.14.23.28.35.42.04.05.08.11.13.16-.35-.42-.05-.06.01.02.41.56.79,1.14,1.12,1.75.16.3.31.6.45.9.04.08.23.51.1.22s.09.24.13.34c.23.61.41,1.24.56,1.88.07.32.13.64.18.96,0,.04.05.19.04.24,0-.02-.06-.52-.02-.17.02.18.04.37.05.55.05.67.06,1.33.04,2-.01.34-.04.68-.07,1.02-.01.15-.03.3-.05.45,0,.06-.04.19-.03.26-.05-.42.03-.25,0-.01-.11.71-.25,1.41-.43,2.1-.37,1.48-.88,2.91-1.46,4.32.19-.47-.04.09-.09.21-.08.18-.16.37-.25.55-.18.4-.37.79-.56,1.18-.38.76-.77,1.51-1.19,2.24-.89,1.59-1.86,3.13-2.88,4.63-.53.78-1.07,1.55-1.63,2.31-.27.36-.53.73-.8,1.09-.15.19-.29.39-.44.58-.07.1-.15.19-.22.29-.13.17.14-.18-.08.1-2.54,3.26-5.24,6.38-8.04,9.42s-5.95,6.27-9.01,9.31c-3.25,3.23-6.75,6.29-9.71,9.79-5.02,5.95-8.84,13.56-7.24,21.52.15.73.35,1.44.59,2.14.34.99,1.39,1.74,2.46,1.4.98-.32,1.76-1.4,1.4-2.46h0Z"/>
    </g>
    <g id="Mouse_bow">
      <g>
        <path class="fill-accent-light stroke-outline round stroke-2" d="m207.79,100.13c-1.08-3.58-5.83-11.8-10.6-10.73-2.18,2.83-7.48,15.4-2.96,16.71,3.53-.24,12.24-.21,13.56-5.97Z"/>
        <path class="fill-accent-light stroke-outline round stroke-2" d="m215.47,104.06c5.5-1.7,9.44-2.26,13.58-.45-2.95,4.74-6.3,10.47-9.55,14.7-3.65-3.3-5.23-7.81-5.51-11.32-.29-.22-.7-.22,1.47-2.93Z"/>
        <path class="fill-accent-light stroke-outline round stroke-2" d="m212.4,99.5c-3.96-.12-8.16,3.04-5.75,6.46,3.95,3.83,12.54-1.93,5.75-6.46Z"/>
      </g>
    </g>
    <g id="Mouse_details">
      <ellipse class="fill-black" cx="122.72" cy="281.65" rx="4.38" ry="5.22" transform="translate(-166.98 383.91) rotate(-85.9)"/>
      <g>
        <ellipse class="fill-black" cx="114.21" cy="254.33" rx="3.69" ry="3.79" transform="translate(-147.64 350.06) rotate(-85.9)"/>
        <path class="fill-white" d="m114.79,251.79c-1.39.1-1.73,3.69.28,3.71,1.76-.36,2.03-3.61-.28-3.71Z"/>
      </g>
      <g>
        <ellipse class="fill-black" cx="127.83" cy="252" rx="3.69" ry="3.79" transform="translate(-132.67 361.48) rotate(-85.9)"/>
        <path class="fill-white" d="m128.41,249.46c-1.39.1-1.73,3.69.28,3.71,1.76-.36,2.03-3.61-.28-3.71Z"/>
      </g>
      <g>
        <line class="fill-none stroke-outline miter stroke-2" x1="114.57" y1="275.4" x2="89.71" y2="281.53"/>
        <line class="fill-none stroke-outline miter stroke-2" x1="113.33" y1="273.19" x2="87.78" y2="274.98"/>
        <line class="fill-none stroke-outline miter stroke-2" x1="129.76" y1="270.84" x2="155.26" y2="268.44"/>
        <line class="fill-none stroke-outline miter stroke-2" x1="128.51" y1="273.43" x2="154.09" y2="274.62"/>
      </g>
      <g>
        <path class="fill-black" d="m90.74,269.09s.01,0,.02,0c-.05-.02-.11-.02-.16,0,.06,0,.11,0,.14,0Z"/>
        <path class="fill-black" d="m104.42,261.92c0-.08.02-.16.02-.24.05-1.63-.69-3.29-1.32-4.75-.2-.47-.79-.71-1.28-.71-.35-.25-.79-.37-1.25-.24-.54.15-.99.65-1.09,1.21-.49-.52-1.4-.51-1.93-.09-.63.5-.7,1.23-.39,1.93.6,1.35,1.38,2.67,2.41,3.75.22.22.45.44.71.64-.13.1-.25.21-.38.3-1.1.81-2.21,1.6-3.34,2.36-.88.59-1.78,1.16-2.71,1.68-.36.2-.71.39-1.08.57-.15.08-.31.15-.47.22-.09.04-.17.08-.26.12-.02,0-.03.01-.06.02-.27.1-.53.2-.81.28-.11.03-.23.06-.34.09-.04,0-.08.02-.11.02,0,0,.02,0,.03,0,0,0-.03,0-.04,0-.03,0-.06.01-.09.02-.15.03-.12,0-.06-.02-.08,0-.16,0-.24.01,0-.01,0-.02,0-.03-.01.03-.03.01-.03-.16,0-.03-.01-.06-.02-.06,0,0,.01.01.02.02,0-.09,0-.18,0-.27,0-.23.03-.45.04-.68,0,0,0,0,0-.01,0-.01,0-.03,0-.03.02-.13.05-.26.07-.39.12-.59.27-1.17.44-1.75.42-1.43.95-2.83,1.5-4.22,1.43-3.62,3.03-7.18,4.43-10.81.29-.76-.32-1.65-1.05-1.85-.85-.23-1.55.29-1.85,1.05-1.94,5.01-4.4,9.87-5.93,15.03-.47,1.6-1.04,3.6-.43,5.24.76,2.06,2.95,2.21,4.78,1.59,1.48-.5,2.87-1.27,4.2-2.09,2-1.23,3.9-2.6,5.78-4.01,1.11-.06,2.28-.44,2.59-1.64.2-.76-.07-1.47-.49-2.1Zm-14.08,6.02c0,.07-.01.15-.01.14,0-.03,0-.09.01-.14Zm.03,1.24s.01,0,.02.01c.01.02.02.05.03.07,0-.01,0-.02-.02-.03-.01-.02-.02-.03-.03-.05,0,0,0,0,0,0Zm0,0s0-.01,0-.02c0,.01.02.02.02.04,0,0-.01-.01-.02-.02Zm-.21-.11c-.07-.03-.11-.05,0,0h0Zm.26.26s-.02-.04-.04-.09c.02.03.04.05.05.06,0,.02,0,.03,0,.03Zm-.03-.13c.11.08.06.05,0,0h0Zm1.68-.53c.12-.05.11-.04,0,0h0Z"/>
        <path class="fill-black" d="m90.32,268.9s.02.1.03.16c.01-.04.01-.15-.03-.2,0,.01,0,.03,0,.04,0,0,0,0,0,0Z"/>
      </g>
      <path class="fill-black" d="m138.43,279.94c.97-1.42,1.78-2.93,2.46-4.5-1.07.89-2.12,1.82-3.19,2.71-.45.38-1.2.18-1.52-.28-.36-.52-.18-1.14.28-1.52,1.13-.95,2.24-1.93,3.38-2.87.61-.51,1.27-1.09,2.03-1.36.07-.02.14-.02.21-.04.63-2.26.98-4.6.96-6.97-.04-5.19-1.47-10.21-3.28-15.03-1.09-2.92-2.34-5.78-3.6-8.63-.24-.54.13-1.21.66-1.4.59-.21,1.16.12,1.4.66,2.25,5.1,4.49,10.26,5.83,15.69,1.28,5.21,1.67,10.66.28,15.89-.06.23-.15.45-.22.68.38.64.55,1.4.72,2.11.39,1.58.74,3.17,1.17,4.74.15.57-.07,1.19-.66,1.4-.52.19-1.24-.09-1.4-.66-.37-1.37-.7-2.74-1.02-4.12-.01-.05-.03-.1-.04-.15-.78,1.76-1.71,3.45-2.8,5.05-.33.49-1.13.47-1.54.12-.49-.42-.45-1.05-.12-1.54Z"/>
    </g>
  </g>
  <g id="Pillow">
    <g id="Details">
      <g>
        <path class="fill-pillow-light stroke-outline round stroke-2" d="m47.7,283.4c-.71-.41-1.7-.65-2.19-1.36-.53-.96-1.49-1-2.4-.68-.03-1.56-.89-1.23-1.96-.74.56-3.37-.98-1.85-2.37-.27,2.27-8.41,5.94-21.56,16.51-21.52-1.17-.87-1.88-2.35-1.61-3.95.78-1.04,1.86-1.86,3.04-2.43,5.89-1.74,8.38,3.77,1.82,7.07-.89.2-1.76.09-2.51-.25,2.81,9.06-7.28,15.89-8.34,24.13h0Z"/>
      </g>
      <g>
        <path class="fill-pillow-light stroke-outline round stroke-2" d="m201.42,282.85c.56-.61,1.42-1.14,1.67-1.96.21-1.08,1.12-1.4,2.08-1.37-.44-1.49.47-1.45,1.64-1.3-1.56-3.04.37-2.06,2.18-.98-4.72-7.32-12.22-18.73-22.28-15.48.85-1.18,1.07-2.81.33-4.25-1.06-.76-2.34-1.21-3.63-1.39-6.14.13-6.83,6.14.41,7.29.91-.08,1.7-.45,2.31-1,.08,9.49,11.77,12.92,15.29,20.44h0.Z"/>
      </g>
      <g>
        <path class="fill-pillow-light stroke-outline round stroke-2" d="m225.5,222.22c.81.17,1.7.64,2.54.43,1.03-.37,1.78.24,2.24,1.08,1.06-1.14,1.48-.34,1.95.74,1.81-2.89,1.96-.74,1.96,1.37,3.87-7.8,9.84-20.08,1.89-27.06,1.45.13,2.96-.52,3.82-1.89.11-1.3-.16-2.63-.67-3.83-3.25-5.21-8.77-2.73-6.05,4.09.54.74,1.26,1.23,2.05,1.47-8.11,4.93-5.07,16.72-9.74,23.6h0.Z"/>
      </g>
    </g>
    <g id="Pillow_shade" data-name="Pillow shade">
      <path class="fill-pillow-shade stroke-outline round stroke-2" d="m61.38,254.78c14.11,2.05,18.09-36.77,68.51-30.51,28.64.5,32.71,33.56,50.62,33.01-11.82-24.17-34.01-37.01-44.93-38.44-29.71-3.88-59.65-.84-74.19,35.93h0Z"/>
    </g>
    <g id="Pillow_light" data-name="Pillow light">
      <g>
        <path class="fill-pillow-light stroke-outline round stroke-3" d="m60.82,252.33c25.27-47.17,94.45-48.22,118.06,2.18,13.1,8.77,60.44-56,52.38-67.9-55.05-70.24-162.87-18.42-170.44,65.72Z"/>
      </g>
    </g>
    <g id="Pillow_decorations" data-name="Pillow decorations">
      <g>
        <g>
          <path class="fill-pillow-shade" d="m104.91,194.81c1.18-2.63,1.81-5.86,4.38-7.53,3.85-6.57-6.39,1.92-6.6,6.92-1.42-2.03-1.24-8.42-3.07-8.03-2.28.49-.89,4.93-1.08,7.33-1.48-1.21-13.84,3.2-8.04,4.1,2.78-1.51,5.62-1.92,7.91-1.38-2.55,3.64-11.23,6.35-11.21,8.72.02,3.01,6.85-2.47,9.77-3.72-.91,1.33-1.54,2.79-2.24,4.21-1.54,1.75-2.33,5.59.93,2.67,1.35-1.85,2.66-5.31,3.6-6.5.1-.23.51-.59.71-.81h0c.05-.03.09-.09.11-.1h0s-.03.04-.06.06c.02,0,.04-.03.07-.05.71.27,1.16,1.03,1.25,2.52.11,2.48,3.71,6.95,3.18,1.08.71-2.01-2.85-6.3,1.04-6h-.12c1.33.1,2.7.59,3.55,1.64,4.41.91,2.09-4.12-1.3-4.03,9.59-6.18,7.5-6.28-2.77-1.09h-.01.Z"/>
        </g>
        <path class="fill-pillow-shade" d="m135.14,162.05c-2.85-.44,3.64-1.21,5.89-3.29,5.29-4.88-32.53,11.63-22.42,10.81,2.73-1.16,5.73-4.29,6.48-3.69.91.74.84,1.9.15,3.23-1.19,2.18-1.25,5.24,2.4.6,1.31-1.67-.26-4.88,2.93-2.63-.06-.03.8,1.65,1.43,2.85,2.08,3.99,3.99-3.51,1.05-5.18,11.4-.35,6.98-1.95,2.1-2.7h-.01.Z"/>
        <g>
          <path class="fill-pillow-shade" d="m200.96,177.13c2.79-.74,5.69-2.29,8.61-1.35,7.53-1.16-5.52-3.75-9.54-.76.68-2.38,5.75-6.27,4.29-7.44-1.82-1.46-4.39,2.42-6.37,3.78,0-1.91-11.22-8.72-8.25-3.65,2.92,1.2,5.03,3.15,6.06,5.27-4.43.32-12.01-4.71-13.84-3.2-2.32,1.92,6.23,3.76,9.05,5.23-1.61.14-3.14.57-4.68.92-2.33-.09-5.8,1.72-1.48,2.4,2.29-.12,5.8-1.29,7.32-1.31.24-.06.78.03,1.08.04h0c.06,0,.12.02.14.02h-.08s.04,0,.08.02c.23.72-.07,1.55-1.16,2.56-1.86,1.65-3.05,7.26,1.17,3.15,2-.72,3.09-6.18,5.31-2.98-.04-.05-.06-.07-.08-.09.76,1.09,1.25,2.47.97,3.79,2.07,4,4.51-.98,2.31-3.55,10.84,3.54,9.6,1.86-.9-2.84h-.01.Z"/>
        </g>
        <g>
          <path class="fill-pillow-shade" d="m175.6,202.46c2.37-1.65,4.57-4.09,7.64-4.2,6.69-3.64-6.47-1.65-9.23,2.53-.17-2.47,3.27-7.85,1.51-8.46-2.2-.76-3.31,3.77-4.71,5.72-.65-1.8-13.51-4.4-9-.63,3.16.14,5.8,1.25,7.49,2.9-4.06,1.8-12.9-.35-14.1,1.69-1.53,2.59,7.14,1.42,10.29,1.85-1.46.67-2.76,1.6-4.09,2.45-2.22.7-4.87,3.59-.58,2.76,2.11-.89,5.02-3.18,6.44-3.71.21-.14.75-.24,1.03-.33h0c.06,0,.12-.03.14-.03h0s-.05,0-.08.02h.08c.46.6.46,1.48-.23,2.8-1.19,2.18-.41,7.87,2.17,2.56,1.64-1.35.81-6.87,3.99-4.61-.06-.03-.08-.05-.11-.06,1.08.77,2.01,1.9,2.2,3.24,3.31,3.06,3.91-2.45.97-4.12,11.4-.35,9.66-1.51-1.81-2.37h0.Z"/>
        </g>
      </g>
      <path class="fill-pillow-shade stroke-outline miter stroke-1" d="m166.8,205.08c-1.11-2.36.02-5.47,2.52-6.94s5.4-.74,6.47,1.63-.06,5.48-2.52,6.94c-2.47,1.46-5.36.73-6.47-1.63Z"/>
      <path class="fill-pillow-shade stroke-outline miter stroke-1" d="m193.02,177.87c-1.11-2.36.02-5.47,2.52-6.94s5.4-.74,6.47,1.63-.06,5.48-2.52,6.94c-2.47,1.46-5.36.73-6.47-1.63Z"/>
      <path class="fill-pillow-shade stroke-outline miter stroke-1" d="m97.61,199.78c-1.11-2.36.02-5.47,2.52-6.94s5.4-.74,6.47,1.63c1.07,2.37-.06,5.48-2.52,6.94-2.47,1.46-5.36.73-6.47-1.63Z"/>
      <path class="fill-pillow-shade stroke-outline miter stroke-1" d="m124.3,164.23c1.14,2.3,3.99,3,6.42,1.55,2.06-1.22,3.16-3.58,2.86-5.7-1.38.59-7.55,3.39-9.28,4.15Z"/>
    </g>
  </g>
  <g id="Mouse_ears">
    <path class="fill-mouse-light stroke-outline miter stroke-3" d="m96.68,246.71c4.46-4.79,7.24-11.13,6.93-17.58-3.33-9.88-20.71-10.93-26.8-3.18-4.64,7.83-5.84,18.95,2.75,24.48,6.74,2.47,10.7,3.17,17.12-3.72Z"/>
    <path class="fill-mouse-light stroke-outline miter stroke-3" d="m136.51,239.03c-1.46-5.61-3.4-12.96,1.03-17.87,5.37-5.04,16.32-3.6,19.27,3.56,10.72,15.59-12.59,29.92-20.3,14.3Z"/>
  </g>
  </g>
  <g id="Details-2" data-name="Details">
    <g id="Details-2">
      <path class="fill-none" d="m0,0v431.15h288V0H0Z"/>
    </g>
  </g>
</svg>
