<svg xmlns="http://www.w3.org/2000/svg" viewBox="0 0 288 431.15">
  <g id="Details">
    <rect width="288" height="431.15" class="fill-none stroke-0"/>
  </g>
  <g id="Pillow">
    <g id="Pillow_shade">
      <path d="m213.65,302.35H62.68c-1.98,0-3.6-1.62-3.6-3.6l160.75-160.38c1.98,0,3.6,1.62,3.6,3.6v147.95c0,1.98-7.81,12.42-9.79,12.42Z" class="fill-pillow-shade stroke-outline miter stroke-2"/>
    </g>
    <g id="Pillow_light">
      <rect x="58.23" y="137.27" width="159.93" height="159.93" rx="3.6" ry="3.6" class="fill-pillow-light stroke-outline miter stroke-3"/>
    </g>
    <g id="Pillow_decorations_shade">
      <g>
        <g>
          <path d="m95.18,181.81s.08,0,.1-.02c-.04.01-.07,0-.1.02Z" class="fill-pillow-shade stroke-0"/>
          <path d="m104.38,176.44c10.64-11.86,3.97-13.54-2.84-1.07-2.28-10.92-1.04-18.09-4.93-2.61-9.21-11.46-12.79-7.82-2.32,2.31-15.8.03-12.32,6.61,1.61,4.83-3.44.44-6.78,3.76-7.34,7.72-.93,6.5,5.94-1.61,7.91-4.14,1.32-1.69,1.46-1.62,1.21,1.34.79,12.88,4.08,5.06,3.1-2.52,9.86,7.22,14.72,5.21,2.78-2.32,12.96-1.41,11.93-3.07.83-3.53Zm-1.82,6.35s-.02,0,0,0h0Z" class="fill-pillow-shade stroke-0"/>
        </g>
        <g>
          <path d="m94.6,259.57s.08,0,.1,0c-.04,0-.07,0-.1,0Z" class="fill-pillow-shade stroke-0"/>
          <path d="m104.52,255.68c12.33-10.09,5.99-12.77-2.64-1.49-.58-11.14,1.74-18.04-4.48-3.33-7.35-12.73-11.44-9.68-2.65,1.93-15.62-2.39-13.18,4.65.86,5.02-3.47-.09-7.27,2.68-8.43,6.5-1.91,6.28,6.12-.69,8.45-2.88,1.56-1.47,1.69-1.38.99,1.5-1.19,12.84,3.26,5.62,3.45-2.02,8.64,8.64,13.75,7.4,3.1-1.87,13.03.59,12.26-1.21,1.36-3.36Zm-2.77,5.99s-.02-.01,0,0h0Z" class="fill-pillow-shade stroke-0"/>
        </g>
        <g>
          <path d="m175.13,182.39s.07-.02.09-.04c-.03.02-.06.02-.09.04Z" class="fill-pillow-shade stroke-0"/>
          <path d="m183.05,175.25c7.99-13.79,1.11-14.06-3-.47-4.47-10.22-4.72-17.5-5.36-1.54-11.37-9.33-14.12-5.03-1.8,2.74-15.46,3.26-10.7,9,2.57,4.39-3.28,1.14-5.86,5.07-5.61,9.06.42,6.55,5.48-2.8,6.89-5.67.94-1.93,1.1-1.88,1.45,1.06,3.41,12.44,5.03,4.11,2.52-3.1,11.13,5.05,15.48,2.08,2.25-2.85,12.4-4.03,11.05-5.45.09-3.62Zm-.48,6.58s-.02,0,0,0h0Z" class="fill-pillow-shade stroke-0"/>
        </g>
        <g>
          <path d="m174.24,260.12s.08,0,.1-.02c-.04.01-.07,0-.1.02Z" class="fill-pillow-shade stroke-0"/>
          <path d="m183.44,254.75c10.64-11.86,3.97-13.54-2.84-1.07-2.28-10.92-1.04-18.09-4.93-2.61-9.21-11.46-12.79-7.82-2.32,2.31-15.8.03-12.32,6.61,1.61,4.83-3.44.44-6.78,3.76-7.34,7.72-.93,6.5,5.94-1.61,7.91-4.14,1.32-1.69,1.46-1.62,1.21,1.34.79,12.88,4.08,5.06,3.1-2.52,9.86,7.22,14.72,5.21,2.78-2.32,12.96-1.41,11.93-3.07.83-3.53Zm-1.82,6.35s-.02,0,0,0h0Z" class="fill-pillow-shade stroke-0"/>
        </g>
      </g>
      <g>
        <circle cx="98.4" cy="178.17" r="6.76" class="fill-pillow-shade stroke-outline miter stroke-1"/>
        <circle cx="177.99" cy="178.17" r="6.76" class="fill-pillow-shade stroke-outline miter stroke-1"/>
        <circle cx="98.4" cy="256.3" r="6.76" class="fill-pillow-shade stroke-outline miter stroke-1"/>
        <circle cx="177.99" cy="256.3" r="6.76" class="fill-pillow-shade stroke-outline miter stroke-1"/>
      </g>
      <g>
        <path d="m248.58,307c-2.29-2.25-.28-1.95,1.65-1.52-6.39-5.13-16.47-13.1-24.48-7.21.41-1.31.12-2.83-.97-3.89-1.17-.36-2.45-.38-3.66-.16-5.44,1.94-4.28,7.51,2.53,6.38.8-.34,1.4-.92,1.78-1.6,2.88,8.45,14.33,8.06,19.71,13.74.32-.71.93-1.44.91-2.24-.13-1.02.58-1.59,1.45-1.84-.84-1.2-.01-1.43,1.08-1.65Z" class="fill-pillow-light stroke-0"/>
        <path d="m249.29,306.29c-.27-.27-.48-.63-.75-.88.03.08.02.07,0-.03.06.33-.05.58-.3.75-.13.05-.14.06-.03.03-.1.01-.11.02-.04.01.61.07,1.19.13,1.8.26.88.2,1.81-1,.97-1.67-2.93-2.36-5.9-4.71-9.19-6.56s-6.85-3.28-10.57-2.99c-2.15.17-4.18.92-5.93,2.18l1.47,1.13c.33-1.14.26-2.33-.22-3.41-.21-.48-.51-.93-.87-1.31-.52-.54-1.37-.61-2.08-.69-1.26-.14-2.5-.01-3.65.53-.73.34-1.43.81-1.98,1.4-.93,1-1.5,2.42-1.08,3.77s1.69,2.3,3.06,2.67c1.04.28,2.14.31,3.2.19.69-.08,1.25-.24,1.82-.65s1.02-.92,1.38-1.52l-1.83-.24c1.14,3.27,3.59,5.58,6.59,7.19s6.14,2.55,9.12,4.03c1.56.78,3.04,1.69,4.25,2.96.42.43,1.29.38,1.57-.2.38-.8.93-1.52,1.02-2.43.03-.29-.07-.61.11-.85.13-.19.42-.28.63-.34.58-.19.97-.9.6-1.47,0,0-.23-.37-.21-.37.02.15-.02.28-.13.39-.05.04-.04.04.02,0,.12.04.66-.17.8-.2,1.26-.25.73-2.18-.53-1.93-.67.14-1.41.31-1.84.89-.53.7-.27,1.55.17,2.23l.6-1.47c-.92.3-1.78.85-2.08,1.82-.14.45-.02.92-.17,1.35-.17.48-.49.91-.71,1.37l1.57-.2c-2.25-2.35-5.3-3.65-8.26-4.86s-5.94-2.25-8.31-4.3c-1.3-1.12-2.31-2.51-2.88-4.14-.28-.79-1.37-1.01-1.83-.24-.23.39-.51.72-.9.97-.36.23-.7.24-1.12.27-.72.05-1.44.03-2.13-.16-.26-.07-.45-.14-.66-.25s-.42-.25-.5-.32c-.35-.31-.44-.48-.55-.88-.02-.12-.02-.12,0,0,0-.06-.01-.12-.01-.18,0-.09,0-.18,0-.27.01-.12.01-.12,0,0,.01-.06.02-.12.04-.18.01-.03.13-.38.06-.22.2-.49.44-.76.83-1.1,1.37-1.2,3.19-1.32,4.89-.83l-.44-.26c.78.8,1.02,1.85.71,2.92-.23.78.74,1.65,1.47,1.13,6.14-4.44,13.52-.2,18.8,3.6,1.53,1.1,3,2.27,4.47,3.45l.97-1.67c-.97-.21-2.38-.65-3.31-.09-1.45.88-.09,2.5.68,3.28.91.91,2.33-.5,1.41-1.41Z" class="fill-black stroke-0"/>
      </g>
      <g>
        <path d="m56.59,301.83c4.98-4.78,1.21-9.05-3.6-5.85-.9.84-1.65,1.87-2.06,3.03.2,1.51,1.25,2.65,2.54,3.1-9.52,2.9-9.17,15.74-8.88,23.93.81-1.81,1.78-3.6,2.21-.42.82-.74,1.5-1.27,1.96.12.72-.54,1.6-.77,2.34-.06.64.5,1.59.44,2.34.61-1.33-7.7,5.85-16.64.81-24.01.77.1,1.58-.04,2.33-.47Z" class="fill-pillow-light stroke-0"/>
        <path d="m57.29,302.54c1.3-1.27,2.44-2.84,2.62-4.7.13-1.35-.46-2.68-1.62-3.4-1.23-.77-2.84-.68-4.14-.17-.94.36-1.77.84-2.45,1.6s-1.21,1.58-1.59,2.5.08,2.09.65,2.89c.62.86,1.45,1.45,2.44,1.82v-1.93c-3.75,1.17-6.35,3.94-7.82,7.52s-1.81,7.48-1.88,11.27c-.04,2.04.02,4.08.09,6.11.03.91,1.43,1.47,1.86.5.16-.35.32-.7.5-1.04.08-.15.17-.3.25-.45.04-.06.08-.13.13-.19-.04.05-.04.05,0,0,.11-.15,0-.08.07-.08-.29.15-.56.11-.82-.11-.07-.11-.07-.11,0,0,0,.24.21.86.26,1.21.12.8,1.18.89,1.67.44.1-.09.57-.36.61-.47-.01.03-.63.21-.44-.12.02-.04.13.26.13.27.2.56.9,1,1.47.6.22-.16.54-.4.83-.37s.55.37.82.51c.71.37,1.5.37,2.27.52s1.36-.46,1.23-1.23c-.51-3.11.42-6.29,1.2-9.27s1.73-6.39,1.4-9.65c-.2-1.92-.81-3.73-1.89-5.33l-.86,1.5c1,.1,1.95-.13,2.83-.61,1.14-.61.13-2.33-1.01-1.73-.59.31-1.16.4-1.82.33-.74-.07-1.26.91-.86,1.5,3.77,5.63.12,12.41-.83,18.33-.29,1.82-.38,3.62-.08,5.44l1.23-1.23c-.5-.1-1.01-.12-1.5-.24-.44-.1-.7-.42-1.1-.61-.96-.47-2.02-.2-2.86.39l1.47.6c-.29-.78-.77-1.6-1.71-1.6-.77,0-1.39.56-1.92,1.04l1.67.44c-.16-1.09-.67-2.98-2.19-2.38-.97.38-1.45,1.68-1.84,2.55l1.86.5c-.12-3.52-.21-7.05.19-10.55.37-3.26,1.21-6.82,3.37-9.39,1.22-1.44,2.78-2.46,4.58-3.02.99-.31.91-1.59,0-1.93-1.06-.4-1.67-1.32-1.84-2.4v.53c.49-1.31,1.41-2.5,2.71-3.05.81-.34,1.85-.53,2.58-.12.59.33.83.96.72,1.74-.18,1.3-1.14,2.4-2.04,3.28s.49,2.32,1.41,1.41Z" class="fill-black stroke-0"/>
      </g>
      <g>
        <path d="m57.67,128.95c-.85-.11-1.65.08-2.33.46,1.81-8.74-8.25-14.22-9.99-21.84-.63.45-1.53.76-1.93,1.47-.41.95-1.31,1.07-2.18.85.11,1.46-.72,1.24-1.77.87.83,3.1-.75,1.82-2.2.47,2.89,7.67,7.51,19.66,17.41,18.67-1.02.92-1.55,2.37-1.15,3.84.82.91,1.91,1.57,3.06,2,5.67,1.1,7.51-4.29,1.07-6.78Z" class="fill-pillow-light stroke-0"/>
        <path d="m57.67,127.95c-1-.1-1.95.12-2.83.6l1.47,1.13c.68-3.39-.25-6.6-2.01-9.51s-3.98-5.31-5.79-8.09c-.96-1.48-1.78-3.04-2.19-4.77-.14-.6-.94-.95-1.47-.6-.67.45-1.45.78-1.99,1.41-.19.23-.32.64-.58.8-.22.13-.54.06-.77,0-.6-.13-1.3.28-1.27.96,0,.11-.02.34.03.35.07-.09.15-.16.25-.19.09-.01.1-.02.02-.02-.01-.02-.64-.18-.81-.24-.74-.26-1.41.53-1.23,1.23.07.25.14.51.17.77,0,.05,0,.38.02.4-.21-.18.59-.51.66-.51.12,0,.19.06.08,0-.55-.28-.99-.73-1.45-1.17-.67-.63-2.04-.02-1.67.97,1.32,3.51,2.69,7.04,4.56,10.3s4.26,6.35,7.64,7.99c1.92.93,4.04,1.31,6.17,1.11l-.71-1.71c-.76.72-1.32,1.67-1.49,2.71-.08.48-.09.95-.03,1.44.09.72.35,1.14.89,1.61,1.5,1.33,3.36,2.13,5.39,1.9,1.35-.15,2.67-.69,3.45-1.84.73-1.07.69-2.42.15-3.56-.82-1.75-2.67-2.77-4.39-3.45-.5-.2-1.1.22-1.23.7-.16.57.19,1.03.7,1.23,1.12.45,2.37,1.12,3.01,2.18.22.36.33.71.33.99,0,.34-.05.56-.26.87-.04.06-.03.05.02-.01-.04.05-.08.1-.13.15-.07.07-.14.14-.22.21.12-.1-.13.09-.13.09-.11.07-.22.13-.33.19-.3.15-.87.28-1.31.31-.66.04-1.33,0-1.94-.28-.84-.38-1.57-.9-2.2-1.57l.26.44c-.26-1.09.09-2.11.89-2.87.59-.56.17-1.79-.71-1.71-7.55.7-11.76-6.74-14.36-12.69-.75-1.72-1.42-3.48-2.08-5.24l-1.67.97c.73.68,1.7,1.75,2.79,1.75,1.71,0,1.35-2.13,1.08-3.19l-1.23,1.23c.65.23,1.38.46,2.05.17.81-.35,1.02-1.19.98-2.01l-1.27.96c.99.22,2.07.16,2.82-.6.32-.33.45-.77.82-1.06s.84-.49,1.24-.76l-1.47-.6c.73,3.11,2.65,5.75,4.55,8.26s4.01,5,5.04,7.98c.57,1.64.74,3.36.4,5.08-.17.85.67,1.56,1.47,1.13.58-.32,1.17-.39,1.82-.33.54.05,1-.5,1-1,0-.59-.46-.95-1-1Z" class="fill-black stroke-0"/>
      </g>
      <g>
        <path d="m247.83,129.07c-.28-.72-.36-1.67-.95-2.23-.82-.63-.71-1.53-.29-2.33-1.44-.25-1.02-1-.41-1.92-3.21.04-1.58-1.18.09-2.24-8.14.91-20.9,2.45-22.37,12.29-.64-1.21-1.92-2.08-3.44-2.06-1.08.58-2,1.47-2.69,2.48-2.46,5.23,2.31,8.33,6.31,2.7.32-.8.33-1.62.12-2.37,8.03,3.9,15.81-4.5,23.63-4.32Z" class="fill-pillow-light stroke-0"/>
        <path d="m248.8,128.8c-.26-.74-.38-1.55-.83-2.21-.17-.25-.53-.47-.65-.73s.02-.6.14-.85c.27-.54.07-1.33-.6-1.47-.09-.02-.36-.09-.38-.07l.12.2c-.02.28-.01.33.03.14.09-.1.3-.53.42-.72.42-.64-.14-1.51-.86-1.5-.26,0-.53,0-.79-.02-.06,0-.35-.09-.39-.08.09.05.09.04,0,0,.28.2.38.46.31.78-.07.14-.08.16-.02.06.06-.09.06-.09,0,0,.48-.42.94-.77,1.49-1.12.76-.49.55-1.98-.5-1.86-3.74.42-7.51.87-11.15,1.9s-7.14,2.55-9.55,5.38c-1.4,1.64-2.31,3.61-2.64,5.74l1.83-.24c-.89-1.6-3.34-3.34-5.16-2.21-.97.6-1.78,1.4-2.46,2.3-.61.81-.89,1.91-1.01,2.9-.17,1.46.23,3.03,1.45,3.95s2.87.8,4.21.13c.98-.49,1.83-1.27,2.52-2.11.47-.58.81-1.08.94-1.83s.09-1.42-.09-2.13l-1.47,1.13c3.12,1.48,6.46,1.39,9.71.4s6.11-2.55,9.24-3.62c1.68-.57,3.39-.99,5.18-.96,1.29.02,1.29-1.98,0-2-3.24-.05-6.28,1.18-9.21,2.42s-5.76,2.63-8.86,2.89c-1.74.15-3.46-.1-5.05-.85-.78-.37-1.69.24-1.47,1.13.11.43.14.85.04,1.29s-.42.79-.73,1.13c-.46.51-.97.96-1.57,1.3-.46.25-.91.39-1.38.38-.23,0-.25,0-.5-.09-.06-.02-.29-.15-.33-.18-.65-.53-.78-1.49-.62-2.4.12-.71.36-1.41.82-1.96.56-.68,1.22-1.24,1.99-1.67l-.5.14c1.12.01,2.04.59,2.58,1.56.39.7,1.69.63,1.83-.24,1.17-7.47,9.35-9.74,15.75-10.81,1.88-.31,3.76-.54,5.65-.75l-.5-1.86c-.84.54-2.1,1.21-2.38,2.26-.44,1.66,1.71,1.86,2.8,1.85l-.86-1.5c-.39.59-.83,1.29-.67,2.03.18.82.91,1.21,1.67,1.36l-.6-1.47c-.47.93-.67,1.99-.1,2.93.24.4.64.62.82,1.05s.26.91.42,1.35c.43,1.2,2.37.68,1.93-.53Z" class="fill-black stroke-0"/>
      </g>
    </g>
  </g>
</svg>