<svg xmlns="http://www.w3.org/2000/svg" viewBox="0 0 288 431.15">
<g id="illustration" transform="translate(12.2 15.78) scale(0.95)">
<g id="Pillow">
    <g id="Pillow_shade">
      <polygon class="fill-pillow-shade stroke-outline miter stroke-2" points="45.46 278.26 202.45 286.73 208.94 280.8 227.86 173.51 45.46 278.26"/>
    </g>
    <g id="Pillow_light">
      <path class="fill-pillow-light stroke-outline round stroke-3" d="m199.72,281.86l-149.16-8.91c-1.93-.12-3.12-1.24-2.63-2.5l36.63-94.96c.49-1.26,2.26-2.25,3.94-2.2l129.77,3.73c1.68.05,2.87,1.17,2.64,2.5l-17.26,100.13c-.23,1.33-2,2.32-3.93,2.2Z"/>
      <g>
        <path class="fill-pillow-light stroke-outline round stroke-2" d="m230.38,296.89c.25-.73.8-1.52.7-2.32-.22-1.01.44-1.63,1.27-1.97-.94-1.12-.14-1.42.92-1.74-2.49-2.03-.46-1.92,1.51-1.67-6.83-4.52-17.61-11.52-25.05-4.91.29-1.34-.14-2.83-1.32-3.79-1.2-.25-2.47-.15-3.66.18-5.24,2.43-3.57,7.88,3.11,6.12.76-.41,1.29-1.03,1.61-1.74,3.66,8.14,15.02,6.68,20.9,11.83Z"/>
      </g>
      <g>
        <path class="fill-pillow-light stroke-outline round stroke-2" d="m37.94,300.48c-.67-.38-1.6-.61-2.06-1.28-.5-.9-1.41-.94-2.26-.64-.03-1.46-.83-1.16-1.84-.69.53-3.17-.92-1.74-2.23-.25,2.14-7.91,5.59-20.28,15.53-20.25-1.1-.82-1.77-2.21-1.51-3.71.73-.98,1.75-1.75,2.86-2.29,5.54-1.64,7.88,3.55,1.72,6.65-.84.19-1.65.08-2.36-.24,2.64,8.53-6.85,14.95-7.85,22.7Z"/>
      </g>
      <g>
        <path class="fill-pillow-light stroke-outline round stroke-2" d="m75.21,144.9c.75-.19,1.58-.67,2.37-.51.99.31,1.66-.3,2.07-1.1,1.04,1.03,1.41.26,1.81-.77,1.82,2.65,1.87.62,1.79-1.36,3.94,7.18,10.02,18.5,2.82,25.37,1.36-.17,2.8.37,3.66,1.63.15,1.22-.05,2.48-.48,3.63-2.86,5.02-8.14,2.9-5.84-3.61.47-.72,1.14-1.2,1.87-1.46-7.81-4.32-5.41-15.52-10.06-21.81Z"/>
      </g>
      <g>
        <path class="fill-pillow-light stroke-outline round stroke-2" d="m252.6,162.95c-.4-.66-.65-1.59-1.32-2.03-.92-.48-.97-1.39-.69-2.24-1.46,0-1.18-.81-.73-1.82-3.16.6-1.76-.88-.3-2.23-7.86,2.31-20.16,6.03-19.91,15.97-.84-1.08-2.25-1.72-3.75-1.43-.97.75-1.71,1.79-2.22,2.91-1.52,5.57,3.72,7.8,6.68,1.57.17-.84.05-1.66-.29-2.35,8.58,2.45,14.79-7.17,22.52-8.34Z"/>
      </g>
    </g>
    <g id="Pillow_decorations">
      <g>
        <g>
          <g><path class="fill-pillow-shade" d="m98.67,248.98c2.23-1.55,4.3-3.85,7.19-3.95,6.29-3.43-6.08-1.56-8.68,2.38-.16-2.32,3.08-7.39,1.42-7.96-2.07-.71-3.11,3.54-4.43,5.38-.61-1.69-12.71-4.14-8.47-.6,2.97.13,5.46,1.18,7.05,2.73-3.82,1.7-12.13-.33-13.27,1.59-1.44,2.44,6.72,1.33,9.68,1.74-1.38.63-2.59,1.51-3.85,2.31-2.09.66-4.59,3.38-.55,2.6,1.99-.84,4.72-2.99,6.06-3.49.2-.13.7-.23.97-.31,0,0,0,0,0,0,.05,0,.12-.03.13-.03,0,0,0,0,0,0-.02,0-.05.01-.07.02.02,0,.04,0,.08,0,.44.56.44,1.39-.21,2.63-1.12,2.05-.38,7.4,2.04,2.41,1.54-1.27.76-6.46,3.75-4.33-.06-.03-.08-.05-.1-.06,1.02.72,1.89,1.78,2.07,3.05,3.11,2.87,3.68-2.31.91-3.88,10.73-.33,9.09-1.42-1.71-2.23Z"/></g>
          <g><path class="fill-pillow-shade" d="m115.25,199.59c2.23-1.55,4.3-3.85,7.19-3.95,6.29-3.43-6.08-1.56-8.68,2.38-.16-2.32,3.08-7.39,1.42-7.96-2.07-.71-3.11,3.54-4.43,5.38-.61-1.69-12.71-4.14-8.47-.6,2.97.13,5.46,1.18,7.05,2.73-3.82,1.7-12.13-.33-13.27,1.59-1.44,2.44,6.72,1.33,9.68,1.74-1.38.63-2.59,1.51-3.85,2.31-2.09.66-4.59,3.38-.55,2.6,1.99-.84,4.72-2.99,6.06-3.49.2-.13.7-.23.97-.31,0,0,0,0,0,0,.05,0,.12-.03.13-.03,0,0,0,0,0,0-.02,0-.05.01-.07.02.02,0,.04,0,.08,0,.44.56.44,1.39-.21,2.63-1.12,2.05-.38,7.4,2.04,2.41,1.54-1.27.76-6.46,3.75-4.33-.06-.03-.08-.05-.1-.06,1.02.72,1.89,1.78,2.07,3.05,3.11,2.87,3.68-2.31.91-3.88,10.73-.33,9.09-1.42-1.71-2.23Z"/></g>
          <g><path class="fill-pillow-shade" d="m186.68,202.13c2.23-1.55,4.3-3.85,7.19-3.95,6.29-3.43-6.08-1.56-8.68,2.38-.16-2.32,3.08-7.39,1.42-7.96-2.07-.71-3.11,3.54-4.43,5.38-.61-1.69-12.71-4.14-8.47-.6,2.97.13,5.46,1.18,7.05,2.73-3.82,1.7-12.13-.33-13.27,1.59-1.44,2.44,6.72,1.33,9.68,1.74-1.38.63-2.59,1.51-3.85,2.31-2.09.66-4.59,3.38-.55,2.6,1.99-.84,4.72-2.99,6.06-3.49.2-.13.7-.23.97-.31,0,0,0,0,0,0,.05,0,.12-.03.13-.03,0,0,0,0,0,0-.02,0-.05.01-.07.02.02,0,.04,0,.08,0,.44.56.44,1.39-.21,2.63-1.12,2.05-.38,7.4,2.04,2.41,1.54-1.27.76-6.46,3.75-4.33-.06-.03-.08-.05-.1-.06,1.02.72,1.89,1.78,2.07,3.05,3.11,2.87,3.68-2.31.91-3.88,10.73-.33,9.09-1.42-1.71-2.23Z"/></g>
          <g><path class="fill-pillow-shade" d="m174.54,252.96c2.23-1.55,4.3-3.85,7.19-3.95,6.29-3.43-6.08-1.56-8.68,2.38-.16-2.32,3.08-7.39,1.42-7.96-2.07-.71-3.11,3.54-4.43,5.38-.61-1.69-12.71-4.14-8.47-.6,2.97.13,5.46,1.18,7.05,2.73-3.82,1.7-12.13-.33-13.27,1.59-1.44,2.44,6.72,1.33,9.68,1.74-1.38.63-2.59,1.51-3.85,2.31-2.09.66-4.59,3.38-.55,2.6,1.99-.84,4.72-2.99,6.06-3.49.2-.13.7-.23.97-.31,0,0,0,0,0,0,.05,0,.12-.03.13-.03,0,0,0,0,0,0-.02,0-.05.01-.07.02.02,0,.04,0,.08,0,.44.56.44,1.39-.21,2.63-1.12,2.05-.38,7.4,2.04,2.41,1.54-1.27.76-6.46,3.75-4.33-.06-.03-.08-.05-.1-.06,1.02.72,1.89,1.78,2.07,3.05,3.11,2.87,3.68-2.31.91-3.88,10.73-.33,9.09-1.42-1.71-2.23Z"/></g>
        </g>
        <g>
          <path class="fill-pillow-shade stroke-outline miter stroke-1" d="m117.01,200.21c-.76,2.36-4.06,4.17-7.37,4.04-3.31-.13-5.35-2.14-4.55-4.49s4.1-4.16,7.37-4.04c3.27.12,5.31,2.13,4.55,4.49Z"/>
          <path class="fill-pillow-shade stroke-outline miter stroke-1" d="m187.23,202.84c-.52,2.42-3.63,4.28-6.94,4.15-3.31-.13-5.54-2.19-4.98-4.6s3.67-4.27,6.94-4.15c3.27.12,5.5,2.18,4.98,4.6Z"/>
          <path class="fill-pillow-shade stroke-outline miter stroke-1" d="m101.16,249.62c-.76,2.36-4.24,4.12-7.79,3.93-3.54-.19-5.77-2.25-4.97-4.6s4.28-4.11,7.79-3.93c3.5.18,5.73,2.24,4.97,4.6Z"/>
          <path class="fill-pillow-shade stroke-outline miter stroke-1" d="m176.31,253.57c-.52,2.42-3.82,4.23-7.36,4.04-3.54-.19-5.96-2.3-5.4-4.71.56-2.41,3.86-4.22,7.36-4.04,3.5.18,5.92,2.29,5.4,4.71Z"/>
        </g>
      </g>
    </g>
    <g id="Pillow_shadow">
      <path class="fill-pillow-shade stroke-0" d="m110.53,206.08c-1.54,26.45,44.03,32,60.56,22.78,29.1-16.25,5.23-26.89-60.56-22.78Z"/>
    </g>
  </g>
  <g id="Ball">
    <g id="Ball_light">
      <circle class="fill-ball-light stroke-outline miter stroke-3" cx="147.04" cy="174.75" r="49.48"/>
    </g>
    <g id="Ball_shade">
      <g>
        <path class="fill-ball-shade stroke-outline round stroke-2" d="m194.82,184.23c-32.45,4.61-68.45-2.83-85.84-41.79,0,0-9.88,10.73-11.29,26.82,3.63,28.04,46.59,51.11,83.01,41.51,12.42-13.84,14.12-26.54,14.12-26.54Z"/>
      </g>
    </g>
    <g id="Ball_accent_color">
      <g>
        <path class="fill-accent-light stroke-0" d="m192.56,190.45c-36.7,6.39-72.15-5.16-86.68-42.64,0,0-5.36,7.62-6.78,16.66,5.08,27.11,48.78,51.87,85.27,42.07,6.14-9.4,8.19-16.09,8.19-16.09Z"/>
        <path class="fill-black stroke-0" d="m192.43,189.96c-6.95,1.21-14.02,1.8-21.07,1.62-6.69-.17-13.37-1.05-19.83-2.79s-12.33-4.19-17.89-7.57-10.65-7.69-14.94-12.65c-4.68-5.42-8.41-11.63-11.24-18.2-.38-.89-.75-1.78-1.1-2.69-.16-.41-.66-.49-.91-.12-1.89,2.69-3.36,5.73-4.57,8.77-.53,1.33-1,2.69-1.39,4.07-.21.74-.4,1.49-.56,2.25-.14.65-.41,1.42-.29,2.09.35,1.96.95,3.89,1.68,5.74,3.23,8.22,9.27,15.14,16.07,20.64,7.86,6.36,17.02,11.12,26.64,14.2s20.76,4.63,31.27,3.56c2.65-.27,5.29-.69,7.88-1.28.6-.14,1.19-.28,1.78-.43.32-.08.61-.11.83-.37.31-.36.54-.83.79-1.24.86-1.36,1.68-2.74,2.47-4.14,1.86-3.31,3.58-6.77,4.82-10.37.05-.16.11-.31.16-.47.19-.62-.78-.88-.96-.27-1.09,3.57-2.88,6.99-4.68,10.24-1.08,1.95-2.24,3.86-3.46,5.73l.3-.23c-8.51,2.27-17.43,2.67-26.15,1.59s-17.14-3.61-25.02-7.32c-7.36-3.47-14.3-7.99-20.19-13.64-5.13-4.92-9.6-10.82-12-17.58-.27-.77-.52-1.55-.74-2.34-.19-.71-.54-1.6-.53-2.33,0-.56.21-1.18.33-1.72.14-.65.3-1.3.48-1.94.32-1.14.69-2.26,1.1-3.36,1.17-3.1,2.67-6.12,4.49-8.9.1-.15.19-.3.3-.44l-.91-.12c2.67,6.86,6.22,13.35,10.78,19.13,4.18,5.29,9.18,9.91,14.8,13.64s11.52,6.4,17.8,8.33,13.21,3.07,19.97,3.43c7.09.38,14.22-.05,21.24-1.11.9-.14,1.81-.28,2.71-.44.63-.11.36-1.07-.27-.96Z"/>
      </g>
    </g>
    <g id="Ball_highlights">
      <g>
        <path class="fill-white stroke-0" d="m185.53,156.75c-.48-.03-.3,1.78-.23,2.74.1,1.31.11,1.79.52,2.66.48,1.04.61,1.57.89,3.19.32,1.89.55,3.93,1.09,5.48.48,1.36.66-.75.79-1.88.17-1.49.22-2.97-.12-4.64-.16-.78-.39-1.33-.57-2.08-.16-.68-.26-1.37-.44-2.02s-.39-1-.61-1.52c-.2-.47-.35-1.11-1.31-1.93Z"/>
        <path class="fill-white stroke-0" d="m183.52,160.92c-.44-.05-.4,1.26-.4,1.95,0,.95-.02,1.29.3,1.94.37.77.46,1.16.6,2.33.17,1.37.24,2.85.63,3.99.35,1,.66-.51.85-1.3.26-1.06.4-2.12.2-3.34-.09-.57-.27-.97-.38-1.52-.1-.49-.15-.99-.27-1.47s-.29-.74-.46-1.13c-.15-.34-.24-.81-1.07-1.46Z"/>
      </g>
    </g>
  </g>
  </g>
  <g id="Details-2" data-name="Details">
    <path class="fill-none stroke-0" d="m0,0v431.15h288V0H0Z"/>
  </g>
</svg>
