<?xml version="1.0" encoding="UTF-8"?>
<svg id="Layer_1" data-name="Layer 1" xmlns="http://www.w3.org/2000/svg" viewBox="0 0 288 432.19">
  <defs>
    <style>
      .fill-reverse-dark {
        fill: #005157;
      }

      .fill-reverse-light {
        fill: #008d96;
      }
    </style>
  </defs>
  <path class="fill-reverse-light" d="m0,24.55v383.27c0,13.46,10.91,24.37,24.37,24.37h239.27c13.46,0,24.37-10.91,24.37-24.37V24.55c0-13.46-10.91-24.37-24.37-24.37H24.37C10.91.19,0,11.1,0,24.55Z"/>
  <g id="reverse-dark-details" class="fill-reverse-dark">
    <path d="m30.95,0c2.97,1.71,6.09,3.19,8.86,5.17,4.58,3.26,4.75,7.98.6,11.76-1.31,1.2-2.82,2.25-4.4,3.07-4.69,2.44-9.64,1.09-12.54-3.35-2.76-4.22-2.76-8.92-2.02-13.64C21.63,1.94,22.65,1,23.27,0c2.56,0,5.12,0,7.67,0Z"/>
    <path d="m286.69,415.99c-1.51-2.76-4.53-4.7-7.74-4.5-3.13.2-5.69,1.75-7.97,3.76-4.44,3.93-4.72,7.45-.69,11.8.99,1.07,2.11,2.01,3.26,2.94,4.17-2.37,8.12-3.36,13.14-14.01Z"/>
    <path d="m.02,172.29c6.44-2.92,13.14.43,16.36,4.62,2.9,3.78,2.42,7.43-1.46,10.23-3.47,2.51-7.47,3.54-11.67,3.85-1.07.08-2.15.01-3.23.01v-18.72Z"/>
    <path d="m175.52,0c.33,2.44.82,4.87.94,7.33.12,2.34-.55,4.6-1.82,6.62-1.31,2.09-3.03,3.02-5.38,2.39-6.43-1.72-11.15-5.63-13.81-11.75-.58-1.32-.23-3.04-.31-4.58,6.79,0,13.59,0,20.38,0Z"/>
    <path d="m80.34,0c.79,1.52,1.65,3.01,2.36,4.57,1.42,3.14.24,6.2-3.02,7.23-2.29.73-4.73,1.26-7.12,1.37-5.4.27-9.58-3.67-9.95-9.1-.09-1.35,0-2.71,0-4.06C68.51,0,74.42,0,80.34,0Z"/>
    <path d="m.02,383.22c4.3.17,7.91,1.94,10.76,5.06,2.33,2.55,2.53,5.73,1.51,8.91-.87,2.68-2.48,4.9-4.93,6.43-1.29.8-2.52,1.71-3.87,2.39-1.09.55-2.31.82-3.47,1.21,0-8,0-16,0-24Z"/>
    <path d="m221.8,0c.09,1.87.27,3.74.23,5.6-.02,1.09-.29,2.22-.65,3.26-1.16,3.35-3.71,4.87-7.11,3.96-5.62-1.5-10.03-4.77-13.05-9.78-.54-.89-.68-2.02-1-3.04,7.19,0,14.39,0,21.58,0Z"/>
    <path d="m.02,243.56c8.24.51,11.92,10.01,10.55,15.34-.57,2.2-2,3.61-4.15,4-2.1.39-4.26.39-6.39.57,0-6.64,0-13.28,0-19.92Z"/>
    <path d="m.02,82.79c3.31,2.77,6.58,5.61,8.44,9.59,1.17,2.51,1,5.26.01,7.82-.33.85-1.31,1.58-2.16,2.05-1.96,1.1-4.12,1.05-6.29.69v-20.16Z"/>
    <path d="m86.57,432.17c-1.4-.1-2.82-.34-4.21-.25-2.03.13-3.19-.89-3.84-2.58-.39-1.03-.62-2.16-.7-3.26-.24-3.19,1.06-4.78,4.22-5.28,2.01-.32,4.03-.6,6.05-.81.28-.03.82.39.87.67.33,1.81.52,3.64.82,5.45.39,2.37,0,4.39-2.35,5.61-.16.08-.25.3-.38.45h-.48Z"/>
    <path d="m.02,291.55c.91-.77,1.76-1.63,2.75-2.28,1.93-1.25,3.85-.94,5.34.79,1.04,1.21,2.09,2.41,3,3.72,1.09,1.57.89,2.84-.51,4.14-.87.81-1.79,1.57-2.66,2.38-2.43,2.26-4.77,2.22-7.13-.11-.25-.25-.53-.48-.79-.72,0-2.64,0-5.28,0-7.92Z"/>
    <path d="m.02,137.26c1.31-1.46,2.82-2.41,4.84-1.6,2.2.88,3.89,2.34,4.12,4.82.21,2.29.15,4.61.11,6.92,0,.29-.64.85-.95.82-2.06-.18-4.13-.37-6.15-.81-.74-.16-1.33-1-1.98-1.52,0-2.88,0-5.76,0-8.64Z"/>
    <path d="m134.76,0c.62.93,1.22,1.86,1.85,2.77.68,1,.71,2.02.11,3.04-.49.82-1.03,1.61-1.57,2.39-.9,1.31-2.21,1.78-3.66,1.31-1.96-.64-3.87-1.46-5.75-2.3-.36-.16-.64-.8-.72-1.27C124.7,3.84,124.79,1.8,126.13,0,129.01,0,131.89,0,134.76,0Z"/>
    <path d="m202.86,432.17c-.54-.67-1.15-1.31-1.6-2.04-.18-.3-.17-1.02.05-1.21,1.64-1.46,3.33-2.87,5.06-4.22.65-.51,1.41-.93,2.19-1.2,2.55-.89,4.29.01,5.12,2.57.5,1.55,1.05,3.09,1.47,4.67.11.42-.19.95-.29,1.43h-11.99Z"/>
    <path d="m.02,228.68c3.1-1.46,6.09-.63,7.95,2.29.25.4.35,1.14.15,1.53-1.43,2.75-2.91,5.48-4.48,8.16-.53.91-2.63.7-3.61-.22v-11.76Z"/>
    <path d="m94.24,432.17c-.1-1.77-.31-3.55-.28-5.32.03-1.32.9-2.37,2.17-2.53,2.01-.24,4.07-.25,6.1-.14.51.03,1.34.83,1.41,1.36.27,2.19.31,4.42.44,6.63h-9.83Z"/>
    <path d="m219.16,432.17c.72-.82,1.35-1.78,2.19-2.44,3.45-2.71,7.44-3.58,11.73-3.03,2.98.38,4.82,2.58,4.78,5.47h-18.7Z"/>
    <path d="m189.67,0c-.39,3.1-2.13,5.44-4.3,7.5-.32.31-1.01.54-1.4.41-1.5-.5-2.96-1.12-4.4-1.79-.27-.12-.44-.65-.48-1.01-.18-1.7-.31-3.4-.45-5.11,3.68,0,7.35,0,11.03,0Z"/>
    <path d="m.02,196.29c1.87-.15,3.74-.29,5.6-.47.94-.09,1.29.21,1.18,1.21-.22,1.94-.26,3.9-.5,5.84-.25,2.04-.9,2.69-2.95,3.01-1.1.18-2.22.17-3.34.24,0-3.28,0-6.56,0-9.84Z"/>
    <path d="m.02,156.46c1.45.35,2.94.61,4.34,1.09.38.13.82.97.75,1.4-.51,3.1-1.1,6.19-1.78,9.26-.26,1.17-1.98,1.48-3.31.73,0-4.16,0-8.32,0-12.48Z"/>
    <path d="m59.48,0c-.42,1.62-.82,3.24-1.27,4.85-.29,1.06-2.02,1.92-2.98,1.39-1.67-.92-3.43-1.77-4.86-2.98C49.46,2.49,49.07,1.11,48.45,0c3.68,0,7.35,0,11.03,0Z"/>
    <path d="m149.87,0c-.16.53-.28,1.08-.5,1.59-1.8,4.22-3.45,4.76-7.32,2.42-.55-.33-1.06-.74-1.65-.98-1.4-.57-1.87-1.63-1.8-3.04C142.36,0,146.11,0,149.87,0Z"/>
    <path d="m35.74,432.17c.69-.8,1.25-2.05,2.11-2.31,2.56-.8,5.23-1.22,7.87-1.74.15-.03.53.32.56.53.2,1.17.33,2.35.49,3.53h-11.03Z"/>
    <path d="m232.59,0c-.69,1.23-1.31,2.51-2.1,3.67-.18.27-.99.32-1.4.18-1.35-.47-2.75-.93-3.94-1.7-.55-.35-.65-1.41-.95-2.15,2.8,0,5.59,0,8.39,0Z"/>
    <path d="m.02,210.69c.18.07.39.12.54.23,2.47,1.84,2.12,8.01-.54,9.61,0-3.28,0-6.56,0-9.84Z"/>
    <path d="m95.14,18.16c5.79.01,9.84,3.89,10.18,9.74.03.5.17.99.25,1.49.39-.37.82-.69,1.15-1.1,1.14-1.44,2.19-2.96,3.39-4.35,1.4-1.62,3.17-2.56,5.41-2.17,2.52.45,3.91,2.59,3.28,5.18-.72,2.95-2.64,5.08-5.03,6.78-.41.29-1.34.17-1.88-.08-1.77-.82-3.49-1.77-5.2-2.72-.94-.52-1.32-.35-1.44.76-.29,2.53-1,4.93-2.5,7.04-1.28,1.8-2.98,2.43-5.12,1.99-5.36-1.09-12.4-8.07-13.49-13.39-.59-2.9.35-5.18,2.82-6.82,2.16-1.44,5.36-2.36,8.18-2.35Z"/>
    <path d="m109.85,176.6c-.34-2.68-.9-5.36-.96-8.05-.1-4.98,2.79-7.15,7.61-6.04,4.83,1.12,8.97,3.55,12.59,6.84,2.62,2.38,2.8,4.89.74,7.79-2.34,3.3-5.52,5.53-9.38,6.68-3.45,1.03-6.18.02-8.25-2.93-.55-.78-1.05-1.61-1.42-2.49-.49-1.16-.89-.95-1.5-.11-1.21,1.69-2.42,3.38-3.71,5-1.15,1.44-2.54,2.53-4.55,2.5-2.52-.03-4.32-1.93-4.05-4.44.34-3.17,2.01-5.69,4.1-7.95.29-.32,1.24-.32,1.72-.11,1.86.81,3.66,1.78,5.49,2.67.5.24,1.02.43,1.54.64,0,0,.03-.03.03-.03Z"/>
    <path d="m119.01,226.71c.08,2.39-1,4.33-2.41,6.12-.78.99-.55,1.29.6,1.44,2.02.26,4.06.49,6.03.96,1.21.29,2.48.8,3.42,1.57,2.48,2.04,1.88,5.71-1.09,6.93-2.95,1.21-5.97.86-8.93.03-.38-.11-.79-.89-.82-1.38-.15-2.19-.16-4.39-.24-6.59-.01-.38-.11-.76-.17-1.15-.34.24-.68.48-1.03.71-2.08,1.39-4.05,3.04-6.28,4.1-4.01,1.9-6.95.37-8.15-3.89-1.36-4.82-1.14-9.67.01-14.47.87-3.64,3.05-5.01,6.75-4.46,4.35.66,8.09,2.55,10.84,6.01.87,1.09,1.23,2.59,1.82,3.9-.12.05-.24.11-.36.16Z"/>
    <path d="m270.54,191.98c-.36,0-.72.02-1.08,0-4.65-.23-6.76-2.41-6.45-7.02.41-6.09,2.62-11.52,6.86-15.95,3.36-3.51,7.39-3.71,10.95-.43,1.84,1.7,3.49,3.78,4.71,5.97,2.54,4.59,1.15,9.85-3.24,13.34-3.43,2.72-7.38,4.05-11.75,4.1Z"/>
    <path d="m52.33,134.14c.55-1.98.89-4.04,1.69-5.91,1.02-2.36,2.84-3.23,5.38-2.79,5.78,1,10.5,3.92,14.29,8.34,1.89,2.21,1.91,4.69.46,7.13-2.06,3.48-5.15,5.7-9.02,6.64-3.58.87-6.4-.83-8.74-3.34-2.6-2.78-3.75-6.17-4.07-10.08Z"/>
    <path d="m96.2,299.35c.49-2.64.78-5.4,1.55-8.02,1.28-4.35,3.96-5.81,8.42-4.95,3.06.6,5.71,2.03,7.9,4.24,2.46,2.49,2.64,5.53,1.81,8.71-1.46,5.62-6.81,10.1-12.58,10.63-2.98.28-5.02-.9-5.84-3.79-.62-2.17-.84-4.45-1.26-6.82Z"/>
    <path d="m209,116.04c.12-4.5,1.24-8.71,3.7-12.49,2.32-3.55,4.69-4.21,8.31-2.02,1.95,1.18,3.82,2.67,5.34,4.37,3.8,4.26,3.76,8.92.15,13.35-2.72,3.33-6.29,5.12-10.56,5.46-3.71.3-6.35-2.26-6.82-6.51-.08-.71-.08-1.44-.12-2.15Z"/>
    <path d="m239.96,263.44c6.52.01,9.33,3.59,7.63,9.89-1.24,4.59-3.73,8.47-7.35,11.56-3.24,2.77-5.73,2.61-8.67-.43-2.03-2.1-3.49-4.55-4.41-7.33-1.15-3.45-.36-6.49,2.01-9.12,2.87-3.19,6.57-4.55,10.8-4.58Z"/>
    <path d="m58.04,189.44c.09-3.97.95-7.77,2.82-11.29,2.95-5.57,7.52-6.51,12.4-2.56.9.73,1.75,1.53,2.52,2.38,3.59,3.94,3.64,9.27.07,13.25-2.82,3.14-6.34,5.07-10.56,5.62-4.78.62-7.07-1.35-7.25-6.2-.01-.4,0-.8,0-1.2Z"/>
    <path d="m198.03,168.99c-.72,1.4-1.14,3.02-2.16,4.03-2.78,2.76-6.36,4.02-10.23,3.96-3.78-.06-6.5-2.13-8.06-5.51-2.06-4.47-2.1-9.08-.19-13.62,1.54-3.67,4.1-4.72,7.74-3.19,4.66,1.96,8.38,5.13,11,9.45.85,1.39,1.21,3.07,1.9,4.88Z"/>
    <path d="m210.83,202.01c-.07,2.72-1.3,6.37-3.96,9.46-2.51,2.91-5.23,3.24-8.17.79-4.27-3.56-7.14-8.07-8.12-13.61-.74-4.23,1.29-7.26,5.51-8.11,1.97-.4,4.06-.56,6.06-.39,5.48.45,8.75,4.52,8.68,11.87Z"/>
    <path d="m155.77,389.29c-2.83.01-5.47-.62-7.8-2.29-2.6-1.86-3.51-4.43-2.29-7.35,2.25-5.39,6.03-9.48,11.21-12.17,2.45-1.28,4.5-.86,6.41,1.18,3.37,3.57,4.55,7.93,3.99,12.72-.26,2.25-1.78,3.89-3.51,5.26-2.31,1.84-4.85,2.66-8.02,2.65Z"/>
    <path d="m246.2,37.43c.12-4.46,1.07-7.73,3.74-10.31,1.5-1.45,3.33-2.27,5.42-2.14,5.11.3,9.41,2.4,12.68,6.35,1.97,2.38,2.08,4.99.11,7.36-4.16,5-9.75,7.04-16.11,6.96-2.55-.03-4.22-1.64-4.95-4.03-.5-1.62-.71-3.34-.88-4.19Z"/>
    <path d="m103.66,345.69c-.14,3.74-2.13,7.8-5.87,10.95-2.75,2.31-5.75,2.29-8.3-.24-4.31-4.28-6.3-9.57-5.95-15.64.16-2.89,1.57-4.41,4.37-5.17,3.19-.87,6.41-.85,9.6-.02,4.17,1.09,6.19,4.09,6.15,10.12Z"/>
    <path d="m36.79,88.49c4.83.24,8.48.83,11.7,2.95,2.48,1.62,3.22,3.35,2.64,6.24-.76,3.71-2.57,6.86-5.3,9.48-1.95,1.87-4.32,2.15-6.82,1.64-5.68-1.16-10.95-7.41-11.22-13.23-.14-2.88.84-4.74,3.54-5.74,2.06-.77,4.3-1.06,5.46-1.33Z"/>
    <path d="m179.2,327.46c2.03.38,4.11.57,6.06,1.17,2.5.77,3.82,2.71,3.9,5.33.13,4.17-1.13,7.89-4.01,10.95-3.14,3.34-7.1,3.91-11.09,1.67-3.06-1.72-5.49-4.11-7.22-7.16-2.38-4.19-1.31-7.67,3.01-9.83,2.93-1.46,6.08-1.87,9.35-2.13Z"/>
    <path d="m203.24,295.09c3.85.2,7.64,2.36,10.95,5.35,1.46,1.31,2.66,2.96,3.74,4.61,1.04,1.59.91,3.37-.14,4.98-2.28,3.52-5.44,5.93-9.45,7.13-2.79.84-5.28-.08-7.25-2.04-4.28-4.28-5.61-9.57-4.54-15.41.58-3.22,2.6-4.59,6.68-4.61Z"/>
    <path d="m242.23,83.36c-4.94-.28-9.36-1.59-13.18-4.57-2.53-1.97-3.07-3.98-1.93-6.99,1.1-2.94,2.89-5.41,5.28-7.45,2.75-2.35,5.81-2.69,8.92-1.03,5.13,2.73,7.94,7.24,8.72,12.89.53,3.83-1.3,6.06-5.1,6.83-.93.19-1.9.23-2.71.32Z"/>
    <path d="m231.9,152.97c-.13.99-.25,2.96-.66,4.86-.79,3.67-3.24,5.49-6.97,5.04-5.21-.63-9.02-3.49-11.05-8.26-.67-1.58-.59-3.74-.17-5.48.96-3.98,3.36-7.14,6.87-9.3,1.13-.69,2.47-1.14,3.78-1.39,2.71-.51,4.53.44,5.84,2.89,1.77,3.33,2.28,6.95,2.36,11.63Z"/>
    <path d="m156.6,84.06c-2.97,0-5.5-.59-7.78-2.08-2.46-1.61-3.38-3.63-2.65-6.48,1.39-5.47,4.43-9.9,9.07-13.1,3.13-2.16,6.39-1.5,8.61,1.56,2,2.76,3.31,5.86,3.53,9.29.38,5.86-3.51,10.23-9.38,10.74-.56.05-1.12.06-1.4.07Z"/>
    <path d="m53.52,428.11c-3.97-.16-6.95-1.72-8.58-5.3-1.85-4.08-2-8.28-.41-12.47,1.28-3.38,4.02-4.94,7.54-4.08,5.98,1.46,10.18,5.31,13.07,10.61,1.04,1.92.74,3.94-.67,5.62-2.89,3.44-6.59,5.35-10.95,5.63Z"/>
    <path d="m132.5,250.87c3.38-.11,6.47.61,8.87,3.15,2.46,2.6,2.95,5.81,2.4,9.17-.63,3.81-2.32,7.12-5.16,9.8-2.17,2.04-4.27,2.38-6.56.54-5.1-4.09-8.21-9.35-8.32-16.03-.06-3.92,1.66-5.78,5.54-6.39,1.06-.17,2.15-.17,3.22-.24Z"/>
    <path d="m158.36,153.54c-.05,4.53-2.34,6.85-6.88,6.73-4.16-.11-7.78-1.68-10.82-4.51-1.64-1.52-2.47-3.43-2.31-5.69.35-4.92,2.31-9.13,5.97-12.43,2.84-2.57,6.18-2.3,8.65.64,2.99,3.54,4.12,7.88,5.03,12.3.2.97.24,1.98.36,2.97Z"/>
    <path d="m154.76,319.43c-5.42.04-7.56-1.64-7.76-6.02-.13-2.82.15-5.79.95-8.48,1.47-4.97,6.04-7.3,11.07-6.08,3.69.9,6.73,2.91,9.08,5.9,2.36,3.01,2.28,5.63-.35,8.37-3.82,3.98-8.55,6.04-12.99,6.31Z"/>
    <path d="m68.23,237.04c-2.33-.58-4.64-.9-6.76-1.74-2.82-1.11-3.87-3.63-3.19-6.58.1-.43.2-.87.4-1.25,2.67-5.36,6.69-9.45,12.01-12.13,2.82-1.42,5.51-.62,7.24,2.04,2.91,4.5,3.23,9.35,1.38,14.34-.65,1.74-2.01,2.97-3.73,3.51-2.37.74-4.84,1.2-7.34,1.8Z"/>
    <path d="m147.53,53.99c-5.71-.02-8.41-2.68-8.41-7.65,0-3.46,1-6.62,3.09-9.4,1.66-2.21,3.82-3.57,6.66-3.32,5.08.44,9.27,2.66,12.32,6.76,2.31,3.11,1.82,6.47-1.19,8.92-3.83,3.13-8.39,4.32-12.47,4.69Z"/>
    <path d="m77.97,67.75c.02,4.13-2.07,6.39-6.21,6.36-4.91-.03-9.46-1.58-13.49-4.33-3.58-2.44-4.31-6.81-1.76-10.3,1.3-1.78,2.94-3.37,4.65-4.76,3.9-3.17,9.46-1.66,12.25,1.41,2.4,2.65,4.54,8.04,4.56,11.61Z"/>
    <path d="m42.51,341.76c-.15.77-.25,2.02-.63,3.18-1.08,3.29-3.77,5.25-7.19,4.89-2.26-.24-4.55-.87-6.67-1.7-5.21-2.03-6.33-7.96-4.89-11.58,1.64-4.13,4.35-7.45,8.23-9.66,3.34-1.91,6.3-1.05,8.26,2.28,2.2,3.74,2.55,7.93,2.9,12.6Z"/>
    <path d="m200.5,55.98c-5.34-.21-9.53-1.22-13.27-3.66-2.84-1.86-3.45-3.66-2.36-6.86,1.14-3.37,3.15-6.18,5.88-8.44,2.34-1.93,5.01-2.14,7.79-1.15,3.21,1.14,5.42,3.46,7.05,6.35,1.37,2.42,2.32,4.98,2.39,7.82.05,2.42-1.04,4.12-3.25,4.92-1.63.59-3.37.83-4.22,1.02Z"/>
    <path d="m200.3,240.17c-.25-.02-.88-.08-1.52-.15-4.64-.55-6.71-3.11-5.89-7.73,1.03-5.78,3.99-10.49,8.69-14.01,2.48-1.86,4.52-1.71,6.82.32,2.64,2.32,4.47,5.22,5.39,8.61,1.19,4.39-.71,8.45-4.95,10.87-2.37,1.35-5.25,2.09-8.53,2.09Z"/>
    <path d="m141.09,359.32c-1.66-.22-3.35-.32-4.98-.68-4.3-.96-6.2-3.54-5.66-7.9.54-4.43,2.7-7.99,6.47-10.46,2.3-1.51,4.79-1.74,7.31-.61,4.19,1.88,7.26,4.93,8.99,9.19,1.53,3.8.3,7.18-3.5,8.69-2.69,1.07-5.67,1.43-8.51,2.11-.04-.11-.07-.23-.11-.34Z"/>
    <path d="m228.52,342.26c-.01-7.31,3-9.77,9.23-8.17,4.79,1.23,8.89,3.74,12.01,7.65,1.87,2.36,1.87,4.33.12,6.8-2.04,2.86-4.7,4.99-7.93,6.37-3.74,1.59-7.67.3-10.37-3.38-2.21-3.01-3-6.48-3.05-9.27Z"/>
    <path d="m273.61,141.91c-.27,5.12-1.31,9.43-3.87,13.26-2.29,3.42-4.51,4.13-8,2.03-2.25-1.35-4.39-3.11-6.07-5.11-3.28-3.9-3-8.7.39-12.53,2.85-3.23,6.5-4.97,10.76-5.38,3.1-.3,5.15,1.07,6.07,4.07.41,1.36.56,2.8.72,3.66Z"/>
    <path d="m95.43,134.37c.06-2.57.61-5.45,2.31-8,1.82-2.73,4.08-3.52,7.02-2.13,5.7,2.7,9.58,7.11,11.34,13.2.98,3.38-.35,6.11-3.53,7.63-2.78,1.33-5.72,1.95-8.83,1.61-2.83-.32-4.92-1.76-6.33-4.2-1.37-2.37-1.97-4.95-1.98-8.12Z"/>
    <path d="m255.86,404.09c-6.94.29-10.3-5.65-10.36-10.19-.05-4.2,1.11-7.98,3.85-11.18,2.37-2.76,5.01-3.12,7.93-.95,4.47,3.31,7.35,7.75,8.5,13.2.88,4.13-1.04,7.18-5.11,8.31-1.56.43-3.21.56-4.82.82Z"/>
    <path d="m17.1,116.37c6.3-.1,8.39,2.29,7.42,8.58-.25,1.64-.68,3.3-1.3,4.84-2.08,5.16-6.42,7.32-11.81,5.91-4-1.04-7.12-3.39-9.4-6.81-1.82-2.73-1.55-5.31.83-7.58,3.5-3.35,7.94-4.44,12.59-4.94.55-.06,1.12,0,1.68,0Z"/>
    <path d="m43.72,222.99c-.01.26-.02.82-.08,1.37-.37,3.44-2.26,5.45-5.69,5.7-5.35.39-10.24-1.07-14.42-4.44-3.78-3.05-4.05-6.74-.7-10.23,1.72-1.79,3.71-3.44,5.84-4.7,3.86-2.29,7.73-1.6,10.94,1.56,2.58,2.54,4.12,6.44,4.12,10.74Z"/>
    <path d="m171.57,129.18c-3.55-.07-6.73-.95-9.43-3.2-2.13-1.78-2.85-3.99-1.85-6.55,2.18-5.58,6.11-9.53,11.74-11.57,3.88-1.41,6.75-.11,8.18,3.76.9,2.44,1.56,5.08,1.71,7.66.31,5.54-3.12,9.23-8.66,9.8-.59.06-1.2.07-1.69.1Z"/>
    <path d="m68.61,274.94c.42-4.97,2.14-10.02,6.22-14.03,2.56-2.51,5.66-2.78,8.59-.7,2.38,1.7,4.2,3.92,5.4,6.6,1.56,3.48.82,6.65-1.55,9.48-3.06,3.65-7.04,5.58-11.76,5.88-4.65.29-6.94-1.97-6.89-7.23Z"/>
    <path d="m211.36,393.49c-5.69-.05-9.18-2.99-9.99-8.67-.54-3.84.12-7.51,2.06-10.88,2.28-3.98,5.72-4.82,9.47-2.22,4.13,2.87,7.03,6.76,8.53,11.56,1.49,4.76-.6,8.34-5.46,9.52-1.5.37-3.07.46-4.6.68Z"/>
    <path d="m25.76,86.38c-3.9,0-6.09-1.44-6.97-4.57-1.35-4.75-.6-9.19,2.55-13.1,1.51-1.89,3.54-2.94,5.94-2.89,5.34.11,9.69,2.31,12.64,6.82,2.18,3.34,1.48,6.83-1.68,9.24-3.84,2.94-8.35,4.05-12.47,4.5Z"/>
    <path d="m265.06,203.7c-.32,2.58-.47,4.74-.89,6.84-.28,1.39-.81,2.77-1.48,4.03-1.5,2.85-4,3.91-7.05,2.94-4.42-1.4-7.66-4.29-9.51-8.53-.55-1.26-.64-2.93-.38-4.31.94-5.09,6.35-10.41,11.24-11.35,3.41-.65,6,.73,6.96,4.07.63,2.16.8,4.46,1.11,6.3Z"/>
    <path d="m87.54,409.13c-.05-2.73.48-5.33,2.01-7.64,1.89-2.87,4.88-3.98,8.04-2.66,5.02,2.09,8.69,5.78,11.12,10.6,1.2,2.38.7,4.74-1.15,6.64-3.62,3.72-8.07,5.11-13.13,4.07-4.05-.83-6.53-4.39-6.87-9.45-.04-.52,0-1.04,0-1.56Z"/>
    <path d="m43.45,376.92c-.09-2.9,1.2-5.1,3.56-6.66,3.49-2.32,7.44-2.73,11.49-2.56.26.01.56.12.78.27,1.68,1.15,3.4,2.25,5,3.51,1.8,1.41,2.16,2.98,1.42,5.13-1.78,5.2-5.17,9.01-10.01,11.53-4.25,2.22-8.46.89-10.34-3.48-1.04-2.42-1.54-5.07-2.29-7.62.13-.04.26-.07.39-.11Z"/>
    <path d="m82.24,312.95c-.01,3.47-.34,5.77-2.03,7.66-1.64,1.83-3.7,2.79-6.11,2.23-2.31-.53-4.66-1.18-6.79-2.2-4.06-1.96-5.47-5.15-4.62-9.62.62-3.26,1.82-6.5,4.26-8.56,2.46-2.08,5.74-3.42,9.19-2.8.95.17,1.91,1.29,2.52,2.21,2.43,3.66,4.11,7.58,3.57,11.08Z"/>
    <path d="m75.24,121.44c-5.28.36-9.28-1.83-12.8-4.88-2.66-2.3-2.87-6.01-.89-8.93,1.69-2.49,3.89-4.43,6.53-5.89,2.67-1.47,5.32-1.23,7.87.27,3.49,2.05,5.58,5.29,7.23,8.87.11.24.15.55.12.81-.25,1.98-.42,3.98-.81,5.93-.54,2.7-1.83,3.69-4.59,3.8-1,.04-2,0-2.64,0Z"/>
    <path d="m173.93,278.6c-3.45-.01-4.13-.47-5.21-3.25-1.51-3.86-1.55-3.87-.52-8.88.44-2.15.98-4.3,1.73-6.35,1.68-4.63,5.74-6.23,9.98-3.75,2.06,1.2,4.03,2.8,5.58,4.61,3.71,4.32,2.27,11.76-2.71,14.9-2.83,1.78-5.98,2.61-8.84,2.72Z"/>
    <path d="m267.76,101.05c.31-.9.6-2.7,1.49-4.14,2.35-3.82,5.95-6.04,10.26-7.11,1.48-.37,2.77-.01,3.72,1.26,1.08,1.44,2.16,2.87,3.24,4.31.12.15.23.35.24.54.17,2.71.41,5.42.46,8.13.03,1.62-.02,3.3-.42,4.86-.82,3.16-3.75,5.08-6.94,4.49-2.09-.38-4.17-1.07-6.13-1.93-4.11-1.79-5.6-5.32-5.9-10.41Z"/>
    <path d="m36.85,267.83c.03-.72.04-1.44.1-2.15.46-5.65,4.27-9,9.92-8.37,4.32.48,8.06,2.41,11.13,5.55.97,1,1.26,2.12.74,3.4-.78,1.92-1.62,3.82-2.44,5.72-.08.18-.21.43-.36.46-2.65.52-4.16,2.95-6.56,3.92-1.32.53-2.52,1.4-3.84,1.93-3.21,1.29-5.77.4-7.08-2.79-.98-2.39-1.37-5.02-2.02-7.54.14-.04.27-.07.41-.11Z"/>
    <path d="m120.97,98.12c3.69.29,7.7,2.02,10.95,5.26,2.56,2.55,2.8,6.85.55,10.34-2.45,3.79-5.97,6.27-10.3,7.57-1.36.41-2.54.12-3.46-.98-1.27-1.54-2.51-3.1-3.75-4.67-.14-.18-.26-.42-.27-.64-.16-2.79-.34-5.58-.42-8.37-.04-1.43-.02-2.89.2-4.29.46-2.92,2.29-4.23,6.5-4.22Z"/>
    <path d="m109.08,386.28c.05-1.89.16-4.52,1.87-6.68,2.45-3.09,5.83-3.65,9.42-2.97,3.5.67,6.6,2.33,9.28,4.73,1.49,1.34,1.95,2.84,1.1,4.71-.73,1.6-1.42,3.21-2.13,4.82-.1.21-.22.47-.4.58-2.84,1.71-5.68,3.43-8.55,5.08-.82.47-1.73.83-2.64,1.11-2.58.79-4.52.03-5.96-2.25-1.3-2.06-1.98-4.94-1.98-9.13Z"/>
    <path d="m133.44,394.95c3.05.64,6.7,1.41,9.15,4.73,1.56,2.12,3.22,4.16,4.78,6.28,1.02,1.38.93,2.78-.09,4.2-2.34,3.27-5.38,5.6-9.27,6.57-1.04.26-2.54.06-3.38-.55-2.36-1.73-4.5-3.77-6.69-5.73-.33-.3-.53-.82-.63-1.27-.77-3.43-1.09-6.87.1-10.27.93-2.68,2.71-3.96,6.02-3.95Z"/>
    <path d="m244.62,302.12c-.78,3.17-1.5,6.16-2.28,9.13-.09.35-.54.71-.9.88-2.16,1.05-4.34,2.04-6.51,3.05-.11.05-.22.09-.33.13-4.35,1.65-5.85,1.01-7.61-3.29-.71-1.74-1.37-3.5-2.01-5.26-.1-.28-.07-.87.08-.94,1.09-.49.88-1.46,1.04-2.35.42-2.39.76-4.83,1.49-7.14.97-3.06,3.15-4.17,6.29-3.45,3.93.89,7.1,3.06,9.5,6.26.63.84.85,1.99,1.25,2.97Z"/>
    <path d="m215.12,94.14c-3.25-.01-6.19-1.03-8.96-2.67-1.69-1-2.62-2.45-2.78-4.37-.21-2.59-.37-5.18-.47-7.78-.02-.45.25-1.04.58-1.36,1.9-1.77,3.84-3.5,5.82-5.18.66-.56,1.45-1.01,2.23-1.38,1.61-.77,3.15-.62,4.35.79,1.74,2.03,3.4,4.13,5.07,6.22.14.18.21.65.11.73-1.01.81-.41,1.72-.28,2.64.28,1.94.57,3.88.69,5.83.28,4.46-1.79,6.53-6.37,6.52Z"/>
    <path d="m14.89,299.06c.64-2.93,1.21-5.58,1.81-8.23.05-.24.27-.56.47-.62,4.62-1.43,9.25-2.85,13.89-4.19.28-.08,1.02.4,1.09.72.77,3.55,1.85,7.1,2.04,10.7.2,3.8-1.31,7.36-3.83,10.3-1.15,1.34-2.86,1.35-4.47.97-3.99-.96-7.27-3.09-9.65-6.43-.68-.96-.94-2.22-1.34-3.21Z"/>
    <path d="m108.18,65.78c.65.27,1.82.53,2.71,1.18,2.03,1.48,3.92,3.14,5.85,4.74.18.15.36.48.33.69-.87,4.56-1.82,9.11-2.65,13.68-.24,1.3-.71,1.5-1.91,1.11-3.11-1.01-6.29-1.83-9.39-2.86-.97-.32-1.93-.95-2.66-1.68-1.44-1.43-2.86-2.92-4.04-4.56-1.88-2.62-1.63-4.82.6-7.1,2.93-2.98,6.46-4.76,11.16-5.22Z"/>
    <path d="m160.9,213.63c0-5.01,0-5.09,4.87-5.08,2.94,0,5.92.05,8.82.48,3.46.51,5.73,2.89,7.18,5.94.38.79.25,1.98-.01,2.89-.55,1.93-1.71,3.5-3.45,4.58-.85.53-1.66,1.1-2.5,1.65-4.78,3.11-8.81,2.48-12.82-2.74-1.72-2.24-2.14-4.94-2.09-7.72Z"/>
    <path d="m287.68,360.66c0,2.64.05,5.27-.04,7.91-.02.54-.47,1.29-.94,1.56-2.07,1.19-4.3,1.23-6.45.28-4.36-1.92-7.5-5.12-9.24-9.56-1.48-3.77-.19-6.81,3.5-8.47,3.94-1.77,8.08-1.62,12.23-1.05.37.05.89.85.91,1.31.09,2.67.04,5.35.04,8.03Z"/>
    <path d="m287.69,234.07c0,3.36-.03,6.71.02,10.07.02,1-.4,1.64-1.31,1.61-1.15-.03-2.53,0-3.41-.6-5.47-3.7-8.77-8.9-9.56-15.48-.41-3.42,1.41-6.11,4.73-6.82,2.64-.57,5.44-.41,8.17-.49.99-.03,1.53.57,1.37,1.64,0,.04,0,.08,0,.12,0,3.32,0,6.63,0,9.95Z"/>
    <path d="m156.76,183.84c-.22,1.54-.31,3.11-.68,4.6-.98,3.93-3.75,6.03-7.79,5.86-3.68-.15-6.81-1.67-9.32-4.35-2.01-2.16-2.14-4.1-.43-6.5,2.5-3.5,5.87-5.88,10-7.06,4.91-1.4,7.91.89,8.04,5.97.01.48,0,.96,0,1.44.06,0,.12.02.18.02Z"/>
    <path d="m43.95,165.37c-.05.6-.06,1.2-.15,1.79-.97,6.22-4.87,9.07-11.11,8.12-2.95-.45-5.68-1.37-7.57-3.89-1.38-1.83-1.55-3.56-.23-5.44,3.24-4.62,7.81-7.22,13.29-8.2,1.64-.29,3.03.52,4.04,1.87,1.28,1.7,1.77,3.64,1.73,5.75Z"/>
    <path d="m245.11,253.43c-3.46,0-5.11-1.58-5.37-5.05-.32-4.31.61-8.34,2.59-12.14,1.74-3.34,4.46-4.25,7.81-2.52,3.7,1.92,5.74,5.09,6.33,9.18.11.8-.04,1.69-.29,2.47-1.34,4.24-6.63,8.06-11.07,8.05Z"/>
    <path d="m287.68,281.92c0,2.64.05,5.28-.04,7.91-.02.5-.45,1.23-.88,1.44-2.42,1.15-4.98,1.7-7.67,1.48-2.72-.22-4.62-1.67-5.22-4.33-.91-3.97-.59-7.9,1.1-11.61,2.38-5.22,8.17-5.53,12.02-4.23.34.12.67.85.68,1.3.06,2.68.03,5.36.03,8.03Z"/>
    <path d="m287.68,329.71c0,2.76.06,5.51-.04,8.27-.02.58-.48,1.45-.96,1.65-1.78.74-3.62,1.5-5.51,1.8-2.36.37-4.27-.81-5.27-2.96-2.01-4.34-2.46-8.91-.57-13.36,2.08-4.88,6.8-6.2,11.49-5.3.35.07.81.83.82,1.28.07,2.87.04,5.75.04,8.63Z"/>
    <path d="m287.69,55.53c0,3.16-.03,6.31.02,9.47.02,1.05-.4,1.43-1.38,1.47-3.97.15-7.6-.87-10.82-3.2-2.66-1.92-3.42-4.26-2.08-7.24,2.5-5.54,6.74-9.22,12.54-11.05,1.54-.49,1.72-.28,1.72,1.32,0,3.08,0,6.15,0,9.23Z"/>
    <path d="m168.04,387.44c1.47-.18,2.93-.38,4.4-.55,3.19-.36,4.83.8,5.51,3.94.54,2.51.43,4.93-1.65,6.75-2.12,1.86-4.66,1.93-7.25,1.24-1.35-.36-2.23-1.32-2.39-2.71-.18-1.5-.14-3.03-.27-4.54-.09-.99-.19-2.01-.51-2.94-.37-1.06-.13-1.4.95-1.27.39.05.8,0,1.2,0,0,.02,0,.05,0,.07Z"/>
    <path d="m148.79,283.63c2.21.03,4.14.9,5.36,2.68.62.9.9,2.38.66,3.45-.57,2.51-1.53,4.94-2.39,7.38-.05.14-.58.25-.81.17-1.76-.65-3.49-1.37-5.24-2.03-3.16-1.18-4.23-2.73-3.83-5.61.48-3.45,2.69-5.82,5.66-6.04.2-.02.4,0,.6,0Z"/>
    <path d="m124.59,60.43c0,1.95-.9,3.33-2.77,3.85-1.68.47-3.41.83-5.14,1.09-1.75.26-2.88-.46-3.32-2.03-.46-1.64-.88-3.31-1.17-4.99-.39-2.22.54-3.79,2.59-4.71,5.22-2.34,9.8.83,9.81,6.79Z"/>
    <path d="m14.22,56.97c.57-1.47.95-3.05,1.74-4.39,1.11-1.88,2.97-2.64,5.14-2.26,1.08.19,2.17.56,3.16,1.05,2.7,1.34,3.37,3.06,2.4,5.91-.69,2.04-1.43,4.06-2.2,6.07-.08.2-.56.45-.75.38-2.21-.8-4.42-1.61-6.59-2.5-1.82-.75-2.68-2.19-2.9-4.27Z"/>
    <path d="m48.46,154.62c-.02-1.73.71-3.07,2.32-3.7,2.11-.82,4.28-1.49,6.45-2.17.2-.06.69.27.8.53.73,1.59,1.36,3.23,2.07,4.82,1.24,2.77,1.09,4.45-.6,6.02-2.24,2.08-4.95,2.51-7.36,1.18-2.31-1.27-3.69-3.77-3.69-6.68Z"/>
    <path d="m102.44,11.59c0-3.43,2.01-5.47,4.84-4.72,2.92.77,5.62,2.34,8.4,3.62.16.07.22.74.08,1-1.05,1.93-2.1,3.86-3.29,5.69-.33.5-1.1.83-1.73,1-1.3.36-2.64.6-3.97.82-2,.33-3.06-.36-3.47-2.34-.38-1.87-.64-3.77-.86-5.07Z"/>
    <path d="m132.63,296.04c0,2.98-2.13,5.92-4.95,6.84-1.43.46-2.72.13-3.8-.82-1.63-1.46-3.19-3.01-4.74-4.56-.14-.14-.12-.67.03-.86,1.1-1.41,2.29-2.76,3.39-4.17,1.85-2.37,3.35-3.02,5.48-2.32,2.94.98,4.58,3.08,4.58,5.88Z"/>
    <path d="m180.64,364.52c-2.51-.32-4.71-1.7-5.98-4.19-.41-.81-.37-2.29.12-3.05,1.36-2.13,3.04-4.06,4.65-6.03.16-.19.8-.24,1.03-.08,1.86,1.3,3.8,2.52,5.47,4.04,2.03,1.86,2.05,3.75.4,5.96-1.35,1.81-2.94,3.27-5.69,3.34Z"/>
    <path d="m248.59,9.89c.86.38,2.62.99,4.21,1.91,1.3.75,1.69,2.22,1.25,3.6-.75,2.31-1.7,4.55-2.65,6.78-.12.29-.83.6-1.14.49-2.23-.73-4.51-1.39-6.61-2.41-2.09-1.02-2.6-2.72-1.95-4.96.99-3.42,3.19-5.43,6.89-5.41Z"/>
    <path d="m110.84,198.92c-2.17-.12-3.96-1.43-5.14-3.62-.37-.7-.65-1.46-.85-2.23-.75-2.78-.11-4.24,2.57-5.33,1.88-.76,3.85-1.28,5.81-1.82.31-.09.96.18,1.1.46.77,1.53,1.42,3.12,2.12,4.68,1.77,3.98-.8,7.84-5.61,7.85Z"/>
    <path d="m135.07,226.29c-.12,2.42-1.71,4.7-4.39,6.07-.83.42-2.4.37-3.11-.16-2.03-1.52-3.8-3.37-5.63-5.15-.18-.17-.16-.79,0-1.02,1.11-1.51,2.27-2.98,3.46-4.44,1.64-2.01,3.16-2.49,5.24-1.75,2.91,1.04,4.43,3.01,4.42,6.44Z"/>
    <path d="m133.62,328.87c.04-2.61,2.54-5.86,4.95-6.47,2.48-.62,6.27.96,7.33,3.38.44,1,.49,2.6-.03,3.5-1.34,2.28-3.08,4.33-4.71,6.44-.14.18-.76.22-.98.07-1.55-1.05-3.08-2.14-4.56-3.29-1.17-.9-2.07-2.01-2-3.62Z"/>
    <path d="m261.21,305.3c.03,2.94-3,6.58-5.88,7.07-1.34.22-2.33-.4-3.11-1.4-1.31-1.7-2.6-3.42-3.85-5.17-.12-.16-.04-.6.1-.79,1.09-1.48,2.2-2.94,3.33-4.38,1.85-2.34,3.67-2.6,6.11-.87,1.91,1.35,3.25,3.06,3.31,5.53Z"/>
    <path d="m186.35,88.23c.16-2.18,1.22-4.32,3.15-5.99,1.25-1.08,2.59-1.05,4.17.08,1.27.9,2.31,2.2,3.68,2.83,1.76.81,1.68,1.65.93,3.13-.72,1.41-1.03,3.02-1.68,4.47-.84,1.88-2.17,2.47-4.19,2.09-3.63-.69-6.07-3.2-6.07-6.62Z"/>
    <path d="m149.42,106.6c-.1,2.21-1.53,4.32-3.82,5.89-1.26.86-2.56.56-3.67-.32-1.74-1.38-3.42-2.85-5.1-4.32-.14-.12-.19-.52-.11-.7.82-1.73,1.65-3.45,2.52-5.15,1.31-2.57,2.92-3.15,5.62-2.06,2.86,1.16,4.54,3.37,4.55,6.66Z"/>
    <path d="m36.99,256.49c-1.47.08-2.95.23-4.42.22-2.52-.01-3.81-1.28-4.02-3.8-.22-2.7.25-5.17,2.68-6.76,2.44-1.6,5.04-1.26,7.57-.19,1.52.64,2.2,1.84,1.91,3.48-.4,2.23-.93,4.44-1.46,6.65-.05.19-.45.39-.7.42-.51.07-1.04.02-1.55.02v-.05Z"/>
    <path d="m235.8,211.91c-4.88-.08-7.57-5.36-5.09-9.85.42-.76,1.01-1.44,1.62-2.06,1.6-1.62,3-1.84,4.78-.42,1.95,1.57,3.71,3.39,5.5,5.14.18.18.21.77.06.99-1.14,1.54-2.32,3.05-3.54,4.53-.87,1.06-1.97,1.75-3.32,1.67Z"/>
    <path d="m168.79,416.86c.03-3.04,2.29-6.13,4.85-6.76,2.59-.63,6.33,1.14,7.63,3.61.78,1.47.36,2.78-.47,4.05-1.11,1.7-2.22,3.39-3.37,5.06-.12.18-.57.32-.76.24-2.02-.95-4.05-1.87-6-2.96-1.25-.69-1.97-1.85-1.88-3.23Z"/>
    <path d="m107.13,364.28c.28,0,.56-.02.84,0,4.4.34,5.7,2.24,4.49,6.46-.4,1.37-.62,2.8-.98,4.18-.08.29-.43.72-.67.73-2.03.1-4.06.15-6.09.15-2.36,0-3.52-1.03-3.91-3.35-.79-4.67,1.94-8.2,6.32-8.17Z"/>
    <path d="m23.23,35.75c-3.88,0-7.62-4.73-6.57-8.5.22-.8,1.05-1.72,1.82-2.04,2.2-.92,4.5-1.58,6.79-2.26.25-.08.83.25.96.53.71,1.51,1.28,3.09,1.98,4.61,1.83,3.98-.56,7.68-4.98,7.67Z"/>
    <path d="m29.09,393.8c-.09,2.38-1.71,4.53-4.24,6.07-1.11.67-2.34.53-3.26-.27-1.89-1.64-3.66-3.43-5.43-5.2-.16-.16-.11-.77.06-.99.97-1.26,2.06-2.43,3.01-3.7,1.85-2.46,3.31-3.16,5.41-2.45,2.95,1.01,4.48,3.01,4.45,6.53Z"/>
    <path d="m97.34,282.4c-1.64.07-3.15-.78-3.82-2.79-.57-1.7-1.04-3.43-1.49-5.17-.07-.28.14-.83.38-.96,1.84-1.03,3.69-2.06,5.61-2.93,1.61-.73,3.1-.33,4.38.93,2.11,2.07,2.87,4.86,1.91,7.19-.97,2.35-3.45,3.77-6.98,3.74Z"/>
    <path d="m96.85,149.67c0,.68.01,1.36,0,2.04-.08,3.43-1.48,5-4.63,5.23-3.67.27-6.3-1.48-6.8-4.58-.39-2.45.43-4.58,1.99-6.43.97-1.15,2.36-1.12,3.67-.94,1.66.24,3.3.62,4.91,1.05.32.08.67.63.72,1.01.11.87.03,1.75.03,2.63.04,0,.07,0,.11,0Z"/>
    <path d="m287.69,198.5c0,1.08-.05,2.16.01,3.23.05.93-.31,1.42-1.21,1.59-3.55.66-6.69-.5-9.65-2.27-.36-.22-.59-.98-.56-1.47.16-2.5.39-5.01.68-7.5.03-.28.66-.76.91-.7,2.76.62,5.5,1.33,8.24,2.02,1.22.31,1.78,1.03,1.62,2.36-.11.9-.02,1.83-.02,2.75Z"/>
    <path d="m132.91,426.31c.11,1.86-.74,3.13-2.34,3.98-4.66,2.49-9.9-.54-9.82-5.82.01-.99.75-2.35,1.58-2.86,2.09-1.29,4.4-2.22,6.65-3.22.27-.12.94.11,1.09.37,1.37,2.35,2.62,4.76,2.84,7.54Z"/>
    <path d="m45.07,363.49c-.13.83-.29,2.18-.55,3.51-.3,1.49-1.26,2.28-2.8,2.26-1.67-.03-3.34-.08-5.01-.17-.23-.01-.53-.21-.66-.42-.83-1.31-1.76-2.59-2.41-4-1.39-2.98.25-6.25,3.48-6.79,1.41-.24,2.97-.18,4.36.14,2.55.59,3.66,2.29,3.6,5.46Z"/>
    <path d="m145.17,249.59c.04-.56.08-1.11.12-1.67.28-3.91,3.45-5.67,6.86-3.64,1.59.94,2.97,2.26,4.39,3.49,2.27,1.96,2.25,1.99.25,4.21-.53.59-1.06,1.19-1.61,1.77-2.2,2.32-2.91,2.47-5.9,1.3-.37-.15-.74-.31-1.1-.48-2.83-1.35-3.15-1.88-3.01-4.97Z"/>
    <path d="m53,321.24c-2.04-.16-4.02-.26-5.52-1.93-.97-1.08-1.48-2.29-1.22-3.73.5-2.74,2.02-4.75,4.55-5.92,1.58-.73,3.09-.29,4.39.71,1.13.87,2.2,1.85,3.18,2.9,1.12,1.19,1.14,2.36.18,3.69-.95,1.32-1.83,2.75-2.99,3.85-.53.49-1.69.31-2.56.44Z"/>
    <path d="m84.45,92.61c-.46.98-.71,2.19-1.44,2.9-1.83,1.78-4.22,2.61-6.74,2.6-.73,0-1.68-.85-2.13-1.56-.87-1.36-1.47-2.9-2.14-4.38-.1-.21-.07-.57.05-.77.81-1.37,1.55-2.81,2.52-4.06,1.87-2.41,5.29-2.5,7.34-.26,1.39,1.52,2.2,3.31,2.55,5.54Z"/>
    <path d="m197.25,277.1c-.74-.45-1.61-.77-2.17-1.38-1.54-1.67-2.96-3.45-4.37-5.24-.17-.22-.18-.86,0-1.03,1.66-1.6,3.29-3.27,5.12-4.67,1.7-1.3,2.69-1.11,4.24.38,1.55,1.5,3.07,3.03,4.54,4.61.24.26.35,1.06.17,1.23-1.92,1.81-3.89,3.56-5.89,5.28-.4.35-.97.5-1.63.82Z"/>
    <path d="m247.53,324.8c-1.4-.6-2.92-1.02-4.18-1.84-1.73-1.13-3.27-2.56-4.9-3.85-.53-.42-.63-.77.01-1.19,2.11-1.37,4.15-2.86,6.31-4.14,2.25-1.33,3.65-1.07,5.44.82.73.78,1.4,1.66,1.9,2.6,1.96,3.71-.24,7.26-4.59,7.59Z"/>
    <path d="m45.57,200.21c.04,3.01-.33,3.61-3.21,4.45-1.72.51-3.49.85-5.25,1.18-.32.06-.88-.16-1.05-.43-.77-1.21-1.45-2.47-2.14-3.73-1.39-2.54-.77-4.74,1.92-5.88,1.44-.61,3.07-.78,4.63-1.05,1.21-.22,2.46-.26,3.68-.45.76-.12,1.12.08,1.15.89.06,1.67.17,3.35.26,5.02Z"/>
    <path d="m201.12,146.33c2.8-.03,6.63,2.48,7.43,4.59.18.46.29,1.04.18,1.51-.66,2.85-2.46,4.9-4.91,6.34-.48.28-1.45.1-2.01-.21-2.16-1.2-4.26-2.51-6.34-3.85-.22-.14-.34-.89-.17-1.14,1.31-2,2.65-4,4.1-5.9.51-.67,1.37-1.07,1.72-1.34Z"/>
    <path d="m196.09,67.37c1.94.69,3.9,1.33,5.81,2.08,3.33,1.32,3.33,1.36,1.05,4.18-1.15,1.42-2.33,2.84-3.58,4.17-1.2,1.28-2.72,1.52-4.26.69-1.08-.58-2.12-1.27-3.05-2.06-1.58-1.34-2.3-3.07-1.69-5.14.61-2.07,2.21-3.03,4.2-3.47.46-.1.94-.13,1.42-.2.04-.09.07-.17.11-.26Z"/>
    <path d="m185.83,128.62c.4-.02.8-.04,1.19-.06,3.49-.21,5.47,1.86,4.66,5.28-.61,2.58-1.71,5.05-2.66,7.54-.08.2-.68.41-.91.32-2-.88-3.98-1.83-5.96-2.77-1-.48-1.6-1.31-1.4-2.4.45-2.42.99-4.82,1.58-7.21.07-.28.62-.58.98-.62.83-.09,1.67-.03,2.51-.03,0-.01,0-.02,0-.03Z"/>
    <path d="m268.28,264.61c.41-1.06.64-2.24,1.26-3.16,1.31-1.95,2.8-3.78,4.28-5.61.16-.2.84-.25,1.04-.08,1.64,1.4,3.22,2.86,4.81,4.31.9.82,1.22,1.89.68,2.93-1.14,2.19-2.42,4.3-3.68,6.42-.11.18-.57.31-.81.25-1.62-.42-3.24-.84-4.83-1.37-1.87-.62-2.52-1.63-2.75-3.69Z"/>
    <path d="m84.2,244.67c-3.43.05-2.72.57-3.4-2.75-.3-1.44-.53-2.91-.66-4.37-.13-1.49.58-2.72,2.05-2.97,3.14-.53,6.32-.84,9.48-1.18.14-.02.52.54.49.79-.27,2.14-.52,4.28-.94,6.4-.53,2.69-1.56,3.56-4.27,3.89-.87.1-1.75.13-2.75.2Z"/>
    <path d="m258.95,111.45c-.78-.28-1.45-.44-2.05-.75-1.95-1-3.89-2.03-5.79-3.12-.28-.16-.55-.9-.42-1.14,1.21-2.16,2.46-4.29,3.8-6.38,1-1.56,1.9-1.94,3.55-1.08,2.18,1.14,4.2,2.59,6.25,3.95.2.14.36.71.25.9-1.29,2.19-2.59,4.38-3.99,6.5-.34.51-1.06.76-1.59,1.11Z"/>
    <path d="m228.57,134.33c-4.14-.11-6.05-2.9-6.18-6.9-.02-.59.29-1.26.63-1.77,1.28-1.9,5.86-3.43,8.02-2.75,2.21.7,4.13,4.19,3.59,6.56-.7,3.09-2.94,4.89-6.06,4.86Z"/>
    <path d="m124.09,157.53c1.02-2.26,1.99-4.47,3.03-6.65.08-.18.57-.32.8-.25,1.98.6,3.99,1.15,5.92,1.92,1.98.79,2.59,1.96,1.92,4.02-.9,2.76-2.07,5.44-3.18,8.14-.08.2-.72.41-.87.3-2.15-1.59-4.31-3.16-6.33-4.91-.61-.53-.8-1.56-1.28-2.57Z"/>
    <path d="m232.28,261.92c-3.67.22-5.74-1.47-5.94-4.84-.19-3.26,2.14-6.39,4.91-6.58,3.88-.26,6.84,2.22,7.05,5.89.22,3.84-1.31,5.24-6.02,5.52Z"/>
    <path d="m14.52,159.15c3.52.04,5.17,1.87,6.03,5.47.63,2.65-1.54,5.91-4.21,6.77-.26.08-.54.14-.82.16-2.16.15-5.97-2.85-6.72-5.28-.67-2.16.74-5.21,3.11-6.43.78-.4,1.74-.47,2.62-.69Z"/>
    <path d="m211.62,190.3c.64-1.95,1.14-3.96,1.97-5.82.63-1.4,1.9-2.14,3.56-1.66,1.72.5,3.44.97,5.13,1.55.84.29,1.21.74,1.35,1.92.32,2.69-.93,4.61-2.15,6.65-.9,1.51-2.15,2.22-3.92,1.69-1.26-.37-2.53-.72-3.76-1.17-1.4-.51-2.16-1.47-1.81-3.08l-.38-.08Z"/>
    <path d="m87.04,194.36c-.5,0-.59.01-.66,0-2.72-.58-3.22-3.05-4.22-5.06-.71-1.42-.55-2.77.87-3.68,1.6-1.02,3.19-2.13,4.93-2.85,1.83-.76,3.12-.21,4.18,1.45.87,1.37,1.58,2.85,2.32,4.31.47.93.33,1.6-.4,2.58-1.93,2.58-4.73,2.7-7,3.25Z"/>
    <path d="m24.64,145.55c-.07.92-.1,1.83-.22,2.74-.04.33-.17.75-.41.94-3.54,2.78-7.37,3.71-10.64-.17-1.26-1.49-1.4-2.83-.44-4.51.83-1.45,1.66-2.89,2.56-4.3.14-.22.61-.39.88-.34,1.68.32,3.38.6,5.02,1.08,2.62.77,3.3,1.81,3.26,4.55Z"/>
    <path d="m220.63,245.99c-2.74,0-3.84-.88-4.45-3.52-.32-1.39-.74-2.77-1.06-4.16-.06-.25.03-.69.21-.8,1.73-1.13,3.46-2.29,5.27-3.28,1.5-.82,2.95-.48,4.15.74.83.86,1.63,1.76,2.41,2.66.17.2.31.48.34.74.46,3.89-2.9,7.62-6.86,7.62Z"/>
    <path d="m71.19,37.28c4.01.2,7.22,3.46,6.86,7.4-.1,1.06-.76,2.49-1.61,3.01-4.11,2.52-5.89,2.36-8.52-.86-.08-.09-.16-.18-.23-.28-2.63-3.25-2.54-5.6.6-8.4.68-.61,1.91-.59,2.89-.86Z"/>
    <path d="m179.33,183c-.14,1.77-.22,3.52-1.78,4.68-.46.34-1.13.56-1.71.58-2.06.08-4.13.05-6.2.06-.63,0-1.46.27-.79-.92.16-.28-.06-.84-.22-1.22-1.2-2.87-.13-5.45.96-8.03.11-.27.41-.54.68-.64,2.44-.87,4.92-.96,7.35-.02.42.16.79.81.91,1.3.34,1.38.54,2.8.79,4.21Z"/>
    <path d="m13,349.76c-.36-.03-.72-.1-1.07-.09-1.97.06-3.4-.62-4.28-2.53-.93-2.04-1.42-4.06-.18-6.06.68-1.1,1.58-2.12,2.56-2.97,1.42-1.22,3.06-1.23,4.69-.29,3.45,1.98,4.21,4.15,2.7,7.81-.36.88-.87,1.7-1.32,2.55-.66,1.25-1.74,1.7-3.1,1.59Z"/>
    <path d="m215.96,35.76c-.11,3.87-3.06,5.91-6.62,4.37-2.16-.93-4.22-2.1-6.28-3.24-.23-.13-.37-.92-.2-1.17,1.18-1.75,2.42-3.48,3.71-5.15.94-1.21,2.01-2.44,3.79-1.97,2.09.55,4.05,1.43,4.85,3.66.4,1.11.51,2.33.74,3.5Z"/>
    <path d="m221.75,344.97c1.12.61,2.38,1.07,3.33,1.88,1.7,1.44,3.23,3.09,4.77,4.7.18.19.15.93-.04,1.08-1.72,1.37-3.45,2.71-5.26,3.95-1.21.83-2.55,1.74-4.08.78-1.83-1.14-3.52-2.59-3.59-4.91-.04-1.51.32-3.1.8-4.55.58-1.76,1.99-2.63,4.07-2.93Z"/>
    <path d="m237.87,141.52c.54-4.09,2.74-6.47,6.36-6.72,1.55-.11,2.72.43,3.53,1.76.87,1.43,1.76,2.84,2.59,4.29.12.21.11.66-.04.84-1.2,1.49-2.36,3.03-3.72,4.37-1.58,1.56-2.77,1.64-4.78.59-.92-.48-2.05-.87-2.6-1.64-.7-.98-.92-2.31-1.34-3.49Z"/>
    <path d="m164.04,297.58c-4.89-.05-7.22-3.53-5.29-8.01.69-1.61,1.61-3.12,2.49-4.63.52-.9,3.06-1.19,3.63-.37,1.36,1.96,2.79,3.91,3.87,6.03,1.48,2.92-1.38,7.02-4.7,6.99Z"/>
    <path d="m258.72,63.48c-.13,2.3-.56,4.06-2.39,5.08-1.83,1.02-3.53.58-5.16-.52-1.72-1.16-3.46-2.28-5.15-3.49-.22-.16-.32-.87-.16-1.09,1.18-1.56,2.4-3.08,3.68-4.56,2.55-2.97,7.26-2.05,8.56,1.69.36,1.04.47,2.17.61,2.89Z"/>
    <path d="m184.11,311.49c.27-.84.54-2.37,1.23-3.67,1.43-2.71,4.85-3.16,6.95-.92,1.66,1.77,3.14,3.71,4.64,5.62.15.19-.04.9-.28,1.07-1.51,1.1-3.05,2.17-4.65,3.15-1.35.83-2.81,1.84-4.43.81-1.94-1.24-3.38-2.91-3.47-6.07Z"/>
    <path d="m158.68,265.73c-.42.57-.75,1.36-1.34,1.76-2.02,1.35-4.11,2.59-6.21,3.81-1.07.63-2.02.32-2.94-.49-2.19-1.96-3.08-4.23-2.2-7.18,1.03-3.46,3.93-4.98,7.15-3.31,1.75.9,3.28,2.24,4.83,3.5.38.31.42,1.05.72,1.92Z"/>
    <path d="m163.12,26.86c-.59,2.42-1.05,4.48-1.62,6.51-.24.84-2.31,1.46-3.01.91-1.63-1.28-3.31-2.52-4.76-3.99-2.69-2.74-.86-8.66,2.89-9.61,1.85-.47,3.53,0,4.51,1.62.88,1.45,1.38,3.14,1.98,4.56Z"/>
    <path d="m75.81,21.62c0,3.66-3.88,6.44-7.3,5.12-1.82-.7-3.55-1.65-5.27-2.58-.24-.13-.38-.9-.22-1.2.74-1.46,1.58-2.87,2.42-4.28,1.59-2.69,3.87-3.66,6.64-2.87,2.29.66,3.73,2.9,3.74,5.8Z"/>
    <path d="m197.5,33.27c-.55-.53-1.35-1-1.69-1.69-1.2-2.43-2.28-4.92-3.35-7.41-.44-1.03-.11-1.89.7-2.69,3.35-3.28,8.44-2.47,10.58,1.77.24.47.29,1.27.05,1.7-1.51,2.62-3.11,5.18-4.74,7.72-.18.28-.75.3-1.54.59Z"/>
    <path d="m112.31,340.8c-2.2-.14-3.83-.21-5.46-.36-1.29-.11-2.37-1.88-1.72-2.89,1.56-2.4,3.2-4.75,4.82-7.12.83-1.22,1.94-1.44,3.23-.85,1.01.47,2.03.93,2.96,1.52.47.3.93.85,1.07,1.37.56,2.25.53,4.52-.42,6.67-.22.5-.85,1-1.39,1.15-1.18.32-2.42.41-3.09.51Z"/>
    <path d="m265.17,375.08c-.11-3.25,1.78-5.68,3.56-8.05.34-.46,2.42-.35,2.93.2,1.38,1.51,2.43,3.36,3.47,5.15,1.12,1.94.67,3.76-.73,5.42-1.53,1.82-3.22,3.27-5.84,2.72-2.11-.45-3.37-2.49-3.38-5.44Z"/>
    <path d="m236.39,365.84c.01,1.57-.16,2.9-1.92,3.48-2,.66-4.03,1.8-5.9-.12-1.1-1.14-2.05-2.43-2.96-3.73-.71-1.02-.69-2.21.26-3.07,2.12-1.93,4.28-3.81,6.51-5.6.79-.64,2.59.23,2.76,1.25.45,2.59.83,5.2,1.24,7.8Z"/>
    <path d="m40,111.29c.53.44,1.32.8,1.66,1.4,1.35,2.39,2.59,4.85,3.83,7.3.58,1.13.15,2-.69,2.88-3.81,4-7,2.3-10.39-1.31-.36-.38-.43-1.4-.19-1.9,1.27-2.61,2.65-5.16,4.08-7.68.19-.33.89-.37,1.7-.68Z"/>
    <path d="m244.2,116.4c.03,2.57-2.65,6.28-4.36,6.78-.36.1-.92,0-1.21-.23-2.48-1.94-4.94-3.89-7.35-5.93-.75-.63-.41-2.57.48-2.91,2.68-1.01,5.39-1.94,8.1-2.86,1.05-.35,1.94.07,2.42,1.02.8,1.58,1.49,3.21,1.91,4.12Z"/>
    <path d="m240.43,46.52c2.56,0,6.54,3.01,6.9,4.79.12.57.01,1.35-.3,1.83-1.56,2.35-3.19,4.65-4.88,6.91-.5.66-2.5.3-2.83-.49-1.15-2.8-2.24-5.62-3.32-8.44-.41-1.08-.08-1.98.9-2.57,1.34-.8,2.72-1.56,3.53-2.02Z"/>
    <path d="m254.86,135.48c-.83-.26-1.7-.43-2.47-.8-1.87-.89-3.71-1.84-5.52-2.85-.24-.13-.45-.82-.31-1.03,1.11-1.7,2.28-3.36,3.46-5.02.69-.97,1.6-1.43,2.8-1.08,1.48.44,3.03.75,4.42,1.39,2.61,1.21,3.87,3.48,3.34,5.59-.48,1.95-3.13,3.65-5.71,3.79Z"/>
    <path d="m162.68,169.47c.34-3.05,2.27-5.53,4.77-7.63.31-.26,1.11-.16,1.58.03,2.04.81,4.04,1.69,6.03,2.62.23.11.46.77.34.96-1.38,2.24-2.72,4.52-4.28,6.63-1.21,1.64-2.99,2.37-5.08,1.96-2.06-.4-3.34-2.05-3.36-4.57Z"/>
    <path d="m78.3,205.26c-1.61-.35-3.32-.62-4.94-1.14-.57-.19-1.24-.98-1.33-1.57-.31-2.13-.43-4.29-.5-6.45-.01-.32.63-.95.94-.93,2.51.14,5.03.26,7.5.69,1.1.19,2.26.89,3.06,1.69,2.27,2.24,1.49,5.77-1.49,6.96-.98.39-2.08.49-3.25.76Z"/>
    <path d="m208.03,241.84c.68.33,2.03.71,3.03,1.51,1.7,1.37,3.21,2.99,4.74,4.56.18.19.13.93-.08,1.11-1.52,1.28-3.11,2.49-4.69,3.72-.94.73-1.97.91-3,.24-1.39-.92-2.84-1.79-4.07-2.89-1.62-1.45-2.41-3.38-1.57-5.52.86-2.19,2.93-2.48,5.63-2.72Z"/>
    <path d="m220.13,198.42c3.43.26,5.48,3.24,4.15,6.29-1.28,2.92-3.81,4.53-6.6,5.75-.38.17-1.13-.1-1.51-.41-1.74-1.39-3.43-2.85-5.09-4.35-.18-.16-.2-.87-.03-1.02,1.91-1.69,3.81-3.41,5.85-4.93.91-.68,2.15-.91,3.24-1.35Z"/>
    <path d="m219.12,269.75c-.08,0-.16,0-.24,0-1.69-.18-3.72.53-4.48-1.92-1.11-3.56-.66-5.94,1.57-7.6,3.75-2.8,4.45-2.72,7.07,1.07,1.11,1.61,2.12,3.29,3.13,4.97.77,1.28.03,2.86-1.44,3.04-1.86.22-3.73.36-5.6.54,0-.03,0-.06,0-.09Z"/>
    <path d="m202.63,326.36c-.12,1.97.15,3.58-1.79,4.13-2.13.61-4.35,1.65-6.21-.49-4.51-5.18-3.37-6.24.71-9.41.98-.76,2.04-1.4,3.05-2.11,1.79-1.25,3.31-.56,3.55,1.61.25,2.26.5,4.52.69,6.26Z"/>
    <path d="m159.95,237.83c-4.73.31-6.17-2.85-6.45-7.06-.03-.53.48-1.36.97-1.61,2.58-1.32,5.21-2.55,7.87-3.71.81-.35,2.43.95,2.33,1.86-.33,2.85-.66,5.7-1.18,8.52-.35,1.89-.79,2.02-3.54,2Z"/>
    <path d="m240.67,412.52c-3.65-.12-4.83-1.02-5.77-4.28-.18-.61-.32-1.24-.42-1.86-.59-3.52.19-4.68,3.71-5.3,1.72-.31,3.47-.47,5.22-.63,1.37-.13,2.8,1.69,2.32,2.95-1,2.64-2.06,5.27-3.12,7.89-.39.96-1.06,1.49-1.93,1.24Z"/>
    <path d="m190.26,394.93c-.08-.96.37-1.98,1.55-2.3,2.61-.71,5.25-1.32,7.9-1.86.85-.17,2.33,1.63,2.08,2.48-.8,2.72-1.66,5.42-2.51,8.12-.39,1.25-1.3,1.56-2.53,1.44-4.58-.44-6.4-2.57-6.47-7.88Z"/>
    <path d="m52.2,48.94c.32-2.71.95-4.84,2.39-6.64,1.73-2.16,4.61-2.26,6.48-.22,1.5,1.64,2.81,4.52,1,7.37-1.05,1.65-1.99,3.37-3.06,5.01-.15.23-.87.41-1.05.27-1.62-1.29-3.24-2.6-4.74-4.03-.55-.52-.81-1.37-1.03-1.76Z"/>
    <path d="m33.58,264.11c-.5,1.63-.79,3.36-1.54,4.86-1.57,3.17-5.6,3.38-7.31.29-.98-1.76-1.29-3.9-1.8-5.9-.31-1.2-.42-2.44-.62-3.66-.11-.64,0-.99.8-.86,2.29.37,4.6.61,6.87,1.03,2.56.48,3.34,1.54,3.6,4.24Z"/>
    <path d="m14,278.18c.32,0,.64-.02.96,0,4.78.41,5.9,1.73,5.54,6.54-.03.34-.3.74-.57.96-.74.6-1.53,1.16-2.34,1.68-4.12,2.65-8.68.62-9.6-4.25-.36-1.92.35-3.45,2.18-4.17,1.21-.48,2.52-.66,3.79-.98.02.07.03.15.05.22Z"/>
    <path d="m23.15,349.6c1.67.09,3.35.2,5.02.27.76.03,1.09.29.9,1.11-.44,1.87-.81,3.75-1.23,5.62-.27,1.19-.96,2.11-2.18,2.29-1.99.29-4.04.72-6,.52-2.75-.28-4.2-2.99-3.17-5.57,1.2-3,3.01-4.61,6.66-4.25Z"/>
    <path d="m109.8,56.22c-.22,4.99-2.71,7.36-7.62,7.15-2.67-.12-4.43-2-4.15-4.64.31-2.91,1.91-5.13,4.23-6.78.45-.32,1.35-.33,1.91-.11,1.6.61,3.21,1.27,4.63,2.18.57.37.68,1.45,1,2.21Z"/>
    <path d="m119.28,73.56c-.08-3.37,1.17-5.08,4.02-5.84.69-.18,1.41-.29,2.12-.31,3.97-.12,5.86,2.18,4.43,5.89-.81,2.1-2.39,3.9-3.63,5.83-.06.1-.17.17-.27.23-1.31.86-6.06-1.22-6.28-2.76-.17-1.15-.29-2.3-.39-3.04Z"/>
    <path d="m237.29,396.62c-1.97-.22-4.41-.49-5.45-3-1.04-2.53.53-4.38,2.22-5.97,1.06-1,2.35-1.76,3.57-2.59.99-.68,1.92-.47,2.86.24,3.29,2.47,3.64,3.82,2.02,8.01-.91,2.34-2.36,3.33-5.22,3.31Z"/>
    <path d="m273.32,307.48c.97-.11,1.84.3,2.19,1.5.8,2.8,1.63,5.59,2.35,8.41.28,1.09-1.32,2.71-2.36,2.38-2.58-.83-5.12-1.77-7.65-2.74-1.18-.45-1.68-1.42-1.5-2.7.1-.71.15-1.44.33-2.12.98-3.62,2.45-4.69,6.64-4.73Z"/>
    <path d="m132.87,88.46c2.99.94,5.99,1.88,8.97,2.87.14.05.28.71.15.89-1.4,1.99-2.79,4-4.3,5.9-1.35,1.7-2.76,2.04-4.65.95-1.39-.8-2.67-1.88-3.79-3.04-1.31-1.36-1.67-3.11-.84-4.89.85-1.81,2.48-2.36,4.46-2.68Z"/>
    <path d="m171.83,80.44c1.82.23,3.65.38,5.44.72.57.11,1.28.63,1.52,1.15,2.03,4.27,0,8.47-4.61,9.44-.66.14-1.78-.2-2.15-.7-1.75-2.43-3.35-4.96-4.91-7.51-.6-.99.62-2.85,1.81-2.89.96-.04,1.92,0,2.88,0,0-.06.02-.13.02-.19Z"/>
    <path d="m105.77,383.29c-.46,1.55-.81,3.15-1.42,4.64-.67,1.63-2,2.58-3.83,2.59-1.79.02-3.01-.95-3.83-2.44-.42-.76-.77-1.6-.94-2.45-.45-2.19-.79-4.4-1.18-6.6-.14-.77.12-1.16.95-1.04,2.21.33,4.43.58,6.63.98,2.63.48,3.38,1.5,3.62,4.3Z"/>
    <path d="m130.98,190.45c-.2,2.32-1.28,4.68-3.44,6.4-.56.45-1.72.6-2.4.35-1.74-.65-3.38-1.59-5.04-2.47-.27-.14-.56-.53-.58-.83-.22-2.28-.15-4.58,1.7-6.22,1.97-1.74,4.32-2.58,6.98-1.83,1.8.51,2.81,2.11,2.77,4.58Z"/>
    <path d="m10.76,314.09c-1.28-.27-2.57-.53-3.84-.82-1.3-.3-1.97-1.17-2.04-2.47-.09-1.6-.16-3.19-.19-4.79,0-.27.16-.67.38-.81,4.1-2.76,7.51-3.39,10.65,1.58,2.13,3.38.27,6.8-3.72,7.11-.4.03-.8.04-1.2.06l-.03.15Z"/>
    <path d="m126.64,214.35c0,.08,0,.16,0,.24-.15,1.11.09,2.62-.55,3.24-1.36,1.34-3.27,1.96-5.29,1.7-2.36-.3-5.11-2.8-5.68-5.1-.52-2.1.38-4.08,2.36-4.93,2.45-1.06,5-1.11,7.45-.12.69.28,1.31,1.23,1.55,2,.29.92.15,1.97.2,2.97-.01,0-.03,0-.04,0Z"/>
    <path d="m269.53,88.28c-.78,3.21-2.16,5.79-4.88,7.47-.22.14-.53.19-.8.19-2.19,0-6-2.81-6.36-4.96-.19-1.13.11-2.43.5-3.54.25-.73.99-1.34,1.63-1.86,2.68-2.19,3.1-2.21,6.04-.47,1.03.61,2.04,1.26,2.99,1.98.41.31.64.85.89,1.2Z"/>
    <path d="m194.12,283.91c-.71,1.13-1.35,2.32-2.17,3.38-.36.47-1.04.73-1.62.98-3.2,1.42-3.89,1.28-6.24-1.24-.49-.53-.96-1.06-1.43-1.61-1.62-1.92-1.76-2.64,0-4.41,1.37-1.39,3.08-2.46,4.71-3.56.43-.29,1.19-.31,1.72-.16,2.02.56,4.63,4.24,4.64,6.38.13.08.26.16.38.24Z"/>
    <path d="m253.46,406.47c1.79.12,4.15.43,5.13,2.93.97,2.47-.44,4.37-2.06,6.08-.14.14-.29.27-.44.41-3.25,2.83-4.15,2.64-7.41-.08-2.07-1.72-2.15-3.34-1.21-5.58,1.14-2.7,2.54-3.79,5.99-3.77Z"/>
    <path d="m54.95,8.96c2.57.6,4.79,1.07,6.99,1.64.96.25,1.62,2.17,1.09,3.04-1.47,2.38-2.97,4.74-4.51,7.07-.17.26-.83.5-1.03.37-1.95-1.23-3.9-2.49-5.75-3.86-1.06-.78-1.38-1.97-.91-3.23.44-1.19.82-2.48,1.58-3.45.61-.77,1.76-1.13,2.55-1.6Z"/>
    <path d="m137.24,248.41c-2.34-.16-4.08-.63-4.97-2.47-.87-1.8-.6-3.67.75-5.02,1.44-1.44,3.17-2.62,4.9-3.71.47-.3,1.56-.12,2.08.25,1.84,1.33,3.58,2.81,5.31,4.29.17.15.21.8.06.94-1.89,1.66-3.77,3.34-5.77,4.84-.75.56-1.82.7-2.35.89Z"/>
    <path d="m142.38,18.05c.58.13,1.19.19,1.74.39,1.27.46,2.53.98,3.78,1.51q2.75,1.16,1.19,3.8c-1.18,1.99-2.39,3.97-3.53,5.98-.42.74-.81.94-1.59.42-2.15-1.45-4.34-2.85-6.54-4.22-.72-.45-.91-.85-.44-1.63.88-1.47,1.55-3.09,2.55-4.46.62-.86,1.7-1.38,2.57-2.06.09.09.18.18.27.27Z"/>
    <path d="m101.43,263.96c0,.96.08,1.93-.04,2.87-.04.34-.61.9-.89.88-2.34-.25-4.7-.47-6.99-.98-2.13-.47-3.4-2.05-3.94-4.12-.66-2.49.76-4.63,3.38-5.12,2.62-.49,5.09.18,7.42,1.33.41.2.79.83.86,1.32.18,1.26.19,2.54.26,3.82-.02,0-.03,0-.05,0Z"/>
    <path d="m247.75,150.39c.54.21,1.53.39,2.27.92,1.19.85,2.32,1.84,3.28,2.94,1.63,1.87,1.6,2.32.37,4.47-.76,1.32-1.51,2.64-2.34,3.91-.18.28-.88.57-1.05.44-2.19-1.53-4.44-3.01-6.45-4.76-1.51-1.3-1.88-3.17-1-5.05.87-1.88,2.46-2.75,4.92-2.88Z"/>
    <path d="m222.04,230.49c-1.06-.56-2.44-.87-3.1-1.73-1.3-1.71-2.26-3.7-3.19-5.66-.22-.45.05-1.42.43-1.82,1.45-1.53,3.03-2.94,4.6-4.36.16-.15.74-.14.86.01,1.63,2.12,3.43,4.14,4.74,6.44,1.89,3.31-.37,6.79-4.34,7.12Z"/>
    <path d="m92.33,15.48c-2.83.02-4.81-2.69-3.68-5.85.82-2.28,2.34-4.09,4.26-5.5.44-.33,1.35-.38,1.88-.17,2.1.86,4.15,1.86,6.18,2.87.19.09.32.77.18.99-1.15,1.77-2.35,3.52-3.59,5.23-1.15,1.58-2.76,2.38-5.24,2.43Z"/>
    <path d="m24.69,208.79c-3.79.05-5.89-1.48-5.95-4.35-.06-2.95,2.97-6.36,5.67-6.39,3.52-.03,6.24,2.15,6.3,5.05.06,3.04-2.69,5.64-6.01,5.68Z"/>
    <path d="m106.27,149.23c3.53,0,5.43,2.71,4.16,6.01-.86,2.23-2.38,3.99-4.32,5.32-.51.35-1.51.39-2.09.14-1.98-.85-3.89-1.86-5.78-2.89-.23-.12-.39-.86-.24-1.08,1.21-1.83,2.46-3.64,3.78-5.4,1.11-1.48,2.68-2.09,4.5-2.1Z"/>
    <path d="m64.39,322.06c.92-.05,1.84-.17,2.74-.1.32.03.89.57.87.83-.22,2.06-.54,4.11-.85,6.17-.16,1.05-.7,1.84-1.78,1.99-2.04.28-4.11.79-6.12.61-3.69-.33-4.95-3.43-2.9-6.54,1.15-1.74,2.68-2.83,4.81-2.91,1.08-.04,2.15,0,3.23,0,0-.01,0-.03,0-.04Z"/>
    <path d="m34.33,372.12c1.76-.11,3.43.7,4.69,2.42,1.13,1.55,2.28,3.09,3.45,4.61.46.59.4.96-.28,1.29-1.79.88-3.56,1.81-5.35,2.7-1.02.51-2.07.51-2.88-.34-1.34-1.4-2.87-2.73-3.83-4.37-2.02-3.46-.17-6.35,4.21-6.31Z"/>
    <path d="m189.21,125.45c-.27-.08-.95-.19-1.55-.47-1.64-.76-3.43-4.01-3.21-5.7.33-2.5,2.9-5.58,4.99-5.84.72-.09,1.53-.02,2.22.21,2.19.73,4.31,4.43,3.94,6.71-.44,2.74-3.23,5.11-6.4,5.1Z"/>
    <path d="m51.77,142.28c-.01,3.12-1.27,4.52-3.22,5.46-2.48,1.19-5.54.43-7.13-1.84-.21-.3-.35-.76-.3-1.11.37-2.55,1.06-5.01,2.65-7.11,2.26-2.97,5.16-2.75,6.73.61.7,1.49,1.01,3.16,1.27,4Z"/>
    <path d="m69.04,93.91c-.31,1.03-.5,1.97-.88,2.83-.78,1.75-1.63,3.47-2.54,5.16-.13.25-.89.46-1.11.32-1.69-1.13-3.41-2.26-4.93-3.6-.61-.54-1.17-1.73-.98-2.43.52-2.02,1.14-4.12,2.26-5.84,2.02-3.09,5.45-2.73,7.12.56.48.94.72,2,1.07,3Z"/>
    <path d="m157.08,391.98c.54,0,.98-.03,1.42,0,1.99.14,3.73.76,4.5,2.78.81,2.14.72,4.22-.87,6.06-2.8,3.25-3.69,3.35-6.95.56-.99-.85-1.9-1.83-2.64-2.9-.98-1.43-1.22-3.08-.32-4.65.92-1.61,2.52-1.95,4.24-1.92.24,0,.48.04.61.06Z"/>
    <path d="m124.46,310.04c-.14,3.39-.33,3.76-3.99,4.3-1.92.28-4,.31-5.89-.1-2.55-.55-3.31-2.72-2.08-5.03,1.04-1.96,2.6-3.44,4.6-4.38,2.29-1.08,6.49.63,7.32,2.99.2.56.03,1.26.03,2.22Z"/>
    <path d="m125.68,140.97c.05-1.65.81-2.85,2.06-3.58,1.51-.88,3.14-1.55,4.74-2.27.26-.12.7-.15.91,0,1.34.93,2.69,1.87,3.93,2.93.32.28.46,1.04.35,1.5-.62,2.67-1.85,5.04-3.98,6.81-.49.41-1.46.69-2.03.5-2.59-.89-5.13-1.96-5.86-5.05-.07-.31-.08-.63-.11-.84Z"/>
    <path d="m173.81,65c2.79.32,5.09,2.28,7.04,4.75.25.31.19,1.05.02,1.48-.86,2.2-1.78,4.37-2.75,6.51-.08.18-.77.32-.98.18-1.64-1.06-3.25-2.18-4.85-3.31-2.23-1.59-2.78-3.94-2.66-6.46.09-2.01,1.53-3.14,4.18-3.16Z"/>
    <path d="m31.03,129.03c1.11.07,2.23.09,3.33.25.3.04.81.54.78.77-.33,2.61-.6,5.23-1.18,7.79-.4,1.78-1.69,2.99-3.61,3.22-1.99.24-3.78-.45-4.69-2.2-.6-1.15-.56-2.66-.7-4.01-.05-.49.15-1.02.29-1.52,1.15-4.17,1.48-4.41,5.77-4.3Z"/>
    <path d="m260.91,276.17c.16-2.9,2.73-5.49,5.67-5.56,3.34-.08,5.16,1.66,5.34,5.09.13,2.56-2.34,5.94-4.84,6.63-2.06.56-4.36-.51-5.23-2.6-.47-1.12-.64-2.37-.95-3.56Z"/>
    <path d="m79.18,374.5c.22-4.77,3.31-6.91,7.73-5.24.48.18.96.39,1.42.63,3.22,1.72,3.9,3.61,1.52,6.33-1.75,2-4.19,3.65-7.03,3.91-.75.07-1.93-.74-2.32-1.46-.68-1.26-.9-2.76-1.31-4.17Z"/>
    <path d="m271.58,328.43c-.09.67-.13,1.35-.28,2.01-.68,2.99-3.22,4.1-5.85,2.48-2.3-1.41-3.7-3.61-4.65-6.06-.18-.47.06-1.3.4-1.74,1.39-1.8,2.87-3.53,4.38-5.22.16-.19.93-.16,1.1.04,1.33,1.59,2.71,3.16,3.83,4.9.66,1.02.89,2.32,1.31,3.5-.08.03-.16.07-.24.1Z"/>
    <path d="m214.97,137.21c-.58,2.93-1.68,5.08-3.87,6.42-.67.41-1.81.37-2.62.14-2.06-.58-3.72-1.89-4.86-3.68-.39-.6-.49-1.66-.25-2.34.58-1.65,1.39-3.22,2.2-4.78.45-.86,2.52-1.41,3.3-.92,1.52.96,3.07,1.89,4.47,3,.75.6,1.2,1.56,1.64,2.16Z"/>
    <path d="m232.29,177.81c.3-4.8,3.4-6.95,7.78-5.17,1.23.5,2.35,1.32,3.45,2.09.91.63.95,1.55.6,2.57-1.28,3.79-4.63,4.98-7.89,6.19-1.06.4-2.13-.27-2.56-1.3-.59-1.41-.93-2.91-1.38-4.38Z"/>
    <path d="m76.46,244.79c-.19,1.09-.25,2.23-.59,3.27-.76,2.35-3.23,3.67-5.45,2.62-1.83-.86-3.41-2.27-5.06-3.5-.25-.19-.35-.71-.35-1.07,0-.67.13-1.35.2-2.02.36-3.35.75-3.74,4.15-3.87,1.11-.04,2.24-.03,3.33.15,3.32.54,3.66,1.01,3.77,4.42Z"/>
    <path d="m175.99,52.85c-.21,1.96-.92,4.07-2.55,5.71-.45.45-1.4.77-1.99.63-1.46-.34-2.98-.66-3.84-2.26-.76-1.43-1.91-2.66-2.68-4.08-1.06-1.94-.45-3.48,1.54-4.4,2.04-.93,4.18-1.01,6.32-.57,1.97.4,3.22,2.34,3.19,4.96Z"/>
    <path d="m21.57,110.42c-.05-3.7.95-5.44,3.58-5.58,1.26-.07,2.73.55,3.82,1.28,3.62,2.46,3.96,4.96,1.41,8.48-2.35,3.25-2.68,3.14-6.26,1.45-2.81-1.33-2.3-3.66-2.55-5.63Z"/>
    <path d="m48.08,360.29c-.01-2.57,2.8-5.84,5.35-6.13.38-.04.95.1,1.18.38,1.75,2.04,3.47,4.11,5.14,6.21.57.72.32,1.44-.38,1.98-1.54,1.19-3.09,2.39-4.65,3.56-.2.15-.51.25-.77.23-2.8-.18-5.86-3.44-5.88-6.23Z"/>
    <path d="m116.54,351.05c.5,1.78-.54,3.07-2.31,3.98-.99.51-1.91,1.18-2.93,1.61-3.2,1.32-5.82-.49-5.81-3.96,0-5.38,2.5-7.46,7.73-6.42,3.24.64,3.38.82,3.33,4.8Z"/>
    <path d="m63.04,155.62c.26-4.25,5.05-7.67,9.03-6.37,1.71.56,2.6,1.96,2.37,3.95-.33,2.96-1.83,5.34-3.91,7.37-.31.3-1.18.35-1.61.15-1.7-.8-3.41-1.62-4.93-2.7-.59-.42-.65-1.57-.95-2.38Z"/>
    <path d="m163.61,431.84c-1.21-.15-2.76.63-3.59-1.01-1.07-2.12-1.34-4.37-.17-6.43,1.14-1.99,2.68-3.76,4.09-5.58.11-.14.75-.11.89.06,1.37,1.6,2.68,3.27,4.02,4.89,1.19,1.43,1.3,2.94.39,4.54-.08.14-.14.28-.23.42-1.21,2.04-2.56,3.86-5.41,3.11Z"/>
    <path d="m81.71,104.41c.22-1.97.57-3.7,1.9-5.1,2.36-2.48,7.51-1.94,9.34.98.19.3.22.77.16,1.13-.46,2.72-1.54,5.19-3.14,7.45-.53.75-1.16.93-1.96.56-1.77-.83-3.63-1.53-5.26-2.58-.62-.4-.71-1.61-1.04-2.44Z"/>
    <path d="m30.71,420.1c0-1.48-.06-2.96.05-4.42.03-.36.63-.97.94-.95,2.22.13,4.45.34,6.65.67.5.07,1.25.69,1.3,1.13.24,2.24.53,4.51.35,6.74-.16,2.06-1.07,2.64-3.15,2.63-1.67,0-3.35-.07-5.01-.27-.39-.05-.97-.69-1-1.1-.12-1.47-.05-2.95-.05-4.42h-.08Z"/>
    <path d="m124.35,284c0,.44.08.9-.02,1.31-.25,1.06.37,2.35-.94,3.14-1.65.99-3.34,1.85-5.3,1.19-2.29-.77-4.04-2.28-5.08-4.45-.99-2.06-.18-4.06,1.95-4.93,2.79-1.14,5.63-.91,8.43-.02.36.11.74.63.82,1.02.18.89.18,1.82.26,2.73h-.12Z"/>
    <path d="m227.36,421.52c-.49.63-.89,1.36-1.48,1.85-.79.66-1.7,1.19-2.61,1.68-1.91,1.01-3.23.88-4.79-.65-.93-.91-1.76-1.97-2.43-3.08-1.25-2.06-1.11-2.79.49-4.56,2.1-2.32,4.21-2.92,6.84-1.93,2.34.87,3.63,3.15,3.98,6.69Z"/>
    <path d="m45.17,250.08c.21-1.46.36-2.92.65-4.37.25-1.22,1.04-1.97,2.35-2,2.31-.05,4.63-.11,6.94-.07.27,0,.78.56.76.84-.15,2.43-.38,4.86-.61,7.28-.11,1.16-.78,1.92-1.94,1.88-2.5-.09-5-.29-7.49-.52-.21-.02-.5-.55-.54-.86-.08-.71-.03-1.44-.03-2.16-.04,0-.07-.02-.11-.02Z"/>
    <path d="m152.83,224.06c-1.99.02-5.25-2.96-5.35-4.95-.02-.41.1-.93.36-1.22,1.82-2.05,3.69-4.06,5.59-6.03.14-.14.77-.05.97.14,1.61,1.49,3.18,3.02,4.72,4.58.27.27.46.78.43,1.15-.27,3.63-3.13,6.3-6.73,6.33Z"/>
    <path d="m144.11,120.16c-.3.83-.48,1.53-.8,2.16-.89,1.78-1.8,3.56-2.79,5.29-.16.28-.9.54-1.13.4-2.02-1.2-3.98-2.5-5.96-3.77-1.14-.73-1.58-1.75-.89-2.96,1.21-2.1,2.52-4.14,3.84-6.17.13-.19.7-.32.9-.2,1.91,1.14,3.82,2.29,5.64,3.56.53.37.8,1.12,1.19,1.69Z"/>
    <path d="m94.58,222.78c-.11,1.35-.22,2.7-.34,4.05-.12,1.36-.93,2.2-2.22,2.26-2.22.11-4.45.04-6.67-.02-.24,0-.67-.41-.69-.65-.17-2.14-.36-4.29-.34-6.43.02-1.44.95-2.37,2.43-2.5,2.38-.21,4.77-.37,7.16-.46.25,0,.74.56.75.87.05.95-.08,1.91-.14,2.87.02,0,.03,0,.05,0Z"/>
    <path d="m63.59,301.47c0,.63.02.87,0,1.11-.08.93.17,2.36-.31,2.68-1.41.95-3.07,1.79-4.73,2.06-2.87.47-5.52-1.52-5.72-4.19-.41-5.51-.33-5.29,4.77-6.03,1.33-.19,2.71-.02,4.06,0,1.14.02,1.77.58,1.81,1.76.03,1,.09,1.99.12,2.6Z"/>
    <path d="m20.72,14.93c-.36,2.46-.54,4.79-2.82,6.13-2.38,1.41-4.62.56-6.77-.71-2.2-1.3-2.35-1.44-1.39-3.77.82-1.98,1.92-3.85,2.93-5.74.58-1.08,1.47-1.23,2.54-.67,1.45.76,3.03,1.34,4.33,2.3.65.48.81,1.62,1.18,2.46Z"/>
    <path d="m17.11,67.19c-.36,2.93-1.26,5.05-3.07,6.64-.46.41-1.48.58-2.07.37-2.32-.85-4.58-1.88-6.82-2.91-.22-.1-.42-.77-.29-1.02,1.02-2.08,2.11-4.12,3.2-6.17.53-1.01,1.42-1.51,2.49-1.15,1.72.58,3.48,1.17,5.03,2.09.8.47,1.18,1.63,1.53,2.15Z"/>
    <path d="m237.6,191.26c.33-.63.55-1.34,1.01-1.86,1.54-1.73,3.14-3.4,4.78-5.05.17-.18.86-.16,1.03.03,1.62,1.71,3.18,3.48,4.75,5.24.82.91.92,1.91.04,2.78-1.78,1.76-3.64,3.46-5.49,5.15-.16.14-.68.15-.82.01-1.55-1.49-3.09-2.99-4.56-4.57-.38-.41-.47-1.07-.74-1.73Z"/>
    <path d="m211.25,170.55c-1.49-.45-3.86-.95-6-1.93-.61-.28-1.08-2.16-.74-2.94.71-1.65,1.92-3.1,3.04-4.55,1.14-1.48,2.39-1.93,3.99-1.02,1.8,1.02,3.35,2.48,4.99,3.77.17.14.28.39.35.62.6,2.07-2.57,6.12-5.62,6.06Z"/>
    <path d="m117.34,369.25c.24-1.53.42-3.07.75-4.59.26-1.19,1.13-1.8,2.35-1.83,2.31-.04,4.63-.08,6.94-.03.25,0,.72.57.7.85-.12,2.27-.36,4.53-.52,6.8-.11,1.53-.91,2.43-2.42,2.38-2.3-.08-4.61-.29-6.9-.53-.28-.03-.66-.55-.72-.89-.11-.7-.03-1.43-.03-2.15-.05,0-.1-.02-.15-.03Z"/>
    <path d="m159.04,337.09c-1.09,1.62-1.93,2.62-3.41,3.9-1.04.89-2.02,1.08-3.03.03-1.37-1.43-2.88-2.77-4.03-4.36-1.12-1.54-.91-2.61.43-3.98,1.25-1.28,2.45-1.62,4.21-1.99,3.87-.82,7.8,3.48,5.84,6.4Z"/>
    <path d="m119.49,407.16c1.83.69,3,1.27,4.58,2.43,1.11.81,1.51,1.72.72,2.94-1.08,1.66-2.03,3.44-3.32,4.93-1.24,1.44-2.33,1.48-3.97.5-1.54-.92-2.13-2.02-2.9-3.64-1.69-3.58,1.6-8.39,4.89-7.15Z"/>
    <path d="m132.14,334c.33,1.93.41,3.23.21,5.18-.14,1.36-.72,2.17-2.18,2.1-1.98-.1-3.99-.03-5.93-.39-1.87-.35-2.45-1.27-2.43-3.18.03-1.79.67-2.86,1.68-4.34,2.24-3.26,8.05-2.84,8.64.63Z"/>
    <path d="m23.03,330.1c0,1.44.06,2.88-.04,4.31-.02.34-.65.95-.91.9-2.32-.4-4.65-.8-6.91-1.42-2.75-.76-4.11-5.33-2.36-7.64.22-.29.63-.56.99-.6,2.68-.35,5.36-.68,8.06-.91.28-.02.85.67.88,1.06.11,1.43.04,2.87.04,4.3.08,0,.17,0,.25,0Z"/>
    <path d="m138.7,34.12c-.4,3.08-1.51,5.25-3.44,6.95-.35.31-1.19.4-1.64.21-2.34-1.02-4.64-2.14-6.92-3.29-.22-.11-.41-.79-.28-1.03,1.06-2.01,2.19-4,3.32-5.97.53-.93,1.34-1.42,2.41-1.03,1.67.61,3.41,1.14,4.93,2.03.81.47,1.23,1.6,1.62,2.14Z"/>
    <path d="m147.44,165.63c-.28.94-.41,1.62-.68,2.23-.81,1.86-1.64,3.72-2.55,5.54-.14.29-.88.6-1.11.48-1.94-1.1-3.83-2.28-5.73-3.46-1.4-.87-1.84-2.14-1.15-3.6.91-1.9,1.96-3.73,3.01-5.56.12-.22.66-.43.87-.33,2,.88,4.02,1.74,5.92,2.8.65.37.99,1.31,1.4,1.9Z"/>
    <path d="m160.91,86.12c2.57,0,5.74,2.8,6.13,5.43.03.22.02.51-.1.68-1.13,1.64-2.24,3.3-3.47,4.87-.25.32-1.13.52-1.46.33-2.52-1.44-4.98-2.98-7.43-4.55-.17-.11-.18-.74-.05-1.02.52-1.08,1.13-2.11,1.7-3.16,1.01-1.85,2.65-2.55,4.67-2.58Z"/>
    <path d="m87.58,52.67c-.83,2.1-1.62,4.22-2.51,6.3-1,2.34-1.04,2.32-3.31,1.23-2.16-1.04-4.29-2.11-6.46-3.11-.91-.42-.98-.85-.34-1.6,1.46-1.69,2.8-3.48,4.31-5.12,1.65-1.79,2.69-1.94,4.9-.86.89.43,1.73.99,2.5,1.61.38.31.54.89.92,1.55Z"/>
    <path d="m287.69,75.66c0,1.52.01,3.03,0,4.55-.01,1.2-1.92,2.35-2.87,1.62-1.98-1.54-4.01-3.07-5.69-4.91-2.01-2.2-.26-7.06,2.66-7.79.88-.22,1.82-.29,2.72-.26,2.52.09,3.18.81,3.18,3.32,0,1.16,0,2.32,0,3.47Z"/>
    <path d="m265.65,23.85c-2.97-.71-5.54-1.6-7.46-3.79-.77-.87-.72-1.84-.23-2.79.86-1.66,1.77-3.3,2.73-4.91.14-.23.78-.41,1.04-.29,2.77,1.31,5.53,2.66,8.25,4.07.26.14.51.9.36,1.15-1.08,1.86-2.23,3.68-3.43,5.47-.32.48-.9.78-1.26,1.08Z"/>
    <path d="m9.61,406.91c0-.08,0-.16,0-.24.11-1.08-.15-2.77.42-3.14,1.67-1.05,3.62-1.94,5.55-2.21,2.74-.38,4.79,2.14,4.89,5.42.12,4.18.13,4.25-4.01,4.65-1.65.16-3.33-.05-5-.09-1.3-.03-1.85-.74-1.83-1.99.01-.8,0-1.6,0-2.39h-.02Z"/>
    <path d="m172.65,352.54c-.56.8-1.04,1.67-1.7,2.37-1.01,1.08-2.11,2.08-3.25,3.01-.26.22-1.02.23-1.26.02-2.26-2.03-4.48-4.11-6.65-6.23-.22-.21-.23-1.02-.02-1.21,1.58-1.46,3.25-2.84,4.88-4.25.81-.7,1.68-.78,2.49-.07,1.49,1.3,3,2.61,4.37,4.03.52.54.7,1.4,1.13,2.33Z"/>
    <path d="m287.96,382.12c-.3,1.03-.32,2.34-.98,3.1-2.5,2.87-4.18,2.93-7.17.56-1.25-.99-2.43-2.07-3.68-3.06-.65-.52-.58-.93-.02-1.44,2.26-2.03,4.51-4.06,6.74-6.11.58-.54.98-.5,1.46.11.92,1.15,2.06,2.17,2.78,3.43.54.93.57,2.15.87,3.41Z"/>
    <path d="m14.98,247.9c-4.57.33-6.22-2.08-6.65-4.4-.46-2.54.78-4.56,2.36-6.38.21-.24.73-.32,1.09-.29,1.66.15,3.32.35,4.98.55,1.07.13,1.71.74,1.65,1.82-.16,2.62-.36,5.24-.64,7.84-.03.32-.64.73-1.04.82-.61.14-1.27.04-1.75.04Z"/>
    <path d="m53.9,208.94c-.39,2.24-.79,4.47-1.18,6.71-.2,1.12-.89,1.64-1.99,1.69-.08,0-.16.02-.24.03-4.05.42-5.13-.34-5.91-4.33-.4-2.07-.67-4.18-1.03-6.26-.14-.81.09-1.12.93-1,2.8.39,5.61.77,8.42,1.13,1.48.19.84,1.23,1,2.04Z"/>
    <path d="m169.42,131.78c3.17,1.02,6.28,2.01,9.37,3.06.17.06.37.72.25.89-1.7,2.46-3.43,4.91-5.22,7.31-.18.24-.93.35-1.19.18-2.1-1.44-4.15-2.96-6.21-4.47-.93-.68-1.19-1.58-.63-2.63.56-1.05,1.09-2.14,1.79-3.09.38-.51,1.1-.77,1.83-1.24Z"/>
    <path d="m74.42,411.17c0-1.36-.06-2.72.04-4.07.03-.36.54-.97.83-.97,2.23.02,4.46.16,6.69.27.94.04,1.52.52,1.54,1.48.04,2.21.14,4.44-.02,6.64-.11,1.51-1.21,2.3-2.75,2.25-1.79-.06-3.59-.13-5.37-.33-.35-.04-.87-.68-.9-1.08-.11-1.39-.04-2.79-.04-4.19h0Z"/>
    <path d="m100.28,332.41c-.94-.16-1.89-.27-2.82-.48-2.62-.61-2.95-1.06-2.94-3.78.01-3.32.81-4.43,3.98-5.34,1.26-.36,2.56-.59,3.85-.87,2.25-.49,3.58.76,3.22,3.03-.19,1.18-.33,2.37-.57,3.54-.58,2.91-1.77,3.85-4.72,3.89Z"/>
    <path d="m57.75,112.01c-.41,1.52-.85,3.91-1.77,6.09-.25.6-2.22,1.09-2.95.73-1.64-.82-3.04-2.17-4.47-3.38-1.25-1.06-1.58-2.54-.83-3.91.93-1.69,2.2-3.19,3.35-4.75.17-.23.53-.38.82-.44,2.14-.41,5.82,2.64,5.84,5.67Z"/>
    <path d="m197.19,422.16c-.14.19-.25.4-.42.54-1.58,1.34-3.18,2.67-4.77,4.01-.71.6-1.47.71-2.15.04-1.81-1.77-3.62-3.55-5.34-5.41-.77-.83-.57-1.79.27-2.55,1.45-1.32,2.89-2.64,4.38-3.9.2-.17.83-.18,1,0,2.27,2.25,4.49,4.55,6.72,6.84.11.11.18.26.3.44Z"/>
    <path d="m30.18,59.81c.29-.77.46-1.44.79-2.02.82-1.46,1.68-2.91,2.62-4.29.18-.27.92-.46,1.22-.31,2.54,1.25,5.06,2.56,7.54,3.93.27.15.5.9.36,1.17-1.07,1.96-2.24,3.87-3.36,5.8-.45.77-1.09,1.09-1.9.67-2.07-1.07-4.15-2.14-6.15-3.33-.51-.3-.75-1.06-1.12-1.61Z"/>
    <path d="m281.1,404.2c-.13,1.38-.53,2.35-1.82,2.95-1.26.58-2.38,1.46-3.64,2.05-1.93.91-3.03.65-4.53-.82-2.73-2.69-2.81-4.34-.34-7.27.2-.24.42-.48.64-.71,2.69-2.71,4.17-2.71,6.75.03.79.84,1.58,1.69,2.32,2.58.28.34.42.8.63,1.2Z"/>
    <path d="m193.87,387.05c-1.59.08-2.89-.76-4.06-1.94-2.95-2.97-2.99-2.99-.2-6.02,1.16-1.26,2.39-2.46,3.74-3.5.44-.34,1.5-.33,1.99-.02,1.17.73,2.2,1.71,3.23,2.64.25.23.45.73.39,1.05-.37,1.83-.68,3.69-1.29,5.44-.56,1.61-1.91,2.39-3.81,2.35Z"/>
    <path d="m213.24,318.97c1.78.41,2.98,1.78,4.1,3.25.83,1.09.26,2.12-.34,2.99-1.07,1.56-2.21,3.1-3.5,4.48-.93.99-2.18.95-3.24.02-1.49-1.32-3.11-2.56-4.31-4.12-.49-.64-.44-2.6.07-2.97,1.96-1.39,4.2-2.38,6.35-3.5.2-.11.47-.09.87-.15Z"/>
    <path d="m43.03,26.7c-.31.89-.47,1.7-.85,2.38-.97,1.73-2.02,3.43-3.12,5.09-.16.25-.88.42-1.13.27-1.49-.91-3.03-1.81-4.35-2.94-2.77-2.38-2.58-5.48.35-7.65,2.97-2.2,3.1-2.21,6.07-.16.72.5,1.45,1,2.08,1.6.4.38.63.95.93,1.42Z"/>
    <path d="m197.51,101.31c.33-1.13.48-2.01.84-2.8.64-1.42,1.36-2.8,2.13-4.16.14-.25.76-.51.99-.4,1.84.86,3.71,1.69,5.44,2.75,1.65,1.01,1.91,2.01,1.24,3.79-.77,2.06-1.64,4.08-2.53,6.09-.1.23-.77.46-.96.34-1.98-1.21-3.95-2.42-5.83-3.77-.61-.44-.93-1.28-1.33-1.84Z"/>
    <path d="m227.51,63.41c-1.35-.82-2.87-1.71-4.34-2.66-.23-.15-.37-.65-.34-.96.28-2.43.76-4.81,2.23-6.87.75-1.05,1.76-1.45,2.92-.96,1.94.82,3.95,1.6,5.67,2.78.61.42.96,2.32.54,2.91-1.31,1.82-3.02,3.36-4.65,4.93-.39.38-1.07.45-2.03.83Z"/>
    <path d="m254.04,291.09c-.34.7-.56,1.55-1.08,2.16-1.23,1.47-2.57,2.84-3.91,4.2-.16.17-.75.19-.91.04-1.62-1.53-3.24-3.06-4.74-4.71-.91-1-.87-2.2,0-3.29,1.47-1.84,2.96-3.66,4.48-5.46.14-.16.72-.23.83-.1,1.62,1.87,3.2,3.77,4.75,5.69.28.35.36.87.59,1.46Z"/>
    <path d="m246.88,356.39c.54.34,1.31.69,1.9,1.23,3.17,2.87,3.22,4.51.25,7.54-.98,1-1.98,1.98-3.06,2.86-.28.23-1.09.23-1.35,0-2.07-1.87-4.08-3.82-6.06-5.78-.21-.2-.29-.92-.17-1,2.29-1.52,4.6-3,6.94-4.44.35-.22.84-.23,1.54-.4Z"/>
    <path d="m179.31,32.89c.7-1.56,1.3-3.16,2.11-4.65,1.76-3.28,1.81-3.26,5.09-1.62,1.61.8,3.2,1.63,4.82,2.4.85.4,1.08.8.4,1.59-1.46,1.69-2.79,3.5-4.3,5.14-1.6,1.73-2.6,1.83-4.66.66-.89-.51-1.74-1.14-2.5-1.83-.4-.37-.57-.99-.95-1.69Z"/>
    <path d="m20.51,379.32c-.22,1.38-.31,2.79-.67,4.13-.88,3.23-3.46,4.41-6.51,3.09-3.56-1.54-3.75-1.87-3.27-5.69.49-3.9,1.03-4.39,4.94-4.24,1.55.06,3.11.2,4.65.43.32.05.69.58.82.96.12.39-.03.86-.07,1.3.04,0,.08.01.12.02Z"/>
    <path d="m87.62,291.33c-1.99-.12-3.51-.15-5.01-.34-.39-.05-.94-.57-1.02-.96-.21-.97-.23-1.98-.25-2.97-.08-4.06,3.91-6.7,7.67-5.11,3.26,1.38,4.53,5.18,2.7,8.22-.22.36-.72.66-1.14.75-1.12.23-2.28.33-2.95.42Z"/>
    <path d="m245.11,27.35c-.71,1.61-1.25,3.02-1.94,4.35-1.55,2.95-1.58,2.94-4.64,1.56-1.75-.79-3.48-1.59-5.23-2.37-.6-.27-.92-.54-.52-1.26,1.03-1.85,2.01-3.72,3.01-5.59.57-1.06,1.42-1.52,2.58-1.08,1.63.62,3.31,1.16,4.81,2.02.8.46,1.26,1.5,1.94,2.36Z"/>
    <path d="m193.2,355.23c-1.32-.88-2.68-1.64-3.86-2.61-2.87-2.36-2.93-4.22-.35-6.91.58-.6,1.17-1.2,1.77-1.78,1.8-1.72,1.17-1.9,3.3-.06,1.69,1.46,3.33,2.97,5.02,4.43.67.58.69,1.02.03,1.64-1.42,1.34-2.76,2.76-4.18,4.11-.44.42-1.02.7-1.74,1.17Z"/>
    <path d="m92.85,135.08c0,3.35-2.7,6.41-5.51,6.39-.93,0-1.89-.74-2.77-1.26-2.96-1.76-3.13-2.26-1.6-5.36.86-1.75,1.92-3.41,2.98-5.06.17-.27.88-.41,1.23-.3.91.29,1.74.8,2.63,1.16,2.21.89,3.22,2.51,3.05,4.43Z"/>
    <path d="m219.77,272.99c1.24.09,2.04.54,2.59,1.61.72,1.42,1.65,2.74,2.35,4.16.75,1.53.42,2.9-.79,4.15-3.44,3.56-3.44,3.58-7.12.34-3.68-3.24-3.71-4.23-.29-7.66.62-.62,1.21-1.28,1.87-1.85.39-.33.92-.5,1.39-.75Z"/>
    <path d="m234.54,109.25c-.46-.15-.7-.16-.82-.28-1.62-1.52-3.36-2.94-4.77-4.64-.53-.63-.61-2.04-.3-2.87.56-1.51,1.53-2.87,2.4-4.25.15-.23.74-.43.98-.32,2.06.94,4.13,1.87,6.12,2.96,1.38.76,1.74,2.01,1,3.48-.8,1.6-1.49,3.29-2.48,4.76-.43.64-1.51.84-2.13,1.16Z"/>
    <path d="m209.81,396.42c.83.1,1.68.12,2.49.31,2.88.69,4.23,3.45,2.44,5.78-1.54,2.01-3.75,3.51-5.69,5.21-.12.11-.54.09-.63-.02-1.61-1.89-3.78-3.42-4.13-6.14-.46-3.55,1.39-5.24,5.53-5.14Z"/>
    <path d="m197.86,256.14c-.36.58-.64,1.4-1.21,1.87-1.56,1.29-3.24,2.46-4.9,3.63-.18.13-.7.1-.82-.04-1.4-1.78-2.81-3.57-4.1-5.43-.72-1.04-.51-2.13.4-3.05,1.43-1.45,2.85-2.91,4.32-4.32.19-.18.84-.21.97-.05,1.67,2.03,3.29,4.11,4.9,6.19.21.27.25.66.44,1.2Z"/>
    <path d="m273.2,117.07c-.45,1.01-.81,1.9-1.24,2.74-.67,1.32-1.34,2.64-2.1,3.89-.17.28-.9.55-1.12.42-1.9-1.18-3.77-2.39-5.58-3.71-1.71-1.24-1.97-2.32-.84-4.11,1.01-1.61,2.25-3.09,3.46-4.58.17-.21.79-.3,1.01-.16,1.78,1.2,3.55,2.42,5.24,3.74.52.41.78,1.14,1.17,1.75Z"/>
    <path d="m242.25,225.57c-.67-.47-1.51-.87-2.1-1.5-.95-1.01-1.9-2.1-2.53-3.32-.37-.73-.52-2.09-.09-2.61,1.52-1.87,3.32-3.52,5.04-5.22.12-.12.66-.04.8.12,1.51,1.69,3.04,3.37,4.44,5.15.87,1.12.69,2.32-.33,3.35-1.09,1.11-2.15,2.26-3.3,3.3-.39.35-1.05.42-1.92.73Z"/>
    <path d="m135.02,300.89c.03-.16.05-.32.1-.46.94-2.66,5.49-4.18,7.72-2.5,1.65,1.25,3.21,2.63,4.74,4.02.2.18.17,1-.02,1.14-2.34,1.73-4.72,3.4-7.13,5.04-.23.16-.88.13-.99-.04-1.45-2.19-2.84-4.41-4.24-6.64-.1-.16-.12-.38-.18-.58Z"/>
    <path d="m173.66,227.73c2.27-.02,5.24,2.25,5.76,4.49.09.4-.02,1.02-.29,1.32-1.73,1.97-3.52,3.89-5.33,5.78-.15.15-.78.09-.97-.1-1.39-1.31-2.73-2.68-4.07-4.04-.16-.16-.3-.38-.36-.6-.77-2.98,2.2-6.82,5.27-6.85Z"/>
    <path d="m169.78,378.3c-.09-1.65.93-2.97,2.24-4.19,2.72-2.54,2.74-2.59,5.31.06,1.02,1.05,1.94,2.22,2.8,3.42.71.99.62,2.05-.23,2.96-.84.91-1.63,1.92-2.63,2.6-.59.4-1.58.36-2.37.28-3.38-.32-5.15-2.05-5.12-5.13Z"/>
    <path d="m142.28,417.98c.62.44,1.33.77,1.81,1.31.91,1,1.7,2.11,2.52,3.19.68.9.77,1.92.04,2.76-1.64,1.89-3.37,3.7-5.1,5.5-.13.13-.7.06-.87-.12-1.1-1.15-2.21-2.31-3.19-3.56-1.18-1.52-1.21-2.95-.08-4.53.94-1.33,1.99-2.6,3.09-3.8.35-.38,1.02-.45,1.78-.77Z"/>
    <path d="m265.39,241.75c.34.2.93.41,1.31.81,1.39,1.48,2.73,3.02,4.03,4.58.16.2.1.87-.1,1.04-1.6,1.32-3.25,2.58-4.9,3.84-1.02.78-2.07.74-3.07-.06-1.81-1.45-3.78-3.1-3.31-5.58.5-2.62,2.97-3.67,5.31-4.5.15-.05.31-.06.71-.13Z"/>
    <path d="m48.88,180.68c-.14,1.67-.23,3.35-.46,5-.05.36-.66.94-.97.92-1.98-.16-3.96-.43-5.93-.71-1.31-.18-2.07-.96-2.18-2.3-.06-.71-.17-1.44-.08-2.14.23-1.72.22-3.75,2.25-4.4,2.36-.75,4.71-.21,6.69,1.22.57.41.62,1.54.9,2.33-.07.03-.15.05-.22.08Z"/>
    <path d="m156.68,205.61c-2.65-.02-3.14-.36-3.5-3-.27-2.01-.36-4.05-.46-6.08-.05-.97,1.29-2.06,2.11-1.66,2.15,1.04,4.3,2.11,6.31,3.38.56.36.97,1.49.91,2.22-.28,3.42-2.19,5.17-5.37,5.15Z"/>
    <path d="m180.2,431.88c-2.75,0-5.5,0-8.25,0-.3,0-.59-.12-.89-.19.1-.29.14-.61.3-.86,2.63-4.26,7.46-5.84,11.93-3.64,1.93.95,3.61,2.44,5.38,3.72.22.16.3.51.44.78-.3.07-.59.19-.89.19-2.67.01-5.34,0-8.01,0Z"/>
    <path d="m29.63,187.36c-.86-.3-1.87-.42-2.52-.96-.52-.44-.83-1.4-.84-2.13-.02-1.34.21-2.7.42-4.04.2-1.29.99-2.05,2.29-2.25.28-.04.55-.12.83-.12,1.83.03,3.94-.18,4.93,1.68,1.16,2.16.51,4.46-.66,6.5-.26.45-1.03.72-1.61.84-.89.19-1.82.18-2.73.25-.03.08-.06.15-.1.23Z"/>
    <path d="m255.73,262.73c-.4-.09-.9-.04-1.07-.26-1.29-1.56-2.57-3.14-3.71-4.81-.26-.38-.16-1.23.08-1.72.9-1.83,2.36-3.12,4.35-3.66.52-.14,1.25-.04,1.72.23,1.82,1.03,2.96,2.65,3.51,4.65.12.45.07,1.14-.2,1.48-1.04,1.3-2.17,2.54-3.36,3.72-.29.29-.89.25-1.32.36Z"/>
    <path d="m205.78,179.69c1.03.08,2.09.08,3.09.3.37.08.92.73.88,1.04-.22,1.45-.42,2.96-.98,4.29-1.46,3.43-6.02,3.83-8.18.75-.71-1-1.24-2.14-1.74-3.27-.11-.26.16-.9.44-1.1,1.93-1.39,4.03-2.28,6.49-2Z"/>
    <path d="m82.75,180.23c-2.95-.03-5.18-2.9-4.74-5.66.09-.55.23-1.1.42-1.62,1.07-2.97.26-2.86,3.74-1.91,2.95.81,4.48,3.31,6.32,5.43.12.14.03.67-.14.82-1.72,1.52-3.58,2.8-5.6,2.94Z"/>
    <path d="m188.25,179.29c2.46-.15,3.8,2.04,5.44,3.75.11.12-.01.6-.16.82-2.14,3.26-5.58,4.06-9.08,4.66-.25.04-.85-.51-.88-.83-.18-1.54-.41-3.11-.26-4.64.24-2.47,1.97-3.78,4.95-3.77Z"/>
    <path d="m52.2,175.01c-1.3-.19-2.61-.33-3.9-.58-1.46-.27-2.31-1.26-2.21-2.69.11-1.65.51-3.28.82-4.91.05-.25.24-.51.44-.69,1.43-1.28,5.67-.53,6.33,1.28.67,1.85,1.04,3.84,1.37,5.79.17,1.03-1.32,1.86-2.85,1.8Z"/>
    <path d="m266.88,234.84c-.34.55-.58,1.19-1.03,1.6-1.04.93-2.15,1.78-3.28,2.6-1.19.87-2.52.88-3.48-.2-1.15-1.29-2.05-2.8-3.03-4.24-.14-.21-.16-.55-.12-.81.32-2.22,3.85-4.3,5.84-3.3,1.56.78,3,1.82,4.43,2.84.34.25.41.87.69,1.51Z"/>
    <path d="m287.68,311.54c0,1.4-.06,2.8.02,4.19.07,1.16-.48,1.46-1.5,1.41-2.33-.13-3.99-1.23-4.95-3.36-.1-.22-.19-.44-.27-.66-1.13-3.06-1.05-3.39,1.47-5.42.9-.73,1.8-1.46,2.77-2.07,1.09-.69,2.41.07,2.46,1.37.05,1.51.01,3.03.01,4.55h0Z"/>
    <path d="m148.89,201.61c.03,1.25-2.25,4.25-3.46,4.46-.37.06-.93-.1-1.19-.36-1.55-1.59-3.06-3.22-4.51-4.9-.24-.28-.28-.94-.13-1.3.99-2.29,3.54-3.78,5.64-3.38,2.14.41,3.47,2.23,3.64,5,0,.16,0,.32,0,.48Z"/>
    <path d="m158.5,189.31c.02-1.9,2.46-4.74,4.34-4.86.51-.03,1.25.29,1.55.69,1.16,1.6,2.21,3.28,3.24,4.96.15.25.13.73,0,1.02-.91,2.11-4.55,3.56-6.67,2.7-1.7-.69-2.48-2.13-2.46-4.51Z"/>
    <path d="m262.12,344.5c.26-.95.43-1.95.8-2.85,1.17-2.82,3.52-3.13,5.48-.75.83,1.01,1.69,2.03,2.37,3.14.9,1.47.54,2.8-1.04,3.44-1.23.49-2.6.83-3.92.84-2.29,0-3.54-1.47-3.69-3.81Z"/>
    <path d="m36.7,46.21c-.02-3.8,2.1-5.32,5.29-4.17.63.23,1.26.53,1.81.9,1.64,1.09,1.7,3.36.1,4.52-.96.7-1.98,1.35-3.03,1.92-2.1,1.14-3.41.53-3.97-1.81-.14-.58-.18-1.18-.21-1.36Z"/>
    <path d="m102.92,101.42c-.01-3.43,2.05-4.92,4.99-3.87.6.21,1.18.5,1.71.85,1.63,1.07,1.71,3.08.14,4.26-.95.71-1.98,1.35-3.03,1.91-1.78.95-2.97.4-3.51-1.56-.17-.61-.23-1.25-.29-1.6Z"/>
    <path d="m71.84,344.88c-.02,2.54-1.44,3.38-4.14,2.5-1.15-.38-2.23-1.06-3.23-1.76-1.15-.81-1.37-2.02-.38-2.97,1.03-.98,2.3-1.82,3.61-2.36,1.35-.55,2.84.35,3.44,1.84.35.87.47,1.83.69,2.75Z"/>
    <path d="m70.08,399.07c.04,2.59-1.42,3.4-4.15,2.48-1.04-.35-2.02-.95-2.94-1.56-1.41-.94-1.58-2.19-.4-3.42.7-.73,1.57-1.36,2.48-1.81,2.01-.98,3.94-.07,4.59,2.08.22.72.28,1.48.42,2.22Z"/>
    <path d="m200.5,282.41c2.53,0,3.87.78,4.24,2.38.42,1.78-.87,4.72-2.41,5.51-.73.37-2.71-.36-3.23-1.25-.54-.93-1.05-1.88-1.5-2.86-.99-2.18-.26-3.46,2.12-3.73.32-.04.64-.04.78-.05Z"/>
    <path d="m228.45,44.78c-.79-.1-1.59-.15-2.36-.31-1.69-.35-2.32-1.33-1.72-2.96.38-1.02.98-2.01,1.69-2.84,1.11-1.29,2.99-1.56,4.15-.34,1.04,1.09,1.76,2.58,2.32,4.01.38.98-1.33,2.44-2.65,2.46-.47,0-.95-.04-1.42-.06,0,.01,0,.03,0,.04Z"/>
    <path d="m60.21,289.81c-2.42-.46-4.16-1.62-5.46-3.31-.33-.43-.15-1.61.22-2.15.99-1.45,2.55-2.2,4.28-2.26.7-.02,1.55.41,2.09.9,1.32,1.17,1.68,4.49.62,5.91-.38.51-1.23.65-1.75.91Z"/>
    <path d="m205.24,360.91c0-2.64.76-3.84,2.45-4.23,1.63-.38,5.05.87,5.26,2.24.15.99-.41,2.3-1.07,3.15-.65.83-1.79,1.3-2.77,1.82-1.91,1.03-3.09.5-3.65-1.59-.15-.57-.2-1.17-.23-1.39Z"/>
    <path d="m287.69,26.32c0,1.4-.02,2.79,0,4.19.02.84-.2,1.13-1.03.66-1.63-.93-3.3-1.79-4.89-2.76-.28-.17-.52-.92-.37-1.16,1.16-1.91,2.36-3.8,3.68-5.59.33-.45,1.21-.77,1.76-.67.36.07.76.96.81,1.52.12,1.27.04,2.55.04,3.83Z"/>
    <path d="m287.68,404.26c0,1.6.02,3.19-.02,4.79,0,.31-.14.71-.37.9-.12.1-.63-.09-.82-.29-2.01-2-2.99-4.5-3.24-7.27-.1-1.1,2.85-3.91,3.91-3.85.19,0,.5.53.51.82.05,1.63.02,3.27.02,4.91Z"/>
    <path d="m287.68,216.08c0,.99-.02,1.99,0,2.98.02.82-.36,1.05-1.12.89-1.81-.38-3.01-1.46-3.83-3.1-1.44-2.88-1.48-2.87,1.45-4.31.07-.04.14-.07.21-.11,2.64-1.22,3.29-.83,3.29,1.97,0,.56,0,1.11,0,1.67Z"/>
    <path d="m232.08,171.77c-1.72,0-3.15.35-3.77-1.32-.57-1.54,0-3.45,1.24-4.29,1.21-.82,3.52-.8,4.49.18.37.37.56,1.04.58,1.58.02.57-.34,1.15-.38,1.74-.1,1.68-.88,2.43-2.16,2.11Z"/>
    <path d="m175.87,45.63c-.08-1.89.61-2.72,2.44-2.86,2.11-.16,3.7,1.17,3.86,3.22.14,1.82-.65,3.24-1.93,3.18-1.3-.07-2.74-.13-3.81-.74-.55-.31-.4-1.83-.57-2.8Z"/>
    <path d="m78.69,368.37c-2.71.22-3.55-.34-3.65-2.21-.12-2.35,1.19-3.88,3.34-3.9,2.68-.02,3.56,1.11,2.84,3.66-.02.08-.06.15-.07.23-.16,1.68-.86,2.7-2.47,2.22Z"/>
    <path d="m287.68,264.32c0,1.28-.02,2.56,0,3.83.02.91-.33.96-.98.49-1.62-1.17-3.25-2.31-4.83-3.53-.19-.15-.21-.91-.04-1.06,1.63-1.34,3.32-2.62,5-3.9.6-.46.85-.25.84.45,0,1.24,0,2.48,0,3.71Z"/>
    <path d="m230.69,175.89c-.02.2-.02.4-.05.59-.25,1.85-1.18,3.02-2.46,3.11-1.32.09-2.32-.89-2.75-2.79-.23-1.01-.41-2.03-.49-3.06-.02-.24.49-.74.74-.73,1.03.05,2.05.25,3.07.39,1.46.2,2.07,1.05,1.93,2.49Z"/>
    <path d="m77.59,372.43c0,.08,0,.16-.01.24-.15,2.12-1.12,3.5-2.52,3.58-1.47.09-2.51-1.03-2.85-3.26-.6-4-1.29-3.57,3.04-2.98,1.81.25,2.36.88,2.33,2.42Z"/>
    <path d="m171.59,45.68c-.21-.03-.5-.04-.77-.1-1.35-.27-2.6-.7-2.81-2.32-.15-1.2.75-2.23,2.4-2.71,1.03-.3,2.1-.48,3.14-.73.74-.17,1.05.1.96.86-.11.95-.15,1.91-.28,2.86-.24,1.64-.94,2.2-2.65,2.14Z"/>
    <path d="m87.4,361.43c.4,0,.8.01,1.19,0,.75-.03,1.1.28,1.01,1.08-.11.95-.16,1.9-.24,2.86-.09,1.06-.68,1.56-1.73,1.53-.24,0-.48.02-.72,0-3.28-.37-3.18.09-2.86-3.46.16-1.78.73-2.05,3.34-2Z"/>
    <path d="m181.02,57.14c-3-.04-3.25-.31-3.06-3.36.06-1.06-.07-2.17,1.64-2.15,2.94.05,3.52.3,3.73,2.18.03.28.05.56.06.84q.14,2.52-2.37,2.48Z"/>
    <path d="m240.36,164.83c2.75,0,2.35-.21,2.25,2.38-.02.64-.04,1.31-.25,1.89-.15.41-.63.98-.98.99-1.22.05-2.45-.12-3.67-.21-.11,0-.31-.09-.31-.14-.04-1.25-.21-2.53,0-3.73.09-.48,1.03-.87,1.65-1.14.37-.16.86-.03,1.3-.03Z"/>
    <path d="m287.97,148.4v-11.29c-2.26.45-3.8,2.47-4,5.69.45,1.46.8,2.97,1.38,4.38.43,1.04,1.49,1.7,2.56,1.3.07-.03,0-.05.06-.08Z"/>
    <path d="m283.76,136.76c-1.72,0-3.15.35-3.77-1.32-.57-1.54,0-3.45,1.24-4.29,1.21-.82,3.52-.8,4.49.18.37.37.56,1.04.58,1.58.02.57-.34,1.15-.38,1.74-.1,1.68-.88,2.43-2.16,2.11Z"/>
    <path d="m282.36,140.88c-.02.2-.02.4-.05.59-.25,1.85-1.18,3.02-2.46,3.11-1.32.09-2.32-.89-2.75-2.79-.23-1.01-.41-2.03-.49-3.06-.02-.24.49-.74.74-.73,1.03.05,2.05.25,3.07.39,1.46.2,2.07,1.05,1.93,2.49Z"/>
    <path d="m257.75,349.59c.01-1.51.54-2.14,1.78-2.12,2.45.05,3.04.63,3.05,3.01,0,1.28-.74,1.94-2.15,1.95-1.62,0-2.69-1.13-2.68-2.84Z"/>
    <path d="m266.3,349.88c.96.13,2.23.22,2.45,1.7.21,1.4-.85,1.94-1.96,2.33q-3.02,1.07-2.82-2.09c.1-1.51.59-1.96,2.32-1.94Z"/>
    <path d="m35.79,41.48c-1.61.06-2.22-.41-2.29-1.74-.08-1.56.87-2.72,2.37-2.72,1.04,0,2.21.05,2.31,1.48.14,1.95-.68,2.91-2.39,2.97Z"/>
    <path d="m260.64,343.68c0,1.8-.08,1.89-2.01,1.89-1.9,0-2.31-.5-2.26-3.04.04-1.86,1.58-1.07,2.44-1.17,1.5-.18,1.82.34,1.83,2.31Z"/>
    <path d="m205.32,282.21c.03-1.81.46-2.38,1.77-2.37,1.46.02,2.51.99,2.41,2.37-.07.99-.17,2.11-1.57,2.11-1.67,0-2.63-.8-2.61-2.11Z"/>
    <path d="m70.81,335.01c1.26-.02,2.36,1.12,2.41,2.5.03,1.01-1.42,2.21-2.85,1.81-.79-.23-1.44-1.54-1.8-2.5-.3-.81,1.04-1.79,2.24-1.81Z"/>
    <path d="m59.96,279.3c.33-1.66,1.26-2.04,2.35-2.11,1.3-.08,2.42,1.18,2.41,2.6-.01,1.1-1.16,1.98-2.94,1.63-.78-.16-1.32-1.5-1.82-2.12Z"/>
    <path d="m225.9,34.12c.04-1.1,1.32-2.23,2.47-2.18,1.12.04,2.71,1.35,2.32,2.11-.49.97-1.43,1.84-2.39,2.38-.58.33-2.43-1.61-2.4-2.31Z"/>
    <path d="m66.58,391.24c.23-1.13,1.35-2.01,2.56-2.02,1.27,0,2.36,1.13,2.39,2.5.02.97-1.49,2.19-2.88,1.81-.84-.23-1.39-1.49-2.07-2.29Z"/>
    <path d="m204.24,356.4c-1.17.14-1.96-.28-2.04-1.62-.08-1.44.83-2.51,2.24-2.52,1.01,0,2.12.04,2.2,1.42.11,1.83-.64,2.64-2.39,2.72Z"/>
    <path d="m35.36,44.43c-.05,1.62-.86,2.68-2.01,2.63-1.25-.06-2.24-1.83-2.1-3.93.02-.26.57-.71.86-.71,2.49.04,3.29.57,3.24,2.01Z"/>
    <path d="m101.91,97.01c-1.06.1-1.92-.21-1.93-1.64-.02-1.49.86-2.51,2.29-2.49.98.01,2,.12,2.06,1.45.09,1.81-.63,2.64-2.42,2.67Z"/>
    <path d="m42.38,36.44c.56.17,1.62-.44,1.61.98-.02,2.48-.26,2.98-1.75,2.89-.94-.06-2.34.41-2.33-1.37.01-2.06.41-2.49,2.47-2.49Z"/>
    <path d="m200.73,357.27c2.64.18,3.33.67,3.25,2.05-.09,1.46-.92,2.48-1.96,2.4-1.14-.09-2.09-1.85-1.94-3.8.02-.3.56-.56.65-.65Z"/>
    <path d="m221.29,36.97c.63-1,1.27-2,1.9-3,.78.94,1.82,1.77,2.26,2.85.33.81-1.45,2.16-2.48,2.12-.95-.03-1.49-.72-1.68-1.97Z"/>
    <path d="m204.15,277.43c.1.1.58.35.61.65.17,1.65-.71,3.12-1.8,3.17-1.39.06-2.66-.78-2.71-1.82-.06-1.23,1.14-1.9,3.91-2Z"/>
    <path d="m56.11,281.22c-.73-.04-1.42-.45-1.42-1.56,0-.87,2.37-3.3,2.92-2.87.72.56,1.03,1.8,1.24,2.8.19.93-1.03,1.66-2.74,1.63Z"/>
    <path d="m101.68,99.75c.01,1.43-.75,2.57-1.75,2.61-1.22.04-2.14-1.53-2.11-3.76,0-.24.46-.67.72-.67,2.25-.04,3.13.5,3.14,1.83Z"/>
    <path d="m63.24,393.8c-1.02.02-1.71-.4-1.75-1.49-.03-.81,2.47-3.46,2.77-3.1.67.79,1.13,1.84,1.38,2.86.23.91-1.01,1.71-2.4,1.74Z"/>
    <path d="m64.27,339.62c-.24-.33-.86-.86-1.05-1.52-.21-.74,2.43-3.44,2.74-3.09.67.78,1.13,1.84,1.37,2.86.22.93-1.13,1.78-3.06,1.75Z"/>
    <path d="m236.39,36.57c-1.16.97-1.97,2.15-2.87,2.23-.73.07-1.58-1.19-2.38-1.86.75-.74,1.44-1.95,2.28-2.07.78-.11,1.73.94,2.96,1.7Z"/>
    <path d="m211.2,351.63c.12.13.83.53.86.98.14,2.22-.26,2.85-1.65,2.73-.82-.07-2.11.39-2.14-1.18-.03-2.13.36-2.54,2.93-2.54Z"/>
    <path d="m73.25,393.36c.77,1.24,1.34,2.16,1.92,3.09-.92.53-1.96,1.59-2.72,1.42-.75-.17-1.6-1.57-1.66-2.48-.04-.54,1.37-1.18,2.47-2.03Z"/>
    <path d="m65.38,286.45c-.93-.19-2.15-1.72-1.78-2.82.21-.63,1.37-1.08,2.19-1.35.75-.25,2.42,1.73,1.99,2.59-.37.74-1.56,1.07-2.39,1.59Z"/>
    <path d="m209.6,288.18c-.31.51.54,1.77-1.01,1.7-2.17-.09-2.84-.49-2.64-1.82.13-.83-.33-2.21,1.34-2.11,2.03.12,2.4.46,2.3,2.23Z"/>
    <path d="m77.01,342.49c-.92.44-1.82,1.19-2.76,1.24-1.41.06-1.74-1.47-1.76-2.42-.02-.51,1.52-1.62,2.07-1.46.96.27,1.71,1.31,2.55,2.03l-.1.62Z"/>
    <path d="m108.35,92.36c.74-.05,1.55-.06,1.48,1.31-.1,1.94-.33,2.37-1.73,2.31-.96-.04-2.19.24-2.11-1.46.09-1.8.4-2.16,2.36-2.16Z"/>
  </g>
  <path class="fill-reverse-light" d="m109.85,176.6s-.03.03-.03.03c0,0,.03-.03.03-.03Z"/>
</svg>
